%TF.GenerationSoftware,KiCad,Pcbnew,(5.1.9-0-10_14)*%
%TF.CreationDate,2022-12-08T20:33:16-05:00*%
%TF.ProjectId,5AhG3-18S,35416847-332d-4313-9853-2e6b69636164,rev?*%
%TF.SameCoordinates,Original*%
%TF.FileFunction,Legend,Top*%
%TF.FilePolarity,Positive*%
%FSLAX46Y46*%
G04 Gerber Fmt 4.6, Leading zero omitted, Abs format (unit mm)*
G04 Created by KiCad (PCBNEW (5.1.9-0-10_14)) date 2022-12-08 20:33:16*
%MOMM*%
%LPD*%
G01*
G04 APERTURE LIST*
%ADD10C,0.250000*%
%ADD11C,0.100000*%
%ADD12C,0.300000*%
%ADD13C,2.000000*%
%ADD14C,0.750000*%
%ADD15C,0.150000*%
%ADD16C,0.500000*%
%ADD17C,0.120000*%
%ADD18C,0.010000*%
G04 APERTURE END LIST*
D10*
X224500000Y-88000000D02*
X74000000Y-88000000D01*
X224500000Y-88000000D02*
X224500000Y-74000000D01*
D11*
G36*
X226750000Y-90250000D02*
G01*
X222250000Y-90250000D01*
X222250000Y-85750000D01*
X226750000Y-85750000D01*
X226750000Y-90250000D01*
G37*
X226750000Y-90250000D02*
X222250000Y-90250000D01*
X222250000Y-85750000D01*
X226750000Y-85750000D01*
X226750000Y-90250000D01*
D12*
X354178571Y-153903571D02*
X354178571Y-152403571D01*
X354178571Y-153117857D02*
X355035714Y-153117857D01*
X355035714Y-153903571D02*
X355035714Y-152403571D01*
X355750000Y-153903571D02*
X355750000Y-152403571D01*
X357250000Y-152475000D02*
X357107142Y-152403571D01*
X356892857Y-152403571D01*
X356678571Y-152475000D01*
X356535714Y-152617857D01*
X356464285Y-152760714D01*
X356392857Y-153046428D01*
X356392857Y-153260714D01*
X356464285Y-153546428D01*
X356535714Y-153689285D01*
X356678571Y-153832142D01*
X356892857Y-153903571D01*
X357035714Y-153903571D01*
X357250000Y-153832142D01*
X357321428Y-153760714D01*
X357321428Y-153260714D01*
X357035714Y-153260714D01*
X357964285Y-153903571D02*
X357964285Y-152403571D01*
X357964285Y-153117857D02*
X358821428Y-153117857D01*
X358821428Y-153903571D02*
X358821428Y-152403571D01*
X360464285Y-152403571D02*
X360964285Y-153903571D01*
X361464285Y-152403571D01*
X362250000Y-152403571D02*
X362535714Y-152403571D01*
X362678571Y-152475000D01*
X362821428Y-152617857D01*
X362892857Y-152903571D01*
X362892857Y-153403571D01*
X362821428Y-153689285D01*
X362678571Y-153832142D01*
X362535714Y-153903571D01*
X362250000Y-153903571D01*
X362107142Y-153832142D01*
X361964285Y-153689285D01*
X361892857Y-153403571D01*
X361892857Y-152903571D01*
X361964285Y-152617857D01*
X362107142Y-152475000D01*
X362250000Y-152403571D01*
X364250000Y-153903571D02*
X363535714Y-153903571D01*
X363535714Y-152403571D01*
X364535714Y-152403571D02*
X365392857Y-152403571D01*
X364964285Y-153903571D02*
X364964285Y-152403571D01*
X365821428Y-153475000D02*
X366535714Y-153475000D01*
X365678571Y-153903571D02*
X366178571Y-152403571D01*
X366678571Y-153903571D01*
X367964285Y-152475000D02*
X367821428Y-152403571D01*
X367607142Y-152403571D01*
X367392857Y-152475000D01*
X367250000Y-152617857D01*
X367178571Y-152760714D01*
X367107142Y-153046428D01*
X367107142Y-153260714D01*
X367178571Y-153546428D01*
X367250000Y-153689285D01*
X367392857Y-153832142D01*
X367607142Y-153903571D01*
X367750000Y-153903571D01*
X367964285Y-153832142D01*
X368035714Y-153760714D01*
X368035714Y-153260714D01*
X367750000Y-153260714D01*
X368678571Y-153117857D02*
X369178571Y-153117857D01*
X369392857Y-153903571D02*
X368678571Y-153903571D01*
X368678571Y-152403571D01*
X369392857Y-152403571D01*
X353857142Y-156453571D02*
X353857142Y-154953571D01*
X354571428Y-156453571D02*
X354571428Y-154953571D01*
X355428571Y-156453571D01*
X355428571Y-154953571D01*
X355928571Y-154953571D02*
X356785714Y-154953571D01*
X356357142Y-156453571D02*
X356357142Y-154953571D01*
X357285714Y-155667857D02*
X357785714Y-155667857D01*
X358000000Y-156453571D02*
X357285714Y-156453571D01*
X357285714Y-154953571D01*
X358000000Y-154953571D01*
X359500000Y-156453571D02*
X359000000Y-155739285D01*
X358642857Y-156453571D02*
X358642857Y-154953571D01*
X359214285Y-154953571D01*
X359357142Y-155025000D01*
X359428571Y-155096428D01*
X359500000Y-155239285D01*
X359500000Y-155453571D01*
X359428571Y-155596428D01*
X359357142Y-155667857D01*
X359214285Y-155739285D01*
X358642857Y-155739285D01*
X361000000Y-156310714D02*
X360928571Y-156382142D01*
X360714285Y-156453571D01*
X360571428Y-156453571D01*
X360357142Y-156382142D01*
X360214285Y-156239285D01*
X360142857Y-156096428D01*
X360071428Y-155810714D01*
X360071428Y-155596428D01*
X360142857Y-155310714D01*
X360214285Y-155167857D01*
X360357142Y-155025000D01*
X360571428Y-154953571D01*
X360714285Y-154953571D01*
X360928571Y-155025000D01*
X361000000Y-155096428D01*
X361928571Y-154953571D02*
X362214285Y-154953571D01*
X362357142Y-155025000D01*
X362500000Y-155167857D01*
X362571428Y-155453571D01*
X362571428Y-155953571D01*
X362500000Y-156239285D01*
X362357142Y-156382142D01*
X362214285Y-156453571D01*
X361928571Y-156453571D01*
X361785714Y-156382142D01*
X361642857Y-156239285D01*
X361571428Y-155953571D01*
X361571428Y-155453571D01*
X361642857Y-155167857D01*
X361785714Y-155025000D01*
X361928571Y-154953571D01*
X363214285Y-156453571D02*
X363214285Y-154953571D01*
X364071428Y-156453571D01*
X364071428Y-154953571D01*
X364785714Y-156453571D02*
X364785714Y-154953571D01*
X365642857Y-156453571D01*
X365642857Y-154953571D01*
X366357142Y-155667857D02*
X366857142Y-155667857D01*
X367071428Y-156453571D02*
X366357142Y-156453571D01*
X366357142Y-154953571D01*
X367071428Y-154953571D01*
X368571428Y-156310714D02*
X368500000Y-156382142D01*
X368285714Y-156453571D01*
X368142857Y-156453571D01*
X367928571Y-156382142D01*
X367785714Y-156239285D01*
X367714285Y-156096428D01*
X367642857Y-155810714D01*
X367642857Y-155596428D01*
X367714285Y-155310714D01*
X367785714Y-155167857D01*
X367928571Y-155025000D01*
X368142857Y-154953571D01*
X368285714Y-154953571D01*
X368500000Y-155025000D01*
X368571428Y-155096428D01*
X369000000Y-154953571D02*
X369857142Y-154953571D01*
X369428571Y-156453571D02*
X369428571Y-154953571D01*
D13*
X119071428Y-101142857D02*
X131071428Y-101142857D01*
X131071428Y-104000000D01*
X130500000Y-105714285D01*
X129357142Y-106857142D01*
X128214285Y-107428571D01*
X125928571Y-108000000D01*
X124214285Y-108000000D01*
X121928571Y-107428571D01*
X120785714Y-106857142D01*
X119642857Y-105714285D01*
X119071428Y-104000000D01*
X119071428Y-101142857D01*
X122500000Y-112571428D02*
X122500000Y-118285714D01*
X119071428Y-111428571D02*
X131071428Y-115428571D01*
X119071428Y-119428571D01*
X119071428Y-123428571D02*
X131071428Y-123428571D01*
X119071428Y-130285714D01*
X131071428Y-130285714D01*
X130500000Y-142285714D02*
X131071428Y-141142857D01*
X131071428Y-139428571D01*
X130500000Y-137714285D01*
X129357142Y-136571428D01*
X128214285Y-136000000D01*
X125928571Y-135428571D01*
X124214285Y-135428571D01*
X121928571Y-136000000D01*
X120785714Y-136571428D01*
X119642857Y-137714285D01*
X119071428Y-139428571D01*
X119071428Y-140571428D01*
X119642857Y-142285714D01*
X120214285Y-142857142D01*
X124214285Y-142857142D01*
X124214285Y-140571428D01*
X125357142Y-148000000D02*
X125357142Y-152000000D01*
X119071428Y-153714285D02*
X119071428Y-148000000D01*
X131071428Y-148000000D01*
X131071428Y-153714285D01*
X119071428Y-165714285D02*
X124785714Y-161714285D01*
X119071428Y-158857142D02*
X131071428Y-158857142D01*
X131071428Y-163428571D01*
X130500000Y-164571428D01*
X129928571Y-165142857D01*
X128785714Y-165714285D01*
X127071428Y-165714285D01*
X125928571Y-165142857D01*
X125357142Y-164571428D01*
X124785714Y-163428571D01*
X124785714Y-158857142D01*
X120214285Y-170857142D02*
X119642857Y-171428571D01*
X119071428Y-170857142D01*
X119642857Y-170285714D01*
X120214285Y-170857142D01*
X119071428Y-170857142D01*
X123642857Y-170857142D02*
X130500000Y-170285714D01*
X131071428Y-170857142D01*
X130500000Y-171428571D01*
X123642857Y-170857142D01*
X131071428Y-170857142D01*
D14*
X110565476Y-101642857D02*
X114565476Y-101642857D01*
X112660714Y-101642857D02*
X112660714Y-103928571D01*
X110565476Y-103928571D02*
X114565476Y-103928571D01*
X110565476Y-105833333D02*
X114565476Y-105833333D01*
X114375000Y-109833333D02*
X114565476Y-109452380D01*
X114565476Y-108880952D01*
X114375000Y-108309523D01*
X113994047Y-107928571D01*
X113613095Y-107738095D01*
X112851190Y-107547619D01*
X112279761Y-107547619D01*
X111517857Y-107738095D01*
X111136904Y-107928571D01*
X110755952Y-108309523D01*
X110565476Y-108880952D01*
X110565476Y-109261904D01*
X110755952Y-109833333D01*
X110946428Y-110023809D01*
X112279761Y-110023809D01*
X112279761Y-109261904D01*
X110565476Y-111738095D02*
X114565476Y-111738095D01*
X112660714Y-111738095D02*
X112660714Y-114023809D01*
X110565476Y-114023809D02*
X114565476Y-114023809D01*
X114565476Y-118404761D02*
X110565476Y-119738095D01*
X114565476Y-121071428D01*
X114565476Y-123166666D02*
X114565476Y-123928571D01*
X114375000Y-124309523D01*
X113994047Y-124690476D01*
X113232142Y-124880952D01*
X111898809Y-124880952D01*
X111136904Y-124690476D01*
X110755952Y-124309523D01*
X110565476Y-123928571D01*
X110565476Y-123166666D01*
X110755952Y-122785714D01*
X111136904Y-122404761D01*
X111898809Y-122214285D01*
X113232142Y-122214285D01*
X113994047Y-122404761D01*
X114375000Y-122785714D01*
X114565476Y-123166666D01*
X110565476Y-128499999D02*
X110565476Y-126595238D01*
X114565476Y-126595238D01*
X114565476Y-129261904D02*
X114565476Y-131547619D01*
X110565476Y-130404761D02*
X114565476Y-130404761D01*
X111708333Y-132690476D02*
X111708333Y-134595238D01*
X110565476Y-132309523D02*
X114565476Y-133642857D01*
X110565476Y-134976190D01*
X114375000Y-138404761D02*
X114565476Y-138023809D01*
X114565476Y-137452380D01*
X114375000Y-136880952D01*
X113994047Y-136499999D01*
X113613095Y-136309523D01*
X112851190Y-136119047D01*
X112279761Y-136119047D01*
X111517857Y-136309523D01*
X111136904Y-136500000D01*
X110755952Y-136880952D01*
X110565476Y-137452380D01*
X110565476Y-137833333D01*
X110755952Y-138404761D01*
X110946428Y-138595238D01*
X112279761Y-138595238D01*
X112279761Y-137833333D01*
X112660714Y-140309523D02*
X112660714Y-141642857D01*
X110565476Y-142214285D02*
X110565476Y-140309523D01*
X114565476Y-140309523D01*
X114565476Y-142214285D01*
X110565476Y-146976190D02*
X114565476Y-146976190D01*
X114565476Y-148500000D01*
X114375000Y-148880952D01*
X114184523Y-149071428D01*
X113803571Y-149261904D01*
X113232142Y-149261904D01*
X112851190Y-149071428D01*
X112660714Y-148880952D01*
X112470238Y-148500000D01*
X112470238Y-146976190D01*
X110565476Y-153261904D02*
X112470238Y-151928571D01*
X110565476Y-150976190D02*
X114565476Y-150976190D01*
X114565476Y-152500000D01*
X114375000Y-152880952D01*
X114184523Y-153071428D01*
X113803571Y-153261904D01*
X113232142Y-153261904D01*
X112851190Y-153071428D01*
X112660714Y-152880952D01*
X112470238Y-152500000D01*
X112470238Y-150976190D01*
X112660714Y-154976190D02*
X112660714Y-156309523D01*
X110565476Y-156880952D02*
X110565476Y-154976190D01*
X114565476Y-154976190D01*
X114565476Y-156880952D01*
X110755952Y-158404761D02*
X110565476Y-158976190D01*
X110565476Y-159928571D01*
X110755952Y-160309523D01*
X110946428Y-160500000D01*
X111327380Y-160690476D01*
X111708333Y-160690476D01*
X112089285Y-160500000D01*
X112279761Y-160309523D01*
X112470238Y-159928571D01*
X112660714Y-159166666D01*
X112851190Y-158785714D01*
X113041666Y-158595238D01*
X113422619Y-158404761D01*
X113803571Y-158404761D01*
X114184523Y-158595238D01*
X114375000Y-158785714D01*
X114565476Y-159166666D01*
X114565476Y-160119047D01*
X114375000Y-160690476D01*
X112660714Y-162404761D02*
X112660714Y-163738095D01*
X110565476Y-164309523D02*
X110565476Y-162404761D01*
X114565476Y-162404761D01*
X114565476Y-164309523D01*
X110565476Y-166023809D02*
X114565476Y-166023809D01*
X110565476Y-168309523D01*
X114565476Y-168309523D01*
X114565476Y-169642857D02*
X114565476Y-171928571D01*
X110565476Y-170785714D02*
X114565476Y-170785714D01*
X107815476Y-99357142D02*
X103815476Y-100309523D01*
X106672619Y-101071428D01*
X103815476Y-101833333D01*
X107815476Y-102785714D01*
X103815476Y-104309523D02*
X107815476Y-104309523D01*
X105910714Y-104309523D02*
X105910714Y-106595238D01*
X103815476Y-106595238D02*
X107815476Y-106595238D01*
X105910714Y-108500000D02*
X105910714Y-109833333D01*
X103815476Y-110404761D02*
X103815476Y-108500000D01*
X107815476Y-108500000D01*
X107815476Y-110404761D01*
X103815476Y-112119047D02*
X107815476Y-112119047D01*
X103815476Y-114404761D01*
X107815476Y-114404761D01*
X107815476Y-118976190D02*
X103815476Y-119928571D01*
X106672619Y-120690476D01*
X103815476Y-121452380D01*
X107815476Y-122404761D01*
X103815476Y-123928571D02*
X107815476Y-123928571D01*
X103815476Y-128119047D02*
X105720238Y-126785714D01*
X103815476Y-125833333D02*
X107815476Y-125833333D01*
X107815476Y-127357142D01*
X107625000Y-127738095D01*
X107434523Y-127928571D01*
X107053571Y-128119047D01*
X106482142Y-128119047D01*
X106101190Y-127928571D01*
X105910714Y-127738095D01*
X105720238Y-127357142D01*
X105720238Y-125833333D01*
X105910714Y-129833333D02*
X105910714Y-131166666D01*
X103815476Y-131738095D02*
X103815476Y-129833333D01*
X107815476Y-129833333D01*
X107815476Y-131738095D01*
X104005952Y-133261904D02*
X103815476Y-133833333D01*
X103815476Y-134785714D01*
X104005952Y-135166666D01*
X104196428Y-135357142D01*
X104577380Y-135547619D01*
X104958333Y-135547619D01*
X105339285Y-135357142D01*
X105529761Y-135166666D01*
X105720238Y-134785714D01*
X105910714Y-134023809D01*
X106101190Y-133642857D01*
X106291666Y-133452380D01*
X106672619Y-133261904D01*
X107053571Y-133261904D01*
X107434523Y-133452380D01*
X107625000Y-133642857D01*
X107815476Y-134023809D01*
X107815476Y-134976190D01*
X107625000Y-135547619D01*
X104196428Y-142595238D02*
X104005952Y-142404761D01*
X103815476Y-141833333D01*
X103815476Y-141452380D01*
X104005952Y-140880952D01*
X104386904Y-140500000D01*
X104767857Y-140309523D01*
X105529761Y-140119047D01*
X106101190Y-140119047D01*
X106863095Y-140309523D01*
X107244047Y-140500000D01*
X107625000Y-140880952D01*
X107815476Y-141452380D01*
X107815476Y-141833333D01*
X107625000Y-142404761D01*
X107434523Y-142595238D01*
X107815476Y-145071428D02*
X107815476Y-145833333D01*
X107625000Y-146214285D01*
X107244047Y-146595238D01*
X106482142Y-146785714D01*
X105148809Y-146785714D01*
X104386904Y-146595238D01*
X104005952Y-146214285D01*
X103815476Y-145833333D01*
X103815476Y-145071428D01*
X104005952Y-144690476D01*
X104386904Y-144309523D01*
X105148809Y-144119047D01*
X106482142Y-144119047D01*
X107244047Y-144309523D01*
X107625000Y-144690476D01*
X107815476Y-145071428D01*
X103815476Y-148500000D02*
X107815476Y-148500000D01*
X103815476Y-150785714D01*
X107815476Y-150785714D01*
X103815476Y-152690476D02*
X107815476Y-152690476D01*
X103815476Y-154976190D01*
X107815476Y-154976190D01*
X105910714Y-156880952D02*
X105910714Y-158214285D01*
X103815476Y-158785714D02*
X103815476Y-156880952D01*
X107815476Y-156880952D01*
X107815476Y-158785714D01*
X104196428Y-162785714D02*
X104005952Y-162595238D01*
X103815476Y-162023809D01*
X103815476Y-161642857D01*
X104005952Y-161071428D01*
X104386904Y-160690476D01*
X104767857Y-160499999D01*
X105529761Y-160309523D01*
X106101190Y-160309523D01*
X106863095Y-160499999D01*
X107244047Y-160690476D01*
X107625000Y-161071428D01*
X107815476Y-161642857D01*
X107815476Y-162023809D01*
X107625000Y-162595238D01*
X107434523Y-162785714D01*
X107815476Y-163928571D02*
X107815476Y-166214285D01*
X103815476Y-165071428D02*
X107815476Y-165071428D01*
X105910714Y-167547619D02*
X105910714Y-168880952D01*
X103815476Y-169452380D02*
X103815476Y-167547619D01*
X107815476Y-167547619D01*
X107815476Y-169452380D01*
X103815476Y-171166666D02*
X107815476Y-171166666D01*
X107815476Y-172119047D01*
X107625000Y-172690476D01*
X107244047Y-173071428D01*
X106863095Y-173261904D01*
X106101190Y-173452380D01*
X105529761Y-173452380D01*
X104767857Y-173261904D01*
X104386904Y-173071428D01*
X104005952Y-172690476D01*
X103815476Y-172119047D01*
X103815476Y-171166666D01*
D15*
X120750000Y-192625000D02*
X120750000Y-194041666D01*
X120666666Y-194208333D01*
X120583333Y-194291666D01*
X120416666Y-194375000D01*
X120166666Y-194375000D01*
X120000000Y-194291666D01*
X120750000Y-193708333D02*
X120583333Y-193791666D01*
X120250000Y-193791666D01*
X120083333Y-193708333D01*
X120000000Y-193625000D01*
X119916666Y-193458333D01*
X119916666Y-192958333D01*
X120000000Y-192791666D01*
X120083333Y-192708333D01*
X120250000Y-192625000D01*
X120583333Y-192625000D01*
X120750000Y-192708333D01*
X121583333Y-193791666D02*
X121583333Y-192625000D01*
X121583333Y-192041666D02*
X121500000Y-192125000D01*
X121583333Y-192208333D01*
X121666666Y-192125000D01*
X121583333Y-192041666D01*
X121583333Y-192208333D01*
X122166666Y-192625000D02*
X122833333Y-192625000D01*
X122416666Y-192041666D02*
X122416666Y-193541666D01*
X122500000Y-193708333D01*
X122666666Y-193791666D01*
X122833333Y-193791666D01*
X123416666Y-193791666D02*
X123416666Y-192041666D01*
X124166666Y-193791666D02*
X124166666Y-192875000D01*
X124083333Y-192708333D01*
X123916666Y-192625000D01*
X123666666Y-192625000D01*
X123500000Y-192708333D01*
X123416666Y-192791666D01*
X125750000Y-192625000D02*
X125750000Y-193791666D01*
X125000000Y-192625000D02*
X125000000Y-193541666D01*
X125083333Y-193708333D01*
X125250000Y-193791666D01*
X125500000Y-193791666D01*
X125666666Y-193708333D01*
X125750000Y-193625000D01*
X126583333Y-193791666D02*
X126583333Y-192041666D01*
X126583333Y-192708333D02*
X126750000Y-192625000D01*
X127083333Y-192625000D01*
X127250000Y-192708333D01*
X127333333Y-192791666D01*
X127416666Y-192958333D01*
X127416666Y-193458333D01*
X127333333Y-193625000D01*
X127250000Y-193708333D01*
X127083333Y-193791666D01*
X126750000Y-193791666D01*
X126583333Y-193708333D01*
X128166666Y-193625000D02*
X128250000Y-193708333D01*
X128166666Y-193791666D01*
X128083333Y-193708333D01*
X128166666Y-193625000D01*
X128166666Y-193791666D01*
X129750000Y-193708333D02*
X129583333Y-193791666D01*
X129250000Y-193791666D01*
X129083333Y-193708333D01*
X129000000Y-193625000D01*
X128916666Y-193458333D01*
X128916666Y-192958333D01*
X129000000Y-192791666D01*
X129083333Y-192708333D01*
X129250000Y-192625000D01*
X129583333Y-192625000D01*
X129750000Y-192708333D01*
X130750000Y-193791666D02*
X130583333Y-193708333D01*
X130500000Y-193625000D01*
X130416666Y-193458333D01*
X130416666Y-192958333D01*
X130500000Y-192791666D01*
X130583333Y-192708333D01*
X130750000Y-192625000D01*
X131000000Y-192625000D01*
X131166666Y-192708333D01*
X131250000Y-192791666D01*
X131333333Y-192958333D01*
X131333333Y-193458333D01*
X131250000Y-193625000D01*
X131166666Y-193708333D01*
X131000000Y-193791666D01*
X130750000Y-193791666D01*
X132083333Y-193791666D02*
X132083333Y-192625000D01*
X132083333Y-192791666D02*
X132166666Y-192708333D01*
X132333333Y-192625000D01*
X132583333Y-192625000D01*
X132750000Y-192708333D01*
X132833333Y-192875000D01*
X132833333Y-193791666D01*
X132833333Y-192875000D02*
X132916666Y-192708333D01*
X133083333Y-192625000D01*
X133333333Y-192625000D01*
X133500000Y-192708333D01*
X133583333Y-192875000D01*
X133583333Y-193791666D01*
X135666666Y-191958333D02*
X134166666Y-194208333D01*
X137000000Y-193791666D02*
X137000000Y-192041666D01*
X137000000Y-193708333D02*
X136833333Y-193791666D01*
X136500000Y-193791666D01*
X136333333Y-193708333D01*
X136250000Y-193625000D01*
X136166666Y-193458333D01*
X136166666Y-192958333D01*
X136250000Y-192791666D01*
X136333333Y-192708333D01*
X136500000Y-192625000D01*
X136833333Y-192625000D01*
X137000000Y-192708333D01*
X138083333Y-193791666D02*
X137916666Y-193708333D01*
X137833333Y-193625000D01*
X137750000Y-193458333D01*
X137750000Y-192958333D01*
X137833333Y-192791666D01*
X137916666Y-192708333D01*
X138083333Y-192625000D01*
X138333333Y-192625000D01*
X138500000Y-192708333D01*
X138583333Y-192791666D01*
X138666666Y-192958333D01*
X138666666Y-193458333D01*
X138583333Y-193625000D01*
X138500000Y-193708333D01*
X138333333Y-193791666D01*
X138083333Y-193791666D01*
X139416666Y-192625000D02*
X139416666Y-194375000D01*
X139416666Y-192708333D02*
X139583333Y-192625000D01*
X139916666Y-192625000D01*
X140083333Y-192708333D01*
X140166666Y-192791666D01*
X140250000Y-192958333D01*
X140250000Y-193458333D01*
X140166666Y-193625000D01*
X140083333Y-193708333D01*
X139916666Y-193791666D01*
X139583333Y-193791666D01*
X139416666Y-193708333D01*
X141000000Y-192625000D02*
X141000000Y-194375000D01*
X141000000Y-192708333D02*
X141166666Y-192625000D01*
X141500000Y-192625000D01*
X141666666Y-192708333D01*
X141750000Y-192791666D01*
X141833333Y-192958333D01*
X141833333Y-193458333D01*
X141750000Y-193625000D01*
X141666666Y-193708333D01*
X141500000Y-193791666D01*
X141166666Y-193791666D01*
X141000000Y-193708333D01*
X143250000Y-193708333D02*
X143083333Y-193791666D01*
X142750000Y-193791666D01*
X142583333Y-193708333D01*
X142500000Y-193541666D01*
X142500000Y-192875000D01*
X142583333Y-192708333D01*
X142750000Y-192625000D01*
X143083333Y-192625000D01*
X143250000Y-192708333D01*
X143333333Y-192875000D01*
X143333333Y-193041666D01*
X142500000Y-193208333D01*
X144333333Y-193791666D02*
X144166666Y-193708333D01*
X144083333Y-193541666D01*
X144083333Y-192041666D01*
X145000000Y-193791666D02*
X145000000Y-192041666D01*
X145750000Y-193791666D02*
X145750000Y-192875000D01*
X145666666Y-192708333D01*
X145500000Y-192625000D01*
X145250000Y-192625000D01*
X145083333Y-192708333D01*
X145000000Y-192791666D01*
X147333333Y-192625000D02*
X147333333Y-193791666D01*
X146583333Y-192625000D02*
X146583333Y-193541666D01*
X146666666Y-193708333D01*
X146833333Y-193791666D01*
X147083333Y-193791666D01*
X147250000Y-193708333D01*
X147333333Y-193625000D01*
X148166666Y-193791666D02*
X148166666Y-192041666D01*
X148166666Y-192708333D02*
X148333333Y-192625000D01*
X148666666Y-192625000D01*
X148833333Y-192708333D01*
X148916666Y-192791666D01*
X149000000Y-192958333D01*
X149000000Y-193458333D01*
X148916666Y-193625000D01*
X148833333Y-193708333D01*
X148666666Y-193791666D01*
X148333333Y-193791666D01*
X148166666Y-193708333D01*
X151000000Y-191958333D02*
X149500000Y-194208333D01*
X151583333Y-193791666D02*
X151583333Y-192041666D01*
X151583333Y-192875000D02*
X152583333Y-192875000D01*
X152583333Y-193791666D02*
X152583333Y-192041666D01*
X153666666Y-193791666D02*
X153500000Y-193708333D01*
X153416666Y-193625000D01*
X153333333Y-193458333D01*
X153333333Y-192958333D01*
X153416666Y-192791666D01*
X153500000Y-192708333D01*
X153666666Y-192625000D01*
X153916666Y-192625000D01*
X154083333Y-192708333D01*
X154166666Y-192791666D01*
X154250000Y-192958333D01*
X154250000Y-193458333D01*
X154166666Y-193625000D01*
X154083333Y-193708333D01*
X153916666Y-193791666D01*
X153666666Y-193791666D01*
X155000000Y-192625000D02*
X155000000Y-193791666D01*
X155000000Y-192791666D02*
X155083333Y-192708333D01*
X155250000Y-192625000D01*
X155500000Y-192625000D01*
X155666666Y-192708333D01*
X155750000Y-192875000D01*
X155750000Y-193791666D01*
X157333333Y-193791666D02*
X157333333Y-192041666D01*
X157333333Y-193708333D02*
X157166666Y-193791666D01*
X156833333Y-193791666D01*
X156666666Y-193708333D01*
X156583333Y-193625000D01*
X156500000Y-193458333D01*
X156500000Y-192958333D01*
X156583333Y-192791666D01*
X156666666Y-192708333D01*
X156833333Y-192625000D01*
X157166666Y-192625000D01*
X157333333Y-192708333D01*
X158916666Y-193791666D02*
X158916666Y-192875000D01*
X158833333Y-192708333D01*
X158666666Y-192625000D01*
X158333333Y-192625000D01*
X158166666Y-192708333D01*
X158916666Y-193708333D02*
X158750000Y-193791666D01*
X158333333Y-193791666D01*
X158166666Y-193708333D01*
X158083333Y-193541666D01*
X158083333Y-193375000D01*
X158166666Y-193208333D01*
X158333333Y-193125000D01*
X158750000Y-193125000D01*
X158916666Y-193041666D01*
X159333333Y-193958333D02*
X160666666Y-193958333D01*
X161083333Y-193791666D02*
X161083333Y-192041666D01*
X161916666Y-192625000D02*
X161916666Y-193791666D01*
X161916666Y-192791666D02*
X162000000Y-192708333D01*
X162166666Y-192625000D01*
X162416666Y-192625000D01*
X162583333Y-192708333D01*
X162666666Y-192875000D01*
X162666666Y-193791666D01*
X163416666Y-193708333D02*
X163583333Y-193791666D01*
X163916666Y-193791666D01*
X164083333Y-193708333D01*
X164166666Y-193541666D01*
X164166666Y-193458333D01*
X164083333Y-193291666D01*
X163916666Y-193208333D01*
X163666666Y-193208333D01*
X163500000Y-193125000D01*
X163416666Y-192958333D01*
X163416666Y-192875000D01*
X163500000Y-192708333D01*
X163666666Y-192625000D01*
X163916666Y-192625000D01*
X164083333Y-192708333D01*
X164916666Y-193791666D02*
X164916666Y-192625000D01*
X164916666Y-192041666D02*
X164833333Y-192125000D01*
X164916666Y-192208333D01*
X165000000Y-192125000D01*
X164916666Y-192041666D01*
X164916666Y-192208333D01*
X166500000Y-192625000D02*
X166500000Y-194041666D01*
X166416666Y-194208333D01*
X166333333Y-194291666D01*
X166166666Y-194375000D01*
X165916666Y-194375000D01*
X165750000Y-194291666D01*
X166500000Y-193708333D02*
X166333333Y-193791666D01*
X166000000Y-193791666D01*
X165833333Y-193708333D01*
X165750000Y-193625000D01*
X165666666Y-193458333D01*
X165666666Y-192958333D01*
X165750000Y-192791666D01*
X165833333Y-192708333D01*
X166000000Y-192625000D01*
X166333333Y-192625000D01*
X166500000Y-192708333D01*
X167333333Y-193791666D02*
X167333333Y-192041666D01*
X168083333Y-193791666D02*
X168083333Y-192875000D01*
X168000000Y-192708333D01*
X167833333Y-192625000D01*
X167583333Y-192625000D01*
X167416666Y-192708333D01*
X167333333Y-192791666D01*
X168666666Y-192625000D02*
X169333333Y-192625000D01*
X168916666Y-192041666D02*
X168916666Y-193541666D01*
X169000000Y-193708333D01*
X169166666Y-193791666D01*
X169333333Y-193791666D01*
X169500000Y-193958333D02*
X170833333Y-193958333D01*
X172083333Y-193791666D02*
X171250000Y-193791666D01*
X171250000Y-192041666D01*
X172666666Y-193791666D02*
X172666666Y-192625000D01*
X172666666Y-192041666D02*
X172583333Y-192125000D01*
X172666666Y-192208333D01*
X172750000Y-192125000D01*
X172666666Y-192041666D01*
X172666666Y-192208333D01*
X174083333Y-192875000D02*
X174333333Y-192958333D01*
X174416666Y-193041666D01*
X174500000Y-193208333D01*
X174500000Y-193458333D01*
X174416666Y-193625000D01*
X174333333Y-193708333D01*
X174166666Y-193791666D01*
X173500000Y-193791666D01*
X173500000Y-192041666D01*
X174083333Y-192041666D01*
X174250000Y-192125000D01*
X174333333Y-192208333D01*
X174416666Y-192375000D01*
X174416666Y-192541666D01*
X174333333Y-192708333D01*
X174250000Y-192791666D01*
X174083333Y-192875000D01*
X173500000Y-192875000D01*
X176250000Y-193625000D02*
X176166666Y-193708333D01*
X175916666Y-193791666D01*
X175750000Y-193791666D01*
X175500000Y-193708333D01*
X175333333Y-193541666D01*
X175250000Y-193375000D01*
X175166666Y-193041666D01*
X175166666Y-192791666D01*
X175250000Y-192458333D01*
X175333333Y-192291666D01*
X175500000Y-192125000D01*
X175750000Y-192041666D01*
X175916666Y-192041666D01*
X176166666Y-192125000D01*
X176250000Y-192208333D01*
X177000000Y-193791666D02*
X177000000Y-192041666D01*
X177583333Y-193291666D01*
X178166666Y-192041666D01*
X178166666Y-193791666D01*
X180250000Y-191958333D02*
X178750000Y-194208333D01*
X180583333Y-192625000D02*
X181250000Y-192625000D01*
X180833333Y-192041666D02*
X180833333Y-193541666D01*
X180916666Y-193708333D01*
X181083333Y-193791666D01*
X181250000Y-193791666D01*
X181833333Y-193791666D02*
X181833333Y-192625000D01*
X181833333Y-192958333D02*
X181916666Y-192791666D01*
X182000000Y-192708333D01*
X182166666Y-192625000D01*
X182333333Y-192625000D01*
X183583333Y-193708333D02*
X183416666Y-193791666D01*
X183083333Y-193791666D01*
X182916666Y-193708333D01*
X182833333Y-193541666D01*
X182833333Y-192875000D01*
X182916666Y-192708333D01*
X183083333Y-192625000D01*
X183416666Y-192625000D01*
X183583333Y-192708333D01*
X183666666Y-192875000D01*
X183666666Y-193041666D01*
X182833333Y-193208333D01*
X185083333Y-193708333D02*
X184916666Y-193791666D01*
X184583333Y-193791666D01*
X184416666Y-193708333D01*
X184333333Y-193541666D01*
X184333333Y-192875000D01*
X184416666Y-192708333D01*
X184583333Y-192625000D01*
X184916666Y-192625000D01*
X185083333Y-192708333D01*
X185166666Y-192875000D01*
X185166666Y-193041666D01*
X184333333Y-193208333D01*
X187166666Y-191958333D02*
X185666666Y-194208333D01*
X187750000Y-193791666D02*
X187750000Y-192625000D01*
X187750000Y-192791666D02*
X187833333Y-192708333D01*
X188000000Y-192625000D01*
X188250000Y-192625000D01*
X188416666Y-192708333D01*
X188500000Y-192875000D01*
X188500000Y-193791666D01*
X188500000Y-192875000D02*
X188583333Y-192708333D01*
X188750000Y-192625000D01*
X189000000Y-192625000D01*
X189166666Y-192708333D01*
X189250000Y-192875000D01*
X189250000Y-193791666D01*
X190833333Y-193791666D02*
X190833333Y-192875000D01*
X190750000Y-192708333D01*
X190583333Y-192625000D01*
X190250000Y-192625000D01*
X190083333Y-192708333D01*
X190833333Y-193708333D02*
X190666666Y-193791666D01*
X190250000Y-193791666D01*
X190083333Y-193708333D01*
X190000000Y-193541666D01*
X190000000Y-193375000D01*
X190083333Y-193208333D01*
X190250000Y-193125000D01*
X190666666Y-193125000D01*
X190833333Y-193041666D01*
X191666666Y-193791666D02*
X191666666Y-192625000D01*
X191666666Y-192041666D02*
X191583333Y-192125000D01*
X191666666Y-192208333D01*
X191750000Y-192125000D01*
X191666666Y-192041666D01*
X191666666Y-192208333D01*
X192500000Y-192625000D02*
X192500000Y-193791666D01*
X192500000Y-192791666D02*
X192583333Y-192708333D01*
X192750000Y-192625000D01*
X193000000Y-192625000D01*
X193166666Y-192708333D01*
X193250000Y-192875000D01*
X193250000Y-193791666D01*
X195333333Y-191958333D02*
X193833333Y-194208333D01*
X195916666Y-192875000D02*
X196500000Y-192875000D01*
X196750000Y-193791666D02*
X195916666Y-193791666D01*
X195916666Y-192041666D01*
X196750000Y-192041666D01*
X197750000Y-193791666D02*
X197583333Y-193708333D01*
X197500000Y-193541666D01*
X197500000Y-192041666D01*
X199083333Y-193708333D02*
X198916666Y-193791666D01*
X198583333Y-193791666D01*
X198416666Y-193708333D01*
X198333333Y-193541666D01*
X198333333Y-192875000D01*
X198416666Y-192708333D01*
X198583333Y-192625000D01*
X198916666Y-192625000D01*
X199083333Y-192708333D01*
X199166666Y-192875000D01*
X199166666Y-193041666D01*
X198333333Y-193208333D01*
X200666666Y-193708333D02*
X200500000Y-193791666D01*
X200166666Y-193791666D01*
X200000000Y-193708333D01*
X199916666Y-193625000D01*
X199833333Y-193458333D01*
X199833333Y-192958333D01*
X199916666Y-192791666D01*
X200000000Y-192708333D01*
X200166666Y-192625000D01*
X200500000Y-192625000D01*
X200666666Y-192708333D01*
X201166666Y-192625000D02*
X201833333Y-192625000D01*
X201416666Y-192041666D02*
X201416666Y-193541666D01*
X201500000Y-193708333D01*
X201666666Y-193791666D01*
X201833333Y-193791666D01*
X202416666Y-193791666D02*
X202416666Y-192625000D01*
X202416666Y-192958333D02*
X202500000Y-192791666D01*
X202583333Y-192708333D01*
X202750000Y-192625000D01*
X202916666Y-192625000D01*
X203750000Y-193791666D02*
X203583333Y-193708333D01*
X203500000Y-193625000D01*
X203416666Y-193458333D01*
X203416666Y-192958333D01*
X203500000Y-192791666D01*
X203583333Y-192708333D01*
X203750000Y-192625000D01*
X204000000Y-192625000D01*
X204166666Y-192708333D01*
X204250000Y-192791666D01*
X204333333Y-192958333D01*
X204333333Y-193458333D01*
X204250000Y-193625000D01*
X204166666Y-193708333D01*
X204000000Y-193791666D01*
X203750000Y-193791666D01*
X205083333Y-192625000D02*
X205083333Y-193791666D01*
X205083333Y-192791666D02*
X205166666Y-192708333D01*
X205333333Y-192625000D01*
X205583333Y-192625000D01*
X205750000Y-192708333D01*
X205833333Y-192875000D01*
X205833333Y-193791666D01*
X206666666Y-193791666D02*
X206666666Y-192625000D01*
X206666666Y-192041666D02*
X206583333Y-192125000D01*
X206666666Y-192208333D01*
X206750000Y-192125000D01*
X206666666Y-192041666D01*
X206666666Y-192208333D01*
X208250000Y-193708333D02*
X208083333Y-193791666D01*
X207750000Y-193791666D01*
X207583333Y-193708333D01*
X207500000Y-193625000D01*
X207416666Y-193458333D01*
X207416666Y-192958333D01*
X207500000Y-192791666D01*
X207583333Y-192708333D01*
X207750000Y-192625000D01*
X208083333Y-192625000D01*
X208250000Y-192708333D01*
X208916666Y-193708333D02*
X209083333Y-193791666D01*
X209416666Y-193791666D01*
X209583333Y-193708333D01*
X209666666Y-193541666D01*
X209666666Y-193458333D01*
X209583333Y-193291666D01*
X209416666Y-193208333D01*
X209166666Y-193208333D01*
X209000000Y-193125000D01*
X208916666Y-192958333D01*
X208916666Y-192875000D01*
X209000000Y-192708333D01*
X209166666Y-192625000D01*
X209416666Y-192625000D01*
X209583333Y-192708333D01*
X211666666Y-191958333D02*
X210166666Y-194208333D01*
X213083333Y-193791666D02*
X212250000Y-193791666D01*
X212250000Y-192041666D01*
X213666666Y-193791666D02*
X213666666Y-192625000D01*
X213666666Y-192041666D02*
X213583333Y-192125000D01*
X213666666Y-192208333D01*
X213750000Y-192125000D01*
X213666666Y-192041666D01*
X213666666Y-192208333D01*
X214250000Y-192625000D02*
X214916666Y-192625000D01*
X214500000Y-192041666D02*
X214500000Y-193541666D01*
X214583333Y-193708333D01*
X214750000Y-193791666D01*
X214916666Y-193791666D01*
X215500000Y-193791666D02*
X215500000Y-192041666D01*
X216250000Y-193791666D02*
X216250000Y-192875000D01*
X216166666Y-192708333D01*
X216000000Y-192625000D01*
X215750000Y-192625000D01*
X215583333Y-192708333D01*
X215500000Y-192791666D01*
X217083333Y-193791666D02*
X217083333Y-192625000D01*
X217083333Y-192041666D02*
X217000000Y-192125000D01*
X217083333Y-192208333D01*
X217166666Y-192125000D01*
X217083333Y-192041666D01*
X217083333Y-192208333D01*
X218666666Y-192625000D02*
X218666666Y-193791666D01*
X217916666Y-192625000D02*
X217916666Y-193541666D01*
X218000000Y-193708333D01*
X218166666Y-193791666D01*
X218416666Y-193791666D01*
X218583333Y-193708333D01*
X218666666Y-193625000D01*
X219500000Y-193791666D02*
X219500000Y-192625000D01*
X219500000Y-192791666D02*
X219583333Y-192708333D01*
X219750000Y-192625000D01*
X220000000Y-192625000D01*
X220166666Y-192708333D01*
X220250000Y-192875000D01*
X220250000Y-193791666D01*
X220250000Y-192875000D02*
X220333333Y-192708333D01*
X220500000Y-192625000D01*
X220750000Y-192625000D01*
X220916666Y-192708333D01*
X221000000Y-192875000D01*
X221000000Y-193791666D01*
X221750000Y-193791666D02*
X223083333Y-192041666D01*
X222000000Y-192041666D02*
X222166666Y-192125000D01*
X222250000Y-192291666D01*
X222166666Y-192458333D01*
X222000000Y-192541666D01*
X221833333Y-192458333D01*
X221750000Y-192291666D01*
X221833333Y-192125000D01*
X222000000Y-192041666D01*
X223000000Y-193708333D02*
X223083333Y-193541666D01*
X223000000Y-193375000D01*
X222833333Y-193291666D01*
X222666666Y-193375000D01*
X222583333Y-193541666D01*
X222666666Y-193708333D01*
X222833333Y-193791666D01*
X223000000Y-193708333D01*
X223750000Y-192208333D02*
X223833333Y-192125000D01*
X224000000Y-192041666D01*
X224416666Y-192041666D01*
X224583333Y-192125000D01*
X224666666Y-192208333D01*
X224750000Y-192375000D01*
X224750000Y-192541666D01*
X224666666Y-192791666D01*
X223666666Y-193791666D01*
X224750000Y-193791666D01*
X225833333Y-192041666D02*
X226000000Y-192041666D01*
X226166666Y-192125000D01*
X226250000Y-192208333D01*
X226333333Y-192375000D01*
X226416666Y-192708333D01*
X226416666Y-193125000D01*
X226333333Y-193458333D01*
X226250000Y-193625000D01*
X226166666Y-193708333D01*
X226000000Y-193791666D01*
X225833333Y-193791666D01*
X225666666Y-193708333D01*
X225583333Y-193625000D01*
X225500000Y-193458333D01*
X225416666Y-193125000D01*
X225416666Y-192708333D01*
X225500000Y-192375000D01*
X225583333Y-192208333D01*
X225666666Y-192125000D01*
X225833333Y-192041666D01*
X227750000Y-192875000D02*
X228000000Y-192958333D01*
X228083333Y-193041666D01*
X228166666Y-193208333D01*
X228166666Y-193458333D01*
X228083333Y-193625000D01*
X228000000Y-193708333D01*
X227833333Y-193791666D01*
X227166666Y-193791666D01*
X227166666Y-192041666D01*
X227750000Y-192041666D01*
X227916666Y-192125000D01*
X228000000Y-192208333D01*
X228083333Y-192375000D01*
X228083333Y-192541666D01*
X228000000Y-192708333D01*
X227916666Y-192791666D01*
X227750000Y-192875000D01*
X227166666Y-192875000D01*
X229666666Y-193791666D02*
X229666666Y-192875000D01*
X229583333Y-192708333D01*
X229416666Y-192625000D01*
X229083333Y-192625000D01*
X228916666Y-192708333D01*
X229666666Y-193708333D02*
X229500000Y-193791666D01*
X229083333Y-193791666D01*
X228916666Y-193708333D01*
X228833333Y-193541666D01*
X228833333Y-193375000D01*
X228916666Y-193208333D01*
X229083333Y-193125000D01*
X229500000Y-193125000D01*
X229666666Y-193041666D01*
X230250000Y-192625000D02*
X230916666Y-192625000D01*
X230500000Y-192041666D02*
X230500000Y-193541666D01*
X230583333Y-193708333D01*
X230750000Y-193791666D01*
X230916666Y-193791666D01*
X231250000Y-192625000D02*
X231916666Y-192625000D01*
X231500000Y-192041666D02*
X231500000Y-193541666D01*
X231583333Y-193708333D01*
X231750000Y-193791666D01*
X231916666Y-193791666D01*
X233166666Y-193708333D02*
X233000000Y-193791666D01*
X232666666Y-193791666D01*
X232500000Y-193708333D01*
X232416666Y-193541666D01*
X232416666Y-192875000D01*
X232500000Y-192708333D01*
X232666666Y-192625000D01*
X233000000Y-192625000D01*
X233166666Y-192708333D01*
X233250000Y-192875000D01*
X233250000Y-193041666D01*
X232416666Y-193208333D01*
X234000000Y-193791666D02*
X234000000Y-192625000D01*
X234000000Y-192958333D02*
X234083333Y-192791666D01*
X234166666Y-192708333D01*
X234333333Y-192625000D01*
X234500000Y-192625000D01*
X235083333Y-193791666D02*
X235083333Y-192625000D01*
X235083333Y-192041666D02*
X235000000Y-192125000D01*
X235083333Y-192208333D01*
X235166666Y-192125000D01*
X235083333Y-192041666D01*
X235083333Y-192208333D01*
X236583333Y-193708333D02*
X236416666Y-193791666D01*
X236083333Y-193791666D01*
X235916666Y-193708333D01*
X235833333Y-193541666D01*
X235833333Y-192875000D01*
X235916666Y-192708333D01*
X236083333Y-192625000D01*
X236416666Y-192625000D01*
X236583333Y-192708333D01*
X236666666Y-192875000D01*
X236666666Y-193041666D01*
X235833333Y-193208333D01*
X237333333Y-193708333D02*
X237500000Y-193791666D01*
X237833333Y-193791666D01*
X238000000Y-193708333D01*
X238083333Y-193541666D01*
X238083333Y-193458333D01*
X238000000Y-193291666D01*
X237833333Y-193208333D01*
X237583333Y-193208333D01*
X237416666Y-193125000D01*
X237333333Y-192958333D01*
X237333333Y-192875000D01*
X237416666Y-192708333D01*
X237583333Y-192625000D01*
X237833333Y-192625000D01*
X238000000Y-192708333D01*
X240083333Y-191958333D02*
X238583333Y-194208333D01*
X241500000Y-192041666D02*
X240666666Y-192041666D01*
X240583333Y-192875000D01*
X240666666Y-192791666D01*
X240833333Y-192708333D01*
X241250000Y-192708333D01*
X241416666Y-192791666D01*
X241500000Y-192875000D01*
X241583333Y-193041666D01*
X241583333Y-193458333D01*
X241500000Y-193625000D01*
X241416666Y-193708333D01*
X241250000Y-193791666D01*
X240833333Y-193791666D01*
X240666666Y-193708333D01*
X240583333Y-193625000D01*
X242250000Y-193791666D02*
X243583333Y-192041666D01*
X242500000Y-192041666D02*
X242666666Y-192125000D01*
X242750000Y-192291666D01*
X242666666Y-192458333D01*
X242500000Y-192541666D01*
X242333333Y-192458333D01*
X242250000Y-192291666D01*
X242333333Y-192125000D01*
X242500000Y-192041666D01*
X243500000Y-193708333D02*
X243583333Y-193541666D01*
X243500000Y-193375000D01*
X243333333Y-193291666D01*
X243166666Y-193375000D01*
X243083333Y-193541666D01*
X243166666Y-193708333D01*
X243333333Y-193791666D01*
X243500000Y-193708333D01*
X244250000Y-192208333D02*
X244333333Y-192125000D01*
X244500000Y-192041666D01*
X244916666Y-192041666D01*
X245083333Y-192125000D01*
X245166666Y-192208333D01*
X245250000Y-192375000D01*
X245250000Y-192541666D01*
X245166666Y-192791666D01*
X244166666Y-193791666D01*
X245250000Y-193791666D01*
X246333333Y-192041666D02*
X246500000Y-192041666D01*
X246666666Y-192125000D01*
X246750000Y-192208333D01*
X246833333Y-192375000D01*
X246916666Y-192708333D01*
X246916666Y-193125000D01*
X246833333Y-193458333D01*
X246750000Y-193625000D01*
X246666666Y-193708333D01*
X246500000Y-193791666D01*
X246333333Y-193791666D01*
X246166666Y-193708333D01*
X246083333Y-193625000D01*
X246000000Y-193458333D01*
X245916666Y-193125000D01*
X245916666Y-192708333D01*
X246000000Y-192375000D01*
X246083333Y-192208333D01*
X246166666Y-192125000D01*
X246333333Y-192041666D01*
X247583333Y-193291666D02*
X248416666Y-193291666D01*
X247416666Y-193791666D02*
X248000000Y-192041666D01*
X248583333Y-193791666D01*
X249166666Y-193791666D02*
X249166666Y-192041666D01*
X249916666Y-193791666D02*
X249916666Y-192875000D01*
X249833333Y-192708333D01*
X249666666Y-192625000D01*
X249416666Y-192625000D01*
X249250000Y-192708333D01*
X249166666Y-192791666D01*
X250666666Y-193791666D02*
X252000000Y-192041666D01*
X250916666Y-192041666D02*
X251083333Y-192125000D01*
X251166666Y-192291666D01*
X251083333Y-192458333D01*
X250916666Y-192541666D01*
X250750000Y-192458333D01*
X250666666Y-192291666D01*
X250750000Y-192125000D01*
X250916666Y-192041666D01*
X251916666Y-193708333D02*
X252000000Y-193541666D01*
X251916666Y-193375000D01*
X251750000Y-193291666D01*
X251583333Y-193375000D01*
X251500000Y-193541666D01*
X251583333Y-193708333D01*
X251750000Y-193791666D01*
X251916666Y-193708333D01*
X252666666Y-192208333D02*
X252750000Y-192125000D01*
X252916666Y-192041666D01*
X253333333Y-192041666D01*
X253500000Y-192125000D01*
X253583333Y-192208333D01*
X253666666Y-192375000D01*
X253666666Y-192541666D01*
X253583333Y-192791666D01*
X252583333Y-193791666D01*
X253666666Y-193791666D01*
X254750000Y-192041666D02*
X254916666Y-192041666D01*
X255083333Y-192125000D01*
X255166666Y-192208333D01*
X255250000Y-192375000D01*
X255333333Y-192708333D01*
X255333333Y-193125000D01*
X255250000Y-193458333D01*
X255166666Y-193625000D01*
X255083333Y-193708333D01*
X254916666Y-193791666D01*
X254750000Y-193791666D01*
X254583333Y-193708333D01*
X254500000Y-193625000D01*
X254416666Y-193458333D01*
X254333333Y-193125000D01*
X254333333Y-192708333D01*
X254416666Y-192375000D01*
X254500000Y-192208333D01*
X254583333Y-192125000D01*
X254750000Y-192041666D01*
X256166666Y-192041666D02*
X256000000Y-192375000D01*
X257750000Y-192041666D02*
X256916666Y-192041666D01*
X256833333Y-192875000D01*
X256916666Y-192791666D01*
X257083333Y-192708333D01*
X257500000Y-192708333D01*
X257666666Y-192791666D01*
X257750000Y-192875000D01*
X257833333Y-193041666D01*
X257833333Y-193458333D01*
X257750000Y-193625000D01*
X257666666Y-193708333D01*
X257500000Y-193791666D01*
X257083333Y-193791666D01*
X256916666Y-193708333D01*
X256833333Y-193625000D01*
X258500000Y-193291666D02*
X259333333Y-193291666D01*
X258333333Y-193791666D02*
X258916666Y-192041666D01*
X259500000Y-193791666D01*
X260083333Y-193791666D02*
X260083333Y-192041666D01*
X260833333Y-193791666D02*
X260833333Y-192875000D01*
X260750000Y-192708333D01*
X260583333Y-192625000D01*
X260333333Y-192625000D01*
X260166666Y-192708333D01*
X260083333Y-192791666D01*
X262583333Y-192125000D02*
X262416666Y-192041666D01*
X262166666Y-192041666D01*
X261916666Y-192125000D01*
X261750000Y-192291666D01*
X261666666Y-192458333D01*
X261583333Y-192791666D01*
X261583333Y-193041666D01*
X261666666Y-193375000D01*
X261750000Y-193541666D01*
X261916666Y-193708333D01*
X262166666Y-193791666D01*
X262333333Y-193791666D01*
X262583333Y-193708333D01*
X262666666Y-193625000D01*
X262666666Y-193041666D01*
X262333333Y-193041666D01*
X263250000Y-192041666D02*
X264333333Y-192041666D01*
X263750000Y-192708333D01*
X264000000Y-192708333D01*
X264166666Y-192791666D01*
X264250000Y-192875000D01*
X264333333Y-193041666D01*
X264333333Y-193458333D01*
X264250000Y-193625000D01*
X264166666Y-193708333D01*
X264000000Y-193791666D01*
X263500000Y-193791666D01*
X263333333Y-193708333D01*
X263250000Y-193625000D01*
X265166666Y-192041666D02*
X265000000Y-192375000D01*
X265833333Y-193791666D02*
X267166666Y-192041666D01*
X266083333Y-192041666D02*
X266250000Y-192125000D01*
X266333333Y-192291666D01*
X266250000Y-192458333D01*
X266083333Y-192541666D01*
X265916666Y-192458333D01*
X265833333Y-192291666D01*
X265916666Y-192125000D01*
X266083333Y-192041666D01*
X267083333Y-193708333D02*
X267166666Y-193541666D01*
X267083333Y-193375000D01*
X266916666Y-193291666D01*
X266750000Y-193375000D01*
X266666666Y-193541666D01*
X266750000Y-193708333D01*
X266916666Y-193791666D01*
X267083333Y-193708333D01*
X267833333Y-192208333D02*
X267916666Y-192125000D01*
X268083333Y-192041666D01*
X268500000Y-192041666D01*
X268666666Y-192125000D01*
X268750000Y-192208333D01*
X268833333Y-192375000D01*
X268833333Y-192541666D01*
X268750000Y-192791666D01*
X267750000Y-193791666D01*
X268833333Y-193791666D01*
X269916666Y-192041666D02*
X270083333Y-192041666D01*
X270250000Y-192125000D01*
X270333333Y-192208333D01*
X270416666Y-192375000D01*
X270500000Y-192708333D01*
X270500000Y-193125000D01*
X270416666Y-193458333D01*
X270333333Y-193625000D01*
X270250000Y-193708333D01*
X270083333Y-193791666D01*
X269916666Y-193791666D01*
X269750000Y-193708333D01*
X269666666Y-193625000D01*
X269583333Y-193458333D01*
X269500000Y-193125000D01*
X269500000Y-192708333D01*
X269583333Y-192375000D01*
X269666666Y-192208333D01*
X269750000Y-192125000D01*
X269916666Y-192041666D01*
X271250000Y-193791666D02*
X271250000Y-192041666D01*
X271833333Y-193291666D01*
X272416666Y-192041666D01*
X272416666Y-193791666D01*
X273500000Y-193791666D02*
X273333333Y-193708333D01*
X273250000Y-193625000D01*
X273166666Y-193458333D01*
X273166666Y-192958333D01*
X273250000Y-192791666D01*
X273333333Y-192708333D01*
X273500000Y-192625000D01*
X273750000Y-192625000D01*
X273916666Y-192708333D01*
X274000000Y-192791666D01*
X274083333Y-192958333D01*
X274083333Y-193458333D01*
X274000000Y-193625000D01*
X273916666Y-193708333D01*
X273750000Y-193791666D01*
X273500000Y-193791666D01*
X275583333Y-193791666D02*
X275583333Y-192041666D01*
X275583333Y-193708333D02*
X275416666Y-193791666D01*
X275083333Y-193791666D01*
X274916666Y-193708333D01*
X274833333Y-193625000D01*
X274750000Y-193458333D01*
X274750000Y-192958333D01*
X274833333Y-192791666D01*
X274916666Y-192708333D01*
X275083333Y-192625000D01*
X275416666Y-192625000D01*
X275583333Y-192708333D01*
X277166666Y-192625000D02*
X277166666Y-193791666D01*
X276416666Y-192625000D02*
X276416666Y-193541666D01*
X276500000Y-193708333D01*
X276666666Y-193791666D01*
X276916666Y-193791666D01*
X277083333Y-193708333D01*
X277166666Y-193625000D01*
X278250000Y-193791666D02*
X278083333Y-193708333D01*
X278000000Y-193541666D01*
X278000000Y-192041666D01*
X279583333Y-193708333D02*
X279416666Y-193791666D01*
X279083333Y-193791666D01*
X278916666Y-193708333D01*
X278833333Y-193541666D01*
X278833333Y-192875000D01*
X278916666Y-192708333D01*
X279083333Y-192625000D01*
X279416666Y-192625000D01*
X279583333Y-192708333D01*
X279666666Y-192875000D01*
X279666666Y-193041666D01*
X278833333Y-193208333D01*
X280333333Y-193708333D02*
X280500000Y-193791666D01*
X280833333Y-193791666D01*
X281000000Y-193708333D01*
X281083333Y-193541666D01*
X281083333Y-193458333D01*
X281000000Y-193291666D01*
X280833333Y-193208333D01*
X280583333Y-193208333D01*
X280416666Y-193125000D01*
X280333333Y-192958333D01*
X280333333Y-192875000D01*
X280416666Y-192708333D01*
X280583333Y-192625000D01*
X280833333Y-192625000D01*
X281000000Y-192708333D01*
X283083333Y-191958333D02*
X281583333Y-194208333D01*
X283666666Y-193791666D02*
X283666666Y-192041666D01*
X284333333Y-192041666D01*
X284500000Y-192125000D01*
X284583333Y-192208333D01*
X284666666Y-192375000D01*
X284666666Y-192625000D01*
X284583333Y-192791666D01*
X284500000Y-192875000D01*
X284333333Y-192958333D01*
X283666666Y-192958333D01*
X286416666Y-193625000D02*
X286333333Y-193708333D01*
X286083333Y-193791666D01*
X285916666Y-193791666D01*
X285666666Y-193708333D01*
X285500000Y-193541666D01*
X285416666Y-193375000D01*
X285333333Y-193041666D01*
X285333333Y-192791666D01*
X285416666Y-192458333D01*
X285500000Y-192291666D01*
X285666666Y-192125000D01*
X285916666Y-192041666D01*
X286083333Y-192041666D01*
X286333333Y-192125000D01*
X286416666Y-192208333D01*
X287750000Y-192875000D02*
X288000000Y-192958333D01*
X288083333Y-193041666D01*
X288166666Y-193208333D01*
X288166666Y-193458333D01*
X288083333Y-193625000D01*
X288000000Y-193708333D01*
X287833333Y-193791666D01*
X287166666Y-193791666D01*
X287166666Y-192041666D01*
X287750000Y-192041666D01*
X287916666Y-192125000D01*
X288000000Y-192208333D01*
X288083333Y-192375000D01*
X288083333Y-192541666D01*
X288000000Y-192708333D01*
X287916666Y-192791666D01*
X287750000Y-192875000D01*
X287166666Y-192875000D01*
X288833333Y-193791666D02*
X290166666Y-192041666D01*
X289083333Y-192041666D02*
X289250000Y-192125000D01*
X289333333Y-192291666D01*
X289250000Y-192458333D01*
X289083333Y-192541666D01*
X288916666Y-192458333D01*
X288833333Y-192291666D01*
X288916666Y-192125000D01*
X289083333Y-192041666D01*
X290083333Y-193708333D02*
X290166666Y-193541666D01*
X290083333Y-193375000D01*
X289916666Y-193291666D01*
X289750000Y-193375000D01*
X289666666Y-193541666D01*
X289750000Y-193708333D01*
X289916666Y-193791666D01*
X290083333Y-193708333D01*
X290833333Y-192208333D02*
X290916666Y-192125000D01*
X291083333Y-192041666D01*
X291500000Y-192041666D01*
X291666666Y-192125000D01*
X291750000Y-192208333D01*
X291833333Y-192375000D01*
X291833333Y-192541666D01*
X291750000Y-192791666D01*
X290750000Y-193791666D01*
X291833333Y-193791666D01*
X292916666Y-192041666D02*
X293083333Y-192041666D01*
X293250000Y-192125000D01*
X293333333Y-192208333D01*
X293416666Y-192375000D01*
X293500000Y-192708333D01*
X293500000Y-193125000D01*
X293416666Y-193458333D01*
X293333333Y-193625000D01*
X293250000Y-193708333D01*
X293083333Y-193791666D01*
X292916666Y-193791666D01*
X292750000Y-193708333D01*
X292666666Y-193625000D01*
X292583333Y-193458333D01*
X292500000Y-193125000D01*
X292500000Y-192708333D01*
X292583333Y-192375000D01*
X292666666Y-192208333D01*
X292750000Y-192125000D01*
X292916666Y-192041666D01*
X294250000Y-193125000D02*
X295583333Y-193125000D01*
X296333333Y-193791666D02*
X297666666Y-192041666D01*
X296583333Y-192041666D02*
X296750000Y-192125000D01*
X296833333Y-192291666D01*
X296750000Y-192458333D01*
X296583333Y-192541666D01*
X296416666Y-192458333D01*
X296333333Y-192291666D01*
X296416666Y-192125000D01*
X296583333Y-192041666D01*
X297583333Y-193708333D02*
X297666666Y-193541666D01*
X297583333Y-193375000D01*
X297416666Y-193291666D01*
X297250000Y-193375000D01*
X297166666Y-193541666D01*
X297250000Y-193708333D01*
X297416666Y-193791666D01*
X297583333Y-193708333D01*
X298333333Y-192208333D02*
X298416666Y-192125000D01*
X298583333Y-192041666D01*
X299000000Y-192041666D01*
X299166666Y-192125000D01*
X299250000Y-192208333D01*
X299333333Y-192375000D01*
X299333333Y-192541666D01*
X299250000Y-192791666D01*
X298250000Y-193791666D01*
X299333333Y-193791666D01*
X300416666Y-192041666D02*
X300583333Y-192041666D01*
X300750000Y-192125000D01*
X300833333Y-192208333D01*
X300916666Y-192375000D01*
X301000000Y-192708333D01*
X301000000Y-193125000D01*
X300916666Y-193458333D01*
X300833333Y-193625000D01*
X300750000Y-193708333D01*
X300583333Y-193791666D01*
X300416666Y-193791666D01*
X300250000Y-193708333D01*
X300166666Y-193625000D01*
X300083333Y-193458333D01*
X300000000Y-193125000D01*
X300000000Y-192708333D01*
X300083333Y-192375000D01*
X300166666Y-192208333D01*
X300250000Y-192125000D01*
X300416666Y-192041666D01*
X302333333Y-192875000D02*
X302583333Y-192958333D01*
X302666666Y-193041666D01*
X302750000Y-193208333D01*
X302750000Y-193458333D01*
X302666666Y-193625000D01*
X302583333Y-193708333D01*
X302416666Y-193791666D01*
X301750000Y-193791666D01*
X301750000Y-192041666D01*
X302333333Y-192041666D01*
X302500000Y-192125000D01*
X302583333Y-192208333D01*
X302666666Y-192375000D01*
X302666666Y-192541666D01*
X302583333Y-192708333D01*
X302500000Y-192791666D01*
X302333333Y-192875000D01*
X301750000Y-192875000D01*
X304250000Y-193791666D02*
X304250000Y-192875000D01*
X304166666Y-192708333D01*
X304000000Y-192625000D01*
X303666666Y-192625000D01*
X303500000Y-192708333D01*
X304250000Y-193708333D02*
X304083333Y-193791666D01*
X303666666Y-193791666D01*
X303500000Y-193708333D01*
X303416666Y-193541666D01*
X303416666Y-193375000D01*
X303500000Y-193208333D01*
X303666666Y-193125000D01*
X304083333Y-193125000D01*
X304250000Y-193041666D01*
X304833333Y-192625000D02*
X305500000Y-192625000D01*
X305083333Y-192041666D02*
X305083333Y-193541666D01*
X305166666Y-193708333D01*
X305333333Y-193791666D01*
X305500000Y-193791666D01*
X305833333Y-192625000D02*
X306500000Y-192625000D01*
X306083333Y-192041666D02*
X306083333Y-193541666D01*
X306166666Y-193708333D01*
X306333333Y-193791666D01*
X306500000Y-193791666D01*
X307750000Y-193708333D02*
X307583333Y-193791666D01*
X307250000Y-193791666D01*
X307083333Y-193708333D01*
X307000000Y-193541666D01*
X307000000Y-192875000D01*
X307083333Y-192708333D01*
X307250000Y-192625000D01*
X307583333Y-192625000D01*
X307750000Y-192708333D01*
X307833333Y-192875000D01*
X307833333Y-193041666D01*
X307000000Y-193208333D01*
X308583333Y-193791666D02*
X308583333Y-192625000D01*
X308583333Y-192958333D02*
X308666666Y-192791666D01*
X308750000Y-192708333D01*
X308916666Y-192625000D01*
X309083333Y-192625000D01*
X309500000Y-192625000D02*
X309916666Y-193791666D01*
X310333333Y-192625000D02*
X309916666Y-193791666D01*
X309750000Y-194208333D01*
X309666666Y-194291666D01*
X309500000Y-194375000D01*
X310916666Y-193791666D02*
X312250000Y-192041666D01*
X311166666Y-192041666D02*
X311333333Y-192125000D01*
X311416666Y-192291666D01*
X311333333Y-192458333D01*
X311166666Y-192541666D01*
X311000000Y-192458333D01*
X310916666Y-192291666D01*
X311000000Y-192125000D01*
X311166666Y-192041666D01*
X312166666Y-193708333D02*
X312250000Y-193541666D01*
X312166666Y-193375000D01*
X312000000Y-193291666D01*
X311833333Y-193375000D01*
X311750000Y-193541666D01*
X311833333Y-193708333D01*
X312000000Y-193791666D01*
X312166666Y-193708333D01*
X312916666Y-192208333D02*
X313000000Y-192125000D01*
X313166666Y-192041666D01*
X313583333Y-192041666D01*
X313750000Y-192125000D01*
X313833333Y-192208333D01*
X313916666Y-192375000D01*
X313916666Y-192541666D01*
X313833333Y-192791666D01*
X312833333Y-193791666D01*
X313916666Y-193791666D01*
X315000000Y-192041666D02*
X315166666Y-192041666D01*
X315333333Y-192125000D01*
X315416666Y-192208333D01*
X315500000Y-192375000D01*
X315583333Y-192708333D01*
X315583333Y-193125000D01*
X315500000Y-193458333D01*
X315416666Y-193625000D01*
X315333333Y-193708333D01*
X315166666Y-193791666D01*
X315000000Y-193791666D01*
X314833333Y-193708333D01*
X314750000Y-193625000D01*
X314666666Y-193458333D01*
X314583333Y-193125000D01*
X314583333Y-192708333D01*
X314666666Y-192375000D01*
X314750000Y-192208333D01*
X314833333Y-192125000D01*
X315000000Y-192041666D01*
X316333333Y-193791666D02*
X316333333Y-192041666D01*
X316333333Y-192875000D02*
X317333333Y-192875000D01*
X317333333Y-193791666D02*
X317333333Y-192041666D01*
X318833333Y-193708333D02*
X318666666Y-193791666D01*
X318333333Y-193791666D01*
X318166666Y-193708333D01*
X318083333Y-193541666D01*
X318083333Y-192875000D01*
X318166666Y-192708333D01*
X318333333Y-192625000D01*
X318666666Y-192625000D01*
X318833333Y-192708333D01*
X318916666Y-192875000D01*
X318916666Y-193041666D01*
X318083333Y-193208333D01*
X320416666Y-193791666D02*
X320416666Y-192875000D01*
X320333333Y-192708333D01*
X320166666Y-192625000D01*
X319833333Y-192625000D01*
X319666666Y-192708333D01*
X320416666Y-193708333D02*
X320250000Y-193791666D01*
X319833333Y-193791666D01*
X319666666Y-193708333D01*
X319583333Y-193541666D01*
X319583333Y-193375000D01*
X319666666Y-193208333D01*
X319833333Y-193125000D01*
X320250000Y-193125000D01*
X320416666Y-193041666D01*
X321000000Y-192625000D02*
X321666666Y-192625000D01*
X321250000Y-192041666D02*
X321250000Y-193541666D01*
X321333333Y-193708333D01*
X321500000Y-193791666D01*
X321666666Y-193791666D01*
X322916666Y-193708333D02*
X322750000Y-193791666D01*
X322416666Y-193791666D01*
X322250000Y-193708333D01*
X322166666Y-193541666D01*
X322166666Y-192875000D01*
X322250000Y-192708333D01*
X322416666Y-192625000D01*
X322750000Y-192625000D01*
X322916666Y-192708333D01*
X323000000Y-192875000D01*
X323000000Y-193041666D01*
X322166666Y-193208333D01*
X323750000Y-193791666D02*
X323750000Y-192625000D01*
X323750000Y-192958333D02*
X323833333Y-192791666D01*
X323916666Y-192708333D01*
X324083333Y-192625000D01*
X324250000Y-192625000D01*
D10*
X86458333Y-159791666D02*
X86458333Y-158041666D01*
X86458333Y-158875000D02*
X87458333Y-158875000D01*
X87458333Y-159791666D02*
X87458333Y-158041666D01*
X88041666Y-158041666D02*
X88625000Y-159791666D01*
X89208333Y-158041666D01*
X89791666Y-159791666D02*
X89791666Y-158041666D01*
X90208333Y-158041666D01*
X90458333Y-158125000D01*
X90625000Y-158291666D01*
X90708333Y-158458333D01*
X90791666Y-158791666D01*
X90791666Y-159041666D01*
X90708333Y-159375000D01*
X90625000Y-159541666D01*
X90458333Y-159708333D01*
X90208333Y-159791666D01*
X89791666Y-159791666D01*
X92541666Y-159625000D02*
X92458333Y-159708333D01*
X92208333Y-159791666D01*
X92041666Y-159791666D01*
X91791666Y-159708333D01*
X91625000Y-159541666D01*
X91541666Y-159375000D01*
X91458333Y-159041666D01*
X91458333Y-158791666D01*
X91541666Y-158458333D01*
X91625000Y-158291666D01*
X91791666Y-158125000D01*
X92041666Y-158041666D01*
X92208333Y-158041666D01*
X92458333Y-158125000D01*
X92541666Y-158208333D01*
X92875000Y-159958333D02*
X94208333Y-159958333D01*
X95208333Y-158875000D02*
X95458333Y-158958333D01*
X95541666Y-159041666D01*
X95625000Y-159208333D01*
X95625000Y-159458333D01*
X95541666Y-159625000D01*
X95458333Y-159708333D01*
X95291666Y-159791666D01*
X94625000Y-159791666D01*
X94625000Y-158041666D01*
X95208333Y-158041666D01*
X95375000Y-158125000D01*
X95458333Y-158208333D01*
X95541666Y-158375000D01*
X95541666Y-158541666D01*
X95458333Y-158708333D01*
X95375000Y-158791666D01*
X95208333Y-158875000D01*
X94625000Y-158875000D01*
X86583333Y-113791666D02*
X86583333Y-112041666D01*
X86583333Y-112875000D02*
X87583333Y-112875000D01*
X87583333Y-113791666D02*
X87583333Y-112041666D01*
X88166666Y-112041666D02*
X88750000Y-113791666D01*
X89333333Y-112041666D01*
X89916666Y-113791666D02*
X89916666Y-112041666D01*
X90333333Y-112041666D01*
X90583333Y-112125000D01*
X90750000Y-112291666D01*
X90833333Y-112458333D01*
X90916666Y-112791666D01*
X90916666Y-113041666D01*
X90833333Y-113375000D01*
X90750000Y-113541666D01*
X90583333Y-113708333D01*
X90333333Y-113791666D01*
X89916666Y-113791666D01*
X92666666Y-113625000D02*
X92583333Y-113708333D01*
X92333333Y-113791666D01*
X92166666Y-113791666D01*
X91916666Y-113708333D01*
X91750000Y-113541666D01*
X91666666Y-113375000D01*
X91583333Y-113041666D01*
X91583333Y-112791666D01*
X91666666Y-112458333D01*
X91750000Y-112291666D01*
X91916666Y-112125000D01*
X92166666Y-112041666D01*
X92333333Y-112041666D01*
X92583333Y-112125000D01*
X92666666Y-112208333D01*
X93000000Y-113958333D02*
X94333333Y-113958333D01*
X94666666Y-113291666D02*
X95500000Y-113291666D01*
X94500000Y-113791666D02*
X95083333Y-112041666D01*
X95666666Y-113791666D01*
D16*
X167833333Y-134261904D02*
X170690476Y-134261904D01*
X169261904Y-139261904D02*
X169261904Y-134261904D01*
X172357142Y-139261904D02*
X172357142Y-134261904D01*
X172357142Y-136642857D02*
X175214285Y-136642857D01*
X175214285Y-139261904D02*
X175214285Y-134261904D01*
X177595238Y-139261904D02*
X177595238Y-134261904D01*
X179738095Y-139023809D02*
X180452380Y-139261904D01*
X181642857Y-139261904D01*
X182119047Y-139023809D01*
X182357142Y-138785714D01*
X182595238Y-138309523D01*
X182595238Y-137833333D01*
X182357142Y-137357142D01*
X182119047Y-137119047D01*
X181642857Y-136880952D01*
X180690476Y-136642857D01*
X180214285Y-136404761D01*
X179976190Y-136166666D01*
X179738095Y-135690476D01*
X179738095Y-135214285D01*
X179976190Y-134738095D01*
X180214285Y-134500000D01*
X180690476Y-134261904D01*
X181880952Y-134261904D01*
X182595238Y-134500000D01*
X188309523Y-139023809D02*
X189023809Y-139261904D01*
X190214285Y-139261904D01*
X190690476Y-139023809D01*
X190928571Y-138785714D01*
X191166666Y-138309523D01*
X191166666Y-137833333D01*
X190928571Y-137357142D01*
X190690476Y-137119047D01*
X190214285Y-136880952D01*
X189261904Y-136642857D01*
X188785714Y-136404761D01*
X188547619Y-136166666D01*
X188309523Y-135690476D01*
X188309523Y-135214285D01*
X188547619Y-134738095D01*
X188785714Y-134500000D01*
X189261904Y-134261904D01*
X190452380Y-134261904D01*
X191166666Y-134500000D01*
X193309523Y-139261904D02*
X193309523Y-134261904D01*
X195690476Y-139261904D02*
X195690476Y-134261904D01*
X196880952Y-134261904D01*
X197595238Y-134500000D01*
X198071428Y-134976190D01*
X198309523Y-135452380D01*
X198547619Y-136404761D01*
X198547619Y-137119047D01*
X198309523Y-138071428D01*
X198071428Y-138547619D01*
X197595238Y-139023809D01*
X196880952Y-139261904D01*
X195690476Y-139261904D01*
X200690476Y-136642857D02*
X202357142Y-136642857D01*
X203071428Y-139261904D02*
X200690476Y-139261904D01*
X200690476Y-134261904D01*
X203071428Y-134261904D01*
X208785714Y-137833333D02*
X211166666Y-137833333D01*
X208309523Y-139261904D02*
X209976190Y-134261904D01*
X211642857Y-139261904D01*
X212833333Y-134261904D02*
X214023809Y-139261904D01*
X214976190Y-135690476D01*
X215928571Y-139261904D01*
X217119047Y-134261904D01*
X218785714Y-137833333D02*
X221166666Y-137833333D01*
X218309523Y-139261904D02*
X219976190Y-134261904D01*
X221642857Y-139261904D01*
X224261904Y-136880952D02*
X224261904Y-139261904D01*
X222595238Y-134261904D02*
X224261904Y-136880952D01*
X225928571Y-134261904D01*
X233071428Y-136642857D02*
X231404761Y-136642857D01*
X231404761Y-139261904D02*
X231404761Y-134261904D01*
X233785714Y-134261904D01*
X238547619Y-139261904D02*
X236880952Y-136880952D01*
X235690476Y-139261904D02*
X235690476Y-134261904D01*
X237595238Y-134261904D01*
X238071428Y-134500000D01*
X238309523Y-134738095D01*
X238547619Y-135214285D01*
X238547619Y-135928571D01*
X238309523Y-136404761D01*
X238071428Y-136642857D01*
X237595238Y-136880952D01*
X235690476Y-136880952D01*
X241642857Y-134261904D02*
X242595238Y-134261904D01*
X243071428Y-134500000D01*
X243547619Y-134976190D01*
X243785714Y-135928571D01*
X243785714Y-137595238D01*
X243547619Y-138547619D01*
X243071428Y-139023809D01*
X242595238Y-139261904D01*
X241642857Y-139261904D01*
X241166666Y-139023809D01*
X240690476Y-138547619D01*
X240452380Y-137595238D01*
X240452380Y-135928571D01*
X240690476Y-134976190D01*
X241166666Y-134500000D01*
X241642857Y-134261904D01*
X245928571Y-139261904D02*
X245928571Y-134261904D01*
X247595238Y-137833333D01*
X249261904Y-134261904D01*
X249261904Y-139261904D01*
X258309523Y-138785714D02*
X258071428Y-139023809D01*
X257357142Y-139261904D01*
X256880952Y-139261904D01*
X256166666Y-139023809D01*
X255690476Y-138547619D01*
X255452380Y-138071428D01*
X255214285Y-137119047D01*
X255214285Y-136404761D01*
X255452380Y-135452380D01*
X255690476Y-134976190D01*
X256166666Y-134500000D01*
X256880952Y-134261904D01*
X257357142Y-134261904D01*
X258071428Y-134500000D01*
X258309523Y-134738095D01*
X260452380Y-136642857D02*
X262119047Y-136642857D01*
X262833333Y-139261904D02*
X260452380Y-139261904D01*
X260452380Y-134261904D01*
X262833333Y-134261904D01*
X267357142Y-139261904D02*
X264976190Y-139261904D01*
X264976190Y-134261904D01*
X271404761Y-139261904D02*
X269023809Y-139261904D01*
X269023809Y-134261904D01*
X272833333Y-139023809D02*
X273547619Y-139261904D01*
X274738095Y-139261904D01*
X275214285Y-139023809D01*
X275452380Y-138785714D01*
X275690476Y-138309523D01*
X275690476Y-137833333D01*
X275452380Y-137357142D01*
X275214285Y-137119047D01*
X274738095Y-136880952D01*
X273785714Y-136642857D01*
X273309523Y-136404761D01*
X273071428Y-136166666D01*
X272833333Y-135690476D01*
X272833333Y-135214285D01*
X273071428Y-134738095D01*
X273309523Y-134500000D01*
X273785714Y-134261904D01*
X274976190Y-134261904D01*
X275690476Y-134500000D01*
X183214285Y-147857142D02*
X181499999Y-147857142D01*
X182357142Y-147857142D02*
X182357142Y-144857142D01*
X182071428Y-145285714D01*
X181785714Y-145571428D01*
X181499999Y-145714285D01*
X184928571Y-146142857D02*
X184642857Y-146000000D01*
X184499999Y-145857142D01*
X184357142Y-145571428D01*
X184357142Y-145428571D01*
X184499999Y-145142857D01*
X184642857Y-145000000D01*
X184928571Y-144857142D01*
X185499999Y-144857142D01*
X185785714Y-145000000D01*
X185928571Y-145142857D01*
X186071428Y-145428571D01*
X186071428Y-145571428D01*
X185928571Y-145857142D01*
X185785714Y-146000000D01*
X185499999Y-146142857D01*
X184928571Y-146142857D01*
X184642857Y-146285714D01*
X184499999Y-146428571D01*
X184357142Y-146714285D01*
X184357142Y-147285714D01*
X184499999Y-147571428D01*
X184642857Y-147714285D01*
X184928571Y-147857142D01*
X185499999Y-147857142D01*
X185785714Y-147714285D01*
X185928571Y-147571428D01*
X186071428Y-147285714D01*
X186071428Y-146714285D01*
X185928571Y-146428571D01*
X185785714Y-146285714D01*
X185499999Y-146142857D01*
X187214285Y-147714285D02*
X187642857Y-147857142D01*
X188357142Y-147857142D01*
X188642857Y-147714285D01*
X188785714Y-147571428D01*
X188928571Y-147285714D01*
X188928571Y-147000000D01*
X188785714Y-146714285D01*
X188642857Y-146571428D01*
X188357142Y-146428571D01*
X187785714Y-146285714D01*
X187499999Y-146142857D01*
X187357142Y-146000000D01*
X187214285Y-145714285D01*
X187214285Y-145428571D01*
X187357142Y-145142857D01*
X187499999Y-145000000D01*
X187785714Y-144857142D01*
X188499999Y-144857142D01*
X188928571Y-145000000D01*
X193928571Y-144857142D02*
X192499999Y-144857142D01*
X192357142Y-146285714D01*
X192499999Y-146142857D01*
X192785714Y-146000000D01*
X193499999Y-146000000D01*
X193785714Y-146142857D01*
X193928571Y-146285714D01*
X194071428Y-146571428D01*
X194071428Y-147285714D01*
X193928571Y-147571428D01*
X193785714Y-147714285D01*
X193499999Y-147857142D01*
X192785714Y-147857142D01*
X192499999Y-147714285D01*
X192357142Y-147571428D01*
X195214285Y-147000000D02*
X196642857Y-147000000D01*
X194928571Y-147857142D02*
X195928571Y-144857142D01*
X196928571Y-147857142D01*
X197928571Y-147857142D02*
X197928571Y-144857142D01*
X199214285Y-147857142D02*
X199214285Y-146285714D01*
X199071428Y-146000000D01*
X198785714Y-145857142D01*
X198357142Y-145857142D01*
X198071428Y-146000000D01*
X197928571Y-146142857D01*
X202214285Y-145000000D02*
X201928571Y-144857142D01*
X201499999Y-144857142D01*
X201071428Y-145000000D01*
X200785714Y-145285714D01*
X200642857Y-145571428D01*
X200499999Y-146142857D01*
X200499999Y-146571428D01*
X200642857Y-147142857D01*
X200785714Y-147428571D01*
X201071428Y-147714285D01*
X201499999Y-147857142D01*
X201785714Y-147857142D01*
X202214285Y-147714285D01*
X202357142Y-147571428D01*
X202357142Y-146571428D01*
X201785714Y-146571428D01*
X203357142Y-144857142D02*
X205214285Y-144857142D01*
X204214285Y-146000000D01*
X204642857Y-146000000D01*
X204928571Y-146142857D01*
X205071428Y-146285714D01*
X205214285Y-146571428D01*
X205214285Y-147285714D01*
X205071428Y-147571428D01*
X204928571Y-147714285D01*
X204642857Y-147857142D01*
X203785714Y-147857142D01*
X203499999Y-147714285D01*
X203357142Y-147571428D01*
X208785714Y-147857142D02*
X208785714Y-144857142D01*
X208785714Y-146285714D02*
X210499999Y-146285714D01*
X210499999Y-147857142D02*
X210499999Y-144857142D01*
X213071428Y-147714285D02*
X212785714Y-147857142D01*
X212214285Y-147857142D01*
X211928571Y-147714285D01*
X211785714Y-147428571D01*
X211785714Y-146285714D01*
X211928571Y-146000000D01*
X212214285Y-145857142D01*
X212785714Y-145857142D01*
X213071428Y-146000000D01*
X213214285Y-146285714D01*
X213214285Y-146571428D01*
X211785714Y-146857142D01*
X215785714Y-147857142D02*
X215785714Y-146285714D01*
X215642857Y-146000000D01*
X215357142Y-145857142D01*
X214785714Y-145857142D01*
X214499999Y-146000000D01*
X215785714Y-147714285D02*
X215499999Y-147857142D01*
X214785714Y-147857142D01*
X214499999Y-147714285D01*
X214357142Y-147428571D01*
X214357142Y-147142857D01*
X214499999Y-146857142D01*
X214785714Y-146714285D01*
X215499999Y-146714285D01*
X215785714Y-146571428D01*
X216785714Y-145857142D02*
X217928571Y-145857142D01*
X217214285Y-144857142D02*
X217214285Y-147428571D01*
X217357142Y-147714285D01*
X217642857Y-147857142D01*
X217928571Y-147857142D01*
X220071428Y-147714285D02*
X219785714Y-147857142D01*
X219214285Y-147857142D01*
X218928571Y-147714285D01*
X218785714Y-147428571D01*
X218785714Y-146285714D01*
X218928571Y-146000000D01*
X219214285Y-145857142D01*
X219785714Y-145857142D01*
X220071428Y-146000000D01*
X220214285Y-146285714D01*
X220214285Y-146571428D01*
X218785714Y-146857142D01*
X221499999Y-147857142D02*
X221499999Y-145857142D01*
X221499999Y-146428571D02*
X221642857Y-146142857D01*
X221785714Y-146000000D01*
X222071428Y-145857142D01*
X222357142Y-145857142D01*
X226642857Y-146285714D02*
X227071428Y-146428571D01*
X227214285Y-146571428D01*
X227357142Y-146857142D01*
X227357142Y-147285714D01*
X227214285Y-147571428D01*
X227071428Y-147714285D01*
X226785714Y-147857142D01*
X225642857Y-147857142D01*
X225642857Y-144857142D01*
X226642857Y-144857142D01*
X226928571Y-145000000D01*
X227071428Y-145142857D01*
X227214285Y-145428571D01*
X227214285Y-145714285D01*
X227071428Y-146000000D01*
X226928571Y-146142857D01*
X226642857Y-146285714D01*
X225642857Y-146285714D01*
X229071428Y-147857142D02*
X228785714Y-147714285D01*
X228642857Y-147571428D01*
X228499999Y-147285714D01*
X228499999Y-146428571D01*
X228642857Y-146142857D01*
X228785714Y-146000000D01*
X229071428Y-145857142D01*
X229499999Y-145857142D01*
X229785714Y-146000000D01*
X229928571Y-146142857D01*
X230071428Y-146428571D01*
X230071428Y-147285714D01*
X229928571Y-147571428D01*
X229785714Y-147714285D01*
X229499999Y-147857142D01*
X229071428Y-147857142D01*
X232642857Y-147857142D02*
X232642857Y-146285714D01*
X232499999Y-146000000D01*
X232214285Y-145857142D01*
X231642857Y-145857142D01*
X231357142Y-146000000D01*
X232642857Y-147714285D02*
X232357142Y-147857142D01*
X231642857Y-147857142D01*
X231357142Y-147714285D01*
X231214285Y-147428571D01*
X231214285Y-147142857D01*
X231357142Y-146857142D01*
X231642857Y-146714285D01*
X232357142Y-146714285D01*
X232642857Y-146571428D01*
X234071428Y-147857142D02*
X234071428Y-145857142D01*
X234071428Y-146428571D02*
X234214285Y-146142857D01*
X234357142Y-146000000D01*
X234642857Y-145857142D01*
X234928571Y-145857142D01*
X237214285Y-147857142D02*
X237214285Y-144857142D01*
X237214285Y-147714285D02*
X236928571Y-147857142D01*
X236357142Y-147857142D01*
X236071428Y-147714285D01*
X235928571Y-147571428D01*
X235785714Y-147285714D01*
X235785714Y-146428571D01*
X235928571Y-146142857D01*
X236071428Y-146000000D01*
X236357142Y-145857142D01*
X236928571Y-145857142D01*
X237214285Y-146000000D01*
X240928571Y-146714285D02*
X243214285Y-146714285D01*
X248642857Y-147857142D02*
X247642857Y-146428571D01*
X246928571Y-147857142D02*
X246928571Y-144857142D01*
X248071428Y-144857142D01*
X248357142Y-145000000D01*
X248500000Y-145142857D01*
X248642857Y-145428571D01*
X248642857Y-145857142D01*
X248500000Y-146142857D01*
X248357142Y-146285714D01*
X248071428Y-146428571D01*
X246928571Y-146428571D01*
X251071428Y-147714285D02*
X250785714Y-147857142D01*
X250214285Y-147857142D01*
X249928571Y-147714285D01*
X249785714Y-147428571D01*
X249785714Y-146285714D01*
X249928571Y-146000000D01*
X250214285Y-145857142D01*
X250785714Y-145857142D01*
X251071428Y-146000000D01*
X251214285Y-146285714D01*
X251214285Y-146571428D01*
X249785714Y-146857142D01*
X252214285Y-145857142D02*
X252928571Y-147857142D01*
X253642857Y-145857142D01*
X255785714Y-146285714D02*
X256214285Y-146428571D01*
X256357142Y-146571428D01*
X256499999Y-146857142D01*
X256499999Y-147285714D01*
X256357142Y-147571428D01*
X256214285Y-147714285D01*
X255928571Y-147857142D01*
X254785714Y-147857142D01*
X254785714Y-144857142D01*
X255785714Y-144857142D01*
X256071428Y-145000000D01*
X256214285Y-145142857D01*
X256357142Y-145428571D01*
X256357142Y-145714285D01*
X256214285Y-146000000D01*
X256071428Y-146142857D01*
X255785714Y-146285714D01*
X254785714Y-146285714D01*
X326539285Y-132785714D02*
X326967857Y-132928571D01*
X327110714Y-133071428D01*
X327253571Y-133357142D01*
X327253571Y-133785714D01*
X327110714Y-134071428D01*
X326967857Y-134214285D01*
X326682142Y-134357142D01*
X325539285Y-134357142D01*
X325539285Y-131357142D01*
X326539285Y-131357142D01*
X326825000Y-131500000D01*
X326967857Y-131642857D01*
X327110714Y-131928571D01*
X327110714Y-132214285D01*
X326967857Y-132500000D01*
X326825000Y-132642857D01*
X326539285Y-132785714D01*
X325539285Y-132785714D01*
X328539285Y-134357142D02*
X328539285Y-131357142D01*
X329539285Y-133500000D01*
X330539285Y-131357142D01*
X330539285Y-134357142D01*
X331825000Y-134214285D02*
X332253571Y-134357142D01*
X332967857Y-134357142D01*
X333253571Y-134214285D01*
X333396428Y-134071428D01*
X333539285Y-133785714D01*
X333539285Y-133500000D01*
X333396428Y-133214285D01*
X333253571Y-133071428D01*
X332967857Y-132928571D01*
X332396428Y-132785714D01*
X332110714Y-132642857D01*
X331967857Y-132500000D01*
X331825000Y-132214285D01*
X331825000Y-131928571D01*
X331967857Y-131642857D01*
X332110714Y-131500000D01*
X332396428Y-131357142D01*
X333110714Y-131357142D01*
X333539285Y-131500000D01*
X338825000Y-134071428D02*
X338682142Y-134214285D01*
X338253571Y-134357142D01*
X337967857Y-134357142D01*
X337539285Y-134214285D01*
X337253571Y-133928571D01*
X337110714Y-133642857D01*
X336967857Y-133071428D01*
X336967857Y-132642857D01*
X337110714Y-132071428D01*
X337253571Y-131785714D01*
X337539285Y-131500000D01*
X337967857Y-131357142D01*
X338253571Y-131357142D01*
X338682142Y-131500000D01*
X338825000Y-131642857D01*
X340682142Y-131357142D02*
X341253571Y-131357142D01*
X341539285Y-131500000D01*
X341825000Y-131785714D01*
X341967857Y-132357142D01*
X341967857Y-133357142D01*
X341825000Y-133928571D01*
X341539285Y-134214285D01*
X341253571Y-134357142D01*
X340682142Y-134357142D01*
X340396428Y-134214285D01*
X340110714Y-133928571D01*
X339967857Y-133357142D01*
X339967857Y-132357142D01*
X340110714Y-131785714D01*
X340396428Y-131500000D01*
X340682142Y-131357142D01*
X343253571Y-134357142D02*
X343253571Y-131357142D01*
X344967857Y-134357142D01*
X344967857Y-131357142D01*
X346396428Y-134357142D02*
X346396428Y-131357142D01*
X348110714Y-134357142D01*
X348110714Y-131357142D01*
X349539285Y-132785714D02*
X350539285Y-132785714D01*
X350967857Y-134357142D02*
X349539285Y-134357142D01*
X349539285Y-131357142D01*
X350967857Y-131357142D01*
X353967857Y-134071428D02*
X353825000Y-134214285D01*
X353396428Y-134357142D01*
X353110714Y-134357142D01*
X352682142Y-134214285D01*
X352396428Y-133928571D01*
X352253571Y-133642857D01*
X352110714Y-133071428D01*
X352110714Y-132642857D01*
X352253571Y-132071428D01*
X352396428Y-131785714D01*
X352682142Y-131500000D01*
X353110714Y-131357142D01*
X353396428Y-131357142D01*
X353825000Y-131500000D01*
X353967857Y-131642857D01*
X354825000Y-131357142D02*
X356539285Y-131357142D01*
X355682142Y-134357142D02*
X355682142Y-131357142D01*
X358110714Y-131357142D02*
X358682142Y-131357142D01*
X358967857Y-131500000D01*
X359253571Y-131785714D01*
X359396428Y-132357142D01*
X359396428Y-133357142D01*
X359253571Y-133928571D01*
X358967857Y-134214285D01*
X358682142Y-134357142D01*
X358110714Y-134357142D01*
X357825000Y-134214285D01*
X357539285Y-133928571D01*
X357396428Y-133357142D01*
X357396428Y-132357142D01*
X357539285Y-131785714D01*
X357825000Y-131500000D01*
X358110714Y-131357142D01*
X362396428Y-134357142D02*
X361396428Y-132928571D01*
X360682142Y-134357142D02*
X360682142Y-131357142D01*
X361825000Y-131357142D01*
X362110714Y-131500000D01*
X362253571Y-131642857D01*
X362396428Y-131928571D01*
X362396428Y-132357142D01*
X362253571Y-132642857D01*
X362110714Y-132785714D01*
X361825000Y-132928571D01*
X360682142Y-132928571D01*
X325110714Y-136357142D02*
X326825000Y-136357142D01*
X325967857Y-139357142D02*
X325967857Y-136357142D01*
X327825000Y-139357142D02*
X327825000Y-136357142D01*
X327825000Y-137785714D02*
X329539285Y-137785714D01*
X329539285Y-139357142D02*
X329539285Y-136357142D01*
X330967857Y-139357142D02*
X330967857Y-136357142D01*
X332253571Y-139214285D02*
X332682142Y-139357142D01*
X333396428Y-139357142D01*
X333682142Y-139214285D01*
X333825000Y-139071428D01*
X333967857Y-138785714D01*
X333967857Y-138500000D01*
X333825000Y-138214285D01*
X333682142Y-138071428D01*
X333396428Y-137928571D01*
X332825000Y-137785714D01*
X332539285Y-137642857D01*
X332396428Y-137500000D01*
X332253571Y-137214285D01*
X332253571Y-136928571D01*
X332396428Y-136642857D01*
X332539285Y-136500000D01*
X332825000Y-136357142D01*
X333539285Y-136357142D01*
X333967857Y-136500000D01*
X337396428Y-139214285D02*
X337825000Y-139357142D01*
X338539285Y-139357142D01*
X338825000Y-139214285D01*
X338967857Y-139071428D01*
X339110714Y-138785714D01*
X339110714Y-138500000D01*
X338967857Y-138214285D01*
X338825000Y-138071428D01*
X338539285Y-137928571D01*
X337967857Y-137785714D01*
X337682142Y-137642857D01*
X337539285Y-137500000D01*
X337396428Y-137214285D01*
X337396428Y-136928571D01*
X337539285Y-136642857D01*
X337682142Y-136500000D01*
X337967857Y-136357142D01*
X338682142Y-136357142D01*
X339110714Y-136500000D01*
X340396428Y-139357142D02*
X340396428Y-136357142D01*
X341825000Y-139357142D02*
X341825000Y-136357142D01*
X342539285Y-136357142D01*
X342967857Y-136500000D01*
X343253571Y-136785714D01*
X343396428Y-137071428D01*
X343539285Y-137642857D01*
X343539285Y-138071428D01*
X343396428Y-138642857D01*
X343253571Y-138928571D01*
X342967857Y-139214285D01*
X342539285Y-139357142D01*
X341825000Y-139357142D01*
X344825000Y-137785714D02*
X345825000Y-137785714D01*
X346253571Y-139357142D02*
X344825000Y-139357142D01*
X344825000Y-136357142D01*
X346253571Y-136357142D01*
X349825000Y-137357142D02*
X352110714Y-138214285D01*
X349825000Y-139071428D01*
X353539285Y-137357142D02*
X355825000Y-138214285D01*
X353539285Y-139071428D01*
X357253571Y-137357142D02*
X359539285Y-138214285D01*
X357253571Y-139071428D01*
X370500000Y-188500000D02*
X74000000Y-188500000D01*
X74000000Y-83500000D02*
X370500000Y-83500000D01*
D17*
X90000000Y-136000000D02*
G75*
G03*
X90000000Y-136000000I-5000000J0D01*
G01*
D18*
%TO.C,REF\u002A\u002A*%
G36*
X214953166Y-176436506D02*
G01*
X215139084Y-176529204D01*
X215303180Y-176699885D01*
X215348372Y-176763107D01*
X215397604Y-176845834D01*
X215429547Y-176935687D01*
X215447822Y-177055608D01*
X215456048Y-177228537D01*
X215457855Y-177456835D01*
X215449697Y-177769693D01*
X215421341Y-178004598D01*
X215366962Y-178179847D01*
X215280737Y-178313738D01*
X215156841Y-178424569D01*
X215147737Y-178431131D01*
X215025634Y-178498256D01*
X214878600Y-178531467D01*
X214691604Y-178539655D01*
X214387613Y-178539655D01*
X214387485Y-178834762D01*
X214384656Y-178999117D01*
X214367418Y-179095523D01*
X214322370Y-179153343D01*
X214236114Y-179201941D01*
X214215399Y-179211869D01*
X214118462Y-179258398D01*
X214043407Y-179287786D01*
X213987598Y-179290324D01*
X213948397Y-179256302D01*
X213923168Y-179176012D01*
X213909272Y-179039743D01*
X213904073Y-178837787D01*
X213904934Y-178560434D01*
X213909216Y-178197976D01*
X213910553Y-178089560D01*
X213915371Y-177715837D01*
X213919687Y-177471369D01*
X214387357Y-177471369D01*
X214389985Y-177678877D01*
X214401667Y-177814645D01*
X214428097Y-177904192D01*
X214474969Y-177973039D01*
X214506793Y-178006618D01*
X214636892Y-178104869D01*
X214752079Y-178112866D01*
X214870934Y-178031730D01*
X214873947Y-178028736D01*
X214922305Y-177966030D01*
X214951722Y-177880808D01*
X214966560Y-177749564D01*
X214971181Y-177548793D01*
X214971265Y-177504314D01*
X214960098Y-177227639D01*
X214923747Y-177035842D01*
X214857941Y-176918757D01*
X214758407Y-176866215D01*
X214700881Y-176860920D01*
X214564351Y-176885767D01*
X214470702Y-176967581D01*
X214414330Y-177117270D01*
X214389633Y-177345743D01*
X214387357Y-177471369D01*
X213919687Y-177471369D01*
X213920478Y-177426587D01*
X213927078Y-177208970D01*
X213936377Y-177050146D01*
X213949577Y-176937274D01*
X213967885Y-176857513D01*
X213992503Y-176798023D01*
X214024637Y-176745963D01*
X214038415Y-176726373D01*
X214221188Y-176541328D01*
X214452276Y-176436412D01*
X214719590Y-176407163D01*
X214953166Y-176436506D01*
G37*
X214953166Y-176436506D02*
X215139084Y-176529204D01*
X215303180Y-176699885D01*
X215348372Y-176763107D01*
X215397604Y-176845834D01*
X215429547Y-176935687D01*
X215447822Y-177055608D01*
X215456048Y-177228537D01*
X215457855Y-177456835D01*
X215449697Y-177769693D01*
X215421341Y-178004598D01*
X215366962Y-178179847D01*
X215280737Y-178313738D01*
X215156841Y-178424569D01*
X215147737Y-178431131D01*
X215025634Y-178498256D01*
X214878600Y-178531467D01*
X214691604Y-178539655D01*
X214387613Y-178539655D01*
X214387485Y-178834762D01*
X214384656Y-178999117D01*
X214367418Y-179095523D01*
X214322370Y-179153343D01*
X214236114Y-179201941D01*
X214215399Y-179211869D01*
X214118462Y-179258398D01*
X214043407Y-179287786D01*
X213987598Y-179290324D01*
X213948397Y-179256302D01*
X213923168Y-179176012D01*
X213909272Y-179039743D01*
X213904073Y-178837787D01*
X213904934Y-178560434D01*
X213909216Y-178197976D01*
X213910553Y-178089560D01*
X213915371Y-177715837D01*
X213919687Y-177471369D01*
X214387357Y-177471369D01*
X214389985Y-177678877D01*
X214401667Y-177814645D01*
X214428097Y-177904192D01*
X214474969Y-177973039D01*
X214506793Y-178006618D01*
X214636892Y-178104869D01*
X214752079Y-178112866D01*
X214870934Y-178031730D01*
X214873947Y-178028736D01*
X214922305Y-177966030D01*
X214951722Y-177880808D01*
X214966560Y-177749564D01*
X214971181Y-177548793D01*
X214971265Y-177504314D01*
X214960098Y-177227639D01*
X214923747Y-177035842D01*
X214857941Y-176918757D01*
X214758407Y-176866215D01*
X214700881Y-176860920D01*
X214564351Y-176885767D01*
X214470702Y-176967581D01*
X214414330Y-177117270D01*
X214389633Y-177345743D01*
X214387357Y-177471369D01*
X213919687Y-177471369D01*
X213920478Y-177426587D01*
X213927078Y-177208970D01*
X213936377Y-177050146D01*
X213949577Y-176937274D01*
X213967885Y-176857513D01*
X213992503Y-176798023D01*
X214024637Y-176745963D01*
X214038415Y-176726373D01*
X214221188Y-176541328D01*
X214452276Y-176436412D01*
X214719590Y-176407163D01*
X214953166Y-176436506D01*
G36*
X218695716Y-176462865D02*
G01*
X218851872Y-176553190D01*
X218960441Y-176642845D01*
X219039845Y-176736776D01*
X219094546Y-176851646D01*
X219129010Y-177004114D01*
X219147701Y-177210844D01*
X219155081Y-177488496D01*
X219155939Y-177688086D01*
X219155939Y-178422766D01*
X218949138Y-178515472D01*
X218742338Y-178608179D01*
X218718008Y-177803492D01*
X218707955Y-177502966D01*
X218697409Y-177284835D01*
X218684343Y-177134186D01*
X218666729Y-177036107D01*
X218642539Y-176975688D01*
X218609746Y-176938016D01*
X218599225Y-176929862D01*
X218439813Y-176866178D01*
X218278679Y-176891378D01*
X218182759Y-176958238D01*
X218143741Y-177005616D01*
X218116733Y-177067787D01*
X218099568Y-177162039D01*
X218090082Y-177305657D01*
X218086107Y-177515931D01*
X218085441Y-177735070D01*
X218085310Y-178009999D01*
X218080603Y-178204602D01*
X218064846Y-178335851D01*
X218031567Y-178420718D01*
X217974293Y-178476177D01*
X217886553Y-178519201D01*
X217769362Y-178563907D01*
X217641368Y-178612571D01*
X217656604Y-177748910D01*
X217662739Y-177437565D01*
X217669918Y-177207483D01*
X217680205Y-177042614D01*
X217695670Y-176926909D01*
X217718379Y-176844316D01*
X217750399Y-176778788D01*
X217789003Y-176720974D01*
X217975253Y-176536283D01*
X218202521Y-176429481D01*
X218449709Y-176403898D01*
X218695716Y-176462865D01*
G37*
X218695716Y-176462865D02*
X218851872Y-176553190D01*
X218960441Y-176642845D01*
X219039845Y-176736776D01*
X219094546Y-176851646D01*
X219129010Y-177004114D01*
X219147701Y-177210844D01*
X219155081Y-177488496D01*
X219155939Y-177688086D01*
X219155939Y-178422766D01*
X218949138Y-178515472D01*
X218742338Y-178608179D01*
X218718008Y-177803492D01*
X218707955Y-177502966D01*
X218697409Y-177284835D01*
X218684343Y-177134186D01*
X218666729Y-177036107D01*
X218642539Y-176975688D01*
X218609746Y-176938016D01*
X218599225Y-176929862D01*
X218439813Y-176866178D01*
X218278679Y-176891378D01*
X218182759Y-176958238D01*
X218143741Y-177005616D01*
X218116733Y-177067787D01*
X218099568Y-177162039D01*
X218090082Y-177305657D01*
X218086107Y-177515931D01*
X218085441Y-177735070D01*
X218085310Y-178009999D01*
X218080603Y-178204602D01*
X218064846Y-178335851D01*
X218031567Y-178420718D01*
X217974293Y-178476177D01*
X217886553Y-178519201D01*
X217769362Y-178563907D01*
X217641368Y-178612571D01*
X217656604Y-177748910D01*
X217662739Y-177437565D01*
X217669918Y-177207483D01*
X217680205Y-177042614D01*
X217695670Y-176926909D01*
X217718379Y-176844316D01*
X217750399Y-176778788D01*
X217789003Y-176720974D01*
X217975253Y-176536283D01*
X218202521Y-176429481D01*
X218449709Y-176403898D01*
X218695716Y-176462865D01*
G36*
X213080368Y-176443358D02*
G01*
X213308436Y-176563280D01*
X213476752Y-176756278D01*
X213536541Y-176880355D01*
X213583066Y-177066653D01*
X213606882Y-177302045D01*
X213609140Y-177558952D01*
X213590992Y-177809799D01*
X213553589Y-178027009D01*
X213498084Y-178183005D01*
X213481025Y-178209871D01*
X213278970Y-178410415D01*
X213038978Y-178530529D01*
X212778566Y-178565680D01*
X212515247Y-178511337D01*
X212441967Y-178478756D01*
X212299261Y-178378353D01*
X212174014Y-178245225D01*
X212162177Y-178228341D01*
X212114065Y-178146969D01*
X212082262Y-178059984D01*
X212063474Y-177945475D01*
X212054408Y-177781530D01*
X212051771Y-177546240D01*
X212051725Y-177493487D01*
X212051846Y-177476699D01*
X212538315Y-177476699D01*
X212541146Y-177698761D01*
X212552288Y-177846123D01*
X212575709Y-177941308D01*
X212615381Y-178006837D01*
X212635633Y-178028736D01*
X212752060Y-178111953D01*
X212865098Y-178108158D01*
X212979391Y-178035973D01*
X213047559Y-177958911D01*
X213087930Y-177846429D01*
X213110602Y-177669055D01*
X213112157Y-177648367D01*
X213116027Y-177326911D01*
X213075583Y-177088167D01*
X212991374Y-176933600D01*
X212863947Y-176864678D01*
X212818460Y-176860920D01*
X212699019Y-176879821D01*
X212617317Y-176945306D01*
X212567363Y-177070544D01*
X212543166Y-177268704D01*
X212538315Y-177476699D01*
X212051846Y-177476699D01*
X212053537Y-177242765D01*
X212061147Y-177067582D01*
X212077814Y-176946191D01*
X212106799Y-176856847D01*
X212151360Y-176777803D01*
X212161207Y-176763107D01*
X212326720Y-176565011D01*
X212507070Y-176450014D01*
X212726635Y-176404365D01*
X212801195Y-176402135D01*
X213080368Y-176443358D01*
G37*
X213080368Y-176443358D02*
X213308436Y-176563280D01*
X213476752Y-176756278D01*
X213536541Y-176880355D01*
X213583066Y-177066653D01*
X213606882Y-177302045D01*
X213609140Y-177558952D01*
X213590992Y-177809799D01*
X213553589Y-178027009D01*
X213498084Y-178183005D01*
X213481025Y-178209871D01*
X213278970Y-178410415D01*
X213038978Y-178530529D01*
X212778566Y-178565680D01*
X212515247Y-178511337D01*
X212441967Y-178478756D01*
X212299261Y-178378353D01*
X212174014Y-178245225D01*
X212162177Y-178228341D01*
X212114065Y-178146969D01*
X212082262Y-178059984D01*
X212063474Y-177945475D01*
X212054408Y-177781530D01*
X212051771Y-177546240D01*
X212051725Y-177493487D01*
X212051846Y-177476699D01*
X212538315Y-177476699D01*
X212541146Y-177698761D01*
X212552288Y-177846123D01*
X212575709Y-177941308D01*
X212615381Y-178006837D01*
X212635633Y-178028736D01*
X212752060Y-178111953D01*
X212865098Y-178108158D01*
X212979391Y-178035973D01*
X213047559Y-177958911D01*
X213087930Y-177846429D01*
X213110602Y-177669055D01*
X213112157Y-177648367D01*
X213116027Y-177326911D01*
X213075583Y-177088167D01*
X212991374Y-176933600D01*
X212863947Y-176864678D01*
X212818460Y-176860920D01*
X212699019Y-176879821D01*
X212617317Y-176945306D01*
X212567363Y-177070544D01*
X212543166Y-177268704D01*
X212538315Y-177476699D01*
X212051846Y-177476699D01*
X212053537Y-177242765D01*
X212061147Y-177067582D01*
X212077814Y-176946191D01*
X212106799Y-176856847D01*
X212151360Y-176777803D01*
X212161207Y-176763107D01*
X212326720Y-176565011D01*
X212507070Y-176450014D01*
X212726635Y-176404365D01*
X212801195Y-176402135D01*
X213080368Y-176443358D01*
G36*
X216859253Y-176474461D02*
G01*
X217051097Y-176603519D01*
X217199352Y-176789915D01*
X217287916Y-177027109D01*
X217305828Y-177201691D01*
X217303794Y-177274544D01*
X217286760Y-177330324D01*
X217239936Y-177380298D01*
X217148527Y-177435733D01*
X216997742Y-177507896D01*
X216772787Y-177608055D01*
X216771648Y-177608558D01*
X216564585Y-177703396D01*
X216394788Y-177787609D01*
X216279612Y-177852133D01*
X216236410Y-177887900D01*
X216236399Y-177888188D01*
X216274475Y-177966074D01*
X216363516Y-178051924D01*
X216465737Y-178113769D01*
X216517526Y-178126054D01*
X216658816Y-178083564D01*
X216780488Y-177977152D01*
X216839855Y-177860156D01*
X216896967Y-177773905D01*
X217008839Y-177675681D01*
X217140346Y-177590827D01*
X217256368Y-177544681D01*
X217280629Y-177542146D01*
X217307938Y-177583868D01*
X217309584Y-177690519D01*
X217289514Y-177834321D01*
X217251678Y-177987501D01*
X217200023Y-178122283D01*
X217197414Y-178127516D01*
X217041969Y-178344557D01*
X216840507Y-178492185D01*
X216611712Y-178564644D01*
X216374267Y-178556177D01*
X216146854Y-178461027D01*
X216136743Y-178454337D01*
X215957850Y-178292211D01*
X215840220Y-178080682D01*
X215775123Y-177802543D01*
X215766387Y-177724398D01*
X215750914Y-177355549D01*
X215769463Y-177183541D01*
X216236399Y-177183541D01*
X216242466Y-177290838D01*
X216275649Y-177322152D01*
X216358377Y-177298725D01*
X216488779Y-177243348D01*
X216634543Y-177173932D01*
X216638166Y-177172094D01*
X216761717Y-177107108D01*
X216811303Y-177063740D01*
X216799075Y-177018275D01*
X216747588Y-176958536D01*
X216616601Y-176872085D01*
X216475538Y-176865733D01*
X216349005Y-176928649D01*
X216261608Y-177050003D01*
X216236399Y-177183541D01*
X215769463Y-177183541D01*
X215782740Y-177060435D01*
X215864391Y-176826382D01*
X215978061Y-176662413D01*
X216183225Y-176496716D01*
X216409214Y-176414519D01*
X216639925Y-176409281D01*
X216859253Y-176474461D01*
G37*
X216859253Y-176474461D02*
X217051097Y-176603519D01*
X217199352Y-176789915D01*
X217287916Y-177027109D01*
X217305828Y-177201691D01*
X217303794Y-177274544D01*
X217286760Y-177330324D01*
X217239936Y-177380298D01*
X217148527Y-177435733D01*
X216997742Y-177507896D01*
X216772787Y-177608055D01*
X216771648Y-177608558D01*
X216564585Y-177703396D01*
X216394788Y-177787609D01*
X216279612Y-177852133D01*
X216236410Y-177887900D01*
X216236399Y-177888188D01*
X216274475Y-177966074D01*
X216363516Y-178051924D01*
X216465737Y-178113769D01*
X216517526Y-178126054D01*
X216658816Y-178083564D01*
X216780488Y-177977152D01*
X216839855Y-177860156D01*
X216896967Y-177773905D01*
X217008839Y-177675681D01*
X217140346Y-177590827D01*
X217256368Y-177544681D01*
X217280629Y-177542146D01*
X217307938Y-177583868D01*
X217309584Y-177690519D01*
X217289514Y-177834321D01*
X217251678Y-177987501D01*
X217200023Y-178122283D01*
X217197414Y-178127516D01*
X217041969Y-178344557D01*
X216840507Y-178492185D01*
X216611712Y-178564644D01*
X216374267Y-178556177D01*
X216146854Y-178461027D01*
X216136743Y-178454337D01*
X215957850Y-178292211D01*
X215840220Y-178080682D01*
X215775123Y-177802543D01*
X215766387Y-177724398D01*
X215750914Y-177355549D01*
X215769463Y-177183541D01*
X216236399Y-177183541D01*
X216242466Y-177290838D01*
X216275649Y-177322152D01*
X216358377Y-177298725D01*
X216488779Y-177243348D01*
X216634543Y-177173932D01*
X216638166Y-177172094D01*
X216761717Y-177107108D01*
X216811303Y-177063740D01*
X216799075Y-177018275D01*
X216747588Y-176958536D01*
X216616601Y-176872085D01*
X216475538Y-176865733D01*
X216349005Y-176928649D01*
X216261608Y-177050003D01*
X216236399Y-177183541D01*
X215769463Y-177183541D01*
X215782740Y-177060435D01*
X215864391Y-176826382D01*
X215978061Y-176662413D01*
X216183225Y-176496716D01*
X216409214Y-176414519D01*
X216639925Y-176409281D01*
X216859253Y-176474461D01*
G36*
X220907663Y-176206429D02*
G01*
X220921923Y-176405313D01*
X220938302Y-176522511D01*
X220960998Y-176573632D01*
X220994212Y-176574286D01*
X221004981Y-176568183D01*
X221148233Y-176523997D01*
X221334575Y-176526577D01*
X221524024Y-176571999D01*
X221642517Y-176630759D01*
X221764009Y-176724631D01*
X221852823Y-176830865D01*
X221913792Y-176965850D01*
X221951750Y-177145976D01*
X221971532Y-177387633D01*
X221977970Y-177707211D01*
X221978086Y-177768516D01*
X221978161Y-178457147D01*
X221824923Y-178510566D01*
X221716087Y-178546908D01*
X221656374Y-178563828D01*
X221654617Y-178563985D01*
X221648736Y-178518100D01*
X221643732Y-178391539D01*
X221639984Y-178200941D01*
X221637873Y-177962948D01*
X221637548Y-177818252D01*
X221636871Y-177532955D01*
X221633386Y-177328480D01*
X221624912Y-177188334D01*
X221609266Y-177096023D01*
X221584269Y-177035053D01*
X221547738Y-176988931D01*
X221524929Y-176966720D01*
X221368249Y-176877214D01*
X221197274Y-176870511D01*
X221042150Y-176946208D01*
X221013463Y-176973539D01*
X220971387Y-177024929D01*
X220942201Y-177085886D01*
X220923571Y-177174025D01*
X220913161Y-177306961D01*
X220908637Y-177502309D01*
X220907663Y-177771652D01*
X220907663Y-178457147D01*
X220754425Y-178510566D01*
X220645589Y-178546908D01*
X220585876Y-178563828D01*
X220584119Y-178563985D01*
X220579625Y-178517414D01*
X220575575Y-178386051D01*
X220572130Y-178182422D01*
X220569453Y-177919054D01*
X220567706Y-177608471D01*
X220567051Y-177263201D01*
X220567050Y-177247843D01*
X220567050Y-175931701D01*
X220883334Y-175798289D01*
X220907663Y-176206429D01*
G37*
X220907663Y-176206429D02*
X220921923Y-176405313D01*
X220938302Y-176522511D01*
X220960998Y-176573632D01*
X220994212Y-176574286D01*
X221004981Y-176568183D01*
X221148233Y-176523997D01*
X221334575Y-176526577D01*
X221524024Y-176571999D01*
X221642517Y-176630759D01*
X221764009Y-176724631D01*
X221852823Y-176830865D01*
X221913792Y-176965850D01*
X221951750Y-177145976D01*
X221971532Y-177387633D01*
X221977970Y-177707211D01*
X221978086Y-177768516D01*
X221978161Y-178457147D01*
X221824923Y-178510566D01*
X221716087Y-178546908D01*
X221656374Y-178563828D01*
X221654617Y-178563985D01*
X221648736Y-178518100D01*
X221643732Y-178391539D01*
X221639984Y-178200941D01*
X221637873Y-177962948D01*
X221637548Y-177818252D01*
X221636871Y-177532955D01*
X221633386Y-177328480D01*
X221624912Y-177188334D01*
X221609266Y-177096023D01*
X221584269Y-177035053D01*
X221547738Y-176988931D01*
X221524929Y-176966720D01*
X221368249Y-176877214D01*
X221197274Y-176870511D01*
X221042150Y-176946208D01*
X221013463Y-176973539D01*
X220971387Y-177024929D01*
X220942201Y-177085886D01*
X220923571Y-177174025D01*
X220913161Y-177306961D01*
X220908637Y-177502309D01*
X220907663Y-177771652D01*
X220907663Y-178457147D01*
X220754425Y-178510566D01*
X220645589Y-178546908D01*
X220585876Y-178563828D01*
X220584119Y-178563985D01*
X220579625Y-178517414D01*
X220575575Y-178386051D01*
X220572130Y-178182422D01*
X220569453Y-177919054D01*
X220567706Y-177608471D01*
X220567051Y-177263201D01*
X220567050Y-177247843D01*
X220567050Y-175931701D01*
X220883334Y-175798289D01*
X220907663Y-176206429D01*
G36*
X223133241Y-176540601D02*
G01*
X223323905Y-176611403D01*
X223326086Y-176612764D01*
X223444006Y-176699550D01*
X223531060Y-176800973D01*
X223592286Y-176933145D01*
X223632723Y-177112182D01*
X223657409Y-177354195D01*
X223671382Y-177675299D01*
X223672607Y-177721048D01*
X223690200Y-178410869D01*
X223542152Y-178487427D01*
X223435030Y-178539163D01*
X223370351Y-178563678D01*
X223367359Y-178563985D01*
X223356166Y-178518751D01*
X223347275Y-178396736D01*
X223341806Y-178218468D01*
X223340613Y-178074116D01*
X223340586Y-177840271D01*
X223329896Y-177693419D01*
X223292633Y-177623376D01*
X223212888Y-177619958D01*
X223074749Y-177672983D01*
X222866188Y-177770454D01*
X222712829Y-177851409D01*
X222633952Y-177921644D01*
X222610764Y-177998194D01*
X222610728Y-178001982D01*
X222648993Y-178133852D01*
X222762283Y-178205091D01*
X222935664Y-178215410D01*
X223060550Y-178213620D01*
X223126399Y-178249589D01*
X223167464Y-178335985D01*
X223191099Y-178446054D01*
X223157039Y-178508508D01*
X223144214Y-178517446D01*
X223023472Y-178553343D01*
X222854388Y-178558426D01*
X222680261Y-178534631D01*
X222556876Y-178491147D01*
X222386287Y-178346309D01*
X222289319Y-178144694D01*
X222270115Y-177987180D01*
X222284770Y-177845104D01*
X222337801Y-177729127D01*
X222442806Y-177626121D01*
X222613386Y-177522954D01*
X222863138Y-177406496D01*
X222878353Y-177399914D01*
X223103329Y-177295981D01*
X223242157Y-177210743D01*
X223301662Y-177134147D01*
X223288672Y-177056139D01*
X223210012Y-176966664D01*
X223186490Y-176946073D01*
X223028933Y-176866236D01*
X222865677Y-176869597D01*
X222723495Y-176947874D01*
X222629160Y-177092781D01*
X222620395Y-177121224D01*
X222535038Y-177259174D01*
X222426729Y-177325620D01*
X222270115Y-177391471D01*
X222270115Y-177221097D01*
X222317756Y-176973454D01*
X222459159Y-176746307D01*
X222532742Y-176670318D01*
X222700009Y-176572790D01*
X222912726Y-176528640D01*
X223133241Y-176540601D01*
G37*
X223133241Y-176540601D02*
X223323905Y-176611403D01*
X223326086Y-176612764D01*
X223444006Y-176699550D01*
X223531060Y-176800973D01*
X223592286Y-176933145D01*
X223632723Y-177112182D01*
X223657409Y-177354195D01*
X223671382Y-177675299D01*
X223672607Y-177721048D01*
X223690200Y-178410869D01*
X223542152Y-178487427D01*
X223435030Y-178539163D01*
X223370351Y-178563678D01*
X223367359Y-178563985D01*
X223356166Y-178518751D01*
X223347275Y-178396736D01*
X223341806Y-178218468D01*
X223340613Y-178074116D01*
X223340586Y-177840271D01*
X223329896Y-177693419D01*
X223292633Y-177623376D01*
X223212888Y-177619958D01*
X223074749Y-177672983D01*
X222866188Y-177770454D01*
X222712829Y-177851409D01*
X222633952Y-177921644D01*
X222610764Y-177998194D01*
X222610728Y-178001982D01*
X222648993Y-178133852D01*
X222762283Y-178205091D01*
X222935664Y-178215410D01*
X223060550Y-178213620D01*
X223126399Y-178249589D01*
X223167464Y-178335985D01*
X223191099Y-178446054D01*
X223157039Y-178508508D01*
X223144214Y-178517446D01*
X223023472Y-178553343D01*
X222854388Y-178558426D01*
X222680261Y-178534631D01*
X222556876Y-178491147D01*
X222386287Y-178346309D01*
X222289319Y-178144694D01*
X222270115Y-177987180D01*
X222284770Y-177845104D01*
X222337801Y-177729127D01*
X222442806Y-177626121D01*
X222613386Y-177522954D01*
X222863138Y-177406496D01*
X222878353Y-177399914D01*
X223103329Y-177295981D01*
X223242157Y-177210743D01*
X223301662Y-177134147D01*
X223288672Y-177056139D01*
X223210012Y-176966664D01*
X223186490Y-176946073D01*
X223028933Y-176866236D01*
X222865677Y-176869597D01*
X222723495Y-176947874D01*
X222629160Y-177092781D01*
X222620395Y-177121224D01*
X222535038Y-177259174D01*
X222426729Y-177325620D01*
X222270115Y-177391471D01*
X222270115Y-177221097D01*
X222317756Y-176973454D01*
X222459159Y-176746307D01*
X222532742Y-176670318D01*
X222700009Y-176572790D01*
X222912726Y-176528640D01*
X223133241Y-176540601D01*
G36*
X224776572Y-176536534D02*
G01*
X224997609Y-176618099D01*
X225176683Y-176762366D01*
X225246720Y-176863920D01*
X225323071Y-177050268D01*
X225321485Y-177185010D01*
X225241347Y-177275631D01*
X225211696Y-177291040D01*
X225083674Y-177339084D01*
X225018294Y-177326776D01*
X224996148Y-177246098D01*
X224995020Y-177201533D01*
X224954477Y-177037581D01*
X224848802Y-176922891D01*
X224701924Y-176867497D01*
X224537773Y-176881435D01*
X224404337Y-176953827D01*
X224359269Y-176995120D01*
X224327323Y-177045216D01*
X224305744Y-177120942D01*
X224291773Y-177239128D01*
X224282655Y-177416600D01*
X224275631Y-177670186D01*
X224273812Y-177750479D01*
X224267178Y-178025158D01*
X224259636Y-178218481D01*
X224248325Y-178346388D01*
X224230385Y-178424822D01*
X224202955Y-178469725D01*
X224163177Y-178497038D01*
X224137710Y-178509105D01*
X224029556Y-178550367D01*
X223965890Y-178563985D01*
X223944854Y-178518505D01*
X223932013Y-178381006D01*
X223927300Y-178149902D01*
X223930644Y-177823604D01*
X223931686Y-177773276D01*
X223939035Y-177475581D01*
X223947726Y-177258205D01*
X223960092Y-177104153D01*
X223978470Y-176996430D01*
X224005195Y-176918042D01*
X224042602Y-176851994D01*
X224062170Y-176823691D01*
X224174366Y-176698467D01*
X224299850Y-176601063D01*
X224315213Y-176592561D01*
X224540223Y-176525433D01*
X224776572Y-176536534D01*
G37*
X224776572Y-176536534D02*
X224997609Y-176618099D01*
X225176683Y-176762366D01*
X225246720Y-176863920D01*
X225323071Y-177050268D01*
X225321485Y-177185010D01*
X225241347Y-177275631D01*
X225211696Y-177291040D01*
X225083674Y-177339084D01*
X225018294Y-177326776D01*
X224996148Y-177246098D01*
X224995020Y-177201533D01*
X224954477Y-177037581D01*
X224848802Y-176922891D01*
X224701924Y-176867497D01*
X224537773Y-176881435D01*
X224404337Y-176953827D01*
X224359269Y-176995120D01*
X224327323Y-177045216D01*
X224305744Y-177120942D01*
X224291773Y-177239128D01*
X224282655Y-177416600D01*
X224275631Y-177670186D01*
X224273812Y-177750479D01*
X224267178Y-178025158D01*
X224259636Y-178218481D01*
X224248325Y-178346388D01*
X224230385Y-178424822D01*
X224202955Y-178469725D01*
X224163177Y-178497038D01*
X224137710Y-178509105D01*
X224029556Y-178550367D01*
X223965890Y-178563985D01*
X223944854Y-178518505D01*
X223932013Y-178381006D01*
X223927300Y-178149902D01*
X223930644Y-177823604D01*
X223931686Y-177773276D01*
X223939035Y-177475581D01*
X223947726Y-177258205D01*
X223960092Y-177104153D01*
X223978470Y-176996430D01*
X224005195Y-176918042D01*
X224042602Y-176851994D01*
X224062170Y-176823691D01*
X224174366Y-176698467D01*
X224299850Y-176601063D01*
X224315213Y-176592561D01*
X224540223Y-176525433D01*
X224776572Y-176536534D01*
G36*
X226989857Y-176924093D02*
G01*
X226989239Y-177287769D01*
X226986847Y-177567532D01*
X226981671Y-177776784D01*
X226972704Y-177928926D01*
X226958936Y-178037359D01*
X226939361Y-178115485D01*
X226912968Y-178176707D01*
X226892984Y-178211652D01*
X226727483Y-178401157D01*
X226517648Y-178519942D01*
X226285486Y-178562564D01*
X226053008Y-178523583D01*
X225914572Y-178453532D01*
X225769242Y-178332353D01*
X225670195Y-178184354D01*
X225610435Y-177990534D01*
X225582969Y-177731892D01*
X225579079Y-177542146D01*
X225579603Y-177528510D01*
X225919541Y-177528510D01*
X225921617Y-177746096D01*
X225931130Y-177890134D01*
X225953008Y-177984364D01*
X225992176Y-178052523D01*
X226038976Y-178103936D01*
X226196146Y-178203175D01*
X226364900Y-178211653D01*
X226524393Y-178128799D01*
X226536807Y-178117572D01*
X226589791Y-178059171D01*
X226623014Y-177989686D01*
X226641000Y-177886270D01*
X226648275Y-177726073D01*
X226649426Y-177548965D01*
X226646932Y-177326467D01*
X226636608Y-177178037D01*
X226614191Y-177080489D01*
X226575418Y-177010637D01*
X226543626Y-176973539D01*
X226395939Y-176879975D01*
X226225846Y-176868725D01*
X226063492Y-176940190D01*
X226032160Y-176966720D01*
X225978822Y-177025636D01*
X225945531Y-177095837D01*
X225927656Y-177200418D01*
X225920566Y-177362479D01*
X225919541Y-177528510D01*
X225579603Y-177528510D01*
X225590840Y-177236579D01*
X225630787Y-177006993D01*
X225705913Y-176834387D01*
X225823214Y-176699760D01*
X225914572Y-176630759D01*
X226080627Y-176556214D01*
X226273092Y-176521613D01*
X226451999Y-176530875D01*
X226552108Y-176568238D01*
X226591393Y-176578872D01*
X226617461Y-176539225D01*
X226635658Y-176432981D01*
X226649426Y-176271145D01*
X226664499Y-176090902D01*
X226685436Y-175982458D01*
X226723532Y-175920446D01*
X226790085Y-175879499D01*
X226831897Y-175861366D01*
X226990039Y-175795120D01*
X226989857Y-176924093D01*
G37*
X226989857Y-176924093D02*
X226989239Y-177287769D01*
X226986847Y-177567532D01*
X226981671Y-177776784D01*
X226972704Y-177928926D01*
X226958936Y-178037359D01*
X226939361Y-178115485D01*
X226912968Y-178176707D01*
X226892984Y-178211652D01*
X226727483Y-178401157D01*
X226517648Y-178519942D01*
X226285486Y-178562564D01*
X226053008Y-178523583D01*
X225914572Y-178453532D01*
X225769242Y-178332353D01*
X225670195Y-178184354D01*
X225610435Y-177990534D01*
X225582969Y-177731892D01*
X225579079Y-177542146D01*
X225579603Y-177528510D01*
X225919541Y-177528510D01*
X225921617Y-177746096D01*
X225931130Y-177890134D01*
X225953008Y-177984364D01*
X225992176Y-178052523D01*
X226038976Y-178103936D01*
X226196146Y-178203175D01*
X226364900Y-178211653D01*
X226524393Y-178128799D01*
X226536807Y-178117572D01*
X226589791Y-178059171D01*
X226623014Y-177989686D01*
X226641000Y-177886270D01*
X226648275Y-177726073D01*
X226649426Y-177548965D01*
X226646932Y-177326467D01*
X226636608Y-177178037D01*
X226614191Y-177080489D01*
X226575418Y-177010637D01*
X226543626Y-176973539D01*
X226395939Y-176879975D01*
X226225846Y-176868725D01*
X226063492Y-176940190D01*
X226032160Y-176966720D01*
X225978822Y-177025636D01*
X225945531Y-177095837D01*
X225927656Y-177200418D01*
X225920566Y-177362479D01*
X225919541Y-177528510D01*
X225579603Y-177528510D01*
X225590840Y-177236579D01*
X225630787Y-177006993D01*
X225705913Y-176834387D01*
X225823214Y-176699760D01*
X225914572Y-176630759D01*
X226080627Y-176556214D01*
X226273092Y-176521613D01*
X226451999Y-176530875D01*
X226552108Y-176568238D01*
X226591393Y-176578872D01*
X226617461Y-176539225D01*
X226635658Y-176432981D01*
X226649426Y-176271145D01*
X226664499Y-176090902D01*
X226685436Y-175982458D01*
X226723532Y-175920446D01*
X226790085Y-175879499D01*
X226831897Y-175861366D01*
X226990039Y-175795120D01*
X226989857Y-176924093D01*
G36*
X228966873Y-176566400D02*
G01*
X228974299Y-176694422D01*
X228980118Y-176888985D01*
X228983859Y-177134702D01*
X228985058Y-177392426D01*
X228985058Y-178264545D01*
X228831075Y-178418528D01*
X228724963Y-178513412D01*
X228631816Y-178551845D01*
X228504504Y-178549413D01*
X228453968Y-178543223D01*
X228296017Y-178525210D01*
X228165371Y-178514888D01*
X228133525Y-178513935D01*
X228026166Y-178520171D01*
X227872619Y-178535824D01*
X227813083Y-178543223D01*
X227666857Y-178554668D01*
X227568589Y-178529808D01*
X227471150Y-178453058D01*
X227435976Y-178418528D01*
X227281993Y-178264545D01*
X227281993Y-176633246D01*
X227405930Y-176576776D01*
X227512650Y-176534950D01*
X227575087Y-176520307D01*
X227591096Y-176566583D01*
X227606058Y-176695884D01*
X227618978Y-176893914D01*
X227628857Y-177146380D01*
X227633622Y-177359675D01*
X227646935Y-178199042D01*
X227763080Y-178215464D01*
X227868716Y-178203982D01*
X227920477Y-178166805D01*
X227934945Y-178097298D01*
X227947298Y-177949240D01*
X227956552Y-177741391D01*
X227961728Y-177492512D01*
X227962474Y-177364435D01*
X227963219Y-176627145D01*
X228116457Y-176573726D01*
X228224916Y-176537406D01*
X228283913Y-176520468D01*
X228285614Y-176520307D01*
X228291533Y-176566349D01*
X228298039Y-176694018D01*
X228304586Y-176887632D01*
X228310627Y-177131507D01*
X228314848Y-177359675D01*
X228328161Y-178199042D01*
X228620115Y-178199042D01*
X228633513Y-177433275D01*
X228646910Y-176667508D01*
X228789238Y-176593908D01*
X228894322Y-176543366D01*
X228956517Y-176520431D01*
X228958312Y-176520307D01*
X228966873Y-176566400D01*
G37*
X228966873Y-176566400D02*
X228974299Y-176694422D01*
X228980118Y-176888985D01*
X228983859Y-177134702D01*
X228985058Y-177392426D01*
X228985058Y-178264545D01*
X228831075Y-178418528D01*
X228724963Y-178513412D01*
X228631816Y-178551845D01*
X228504504Y-178549413D01*
X228453968Y-178543223D01*
X228296017Y-178525210D01*
X228165371Y-178514888D01*
X228133525Y-178513935D01*
X228026166Y-178520171D01*
X227872619Y-178535824D01*
X227813083Y-178543223D01*
X227666857Y-178554668D01*
X227568589Y-178529808D01*
X227471150Y-178453058D01*
X227435976Y-178418528D01*
X227281993Y-178264545D01*
X227281993Y-176633246D01*
X227405930Y-176576776D01*
X227512650Y-176534950D01*
X227575087Y-176520307D01*
X227591096Y-176566583D01*
X227606058Y-176695884D01*
X227618978Y-176893914D01*
X227628857Y-177146380D01*
X227633622Y-177359675D01*
X227646935Y-178199042D01*
X227763080Y-178215464D01*
X227868716Y-178203982D01*
X227920477Y-178166805D01*
X227934945Y-178097298D01*
X227947298Y-177949240D01*
X227956552Y-177741391D01*
X227961728Y-177492512D01*
X227962474Y-177364435D01*
X227963219Y-176627145D01*
X228116457Y-176573726D01*
X228224916Y-176537406D01*
X228283913Y-176520468D01*
X228285614Y-176520307D01*
X228291533Y-176566349D01*
X228298039Y-176694018D01*
X228304586Y-176887632D01*
X228310627Y-177131507D01*
X228314848Y-177359675D01*
X228328161Y-178199042D01*
X228620115Y-178199042D01*
X228633513Y-177433275D01*
X228646910Y-176667508D01*
X228789238Y-176593908D01*
X228894322Y-176543366D01*
X228956517Y-176520431D01*
X228958312Y-176520307D01*
X228966873Y-176566400D01*
G36*
X230190678Y-176558594D02*
G01*
X230330782Y-176622323D01*
X230440750Y-176699543D01*
X230521324Y-176785887D01*
X230576954Y-176897272D01*
X230612089Y-177049616D01*
X230631179Y-177258835D01*
X230638672Y-177540846D01*
X230639464Y-177726555D01*
X230639464Y-178451046D01*
X230515527Y-178507515D01*
X230417910Y-178548787D01*
X230369550Y-178563985D01*
X230360298Y-178518762D01*
X230352958Y-178396824D01*
X230348464Y-178218772D01*
X230347510Y-178077395D01*
X230343410Y-177873146D01*
X230332354Y-177711113D01*
X230316211Y-177611891D01*
X230303387Y-177590805D01*
X230217186Y-177612338D01*
X230081862Y-177667566D01*
X229925170Y-177742436D01*
X229774863Y-177822892D01*
X229658693Y-177894880D01*
X229604413Y-177944346D01*
X229604198Y-177944881D01*
X229608867Y-178036428D01*
X229650732Y-178123820D01*
X229724235Y-178194802D01*
X229831516Y-178218543D01*
X229923202Y-178215777D01*
X230053058Y-178213741D01*
X230121221Y-178244164D01*
X230162159Y-178324543D01*
X230167321Y-178339700D01*
X230185067Y-178454331D01*
X230137609Y-178523934D01*
X230013907Y-178557105D01*
X229880281Y-178563240D01*
X229639817Y-178517763D01*
X229515338Y-178452817D01*
X229361605Y-178300246D01*
X229280073Y-178112971D01*
X229272756Y-177915085D01*
X229341669Y-177730685D01*
X229445328Y-177615134D01*
X229548823Y-177550442D01*
X229711492Y-177468542D01*
X229901054Y-177385486D01*
X229932650Y-177372795D01*
X230140869Y-177280908D01*
X230260898Y-177199923D01*
X230299501Y-177119413D01*
X230263440Y-177028950D01*
X230201533Y-176958238D01*
X230055213Y-176871170D01*
X229894217Y-176864640D01*
X229746573Y-176931735D01*
X229640310Y-177065544D01*
X229626362Y-177100067D01*
X229545160Y-177227042D01*
X229426608Y-177321309D01*
X229277012Y-177398668D01*
X229277012Y-177179307D01*
X229285817Y-177045280D01*
X229323570Y-176939644D01*
X229407279Y-176826939D01*
X229487636Y-176740127D01*
X229612591Y-176617204D01*
X229709677Y-176551171D01*
X229813954Y-176524684D01*
X229931989Y-176520307D01*
X230190678Y-176558594D01*
G37*
X230190678Y-176558594D02*
X230330782Y-176622323D01*
X230440750Y-176699543D01*
X230521324Y-176785887D01*
X230576954Y-176897272D01*
X230612089Y-177049616D01*
X230631179Y-177258835D01*
X230638672Y-177540846D01*
X230639464Y-177726555D01*
X230639464Y-178451046D01*
X230515527Y-178507515D01*
X230417910Y-178548787D01*
X230369550Y-178563985D01*
X230360298Y-178518762D01*
X230352958Y-178396824D01*
X230348464Y-178218772D01*
X230347510Y-178077395D01*
X230343410Y-177873146D01*
X230332354Y-177711113D01*
X230316211Y-177611891D01*
X230303387Y-177590805D01*
X230217186Y-177612338D01*
X230081862Y-177667566D01*
X229925170Y-177742436D01*
X229774863Y-177822892D01*
X229658693Y-177894880D01*
X229604413Y-177944346D01*
X229604198Y-177944881D01*
X229608867Y-178036428D01*
X229650732Y-178123820D01*
X229724235Y-178194802D01*
X229831516Y-178218543D01*
X229923202Y-178215777D01*
X230053058Y-178213741D01*
X230121221Y-178244164D01*
X230162159Y-178324543D01*
X230167321Y-178339700D01*
X230185067Y-178454331D01*
X230137609Y-178523934D01*
X230013907Y-178557105D01*
X229880281Y-178563240D01*
X229639817Y-178517763D01*
X229515338Y-178452817D01*
X229361605Y-178300246D01*
X229280073Y-178112971D01*
X229272756Y-177915085D01*
X229341669Y-177730685D01*
X229445328Y-177615134D01*
X229548823Y-177550442D01*
X229711492Y-177468542D01*
X229901054Y-177385486D01*
X229932650Y-177372795D01*
X230140869Y-177280908D01*
X230260898Y-177199923D01*
X230299501Y-177119413D01*
X230263440Y-177028950D01*
X230201533Y-176958238D01*
X230055213Y-176871170D01*
X229894217Y-176864640D01*
X229746573Y-176931735D01*
X229640310Y-177065544D01*
X229626362Y-177100067D01*
X229545160Y-177227042D01*
X229426608Y-177321309D01*
X229277012Y-177398668D01*
X229277012Y-177179307D01*
X229285817Y-177045280D01*
X229323570Y-176939644D01*
X229407279Y-176826939D01*
X229487636Y-176740127D01*
X229612591Y-176617204D01*
X229709677Y-176551171D01*
X229813954Y-176524684D01*
X229931989Y-176520307D01*
X230190678Y-176558594D01*
G36*
X231892816Y-176566697D02*
G01*
X231950976Y-176592116D01*
X232089795Y-176702059D01*
X232208505Y-176861030D01*
X232281921Y-177030677D01*
X232293870Y-177114313D01*
X232253809Y-177231078D01*
X232165935Y-177292862D01*
X232071718Y-177330273D01*
X232028577Y-177337167D01*
X232007571Y-177287138D01*
X231966090Y-177178269D01*
X231947892Y-177129076D01*
X231845848Y-176958913D01*
X231698103Y-176874038D01*
X231508655Y-176876648D01*
X231494623Y-176879991D01*
X231393481Y-176927945D01*
X231319124Y-177021432D01*
X231268338Y-177171939D01*
X231237908Y-177390951D01*
X231224618Y-177689956D01*
X231223372Y-177849056D01*
X231222754Y-178099855D01*
X231218705Y-178270825D01*
X231207933Y-178379454D01*
X231187147Y-178443230D01*
X231153055Y-178479643D01*
X231102365Y-178506179D01*
X231099435Y-178507515D01*
X231001818Y-178548787D01*
X230953458Y-178563985D01*
X230946027Y-178518037D01*
X230939666Y-178391034D01*
X230934832Y-178199235D01*
X230931985Y-177958902D01*
X230931418Y-177783024D01*
X230934313Y-177442688D01*
X230945637Y-177184495D01*
X230969346Y-176993374D01*
X231009397Y-176854253D01*
X231069747Y-176752060D01*
X231154353Y-176671724D01*
X231237899Y-176615655D01*
X231438791Y-176541032D01*
X231672596Y-176524202D01*
X231892816Y-176566697D01*
G37*
X231892816Y-176566697D02*
X231950976Y-176592116D01*
X232089795Y-176702059D01*
X232208505Y-176861030D01*
X232281921Y-177030677D01*
X232293870Y-177114313D01*
X232253809Y-177231078D01*
X232165935Y-177292862D01*
X232071718Y-177330273D01*
X232028577Y-177337167D01*
X232007571Y-177287138D01*
X231966090Y-177178269D01*
X231947892Y-177129076D01*
X231845848Y-176958913D01*
X231698103Y-176874038D01*
X231508655Y-176876648D01*
X231494623Y-176879991D01*
X231393481Y-176927945D01*
X231319124Y-177021432D01*
X231268338Y-177171939D01*
X231237908Y-177390951D01*
X231224618Y-177689956D01*
X231223372Y-177849056D01*
X231222754Y-178099855D01*
X231218705Y-178270825D01*
X231207933Y-178379454D01*
X231187147Y-178443230D01*
X231153055Y-178479643D01*
X231102365Y-178506179D01*
X231099435Y-178507515D01*
X231001818Y-178548787D01*
X230953458Y-178563985D01*
X230946027Y-178518037D01*
X230939666Y-178391034D01*
X230934832Y-178199235D01*
X230931985Y-177958902D01*
X230931418Y-177783024D01*
X230934313Y-177442688D01*
X230945637Y-177184495D01*
X230969346Y-176993374D01*
X231009397Y-176854253D01*
X231069747Y-176752060D01*
X231154353Y-176671724D01*
X231237899Y-176615655D01*
X231438791Y-176541032D01*
X231672596Y-176524202D01*
X231892816Y-176566697D01*
G36*
X233572399Y-176594233D02*
G01*
X233764917Y-176720057D01*
X233857774Y-176832696D01*
X233931340Y-177037092D01*
X233937183Y-177198830D01*
X233923947Y-177415094D01*
X233425192Y-177633398D01*
X233182685Y-177744930D01*
X233024229Y-177834650D01*
X232941836Y-177912361D01*
X232927518Y-177987867D01*
X232973287Y-178070971D01*
X233023755Y-178126054D01*
X233170605Y-178214389D01*
X233330328Y-178220579D01*
X233477020Y-178151735D01*
X233584781Y-178014972D01*
X233604055Y-177966680D01*
X233696376Y-177815848D01*
X233802588Y-177751567D01*
X233948276Y-177696576D01*
X233948276Y-177905057D01*
X233935396Y-178046926D01*
X233884943Y-178166563D01*
X233779197Y-178303927D01*
X233763480Y-178321777D01*
X233645855Y-178443986D01*
X233544746Y-178509570D01*
X233418250Y-178539742D01*
X233313384Y-178549623D01*
X233125811Y-178552085D01*
X232992284Y-178520892D01*
X232908983Y-178474579D01*
X232778063Y-178372735D01*
X232687439Y-178262591D01*
X232630087Y-178124069D01*
X232598980Y-177937090D01*
X232587094Y-177681577D01*
X232586145Y-177551894D01*
X232589371Y-177396421D01*
X232883166Y-177396421D01*
X232886573Y-177479827D01*
X232895066Y-177493487D01*
X232951110Y-177474931D01*
X233071718Y-177425822D01*
X233232913Y-177356002D01*
X233266622Y-177340995D01*
X233470339Y-177237404D01*
X233582579Y-177146359D01*
X233607247Y-177061081D01*
X233548245Y-176974794D01*
X233499518Y-176936667D01*
X233323694Y-176860417D01*
X233159127Y-176873014D01*
X233021354Y-176966086D01*
X232925913Y-177131256D01*
X232895314Y-177262357D01*
X232883166Y-177396421D01*
X232589371Y-177396421D01*
X232592432Y-177248919D01*
X232615599Y-177024756D01*
X232661490Y-176861526D01*
X232735954Y-176741352D01*
X232844836Y-176646355D01*
X232892305Y-176615655D01*
X233107938Y-176535703D01*
X233344021Y-176530672D01*
X233572399Y-176594233D01*
G37*
X233572399Y-176594233D02*
X233764917Y-176720057D01*
X233857774Y-176832696D01*
X233931340Y-177037092D01*
X233937183Y-177198830D01*
X233923947Y-177415094D01*
X233425192Y-177633398D01*
X233182685Y-177744930D01*
X233024229Y-177834650D01*
X232941836Y-177912361D01*
X232927518Y-177987867D01*
X232973287Y-178070971D01*
X233023755Y-178126054D01*
X233170605Y-178214389D01*
X233330328Y-178220579D01*
X233477020Y-178151735D01*
X233584781Y-178014972D01*
X233604055Y-177966680D01*
X233696376Y-177815848D01*
X233802588Y-177751567D01*
X233948276Y-177696576D01*
X233948276Y-177905057D01*
X233935396Y-178046926D01*
X233884943Y-178166563D01*
X233779197Y-178303927D01*
X233763480Y-178321777D01*
X233645855Y-178443986D01*
X233544746Y-178509570D01*
X233418250Y-178539742D01*
X233313384Y-178549623D01*
X233125811Y-178552085D01*
X232992284Y-178520892D01*
X232908983Y-178474579D01*
X232778063Y-178372735D01*
X232687439Y-178262591D01*
X232630087Y-178124069D01*
X232598980Y-177937090D01*
X232587094Y-177681577D01*
X232586145Y-177551894D01*
X232589371Y-177396421D01*
X232883166Y-177396421D01*
X232886573Y-177479827D01*
X232895066Y-177493487D01*
X232951110Y-177474931D01*
X233071718Y-177425822D01*
X233232913Y-177356002D01*
X233266622Y-177340995D01*
X233470339Y-177237404D01*
X233582579Y-177146359D01*
X233607247Y-177061081D01*
X233548245Y-176974794D01*
X233499518Y-176936667D01*
X233323694Y-176860417D01*
X233159127Y-176873014D01*
X233021354Y-176966086D01*
X232925913Y-177131256D01*
X232895314Y-177262357D01*
X232883166Y-177396421D01*
X232589371Y-177396421D01*
X232592432Y-177248919D01*
X232615599Y-177024756D01*
X232661490Y-176861526D01*
X232735954Y-176741352D01*
X232844836Y-176646355D01*
X232892305Y-176615655D01*
X233107938Y-176535703D01*
X233344021Y-176530672D01*
X233572399Y-176594233D01*
G36*
X223348357Y-160754997D02*
G01*
X223611677Y-160756439D01*
X223802246Y-160760342D01*
X223932345Y-160767937D01*
X224014257Y-160780450D01*
X224060266Y-160799111D01*
X224082653Y-160825148D01*
X224093702Y-160859788D01*
X224094776Y-160864272D01*
X224111559Y-160945189D01*
X224142625Y-161104842D01*
X224184742Y-161326238D01*
X224234679Y-161592385D01*
X224289203Y-161886290D01*
X224291107Y-161896612D01*
X224345723Y-162184636D01*
X224396822Y-162439115D01*
X224441106Y-162644785D01*
X224475279Y-162786385D01*
X224496043Y-162848650D01*
X224497033Y-162849753D01*
X224558199Y-162880159D01*
X224684310Y-162930828D01*
X224848131Y-162990822D01*
X224849043Y-162991142D01*
X225055388Y-163068704D01*
X225298660Y-163167507D01*
X225527969Y-163266848D01*
X225538822Y-163271760D01*
X225912317Y-163441276D01*
X226739365Y-162876495D01*
X226993077Y-162704320D01*
X227222902Y-162550395D01*
X227415525Y-162423474D01*
X227557632Y-162332309D01*
X227635907Y-162285655D01*
X227643340Y-162282195D01*
X227700224Y-162297600D01*
X227806469Y-162371927D01*
X227966219Y-162508681D01*
X228183616Y-162711368D01*
X228405548Y-162927008D01*
X228619491Y-163139503D01*
X228810969Y-163333410D01*
X228968455Y-163496754D01*
X229080422Y-163617561D01*
X229135343Y-163683855D01*
X229137386Y-163687268D01*
X229143458Y-163732761D01*
X229120584Y-163807056D01*
X229063115Y-163920186D01*
X228965399Y-164082185D01*
X228821784Y-164303086D01*
X228630333Y-164587460D01*
X228460423Y-164837759D01*
X228308538Y-165062250D01*
X228183455Y-165247900D01*
X228093949Y-165381675D01*
X228048800Y-165450542D01*
X228045958Y-165455218D01*
X228051470Y-165521201D01*
X228093255Y-165649448D01*
X228162997Y-165815720D01*
X228187854Y-165868819D01*
X228296311Y-166105377D01*
X228412020Y-166373789D01*
X228506015Y-166606035D01*
X228573745Y-166778407D01*
X228627543Y-166909403D01*
X228658631Y-166977867D01*
X228662496Y-166983142D01*
X228719671Y-166991880D01*
X228854448Y-167015823D01*
X229048906Y-167051562D01*
X229285125Y-167095689D01*
X229545184Y-167144795D01*
X229811163Y-167195472D01*
X230065143Y-167244313D01*
X230289201Y-167287909D01*
X230465420Y-167322851D01*
X230575877Y-167345732D01*
X230602970Y-167352201D01*
X230630956Y-167368167D01*
X230652081Y-167404227D01*
X230667297Y-167472552D01*
X230677553Y-167585315D01*
X230683800Y-167754686D01*
X230686988Y-167992838D01*
X230688067Y-168311942D01*
X230688123Y-168442741D01*
X230688123Y-169506511D01*
X230432663Y-169556933D01*
X230290537Y-169584273D01*
X230078450Y-169624182D01*
X229822193Y-169671845D01*
X229547558Y-169722446D01*
X229471648Y-169736344D01*
X229218221Y-169785617D01*
X228997447Y-169834070D01*
X228827857Y-169877215D01*
X228727980Y-169910563D01*
X228711343Y-169920502D01*
X228670489Y-169990891D01*
X228611913Y-170127283D01*
X228546955Y-170302805D01*
X228534071Y-170340613D01*
X228448934Y-170575030D01*
X228343256Y-170839524D01*
X228239840Y-171077041D01*
X228239330Y-171078144D01*
X228067112Y-171450733D01*
X228633524Y-172283893D01*
X229199935Y-173117053D01*
X228472702Y-173845500D01*
X228252748Y-174062302D01*
X228052132Y-174253414D01*
X227882122Y-174408636D01*
X227753985Y-174517764D01*
X227678989Y-174570595D01*
X227668231Y-174573947D01*
X227605067Y-174547549D01*
X227476180Y-174474160D01*
X227295649Y-174362484D01*
X227077554Y-174221224D01*
X226841754Y-174063027D01*
X226602436Y-173901664D01*
X226389059Y-173761252D01*
X226215175Y-173650431D01*
X226094334Y-173577838D01*
X226040263Y-173552108D01*
X225974294Y-173573880D01*
X225849198Y-173631251D01*
X225690780Y-173712300D01*
X225673987Y-173721309D01*
X225460652Y-173828300D01*
X225314364Y-173880772D01*
X225223380Y-173881330D01*
X225175959Y-173832580D01*
X225175683Y-173831897D01*
X225151980Y-173774164D01*
X225095449Y-173637115D01*
X225010474Y-173431357D01*
X224901438Y-173167498D01*
X224772724Y-172856144D01*
X224628715Y-172507904D01*
X224489251Y-172170744D01*
X224335980Y-171798666D01*
X224195251Y-171453987D01*
X224071282Y-171147271D01*
X223968291Y-170889085D01*
X223890496Y-170689994D01*
X223842114Y-170560565D01*
X223827204Y-170512261D01*
X223864594Y-170456850D01*
X223962398Y-170368538D01*
X224092815Y-170271174D01*
X224464223Y-169963253D01*
X224754530Y-169610304D01*
X224960256Y-169219761D01*
X225077923Y-168799057D01*
X225104051Y-168355629D01*
X225085060Y-168150958D01*
X224981583Y-167726323D01*
X224803373Y-167351336D01*
X224561482Y-167029696D01*
X224266963Y-166765101D01*
X223930871Y-166561250D01*
X223564258Y-166421842D01*
X223178177Y-166350574D01*
X222783681Y-166351145D01*
X222391825Y-166427254D01*
X222013660Y-166582599D01*
X221660240Y-166820879D01*
X221512727Y-166955639D01*
X221229816Y-167301679D01*
X221032832Y-167679826D01*
X220920464Y-168079055D01*
X220891401Y-168488345D01*
X220944331Y-168896672D01*
X221077943Y-169293013D01*
X221290925Y-169666345D01*
X221581966Y-170005645D01*
X221907186Y-170271174D01*
X222042652Y-170372671D01*
X222138349Y-170460025D01*
X222172797Y-170512343D01*
X222154760Y-170569398D01*
X222103462Y-170705698D01*
X222023124Y-170910678D01*
X221917964Y-171173772D01*
X221792204Y-171484416D01*
X221650063Y-171832043D01*
X221510365Y-172170826D01*
X221356241Y-172543222D01*
X221213482Y-172888307D01*
X221086471Y-173195477D01*
X220979589Y-173454125D01*
X220897220Y-173653647D01*
X220843747Y-173783435D01*
X220823933Y-173831897D01*
X220777124Y-173881129D01*
X220686583Y-173880985D01*
X220540658Y-173828877D01*
X220327698Y-173722216D01*
X220326014Y-173721309D01*
X220165670Y-173638536D01*
X220036052Y-173578242D01*
X219962963Y-173552346D01*
X219959737Y-173552108D01*
X219904716Y-173578374D01*
X219783243Y-173651416D01*
X219608871Y-173762595D01*
X219395150Y-173903273D01*
X219158247Y-174063027D01*
X218917055Y-174224779D01*
X218699674Y-174365450D01*
X218520184Y-174476335D01*
X218392664Y-174548730D01*
X218331770Y-174573947D01*
X218275697Y-174540803D01*
X218162960Y-174448173D01*
X218004823Y-174306257D01*
X217812551Y-174125255D01*
X217597409Y-173915369D01*
X217527048Y-173845249D01*
X216799566Y-173116552D01*
X217353295Y-172303900D01*
X217521577Y-172054342D01*
X217669271Y-171830366D01*
X217788090Y-171644949D01*
X217869750Y-171511065D01*
X217905964Y-171441690D01*
X217907025Y-171436755D01*
X217887933Y-171371364D01*
X217836582Y-171239825D01*
X217761860Y-171064181D01*
X217709412Y-170946591D01*
X217611346Y-170721461D01*
X217518993Y-170494015D01*
X217447394Y-170301839D01*
X217427944Y-170243295D01*
X217372686Y-170086956D01*
X217318669Y-169966158D01*
X217288999Y-169920502D01*
X217223524Y-169892561D01*
X217080624Y-169852951D01*
X216878839Y-169806162D01*
X216636712Y-169756683D01*
X216528353Y-169736344D01*
X216253189Y-169685781D01*
X215989254Y-169636822D01*
X215762341Y-169594281D01*
X215598239Y-169562975D01*
X215567338Y-169556933D01*
X215311878Y-169506511D01*
X215311878Y-168442741D01*
X215312452Y-168092950D01*
X215314807Y-167828300D01*
X215319893Y-167636622D01*
X215328661Y-167505744D01*
X215342062Y-167423493D01*
X215361046Y-167377698D01*
X215386562Y-167356188D01*
X215397031Y-167352201D01*
X215460174Y-167338056D01*
X215599675Y-167309834D01*
X215797611Y-167270943D01*
X216036065Y-167224792D01*
X216297114Y-167174788D01*
X216562839Y-167124341D01*
X216815319Y-167076858D01*
X217036635Y-167035748D01*
X217208866Y-167004419D01*
X217314092Y-166986278D01*
X217337505Y-166983142D01*
X217358716Y-166941173D01*
X217405668Y-166829370D01*
X217469581Y-166668888D01*
X217493986Y-166606035D01*
X217592420Y-166363203D01*
X217708334Y-166094918D01*
X217812147Y-165868819D01*
X217888535Y-165695935D01*
X217939356Y-165553877D01*
X217956321Y-165466878D01*
X217953616Y-165455218D01*
X217917761Y-165400170D01*
X217835892Y-165277739D01*
X217716795Y-165100962D01*
X217569258Y-164882877D01*
X217402069Y-164636520D01*
X217369010Y-164587891D01*
X217175020Y-164299773D01*
X217032421Y-164080377D01*
X216935527Y-163919602D01*
X216878654Y-163807346D01*
X216856116Y-163733510D01*
X216862228Y-163687990D01*
X216862384Y-163687700D01*
X216910489Y-163627910D01*
X217016889Y-163512319D01*
X217170052Y-163352909D01*
X217358445Y-163161665D01*
X217570535Y-162950568D01*
X217594453Y-162927008D01*
X217861738Y-162668172D01*
X218068008Y-162478117D01*
X218217408Y-162353337D01*
X218314080Y-162290327D01*
X218356661Y-162282195D01*
X218418804Y-162317672D01*
X218547763Y-162399623D01*
X218730222Y-162519292D01*
X218952867Y-162667926D01*
X219202384Y-162836772D01*
X219260636Y-162876495D01*
X220087684Y-163441276D01*
X220461179Y-163271760D01*
X220688316Y-163172971D01*
X220932128Y-163073617D01*
X221141725Y-162994401D01*
X221150958Y-162991142D01*
X221314905Y-162931129D01*
X221441285Y-162880382D01*
X221502863Y-162849841D01*
X221502968Y-162849753D01*
X221522507Y-162794548D01*
X221555721Y-162658779D01*
X221599313Y-162457709D01*
X221649984Y-162206599D01*
X221704439Y-161920713D01*
X221708894Y-161896612D01*
X221763518Y-161602059D01*
X221813664Y-161334684D01*
X221856102Y-161111480D01*
X221887598Y-160949439D01*
X221904923Y-160865553D01*
X221905225Y-160864272D01*
X221915768Y-160828588D01*
X221936269Y-160801646D01*
X221979011Y-160782218D01*
X222056276Y-160769075D01*
X222180348Y-160760989D01*
X222363509Y-160756732D01*
X222618042Y-160755075D01*
X222956231Y-160754790D01*
X223000000Y-160754790D01*
X223348357Y-160754997D01*
G37*
X223348357Y-160754997D02*
X223611677Y-160756439D01*
X223802246Y-160760342D01*
X223932345Y-160767937D01*
X224014257Y-160780450D01*
X224060266Y-160799111D01*
X224082653Y-160825148D01*
X224093702Y-160859788D01*
X224094776Y-160864272D01*
X224111559Y-160945189D01*
X224142625Y-161104842D01*
X224184742Y-161326238D01*
X224234679Y-161592385D01*
X224289203Y-161886290D01*
X224291107Y-161896612D01*
X224345723Y-162184636D01*
X224396822Y-162439115D01*
X224441106Y-162644785D01*
X224475279Y-162786385D01*
X224496043Y-162848650D01*
X224497033Y-162849753D01*
X224558199Y-162880159D01*
X224684310Y-162930828D01*
X224848131Y-162990822D01*
X224849043Y-162991142D01*
X225055388Y-163068704D01*
X225298660Y-163167507D01*
X225527969Y-163266848D01*
X225538822Y-163271760D01*
X225912317Y-163441276D01*
X226739365Y-162876495D01*
X226993077Y-162704320D01*
X227222902Y-162550395D01*
X227415525Y-162423474D01*
X227557632Y-162332309D01*
X227635907Y-162285655D01*
X227643340Y-162282195D01*
X227700224Y-162297600D01*
X227806469Y-162371927D01*
X227966219Y-162508681D01*
X228183616Y-162711368D01*
X228405548Y-162927008D01*
X228619491Y-163139503D01*
X228810969Y-163333410D01*
X228968455Y-163496754D01*
X229080422Y-163617561D01*
X229135343Y-163683855D01*
X229137386Y-163687268D01*
X229143458Y-163732761D01*
X229120584Y-163807056D01*
X229063115Y-163920186D01*
X228965399Y-164082185D01*
X228821784Y-164303086D01*
X228630333Y-164587460D01*
X228460423Y-164837759D01*
X228308538Y-165062250D01*
X228183455Y-165247900D01*
X228093949Y-165381675D01*
X228048800Y-165450542D01*
X228045958Y-165455218D01*
X228051470Y-165521201D01*
X228093255Y-165649448D01*
X228162997Y-165815720D01*
X228187854Y-165868819D01*
X228296311Y-166105377D01*
X228412020Y-166373789D01*
X228506015Y-166606035D01*
X228573745Y-166778407D01*
X228627543Y-166909403D01*
X228658631Y-166977867D01*
X228662496Y-166983142D01*
X228719671Y-166991880D01*
X228854448Y-167015823D01*
X229048906Y-167051562D01*
X229285125Y-167095689D01*
X229545184Y-167144795D01*
X229811163Y-167195472D01*
X230065143Y-167244313D01*
X230289201Y-167287909D01*
X230465420Y-167322851D01*
X230575877Y-167345732D01*
X230602970Y-167352201D01*
X230630956Y-167368167D01*
X230652081Y-167404227D01*
X230667297Y-167472552D01*
X230677553Y-167585315D01*
X230683800Y-167754686D01*
X230686988Y-167992838D01*
X230688067Y-168311942D01*
X230688123Y-168442741D01*
X230688123Y-169506511D01*
X230432663Y-169556933D01*
X230290537Y-169584273D01*
X230078450Y-169624182D01*
X229822193Y-169671845D01*
X229547558Y-169722446D01*
X229471648Y-169736344D01*
X229218221Y-169785617D01*
X228997447Y-169834070D01*
X228827857Y-169877215D01*
X228727980Y-169910563D01*
X228711343Y-169920502D01*
X228670489Y-169990891D01*
X228611913Y-170127283D01*
X228546955Y-170302805D01*
X228534071Y-170340613D01*
X228448934Y-170575030D01*
X228343256Y-170839524D01*
X228239840Y-171077041D01*
X228239330Y-171078144D01*
X228067112Y-171450733D01*
X228633524Y-172283893D01*
X229199935Y-173117053D01*
X228472702Y-173845500D01*
X228252748Y-174062302D01*
X228052132Y-174253414D01*
X227882122Y-174408636D01*
X227753985Y-174517764D01*
X227678989Y-174570595D01*
X227668231Y-174573947D01*
X227605067Y-174547549D01*
X227476180Y-174474160D01*
X227295649Y-174362484D01*
X227077554Y-174221224D01*
X226841754Y-174063027D01*
X226602436Y-173901664D01*
X226389059Y-173761252D01*
X226215175Y-173650431D01*
X226094334Y-173577838D01*
X226040263Y-173552108D01*
X225974294Y-173573880D01*
X225849198Y-173631251D01*
X225690780Y-173712300D01*
X225673987Y-173721309D01*
X225460652Y-173828300D01*
X225314364Y-173880772D01*
X225223380Y-173881330D01*
X225175959Y-173832580D01*
X225175683Y-173831897D01*
X225151980Y-173774164D01*
X225095449Y-173637115D01*
X225010474Y-173431357D01*
X224901438Y-173167498D01*
X224772724Y-172856144D01*
X224628715Y-172507904D01*
X224489251Y-172170744D01*
X224335980Y-171798666D01*
X224195251Y-171453987D01*
X224071282Y-171147271D01*
X223968291Y-170889085D01*
X223890496Y-170689994D01*
X223842114Y-170560565D01*
X223827204Y-170512261D01*
X223864594Y-170456850D01*
X223962398Y-170368538D01*
X224092815Y-170271174D01*
X224464223Y-169963253D01*
X224754530Y-169610304D01*
X224960256Y-169219761D01*
X225077923Y-168799057D01*
X225104051Y-168355629D01*
X225085060Y-168150958D01*
X224981583Y-167726323D01*
X224803373Y-167351336D01*
X224561482Y-167029696D01*
X224266963Y-166765101D01*
X223930871Y-166561250D01*
X223564258Y-166421842D01*
X223178177Y-166350574D01*
X222783681Y-166351145D01*
X222391825Y-166427254D01*
X222013660Y-166582599D01*
X221660240Y-166820879D01*
X221512727Y-166955639D01*
X221229816Y-167301679D01*
X221032832Y-167679826D01*
X220920464Y-168079055D01*
X220891401Y-168488345D01*
X220944331Y-168896672D01*
X221077943Y-169293013D01*
X221290925Y-169666345D01*
X221581966Y-170005645D01*
X221907186Y-170271174D01*
X222042652Y-170372671D01*
X222138349Y-170460025D01*
X222172797Y-170512343D01*
X222154760Y-170569398D01*
X222103462Y-170705698D01*
X222023124Y-170910678D01*
X221917964Y-171173772D01*
X221792204Y-171484416D01*
X221650063Y-171832043D01*
X221510365Y-172170826D01*
X221356241Y-172543222D01*
X221213482Y-172888307D01*
X221086471Y-173195477D01*
X220979589Y-173454125D01*
X220897220Y-173653647D01*
X220843747Y-173783435D01*
X220823933Y-173831897D01*
X220777124Y-173881129D01*
X220686583Y-173880985D01*
X220540658Y-173828877D01*
X220327698Y-173722216D01*
X220326014Y-173721309D01*
X220165670Y-173638536D01*
X220036052Y-173578242D01*
X219962963Y-173552346D01*
X219959737Y-173552108D01*
X219904716Y-173578374D01*
X219783243Y-173651416D01*
X219608871Y-173762595D01*
X219395150Y-173903273D01*
X219158247Y-174063027D01*
X218917055Y-174224779D01*
X218699674Y-174365450D01*
X218520184Y-174476335D01*
X218392664Y-174548730D01*
X218331770Y-174573947D01*
X218275697Y-174540803D01*
X218162960Y-174448173D01*
X218004823Y-174306257D01*
X217812551Y-174125255D01*
X217597409Y-173915369D01*
X217527048Y-173845249D01*
X216799566Y-173116552D01*
X217353295Y-172303900D01*
X217521577Y-172054342D01*
X217669271Y-171830366D01*
X217788090Y-171644949D01*
X217869750Y-171511065D01*
X217905964Y-171441690D01*
X217907025Y-171436755D01*
X217887933Y-171371364D01*
X217836582Y-171239825D01*
X217761860Y-171064181D01*
X217709412Y-170946591D01*
X217611346Y-170721461D01*
X217518993Y-170494015D01*
X217447394Y-170301839D01*
X217427944Y-170243295D01*
X217372686Y-170086956D01*
X217318669Y-169966158D01*
X217288999Y-169920502D01*
X217223524Y-169892561D01*
X217080624Y-169852951D01*
X216878839Y-169806162D01*
X216636712Y-169756683D01*
X216528353Y-169736344D01*
X216253189Y-169685781D01*
X215989254Y-169636822D01*
X215762341Y-169594281D01*
X215598239Y-169562975D01*
X215567338Y-169556933D01*
X215311878Y-169506511D01*
X215311878Y-168442741D01*
X215312452Y-168092950D01*
X215314807Y-167828300D01*
X215319893Y-167636622D01*
X215328661Y-167505744D01*
X215342062Y-167423493D01*
X215361046Y-167377698D01*
X215386562Y-167356188D01*
X215397031Y-167352201D01*
X215460174Y-167338056D01*
X215599675Y-167309834D01*
X215797611Y-167270943D01*
X216036065Y-167224792D01*
X216297114Y-167174788D01*
X216562839Y-167124341D01*
X216815319Y-167076858D01*
X217036635Y-167035748D01*
X217208866Y-167004419D01*
X217314092Y-166986278D01*
X217337505Y-166983142D01*
X217358716Y-166941173D01*
X217405668Y-166829370D01*
X217469581Y-166668888D01*
X217493986Y-166606035D01*
X217592420Y-166363203D01*
X217708334Y-166094918D01*
X217812147Y-165868819D01*
X217888535Y-165695935D01*
X217939356Y-165553877D01*
X217956321Y-165466878D01*
X217953616Y-165455218D01*
X217917761Y-165400170D01*
X217835892Y-165277739D01*
X217716795Y-165100962D01*
X217569258Y-164882877D01*
X217402069Y-164636520D01*
X217369010Y-164587891D01*
X217175020Y-164299773D01*
X217032421Y-164080377D01*
X216935527Y-163919602D01*
X216878654Y-163807346D01*
X216856116Y-163733510D01*
X216862228Y-163687990D01*
X216862384Y-163687700D01*
X216910489Y-163627910D01*
X217016889Y-163512319D01*
X217170052Y-163352909D01*
X217358445Y-163161665D01*
X217570535Y-162950568D01*
X217594453Y-162927008D01*
X217861738Y-162668172D01*
X218068008Y-162478117D01*
X218217408Y-162353337D01*
X218314080Y-162290327D01*
X218356661Y-162282195D01*
X218418804Y-162317672D01*
X218547763Y-162399623D01*
X218730222Y-162519292D01*
X218952867Y-162667926D01*
X219202384Y-162836772D01*
X219260636Y-162876495D01*
X220087684Y-163441276D01*
X220461179Y-163271760D01*
X220688316Y-163172971D01*
X220932128Y-163073617D01*
X221141725Y-162994401D01*
X221150958Y-162991142D01*
X221314905Y-162931129D01*
X221441285Y-162880382D01*
X221502863Y-162849841D01*
X221502968Y-162849753D01*
X221522507Y-162794548D01*
X221555721Y-162658779D01*
X221599313Y-162457709D01*
X221649984Y-162206599D01*
X221704439Y-161920713D01*
X221708894Y-161896612D01*
X221763518Y-161602059D01*
X221813664Y-161334684D01*
X221856102Y-161111480D01*
X221887598Y-160949439D01*
X221904923Y-160865553D01*
X221905225Y-160864272D01*
X221915768Y-160828588D01*
X221936269Y-160801646D01*
X221979011Y-160782218D01*
X222056276Y-160769075D01*
X222180348Y-160760989D01*
X222363509Y-160756732D01*
X222618042Y-160755075D01*
X222956231Y-160754790D01*
X223000000Y-160754790D01*
X223348357Y-160754997D01*
%TD*%
M02*
