%TF.GenerationSoftware,KiCad,Pcbnew,(5.1.9-0-10_14)*%
%TF.CreationDate,2022-08-21T20:49:42-04:00*%
%TF.ProjectId,47AhFoMoCo,34374168-466f-44d6-9f43-6f2e6b696361,rev?*%
%TF.SameCoordinates,Original*%
%TF.FileFunction,Copper,L1,Top*%
%TF.FilePolarity,Positive*%
%FSLAX46Y46*%
G04 Gerber Fmt 4.6, Leading zero omitted, Abs format (unit mm)*
G04 Created by KiCad (PCBNEW (5.1.9-0-10_14)) date 2022-08-21 20:49:42*
%MOMM*%
%LPD*%
G01*
G04 APERTURE LIST*
%TA.AperFunction,ComponentPad*%
%ADD10R,1.700000X1.700000*%
%TD*%
%TA.AperFunction,ComponentPad*%
%ADD11O,1.700000X1.700000*%
%TD*%
%TA.AperFunction,ComponentPad*%
%ADD12O,10.500000X8.750000*%
%TD*%
%TA.AperFunction,ComponentPad*%
%ADD13O,13.500000X8.750000*%
%TD*%
%TA.AperFunction,ViaPad*%
%ADD14C,0.800000*%
%TD*%
%TA.AperFunction,Conductor*%
%ADD15C,0.500000*%
%TD*%
G04 APERTURE END LIST*
D10*
%TO.P,J13,1*%
%TO.N,/CELL01n_CONN*%
X343790000Y-124630000D03*
D11*
%TO.P,J13,2*%
%TO.N,/CELL01p_CONN*%
X346330000Y-124630000D03*
%TO.P,J13,3*%
%TO.N,/CELL02p_CONN*%
X343790000Y-122090000D03*
%TO.P,J13,4*%
%TO.N,/CELL03p_CONN*%
X346330000Y-122090000D03*
%TO.P,J13,5*%
%TO.N,/CELL04p_CONN*%
X343790000Y-119550000D03*
%TO.P,J13,6*%
%TO.N,/CELL05p_CONN*%
X346330000Y-119550000D03*
%TO.P,J13,7*%
%TO.N,/CELL06p_CONN*%
X343790000Y-117010000D03*
%TO.P,J13,8*%
%TO.N,/CELL07p_CONN*%
X346330000Y-117010000D03*
%TO.P,J13,9*%
%TO.N,/CELL08p_CONN*%
X343790000Y-114470000D03*
%TO.P,J13,10*%
%TO.N,/CELL09p_CONN*%
X346330000Y-114470000D03*
%TO.P,J13,11*%
%TO.N,/CELL10p_CONN*%
X343790000Y-111930000D03*
%TO.P,J13,12*%
%TO.N,/CELL11p_CONN*%
X346330000Y-111930000D03*
%TO.P,J13,13*%
%TO.N,/CELL12p_CONN*%
X343790000Y-109390000D03*
%TO.P,J13,14*%
%TO.N,Net-(J13-Pad14)*%
X346330000Y-109390000D03*
%TD*%
%TO.P,J14,14*%
%TO.N,Net-(J14-Pad14)*%
X41670000Y-124630000D03*
%TO.P,J14,13*%
%TO.N,/CELL12p_CONN*%
X44210000Y-124630000D03*
%TO.P,J14,12*%
%TO.N,/CELL11p_CONN*%
X41670000Y-122090000D03*
%TO.P,J14,11*%
%TO.N,/CELL10p_CONN*%
X44210000Y-122090000D03*
%TO.P,J14,10*%
%TO.N,/CELL09p_CONN*%
X41670000Y-119550000D03*
%TO.P,J14,9*%
%TO.N,/CELL08p_CONN*%
X44210000Y-119550000D03*
%TO.P,J14,8*%
%TO.N,/CELL07p_CONN*%
X41670000Y-117010000D03*
%TO.P,J14,7*%
%TO.N,/CELL06p_CONN*%
X44210000Y-117010000D03*
%TO.P,J14,6*%
%TO.N,/CELL05p_CONN*%
X41670000Y-114470000D03*
%TO.P,J14,5*%
%TO.N,/CELL04p_CONN*%
X44210000Y-114470000D03*
%TO.P,J14,4*%
%TO.N,/CELL03p_CONN*%
X41670000Y-111930000D03*
%TO.P,J14,3*%
%TO.N,/CELL02p_CONN*%
X44210000Y-111930000D03*
%TO.P,J14,2*%
%TO.N,/CELL01p_CONN*%
X41670000Y-109390000D03*
D10*
%TO.P,J14,1*%
%TO.N,/CELL01n_CONN*%
X44210000Y-109390000D03*
%TD*%
D12*
%TO.P,J10p1,1*%
%TO.N,/CELL10p*%
X302700000Y-81900000D03*
%TD*%
%TO.P,J11p1,1*%
%TO.N,/CELL11p*%
X317700000Y-131100000D03*
%TD*%
D13*
%TO.P,J12p1,1*%
%TO.N,/CELL12p*%
X317500000Y-81900000D03*
%TD*%
%TO.P,J1n1,1*%
%TO.N,/CELL01n*%
X70500000Y-81900000D03*
%TD*%
D12*
%TO.P,J1p1,1*%
%TO.N,/CELL01p*%
X75700000Y-131100000D03*
%TD*%
%TO.P,J2p1,1*%
%TO.N,/CELL02p*%
X85700000Y-81900000D03*
%TD*%
%TO.P,J3p1,1*%
%TO.N,/CELL03p*%
X112700000Y-131100000D03*
%TD*%
%TO.P,J4p1,1*%
%TO.N,/CELL04p*%
X139700000Y-81900000D03*
%TD*%
%TO.P,J5p1,1*%
%TO.N,/CELL05p*%
X166700000Y-131100000D03*
%TD*%
%TO.P,J6p1,1*%
%TO.N,/CELL06p*%
X193700000Y-81900000D03*
%TD*%
%TO.P,J7p1,1*%
%TO.N,/CELL07p*%
X221700000Y-131100000D03*
%TD*%
%TO.P,J8p1,1*%
%TO.N,/CELL08p*%
X247700000Y-81900000D03*
%TD*%
%TO.P,J9p1,1*%
%TO.N,/CELL09p*%
X275700000Y-131100000D03*
%TD*%
D14*
%TO.N,/CELL01n_CONN*%
X72500000Y-93500000D03*
%TO.N,/CELL01p_CONN*%
X77500000Y-119500000D03*
X83250000Y-113750000D03*
%TO.N,/CELL02p_CONN*%
X87250000Y-94750000D03*
%TO.N,/CELL03p_CONN*%
X114500000Y-119500000D03*
X120000000Y-114000000D03*
%TO.N,/CELL05p_CONN*%
X168750000Y-119500000D03*
X171500000Y-116750000D03*
%TO.N,/CELL06p_CONN*%
X192000000Y-93250000D03*
X189000000Y-94500000D03*
%TO.N,/CELL08p_CONN*%
X246000000Y-93250000D03*
X241000000Y-94249998D03*
%TO.N,/CELL09p_CONN*%
X274250000Y-118250000D03*
%TO.N,/CELL10p_CONN*%
X304500000Y-99250000D03*
X304500000Y-93500000D03*
%TO.N,/CELL11p_CONN*%
X315000000Y-119500000D03*
%TO.N,/CELL12p_CONN*%
X309000000Y-99500000D03*
X315500000Y-93000000D03*
%TD*%
D15*
%TO.N,/CELL01n_CONN*%
X343500000Y-124630000D02*
X343790000Y-124630000D01*
X342870000Y-124000000D02*
X343500000Y-124630000D01*
X330000000Y-124000000D02*
X342870000Y-124000000D01*
X321500000Y-115500000D02*
X330000000Y-124000000D01*
X313000000Y-115500000D02*
X321500000Y-115500000D01*
X294750000Y-97250000D02*
X313000000Y-115500000D01*
X87250000Y-97250000D02*
X294750000Y-97250000D01*
X83500000Y-93500000D02*
X87250000Y-97250000D01*
X72500000Y-93500000D02*
X83500000Y-93500000D01*
%TO.N,/CELL01p_CONN*%
X77500000Y-119500000D02*
X83250000Y-113750000D01*
%TO.N,/CELL02p_CONN*%
X322250000Y-114250000D02*
X330090000Y-122090000D01*
X330090000Y-122090000D02*
X343790000Y-122090000D01*
X295500000Y-96000000D02*
X313750000Y-114250000D01*
X88500000Y-96000000D02*
X295500000Y-96000000D01*
X313750000Y-114250000D02*
X322250000Y-114250000D01*
X87250000Y-94750000D02*
X88500000Y-96000000D01*
%TO.N,/CELL03p_CONN*%
X114500000Y-119500000D02*
X120000000Y-114000000D01*
%TO.N,/CELL05p_CONN*%
X171500000Y-116750000D02*
X171500000Y-116750000D01*
X171500000Y-116750000D02*
X168750000Y-119500000D01*
%TO.N,/CELL06p_CONN*%
X192000000Y-93250000D02*
X190250000Y-93250000D01*
X190250000Y-93250000D02*
X189000000Y-94500000D01*
%TO.N,/CELL08p_CONN*%
X246000000Y-93250000D02*
X245000002Y-94249998D01*
X245000002Y-94249998D02*
X241000000Y-94249998D01*
%TO.N,/CELL09p_CONN*%
X54000000Y-128500000D02*
X68250000Y-114250000D01*
X37750000Y-123000000D02*
X37750000Y-126500000D01*
X39750000Y-128500000D02*
X54000000Y-128500000D01*
X41200000Y-119550000D02*
X37750000Y-123000000D01*
X37750000Y-126500000D02*
X39750000Y-128500000D01*
X41670000Y-119550000D02*
X41200000Y-119550000D01*
X68250000Y-114250000D02*
X76750000Y-114250000D01*
X274250000Y-110125000D02*
X274250000Y-118250000D01*
X263875000Y-99750000D02*
X274250000Y-110125000D01*
X91500000Y-99750000D02*
X263875000Y-99750000D01*
X77000000Y-114250000D02*
X91500000Y-99750000D01*
X76750000Y-114250000D02*
X77000000Y-114250000D01*
%TO.N,/CELL10p_CONN*%
X304500000Y-99250000D02*
X304500000Y-93500000D01*
%TO.N,/CELL11p_CONN*%
X41160000Y-122090000D02*
X41670000Y-122090000D01*
X39250000Y-124000000D02*
X41160000Y-122090000D01*
X39250000Y-126250000D02*
X39250000Y-124000000D01*
X40250000Y-127250000D02*
X39250000Y-126250000D01*
X53500000Y-127250000D02*
X40250000Y-127250000D01*
X294000000Y-98500000D02*
X91000000Y-98500000D01*
X67750000Y-113000000D02*
X53500000Y-127250000D01*
X76500000Y-113000000D02*
X67750000Y-113000000D01*
X91000000Y-98500000D02*
X76500000Y-113000000D01*
X315000000Y-119500000D02*
X294000000Y-98500000D01*
%TO.N,/CELL12p_CONN*%
X309000000Y-99500000D02*
X315500000Y-93000000D01*
%TD*%
M02*
