%TF.GenerationSoftware,KiCad,Pcbnew,(5.1.9-0-10_14)*%
%TF.CreationDate,2022-08-21T20:49:42-04:00*%
%TF.ProjectId,47AhFoMoCo,34374168-466f-44d6-9f43-6f2e6b696361,rev?*%
%TF.SameCoordinates,Original*%
%TF.FileFunction,Legend,Top*%
%TF.FilePolarity,Positive*%
%FSLAX46Y46*%
G04 Gerber Fmt 4.6, Leading zero omitted, Abs format (unit mm)*
G04 Created by KiCad (PCBNEW (5.1.9-0-10_14)) date 2022-08-21 20:49:42*
%MOMM*%
%LPD*%
G01*
G04 APERTURE LIST*
%ADD10C,0.150000*%
%ADD11C,0.300000*%
%ADD12C,0.010000*%
G04 APERTURE END LIST*
D10*
X219347500Y-137589285D02*
X219347500Y-138196428D01*
X219311785Y-138267857D01*
X219276071Y-138303571D01*
X219204642Y-138339285D01*
X219097500Y-138339285D01*
X219026071Y-138303571D01*
X219347500Y-138053571D02*
X219276071Y-138089285D01*
X219133214Y-138089285D01*
X219061785Y-138053571D01*
X219026071Y-138017857D01*
X218990357Y-137946428D01*
X218990357Y-137732142D01*
X219026071Y-137660714D01*
X219061785Y-137625000D01*
X219133214Y-137589285D01*
X219276071Y-137589285D01*
X219347500Y-137625000D01*
X219704642Y-138089285D02*
X219704642Y-137589285D01*
X219704642Y-137339285D02*
X219668928Y-137375000D01*
X219704642Y-137410714D01*
X219740357Y-137375000D01*
X219704642Y-137339285D01*
X219704642Y-137410714D01*
X219954642Y-137589285D02*
X220240357Y-137589285D01*
X220061785Y-137339285D02*
X220061785Y-137982142D01*
X220097500Y-138053571D01*
X220168928Y-138089285D01*
X220240357Y-138089285D01*
X220490357Y-138089285D02*
X220490357Y-137339285D01*
X220811785Y-138089285D02*
X220811785Y-137696428D01*
X220776071Y-137625000D01*
X220704642Y-137589285D01*
X220597500Y-137589285D01*
X220526071Y-137625000D01*
X220490357Y-137660714D01*
X221490357Y-137589285D02*
X221490357Y-138089285D01*
X221168928Y-137589285D02*
X221168928Y-137982142D01*
X221204642Y-138053571D01*
X221276071Y-138089285D01*
X221383214Y-138089285D01*
X221454642Y-138053571D01*
X221490357Y-138017857D01*
X221847500Y-138089285D02*
X221847500Y-137339285D01*
X221847500Y-137625000D02*
X221918928Y-137589285D01*
X222061785Y-137589285D01*
X222133214Y-137625000D01*
X222168928Y-137660714D01*
X222204642Y-137732142D01*
X222204642Y-137946428D01*
X222168928Y-138017857D01*
X222133214Y-138053571D01*
X222061785Y-138089285D01*
X221918928Y-138089285D01*
X221847500Y-138053571D01*
X222526071Y-138017857D02*
X222561785Y-138053571D01*
X222526071Y-138089285D01*
X222490357Y-138053571D01*
X222526071Y-138017857D01*
X222526071Y-138089285D01*
X223204642Y-138053571D02*
X223133214Y-138089285D01*
X222990357Y-138089285D01*
X222918928Y-138053571D01*
X222883214Y-138017857D01*
X222847500Y-137946428D01*
X222847500Y-137732142D01*
X222883214Y-137660714D01*
X222918928Y-137625000D01*
X222990357Y-137589285D01*
X223133214Y-137589285D01*
X223204642Y-137625000D01*
X223633214Y-138089285D02*
X223561785Y-138053571D01*
X223526071Y-138017857D01*
X223490357Y-137946428D01*
X223490357Y-137732142D01*
X223526071Y-137660714D01*
X223561785Y-137625000D01*
X223633214Y-137589285D01*
X223740357Y-137589285D01*
X223811785Y-137625000D01*
X223847500Y-137660714D01*
X223883214Y-137732142D01*
X223883214Y-137946428D01*
X223847500Y-138017857D01*
X223811785Y-138053571D01*
X223740357Y-138089285D01*
X223633214Y-138089285D01*
X224204642Y-138089285D02*
X224204642Y-137589285D01*
X224204642Y-137660714D02*
X224240357Y-137625000D01*
X224311785Y-137589285D01*
X224418928Y-137589285D01*
X224490357Y-137625000D01*
X224526071Y-137696428D01*
X224526071Y-138089285D01*
X224526071Y-137696428D02*
X224561785Y-137625000D01*
X224633214Y-137589285D01*
X224740357Y-137589285D01*
X224811785Y-137625000D01*
X224847500Y-137696428D01*
X224847500Y-138089285D01*
X225740357Y-137303571D02*
X225097500Y-138267857D01*
X226311785Y-138089285D02*
X226311785Y-137339285D01*
X226311785Y-138053571D02*
X226240357Y-138089285D01*
X226097500Y-138089285D01*
X226026071Y-138053571D01*
X225990357Y-138017857D01*
X225954642Y-137946428D01*
X225954642Y-137732142D01*
X225990357Y-137660714D01*
X226026071Y-137625000D01*
X226097500Y-137589285D01*
X226240357Y-137589285D01*
X226311785Y-137625000D01*
X226776071Y-138089285D02*
X226704642Y-138053571D01*
X226668928Y-138017857D01*
X226633214Y-137946428D01*
X226633214Y-137732142D01*
X226668928Y-137660714D01*
X226704642Y-137625000D01*
X226776071Y-137589285D01*
X226883214Y-137589285D01*
X226954642Y-137625000D01*
X226990357Y-137660714D01*
X227026071Y-137732142D01*
X227026071Y-137946428D01*
X226990357Y-138017857D01*
X226954642Y-138053571D01*
X226883214Y-138089285D01*
X226776071Y-138089285D01*
X227347500Y-137589285D02*
X227347500Y-138339285D01*
X227347500Y-137625000D02*
X227418928Y-137589285D01*
X227561785Y-137589285D01*
X227633214Y-137625000D01*
X227668928Y-137660714D01*
X227704642Y-137732142D01*
X227704642Y-137946428D01*
X227668928Y-138017857D01*
X227633214Y-138053571D01*
X227561785Y-138089285D01*
X227418928Y-138089285D01*
X227347500Y-138053571D01*
X228026071Y-137589285D02*
X228026071Y-138339285D01*
X228026071Y-137625000D02*
X228097500Y-137589285D01*
X228240357Y-137589285D01*
X228311785Y-137625000D01*
X228347500Y-137660714D01*
X228383214Y-137732142D01*
X228383214Y-137946428D01*
X228347500Y-138017857D01*
X228311785Y-138053571D01*
X228240357Y-138089285D01*
X228097500Y-138089285D01*
X228026071Y-138053571D01*
X228990357Y-138053571D02*
X228918928Y-138089285D01*
X228776071Y-138089285D01*
X228704642Y-138053571D01*
X228668928Y-137982142D01*
X228668928Y-137696428D01*
X228704642Y-137625000D01*
X228776071Y-137589285D01*
X228918928Y-137589285D01*
X228990357Y-137625000D01*
X229026071Y-137696428D01*
X229026071Y-137767857D01*
X228668928Y-137839285D01*
X229454642Y-138089285D02*
X229383214Y-138053571D01*
X229347500Y-137982142D01*
X229347500Y-137339285D01*
X229740357Y-138089285D02*
X229740357Y-137339285D01*
X230061785Y-138089285D02*
X230061785Y-137696428D01*
X230026071Y-137625000D01*
X229954642Y-137589285D01*
X229847500Y-137589285D01*
X229776071Y-137625000D01*
X229740357Y-137660714D01*
X230740357Y-137589285D02*
X230740357Y-138089285D01*
X230418928Y-137589285D02*
X230418928Y-137982142D01*
X230454642Y-138053571D01*
X230526071Y-138089285D01*
X230633214Y-138089285D01*
X230704642Y-138053571D01*
X230740357Y-138017857D01*
X231097500Y-138089285D02*
X231097500Y-137339285D01*
X231097500Y-137625000D02*
X231168928Y-137589285D01*
X231311785Y-137589285D01*
X231383214Y-137625000D01*
X231418928Y-137660714D01*
X231454642Y-137732142D01*
X231454642Y-137946428D01*
X231418928Y-138017857D01*
X231383214Y-138053571D01*
X231311785Y-138089285D01*
X231168928Y-138089285D01*
X231097500Y-138053571D01*
X232311785Y-137303571D02*
X231668928Y-138267857D01*
X232561785Y-138089285D02*
X232561785Y-137339285D01*
X232561785Y-137696428D02*
X232990357Y-137696428D01*
X232990357Y-138089285D02*
X232990357Y-137339285D01*
X233454642Y-138089285D02*
X233383214Y-138053571D01*
X233347500Y-138017857D01*
X233311785Y-137946428D01*
X233311785Y-137732142D01*
X233347500Y-137660714D01*
X233383214Y-137625000D01*
X233454642Y-137589285D01*
X233561785Y-137589285D01*
X233633214Y-137625000D01*
X233668928Y-137660714D01*
X233704642Y-137732142D01*
X233704642Y-137946428D01*
X233668928Y-138017857D01*
X233633214Y-138053571D01*
X233561785Y-138089285D01*
X233454642Y-138089285D01*
X234026071Y-137589285D02*
X234026071Y-138089285D01*
X234026071Y-137660714D02*
X234061785Y-137625000D01*
X234133214Y-137589285D01*
X234240357Y-137589285D01*
X234311785Y-137625000D01*
X234347500Y-137696428D01*
X234347500Y-138089285D01*
X235026071Y-138089285D02*
X235026071Y-137339285D01*
X235026071Y-138053571D02*
X234954642Y-138089285D01*
X234811785Y-138089285D01*
X234740357Y-138053571D01*
X234704642Y-138017857D01*
X234668928Y-137946428D01*
X234668928Y-137732142D01*
X234704642Y-137660714D01*
X234740357Y-137625000D01*
X234811785Y-137589285D01*
X234954642Y-137589285D01*
X235026071Y-137625000D01*
X235704642Y-138089285D02*
X235704642Y-137696428D01*
X235668928Y-137625000D01*
X235597500Y-137589285D01*
X235454642Y-137589285D01*
X235383214Y-137625000D01*
X235704642Y-138053571D02*
X235633214Y-138089285D01*
X235454642Y-138089285D01*
X235383214Y-138053571D01*
X235347500Y-137982142D01*
X235347500Y-137910714D01*
X235383214Y-137839285D01*
X235454642Y-137803571D01*
X235633214Y-137803571D01*
X235704642Y-137767857D01*
X235883214Y-138160714D02*
X236454642Y-138160714D01*
X236633214Y-138089285D02*
X236633214Y-137339285D01*
X236990357Y-137589285D02*
X236990357Y-138089285D01*
X236990357Y-137660714D02*
X237026071Y-137625000D01*
X237097500Y-137589285D01*
X237204642Y-137589285D01*
X237276071Y-137625000D01*
X237311785Y-137696428D01*
X237311785Y-138089285D01*
X237633214Y-138053571D02*
X237704642Y-138089285D01*
X237847500Y-138089285D01*
X237918928Y-138053571D01*
X237954642Y-137982142D01*
X237954642Y-137946428D01*
X237918928Y-137875000D01*
X237847500Y-137839285D01*
X237740357Y-137839285D01*
X237668928Y-137803571D01*
X237633214Y-137732142D01*
X237633214Y-137696428D01*
X237668928Y-137625000D01*
X237740357Y-137589285D01*
X237847500Y-137589285D01*
X237918928Y-137625000D01*
X238276071Y-138089285D02*
X238276071Y-137589285D01*
X238276071Y-137339285D02*
X238240357Y-137375000D01*
X238276071Y-137410714D01*
X238311785Y-137375000D01*
X238276071Y-137339285D01*
X238276071Y-137410714D01*
X238954642Y-137589285D02*
X238954642Y-138196428D01*
X238918928Y-138267857D01*
X238883214Y-138303571D01*
X238811785Y-138339285D01*
X238704642Y-138339285D01*
X238633214Y-138303571D01*
X238954642Y-138053571D02*
X238883214Y-138089285D01*
X238740357Y-138089285D01*
X238668928Y-138053571D01*
X238633214Y-138017857D01*
X238597500Y-137946428D01*
X238597500Y-137732142D01*
X238633214Y-137660714D01*
X238668928Y-137625000D01*
X238740357Y-137589285D01*
X238883214Y-137589285D01*
X238954642Y-137625000D01*
X239311785Y-138089285D02*
X239311785Y-137339285D01*
X239633214Y-138089285D02*
X239633214Y-137696428D01*
X239597500Y-137625000D01*
X239526071Y-137589285D01*
X239418928Y-137589285D01*
X239347500Y-137625000D01*
X239311785Y-137660714D01*
X239883214Y-137589285D02*
X240168928Y-137589285D01*
X239990357Y-137339285D02*
X239990357Y-137982142D01*
X240026071Y-138053571D01*
X240097500Y-138089285D01*
X240168928Y-138089285D01*
X240240357Y-138160714D02*
X240811785Y-138160714D01*
X241347500Y-138089285D02*
X240990357Y-138089285D01*
X240990357Y-137339285D01*
X241597500Y-138089285D02*
X241597500Y-137589285D01*
X241597500Y-137339285D02*
X241561785Y-137375000D01*
X241597500Y-137410714D01*
X241633214Y-137375000D01*
X241597500Y-137339285D01*
X241597500Y-137410714D01*
X242204642Y-137696428D02*
X242311785Y-137732142D01*
X242347500Y-137767857D01*
X242383214Y-137839285D01*
X242383214Y-137946428D01*
X242347500Y-138017857D01*
X242311785Y-138053571D01*
X242240357Y-138089285D01*
X241954642Y-138089285D01*
X241954642Y-137339285D01*
X242204642Y-137339285D01*
X242276071Y-137375000D01*
X242311785Y-137410714D01*
X242347500Y-137482142D01*
X242347500Y-137553571D01*
X242311785Y-137625000D01*
X242276071Y-137660714D01*
X242204642Y-137696428D01*
X241954642Y-137696428D01*
X243133214Y-138017857D02*
X243097500Y-138053571D01*
X242990357Y-138089285D01*
X242918928Y-138089285D01*
X242811785Y-138053571D01*
X242740357Y-137982142D01*
X242704642Y-137910714D01*
X242668928Y-137767857D01*
X242668928Y-137660714D01*
X242704642Y-137517857D01*
X242740357Y-137446428D01*
X242811785Y-137375000D01*
X242918928Y-137339285D01*
X242990357Y-137339285D01*
X243097500Y-137375000D01*
X243133214Y-137410714D01*
X243454642Y-138089285D02*
X243454642Y-137339285D01*
X243704642Y-137875000D01*
X243954642Y-137339285D01*
X243954642Y-138089285D01*
X244847500Y-137303571D02*
X244204642Y-138267857D01*
X244990357Y-137589285D02*
X245276071Y-137589285D01*
X245097500Y-137339285D02*
X245097500Y-137982142D01*
X245133214Y-138053571D01*
X245204642Y-138089285D01*
X245276071Y-138089285D01*
X245526071Y-138089285D02*
X245526071Y-137589285D01*
X245526071Y-137732142D02*
X245561785Y-137660714D01*
X245597500Y-137625000D01*
X245668928Y-137589285D01*
X245740357Y-137589285D01*
X246276071Y-138053571D02*
X246204642Y-138089285D01*
X246061785Y-138089285D01*
X245990357Y-138053571D01*
X245954642Y-137982142D01*
X245954642Y-137696428D01*
X245990357Y-137625000D01*
X246061785Y-137589285D01*
X246204642Y-137589285D01*
X246276071Y-137625000D01*
X246311785Y-137696428D01*
X246311785Y-137767857D01*
X245954642Y-137839285D01*
X246918928Y-138053571D02*
X246847500Y-138089285D01*
X246704642Y-138089285D01*
X246633214Y-138053571D01*
X246597500Y-137982142D01*
X246597500Y-137696428D01*
X246633214Y-137625000D01*
X246704642Y-137589285D01*
X246847500Y-137589285D01*
X246918928Y-137625000D01*
X246954642Y-137696428D01*
X246954642Y-137767857D01*
X246597500Y-137839285D01*
X247811785Y-137303571D02*
X247168928Y-138267857D01*
X248061785Y-138089285D02*
X248061785Y-137589285D01*
X248061785Y-137660714D02*
X248097500Y-137625000D01*
X248168928Y-137589285D01*
X248276071Y-137589285D01*
X248347500Y-137625000D01*
X248383214Y-137696428D01*
X248383214Y-138089285D01*
X248383214Y-137696428D02*
X248418928Y-137625000D01*
X248490357Y-137589285D01*
X248597500Y-137589285D01*
X248668928Y-137625000D01*
X248704642Y-137696428D01*
X248704642Y-138089285D01*
X249383214Y-138089285D02*
X249383214Y-137696428D01*
X249347500Y-137625000D01*
X249276071Y-137589285D01*
X249133214Y-137589285D01*
X249061785Y-137625000D01*
X249383214Y-138053571D02*
X249311785Y-138089285D01*
X249133214Y-138089285D01*
X249061785Y-138053571D01*
X249026071Y-137982142D01*
X249026071Y-137910714D01*
X249061785Y-137839285D01*
X249133214Y-137803571D01*
X249311785Y-137803571D01*
X249383214Y-137767857D01*
X249740357Y-138089285D02*
X249740357Y-137589285D01*
X249740357Y-137339285D02*
X249704642Y-137375000D01*
X249740357Y-137410714D01*
X249776071Y-137375000D01*
X249740357Y-137339285D01*
X249740357Y-137410714D01*
X250097500Y-137589285D02*
X250097500Y-138089285D01*
X250097500Y-137660714D02*
X250133214Y-137625000D01*
X250204642Y-137589285D01*
X250311785Y-137589285D01*
X250383214Y-137625000D01*
X250418928Y-137696428D01*
X250418928Y-138089285D01*
X251311785Y-137303571D02*
X250668928Y-138267857D01*
X251561785Y-137696428D02*
X251811785Y-137696428D01*
X251918928Y-138089285D02*
X251561785Y-138089285D01*
X251561785Y-137339285D01*
X251918928Y-137339285D01*
X252347500Y-138089285D02*
X252276071Y-138053571D01*
X252240357Y-137982142D01*
X252240357Y-137339285D01*
X252918928Y-138053571D02*
X252847500Y-138089285D01*
X252704642Y-138089285D01*
X252633214Y-138053571D01*
X252597500Y-137982142D01*
X252597500Y-137696428D01*
X252633214Y-137625000D01*
X252704642Y-137589285D01*
X252847500Y-137589285D01*
X252918928Y-137625000D01*
X252954642Y-137696428D01*
X252954642Y-137767857D01*
X252597500Y-137839285D01*
X253597500Y-138053571D02*
X253526071Y-138089285D01*
X253383214Y-138089285D01*
X253311785Y-138053571D01*
X253276071Y-138017857D01*
X253240357Y-137946428D01*
X253240357Y-137732142D01*
X253276071Y-137660714D01*
X253311785Y-137625000D01*
X253383214Y-137589285D01*
X253526071Y-137589285D01*
X253597500Y-137625000D01*
X253811785Y-137589285D02*
X254097500Y-137589285D01*
X253918928Y-137339285D02*
X253918928Y-137982142D01*
X253954642Y-138053571D01*
X254026071Y-138089285D01*
X254097500Y-138089285D01*
X254347500Y-138089285D02*
X254347500Y-137589285D01*
X254347500Y-137732142D02*
X254383214Y-137660714D01*
X254418928Y-137625000D01*
X254490357Y-137589285D01*
X254561785Y-137589285D01*
X254918928Y-138089285D02*
X254847500Y-138053571D01*
X254811785Y-138017857D01*
X254776071Y-137946428D01*
X254776071Y-137732142D01*
X254811785Y-137660714D01*
X254847500Y-137625000D01*
X254918928Y-137589285D01*
X255026071Y-137589285D01*
X255097500Y-137625000D01*
X255133214Y-137660714D01*
X255168928Y-137732142D01*
X255168928Y-137946428D01*
X255133214Y-138017857D01*
X255097500Y-138053571D01*
X255026071Y-138089285D01*
X254918928Y-138089285D01*
X255490357Y-137589285D02*
X255490357Y-138089285D01*
X255490357Y-137660714D02*
X255526071Y-137625000D01*
X255597500Y-137589285D01*
X255704642Y-137589285D01*
X255776071Y-137625000D01*
X255811785Y-137696428D01*
X255811785Y-138089285D01*
X256168928Y-138089285D02*
X256168928Y-137589285D01*
X256168928Y-137339285D02*
X256133214Y-137375000D01*
X256168928Y-137410714D01*
X256204642Y-137375000D01*
X256168928Y-137339285D01*
X256168928Y-137410714D01*
X256847500Y-138053571D02*
X256776071Y-138089285D01*
X256633214Y-138089285D01*
X256561785Y-138053571D01*
X256526071Y-138017857D01*
X256490357Y-137946428D01*
X256490357Y-137732142D01*
X256526071Y-137660714D01*
X256561785Y-137625000D01*
X256633214Y-137589285D01*
X256776071Y-137589285D01*
X256847500Y-137625000D01*
X257133214Y-138053571D02*
X257204642Y-138089285D01*
X257347500Y-138089285D01*
X257418928Y-138053571D01*
X257454642Y-137982142D01*
X257454642Y-137946428D01*
X257418928Y-137875000D01*
X257347500Y-137839285D01*
X257240357Y-137839285D01*
X257168928Y-137803571D01*
X257133214Y-137732142D01*
X257133214Y-137696428D01*
X257168928Y-137625000D01*
X257240357Y-137589285D01*
X257347500Y-137589285D01*
X257418928Y-137625000D01*
X258311785Y-137303571D02*
X257668928Y-138267857D01*
X258918928Y-138089285D02*
X258561785Y-138089285D01*
X258561785Y-137339285D01*
X259168928Y-138089285D02*
X259168928Y-137589285D01*
X259168928Y-137339285D02*
X259133214Y-137375000D01*
X259168928Y-137410714D01*
X259204642Y-137375000D01*
X259168928Y-137339285D01*
X259168928Y-137410714D01*
X259418928Y-137589285D02*
X259704642Y-137589285D01*
X259526071Y-137339285D02*
X259526071Y-137982142D01*
X259561785Y-138053571D01*
X259633214Y-138089285D01*
X259704642Y-138089285D01*
X259954642Y-138089285D02*
X259954642Y-137339285D01*
X260276071Y-138089285D02*
X260276071Y-137696428D01*
X260240357Y-137625000D01*
X260168928Y-137589285D01*
X260061785Y-137589285D01*
X259990357Y-137625000D01*
X259954642Y-137660714D01*
X260633214Y-138089285D02*
X260633214Y-137589285D01*
X260633214Y-137339285D02*
X260597500Y-137375000D01*
X260633214Y-137410714D01*
X260668928Y-137375000D01*
X260633214Y-137339285D01*
X260633214Y-137410714D01*
X261311785Y-137589285D02*
X261311785Y-138089285D01*
X260990357Y-137589285D02*
X260990357Y-137982142D01*
X261026071Y-138053571D01*
X261097500Y-138089285D01*
X261204642Y-138089285D01*
X261276071Y-138053571D01*
X261311785Y-138017857D01*
X261668928Y-138089285D02*
X261668928Y-137589285D01*
X261668928Y-137660714D02*
X261704642Y-137625000D01*
X261776071Y-137589285D01*
X261883214Y-137589285D01*
X261954642Y-137625000D01*
X261990357Y-137696428D01*
X261990357Y-138089285D01*
X261990357Y-137696428D02*
X262026071Y-137625000D01*
X262097500Y-137589285D01*
X262204642Y-137589285D01*
X262276071Y-137625000D01*
X262311785Y-137696428D01*
X262311785Y-138089285D01*
X262633214Y-138089285D02*
X263204642Y-137339285D01*
X262740357Y-137339285D02*
X262811785Y-137375000D01*
X262847500Y-137446428D01*
X262811785Y-137517857D01*
X262740357Y-137553571D01*
X262668928Y-137517857D01*
X262633214Y-137446428D01*
X262668928Y-137375000D01*
X262740357Y-137339285D01*
X263168928Y-138053571D02*
X263204642Y-137982142D01*
X263168928Y-137910714D01*
X263097500Y-137875000D01*
X263026071Y-137910714D01*
X262990357Y-137982142D01*
X263026071Y-138053571D01*
X263097500Y-138089285D01*
X263168928Y-138053571D01*
X263490357Y-137410714D02*
X263526071Y-137375000D01*
X263597500Y-137339285D01*
X263776071Y-137339285D01*
X263847500Y-137375000D01*
X263883214Y-137410714D01*
X263918928Y-137482142D01*
X263918928Y-137553571D01*
X263883214Y-137660714D01*
X263454642Y-138089285D01*
X263918928Y-138089285D01*
X264383214Y-137339285D02*
X264454642Y-137339285D01*
X264526071Y-137375000D01*
X264561785Y-137410714D01*
X264597500Y-137482142D01*
X264633214Y-137625000D01*
X264633214Y-137803571D01*
X264597500Y-137946428D01*
X264561785Y-138017857D01*
X264526071Y-138053571D01*
X264454642Y-138089285D01*
X264383214Y-138089285D01*
X264311785Y-138053571D01*
X264276071Y-138017857D01*
X264240357Y-137946428D01*
X264204642Y-137803571D01*
X264204642Y-137625000D01*
X264240357Y-137482142D01*
X264276071Y-137410714D01*
X264311785Y-137375000D01*
X264383214Y-137339285D01*
X265204642Y-137696428D02*
X265311785Y-137732142D01*
X265347500Y-137767857D01*
X265383214Y-137839285D01*
X265383214Y-137946428D01*
X265347500Y-138017857D01*
X265311785Y-138053571D01*
X265240357Y-138089285D01*
X264954642Y-138089285D01*
X264954642Y-137339285D01*
X265204642Y-137339285D01*
X265276071Y-137375000D01*
X265311785Y-137410714D01*
X265347500Y-137482142D01*
X265347500Y-137553571D01*
X265311785Y-137625000D01*
X265276071Y-137660714D01*
X265204642Y-137696428D01*
X264954642Y-137696428D01*
X266026071Y-138089285D02*
X266026071Y-137696428D01*
X265990357Y-137625000D01*
X265918928Y-137589285D01*
X265776071Y-137589285D01*
X265704642Y-137625000D01*
X266026071Y-138053571D02*
X265954642Y-138089285D01*
X265776071Y-138089285D01*
X265704642Y-138053571D01*
X265668928Y-137982142D01*
X265668928Y-137910714D01*
X265704642Y-137839285D01*
X265776071Y-137803571D01*
X265954642Y-137803571D01*
X266026071Y-137767857D01*
X266276071Y-137589285D02*
X266561785Y-137589285D01*
X266383214Y-137339285D02*
X266383214Y-137982142D01*
X266418928Y-138053571D01*
X266490357Y-138089285D01*
X266561785Y-138089285D01*
X266704642Y-137589285D02*
X266990357Y-137589285D01*
X266811785Y-137339285D02*
X266811785Y-137982142D01*
X266847500Y-138053571D01*
X266918928Y-138089285D01*
X266990357Y-138089285D01*
X267526071Y-138053571D02*
X267454642Y-138089285D01*
X267311785Y-138089285D01*
X267240357Y-138053571D01*
X267204642Y-137982142D01*
X267204642Y-137696428D01*
X267240357Y-137625000D01*
X267311785Y-137589285D01*
X267454642Y-137589285D01*
X267526071Y-137625000D01*
X267561785Y-137696428D01*
X267561785Y-137767857D01*
X267204642Y-137839285D01*
X267883214Y-138089285D02*
X267883214Y-137589285D01*
X267883214Y-137732142D02*
X267918928Y-137660714D01*
X267954642Y-137625000D01*
X268026071Y-137589285D01*
X268097500Y-137589285D01*
X268347500Y-138089285D02*
X268347500Y-137589285D01*
X268347500Y-137339285D02*
X268311785Y-137375000D01*
X268347500Y-137410714D01*
X268383214Y-137375000D01*
X268347500Y-137339285D01*
X268347500Y-137410714D01*
X268990357Y-138053571D02*
X268918928Y-138089285D01*
X268776071Y-138089285D01*
X268704642Y-138053571D01*
X268668928Y-137982142D01*
X268668928Y-137696428D01*
X268704642Y-137625000D01*
X268776071Y-137589285D01*
X268918928Y-137589285D01*
X268990357Y-137625000D01*
X269026071Y-137696428D01*
X269026071Y-137767857D01*
X268668928Y-137839285D01*
X269311785Y-138053571D02*
X269383214Y-138089285D01*
X269526071Y-138089285D01*
X269597500Y-138053571D01*
X269633214Y-137982142D01*
X269633214Y-137946428D01*
X269597500Y-137875000D01*
X269526071Y-137839285D01*
X269418928Y-137839285D01*
X269347500Y-137803571D01*
X269311785Y-137732142D01*
X269311785Y-137696428D01*
X269347500Y-137625000D01*
X269418928Y-137589285D01*
X269526071Y-137589285D01*
X269597500Y-137625000D01*
X270490357Y-137303571D02*
X269847500Y-138267857D01*
X271061785Y-137589285D02*
X271061785Y-138089285D01*
X270883214Y-137303571D02*
X270704642Y-137839285D01*
X271168928Y-137839285D01*
X271383214Y-137339285D02*
X271883214Y-137339285D01*
X271561785Y-138089285D01*
X272133214Y-138089285D02*
X272704642Y-137339285D01*
X272240357Y-137339285D02*
X272311785Y-137375000D01*
X272347500Y-137446428D01*
X272311785Y-137517857D01*
X272240357Y-137553571D01*
X272168928Y-137517857D01*
X272133214Y-137446428D01*
X272168928Y-137375000D01*
X272240357Y-137339285D01*
X272668928Y-138053571D02*
X272704642Y-137982142D01*
X272668928Y-137910714D01*
X272597500Y-137875000D01*
X272526071Y-137910714D01*
X272490357Y-137982142D01*
X272526071Y-138053571D01*
X272597500Y-138089285D01*
X272668928Y-138053571D01*
X272990357Y-137410714D02*
X273026071Y-137375000D01*
X273097500Y-137339285D01*
X273276071Y-137339285D01*
X273347500Y-137375000D01*
X273383214Y-137410714D01*
X273418928Y-137482142D01*
X273418928Y-137553571D01*
X273383214Y-137660714D01*
X272954642Y-138089285D01*
X273418928Y-138089285D01*
X273883214Y-137339285D02*
X273954642Y-137339285D01*
X274026071Y-137375000D01*
X274061785Y-137410714D01*
X274097500Y-137482142D01*
X274133214Y-137625000D01*
X274133214Y-137803571D01*
X274097500Y-137946428D01*
X274061785Y-138017857D01*
X274026071Y-138053571D01*
X273954642Y-138089285D01*
X273883214Y-138089285D01*
X273811785Y-138053571D01*
X273776071Y-138017857D01*
X273740357Y-137946428D01*
X273704642Y-137803571D01*
X273704642Y-137625000D01*
X273740357Y-137482142D01*
X273776071Y-137410714D01*
X273811785Y-137375000D01*
X273883214Y-137339285D01*
X274418928Y-137875000D02*
X274776071Y-137875000D01*
X274347500Y-138089285D02*
X274597500Y-137339285D01*
X274847500Y-138089285D01*
X275097500Y-138089285D02*
X275097500Y-137339285D01*
X275418928Y-138089285D02*
X275418928Y-137696428D01*
X275383214Y-137625000D01*
X275311785Y-137589285D01*
X275204642Y-137589285D01*
X275133214Y-137625000D01*
X275097500Y-137660714D01*
X275740357Y-138089285D02*
X276311785Y-137339285D01*
X275847500Y-137339285D02*
X275918928Y-137375000D01*
X275954642Y-137446428D01*
X275918928Y-137517857D01*
X275847500Y-137553571D01*
X275776071Y-137517857D01*
X275740357Y-137446428D01*
X275776071Y-137375000D01*
X275847500Y-137339285D01*
X276276071Y-138053571D02*
X276311785Y-137982142D01*
X276276071Y-137910714D01*
X276204642Y-137875000D01*
X276133214Y-137910714D01*
X276097500Y-137982142D01*
X276133214Y-138053571D01*
X276204642Y-138089285D01*
X276276071Y-138053571D01*
X276597500Y-137410714D02*
X276633214Y-137375000D01*
X276704642Y-137339285D01*
X276883214Y-137339285D01*
X276954642Y-137375000D01*
X276990357Y-137410714D01*
X277026071Y-137482142D01*
X277026071Y-137553571D01*
X276990357Y-137660714D01*
X276561785Y-138089285D01*
X277026071Y-138089285D01*
X277490357Y-137339285D02*
X277561785Y-137339285D01*
X277633214Y-137375000D01*
X277668928Y-137410714D01*
X277704642Y-137482142D01*
X277740357Y-137625000D01*
X277740357Y-137803571D01*
X277704642Y-137946428D01*
X277668928Y-138017857D01*
X277633214Y-138053571D01*
X277561785Y-138089285D01*
X277490357Y-138089285D01*
X277418928Y-138053571D01*
X277383214Y-138017857D01*
X277347500Y-137946428D01*
X277311785Y-137803571D01*
X277311785Y-137625000D01*
X277347500Y-137482142D01*
X277383214Y-137410714D01*
X277418928Y-137375000D01*
X277490357Y-137339285D01*
X278311785Y-137696428D02*
X278061785Y-137696428D01*
X278061785Y-138089285D02*
X278061785Y-137339285D01*
X278418928Y-137339285D01*
X278811785Y-138089285D02*
X278740357Y-138053571D01*
X278704642Y-138017857D01*
X278668928Y-137946428D01*
X278668928Y-137732142D01*
X278704642Y-137660714D01*
X278740357Y-137625000D01*
X278811785Y-137589285D01*
X278918928Y-137589285D01*
X278990357Y-137625000D01*
X279026071Y-137660714D01*
X279061785Y-137732142D01*
X279061785Y-137946428D01*
X279026071Y-138017857D01*
X278990357Y-138053571D01*
X278918928Y-138089285D01*
X278811785Y-138089285D01*
X279383214Y-138089285D02*
X279383214Y-137339285D01*
X279633214Y-137875000D01*
X279883214Y-137339285D01*
X279883214Y-138089285D01*
X280347500Y-138089285D02*
X280276071Y-138053571D01*
X280240357Y-138017857D01*
X280204642Y-137946428D01*
X280204642Y-137732142D01*
X280240357Y-137660714D01*
X280276071Y-137625000D01*
X280347500Y-137589285D01*
X280454642Y-137589285D01*
X280526071Y-137625000D01*
X280561785Y-137660714D01*
X280597500Y-137732142D01*
X280597500Y-137946428D01*
X280561785Y-138017857D01*
X280526071Y-138053571D01*
X280454642Y-138089285D01*
X280347500Y-138089285D01*
X281347500Y-138017857D02*
X281311785Y-138053571D01*
X281204642Y-138089285D01*
X281133214Y-138089285D01*
X281026071Y-138053571D01*
X280954642Y-137982142D01*
X280918928Y-137910714D01*
X280883214Y-137767857D01*
X280883214Y-137660714D01*
X280918928Y-137517857D01*
X280954642Y-137446428D01*
X281026071Y-137375000D01*
X281133214Y-137339285D01*
X281204642Y-137339285D01*
X281311785Y-137375000D01*
X281347500Y-137410714D01*
X281776071Y-138089285D02*
X281704642Y-138053571D01*
X281668928Y-138017857D01*
X281633214Y-137946428D01*
X281633214Y-137732142D01*
X281668928Y-137660714D01*
X281704642Y-137625000D01*
X281776071Y-137589285D01*
X281883214Y-137589285D01*
X281954642Y-137625000D01*
X281990357Y-137660714D01*
X282026071Y-137732142D01*
X282026071Y-137946428D01*
X281990357Y-138017857D01*
X281954642Y-138053571D01*
X281883214Y-138089285D01*
X281776071Y-138089285D01*
X282311785Y-138089285D02*
X282883214Y-137339285D01*
X282418928Y-137339285D02*
X282490357Y-137375000D01*
X282526071Y-137446428D01*
X282490357Y-137517857D01*
X282418928Y-137553571D01*
X282347500Y-137517857D01*
X282311785Y-137446428D01*
X282347500Y-137375000D01*
X282418928Y-137339285D01*
X282847500Y-138053571D02*
X282883214Y-137982142D01*
X282847500Y-137910714D01*
X282776071Y-137875000D01*
X282704642Y-137910714D01*
X282668928Y-137982142D01*
X282704642Y-138053571D01*
X282776071Y-138089285D01*
X282847500Y-138053571D01*
X283168928Y-137410714D02*
X283204642Y-137375000D01*
X283276071Y-137339285D01*
X283454642Y-137339285D01*
X283526071Y-137375000D01*
X283561785Y-137410714D01*
X283597500Y-137482142D01*
X283597500Y-137553571D01*
X283561785Y-137660714D01*
X283133214Y-138089285D01*
X283597500Y-138089285D01*
X284061785Y-137339285D02*
X284133214Y-137339285D01*
X284204642Y-137375000D01*
X284240357Y-137410714D01*
X284276071Y-137482142D01*
X284311785Y-137625000D01*
X284311785Y-137803571D01*
X284276071Y-137946428D01*
X284240357Y-138017857D01*
X284204642Y-138053571D01*
X284133214Y-138089285D01*
X284061785Y-138089285D01*
X283990357Y-138053571D01*
X283954642Y-138017857D01*
X283918928Y-137946428D01*
X283883214Y-137803571D01*
X283883214Y-137625000D01*
X283918928Y-137482142D01*
X283954642Y-137410714D01*
X283990357Y-137375000D01*
X284061785Y-137339285D01*
X284633214Y-138089285D02*
X284633214Y-137339285D01*
X284883214Y-137875000D01*
X285133214Y-137339285D01*
X285133214Y-138089285D01*
X285597500Y-138089285D02*
X285526071Y-138053571D01*
X285490357Y-138017857D01*
X285454642Y-137946428D01*
X285454642Y-137732142D01*
X285490357Y-137660714D01*
X285526071Y-137625000D01*
X285597500Y-137589285D01*
X285704642Y-137589285D01*
X285776071Y-137625000D01*
X285811785Y-137660714D01*
X285847500Y-137732142D01*
X285847500Y-137946428D01*
X285811785Y-138017857D01*
X285776071Y-138053571D01*
X285704642Y-138089285D01*
X285597500Y-138089285D01*
X286490357Y-138089285D02*
X286490357Y-137339285D01*
X286490357Y-138053571D02*
X286418928Y-138089285D01*
X286276071Y-138089285D01*
X286204642Y-138053571D01*
X286168928Y-138017857D01*
X286133214Y-137946428D01*
X286133214Y-137732142D01*
X286168928Y-137660714D01*
X286204642Y-137625000D01*
X286276071Y-137589285D01*
X286418928Y-137589285D01*
X286490357Y-137625000D01*
X287168928Y-137589285D02*
X287168928Y-138089285D01*
X286847500Y-137589285D02*
X286847500Y-137982142D01*
X286883214Y-138053571D01*
X286954642Y-138089285D01*
X287061785Y-138089285D01*
X287133214Y-138053571D01*
X287168928Y-138017857D01*
X287633214Y-138089285D02*
X287561785Y-138053571D01*
X287526071Y-137982142D01*
X287526071Y-137339285D01*
X288204642Y-138053571D02*
X288133214Y-138089285D01*
X287990357Y-138089285D01*
X287918928Y-138053571D01*
X287883214Y-137982142D01*
X287883214Y-137696428D01*
X287918928Y-137625000D01*
X287990357Y-137589285D01*
X288133214Y-137589285D01*
X288204642Y-137625000D01*
X288240357Y-137696428D01*
X288240357Y-137767857D01*
X287883214Y-137839285D01*
X288526071Y-138053571D02*
X288597500Y-138089285D01*
X288740357Y-138089285D01*
X288811785Y-138053571D01*
X288847500Y-137982142D01*
X288847500Y-137946428D01*
X288811785Y-137875000D01*
X288740357Y-137839285D01*
X288633214Y-137839285D01*
X288561785Y-137803571D01*
X288526071Y-137732142D01*
X288526071Y-137696428D01*
X288561785Y-137625000D01*
X288633214Y-137589285D01*
X288740357Y-137589285D01*
X288811785Y-137625000D01*
D11*
X109750000Y-112628571D02*
X109750000Y-111128571D01*
X110250000Y-112200000D01*
X110750000Y-111128571D01*
X110750000Y-112628571D01*
X111392857Y-112200000D02*
X112107142Y-112200000D01*
X111250000Y-112628571D02*
X111750000Y-111128571D01*
X112250000Y-112628571D01*
X113535714Y-111200000D02*
X113392857Y-111128571D01*
X113178571Y-111128571D01*
X112964285Y-111200000D01*
X112821428Y-111342857D01*
X112750000Y-111485714D01*
X112678571Y-111771428D01*
X112678571Y-111985714D01*
X112750000Y-112271428D01*
X112821428Y-112414285D01*
X112964285Y-112557142D01*
X113178571Y-112628571D01*
X113321428Y-112628571D01*
X113535714Y-112557142D01*
X113607142Y-112485714D01*
X113607142Y-111985714D01*
X113321428Y-111985714D01*
X114250000Y-112628571D02*
X114250000Y-111128571D01*
X115821428Y-112485714D02*
X115750000Y-112557142D01*
X115535714Y-112628571D01*
X115392857Y-112628571D01*
X115178571Y-112557142D01*
X115035714Y-112414285D01*
X114964285Y-112271428D01*
X114892857Y-111985714D01*
X114892857Y-111771428D01*
X114964285Y-111485714D01*
X115035714Y-111342857D01*
X115178571Y-111200000D01*
X115392857Y-111128571D01*
X115535714Y-111128571D01*
X115750000Y-111200000D01*
X115821428Y-111271428D01*
X109250000Y-115107142D02*
X109464285Y-115178571D01*
X109821428Y-115178571D01*
X109964285Y-115107142D01*
X110035714Y-115035714D01*
X110107142Y-114892857D01*
X110107142Y-114750000D01*
X110035714Y-114607142D01*
X109964285Y-114535714D01*
X109821428Y-114464285D01*
X109535714Y-114392857D01*
X109392857Y-114321428D01*
X109321428Y-114250000D01*
X109250000Y-114107142D01*
X109250000Y-113964285D01*
X109321428Y-113821428D01*
X109392857Y-113750000D01*
X109535714Y-113678571D01*
X109892857Y-113678571D01*
X110107142Y-113750000D01*
X110750000Y-115178571D02*
X110750000Y-113678571D01*
X111250000Y-114750000D01*
X111750000Y-113678571D01*
X111750000Y-115178571D01*
X112750000Y-113678571D02*
X113035714Y-113678571D01*
X113178571Y-113750000D01*
X113321428Y-113892857D01*
X113392857Y-114178571D01*
X113392857Y-114678571D01*
X113321428Y-114964285D01*
X113178571Y-115107142D01*
X113035714Y-115178571D01*
X112750000Y-115178571D01*
X112607142Y-115107142D01*
X112464285Y-114964285D01*
X112392857Y-114678571D01*
X112392857Y-114178571D01*
X112464285Y-113892857D01*
X112607142Y-113750000D01*
X112750000Y-113678571D01*
X114035714Y-115178571D02*
X114035714Y-113678571D01*
X114892857Y-115178571D02*
X114250000Y-114321428D01*
X114892857Y-113678571D02*
X114035714Y-114535714D01*
X115535714Y-114392857D02*
X116035714Y-114392857D01*
X116250000Y-115178571D02*
X115535714Y-115178571D01*
X115535714Y-113678571D01*
X116250000Y-113678571D01*
X108642857Y-117728571D02*
X108142857Y-117014285D01*
X107785714Y-117728571D02*
X107785714Y-116228571D01*
X108357142Y-116228571D01*
X108500000Y-116300000D01*
X108571428Y-116371428D01*
X108642857Y-116514285D01*
X108642857Y-116728571D01*
X108571428Y-116871428D01*
X108500000Y-116942857D01*
X108357142Y-117014285D01*
X107785714Y-117014285D01*
X109285714Y-116942857D02*
X109785714Y-116942857D01*
X110000000Y-117728571D02*
X109285714Y-117728571D01*
X109285714Y-116228571D01*
X110000000Y-116228571D01*
X110571428Y-117657142D02*
X110785714Y-117728571D01*
X111142857Y-117728571D01*
X111285714Y-117657142D01*
X111357142Y-117585714D01*
X111428571Y-117442857D01*
X111428571Y-117300000D01*
X111357142Y-117157142D01*
X111285714Y-117085714D01*
X111142857Y-117014285D01*
X110857142Y-116942857D01*
X110714285Y-116871428D01*
X110642857Y-116800000D01*
X110571428Y-116657142D01*
X110571428Y-116514285D01*
X110642857Y-116371428D01*
X110714285Y-116300000D01*
X110857142Y-116228571D01*
X111214285Y-116228571D01*
X111428571Y-116300000D01*
X112071428Y-117728571D02*
X112071428Y-116228571D01*
X112714285Y-117657142D02*
X112928571Y-117728571D01*
X113285714Y-117728571D01*
X113428571Y-117657142D01*
X113500000Y-117585714D01*
X113571428Y-117442857D01*
X113571428Y-117300000D01*
X113500000Y-117157142D01*
X113428571Y-117085714D01*
X113285714Y-117014285D01*
X113000000Y-116942857D01*
X112857142Y-116871428D01*
X112785714Y-116800000D01*
X112714285Y-116657142D01*
X112714285Y-116514285D01*
X112785714Y-116371428D01*
X112857142Y-116300000D01*
X113000000Y-116228571D01*
X113357142Y-116228571D01*
X113571428Y-116300000D01*
X114000000Y-116228571D02*
X114857142Y-116228571D01*
X114428571Y-117728571D02*
X114428571Y-116228571D01*
X115642857Y-116228571D02*
X115928571Y-116228571D01*
X116071428Y-116300000D01*
X116214285Y-116442857D01*
X116285714Y-116728571D01*
X116285714Y-117228571D01*
X116214285Y-117514285D01*
X116071428Y-117657142D01*
X115928571Y-117728571D01*
X115642857Y-117728571D01*
X115500000Y-117657142D01*
X115357142Y-117514285D01*
X115285714Y-117228571D01*
X115285714Y-116728571D01*
X115357142Y-116442857D01*
X115500000Y-116300000D01*
X115642857Y-116228571D01*
X117785714Y-117728571D02*
X117285714Y-117014285D01*
X116928571Y-117728571D02*
X116928571Y-116228571D01*
X117500000Y-116228571D01*
X117642857Y-116300000D01*
X117714285Y-116371428D01*
X117785714Y-116514285D01*
X117785714Y-116728571D01*
X117714285Y-116871428D01*
X117642857Y-116942857D01*
X117500000Y-117014285D01*
X116928571Y-117014285D01*
X232749999Y-127103571D02*
X232249999Y-126389285D01*
X231892857Y-127103571D02*
X231892857Y-125603571D01*
X232464285Y-125603571D01*
X232607142Y-125675000D01*
X232678571Y-125746428D01*
X232749999Y-125889285D01*
X232749999Y-126103571D01*
X232678571Y-126246428D01*
X232607142Y-126317857D01*
X232464285Y-126389285D01*
X231892857Y-126389285D01*
X233392857Y-127103571D02*
X233392857Y-125603571D01*
X234607142Y-126317857D02*
X234821428Y-126389285D01*
X234892857Y-126460714D01*
X234964285Y-126603571D01*
X234964285Y-126817857D01*
X234892857Y-126960714D01*
X234821428Y-127032142D01*
X234678571Y-127103571D01*
X234107142Y-127103571D01*
X234107142Y-125603571D01*
X234607142Y-125603571D01*
X234749999Y-125675000D01*
X234821428Y-125746428D01*
X234892857Y-125889285D01*
X234892857Y-126032142D01*
X234821428Y-126175000D01*
X234749999Y-126246428D01*
X234607142Y-126317857D01*
X234107142Y-126317857D01*
X236107142Y-126317857D02*
X236321428Y-126389285D01*
X236392857Y-126460714D01*
X236464285Y-126603571D01*
X236464285Y-126817857D01*
X236392857Y-126960714D01*
X236321428Y-127032142D01*
X236178571Y-127103571D01*
X235607142Y-127103571D01*
X235607142Y-125603571D01*
X236107142Y-125603571D01*
X236249999Y-125675000D01*
X236321428Y-125746428D01*
X236392857Y-125889285D01*
X236392857Y-126032142D01*
X236321428Y-126175000D01*
X236249999Y-126246428D01*
X236107142Y-126317857D01*
X235607142Y-126317857D01*
X237392857Y-125603571D02*
X237678571Y-125603571D01*
X237821428Y-125675000D01*
X237964285Y-125817857D01*
X238035714Y-126103571D01*
X238035714Y-126603571D01*
X237964285Y-126889285D01*
X237821428Y-127032142D01*
X237678571Y-127103571D01*
X237392857Y-127103571D01*
X237249999Y-127032142D01*
X237107142Y-126889285D01*
X237035714Y-126603571D01*
X237035714Y-126103571D01*
X237107142Y-125817857D01*
X237249999Y-125675000D01*
X237392857Y-125603571D01*
X238678571Y-127103571D02*
X238678571Y-125603571D01*
X239535714Y-127103571D01*
X239535714Y-125603571D01*
X241392857Y-127103571D02*
X241392857Y-125603571D01*
X241392857Y-126317857D02*
X242249999Y-126317857D01*
X242249999Y-127103571D02*
X242249999Y-125603571D01*
X242964285Y-126317857D02*
X243464285Y-126317857D01*
X243678571Y-127103571D02*
X242964285Y-127103571D01*
X242964285Y-125603571D01*
X243678571Y-125603571D01*
X244249999Y-126675000D02*
X244964285Y-126675000D01*
X244107142Y-127103571D02*
X244607142Y-125603571D01*
X245107142Y-127103571D01*
X245607142Y-127103571D02*
X245607142Y-125603571D01*
X245964285Y-125603571D01*
X246178571Y-125675000D01*
X246321428Y-125817857D01*
X246392857Y-125960714D01*
X246464285Y-126246428D01*
X246464285Y-126460714D01*
X246392857Y-126746428D01*
X246321428Y-126889285D01*
X246178571Y-127032142D01*
X245964285Y-127103571D01*
X245607142Y-127103571D01*
X247107142Y-126317857D02*
X247607142Y-126317857D01*
X247821428Y-127103571D02*
X247107142Y-127103571D01*
X247107142Y-125603571D01*
X247821428Y-125603571D01*
X249321428Y-127103571D02*
X248821428Y-126389285D01*
X248464285Y-127103571D02*
X248464285Y-125603571D01*
X249035714Y-125603571D01*
X249178571Y-125675000D01*
X249249999Y-125746428D01*
X249321428Y-125889285D01*
X249321428Y-126103571D01*
X249249999Y-126246428D01*
X249178571Y-126317857D01*
X249035714Y-126389285D01*
X248464285Y-126389285D01*
X251035714Y-126675000D02*
X251749999Y-126675000D01*
X250892857Y-127103571D02*
X251392857Y-125603571D01*
X251892857Y-127103571D01*
X252392857Y-127103571D02*
X252392857Y-125603571D01*
X252749999Y-125603571D01*
X252964285Y-125675000D01*
X253107142Y-125817857D01*
X253178571Y-125960714D01*
X253249999Y-126246428D01*
X253249999Y-126460714D01*
X253178571Y-126746428D01*
X253107142Y-126889285D01*
X252964285Y-127032142D01*
X252749999Y-127103571D01*
X252392857Y-127103571D01*
X253821428Y-126675000D02*
X254535714Y-126675000D01*
X253678571Y-127103571D02*
X254178571Y-125603571D01*
X254678571Y-127103571D01*
X255178571Y-127103571D02*
X255178571Y-125603571D01*
X255749999Y-125603571D01*
X255892857Y-125675000D01*
X255964285Y-125746428D01*
X256035714Y-125889285D01*
X256035714Y-126103571D01*
X255964285Y-126246428D01*
X255892857Y-126317857D01*
X255749999Y-126389285D01*
X255178571Y-126389285D01*
X256464285Y-125603571D02*
X257321428Y-125603571D01*
X256892857Y-127103571D02*
X256892857Y-125603571D01*
X257821428Y-126317857D02*
X258321428Y-126317857D01*
X258535714Y-127103571D02*
X257821428Y-127103571D01*
X257821428Y-125603571D01*
X258535714Y-125603571D01*
X260035714Y-127103571D02*
X259535714Y-126389285D01*
X259178571Y-127103571D02*
X259178571Y-125603571D01*
X259749999Y-125603571D01*
X259892857Y-125675000D01*
X259964285Y-125746428D01*
X260035714Y-125889285D01*
X260035714Y-126103571D01*
X259964285Y-126246428D01*
X259892857Y-126317857D01*
X259749999Y-126389285D01*
X259178571Y-126389285D01*
X261821428Y-127103571D02*
X261821428Y-125603571D01*
X262392857Y-125603571D01*
X262535714Y-125675000D01*
X262607142Y-125746428D01*
X262678571Y-125889285D01*
X262678571Y-126103571D01*
X262607142Y-126246428D01*
X262535714Y-126317857D01*
X262392857Y-126389285D01*
X261821428Y-126389285D01*
X264178571Y-126960714D02*
X264107142Y-127032142D01*
X263892857Y-127103571D01*
X263749999Y-127103571D01*
X263535714Y-127032142D01*
X263392857Y-126889285D01*
X263321428Y-126746428D01*
X263249999Y-126460714D01*
X263249999Y-126246428D01*
X263321428Y-125960714D01*
X263392857Y-125817857D01*
X263535714Y-125675000D01*
X263749999Y-125603571D01*
X263892857Y-125603571D01*
X264107142Y-125675000D01*
X264178571Y-125746428D01*
X265321428Y-126317857D02*
X265535714Y-126389285D01*
X265607142Y-126460714D01*
X265678571Y-126603571D01*
X265678571Y-126817857D01*
X265607142Y-126960714D01*
X265535714Y-127032142D01*
X265392857Y-127103571D01*
X264821428Y-127103571D01*
X264821428Y-125603571D01*
X265321428Y-125603571D01*
X265464285Y-125675000D01*
X265535714Y-125746428D01*
X265607142Y-125889285D01*
X265607142Y-126032142D01*
X265535714Y-126175000D01*
X265464285Y-126246428D01*
X265321428Y-126317857D01*
X264821428Y-126317857D01*
X232285714Y-128867857D02*
X231785714Y-128867857D01*
X231785714Y-129653571D02*
X231785714Y-128153571D01*
X232500000Y-128153571D01*
X233357142Y-128153571D02*
X233642857Y-128153571D01*
X233785714Y-128225000D01*
X233928571Y-128367857D01*
X234000000Y-128653571D01*
X234000000Y-129153571D01*
X233928571Y-129439285D01*
X233785714Y-129582142D01*
X233642857Y-129653571D01*
X233357142Y-129653571D01*
X233214285Y-129582142D01*
X233071428Y-129439285D01*
X233000000Y-129153571D01*
X233000000Y-128653571D01*
X233071428Y-128367857D01*
X233214285Y-128225000D01*
X233357142Y-128153571D01*
X235500000Y-129653571D02*
X235000000Y-128939285D01*
X234642857Y-129653571D02*
X234642857Y-128153571D01*
X235214285Y-128153571D01*
X235357142Y-128225000D01*
X235428571Y-128296428D01*
X235500000Y-128439285D01*
X235500000Y-128653571D01*
X235428571Y-128796428D01*
X235357142Y-128867857D01*
X235214285Y-128939285D01*
X234642857Y-128939285D01*
X237214285Y-129582142D02*
X237428571Y-129653571D01*
X237785714Y-129653571D01*
X237928571Y-129582142D01*
X238000000Y-129510714D01*
X238071428Y-129367857D01*
X238071428Y-129225000D01*
X238000000Y-129082142D01*
X237928571Y-129010714D01*
X237785714Y-128939285D01*
X237500000Y-128867857D01*
X237357142Y-128796428D01*
X237285714Y-128725000D01*
X237214285Y-128582142D01*
X237214285Y-128439285D01*
X237285714Y-128296428D01*
X237357142Y-128225000D01*
X237500000Y-128153571D01*
X237857142Y-128153571D01*
X238071428Y-128225000D01*
X238642857Y-129225000D02*
X239357142Y-129225000D01*
X238500000Y-129653571D02*
X239000000Y-128153571D01*
X239500000Y-129653571D01*
X240000000Y-129653571D02*
X240000000Y-128153571D01*
X240500000Y-129225000D01*
X241000000Y-128153571D01*
X241000000Y-129653571D01*
X241642857Y-129582142D02*
X241857142Y-129653571D01*
X242214285Y-129653571D01*
X242357142Y-129582142D01*
X242428571Y-129510714D01*
X242500000Y-129367857D01*
X242500000Y-129225000D01*
X242428571Y-129082142D01*
X242357142Y-129010714D01*
X242214285Y-128939285D01*
X241928571Y-128867857D01*
X241785714Y-128796428D01*
X241714285Y-128725000D01*
X241642857Y-128582142D01*
X241642857Y-128439285D01*
X241714285Y-128296428D01*
X241785714Y-128225000D01*
X241928571Y-128153571D01*
X242285714Y-128153571D01*
X242500000Y-128225000D01*
X243142857Y-128153571D02*
X243142857Y-129367857D01*
X243214285Y-129510714D01*
X243285714Y-129582142D01*
X243428571Y-129653571D01*
X243714285Y-129653571D01*
X243857142Y-129582142D01*
X243928571Y-129510714D01*
X244000000Y-129367857D01*
X244000000Y-128153571D01*
X244714285Y-129653571D02*
X244714285Y-128153571D01*
X245571428Y-129653571D01*
X245571428Y-128153571D01*
X247071428Y-128225000D02*
X246928571Y-128153571D01*
X246714285Y-128153571D01*
X246500000Y-128225000D01*
X246357142Y-128367857D01*
X246285714Y-128510714D01*
X246214285Y-128796428D01*
X246214285Y-129010714D01*
X246285714Y-129296428D01*
X246357142Y-129439285D01*
X246500000Y-129582142D01*
X246714285Y-129653571D01*
X246857142Y-129653571D01*
X247071428Y-129582142D01*
X247142857Y-129510714D01*
X247142857Y-129010714D01*
X246857142Y-129010714D01*
X248928571Y-129653571D02*
X248928571Y-128153571D01*
X249428571Y-129225000D01*
X249928571Y-128153571D01*
X249928571Y-129653571D01*
X250642857Y-129653571D02*
X250642857Y-128153571D01*
X251214285Y-128153571D01*
X251357142Y-128225000D01*
X251428571Y-128296428D01*
X251500000Y-128439285D01*
X251500000Y-128653571D01*
X251428571Y-128796428D01*
X251357142Y-128867857D01*
X251214285Y-128939285D01*
X250642857Y-128939285D01*
X252428571Y-128153571D02*
X252571428Y-128153571D01*
X252714285Y-128225000D01*
X252785714Y-128296428D01*
X252857142Y-128439285D01*
X252928571Y-128725000D01*
X252928571Y-129082142D01*
X252857142Y-129367857D01*
X252785714Y-129510714D01*
X252714285Y-129582142D01*
X252571428Y-129653571D01*
X252428571Y-129653571D01*
X252285714Y-129582142D01*
X252214285Y-129510714D01*
X252142857Y-129367857D01*
X252071428Y-129082142D01*
X252071428Y-128725000D01*
X252142857Y-128439285D01*
X252214285Y-128296428D01*
X252285714Y-128225000D01*
X252428571Y-128153571D01*
X253500000Y-128296428D02*
X253571428Y-128225000D01*
X253714285Y-128153571D01*
X254071428Y-128153571D01*
X254214285Y-128225000D01*
X254285714Y-128296428D01*
X254357142Y-128439285D01*
X254357142Y-128582142D01*
X254285714Y-128796428D01*
X253428571Y-129653571D01*
X254357142Y-129653571D01*
X255785714Y-129653571D02*
X254928571Y-129653571D01*
X255357142Y-129653571D02*
X255357142Y-128153571D01*
X255214285Y-128367857D01*
X255071428Y-128510714D01*
X254928571Y-128582142D01*
X256285714Y-128153571D02*
X257285714Y-128153571D01*
X256642857Y-129653571D01*
X257857142Y-129653571D02*
X257857142Y-128153571D01*
X258714285Y-129653571D01*
X258714285Y-128153571D01*
X259357142Y-129582142D02*
X259571428Y-129653571D01*
X259928571Y-129653571D01*
X260071428Y-129582142D01*
X260142857Y-129510714D01*
X260214285Y-129367857D01*
X260214285Y-129225000D01*
X260142857Y-129082142D01*
X260071428Y-129010714D01*
X259928571Y-128939285D01*
X259642857Y-128867857D01*
X259500000Y-128796428D01*
X259428571Y-128725000D01*
X259357142Y-128582142D01*
X259357142Y-128439285D01*
X259428571Y-128296428D01*
X259500000Y-128225000D01*
X259642857Y-128153571D01*
X260000000Y-128153571D01*
X260214285Y-128225000D01*
X261142857Y-128153571D02*
X261285714Y-128153571D01*
X261428571Y-128225000D01*
X261500000Y-128296428D01*
X261571428Y-128439285D01*
X261642857Y-128725000D01*
X261642857Y-129082142D01*
X261571428Y-129367857D01*
X261500000Y-129510714D01*
X261428571Y-129582142D01*
X261285714Y-129653571D01*
X261142857Y-129653571D01*
X261000000Y-129582142D01*
X260928571Y-129510714D01*
X260857142Y-129367857D01*
X260785714Y-129082142D01*
X260785714Y-128725000D01*
X260857142Y-128439285D01*
X260928571Y-128296428D01*
X261000000Y-128225000D01*
X261142857Y-128153571D01*
X262571428Y-128153571D02*
X262714285Y-128153571D01*
X262857142Y-128225000D01*
X262928571Y-128296428D01*
X263000000Y-128439285D01*
X263071428Y-128725000D01*
X263071428Y-129082142D01*
X263000000Y-129367857D01*
X262928571Y-129510714D01*
X262857142Y-129582142D01*
X262714285Y-129653571D01*
X262571428Y-129653571D01*
X262428571Y-129582142D01*
X262357142Y-129510714D01*
X262285714Y-129367857D01*
X262214285Y-129082142D01*
X262214285Y-128725000D01*
X262285714Y-128439285D01*
X262357142Y-128296428D01*
X262428571Y-128225000D01*
X262571428Y-128153571D01*
X263642857Y-128296428D02*
X263714285Y-128225000D01*
X263857142Y-128153571D01*
X264214285Y-128153571D01*
X264357142Y-128225000D01*
X264428571Y-128296428D01*
X264500000Y-128439285D01*
X264500000Y-128582142D01*
X264428571Y-128796428D01*
X263571428Y-129653571D01*
X264500000Y-129653571D01*
X265071428Y-129225000D02*
X265785714Y-129225000D01*
X264928571Y-129653571D02*
X265428571Y-128153571D01*
X265928571Y-129653571D01*
X230214285Y-132203571D02*
X229500000Y-132203571D01*
X229500000Y-130703571D01*
X230714285Y-132203571D02*
X230714285Y-130703571D01*
X231214285Y-130703571D02*
X232071428Y-130703571D01*
X231642857Y-132203571D02*
X231642857Y-130703571D01*
X232571428Y-132203571D02*
X232571428Y-130703571D01*
X232571428Y-131417857D02*
X233428571Y-131417857D01*
X233428571Y-132203571D02*
X233428571Y-130703571D01*
X234142857Y-132203571D02*
X234142857Y-130703571D01*
X234857142Y-130703571D02*
X234857142Y-131917857D01*
X234928571Y-132060714D01*
X235000000Y-132132142D01*
X235142857Y-132203571D01*
X235428571Y-132203571D01*
X235571428Y-132132142D01*
X235642857Y-132060714D01*
X235714285Y-131917857D01*
X235714285Y-130703571D01*
X236428571Y-132203571D02*
X236428571Y-130703571D01*
X236928571Y-131775000D01*
X237428571Y-130703571D01*
X237428571Y-132203571D01*
X239285714Y-132203571D02*
X239285714Y-130703571D01*
X239785714Y-131775000D01*
X240285714Y-130703571D01*
X240285714Y-132203571D01*
X241285714Y-130703571D02*
X241571428Y-130703571D01*
X241714285Y-130775000D01*
X241857142Y-130917857D01*
X241928571Y-131203571D01*
X241928571Y-131703571D01*
X241857142Y-131989285D01*
X241714285Y-132132142D01*
X241571428Y-132203571D01*
X241285714Y-132203571D01*
X241142857Y-132132142D01*
X241000000Y-131989285D01*
X240928571Y-131703571D01*
X240928571Y-131203571D01*
X241000000Y-130917857D01*
X241142857Y-130775000D01*
X241285714Y-130703571D01*
X242571428Y-132203571D02*
X242571428Y-130703571D01*
X242928571Y-130703571D01*
X243142857Y-130775000D01*
X243285714Y-130917857D01*
X243357142Y-131060714D01*
X243428571Y-131346428D01*
X243428571Y-131560714D01*
X243357142Y-131846428D01*
X243285714Y-131989285D01*
X243142857Y-132132142D01*
X242928571Y-132203571D01*
X242571428Y-132203571D01*
X244071428Y-130703571D02*
X244071428Y-131917857D01*
X244142857Y-132060714D01*
X244214285Y-132132142D01*
X244357142Y-132203571D01*
X244642857Y-132203571D01*
X244785714Y-132132142D01*
X244857142Y-132060714D01*
X244928571Y-131917857D01*
X244928571Y-130703571D01*
X246357142Y-132203571D02*
X245642857Y-132203571D01*
X245642857Y-130703571D01*
X246857142Y-131417857D02*
X247357142Y-131417857D01*
X247571428Y-132203571D02*
X246857142Y-132203571D01*
X246857142Y-130703571D01*
X247571428Y-130703571D01*
X248142857Y-132132142D02*
X248357142Y-132203571D01*
X248714285Y-132203571D01*
X248857142Y-132132142D01*
X248928571Y-132060714D01*
X249000000Y-131917857D01*
X249000000Y-131775000D01*
X248928571Y-131632142D01*
X248857142Y-131560714D01*
X248714285Y-131489285D01*
X248428571Y-131417857D01*
X248285714Y-131346428D01*
X248214285Y-131275000D01*
X248142857Y-131132142D01*
X248142857Y-130989285D01*
X248214285Y-130846428D01*
X248285714Y-130775000D01*
X248428571Y-130703571D01*
X248785714Y-130703571D01*
X249000000Y-130775000D01*
X251214285Y-132775000D02*
X251142857Y-132703571D01*
X251000000Y-132489285D01*
X250928571Y-132346428D01*
X250857142Y-132132142D01*
X250785714Y-131775000D01*
X250785714Y-131489285D01*
X250857142Y-131132142D01*
X250928571Y-130917857D01*
X251000000Y-130775000D01*
X251142857Y-130560714D01*
X251214285Y-130489285D01*
X252500000Y-132203571D02*
X251785714Y-132203571D01*
X251785714Y-130703571D01*
X252857142Y-130703571D02*
X253857142Y-132203571D01*
X253857142Y-130703571D02*
X252857142Y-132203571D01*
X255071428Y-130703571D02*
X254785714Y-130703571D01*
X254642857Y-130775000D01*
X254571428Y-130846428D01*
X254428571Y-131060714D01*
X254357142Y-131346428D01*
X254357142Y-131917857D01*
X254428571Y-132060714D01*
X254500000Y-132132142D01*
X254642857Y-132203571D01*
X254928571Y-132203571D01*
X255071428Y-132132142D01*
X255142857Y-132060714D01*
X255214285Y-131917857D01*
X255214285Y-131560714D01*
X255142857Y-131417857D01*
X255071428Y-131346428D01*
X254928571Y-131275000D01*
X254642857Y-131275000D01*
X254500000Y-131346428D01*
X254428571Y-131417857D01*
X254357142Y-131560714D01*
X256071428Y-131346428D02*
X255928571Y-131275000D01*
X255857142Y-131203571D01*
X255785714Y-131060714D01*
X255785714Y-130989285D01*
X255857142Y-130846428D01*
X255928571Y-130775000D01*
X256071428Y-130703571D01*
X256357142Y-130703571D01*
X256500000Y-130775000D01*
X256571428Y-130846428D01*
X256642857Y-130989285D01*
X256642857Y-131060714D01*
X256571428Y-131203571D01*
X256500000Y-131275000D01*
X256357142Y-131346428D01*
X256071428Y-131346428D01*
X255928571Y-131417857D01*
X255857142Y-131489285D01*
X255785714Y-131632142D01*
X255785714Y-131917857D01*
X255857142Y-132060714D01*
X255928571Y-132132142D01*
X256071428Y-132203571D01*
X256357142Y-132203571D01*
X256500000Y-132132142D01*
X256571428Y-132060714D01*
X256642857Y-131917857D01*
X256642857Y-131632142D01*
X256571428Y-131489285D01*
X256500000Y-131417857D01*
X256357142Y-131346428D01*
X257285714Y-131632142D02*
X258428571Y-131632142D01*
X259928571Y-132203571D02*
X259071428Y-132203571D01*
X259500000Y-132203571D02*
X259500000Y-130703571D01*
X259357142Y-130917857D01*
X259214285Y-131060714D01*
X259071428Y-131132142D01*
X260857142Y-130703571D02*
X261000000Y-130703571D01*
X261142857Y-130775000D01*
X261214285Y-130846428D01*
X261285714Y-130989285D01*
X261357142Y-131275000D01*
X261357142Y-131632142D01*
X261285714Y-131917857D01*
X261214285Y-132060714D01*
X261142857Y-132132142D01*
X261000000Y-132203571D01*
X260857142Y-132203571D01*
X260714285Y-132132142D01*
X260642857Y-132060714D01*
X260571428Y-131917857D01*
X260500000Y-131632142D01*
X260500000Y-131275000D01*
X260571428Y-130989285D01*
X260642857Y-130846428D01*
X260714285Y-130775000D01*
X260857142Y-130703571D01*
X262214285Y-131346428D02*
X262071428Y-131275000D01*
X262000000Y-131203571D01*
X261928571Y-131060714D01*
X261928571Y-130989285D01*
X262000000Y-130846428D01*
X262071428Y-130775000D01*
X262214285Y-130703571D01*
X262500000Y-130703571D01*
X262642857Y-130775000D01*
X262714285Y-130846428D01*
X262785714Y-130989285D01*
X262785714Y-131060714D01*
X262714285Y-131203571D01*
X262642857Y-131275000D01*
X262500000Y-131346428D01*
X262214285Y-131346428D01*
X262071428Y-131417857D01*
X262000000Y-131489285D01*
X261928571Y-131632142D01*
X261928571Y-131917857D01*
X262000000Y-132060714D01*
X262071428Y-132132142D01*
X262214285Y-132203571D01*
X262500000Y-132203571D01*
X262642857Y-132132142D01*
X262714285Y-132060714D01*
X262785714Y-131917857D01*
X262785714Y-131632142D01*
X262714285Y-131489285D01*
X262642857Y-131417857D01*
X262500000Y-131346428D01*
X263285714Y-130703571D02*
X264285714Y-130703571D01*
X263642857Y-132203571D01*
X265571428Y-130703571D02*
X264857142Y-130703571D01*
X264785714Y-131417857D01*
X264857142Y-131346428D01*
X265000000Y-131275000D01*
X265357142Y-131275000D01*
X265500000Y-131346428D01*
X265571428Y-131417857D01*
X265642857Y-131560714D01*
X265642857Y-131917857D01*
X265571428Y-132060714D01*
X265500000Y-132132142D01*
X265357142Y-132203571D01*
X265000000Y-132203571D01*
X264857142Y-132132142D01*
X264785714Y-132060714D01*
X266357142Y-132203571D02*
X266642857Y-132203571D01*
X266785714Y-132132142D01*
X266857142Y-132060714D01*
X267000000Y-131846428D01*
X267071428Y-131560714D01*
X267071428Y-130989285D01*
X267000000Y-130846428D01*
X266928571Y-130775000D01*
X266785714Y-130703571D01*
X266500000Y-130703571D01*
X266357142Y-130775000D01*
X266285714Y-130846428D01*
X266214285Y-130989285D01*
X266214285Y-131346428D01*
X266285714Y-131489285D01*
X266357142Y-131560714D01*
X266500000Y-131632142D01*
X266785714Y-131632142D01*
X266928571Y-131560714D01*
X267000000Y-131489285D01*
X267071428Y-131346428D01*
X267571428Y-132775000D02*
X267642857Y-132703571D01*
X267785714Y-132489285D01*
X267857142Y-132346428D01*
X267928571Y-132132142D01*
X267999999Y-131775000D01*
X267999999Y-131489285D01*
X267928571Y-131132142D01*
X267857142Y-130917857D01*
X267785714Y-130775000D01*
X267642857Y-130560714D01*
X267571428Y-130489285D01*
X230928571Y-134325000D02*
X231642857Y-134325000D01*
X230785714Y-134753571D02*
X231285714Y-133253571D01*
X231785714Y-134753571D01*
X232285714Y-134610714D02*
X232357142Y-134682142D01*
X232285714Y-134753571D01*
X232214285Y-134682142D01*
X232285714Y-134610714D01*
X232285714Y-134753571D01*
X233000000Y-134753571D02*
X233000000Y-133253571D01*
X233857142Y-134753571D02*
X233214285Y-133896428D01*
X233857142Y-133253571D02*
X233000000Y-134110714D01*
X234500000Y-134610714D02*
X234571428Y-134682142D01*
X234500000Y-134753571D01*
X234428571Y-134682142D01*
X234500000Y-134610714D01*
X234500000Y-134753571D01*
X235142857Y-134325000D02*
X235857142Y-134325000D01*
X235000000Y-134753571D02*
X235500000Y-133253571D01*
X236000000Y-134753571D01*
X236500000Y-134610714D02*
X236571428Y-134682142D01*
X236500000Y-134753571D01*
X236428571Y-134682142D01*
X236500000Y-134610714D01*
X236500000Y-134753571D01*
X238285714Y-133253571D02*
X238285714Y-133539285D01*
X238857142Y-133253571D02*
X238857142Y-133539285D01*
X240142857Y-133753571D02*
X240142857Y-134753571D01*
X239785714Y-133182142D02*
X239428571Y-134253571D01*
X240357142Y-134253571D01*
X240785714Y-133253571D02*
X241785714Y-133253571D01*
X241142857Y-134753571D01*
X243428571Y-134325000D02*
X244142857Y-134325000D01*
X243285714Y-134753571D02*
X243785714Y-133253571D01*
X244285714Y-134753571D01*
X244785714Y-134753571D02*
X244785714Y-133253571D01*
X245428571Y-134753571D02*
X245428571Y-133967857D01*
X245357142Y-133825000D01*
X245214285Y-133753571D01*
X245000000Y-133753571D01*
X244857142Y-133825000D01*
X244785714Y-133896428D01*
X247785714Y-133967857D02*
X247285714Y-133967857D01*
X247285714Y-134753571D02*
X247285714Y-133253571D01*
X248000000Y-133253571D01*
X248785714Y-134753571D02*
X248642857Y-134682142D01*
X248571428Y-134610714D01*
X248500000Y-134467857D01*
X248500000Y-134039285D01*
X248571428Y-133896428D01*
X248642857Y-133825000D01*
X248785714Y-133753571D01*
X249000000Y-133753571D01*
X249142857Y-133825000D01*
X249214285Y-133896428D01*
X249285714Y-134039285D01*
X249285714Y-134467857D01*
X249214285Y-134610714D01*
X249142857Y-134682142D01*
X249000000Y-134753571D01*
X248785714Y-134753571D01*
X249928571Y-134753571D02*
X249928571Y-133253571D01*
X250428571Y-134325000D01*
X250928571Y-133253571D01*
X250928571Y-134753571D01*
X251857142Y-134753571D02*
X251714285Y-134682142D01*
X251642857Y-134610714D01*
X251571428Y-134467857D01*
X251571428Y-134039285D01*
X251642857Y-133896428D01*
X251714285Y-133825000D01*
X251857142Y-133753571D01*
X252071428Y-133753571D01*
X252214285Y-133825000D01*
X252285714Y-133896428D01*
X252357142Y-134039285D01*
X252357142Y-134467857D01*
X252285714Y-134610714D01*
X252214285Y-134682142D01*
X252071428Y-134753571D01*
X251857142Y-134753571D01*
X253857142Y-134610714D02*
X253785714Y-134682142D01*
X253571428Y-134753571D01*
X253428571Y-134753571D01*
X253214285Y-134682142D01*
X253071428Y-134539285D01*
X253000000Y-134396428D01*
X252928571Y-134110714D01*
X252928571Y-133896428D01*
X253000000Y-133610714D01*
X253071428Y-133467857D01*
X253214285Y-133325000D01*
X253428571Y-133253571D01*
X253571428Y-133253571D01*
X253785714Y-133325000D01*
X253857142Y-133396428D01*
X254714285Y-134753571D02*
X254571428Y-134682142D01*
X254500000Y-134610714D01*
X254428571Y-134467857D01*
X254428571Y-134039285D01*
X254500000Y-133896428D01*
X254571428Y-133825000D01*
X254714285Y-133753571D01*
X254928571Y-133753571D01*
X255071428Y-133825000D01*
X255142857Y-133896428D01*
X255214285Y-134039285D01*
X255214285Y-134467857D01*
X255142857Y-134610714D01*
X255071428Y-134682142D01*
X254928571Y-134753571D01*
X254714285Y-134753571D01*
X257000000Y-134753571D02*
X257000000Y-133253571D01*
X257500000Y-134325000D01*
X258000000Y-133253571D01*
X258000000Y-134753571D01*
X258928571Y-134753571D02*
X258785714Y-134682142D01*
X258714285Y-134610714D01*
X258642857Y-134467857D01*
X258642857Y-134039285D01*
X258714285Y-133896428D01*
X258785714Y-133825000D01*
X258928571Y-133753571D01*
X259142857Y-133753571D01*
X259285714Y-133825000D01*
X259357142Y-133896428D01*
X259428571Y-134039285D01*
X259428571Y-134467857D01*
X259357142Y-134610714D01*
X259285714Y-134682142D01*
X259142857Y-134753571D01*
X258928571Y-134753571D01*
X260714285Y-134753571D02*
X260714285Y-133253571D01*
X260714285Y-134682142D02*
X260571428Y-134753571D01*
X260285714Y-134753571D01*
X260142857Y-134682142D01*
X260071428Y-134610714D01*
X260000000Y-134467857D01*
X260000000Y-134039285D01*
X260071428Y-133896428D01*
X260142857Y-133825000D01*
X260285714Y-133753571D01*
X260571428Y-133753571D01*
X260714285Y-133825000D01*
X262071428Y-133753571D02*
X262071428Y-134753571D01*
X261428571Y-133753571D02*
X261428571Y-134539285D01*
X261500000Y-134682142D01*
X261642857Y-134753571D01*
X261857142Y-134753571D01*
X262000000Y-134682142D01*
X262071428Y-134610714D01*
X263000000Y-134753571D02*
X262857142Y-134682142D01*
X262785714Y-134539285D01*
X262785714Y-133253571D01*
X264142857Y-134682142D02*
X264000000Y-134753571D01*
X263714285Y-134753571D01*
X263571428Y-134682142D01*
X263500000Y-134539285D01*
X263500000Y-133967857D01*
X263571428Y-133825000D01*
X263714285Y-133753571D01*
X264000000Y-133753571D01*
X264142857Y-133825000D01*
X264214285Y-133967857D01*
X264214285Y-134110714D01*
X263500000Y-134253571D01*
X264785714Y-134682142D02*
X264928571Y-134753571D01*
X265214285Y-134753571D01*
X265357142Y-134682142D01*
X265428571Y-134539285D01*
X265428571Y-134467857D01*
X265357142Y-134325000D01*
X265214285Y-134253571D01*
X265000000Y-134253571D01*
X264857142Y-134182142D01*
X264785714Y-134039285D01*
X264785714Y-133967857D01*
X264857142Y-133825000D01*
X265000000Y-133753571D01*
X265214285Y-133753571D01*
X265357142Y-133825000D01*
X266000000Y-133253571D02*
X266000000Y-133539285D01*
X266571428Y-133253571D02*
X266571428Y-133539285D01*
X130750000Y-104628571D02*
X130750000Y-103128571D01*
X131250000Y-104200000D01*
X131750000Y-103128571D01*
X131750000Y-104628571D01*
X132392857Y-104200000D02*
X133107142Y-104200000D01*
X132250000Y-104628571D02*
X132750000Y-103128571D01*
X133250000Y-104628571D01*
X134535714Y-103200000D02*
X134392857Y-103128571D01*
X134178571Y-103128571D01*
X133964285Y-103200000D01*
X133821428Y-103342857D01*
X133750000Y-103485714D01*
X133678571Y-103771428D01*
X133678571Y-103985714D01*
X133750000Y-104271428D01*
X133821428Y-104414285D01*
X133964285Y-104557142D01*
X134178571Y-104628571D01*
X134321428Y-104628571D01*
X134535714Y-104557142D01*
X134607142Y-104485714D01*
X134607142Y-103985714D01*
X134321428Y-103985714D01*
X135250000Y-104628571D02*
X135250000Y-103128571D01*
X136821428Y-104485714D02*
X136750000Y-104557142D01*
X136535714Y-104628571D01*
X136392857Y-104628571D01*
X136178571Y-104557142D01*
X136035714Y-104414285D01*
X135964285Y-104271428D01*
X135892857Y-103985714D01*
X135892857Y-103771428D01*
X135964285Y-103485714D01*
X136035714Y-103342857D01*
X136178571Y-103200000D01*
X136392857Y-103128571D01*
X136535714Y-103128571D01*
X136750000Y-103200000D01*
X136821428Y-103271428D01*
X130250000Y-107107142D02*
X130464285Y-107178571D01*
X130821428Y-107178571D01*
X130964285Y-107107142D01*
X131035714Y-107035714D01*
X131107142Y-106892857D01*
X131107142Y-106750000D01*
X131035714Y-106607142D01*
X130964285Y-106535714D01*
X130821428Y-106464285D01*
X130535714Y-106392857D01*
X130392857Y-106321428D01*
X130321428Y-106250000D01*
X130250000Y-106107142D01*
X130250000Y-105964285D01*
X130321428Y-105821428D01*
X130392857Y-105750000D01*
X130535714Y-105678571D01*
X130892857Y-105678571D01*
X131107142Y-105750000D01*
X131750000Y-107178571D02*
X131750000Y-105678571D01*
X132250000Y-106750000D01*
X132750000Y-105678571D01*
X132750000Y-107178571D01*
X133750000Y-105678571D02*
X134035714Y-105678571D01*
X134178571Y-105750000D01*
X134321428Y-105892857D01*
X134392857Y-106178571D01*
X134392857Y-106678571D01*
X134321428Y-106964285D01*
X134178571Y-107107142D01*
X134035714Y-107178571D01*
X133750000Y-107178571D01*
X133607142Y-107107142D01*
X133464285Y-106964285D01*
X133392857Y-106678571D01*
X133392857Y-106178571D01*
X133464285Y-105892857D01*
X133607142Y-105750000D01*
X133750000Y-105678571D01*
X135035714Y-107178571D02*
X135035714Y-105678571D01*
X135892857Y-107178571D02*
X135250000Y-106321428D01*
X135892857Y-105678571D02*
X135035714Y-106535714D01*
X136535714Y-106392857D02*
X137035714Y-106392857D01*
X137250000Y-107178571D02*
X136535714Y-107178571D01*
X136535714Y-105678571D01*
X137250000Y-105678571D01*
X131250000Y-109728571D02*
X131250000Y-108228571D01*
X131250000Y-108942857D02*
X132107142Y-108942857D01*
X132107142Y-109728571D02*
X132107142Y-108228571D01*
X133107142Y-108228571D02*
X133392857Y-108228571D01*
X133535714Y-108300000D01*
X133678571Y-108442857D01*
X133750000Y-108728571D01*
X133750000Y-109228571D01*
X133678571Y-109514285D01*
X133535714Y-109657142D01*
X133392857Y-109728571D01*
X133107142Y-109728571D01*
X132964285Y-109657142D01*
X132821428Y-109514285D01*
X132750000Y-109228571D01*
X132750000Y-108728571D01*
X132821428Y-108442857D01*
X132964285Y-108300000D01*
X133107142Y-108228571D01*
X135107142Y-109728571D02*
X134392857Y-109728571D01*
X134392857Y-108228571D01*
X135607142Y-108942857D02*
X136107142Y-108942857D01*
X136321428Y-109728571D02*
X135607142Y-109728571D01*
X135607142Y-108228571D01*
X136321428Y-108228571D01*
X314214285Y-125285714D02*
X314142857Y-125357142D01*
X313928571Y-125428571D01*
X313785714Y-125428571D01*
X313571428Y-125357142D01*
X313428571Y-125214285D01*
X313357142Y-125071428D01*
X313285714Y-124785714D01*
X313285714Y-124571428D01*
X313357142Y-124285714D01*
X313428571Y-124142857D01*
X313571428Y-124000000D01*
X313785714Y-123928571D01*
X313928571Y-123928571D01*
X314142857Y-124000000D01*
X314214285Y-124071428D01*
X314857142Y-124642857D02*
X315357142Y-124642857D01*
X315571428Y-125428571D02*
X314857142Y-125428571D01*
X314857142Y-123928571D01*
X315571428Y-123928571D01*
X316928571Y-125428571D02*
X316214285Y-125428571D01*
X316214285Y-123928571D01*
X318142857Y-125428571D02*
X317428571Y-125428571D01*
X317428571Y-123928571D01*
X319428571Y-125428571D02*
X318571428Y-125428571D01*
X319000000Y-125428571D02*
X319000000Y-123928571D01*
X318857142Y-124142857D01*
X318714285Y-124285714D01*
X318571428Y-124357142D01*
X320857142Y-125428571D02*
X320000000Y-125428571D01*
X320428571Y-125428571D02*
X320428571Y-123928571D01*
X320285714Y-124142857D01*
X320142857Y-124285714D01*
X320000000Y-124357142D01*
X321500000Y-124857142D02*
X322642857Y-124857142D01*
X322071428Y-125428571D02*
X322071428Y-124285714D01*
X272928571Y-125285714D02*
X272857142Y-125357142D01*
X272642857Y-125428571D01*
X272500000Y-125428571D01*
X272285714Y-125357142D01*
X272142857Y-125214285D01*
X272071428Y-125071428D01*
X272000000Y-124785714D01*
X272000000Y-124571428D01*
X272071428Y-124285714D01*
X272142857Y-124142857D01*
X272285714Y-124000000D01*
X272500000Y-123928571D01*
X272642857Y-123928571D01*
X272857142Y-124000000D01*
X272928571Y-124071428D01*
X273571428Y-124642857D02*
X274071428Y-124642857D01*
X274285714Y-125428571D02*
X273571428Y-125428571D01*
X273571428Y-123928571D01*
X274285714Y-123928571D01*
X275642857Y-125428571D02*
X274928571Y-125428571D01*
X274928571Y-123928571D01*
X276857142Y-125428571D02*
X276142857Y-125428571D01*
X276142857Y-123928571D01*
X277428571Y-125428571D02*
X277714285Y-125428571D01*
X277857142Y-125357142D01*
X277928571Y-125285714D01*
X278071428Y-125071428D01*
X278142857Y-124785714D01*
X278142857Y-124214285D01*
X278071428Y-124071428D01*
X278000000Y-124000000D01*
X277857142Y-123928571D01*
X277571428Y-123928571D01*
X277428571Y-124000000D01*
X277357142Y-124071428D01*
X277285714Y-124214285D01*
X277285714Y-124571428D01*
X277357142Y-124714285D01*
X277428571Y-124785714D01*
X277571428Y-124857142D01*
X277857142Y-124857142D01*
X278000000Y-124785714D01*
X278071428Y-124714285D01*
X278142857Y-124571428D01*
X278785714Y-124857142D02*
X279928571Y-124857142D01*
X279357142Y-125428571D02*
X279357142Y-124285714D01*
X218928571Y-125285714D02*
X218857142Y-125357142D01*
X218642857Y-125428571D01*
X218500000Y-125428571D01*
X218285714Y-125357142D01*
X218142857Y-125214285D01*
X218071428Y-125071428D01*
X218000000Y-124785714D01*
X218000000Y-124571428D01*
X218071428Y-124285714D01*
X218142857Y-124142857D01*
X218285714Y-124000000D01*
X218500000Y-123928571D01*
X218642857Y-123928571D01*
X218857142Y-124000000D01*
X218928571Y-124071428D01*
X219571428Y-124642857D02*
X220071428Y-124642857D01*
X220285714Y-125428571D02*
X219571428Y-125428571D01*
X219571428Y-123928571D01*
X220285714Y-123928571D01*
X221642857Y-125428571D02*
X220928571Y-125428571D01*
X220928571Y-123928571D01*
X222857142Y-125428571D02*
X222142857Y-125428571D01*
X222142857Y-123928571D01*
X223214285Y-123928571D02*
X224214285Y-123928571D01*
X223571428Y-125428571D01*
X224785714Y-124857142D02*
X225928571Y-124857142D01*
X225357142Y-125428571D02*
X225357142Y-124285714D01*
X163678571Y-125285714D02*
X163607142Y-125357142D01*
X163392857Y-125428571D01*
X163250000Y-125428571D01*
X163035714Y-125357142D01*
X162892857Y-125214285D01*
X162821428Y-125071428D01*
X162750000Y-124785714D01*
X162750000Y-124571428D01*
X162821428Y-124285714D01*
X162892857Y-124142857D01*
X163035714Y-124000000D01*
X163250000Y-123928571D01*
X163392857Y-123928571D01*
X163607142Y-124000000D01*
X163678571Y-124071428D01*
X164321428Y-124642857D02*
X164821428Y-124642857D01*
X165035714Y-125428571D02*
X164321428Y-125428571D01*
X164321428Y-123928571D01*
X165035714Y-123928571D01*
X166392857Y-125428571D02*
X165678571Y-125428571D01*
X165678571Y-123928571D01*
X167607142Y-125428571D02*
X166892857Y-125428571D01*
X166892857Y-123928571D01*
X168821428Y-123928571D02*
X168107142Y-123928571D01*
X168035714Y-124642857D01*
X168107142Y-124571428D01*
X168250000Y-124500000D01*
X168607142Y-124500000D01*
X168750000Y-124571428D01*
X168821428Y-124642857D01*
X168892857Y-124785714D01*
X168892857Y-125142857D01*
X168821428Y-125285714D01*
X168750000Y-125357142D01*
X168607142Y-125428571D01*
X168250000Y-125428571D01*
X168107142Y-125357142D01*
X168035714Y-125285714D01*
X169535714Y-124857142D02*
X170678571Y-124857142D01*
X170107142Y-125428571D02*
X170107142Y-124285714D01*
X109678571Y-125285714D02*
X109607142Y-125357142D01*
X109392857Y-125428571D01*
X109250000Y-125428571D01*
X109035714Y-125357142D01*
X108892857Y-125214285D01*
X108821428Y-125071428D01*
X108750000Y-124785714D01*
X108750000Y-124571428D01*
X108821428Y-124285714D01*
X108892857Y-124142857D01*
X109035714Y-124000000D01*
X109250000Y-123928571D01*
X109392857Y-123928571D01*
X109607142Y-124000000D01*
X109678571Y-124071428D01*
X110321428Y-124642857D02*
X110821428Y-124642857D01*
X111035714Y-125428571D02*
X110321428Y-125428571D01*
X110321428Y-123928571D01*
X111035714Y-123928571D01*
X112392857Y-125428571D02*
X111678571Y-125428571D01*
X111678571Y-123928571D01*
X113607142Y-125428571D02*
X112892857Y-125428571D01*
X112892857Y-123928571D01*
X113964285Y-123928571D02*
X114892857Y-123928571D01*
X114392857Y-124500000D01*
X114607142Y-124500000D01*
X114750000Y-124571428D01*
X114821428Y-124642857D01*
X114892857Y-124785714D01*
X114892857Y-125142857D01*
X114821428Y-125285714D01*
X114750000Y-125357142D01*
X114607142Y-125428571D01*
X114178571Y-125428571D01*
X114035714Y-125357142D01*
X113964285Y-125285714D01*
X115535714Y-124857142D02*
X116678571Y-124857142D01*
X116107142Y-125428571D02*
X116107142Y-124285714D01*
X72928571Y-125285714D02*
X72857142Y-125357142D01*
X72642857Y-125428571D01*
X72500000Y-125428571D01*
X72285714Y-125357142D01*
X72142857Y-125214285D01*
X72071428Y-125071428D01*
X72000000Y-124785714D01*
X72000000Y-124571428D01*
X72071428Y-124285714D01*
X72142857Y-124142857D01*
X72285714Y-124000000D01*
X72500000Y-123928571D01*
X72642857Y-123928571D01*
X72857142Y-124000000D01*
X72928571Y-124071428D01*
X73571428Y-124642857D02*
X74071428Y-124642857D01*
X74285714Y-125428571D02*
X73571428Y-125428571D01*
X73571428Y-123928571D01*
X74285714Y-123928571D01*
X75642857Y-125428571D02*
X74928571Y-125428571D01*
X74928571Y-123928571D01*
X76857142Y-125428571D02*
X76142857Y-125428571D01*
X76142857Y-123928571D01*
X77285714Y-124071428D02*
X77357142Y-124000000D01*
X77500000Y-123928571D01*
X77857142Y-123928571D01*
X78000000Y-124000000D01*
X78071428Y-124071428D01*
X78142857Y-124214285D01*
X78142857Y-124357142D01*
X78071428Y-124571428D01*
X77214285Y-125428571D01*
X78142857Y-125428571D01*
X78785714Y-124857142D02*
X79928571Y-124857142D01*
X79357142Y-125428571D02*
X79357142Y-124285714D01*
X313714285Y-88285714D02*
X313642857Y-88357142D01*
X313428571Y-88428571D01*
X313285714Y-88428571D01*
X313071428Y-88357142D01*
X312928571Y-88214285D01*
X312857142Y-88071428D01*
X312785714Y-87785714D01*
X312785714Y-87571428D01*
X312857142Y-87285714D01*
X312928571Y-87142857D01*
X313071428Y-87000000D01*
X313285714Y-86928571D01*
X313428571Y-86928571D01*
X313642857Y-87000000D01*
X313714285Y-87071428D01*
X314357142Y-87642857D02*
X314857142Y-87642857D01*
X315071428Y-88428571D02*
X314357142Y-88428571D01*
X314357142Y-86928571D01*
X315071428Y-86928571D01*
X316428571Y-88428571D02*
X315714285Y-88428571D01*
X315714285Y-86928571D01*
X317642857Y-88428571D02*
X316928571Y-88428571D01*
X316928571Y-86928571D01*
X318928571Y-88428571D02*
X318071428Y-88428571D01*
X318500000Y-88428571D02*
X318500000Y-86928571D01*
X318357142Y-87142857D01*
X318214285Y-87285714D01*
X318071428Y-87357142D01*
X319500000Y-87071428D02*
X319571428Y-87000000D01*
X319714285Y-86928571D01*
X320071428Y-86928571D01*
X320214285Y-87000000D01*
X320285714Y-87071428D01*
X320357142Y-87214285D01*
X320357142Y-87357142D01*
X320285714Y-87571428D01*
X319428571Y-88428571D01*
X320357142Y-88428571D01*
X321000000Y-87857142D02*
X322142857Y-87857142D01*
X321571428Y-88428571D02*
X321571428Y-87285714D01*
X299214285Y-88285714D02*
X299142857Y-88357142D01*
X298928571Y-88428571D01*
X298785714Y-88428571D01*
X298571428Y-88357142D01*
X298428571Y-88214285D01*
X298357142Y-88071428D01*
X298285714Y-87785714D01*
X298285714Y-87571428D01*
X298357142Y-87285714D01*
X298428571Y-87142857D01*
X298571428Y-87000000D01*
X298785714Y-86928571D01*
X298928571Y-86928571D01*
X299142857Y-87000000D01*
X299214285Y-87071428D01*
X299857142Y-87642857D02*
X300357142Y-87642857D01*
X300571428Y-88428571D02*
X299857142Y-88428571D01*
X299857142Y-86928571D01*
X300571428Y-86928571D01*
X301928571Y-88428571D02*
X301214285Y-88428571D01*
X301214285Y-86928571D01*
X303142857Y-88428571D02*
X302428571Y-88428571D01*
X302428571Y-86928571D01*
X304428571Y-88428571D02*
X303571428Y-88428571D01*
X304000000Y-88428571D02*
X304000000Y-86928571D01*
X303857142Y-87142857D01*
X303714285Y-87285714D01*
X303571428Y-87357142D01*
X305357142Y-86928571D02*
X305500000Y-86928571D01*
X305642857Y-87000000D01*
X305714285Y-87071428D01*
X305785714Y-87214285D01*
X305857142Y-87500000D01*
X305857142Y-87857142D01*
X305785714Y-88142857D01*
X305714285Y-88285714D01*
X305642857Y-88357142D01*
X305500000Y-88428571D01*
X305357142Y-88428571D01*
X305214285Y-88357142D01*
X305142857Y-88285714D01*
X305071428Y-88142857D01*
X305000000Y-87857142D01*
X305000000Y-87500000D01*
X305071428Y-87214285D01*
X305142857Y-87071428D01*
X305214285Y-87000000D01*
X305357142Y-86928571D01*
X306500000Y-87857142D02*
X307642857Y-87857142D01*
X307071428Y-88428571D02*
X307071428Y-87285714D01*
X245178571Y-88285714D02*
X245107142Y-88357142D01*
X244892857Y-88428571D01*
X244750000Y-88428571D01*
X244535714Y-88357142D01*
X244392857Y-88214285D01*
X244321428Y-88071428D01*
X244250000Y-87785714D01*
X244250000Y-87571428D01*
X244321428Y-87285714D01*
X244392857Y-87142857D01*
X244535714Y-87000000D01*
X244750000Y-86928571D01*
X244892857Y-86928571D01*
X245107142Y-87000000D01*
X245178571Y-87071428D01*
X245821428Y-87642857D02*
X246321428Y-87642857D01*
X246535714Y-88428571D02*
X245821428Y-88428571D01*
X245821428Y-86928571D01*
X246535714Y-86928571D01*
X247892857Y-88428571D02*
X247178571Y-88428571D01*
X247178571Y-86928571D01*
X249107142Y-88428571D02*
X248392857Y-88428571D01*
X248392857Y-86928571D01*
X249821428Y-87571428D02*
X249678571Y-87500000D01*
X249607142Y-87428571D01*
X249535714Y-87285714D01*
X249535714Y-87214285D01*
X249607142Y-87071428D01*
X249678571Y-87000000D01*
X249821428Y-86928571D01*
X250107142Y-86928571D01*
X250250000Y-87000000D01*
X250321428Y-87071428D01*
X250392857Y-87214285D01*
X250392857Y-87285714D01*
X250321428Y-87428571D01*
X250250000Y-87500000D01*
X250107142Y-87571428D01*
X249821428Y-87571428D01*
X249678571Y-87642857D01*
X249607142Y-87714285D01*
X249535714Y-87857142D01*
X249535714Y-88142857D01*
X249607142Y-88285714D01*
X249678571Y-88357142D01*
X249821428Y-88428571D01*
X250107142Y-88428571D01*
X250250000Y-88357142D01*
X250321428Y-88285714D01*
X250392857Y-88142857D01*
X250392857Y-87857142D01*
X250321428Y-87714285D01*
X250250000Y-87642857D01*
X250107142Y-87571428D01*
X251035714Y-87857142D02*
X252178571Y-87857142D01*
X251607142Y-88428571D02*
X251607142Y-87285714D01*
X190928571Y-88285714D02*
X190857142Y-88357142D01*
X190642857Y-88428571D01*
X190500000Y-88428571D01*
X190285714Y-88357142D01*
X190142857Y-88214285D01*
X190071428Y-88071428D01*
X190000000Y-87785714D01*
X190000000Y-87571428D01*
X190071428Y-87285714D01*
X190142857Y-87142857D01*
X190285714Y-87000000D01*
X190500000Y-86928571D01*
X190642857Y-86928571D01*
X190857142Y-87000000D01*
X190928571Y-87071428D01*
X191571428Y-87642857D02*
X192071428Y-87642857D01*
X192285714Y-88428571D02*
X191571428Y-88428571D01*
X191571428Y-86928571D01*
X192285714Y-86928571D01*
X193642857Y-88428571D02*
X192928571Y-88428571D01*
X192928571Y-86928571D01*
X194857142Y-88428571D02*
X194142857Y-88428571D01*
X194142857Y-86928571D01*
X196000000Y-86928571D02*
X195714285Y-86928571D01*
X195571428Y-87000000D01*
X195500000Y-87071428D01*
X195357142Y-87285714D01*
X195285714Y-87571428D01*
X195285714Y-88142857D01*
X195357142Y-88285714D01*
X195428571Y-88357142D01*
X195571428Y-88428571D01*
X195857142Y-88428571D01*
X196000000Y-88357142D01*
X196071428Y-88285714D01*
X196142857Y-88142857D01*
X196142857Y-87785714D01*
X196071428Y-87642857D01*
X196000000Y-87571428D01*
X195857142Y-87500000D01*
X195571428Y-87500000D01*
X195428571Y-87571428D01*
X195357142Y-87642857D01*
X195285714Y-87785714D01*
X196785714Y-87857142D02*
X197928571Y-87857142D01*
X197357142Y-88428571D02*
X197357142Y-87285714D01*
X136928571Y-88285714D02*
X136857142Y-88357142D01*
X136642857Y-88428571D01*
X136500000Y-88428571D01*
X136285714Y-88357142D01*
X136142857Y-88214285D01*
X136071428Y-88071428D01*
X136000000Y-87785714D01*
X136000000Y-87571428D01*
X136071428Y-87285714D01*
X136142857Y-87142857D01*
X136285714Y-87000000D01*
X136500000Y-86928571D01*
X136642857Y-86928571D01*
X136857142Y-87000000D01*
X136928571Y-87071428D01*
X137571428Y-87642857D02*
X138071428Y-87642857D01*
X138285714Y-88428571D02*
X137571428Y-88428571D01*
X137571428Y-86928571D01*
X138285714Y-86928571D01*
X139642857Y-88428571D02*
X138928571Y-88428571D01*
X138928571Y-86928571D01*
X140857142Y-88428571D02*
X140142857Y-88428571D01*
X140142857Y-86928571D01*
X142000000Y-87428571D02*
X142000000Y-88428571D01*
X141642857Y-86857142D02*
X141285714Y-87928571D01*
X142214285Y-87928571D01*
X142785714Y-87857142D02*
X143928571Y-87857142D01*
X143357142Y-88428571D02*
X143357142Y-87285714D01*
X83428571Y-88285714D02*
X83357142Y-88357142D01*
X83142857Y-88428571D01*
X83000000Y-88428571D01*
X82785714Y-88357142D01*
X82642857Y-88214285D01*
X82571428Y-88071428D01*
X82500000Y-87785714D01*
X82500000Y-87571428D01*
X82571428Y-87285714D01*
X82642857Y-87142857D01*
X82785714Y-87000000D01*
X83000000Y-86928571D01*
X83142857Y-86928571D01*
X83357142Y-87000000D01*
X83428571Y-87071428D01*
X84071428Y-87642857D02*
X84571428Y-87642857D01*
X84785714Y-88428571D02*
X84071428Y-88428571D01*
X84071428Y-86928571D01*
X84785714Y-86928571D01*
X86142857Y-88428571D02*
X85428571Y-88428571D01*
X85428571Y-86928571D01*
X87357142Y-88428571D02*
X86642857Y-88428571D01*
X86642857Y-86928571D01*
X87785714Y-87071428D02*
X87857142Y-87000000D01*
X88000000Y-86928571D01*
X88357142Y-86928571D01*
X88500000Y-87000000D01*
X88571428Y-87071428D01*
X88642857Y-87214285D01*
X88642857Y-87357142D01*
X88571428Y-87571428D01*
X87714285Y-88428571D01*
X88642857Y-88428571D01*
X89285714Y-87857142D02*
X90428571Y-87857142D01*
X89857142Y-88428571D02*
X89857142Y-87285714D01*
X67928571Y-88285714D02*
X67857142Y-88357142D01*
X67642857Y-88428571D01*
X67500000Y-88428571D01*
X67285714Y-88357142D01*
X67142857Y-88214285D01*
X67071428Y-88071428D01*
X67000000Y-87785714D01*
X67000000Y-87571428D01*
X67071428Y-87285714D01*
X67142857Y-87142857D01*
X67285714Y-87000000D01*
X67500000Y-86928571D01*
X67642857Y-86928571D01*
X67857142Y-87000000D01*
X67928571Y-87071428D01*
X68571428Y-87642857D02*
X69071428Y-87642857D01*
X69285714Y-88428571D02*
X68571428Y-88428571D01*
X68571428Y-86928571D01*
X69285714Y-86928571D01*
X70642857Y-88428571D02*
X69928571Y-88428571D01*
X69928571Y-86928571D01*
X71857142Y-88428571D02*
X71142857Y-88428571D01*
X71142857Y-86928571D01*
X73142857Y-88428571D02*
X72285714Y-88428571D01*
X72714285Y-88428571D02*
X72714285Y-86928571D01*
X72571428Y-87142857D01*
X72428571Y-87285714D01*
X72285714Y-87357142D01*
X73785714Y-87857142D02*
X74928571Y-87857142D01*
X349052142Y-110028571D02*
X349052142Y-108528571D01*
X349909285Y-110028571D01*
X349909285Y-108528571D01*
X351480714Y-109885714D02*
X351409285Y-109957142D01*
X351195000Y-110028571D01*
X351052142Y-110028571D01*
X350837857Y-109957142D01*
X350695000Y-109814285D01*
X350623571Y-109671428D01*
X350552142Y-109385714D01*
X350552142Y-109171428D01*
X350623571Y-108885714D01*
X350695000Y-108742857D01*
X350837857Y-108600000D01*
X351052142Y-108528571D01*
X351195000Y-108528571D01*
X351409285Y-108600000D01*
X351480714Y-108671428D01*
X349837857Y-112578571D02*
X348980714Y-112578571D01*
X349409285Y-112578571D02*
X349409285Y-111078571D01*
X349266428Y-111292857D01*
X349123571Y-111435714D01*
X348980714Y-111507142D01*
X351266428Y-112578571D02*
X350409285Y-112578571D01*
X350837857Y-112578571D02*
X350837857Y-111078571D01*
X350695000Y-111292857D01*
X350552142Y-111435714D01*
X350409285Y-111507142D01*
X351909285Y-112007142D02*
X353052142Y-112007142D01*
X352480714Y-112578571D02*
X352480714Y-111435714D01*
X349123571Y-115128571D02*
X349409285Y-115128571D01*
X349552142Y-115057142D01*
X349623571Y-114985714D01*
X349766428Y-114771428D01*
X349837857Y-114485714D01*
X349837857Y-113914285D01*
X349766428Y-113771428D01*
X349695000Y-113700000D01*
X349552142Y-113628571D01*
X349266428Y-113628571D01*
X349123571Y-113700000D01*
X349052142Y-113771428D01*
X348980714Y-113914285D01*
X348980714Y-114271428D01*
X349052142Y-114414285D01*
X349123571Y-114485714D01*
X349266428Y-114557142D01*
X349552142Y-114557142D01*
X349695000Y-114485714D01*
X349766428Y-114414285D01*
X349837857Y-114271428D01*
X350480714Y-114557142D02*
X351623571Y-114557142D01*
X351052142Y-115128571D02*
X351052142Y-113985714D01*
X348909285Y-116178571D02*
X349909285Y-116178571D01*
X349266428Y-117678571D01*
X350480714Y-117107142D02*
X351623571Y-117107142D01*
X351052142Y-117678571D02*
X351052142Y-116535714D01*
X349766428Y-118728571D02*
X349052142Y-118728571D01*
X348980714Y-119442857D01*
X349052142Y-119371428D01*
X349195000Y-119300000D01*
X349552142Y-119300000D01*
X349695000Y-119371428D01*
X349766428Y-119442857D01*
X349837857Y-119585714D01*
X349837857Y-119942857D01*
X349766428Y-120085714D01*
X349695000Y-120157142D01*
X349552142Y-120228571D01*
X349195000Y-120228571D01*
X349052142Y-120157142D01*
X348980714Y-120085714D01*
X350480714Y-119657142D02*
X351623571Y-119657142D01*
X351052142Y-120228571D02*
X351052142Y-119085714D01*
X348909285Y-121278571D02*
X349837857Y-121278571D01*
X349337857Y-121850000D01*
X349552142Y-121850000D01*
X349695000Y-121921428D01*
X349766428Y-121992857D01*
X349837857Y-122135714D01*
X349837857Y-122492857D01*
X349766428Y-122635714D01*
X349695000Y-122707142D01*
X349552142Y-122778571D01*
X349123571Y-122778571D01*
X348980714Y-122707142D01*
X348909285Y-122635714D01*
X350480714Y-122207142D02*
X351623571Y-122207142D01*
X351052142Y-122778571D02*
X351052142Y-121635714D01*
X349837857Y-125328571D02*
X348980714Y-125328571D01*
X349409285Y-125328571D02*
X349409285Y-123828571D01*
X349266428Y-124042857D01*
X349123571Y-124185714D01*
X348980714Y-124257142D01*
X350480714Y-124757142D02*
X351623571Y-124757142D01*
X351052142Y-125328571D02*
X351052142Y-124185714D01*
X338087857Y-110028571D02*
X337230714Y-110028571D01*
X337659285Y-110028571D02*
X337659285Y-108528571D01*
X337516428Y-108742857D01*
X337373571Y-108885714D01*
X337230714Y-108957142D01*
X338659285Y-108671428D02*
X338730714Y-108600000D01*
X338873571Y-108528571D01*
X339230714Y-108528571D01*
X339373571Y-108600000D01*
X339445000Y-108671428D01*
X339516428Y-108814285D01*
X339516428Y-108957142D01*
X339445000Y-109171428D01*
X338587857Y-110028571D01*
X339516428Y-110028571D01*
X340159285Y-109457142D02*
X341302142Y-109457142D01*
X340730714Y-110028571D02*
X340730714Y-108885714D01*
X338087857Y-112578571D02*
X337230714Y-112578571D01*
X337659285Y-112578571D02*
X337659285Y-111078571D01*
X337516428Y-111292857D01*
X337373571Y-111435714D01*
X337230714Y-111507142D01*
X339016428Y-111078571D02*
X339159285Y-111078571D01*
X339302142Y-111150000D01*
X339373571Y-111221428D01*
X339445000Y-111364285D01*
X339516428Y-111650000D01*
X339516428Y-112007142D01*
X339445000Y-112292857D01*
X339373571Y-112435714D01*
X339302142Y-112507142D01*
X339159285Y-112578571D01*
X339016428Y-112578571D01*
X338873571Y-112507142D01*
X338802142Y-112435714D01*
X338730714Y-112292857D01*
X338659285Y-112007142D01*
X338659285Y-111650000D01*
X338730714Y-111364285D01*
X338802142Y-111221428D01*
X338873571Y-111150000D01*
X339016428Y-111078571D01*
X340159285Y-112007142D02*
X341302142Y-112007142D01*
X340730714Y-112578571D02*
X340730714Y-111435714D01*
X337516428Y-114271428D02*
X337373571Y-114200000D01*
X337302142Y-114128571D01*
X337230714Y-113985714D01*
X337230714Y-113914285D01*
X337302142Y-113771428D01*
X337373571Y-113700000D01*
X337516428Y-113628571D01*
X337802142Y-113628571D01*
X337945000Y-113700000D01*
X338016428Y-113771428D01*
X338087857Y-113914285D01*
X338087857Y-113985714D01*
X338016428Y-114128571D01*
X337945000Y-114200000D01*
X337802142Y-114271428D01*
X337516428Y-114271428D01*
X337373571Y-114342857D01*
X337302142Y-114414285D01*
X337230714Y-114557142D01*
X337230714Y-114842857D01*
X337302142Y-114985714D01*
X337373571Y-115057142D01*
X337516428Y-115128571D01*
X337802142Y-115128571D01*
X337945000Y-115057142D01*
X338016428Y-114985714D01*
X338087857Y-114842857D01*
X338087857Y-114557142D01*
X338016428Y-114414285D01*
X337945000Y-114342857D01*
X337802142Y-114271428D01*
X338730714Y-114557142D02*
X339873571Y-114557142D01*
X339302142Y-115128571D02*
X339302142Y-113985714D01*
X337945000Y-116178571D02*
X337659285Y-116178571D01*
X337516428Y-116250000D01*
X337445000Y-116321428D01*
X337302142Y-116535714D01*
X337230714Y-116821428D01*
X337230714Y-117392857D01*
X337302142Y-117535714D01*
X337373571Y-117607142D01*
X337516428Y-117678571D01*
X337802142Y-117678571D01*
X337945000Y-117607142D01*
X338016428Y-117535714D01*
X338087857Y-117392857D01*
X338087857Y-117035714D01*
X338016428Y-116892857D01*
X337945000Y-116821428D01*
X337802142Y-116750000D01*
X337516428Y-116750000D01*
X337373571Y-116821428D01*
X337302142Y-116892857D01*
X337230714Y-117035714D01*
X338730714Y-117107142D02*
X339873571Y-117107142D01*
X339302142Y-117678571D02*
X339302142Y-116535714D01*
X337945000Y-119228571D02*
X337945000Y-120228571D01*
X337587857Y-118657142D02*
X337230714Y-119728571D01*
X338159285Y-119728571D01*
X338730714Y-119657142D02*
X339873571Y-119657142D01*
X339302142Y-120228571D02*
X339302142Y-119085714D01*
X337230714Y-121421428D02*
X337302142Y-121350000D01*
X337445000Y-121278571D01*
X337802142Y-121278571D01*
X337945000Y-121350000D01*
X338016428Y-121421428D01*
X338087857Y-121564285D01*
X338087857Y-121707142D01*
X338016428Y-121921428D01*
X337159285Y-122778571D01*
X338087857Y-122778571D01*
X338730714Y-122207142D02*
X339873571Y-122207142D01*
X339302142Y-122778571D02*
X339302142Y-121635714D01*
X338087857Y-125328571D02*
X337230714Y-125328571D01*
X337659285Y-125328571D02*
X337659285Y-123828571D01*
X337516428Y-124042857D01*
X337373571Y-124185714D01*
X337230714Y-124257142D01*
X338730714Y-124757142D02*
X339873571Y-124757142D01*
X48587857Y-110028571D02*
X47730714Y-110028571D01*
X48159285Y-110028571D02*
X48159285Y-108528571D01*
X48016428Y-108742857D01*
X47873571Y-108885714D01*
X47730714Y-108957142D01*
X49230714Y-109457142D02*
X50373571Y-109457142D01*
X47730714Y-111221428D02*
X47802142Y-111150000D01*
X47945000Y-111078571D01*
X48302142Y-111078571D01*
X48445000Y-111150000D01*
X48516428Y-111221428D01*
X48587857Y-111364285D01*
X48587857Y-111507142D01*
X48516428Y-111721428D01*
X47659285Y-112578571D01*
X48587857Y-112578571D01*
X49230714Y-112007142D02*
X50373571Y-112007142D01*
X49802142Y-112578571D02*
X49802142Y-111435714D01*
X48445000Y-114128571D02*
X48445000Y-115128571D01*
X48087857Y-113557142D02*
X47730714Y-114628571D01*
X48659285Y-114628571D01*
X49230714Y-114557142D02*
X50373571Y-114557142D01*
X49802142Y-115128571D02*
X49802142Y-113985714D01*
X48445000Y-116178571D02*
X48159285Y-116178571D01*
X48016428Y-116250000D01*
X47945000Y-116321428D01*
X47802142Y-116535714D01*
X47730714Y-116821428D01*
X47730714Y-117392857D01*
X47802142Y-117535714D01*
X47873571Y-117607142D01*
X48016428Y-117678571D01*
X48302142Y-117678571D01*
X48445000Y-117607142D01*
X48516428Y-117535714D01*
X48587857Y-117392857D01*
X48587857Y-117035714D01*
X48516428Y-116892857D01*
X48445000Y-116821428D01*
X48302142Y-116750000D01*
X48016428Y-116750000D01*
X47873571Y-116821428D01*
X47802142Y-116892857D01*
X47730714Y-117035714D01*
X49230714Y-117107142D02*
X50373571Y-117107142D01*
X49802142Y-117678571D02*
X49802142Y-116535714D01*
X48016428Y-119371428D02*
X47873571Y-119300000D01*
X47802142Y-119228571D01*
X47730714Y-119085714D01*
X47730714Y-119014285D01*
X47802142Y-118871428D01*
X47873571Y-118800000D01*
X48016428Y-118728571D01*
X48302142Y-118728571D01*
X48445000Y-118800000D01*
X48516428Y-118871428D01*
X48587857Y-119014285D01*
X48587857Y-119085714D01*
X48516428Y-119228571D01*
X48445000Y-119300000D01*
X48302142Y-119371428D01*
X48016428Y-119371428D01*
X47873571Y-119442857D01*
X47802142Y-119514285D01*
X47730714Y-119657142D01*
X47730714Y-119942857D01*
X47802142Y-120085714D01*
X47873571Y-120157142D01*
X48016428Y-120228571D01*
X48302142Y-120228571D01*
X48445000Y-120157142D01*
X48516428Y-120085714D01*
X48587857Y-119942857D01*
X48587857Y-119657142D01*
X48516428Y-119514285D01*
X48445000Y-119442857D01*
X48302142Y-119371428D01*
X49230714Y-119657142D02*
X50373571Y-119657142D01*
X49802142Y-120228571D02*
X49802142Y-119085714D01*
X48587857Y-122778571D02*
X47730714Y-122778571D01*
X48159285Y-122778571D02*
X48159285Y-121278571D01*
X48016428Y-121492857D01*
X47873571Y-121635714D01*
X47730714Y-121707142D01*
X49516428Y-121278571D02*
X49659285Y-121278571D01*
X49802142Y-121350000D01*
X49873571Y-121421428D01*
X49945000Y-121564285D01*
X50016428Y-121850000D01*
X50016428Y-122207142D01*
X49945000Y-122492857D01*
X49873571Y-122635714D01*
X49802142Y-122707142D01*
X49659285Y-122778571D01*
X49516428Y-122778571D01*
X49373571Y-122707142D01*
X49302142Y-122635714D01*
X49230714Y-122492857D01*
X49159285Y-122207142D01*
X49159285Y-121850000D01*
X49230714Y-121564285D01*
X49302142Y-121421428D01*
X49373571Y-121350000D01*
X49516428Y-121278571D01*
X50659285Y-122207142D02*
X51802142Y-122207142D01*
X51230714Y-122778571D02*
X51230714Y-121635714D01*
X48587857Y-125328571D02*
X47730714Y-125328571D01*
X48159285Y-125328571D02*
X48159285Y-123828571D01*
X48016428Y-124042857D01*
X47873571Y-124185714D01*
X47730714Y-124257142D01*
X49159285Y-123971428D02*
X49230714Y-123900000D01*
X49373571Y-123828571D01*
X49730714Y-123828571D01*
X49873571Y-123900000D01*
X49945000Y-123971428D01*
X50016428Y-124114285D01*
X50016428Y-124257142D01*
X49945000Y-124471428D01*
X49087857Y-125328571D01*
X50016428Y-125328571D01*
X50659285Y-124757142D02*
X51802142Y-124757142D01*
X51230714Y-125328571D02*
X51230714Y-124185714D01*
X36087857Y-110028571D02*
X35230714Y-110028571D01*
X35659285Y-110028571D02*
X35659285Y-108528571D01*
X35516428Y-108742857D01*
X35373571Y-108885714D01*
X35230714Y-108957142D01*
X36730714Y-109457142D02*
X37873571Y-109457142D01*
X37302142Y-110028571D02*
X37302142Y-108885714D01*
X35159285Y-111078571D02*
X36087857Y-111078571D01*
X35587857Y-111650000D01*
X35802142Y-111650000D01*
X35945000Y-111721428D01*
X36016428Y-111792857D01*
X36087857Y-111935714D01*
X36087857Y-112292857D01*
X36016428Y-112435714D01*
X35945000Y-112507142D01*
X35802142Y-112578571D01*
X35373571Y-112578571D01*
X35230714Y-112507142D01*
X35159285Y-112435714D01*
X36730714Y-112007142D02*
X37873571Y-112007142D01*
X37302142Y-112578571D02*
X37302142Y-111435714D01*
X36016428Y-113628571D02*
X35302142Y-113628571D01*
X35230714Y-114342857D01*
X35302142Y-114271428D01*
X35445000Y-114200000D01*
X35802142Y-114200000D01*
X35945000Y-114271428D01*
X36016428Y-114342857D01*
X36087857Y-114485714D01*
X36087857Y-114842857D01*
X36016428Y-114985714D01*
X35945000Y-115057142D01*
X35802142Y-115128571D01*
X35445000Y-115128571D01*
X35302142Y-115057142D01*
X35230714Y-114985714D01*
X36730714Y-114557142D02*
X37873571Y-114557142D01*
X37302142Y-115128571D02*
X37302142Y-113985714D01*
X35159285Y-116178571D02*
X36159285Y-116178571D01*
X35516428Y-117678571D01*
X36730714Y-117107142D02*
X37873571Y-117107142D01*
X37302142Y-117678571D02*
X37302142Y-116535714D01*
X35373571Y-120228571D02*
X35659285Y-120228571D01*
X35802142Y-120157142D01*
X35873571Y-120085714D01*
X36016428Y-119871428D01*
X36087857Y-119585714D01*
X36087857Y-119014285D01*
X36016428Y-118871428D01*
X35945000Y-118800000D01*
X35802142Y-118728571D01*
X35516428Y-118728571D01*
X35373571Y-118800000D01*
X35302142Y-118871428D01*
X35230714Y-119014285D01*
X35230714Y-119371428D01*
X35302142Y-119514285D01*
X35373571Y-119585714D01*
X35516428Y-119657142D01*
X35802142Y-119657142D01*
X35945000Y-119585714D01*
X36016428Y-119514285D01*
X36087857Y-119371428D01*
X36730714Y-119657142D02*
X37873571Y-119657142D01*
X37302142Y-120228571D02*
X37302142Y-119085714D01*
X36087857Y-122778571D02*
X35230714Y-122778571D01*
X35659285Y-122778571D02*
X35659285Y-121278571D01*
X35516428Y-121492857D01*
X35373571Y-121635714D01*
X35230714Y-121707142D01*
X37516428Y-122778571D02*
X36659285Y-122778571D01*
X37087857Y-122778571D02*
X37087857Y-121278571D01*
X36945000Y-121492857D01*
X36802142Y-121635714D01*
X36659285Y-121707142D01*
X38159285Y-122207142D02*
X39302142Y-122207142D01*
X38730714Y-122778571D02*
X38730714Y-121635714D01*
X35302142Y-125328571D02*
X35302142Y-123828571D01*
X36159285Y-125328571D01*
X36159285Y-123828571D01*
X37730714Y-125185714D02*
X37659285Y-125257142D01*
X37445000Y-125328571D01*
X37302142Y-125328571D01*
X37087857Y-125257142D01*
X36945000Y-125114285D01*
X36873571Y-124971428D01*
X36802142Y-124685714D01*
X36802142Y-124471428D01*
X36873571Y-124185714D01*
X36945000Y-124042857D01*
X37087857Y-123900000D01*
X37302142Y-123828571D01*
X37445000Y-123828571D01*
X37659285Y-123900000D01*
X37730714Y-123971428D01*
D12*
%TO.C,REF\u002A\u002A*%
G36*
X182679749Y-133404758D02*
G01*
X182958625Y-133543806D01*
X183204770Y-133799827D01*
X183272557Y-133894660D01*
X183346406Y-134018751D01*
X183394320Y-134153531D01*
X183421732Y-134333411D01*
X183434072Y-134592805D01*
X183436782Y-134935252D01*
X183424545Y-135404539D01*
X183382010Y-135756896D01*
X183300442Y-136019770D01*
X183171104Y-136220607D01*
X182985260Y-136386853D01*
X182971605Y-136396696D01*
X182788451Y-136497384D01*
X182567899Y-136547201D01*
X182287405Y-136559483D01*
X181831418Y-136559483D01*
X181831226Y-137002143D01*
X181826983Y-137248675D01*
X181801126Y-137393284D01*
X181733554Y-137480014D01*
X181604170Y-137552911D01*
X181573098Y-137567804D01*
X181427692Y-137637597D01*
X181315110Y-137681679D01*
X181231396Y-137685486D01*
X181172595Y-137634453D01*
X181134751Y-137514017D01*
X181113907Y-137309614D01*
X181106109Y-137006680D01*
X181107400Y-136590651D01*
X181113823Y-136046963D01*
X181115829Y-135884339D01*
X181123056Y-135323755D01*
X181129530Y-134957053D01*
X181831034Y-134957053D01*
X181834977Y-135268315D01*
X181852500Y-135471967D01*
X181892145Y-135606288D01*
X181962453Y-135709559D01*
X182010188Y-135759927D01*
X182205338Y-135907303D01*
X182378118Y-135919299D01*
X182556400Y-135797595D01*
X182560919Y-135793104D01*
X182633456Y-135699045D01*
X182677582Y-135571211D01*
X182699840Y-135374345D01*
X182706771Y-135073189D01*
X182706896Y-135006470D01*
X182690146Y-134591458D01*
X182635620Y-134303763D01*
X182536911Y-134128135D01*
X182387610Y-134049323D01*
X182301321Y-134041379D01*
X182096526Y-134078650D01*
X181956052Y-134201371D01*
X181871494Y-134425904D01*
X181834449Y-134768614D01*
X181831034Y-134957053D01*
X181129530Y-134957053D01*
X181130716Y-134889881D01*
X181140617Y-134563455D01*
X181154564Y-134325219D01*
X181174365Y-134155910D01*
X181201826Y-134036269D01*
X181238753Y-133947034D01*
X181286954Y-133868944D01*
X181307622Y-133839560D01*
X181581781Y-133561992D01*
X181928413Y-133404618D01*
X182329384Y-133360744D01*
X182679749Y-133404758D01*
G37*
X182679749Y-133404758D02*
X182958625Y-133543806D01*
X183204770Y-133799827D01*
X183272557Y-133894660D01*
X183346406Y-134018751D01*
X183394320Y-134153531D01*
X183421732Y-134333411D01*
X183434072Y-134592805D01*
X183436782Y-134935252D01*
X183424545Y-135404539D01*
X183382010Y-135756896D01*
X183300442Y-136019770D01*
X183171104Y-136220607D01*
X182985260Y-136386853D01*
X182971605Y-136396696D01*
X182788451Y-136497384D01*
X182567899Y-136547201D01*
X182287405Y-136559483D01*
X181831418Y-136559483D01*
X181831226Y-137002143D01*
X181826983Y-137248675D01*
X181801126Y-137393284D01*
X181733554Y-137480014D01*
X181604170Y-137552911D01*
X181573098Y-137567804D01*
X181427692Y-137637597D01*
X181315110Y-137681679D01*
X181231396Y-137685486D01*
X181172595Y-137634453D01*
X181134751Y-137514017D01*
X181113907Y-137309614D01*
X181106109Y-137006680D01*
X181107400Y-136590651D01*
X181113823Y-136046963D01*
X181115829Y-135884339D01*
X181123056Y-135323755D01*
X181129530Y-134957053D01*
X181831034Y-134957053D01*
X181834977Y-135268315D01*
X181852500Y-135471967D01*
X181892145Y-135606288D01*
X181962453Y-135709559D01*
X182010188Y-135759927D01*
X182205338Y-135907303D01*
X182378118Y-135919299D01*
X182556400Y-135797595D01*
X182560919Y-135793104D01*
X182633456Y-135699045D01*
X182677582Y-135571211D01*
X182699840Y-135374345D01*
X182706771Y-135073189D01*
X182706896Y-135006470D01*
X182690146Y-134591458D01*
X182635620Y-134303763D01*
X182536911Y-134128135D01*
X182387610Y-134049323D01*
X182301321Y-134041379D01*
X182096526Y-134078650D01*
X181956052Y-134201371D01*
X181871494Y-134425904D01*
X181834449Y-134768614D01*
X181831034Y-134957053D01*
X181129530Y-134957053D01*
X181130716Y-134889881D01*
X181140617Y-134563455D01*
X181154564Y-134325219D01*
X181174365Y-134155910D01*
X181201826Y-134036269D01*
X181238753Y-133947034D01*
X181286954Y-133868944D01*
X181307622Y-133839560D01*
X181581781Y-133561992D01*
X181928413Y-133404618D01*
X182329384Y-133360744D01*
X182679749Y-133404758D01*
G36*
X188293573Y-133444298D02*
G01*
X188527807Y-133579785D01*
X188690661Y-133714267D01*
X188809766Y-133855164D01*
X188891819Y-134027468D01*
X188943515Y-134256171D01*
X188971550Y-134566266D01*
X188982621Y-134982744D01*
X188983908Y-135282128D01*
X188983908Y-136384149D01*
X188673707Y-136523208D01*
X188363506Y-136662268D01*
X188327011Y-135455237D01*
X188311932Y-135004449D01*
X188296113Y-134677252D01*
X188276514Y-134451278D01*
X188250092Y-134304161D01*
X188213808Y-134213532D01*
X188164619Y-134157024D01*
X188148837Y-134144793D01*
X187909719Y-134049266D01*
X187668018Y-134087067D01*
X187524138Y-134187356D01*
X187465611Y-134258424D01*
X187425098Y-134351681D01*
X187399351Y-134493058D01*
X187385122Y-134708486D01*
X187379160Y-135023896D01*
X187378161Y-135352605D01*
X187377965Y-135764999D01*
X187370903Y-136056903D01*
X187347268Y-136253776D01*
X187297350Y-136381077D01*
X187211439Y-136464266D01*
X187079829Y-136528801D01*
X186904042Y-136595861D01*
X186712051Y-136668856D01*
X186734905Y-135373365D01*
X186744108Y-134906347D01*
X186754876Y-134561225D01*
X186770307Y-134313921D01*
X186793504Y-134140363D01*
X186827568Y-134016474D01*
X186875598Y-133918182D01*
X186933504Y-133831460D01*
X187212879Y-133554425D01*
X187553781Y-133394222D01*
X187924562Y-133355847D01*
X188293573Y-133444298D01*
G37*
X188293573Y-133444298D02*
X188527807Y-133579785D01*
X188690661Y-133714267D01*
X188809766Y-133855164D01*
X188891819Y-134027468D01*
X188943515Y-134256171D01*
X188971550Y-134566266D01*
X188982621Y-134982744D01*
X188983908Y-135282128D01*
X188983908Y-136384149D01*
X188673707Y-136523208D01*
X188363506Y-136662268D01*
X188327011Y-135455237D01*
X188311932Y-135004449D01*
X188296113Y-134677252D01*
X188276514Y-134451278D01*
X188250092Y-134304161D01*
X188213808Y-134213532D01*
X188164619Y-134157024D01*
X188148837Y-134144793D01*
X187909719Y-134049266D01*
X187668018Y-134087067D01*
X187524138Y-134187356D01*
X187465611Y-134258424D01*
X187425098Y-134351681D01*
X187399351Y-134493058D01*
X187385122Y-134708486D01*
X187379160Y-135023896D01*
X187378161Y-135352605D01*
X187377965Y-135764999D01*
X187370903Y-136056903D01*
X187347268Y-136253776D01*
X187297350Y-136381077D01*
X187211439Y-136464266D01*
X187079829Y-136528801D01*
X186904042Y-136595861D01*
X186712051Y-136668856D01*
X186734905Y-135373365D01*
X186744108Y-134906347D01*
X186754876Y-134561225D01*
X186770307Y-134313921D01*
X186793504Y-134140363D01*
X186827568Y-134016474D01*
X186875598Y-133918182D01*
X186933504Y-133831460D01*
X187212879Y-133554425D01*
X187553781Y-133394222D01*
X187924562Y-133355847D01*
X188293573Y-133444298D01*
G36*
X179870551Y-133415037D02*
G01*
X180212653Y-133594920D01*
X180465127Y-133884416D01*
X180554811Y-134070533D01*
X180624598Y-134349980D01*
X180660322Y-134703067D01*
X180663709Y-135088428D01*
X180636487Y-135464698D01*
X180580383Y-135790513D01*
X180497125Y-136024507D01*
X180471537Y-136064806D01*
X180168454Y-136365622D01*
X179808467Y-136545793D01*
X179417848Y-136598520D01*
X179022869Y-136517005D01*
X178912949Y-136468134D01*
X178698890Y-136317530D01*
X178511020Y-136117837D01*
X178493265Y-136092511D01*
X178421097Y-135970453D01*
X178373392Y-135839976D01*
X178345210Y-135668212D01*
X178331611Y-135422295D01*
X178327655Y-135069359D01*
X178327586Y-134990230D01*
X178327768Y-134965048D01*
X179057471Y-134965048D01*
X179061718Y-135298141D01*
X179078431Y-135519185D01*
X179113563Y-135661962D01*
X179173071Y-135760255D01*
X179203448Y-135793104D01*
X179378089Y-135917930D01*
X179547646Y-135912237D01*
X179719086Y-135803960D01*
X179821338Y-135688366D01*
X179881895Y-135519644D01*
X179915902Y-135253582D01*
X179918235Y-135222551D01*
X179924039Y-134740367D01*
X179863374Y-134382250D01*
X179737061Y-134150400D01*
X179545919Y-134047017D01*
X179477689Y-134041379D01*
X179298527Y-134069732D01*
X179175975Y-134167959D01*
X179101044Y-134355815D01*
X179064748Y-134653055D01*
X179057471Y-134965048D01*
X178327768Y-134965048D01*
X178330305Y-134614147D01*
X178341719Y-134351372D01*
X178366721Y-134169286D01*
X178410197Y-134035270D01*
X178477039Y-133916704D01*
X178491810Y-133894660D01*
X178740079Y-133597517D01*
X179010604Y-133425021D01*
X179339952Y-133356547D01*
X179451791Y-133353202D01*
X179870551Y-133415037D01*
G37*
X179870551Y-133415037D02*
X180212653Y-133594920D01*
X180465127Y-133884416D01*
X180554811Y-134070533D01*
X180624598Y-134349980D01*
X180660322Y-134703067D01*
X180663709Y-135088428D01*
X180636487Y-135464698D01*
X180580383Y-135790513D01*
X180497125Y-136024507D01*
X180471537Y-136064806D01*
X180168454Y-136365622D01*
X179808467Y-136545793D01*
X179417848Y-136598520D01*
X179022869Y-136517005D01*
X178912949Y-136468134D01*
X178698890Y-136317530D01*
X178511020Y-136117837D01*
X178493265Y-136092511D01*
X178421097Y-135970453D01*
X178373392Y-135839976D01*
X178345210Y-135668212D01*
X178331611Y-135422295D01*
X178327655Y-135069359D01*
X178327586Y-134990230D01*
X178327768Y-134965048D01*
X179057471Y-134965048D01*
X179061718Y-135298141D01*
X179078431Y-135519185D01*
X179113563Y-135661962D01*
X179173071Y-135760255D01*
X179203448Y-135793104D01*
X179378089Y-135917930D01*
X179547646Y-135912237D01*
X179719086Y-135803960D01*
X179821338Y-135688366D01*
X179881895Y-135519644D01*
X179915902Y-135253582D01*
X179918235Y-135222551D01*
X179924039Y-134740367D01*
X179863374Y-134382250D01*
X179737061Y-134150400D01*
X179545919Y-134047017D01*
X179477689Y-134041379D01*
X179298527Y-134069732D01*
X179175975Y-134167959D01*
X179101044Y-134355815D01*
X179064748Y-134653055D01*
X179057471Y-134965048D01*
X178327768Y-134965048D01*
X178330305Y-134614147D01*
X178341719Y-134351372D01*
X178366721Y-134169286D01*
X178410197Y-134035270D01*
X178477039Y-133916704D01*
X178491810Y-133894660D01*
X178740079Y-133597517D01*
X179010604Y-133425021D01*
X179339952Y-133356547D01*
X179451791Y-133353202D01*
X179870551Y-133415037D01*
G36*
X185538879Y-133461691D02*
G01*
X185826644Y-133655279D01*
X186049027Y-133934873D01*
X186181873Y-134290663D01*
X186208742Y-134552537D01*
X186205690Y-134661816D01*
X186180140Y-134745486D01*
X186109903Y-134820447D01*
X185972790Y-134903599D01*
X185746612Y-135011844D01*
X185409180Y-135162082D01*
X185407471Y-135162836D01*
X185096876Y-135305093D01*
X184842181Y-135431414D01*
X184669417Y-135528199D01*
X184604615Y-135581850D01*
X184604598Y-135582282D01*
X184661712Y-135699111D01*
X184795273Y-135827886D01*
X184948605Y-135920653D01*
X185026288Y-135939081D01*
X185238223Y-135875346D01*
X185420732Y-135715728D01*
X185509782Y-135540234D01*
X185595450Y-135410857D01*
X185763257Y-135263522D01*
X185960519Y-135136240D01*
X186134551Y-135067022D01*
X186170943Y-135063219D01*
X186211907Y-135125802D01*
X186214375Y-135285778D01*
X186184271Y-135501482D01*
X186127516Y-135731252D01*
X186050034Y-135933424D01*
X186046121Y-135941273D01*
X185812953Y-136266835D01*
X185510760Y-136488277D01*
X185167568Y-136596966D01*
X184811400Y-136584265D01*
X184470281Y-136441541D01*
X184455113Y-136431505D01*
X184186775Y-136188316D01*
X184010330Y-135871023D01*
X183912684Y-135453815D01*
X183899579Y-135336597D01*
X183876370Y-134783324D01*
X183904194Y-134525311D01*
X184604598Y-134525311D01*
X184613698Y-134686257D01*
X184663473Y-134733228D01*
X184787564Y-134698088D01*
X184983167Y-134615022D01*
X185201814Y-134510898D01*
X185207248Y-134508141D01*
X185392574Y-134410662D01*
X185466953Y-134345610D01*
X185448612Y-134277413D01*
X185371382Y-134187804D01*
X185174900Y-134058127D01*
X184963306Y-134048599D01*
X184773507Y-134142973D01*
X184642411Y-134325004D01*
X184604598Y-134525311D01*
X183904194Y-134525311D01*
X183924109Y-134340652D01*
X184046586Y-133989572D01*
X184217090Y-133743619D01*
X184524837Y-133495074D01*
X184863821Y-133371778D01*
X185209886Y-133363921D01*
X185538879Y-133461691D01*
G37*
X185538879Y-133461691D02*
X185826644Y-133655279D01*
X186049027Y-133934873D01*
X186181873Y-134290663D01*
X186208742Y-134552537D01*
X186205690Y-134661816D01*
X186180140Y-134745486D01*
X186109903Y-134820447D01*
X185972790Y-134903599D01*
X185746612Y-135011844D01*
X185409180Y-135162082D01*
X185407471Y-135162836D01*
X185096876Y-135305093D01*
X184842181Y-135431414D01*
X184669417Y-135528199D01*
X184604615Y-135581850D01*
X184604598Y-135582282D01*
X184661712Y-135699111D01*
X184795273Y-135827886D01*
X184948605Y-135920653D01*
X185026288Y-135939081D01*
X185238223Y-135875346D01*
X185420732Y-135715728D01*
X185509782Y-135540234D01*
X185595450Y-135410857D01*
X185763257Y-135263522D01*
X185960519Y-135136240D01*
X186134551Y-135067022D01*
X186170943Y-135063219D01*
X186211907Y-135125802D01*
X186214375Y-135285778D01*
X186184271Y-135501482D01*
X186127516Y-135731252D01*
X186050034Y-135933424D01*
X186046121Y-135941273D01*
X185812953Y-136266835D01*
X185510760Y-136488277D01*
X185167568Y-136596966D01*
X184811400Y-136584265D01*
X184470281Y-136441541D01*
X184455113Y-136431505D01*
X184186775Y-136188316D01*
X184010330Y-135871023D01*
X183912684Y-135453815D01*
X183899579Y-135336597D01*
X183876370Y-134783324D01*
X183904194Y-134525311D01*
X184604598Y-134525311D01*
X184613698Y-134686257D01*
X184663473Y-134733228D01*
X184787564Y-134698088D01*
X184983167Y-134615022D01*
X185201814Y-134510898D01*
X185207248Y-134508141D01*
X185392574Y-134410662D01*
X185466953Y-134345610D01*
X185448612Y-134277413D01*
X185371382Y-134187804D01*
X185174900Y-134058127D01*
X184963306Y-134048599D01*
X184773507Y-134142973D01*
X184642411Y-134325004D01*
X184604598Y-134525311D01*
X183904194Y-134525311D01*
X183924109Y-134340652D01*
X184046586Y-133989572D01*
X184217090Y-133743619D01*
X184524837Y-133495074D01*
X184863821Y-133371778D01*
X185209886Y-133363921D01*
X185538879Y-133461691D01*
G36*
X191611494Y-133059643D02*
G01*
X191632884Y-133357969D01*
X191657452Y-133533766D01*
X191691497Y-133610447D01*
X191741317Y-133611428D01*
X191757471Y-133602274D01*
X191972349Y-133535995D01*
X192251862Y-133539865D01*
X192536036Y-133607998D01*
X192713775Y-133696139D01*
X192896013Y-133836946D01*
X193029233Y-133996297D01*
X193120687Y-134198774D01*
X193177624Y-134468964D01*
X193207297Y-134831450D01*
X193216955Y-135310816D01*
X193217128Y-135402774D01*
X193217241Y-136435720D01*
X192987384Y-136515849D01*
X192824130Y-136570361D01*
X192734561Y-136595742D01*
X192731924Y-136595977D01*
X192723104Y-136527150D01*
X192715597Y-136337308D01*
X192709975Y-136051412D01*
X192706809Y-135694422D01*
X192706322Y-135477378D01*
X192705306Y-135049432D01*
X192700079Y-134742720D01*
X192687367Y-134532501D01*
X192663899Y-134394034D01*
X192626403Y-134302579D01*
X192571606Y-134233397D01*
X192537393Y-134200079D01*
X192302372Y-134065821D01*
X192045911Y-134055767D01*
X191813224Y-134169312D01*
X191770194Y-134210308D01*
X191707079Y-134287393D01*
X191663301Y-134378828D01*
X191635355Y-134511037D01*
X191619741Y-134710442D01*
X191612955Y-135003464D01*
X191611494Y-135407478D01*
X191611494Y-136435720D01*
X191381637Y-136515849D01*
X191218383Y-136570361D01*
X191128813Y-136595742D01*
X191126177Y-136595977D01*
X191119437Y-136526120D01*
X191113362Y-136329076D01*
X191108194Y-136023633D01*
X191104178Y-135628581D01*
X191101558Y-135162707D01*
X191100576Y-134644801D01*
X191100575Y-134621764D01*
X191100575Y-132647551D01*
X191337787Y-132547492D01*
X191575000Y-132447433D01*
X191611494Y-133059643D01*
G37*
X191611494Y-133059643D02*
X191632884Y-133357969D01*
X191657452Y-133533766D01*
X191691497Y-133610447D01*
X191741317Y-133611428D01*
X191757471Y-133602274D01*
X191972349Y-133535995D01*
X192251862Y-133539865D01*
X192536036Y-133607998D01*
X192713775Y-133696139D01*
X192896013Y-133836946D01*
X193029233Y-133996297D01*
X193120687Y-134198774D01*
X193177624Y-134468964D01*
X193207297Y-134831450D01*
X193216955Y-135310816D01*
X193217128Y-135402774D01*
X193217241Y-136435720D01*
X192987384Y-136515849D01*
X192824130Y-136570361D01*
X192734561Y-136595742D01*
X192731924Y-136595977D01*
X192723104Y-136527150D01*
X192715597Y-136337308D01*
X192709975Y-136051412D01*
X192706809Y-135694422D01*
X192706322Y-135477378D01*
X192705306Y-135049432D01*
X192700079Y-134742720D01*
X192687367Y-134532501D01*
X192663899Y-134394034D01*
X192626403Y-134302579D01*
X192571606Y-134233397D01*
X192537393Y-134200079D01*
X192302372Y-134065821D01*
X192045911Y-134055767D01*
X191813224Y-134169312D01*
X191770194Y-134210308D01*
X191707079Y-134287393D01*
X191663301Y-134378828D01*
X191635355Y-134511037D01*
X191619741Y-134710442D01*
X191612955Y-135003464D01*
X191611494Y-135407478D01*
X191611494Y-136435720D01*
X191381637Y-136515849D01*
X191218383Y-136570361D01*
X191128813Y-136595742D01*
X191126177Y-136595977D01*
X191119437Y-136526120D01*
X191113362Y-136329076D01*
X191108194Y-136023633D01*
X191104178Y-135628581D01*
X191101558Y-135162707D01*
X191100576Y-134644801D01*
X191100575Y-134621764D01*
X191100575Y-132647551D01*
X191337787Y-132547492D01*
X191575000Y-132447433D01*
X191611494Y-133059643D01*
G36*
X194949861Y-133560901D02*
G01*
X195235857Y-133667104D01*
X195239129Y-133669146D01*
X195416008Y-133799325D01*
X195546589Y-133951459D01*
X195638428Y-134149718D01*
X195699084Y-134418272D01*
X195736113Y-134781292D01*
X195757073Y-135262949D01*
X195758910Y-135331571D01*
X195785299Y-136366303D01*
X195563228Y-136481140D01*
X195402545Y-136558745D01*
X195305525Y-136595516D01*
X195301038Y-136595977D01*
X195284249Y-136528126D01*
X195270912Y-136345103D01*
X195262708Y-136077702D01*
X195260919Y-135861174D01*
X195260878Y-135510406D01*
X195244843Y-135290128D01*
X195188949Y-135185063D01*
X195069331Y-135179937D01*
X194862123Y-135259475D01*
X194549282Y-135405681D01*
X194319242Y-135527113D01*
X194200927Y-135632466D01*
X194166145Y-135747290D01*
X194166092Y-135752973D01*
X194223488Y-135950777D01*
X194393424Y-136057637D01*
X194653495Y-136073115D01*
X194840824Y-136070430D01*
X194939598Y-136124383D01*
X195001196Y-136253977D01*
X195036648Y-136419081D01*
X194985557Y-136512761D01*
X194966320Y-136526169D01*
X194785207Y-136580015D01*
X194531582Y-136587638D01*
X194270391Y-136551946D01*
X194085313Y-136486720D01*
X193829430Y-136269463D01*
X193683977Y-135967041D01*
X193655172Y-135730769D01*
X193677155Y-135517655D01*
X193756701Y-135343691D01*
X193914209Y-135189181D01*
X194170078Y-135034430D01*
X194544706Y-134859743D01*
X194567529Y-134849870D01*
X194904993Y-134693971D01*
X195113235Y-134566115D01*
X195202493Y-134451221D01*
X195183008Y-134334208D01*
X195065017Y-134199996D01*
X195029734Y-134169109D01*
X194793398Y-134049353D01*
X194548514Y-134054395D01*
X194335241Y-134171810D01*
X194193740Y-134389172D01*
X194180592Y-134431836D01*
X194052557Y-134638760D01*
X193890093Y-134738430D01*
X193655172Y-134837206D01*
X193655172Y-134581645D01*
X193726633Y-134210181D01*
X193938738Y-133869460D01*
X194049113Y-133755477D01*
X194300013Y-133609184D01*
X194619088Y-133542960D01*
X194949861Y-133560901D01*
G37*
X194949861Y-133560901D02*
X195235857Y-133667104D01*
X195239129Y-133669146D01*
X195416008Y-133799325D01*
X195546589Y-133951459D01*
X195638428Y-134149718D01*
X195699084Y-134418272D01*
X195736113Y-134781292D01*
X195757073Y-135262949D01*
X195758910Y-135331571D01*
X195785299Y-136366303D01*
X195563228Y-136481140D01*
X195402545Y-136558745D01*
X195305525Y-136595516D01*
X195301038Y-136595977D01*
X195284249Y-136528126D01*
X195270912Y-136345103D01*
X195262708Y-136077702D01*
X195260919Y-135861174D01*
X195260878Y-135510406D01*
X195244843Y-135290128D01*
X195188949Y-135185063D01*
X195069331Y-135179937D01*
X194862123Y-135259475D01*
X194549282Y-135405681D01*
X194319242Y-135527113D01*
X194200927Y-135632466D01*
X194166145Y-135747290D01*
X194166092Y-135752973D01*
X194223488Y-135950777D01*
X194393424Y-136057637D01*
X194653495Y-136073115D01*
X194840824Y-136070430D01*
X194939598Y-136124383D01*
X195001196Y-136253977D01*
X195036648Y-136419081D01*
X194985557Y-136512761D01*
X194966320Y-136526169D01*
X194785207Y-136580015D01*
X194531582Y-136587638D01*
X194270391Y-136551946D01*
X194085313Y-136486720D01*
X193829430Y-136269463D01*
X193683977Y-135967041D01*
X193655172Y-135730769D01*
X193677155Y-135517655D01*
X193756701Y-135343691D01*
X193914209Y-135189181D01*
X194170078Y-135034430D01*
X194544706Y-134859743D01*
X194567529Y-134849870D01*
X194904993Y-134693971D01*
X195113235Y-134566115D01*
X195202493Y-134451221D01*
X195183008Y-134334208D01*
X195065017Y-134199996D01*
X195029734Y-134169109D01*
X194793398Y-134049353D01*
X194548514Y-134054395D01*
X194335241Y-134171810D01*
X194193740Y-134389172D01*
X194180592Y-134431836D01*
X194052557Y-134638760D01*
X193890093Y-134738430D01*
X193655172Y-134837206D01*
X193655172Y-134581645D01*
X193726633Y-134210181D01*
X193938738Y-133869460D01*
X194049113Y-133755477D01*
X194300013Y-133609184D01*
X194619088Y-133542960D01*
X194949861Y-133560901D01*
G36*
X197414857Y-133554800D02*
G01*
X197746413Y-133677149D01*
X198015024Y-133893549D01*
X198120079Y-134045880D01*
X198234606Y-134325402D01*
X198232227Y-134527515D01*
X198112020Y-134663446D01*
X198067543Y-134686560D01*
X197875510Y-134758626D01*
X197777440Y-134740163D01*
X197744222Y-134619146D01*
X197742529Y-134552299D01*
X197681714Y-134306371D01*
X197523202Y-134134336D01*
X197302885Y-134051245D01*
X197056658Y-134072153D01*
X196856505Y-134180740D01*
X196788902Y-134242680D01*
X196740984Y-134317823D01*
X196708615Y-134431413D01*
X196687659Y-134608691D01*
X196673981Y-134874899D01*
X196663445Y-135255279D01*
X196660717Y-135375719D01*
X196650766Y-135787737D01*
X196639453Y-136077721D01*
X196622486Y-136269582D01*
X196595576Y-136387233D01*
X196554432Y-136454587D01*
X196494765Y-136495557D01*
X196456564Y-136513657D01*
X196294333Y-136575550D01*
X196198835Y-136595977D01*
X196167280Y-136527757D01*
X196148019Y-136321509D01*
X196140949Y-135974852D01*
X196145966Y-135485406D01*
X196147528Y-135409914D01*
X196158552Y-134963372D01*
X196171588Y-134637308D01*
X196190138Y-134406229D01*
X196217705Y-134244644D01*
X196257792Y-134127062D01*
X196313902Y-134027990D01*
X196343254Y-133985537D01*
X196511548Y-133797700D01*
X196699775Y-133651595D01*
X196722819Y-133638841D01*
X197060333Y-133538149D01*
X197414857Y-133554800D01*
G37*
X197414857Y-133554800D02*
X197746413Y-133677149D01*
X198015024Y-133893549D01*
X198120079Y-134045880D01*
X198234606Y-134325402D01*
X198232227Y-134527515D01*
X198112020Y-134663446D01*
X198067543Y-134686560D01*
X197875510Y-134758626D01*
X197777440Y-134740163D01*
X197744222Y-134619146D01*
X197742529Y-134552299D01*
X197681714Y-134306371D01*
X197523202Y-134134336D01*
X197302885Y-134051245D01*
X197056658Y-134072153D01*
X196856505Y-134180740D01*
X196788902Y-134242680D01*
X196740984Y-134317823D01*
X196708615Y-134431413D01*
X196687659Y-134608691D01*
X196673981Y-134874899D01*
X196663445Y-135255279D01*
X196660717Y-135375719D01*
X196650766Y-135787737D01*
X196639453Y-136077721D01*
X196622486Y-136269582D01*
X196595576Y-136387233D01*
X196554432Y-136454587D01*
X196494765Y-136495557D01*
X196456564Y-136513657D01*
X196294333Y-136575550D01*
X196198835Y-136595977D01*
X196167280Y-136527757D01*
X196148019Y-136321509D01*
X196140949Y-135974852D01*
X196145966Y-135485406D01*
X196147528Y-135409914D01*
X196158552Y-134963372D01*
X196171588Y-134637308D01*
X196190138Y-134406229D01*
X196217705Y-134244644D01*
X196257792Y-134127062D01*
X196313902Y-134027990D01*
X196343254Y-133985537D01*
X196511548Y-133797700D01*
X196699775Y-133651595D01*
X196722819Y-133638841D01*
X197060333Y-133538149D01*
X197414857Y-133554800D01*
G36*
X200734785Y-134136139D02*
G01*
X200733858Y-134681653D01*
X200730270Y-135101298D01*
X200722506Y-135415176D01*
X200709055Y-135643388D01*
X200688404Y-135806038D01*
X200659040Y-135923228D01*
X200619452Y-136015060D01*
X200589475Y-136067478D01*
X200341224Y-136351736D01*
X200026471Y-136529912D01*
X199678228Y-136593846D01*
X199329511Y-136535374D01*
X199121857Y-136430298D01*
X198903862Y-136248529D01*
X198755291Y-136026531D01*
X198665652Y-135735801D01*
X198624453Y-135347838D01*
X198618618Y-135063219D01*
X198619405Y-135042765D01*
X199129310Y-135042765D01*
X199132425Y-135369144D01*
X199146694Y-135585201D01*
X199179511Y-135726546D01*
X199238264Y-135828784D01*
X199308464Y-135905904D01*
X199544219Y-136054763D01*
X199797350Y-136067479D01*
X200036589Y-135943198D01*
X200055210Y-135926358D01*
X200134686Y-135838756D01*
X200184520Y-135734529D01*
X200211499Y-135579404D01*
X200222412Y-135339110D01*
X200224138Y-135073447D01*
X200220397Y-134739701D01*
X200204911Y-134517055D01*
X200171285Y-134370733D01*
X200113126Y-134265955D01*
X200065438Y-134210308D01*
X199843907Y-134069963D01*
X199588769Y-134053088D01*
X199345238Y-134160284D01*
X199298239Y-134200079D01*
X199218232Y-134288454D01*
X199168296Y-134393755D01*
X199141483Y-134550627D01*
X199130848Y-134793719D01*
X199129310Y-135042765D01*
X198619405Y-135042765D01*
X198636259Y-134604868D01*
X198696179Y-134260489D01*
X198808869Y-134001580D01*
X198984821Y-133799640D01*
X199121857Y-133696139D01*
X199370940Y-133584321D01*
X199659637Y-133532419D01*
X199927998Y-133546312D01*
X200078161Y-133602357D01*
X200137088Y-133618307D01*
X200176191Y-133558837D01*
X200203487Y-133399471D01*
X200224138Y-133156718D01*
X200246747Y-132886353D01*
X200278153Y-132723687D01*
X200335298Y-132630669D01*
X200435126Y-132569248D01*
X200497845Y-132542048D01*
X200735057Y-132442679D01*
X200734785Y-134136139D01*
G37*
X200734785Y-134136139D02*
X200733858Y-134681653D01*
X200730270Y-135101298D01*
X200722506Y-135415176D01*
X200709055Y-135643388D01*
X200688404Y-135806038D01*
X200659040Y-135923228D01*
X200619452Y-136015060D01*
X200589475Y-136067478D01*
X200341224Y-136351736D01*
X200026471Y-136529912D01*
X199678228Y-136593846D01*
X199329511Y-136535374D01*
X199121857Y-136430298D01*
X198903862Y-136248529D01*
X198755291Y-136026531D01*
X198665652Y-135735801D01*
X198624453Y-135347838D01*
X198618618Y-135063219D01*
X198619405Y-135042765D01*
X199129310Y-135042765D01*
X199132425Y-135369144D01*
X199146694Y-135585201D01*
X199179511Y-135726546D01*
X199238264Y-135828784D01*
X199308464Y-135905904D01*
X199544219Y-136054763D01*
X199797350Y-136067479D01*
X200036589Y-135943198D01*
X200055210Y-135926358D01*
X200134686Y-135838756D01*
X200184520Y-135734529D01*
X200211499Y-135579404D01*
X200222412Y-135339110D01*
X200224138Y-135073447D01*
X200220397Y-134739701D01*
X200204911Y-134517055D01*
X200171285Y-134370733D01*
X200113126Y-134265955D01*
X200065438Y-134210308D01*
X199843907Y-134069963D01*
X199588769Y-134053088D01*
X199345238Y-134160284D01*
X199298239Y-134200079D01*
X199218232Y-134288454D01*
X199168296Y-134393755D01*
X199141483Y-134550627D01*
X199130848Y-134793719D01*
X199129310Y-135042765D01*
X198619405Y-135042765D01*
X198636259Y-134604868D01*
X198696179Y-134260489D01*
X198808869Y-134001580D01*
X198984821Y-133799640D01*
X199121857Y-133696139D01*
X199370940Y-133584321D01*
X199659637Y-133532419D01*
X199927998Y-133546312D01*
X200078161Y-133602357D01*
X200137088Y-133618307D01*
X200176191Y-133558837D01*
X200203487Y-133399471D01*
X200224138Y-133156718D01*
X200246747Y-132886353D01*
X200278153Y-132723687D01*
X200335298Y-132630669D01*
X200435126Y-132569248D01*
X200497845Y-132542048D01*
X200735057Y-132442679D01*
X200734785Y-134136139D01*
G36*
X203700309Y-133599600D02*
G01*
X203711448Y-133791633D01*
X203720177Y-134083477D01*
X203725787Y-134452053D01*
X203727586Y-134838639D01*
X203727586Y-136146817D01*
X203496612Y-136377792D01*
X203337444Y-136520117D01*
X203197723Y-136577768D01*
X203006755Y-136574119D01*
X202930951Y-136564834D01*
X202694025Y-136537815D01*
X202498055Y-136522332D01*
X202450287Y-136520903D01*
X202289248Y-136530256D01*
X202058928Y-136553735D01*
X201969624Y-136564834D01*
X201750285Y-136582002D01*
X201602883Y-136544712D01*
X201456724Y-136429587D01*
X201403963Y-136377792D01*
X201172988Y-136146817D01*
X201172988Y-133699868D01*
X201358894Y-133615164D01*
X201518974Y-133552424D01*
X201612630Y-133530460D01*
X201636643Y-133599875D01*
X201659087Y-133793826D01*
X201678466Y-134090871D01*
X201693285Y-134469569D01*
X201700432Y-134789512D01*
X201720402Y-136048563D01*
X201894619Y-136073196D01*
X202053073Y-136055973D01*
X202130714Y-136000208D01*
X202152417Y-135895947D01*
X202170946Y-135673859D01*
X202184828Y-135362086D01*
X202192591Y-134988767D01*
X202193710Y-134796652D01*
X202194828Y-133690717D01*
X202424685Y-133610589D01*
X202587373Y-133556109D01*
X202675868Y-133530702D01*
X202678421Y-133530460D01*
X202687299Y-133599523D01*
X202697057Y-133791027D01*
X202706878Y-134081448D01*
X202715940Y-134447261D01*
X202722271Y-134789512D01*
X202742241Y-136048563D01*
X203180172Y-136048563D01*
X203200268Y-134899913D01*
X203220364Y-133751262D01*
X203433856Y-133640861D01*
X203591483Y-133565049D01*
X203684775Y-133530646D01*
X203687467Y-133530460D01*
X203700309Y-133599600D01*
G37*
X203700309Y-133599600D02*
X203711448Y-133791633D01*
X203720177Y-134083477D01*
X203725787Y-134452053D01*
X203727586Y-134838639D01*
X203727586Y-136146817D01*
X203496612Y-136377792D01*
X203337444Y-136520117D01*
X203197723Y-136577768D01*
X203006755Y-136574119D01*
X202930951Y-136564834D01*
X202694025Y-136537815D01*
X202498055Y-136522332D01*
X202450287Y-136520903D01*
X202289248Y-136530256D01*
X202058928Y-136553735D01*
X201969624Y-136564834D01*
X201750285Y-136582002D01*
X201602883Y-136544712D01*
X201456724Y-136429587D01*
X201403963Y-136377792D01*
X201172988Y-136146817D01*
X201172988Y-133699868D01*
X201358894Y-133615164D01*
X201518974Y-133552424D01*
X201612630Y-133530460D01*
X201636643Y-133599875D01*
X201659087Y-133793826D01*
X201678466Y-134090871D01*
X201693285Y-134469569D01*
X201700432Y-134789512D01*
X201720402Y-136048563D01*
X201894619Y-136073196D01*
X202053073Y-136055973D01*
X202130714Y-136000208D01*
X202152417Y-135895947D01*
X202170946Y-135673859D01*
X202184828Y-135362086D01*
X202192591Y-134988767D01*
X202193710Y-134796652D01*
X202194828Y-133690717D01*
X202424685Y-133610589D01*
X202587373Y-133556109D01*
X202675868Y-133530702D01*
X202678421Y-133530460D01*
X202687299Y-133599523D01*
X202697057Y-133791027D01*
X202706878Y-134081448D01*
X202715940Y-134447261D01*
X202722271Y-134789512D01*
X202742241Y-136048563D01*
X203180172Y-136048563D01*
X203200268Y-134899913D01*
X203220364Y-133751262D01*
X203433856Y-133640861D01*
X203591483Y-133565049D01*
X203684775Y-133530646D01*
X203687467Y-133530460D01*
X203700309Y-133599600D01*
G36*
X205536016Y-133587891D02*
G01*
X205746172Y-133683484D01*
X205911124Y-133799314D01*
X206031986Y-133928830D01*
X206115431Y-134095908D01*
X206168133Y-134324423D01*
X206196767Y-134638252D01*
X206208008Y-135061269D01*
X206209195Y-135339832D01*
X206209195Y-136426569D01*
X206023290Y-136511273D01*
X205876865Y-136573180D01*
X205804324Y-136595977D01*
X205790446Y-136528142D01*
X205779437Y-136345236D01*
X205772696Y-136078158D01*
X205771264Y-135866092D01*
X205765114Y-135559719D01*
X205748531Y-135316669D01*
X205724316Y-135167836D01*
X205705080Y-135136207D01*
X205575778Y-135168506D01*
X205372793Y-135251349D01*
X205137755Y-135363653D01*
X204912293Y-135484337D01*
X204738038Y-135592320D01*
X204656619Y-135666519D01*
X204656297Y-135667322D01*
X204663300Y-135804642D01*
X204726098Y-135935730D01*
X204836352Y-136042203D01*
X204997273Y-136077815D01*
X205134802Y-136073665D01*
X205329586Y-136070612D01*
X205431831Y-136116246D01*
X205493237Y-136236814D01*
X205500980Y-136259550D01*
X205527600Y-136431496D01*
X205456413Y-136535900D01*
X205270860Y-136585657D01*
X205070420Y-136594860D01*
X204709725Y-136526645D01*
X204523006Y-136429226D01*
X204292406Y-136200369D01*
X204170108Y-135919456D01*
X204159134Y-135622628D01*
X204262503Y-135346027D01*
X204417991Y-135172701D01*
X204573234Y-135075663D01*
X204817238Y-134952812D01*
X205101580Y-134828229D01*
X205148975Y-134809192D01*
X205461303Y-134671362D01*
X205641347Y-134549885D01*
X205699251Y-134429119D01*
X205645159Y-134293425D01*
X205552299Y-134187356D01*
X205332818Y-134056755D01*
X205091325Y-134046959D01*
X204869859Y-134147602D01*
X204710464Y-134348316D01*
X204689543Y-134400100D01*
X204567739Y-134590563D01*
X204389912Y-134731963D01*
X204165517Y-134848002D01*
X204165517Y-134518961D01*
X204178725Y-134317919D01*
X204235354Y-134159466D01*
X204360917Y-133990408D01*
X204481454Y-133860190D01*
X204668886Y-133675805D01*
X204814514Y-133576756D01*
X204970930Y-133537025D01*
X205147983Y-133530460D01*
X205536016Y-133587891D01*
G37*
X205536016Y-133587891D02*
X205746172Y-133683484D01*
X205911124Y-133799314D01*
X206031986Y-133928830D01*
X206115431Y-134095908D01*
X206168133Y-134324423D01*
X206196767Y-134638252D01*
X206208008Y-135061269D01*
X206209195Y-135339832D01*
X206209195Y-136426569D01*
X206023290Y-136511273D01*
X205876865Y-136573180D01*
X205804324Y-136595977D01*
X205790446Y-136528142D01*
X205779437Y-136345236D01*
X205772696Y-136078158D01*
X205771264Y-135866092D01*
X205765114Y-135559719D01*
X205748531Y-135316669D01*
X205724316Y-135167836D01*
X205705080Y-135136207D01*
X205575778Y-135168506D01*
X205372793Y-135251349D01*
X205137755Y-135363653D01*
X204912293Y-135484337D01*
X204738038Y-135592320D01*
X204656619Y-135666519D01*
X204656297Y-135667322D01*
X204663300Y-135804642D01*
X204726098Y-135935730D01*
X204836352Y-136042203D01*
X204997273Y-136077815D01*
X205134802Y-136073665D01*
X205329586Y-136070612D01*
X205431831Y-136116246D01*
X205493237Y-136236814D01*
X205500980Y-136259550D01*
X205527600Y-136431496D01*
X205456413Y-136535900D01*
X205270860Y-136585657D01*
X205070420Y-136594860D01*
X204709725Y-136526645D01*
X204523006Y-136429226D01*
X204292406Y-136200369D01*
X204170108Y-135919456D01*
X204159134Y-135622628D01*
X204262503Y-135346027D01*
X204417991Y-135172701D01*
X204573234Y-135075663D01*
X204817238Y-134952812D01*
X205101580Y-134828229D01*
X205148975Y-134809192D01*
X205461303Y-134671362D01*
X205641347Y-134549885D01*
X205699251Y-134429119D01*
X205645159Y-134293425D01*
X205552299Y-134187356D01*
X205332818Y-134056755D01*
X205091325Y-134046959D01*
X204869859Y-134147602D01*
X204710464Y-134348316D01*
X204689543Y-134400100D01*
X204567739Y-134590563D01*
X204389912Y-134731963D01*
X204165517Y-134848002D01*
X204165517Y-134518961D01*
X204178725Y-134317919D01*
X204235354Y-134159466D01*
X204360917Y-133990408D01*
X204481454Y-133860190D01*
X204668886Y-133675805D01*
X204814514Y-133576756D01*
X204970930Y-133537025D01*
X205147983Y-133530460D01*
X205536016Y-133587891D01*
G36*
X208089224Y-133600046D02*
G01*
X208176463Y-133638173D01*
X208384692Y-133803088D01*
X208562756Y-134041544D01*
X208672881Y-134296016D01*
X208690805Y-134421469D01*
X208630713Y-134596617D01*
X208498901Y-134689293D01*
X208357577Y-134745410D01*
X208292865Y-134755750D01*
X208261355Y-134680707D01*
X208199135Y-134517403D01*
X208171837Y-134443614D01*
X208018771Y-134188369D01*
X207797153Y-134061057D01*
X207512982Y-134064972D01*
X207491934Y-134069986D01*
X207340220Y-134141917D01*
X207228685Y-134282147D01*
X207152506Y-134507908D01*
X207106861Y-134836427D01*
X207086926Y-135284934D01*
X207085057Y-135523584D01*
X207084130Y-135899783D01*
X207078056Y-136156237D01*
X207061899Y-136319181D01*
X207030720Y-136414845D01*
X206979582Y-136469464D01*
X206903547Y-136509269D01*
X206899152Y-136511273D01*
X206752727Y-136573180D01*
X206680186Y-136595977D01*
X206669040Y-136527055D01*
X206659498Y-136336550D01*
X206652247Y-136048852D01*
X206647977Y-135688353D01*
X206647126Y-135424536D01*
X206651469Y-134914032D01*
X206668455Y-134526742D01*
X206704018Y-134240060D01*
X206764094Y-134031379D01*
X206854620Y-133878090D01*
X206981529Y-133757586D01*
X207106848Y-133673482D01*
X207408186Y-133561548D01*
X207758893Y-133536302D01*
X208089224Y-133600046D01*
G37*
X208089224Y-133600046D02*
X208176463Y-133638173D01*
X208384692Y-133803088D01*
X208562756Y-134041544D01*
X208672881Y-134296016D01*
X208690805Y-134421469D01*
X208630713Y-134596617D01*
X208498901Y-134689293D01*
X208357577Y-134745410D01*
X208292865Y-134755750D01*
X208261355Y-134680707D01*
X208199135Y-134517403D01*
X208171837Y-134443614D01*
X208018771Y-134188369D01*
X207797153Y-134061057D01*
X207512982Y-134064972D01*
X207491934Y-134069986D01*
X207340220Y-134141917D01*
X207228685Y-134282147D01*
X207152506Y-134507908D01*
X207106861Y-134836427D01*
X207086926Y-135284934D01*
X207085057Y-135523584D01*
X207084130Y-135899783D01*
X207078056Y-136156237D01*
X207061899Y-136319181D01*
X207030720Y-136414845D01*
X206979582Y-136469464D01*
X206903547Y-136509269D01*
X206899152Y-136511273D01*
X206752727Y-136573180D01*
X206680186Y-136595977D01*
X206669040Y-136527055D01*
X206659498Y-136336550D01*
X206652247Y-136048852D01*
X206647977Y-135688353D01*
X206647126Y-135424536D01*
X206651469Y-134914032D01*
X206668455Y-134526742D01*
X206704018Y-134240060D01*
X206764094Y-134031379D01*
X206854620Y-133878090D01*
X206981529Y-133757586D01*
X207106848Y-133673482D01*
X207408186Y-133561548D01*
X207758893Y-133536302D01*
X208089224Y-133600046D01*
G36*
X210608597Y-133641350D02*
G01*
X210897374Y-133830085D01*
X211036660Y-133999044D01*
X211147009Y-134305638D01*
X211155773Y-134548245D01*
X211135919Y-134872640D01*
X210387787Y-135200097D01*
X210024026Y-135367395D01*
X209786343Y-135501975D01*
X209662753Y-135618541D01*
X209641276Y-135731800D01*
X209709930Y-135856456D01*
X209785632Y-135939081D01*
X210005907Y-136071584D01*
X210245491Y-136080868D01*
X210465530Y-135977602D01*
X210627171Y-135772458D01*
X210656082Y-135700019D01*
X210794563Y-135473772D01*
X210953882Y-135377351D01*
X211172414Y-135294864D01*
X211172414Y-135607585D01*
X211153094Y-135820389D01*
X211077414Y-135999845D01*
X210918795Y-136205891D01*
X210895219Y-136232666D01*
X210718782Y-136415979D01*
X210567118Y-136514355D01*
X210377374Y-136559613D01*
X210220076Y-136574434D01*
X209938716Y-136578127D01*
X209738425Y-136531337D01*
X209613474Y-136461868D01*
X209417094Y-136309102D01*
X209281158Y-136143886D01*
X209195129Y-135936103D01*
X209148469Y-135655635D01*
X209130640Y-135272366D01*
X209129217Y-135077841D01*
X209134056Y-134844632D01*
X209574748Y-134844632D01*
X209579859Y-134969741D01*
X209592598Y-134990230D01*
X209676664Y-134962396D01*
X209857576Y-134888733D01*
X210099368Y-134784002D01*
X210149932Y-134761492D01*
X210455508Y-134606106D01*
X210623868Y-134469538D01*
X210660869Y-134341622D01*
X210572367Y-134212191D01*
X210499277Y-134155001D01*
X210235540Y-134040625D01*
X209988690Y-134059521D01*
X209782031Y-134199129D01*
X209638869Y-134446883D01*
X209592970Y-134643535D01*
X209574748Y-134844632D01*
X209134056Y-134844632D01*
X209138648Y-134623378D01*
X209173397Y-134287133D01*
X209242235Y-134042289D01*
X209353930Y-133862028D01*
X209517253Y-133719532D01*
X209588457Y-133673482D01*
X209911906Y-133553554D01*
X210266030Y-133546008D01*
X210608597Y-133641350D01*
G37*
X210608597Y-133641350D02*
X210897374Y-133830085D01*
X211036660Y-133999044D01*
X211147009Y-134305638D01*
X211155773Y-134548245D01*
X211135919Y-134872640D01*
X210387787Y-135200097D01*
X210024026Y-135367395D01*
X209786343Y-135501975D01*
X209662753Y-135618541D01*
X209641276Y-135731800D01*
X209709930Y-135856456D01*
X209785632Y-135939081D01*
X210005907Y-136071584D01*
X210245491Y-136080868D01*
X210465530Y-135977602D01*
X210627171Y-135772458D01*
X210656082Y-135700019D01*
X210794563Y-135473772D01*
X210953882Y-135377351D01*
X211172414Y-135294864D01*
X211172414Y-135607585D01*
X211153094Y-135820389D01*
X211077414Y-135999845D01*
X210918795Y-136205891D01*
X210895219Y-136232666D01*
X210718782Y-136415979D01*
X210567118Y-136514355D01*
X210377374Y-136559613D01*
X210220076Y-136574434D01*
X209938716Y-136578127D01*
X209738425Y-136531337D01*
X209613474Y-136461868D01*
X209417094Y-136309102D01*
X209281158Y-136143886D01*
X209195129Y-135936103D01*
X209148469Y-135655635D01*
X209130640Y-135272366D01*
X209129217Y-135077841D01*
X209134056Y-134844632D01*
X209574748Y-134844632D01*
X209579859Y-134969741D01*
X209592598Y-134990230D01*
X209676664Y-134962396D01*
X209857576Y-134888733D01*
X210099368Y-134784002D01*
X210149932Y-134761492D01*
X210455508Y-134606106D01*
X210623868Y-134469538D01*
X210660869Y-134341622D01*
X210572367Y-134212191D01*
X210499277Y-134155001D01*
X210235540Y-134040625D01*
X209988690Y-134059521D01*
X209782031Y-134199129D01*
X209638869Y-134446883D01*
X209592970Y-134643535D01*
X209574748Y-134844632D01*
X209134056Y-134844632D01*
X209138648Y-134623378D01*
X209173397Y-134287133D01*
X209242235Y-134042289D01*
X209353930Y-133862028D01*
X209517253Y-133719532D01*
X209588457Y-133673482D01*
X209911906Y-133553554D01*
X210266030Y-133546008D01*
X210608597Y-133641350D01*
G36*
X195272534Y-109882495D02*
G01*
X195667515Y-109884658D01*
X195953368Y-109890513D01*
X196148517Y-109901905D01*
X196271385Y-109920675D01*
X196340398Y-109948666D01*
X196373979Y-109987721D01*
X196390552Y-110039682D01*
X196392163Y-110046408D01*
X196417338Y-110167783D01*
X196463937Y-110407262D01*
X196527113Y-110739357D01*
X196602018Y-111138577D01*
X196683804Y-111579434D01*
X196686660Y-111594917D01*
X196768583Y-112026954D01*
X196845232Y-112408672D01*
X196911659Y-112717178D01*
X196962918Y-112929577D01*
X196994064Y-113022975D01*
X196995549Y-113024630D01*
X197087298Y-113070239D01*
X197276464Y-113146242D01*
X197522195Y-113236232D01*
X197523563Y-113236713D01*
X197833081Y-113353055D01*
X198197989Y-113501260D01*
X198541953Y-113650272D01*
X198558232Y-113657640D01*
X199118475Y-113911914D01*
X200359046Y-113064743D01*
X200739614Y-112806480D01*
X201084352Y-112575593D01*
X201373287Y-112385210D01*
X201586447Y-112248463D01*
X201703860Y-112178482D01*
X201715010Y-112173292D01*
X201800336Y-112196399D01*
X201959703Y-112307890D01*
X202199327Y-112513022D01*
X202525423Y-112817052D01*
X202858321Y-113140512D01*
X203179235Y-113459254D01*
X203466452Y-113750115D01*
X203702681Y-113995131D01*
X203870632Y-114176341D01*
X203953014Y-114275783D01*
X203956079Y-114280902D01*
X203965186Y-114349141D01*
X203930876Y-114460584D01*
X203844672Y-114630279D01*
X203698098Y-114873278D01*
X203482676Y-115204628D01*
X203195499Y-115631189D01*
X202940634Y-116006638D01*
X202712807Y-116343374D01*
X202525181Y-116621849D01*
X202390923Y-116822512D01*
X202323199Y-116925813D01*
X202318936Y-116932826D01*
X202327204Y-117031802D01*
X202389882Y-117224172D01*
X202494495Y-117473579D01*
X202531780Y-117553228D01*
X202694465Y-117908065D01*
X202868030Y-118310684D01*
X203009022Y-118659052D01*
X203110617Y-118917610D01*
X203191314Y-119114104D01*
X203237945Y-119216800D01*
X203243743Y-119224713D01*
X203329506Y-119237820D01*
X203531672Y-119273734D01*
X203823358Y-119327342D01*
X204177686Y-119393533D01*
X204567775Y-119467192D01*
X204966744Y-119543208D01*
X205347713Y-119616470D01*
X205683801Y-119681863D01*
X205948129Y-119734276D01*
X206113815Y-119768597D01*
X206154454Y-119778301D01*
X206196433Y-119802251D01*
X206228121Y-119856340D01*
X206250944Y-119958828D01*
X206266328Y-120127972D01*
X206275699Y-120382029D01*
X206280481Y-120739257D01*
X206282100Y-121217913D01*
X206282184Y-121414112D01*
X206282184Y-123009766D01*
X205898994Y-123085399D01*
X205685805Y-123126410D01*
X205367674Y-123186273D01*
X204983288Y-123257767D01*
X204571336Y-123333668D01*
X204457471Y-123354516D01*
X204077331Y-123428426D01*
X203746170Y-123501105D01*
X203491784Y-123565822D01*
X203341969Y-123615844D01*
X203317013Y-123630753D01*
X203255733Y-123736336D01*
X203167869Y-123940924D01*
X203070432Y-124204208D01*
X203051105Y-124260920D01*
X202923400Y-124612544D01*
X202764884Y-125009286D01*
X202609759Y-125365562D01*
X202608995Y-125367216D01*
X202350668Y-125926099D01*
X203200285Y-127175839D01*
X204049901Y-128425580D01*
X202959053Y-129518250D01*
X202629121Y-129843452D01*
X202328197Y-130130121D01*
X202073182Y-130362954D01*
X201880977Y-130526645D01*
X201768483Y-130605892D01*
X201752346Y-130610920D01*
X201657600Y-130571324D01*
X201464269Y-130461240D01*
X201193472Y-130293725D01*
X200866330Y-130081836D01*
X200512630Y-129844540D01*
X200153653Y-129602495D01*
X199833588Y-129391878D01*
X199572762Y-129225646D01*
X199391500Y-129116756D01*
X199310394Y-129078161D01*
X199211440Y-129110820D01*
X199023797Y-129196876D01*
X198786169Y-129318450D01*
X198760979Y-129331963D01*
X198440978Y-129492450D01*
X198221545Y-129571157D01*
X198085069Y-129571994D01*
X198013938Y-129498869D01*
X198013524Y-129497845D01*
X197977969Y-129411245D01*
X197893172Y-129205672D01*
X197765710Y-128897035D01*
X197602156Y-128501246D01*
X197409085Y-128034216D01*
X197193072Y-127511855D01*
X196983876Y-127006115D01*
X196753969Y-126447999D01*
X196542876Y-125930980D01*
X196356922Y-125470906D01*
X196202436Y-125083627D01*
X196085743Y-124784991D01*
X196013170Y-124590847D01*
X195990805Y-124518391D01*
X196046891Y-124435275D01*
X196193596Y-124302807D01*
X196389221Y-124156761D01*
X196946334Y-123694880D01*
X197381794Y-123165456D01*
X197690384Y-122579641D01*
X197866884Y-121948586D01*
X197906076Y-121283443D01*
X197877589Y-120976437D01*
X197722374Y-120339484D01*
X197455058Y-119777004D01*
X197092222Y-119294544D01*
X196650444Y-118897652D01*
X196146306Y-118591875D01*
X195596386Y-118382762D01*
X195017264Y-118275861D01*
X194425521Y-118276718D01*
X193837736Y-118390881D01*
X193270489Y-118623898D01*
X192740360Y-118981318D01*
X192519090Y-119183458D01*
X192094723Y-119702519D01*
X191799247Y-120269738D01*
X191630695Y-120868583D01*
X191587100Y-121482517D01*
X191666495Y-122095008D01*
X191866913Y-122689519D01*
X192186387Y-123249517D01*
X192622949Y-123758467D01*
X193110779Y-124156761D01*
X193313977Y-124309006D01*
X193457523Y-124440037D01*
X193509195Y-124518515D01*
X193482140Y-124604097D01*
X193405193Y-124808547D01*
X193284685Y-125116017D01*
X193126946Y-125510658D01*
X192938305Y-125976623D01*
X192725094Y-126498064D01*
X192515546Y-127006239D01*
X192284361Y-127564833D01*
X192070223Y-128082461D01*
X191879705Y-128543216D01*
X191719383Y-128931188D01*
X191595829Y-129230470D01*
X191515619Y-129425152D01*
X191485898Y-129497845D01*
X191415685Y-129571694D01*
X191279873Y-129571477D01*
X191060986Y-129493315D01*
X190741547Y-129333324D01*
X190739021Y-129331963D01*
X190498505Y-129207804D01*
X190304078Y-129117363D01*
X190194443Y-129078519D01*
X190189605Y-129078161D01*
X190107073Y-129117561D01*
X189924864Y-129227124D01*
X189663306Y-129393893D01*
X189342724Y-129604909D01*
X188987370Y-129844540D01*
X188625582Y-130087168D01*
X188299510Y-130298174D01*
X188030275Y-130464502D01*
X187838996Y-130573095D01*
X187747654Y-130610920D01*
X187663545Y-130561204D01*
X187494439Y-130422259D01*
X187257233Y-130209385D01*
X186968825Y-129937882D01*
X186646112Y-129623054D01*
X186540572Y-129517874D01*
X185449348Y-128424828D01*
X186279942Y-127205850D01*
X186532365Y-126831513D01*
X186753905Y-126495549D01*
X186932134Y-126217423D01*
X187054624Y-126016597D01*
X187108945Y-125912535D01*
X187110536Y-125905132D01*
X187081899Y-125807046D01*
X187004873Y-125609737D01*
X186892789Y-125346272D01*
X186814117Y-125169886D01*
X186667019Y-124832191D01*
X186528489Y-124491022D01*
X186421090Y-124202758D01*
X186391916Y-124114943D01*
X186309028Y-123880434D01*
X186228002Y-123699236D01*
X186183498Y-123630753D01*
X186085286Y-123588841D01*
X185870935Y-123529426D01*
X185568258Y-123459243D01*
X185205067Y-123385024D01*
X185042529Y-123354516D01*
X184629783Y-123278671D01*
X184233881Y-123205233D01*
X183893510Y-123141422D01*
X183647358Y-123094462D01*
X183601006Y-123085399D01*
X183217816Y-123009766D01*
X183217816Y-121414112D01*
X183218677Y-120889424D01*
X183222209Y-120492450D01*
X183229839Y-120204933D01*
X183242991Y-120008616D01*
X183263092Y-119885239D01*
X183291568Y-119816547D01*
X183329843Y-119784282D01*
X183345546Y-119778301D01*
X183440261Y-119757084D01*
X183649511Y-119714750D01*
X183946416Y-119656414D01*
X184304096Y-119587187D01*
X184695670Y-119512182D01*
X185094257Y-119436511D01*
X185472978Y-119365287D01*
X185804952Y-119303622D01*
X186063298Y-119256628D01*
X186221137Y-119229417D01*
X186256257Y-119224713D01*
X186288074Y-119161759D01*
X186358501Y-118994054D01*
X186454371Y-118753332D01*
X186490978Y-118659052D01*
X186638629Y-118294804D01*
X186812500Y-117892377D01*
X186968220Y-117553228D01*
X187082801Y-117293903D01*
X187159033Y-117080815D01*
X187184480Y-116950316D01*
X187180423Y-116932826D01*
X187126641Y-116850255D01*
X187003837Y-116666608D01*
X186825192Y-116401443D01*
X186603886Y-116074315D01*
X186353103Y-115704780D01*
X186303514Y-115631836D01*
X186012530Y-115199659D01*
X185798631Y-114870565D01*
X185653290Y-114629402D01*
X185567980Y-114461019D01*
X185534173Y-114350264D01*
X185543341Y-114281984D01*
X185543575Y-114281549D01*
X185615732Y-114191865D01*
X185775333Y-114018478D01*
X186005077Y-113779364D01*
X186287666Y-113492497D01*
X186605802Y-113175852D01*
X186641679Y-113140512D01*
X187042606Y-112752258D01*
X187352012Y-112467175D01*
X187576111Y-112280005D01*
X187721120Y-112185491D01*
X187784990Y-112173292D01*
X187878205Y-112226508D01*
X188071643Y-112349434D01*
X188345333Y-112528937D01*
X188679300Y-112751889D01*
X189053575Y-113005157D01*
X189140954Y-113064743D01*
X190381525Y-113911914D01*
X190941768Y-113657640D01*
X191282473Y-113509457D01*
X191648191Y-113360426D01*
X191962587Y-113241601D01*
X191976437Y-113236713D01*
X192222357Y-113146693D01*
X192411927Y-113070573D01*
X192504294Y-113024762D01*
X192504451Y-113024630D01*
X192533760Y-112941822D01*
X192583581Y-112738168D01*
X192648968Y-112436563D01*
X192724976Y-112059898D01*
X192806657Y-111631069D01*
X192813340Y-111594917D01*
X192895276Y-111153088D01*
X192970495Y-110752026D01*
X193034152Y-110417219D01*
X193081397Y-110174158D01*
X193107383Y-110048330D01*
X193107837Y-110046408D01*
X193123651Y-109992882D01*
X193154403Y-109952469D01*
X193218515Y-109923327D01*
X193334413Y-109903612D01*
X193520521Y-109891483D01*
X193795263Y-109885097D01*
X194177063Y-109882612D01*
X194684346Y-109882185D01*
X194750000Y-109882184D01*
X195272534Y-109882495D01*
G37*
X195272534Y-109882495D02*
X195667515Y-109884658D01*
X195953368Y-109890513D01*
X196148517Y-109901905D01*
X196271385Y-109920675D01*
X196340398Y-109948666D01*
X196373979Y-109987721D01*
X196390552Y-110039682D01*
X196392163Y-110046408D01*
X196417338Y-110167783D01*
X196463937Y-110407262D01*
X196527113Y-110739357D01*
X196602018Y-111138577D01*
X196683804Y-111579434D01*
X196686660Y-111594917D01*
X196768583Y-112026954D01*
X196845232Y-112408672D01*
X196911659Y-112717178D01*
X196962918Y-112929577D01*
X196994064Y-113022975D01*
X196995549Y-113024630D01*
X197087298Y-113070239D01*
X197276464Y-113146242D01*
X197522195Y-113236232D01*
X197523563Y-113236713D01*
X197833081Y-113353055D01*
X198197989Y-113501260D01*
X198541953Y-113650272D01*
X198558232Y-113657640D01*
X199118475Y-113911914D01*
X200359046Y-113064743D01*
X200739614Y-112806480D01*
X201084352Y-112575593D01*
X201373287Y-112385210D01*
X201586447Y-112248463D01*
X201703860Y-112178482D01*
X201715010Y-112173292D01*
X201800336Y-112196399D01*
X201959703Y-112307890D01*
X202199327Y-112513022D01*
X202525423Y-112817052D01*
X202858321Y-113140512D01*
X203179235Y-113459254D01*
X203466452Y-113750115D01*
X203702681Y-113995131D01*
X203870632Y-114176341D01*
X203953014Y-114275783D01*
X203956079Y-114280902D01*
X203965186Y-114349141D01*
X203930876Y-114460584D01*
X203844672Y-114630279D01*
X203698098Y-114873278D01*
X203482676Y-115204628D01*
X203195499Y-115631189D01*
X202940634Y-116006638D01*
X202712807Y-116343374D01*
X202525181Y-116621849D01*
X202390923Y-116822512D01*
X202323199Y-116925813D01*
X202318936Y-116932826D01*
X202327204Y-117031802D01*
X202389882Y-117224172D01*
X202494495Y-117473579D01*
X202531780Y-117553228D01*
X202694465Y-117908065D01*
X202868030Y-118310684D01*
X203009022Y-118659052D01*
X203110617Y-118917610D01*
X203191314Y-119114104D01*
X203237945Y-119216800D01*
X203243743Y-119224713D01*
X203329506Y-119237820D01*
X203531672Y-119273734D01*
X203823358Y-119327342D01*
X204177686Y-119393533D01*
X204567775Y-119467192D01*
X204966744Y-119543208D01*
X205347713Y-119616470D01*
X205683801Y-119681863D01*
X205948129Y-119734276D01*
X206113815Y-119768597D01*
X206154454Y-119778301D01*
X206196433Y-119802251D01*
X206228121Y-119856340D01*
X206250944Y-119958828D01*
X206266328Y-120127972D01*
X206275699Y-120382029D01*
X206280481Y-120739257D01*
X206282100Y-121217913D01*
X206282184Y-121414112D01*
X206282184Y-123009766D01*
X205898994Y-123085399D01*
X205685805Y-123126410D01*
X205367674Y-123186273D01*
X204983288Y-123257767D01*
X204571336Y-123333668D01*
X204457471Y-123354516D01*
X204077331Y-123428426D01*
X203746170Y-123501105D01*
X203491784Y-123565822D01*
X203341969Y-123615844D01*
X203317013Y-123630753D01*
X203255733Y-123736336D01*
X203167869Y-123940924D01*
X203070432Y-124204208D01*
X203051105Y-124260920D01*
X202923400Y-124612544D01*
X202764884Y-125009286D01*
X202609759Y-125365562D01*
X202608995Y-125367216D01*
X202350668Y-125926099D01*
X203200285Y-127175839D01*
X204049901Y-128425580D01*
X202959053Y-129518250D01*
X202629121Y-129843452D01*
X202328197Y-130130121D01*
X202073182Y-130362954D01*
X201880977Y-130526645D01*
X201768483Y-130605892D01*
X201752346Y-130610920D01*
X201657600Y-130571324D01*
X201464269Y-130461240D01*
X201193472Y-130293725D01*
X200866330Y-130081836D01*
X200512630Y-129844540D01*
X200153653Y-129602495D01*
X199833588Y-129391878D01*
X199572762Y-129225646D01*
X199391500Y-129116756D01*
X199310394Y-129078161D01*
X199211440Y-129110820D01*
X199023797Y-129196876D01*
X198786169Y-129318450D01*
X198760979Y-129331963D01*
X198440978Y-129492450D01*
X198221545Y-129571157D01*
X198085069Y-129571994D01*
X198013938Y-129498869D01*
X198013524Y-129497845D01*
X197977969Y-129411245D01*
X197893172Y-129205672D01*
X197765710Y-128897035D01*
X197602156Y-128501246D01*
X197409085Y-128034216D01*
X197193072Y-127511855D01*
X196983876Y-127006115D01*
X196753969Y-126447999D01*
X196542876Y-125930980D01*
X196356922Y-125470906D01*
X196202436Y-125083627D01*
X196085743Y-124784991D01*
X196013170Y-124590847D01*
X195990805Y-124518391D01*
X196046891Y-124435275D01*
X196193596Y-124302807D01*
X196389221Y-124156761D01*
X196946334Y-123694880D01*
X197381794Y-123165456D01*
X197690384Y-122579641D01*
X197866884Y-121948586D01*
X197906076Y-121283443D01*
X197877589Y-120976437D01*
X197722374Y-120339484D01*
X197455058Y-119777004D01*
X197092222Y-119294544D01*
X196650444Y-118897652D01*
X196146306Y-118591875D01*
X195596386Y-118382762D01*
X195017264Y-118275861D01*
X194425521Y-118276718D01*
X193837736Y-118390881D01*
X193270489Y-118623898D01*
X192740360Y-118981318D01*
X192519090Y-119183458D01*
X192094723Y-119702519D01*
X191799247Y-120269738D01*
X191630695Y-120868583D01*
X191587100Y-121482517D01*
X191666495Y-122095008D01*
X191866913Y-122689519D01*
X192186387Y-123249517D01*
X192622949Y-123758467D01*
X193110779Y-124156761D01*
X193313977Y-124309006D01*
X193457523Y-124440037D01*
X193509195Y-124518515D01*
X193482140Y-124604097D01*
X193405193Y-124808547D01*
X193284685Y-125116017D01*
X193126946Y-125510658D01*
X192938305Y-125976623D01*
X192725094Y-126498064D01*
X192515546Y-127006239D01*
X192284361Y-127564833D01*
X192070223Y-128082461D01*
X191879705Y-128543216D01*
X191719383Y-128931188D01*
X191595829Y-129230470D01*
X191515619Y-129425152D01*
X191485898Y-129497845D01*
X191415685Y-129571694D01*
X191279873Y-129571477D01*
X191060986Y-129493315D01*
X190741547Y-129333324D01*
X190739021Y-129331963D01*
X190498505Y-129207804D01*
X190304078Y-129117363D01*
X190194443Y-129078519D01*
X190189605Y-129078161D01*
X190107073Y-129117561D01*
X189924864Y-129227124D01*
X189663306Y-129393893D01*
X189342724Y-129604909D01*
X188987370Y-129844540D01*
X188625582Y-130087168D01*
X188299510Y-130298174D01*
X188030275Y-130464502D01*
X187838996Y-130573095D01*
X187747654Y-130610920D01*
X187663545Y-130561204D01*
X187494439Y-130422259D01*
X187257233Y-130209385D01*
X186968825Y-129937882D01*
X186646112Y-129623054D01*
X186540572Y-129517874D01*
X185449348Y-128424828D01*
X186279942Y-127205850D01*
X186532365Y-126831513D01*
X186753905Y-126495549D01*
X186932134Y-126217423D01*
X187054624Y-126016597D01*
X187108945Y-125912535D01*
X187110536Y-125905132D01*
X187081899Y-125807046D01*
X187004873Y-125609737D01*
X186892789Y-125346272D01*
X186814117Y-125169886D01*
X186667019Y-124832191D01*
X186528489Y-124491022D01*
X186421090Y-124202758D01*
X186391916Y-124114943D01*
X186309028Y-123880434D01*
X186228002Y-123699236D01*
X186183498Y-123630753D01*
X186085286Y-123588841D01*
X185870935Y-123529426D01*
X185568258Y-123459243D01*
X185205067Y-123385024D01*
X185042529Y-123354516D01*
X184629783Y-123278671D01*
X184233881Y-123205233D01*
X183893510Y-123141422D01*
X183647358Y-123094462D01*
X183601006Y-123085399D01*
X183217816Y-123009766D01*
X183217816Y-121414112D01*
X183218677Y-120889424D01*
X183222209Y-120492450D01*
X183229839Y-120204933D01*
X183242991Y-120008616D01*
X183263092Y-119885239D01*
X183291568Y-119816547D01*
X183329843Y-119784282D01*
X183345546Y-119778301D01*
X183440261Y-119757084D01*
X183649511Y-119714750D01*
X183946416Y-119656414D01*
X184304096Y-119587187D01*
X184695670Y-119512182D01*
X185094257Y-119436511D01*
X185472978Y-119365287D01*
X185804952Y-119303622D01*
X186063298Y-119256628D01*
X186221137Y-119229417D01*
X186256257Y-119224713D01*
X186288074Y-119161759D01*
X186358501Y-118994054D01*
X186454371Y-118753332D01*
X186490978Y-118659052D01*
X186638629Y-118294804D01*
X186812500Y-117892377D01*
X186968220Y-117553228D01*
X187082801Y-117293903D01*
X187159033Y-117080815D01*
X187184480Y-116950316D01*
X187180423Y-116932826D01*
X187126641Y-116850255D01*
X187003837Y-116666608D01*
X186825192Y-116401443D01*
X186603886Y-116074315D01*
X186353103Y-115704780D01*
X186303514Y-115631836D01*
X186012530Y-115199659D01*
X185798631Y-114870565D01*
X185653290Y-114629402D01*
X185567980Y-114461019D01*
X185534173Y-114350264D01*
X185543341Y-114281984D01*
X185543575Y-114281549D01*
X185615732Y-114191865D01*
X185775333Y-114018478D01*
X186005077Y-113779364D01*
X186287666Y-113492497D01*
X186605802Y-113175852D01*
X186641679Y-113140512D01*
X187042606Y-112752258D01*
X187352012Y-112467175D01*
X187576111Y-112280005D01*
X187721120Y-112185491D01*
X187784990Y-112173292D01*
X187878205Y-112226508D01*
X188071643Y-112349434D01*
X188345333Y-112528937D01*
X188679300Y-112751889D01*
X189053575Y-113005157D01*
X189140954Y-113064743D01*
X190381525Y-113911914D01*
X190941768Y-113657640D01*
X191282473Y-113509457D01*
X191648191Y-113360426D01*
X191962587Y-113241601D01*
X191976437Y-113236713D01*
X192222357Y-113146693D01*
X192411927Y-113070573D01*
X192504294Y-113024762D01*
X192504451Y-113024630D01*
X192533760Y-112941822D01*
X192583581Y-112738168D01*
X192648968Y-112436563D01*
X192724976Y-112059898D01*
X192806657Y-111631069D01*
X192813340Y-111594917D01*
X192895276Y-111153088D01*
X192970495Y-110752026D01*
X193034152Y-110417219D01*
X193081397Y-110174158D01*
X193107383Y-110048330D01*
X193107837Y-110046408D01*
X193123651Y-109992882D01*
X193154403Y-109952469D01*
X193218515Y-109923327D01*
X193334413Y-109903612D01*
X193520521Y-109891483D01*
X193795263Y-109885097D01*
X194177063Y-109882612D01*
X194684346Y-109882185D01*
X194750000Y-109882184D01*
X195272534Y-109882495D01*
%TD*%
M02*
