G04 #@! TF.GenerationSoftware,KiCad,Pcbnew,(5.1.9-0-10_14)*
G04 #@! TF.CreationDate,2023-06-12T04:28:03-04:00*
G04 #@! TF.ProjectId,LiBCM-Daughterboard,4c694243-4d2d-4446-9175-676874657262,A*
G04 #@! TF.SameCoordinates,Original*
G04 #@! TF.FileFunction,Legend,Top*
G04 #@! TF.FilePolarity,Positive*
%FSLAX46Y46*%
G04 Gerber Fmt 4.6, Leading zero omitted, Abs format (unit mm)*
G04 Created by KiCad (PCBNEW (5.1.9-0-10_14)) date 2023-06-12 04:28:03*
%MOMM*%
%LPD*%
G01*
G04 APERTURE LIST*
%ADD10C,0.200000*%
%ADD11C,0.150000*%
%ADD12C,0.120000*%
%ADD13R,1.700000X1.700000*%
%ADD14O,1.700000X1.700000*%
%ADD15R,1.060000X0.650000*%
G04 APERTURE END LIST*
D10*
X36952380Y-175065476D02*
X36357142Y-175065476D01*
X36297619Y-175660714D01*
X36357142Y-175601190D01*
X36476190Y-175541666D01*
X36773809Y-175541666D01*
X36892857Y-175601190D01*
X36952380Y-175660714D01*
X37011904Y-175779761D01*
X37011904Y-176077380D01*
X36952380Y-176196428D01*
X36892857Y-176255952D01*
X36773809Y-176315476D01*
X36476190Y-176315476D01*
X36357142Y-176255952D01*
X36297619Y-176196428D01*
X37369047Y-175065476D02*
X37785714Y-176315476D01*
X38202380Y-175065476D01*
X39511904Y-176255952D02*
X39690476Y-176315476D01*
X39988095Y-176315476D01*
X40107142Y-176255952D01*
X40166666Y-176196428D01*
X40226190Y-176077380D01*
X40226190Y-175958333D01*
X40166666Y-175839285D01*
X40107142Y-175779761D01*
X39988095Y-175720238D01*
X39750000Y-175660714D01*
X39630952Y-175601190D01*
X39571428Y-175541666D01*
X39511904Y-175422619D01*
X39511904Y-175303571D01*
X39571428Y-175184523D01*
X39630952Y-175125000D01*
X39750000Y-175065476D01*
X40047619Y-175065476D01*
X40226190Y-175125000D01*
X40761904Y-176315476D02*
X40761904Y-175065476D01*
X41238095Y-175065476D01*
X41357142Y-175125000D01*
X41416666Y-175184523D01*
X41476190Y-175303571D01*
X41476190Y-175482142D01*
X41416666Y-175601190D01*
X41357142Y-175660714D01*
X41238095Y-175720238D01*
X40761904Y-175720238D01*
X42011904Y-176315476D02*
X42011904Y-175065476D01*
X44095238Y-175482142D02*
X44095238Y-176315476D01*
X43797619Y-175005952D02*
X43500000Y-175898809D01*
X44273809Y-175898809D01*
X45404761Y-175125000D02*
X45285714Y-175065476D01*
X45107142Y-175065476D01*
X44928571Y-175125000D01*
X44809523Y-175244047D01*
X44750000Y-175363095D01*
X44690476Y-175601190D01*
X44690476Y-175779761D01*
X44750000Y-176017857D01*
X44809523Y-176136904D01*
X44928571Y-176255952D01*
X45107142Y-176315476D01*
X45226190Y-176315476D01*
X45404761Y-176255952D01*
X45464285Y-176196428D01*
X45464285Y-175779761D01*
X45226190Y-175779761D01*
X46000000Y-176315476D02*
X46000000Y-175065476D01*
X46000000Y-175541666D02*
X46119047Y-175482142D01*
X46357142Y-175482142D01*
X46476190Y-175541666D01*
X46535714Y-175601190D01*
X46595238Y-175720238D01*
X46595238Y-176077380D01*
X46535714Y-176196428D01*
X46476190Y-176255952D01*
X46357142Y-176315476D01*
X46119047Y-176315476D01*
X46000000Y-176255952D01*
X48499999Y-175660714D02*
X48083333Y-175660714D01*
X48083333Y-176315476D02*
X48083333Y-175065476D01*
X48678571Y-175065476D01*
X49749999Y-176315476D02*
X49154761Y-176315476D01*
X49154761Y-175065476D01*
X50107142Y-175958333D02*
X50702380Y-175958333D01*
X49988095Y-176315476D02*
X50404761Y-175065476D01*
X50821428Y-176315476D01*
X51178571Y-176255952D02*
X51357142Y-176315476D01*
X51654761Y-176315476D01*
X51773809Y-176255952D01*
X51833333Y-176196428D01*
X51892857Y-176077380D01*
X51892857Y-175958333D01*
X51833333Y-175839285D01*
X51773809Y-175779761D01*
X51654761Y-175720238D01*
X51416666Y-175660714D01*
X51297619Y-175601190D01*
X51238095Y-175541666D01*
X51178571Y-175422619D01*
X51178571Y-175303571D01*
X51238095Y-175184523D01*
X51297619Y-175125000D01*
X51416666Y-175065476D01*
X51714285Y-175065476D01*
X51892857Y-175125000D01*
X52428571Y-176315476D02*
X52428571Y-175065476D01*
X52428571Y-175660714D02*
X53142857Y-175660714D01*
X53142857Y-176315476D02*
X53142857Y-175065476D01*
D11*
X52530952Y-159202380D02*
X51983333Y-159202380D01*
X51928571Y-159678571D01*
X51983333Y-159630952D01*
X52092857Y-159583333D01*
X52366666Y-159583333D01*
X52476190Y-159630952D01*
X52530952Y-159678571D01*
X52585714Y-159773809D01*
X52585714Y-160011904D01*
X52530952Y-160107142D01*
X52476190Y-160154761D01*
X52366666Y-160202380D01*
X52092857Y-160202380D01*
X51983333Y-160154761D01*
X51928571Y-160107142D01*
X52914285Y-159202380D02*
X53297619Y-160202380D01*
X53680952Y-159202380D01*
X49069047Y-159202380D02*
X49780952Y-159202380D01*
X49397619Y-159583333D01*
X49561904Y-159583333D01*
X49671428Y-159630952D01*
X49726190Y-159678571D01*
X49780952Y-159773809D01*
X49780952Y-160011904D01*
X49726190Y-160107142D01*
X49671428Y-160154761D01*
X49561904Y-160202380D01*
X49233333Y-160202380D01*
X49123809Y-160154761D01*
X49069047Y-160107142D01*
X50164285Y-159202380D02*
X50876190Y-159202380D01*
X50492857Y-159583333D01*
X50657142Y-159583333D01*
X50766666Y-159630952D01*
X50821428Y-159678571D01*
X50876190Y-159773809D01*
X50876190Y-160011904D01*
X50821428Y-160107142D01*
X50766666Y-160154761D01*
X50657142Y-160202380D01*
X50328571Y-160202380D01*
X50219047Y-160154761D01*
X50164285Y-160107142D01*
X47801190Y-159250000D02*
X47691666Y-159202380D01*
X47527380Y-159202380D01*
X47363095Y-159250000D01*
X47253571Y-159345238D01*
X47198809Y-159440476D01*
X47144047Y-159630952D01*
X47144047Y-159773809D01*
X47198809Y-159964285D01*
X47253571Y-160059523D01*
X47363095Y-160154761D01*
X47527380Y-160202380D01*
X47636904Y-160202380D01*
X47801190Y-160154761D01*
X47855952Y-160107142D01*
X47855952Y-159773809D01*
X47636904Y-159773809D01*
X44780952Y-160107142D02*
X44726190Y-160154761D01*
X44561904Y-160202380D01*
X44452380Y-160202380D01*
X44288095Y-160154761D01*
X44178571Y-160059523D01*
X44123809Y-159964285D01*
X44069047Y-159773809D01*
X44069047Y-159630952D01*
X44123809Y-159440476D01*
X44178571Y-159345238D01*
X44288095Y-159250000D01*
X44452380Y-159202380D01*
X44561904Y-159202380D01*
X44726190Y-159250000D01*
X44780952Y-159297619D01*
X45273809Y-160202380D02*
X45273809Y-159202380D01*
X45930952Y-160202380D02*
X45438095Y-159630952D01*
X45930952Y-159202380D02*
X45273809Y-159773809D01*
X41842857Y-160202380D02*
X41842857Y-159202380D01*
X42226190Y-159916666D01*
X42609523Y-159202380D01*
X42609523Y-160202380D01*
X43157142Y-160202380D02*
X43157142Y-159202380D01*
X39014285Y-160202380D02*
X39014285Y-159202380D01*
X39397619Y-159916666D01*
X39780952Y-159202380D01*
X39780952Y-160202380D01*
X40547619Y-159202380D02*
X40766666Y-159202380D01*
X40876190Y-159250000D01*
X40985714Y-159345238D01*
X41040476Y-159535714D01*
X41040476Y-159869047D01*
X40985714Y-160059523D01*
X40876190Y-160154761D01*
X40766666Y-160202380D01*
X40547619Y-160202380D01*
X40438095Y-160154761D01*
X40328571Y-160059523D01*
X40273809Y-159869047D01*
X40273809Y-159535714D01*
X40328571Y-159345238D01*
X40438095Y-159250000D01*
X40547619Y-159202380D01*
X37308333Y-160107142D02*
X37253571Y-160154761D01*
X37089285Y-160202380D01*
X36979761Y-160202380D01*
X36815476Y-160154761D01*
X36705952Y-160059523D01*
X36651190Y-159964285D01*
X36596428Y-159773809D01*
X36596428Y-159630952D01*
X36651190Y-159440476D01*
X36705952Y-159345238D01*
X36815476Y-159250000D01*
X36979761Y-159202380D01*
X37089285Y-159202380D01*
X37253571Y-159250000D01*
X37308333Y-159297619D01*
X37746428Y-160154761D02*
X37910714Y-160202380D01*
X38184523Y-160202380D01*
X38294047Y-160154761D01*
X38348809Y-160107142D01*
X38403571Y-160011904D01*
X38403571Y-159916666D01*
X38348809Y-159821428D01*
X38294047Y-159773809D01*
X38184523Y-159726190D01*
X37965476Y-159678571D01*
X37855952Y-159630952D01*
X37801190Y-159583333D01*
X37746428Y-159488095D01*
X37746428Y-159392857D01*
X37801190Y-159297619D01*
X37855952Y-159250000D01*
X37965476Y-159202380D01*
X38239285Y-159202380D01*
X38403571Y-159250000D01*
X54250000Y-167000000D02*
G75*
G03*
X54250000Y-167000000I-250000J0D01*
G01*
X35000000Y-163250000D02*
G75*
G03*
X35000000Y-163250000I-250000J0D01*
G01*
X52750000Y-172250000D02*
G75*
G03*
X52750000Y-172250000I-250000J0D01*
G01*
D12*
G04 #@! TO.C,C1*
X45985000Y-165011252D02*
X45985000Y-164488748D01*
X44515000Y-165011252D02*
X44515000Y-164488748D01*
G04 #@! TO.C,C3*
X54735000Y-169238748D02*
X54735000Y-169761252D01*
X53265000Y-169238748D02*
X53265000Y-169761252D01*
G04 #@! TO.C,C4*
X49235000Y-165011252D02*
X49235000Y-164488748D01*
X47765000Y-165011252D02*
X47765000Y-164488748D01*
G04 #@! TO.C,R1*
X47272936Y-174485000D02*
X47727064Y-174485000D01*
X47272936Y-173015000D02*
X47727064Y-173015000D01*
G04 #@! TO.C,R2*
X42727064Y-174485000D02*
X42272936Y-174485000D01*
X42727064Y-173015000D02*
X42272936Y-173015000D01*
G04 #@! TO.C,U1*
X49250000Y-166890000D02*
X46250000Y-166890000D01*
X47750000Y-172110000D02*
X46250000Y-172110000D01*
G04 #@! TO.C,U2*
X38750000Y-163065000D02*
X35300000Y-163065000D01*
X38750000Y-163065000D02*
X40700000Y-163065000D01*
X38750000Y-171935000D02*
X36800000Y-171935000D01*
X38750000Y-171935000D02*
X40700000Y-171935000D01*
G04 #@! TO.C,U3*
X51850000Y-166360000D02*
X54300000Y-166360000D01*
X53650000Y-163140000D02*
X51850000Y-163140000D01*
G04 #@! TO.C,C1*
D11*
X43927142Y-164916666D02*
X43974761Y-164964285D01*
X44022380Y-165107142D01*
X44022380Y-165202380D01*
X43974761Y-165345238D01*
X43879523Y-165440476D01*
X43784285Y-165488095D01*
X43593809Y-165535714D01*
X43450952Y-165535714D01*
X43260476Y-165488095D01*
X43165238Y-165440476D01*
X43070000Y-165345238D01*
X43022380Y-165202380D01*
X43022380Y-165107142D01*
X43070000Y-164964285D01*
X43117619Y-164916666D01*
X44022380Y-163964285D02*
X44022380Y-164535714D01*
X44022380Y-164250000D02*
X43022380Y-164250000D01*
X43165238Y-164345238D01*
X43260476Y-164440476D01*
X43308095Y-164535714D01*
G04 #@! TO.C,C3*
X54357142Y-172916666D02*
X54404761Y-172964285D01*
X54452380Y-173107142D01*
X54452380Y-173202380D01*
X54404761Y-173345238D01*
X54309523Y-173440476D01*
X54214285Y-173488095D01*
X54023809Y-173535714D01*
X53880952Y-173535714D01*
X53690476Y-173488095D01*
X53595238Y-173440476D01*
X53500000Y-173345238D01*
X53452380Y-173202380D01*
X53452380Y-173107142D01*
X53500000Y-172964285D01*
X53547619Y-172916666D01*
X53452380Y-172583333D02*
X53452380Y-171964285D01*
X53833333Y-172297619D01*
X53833333Y-172154761D01*
X53880952Y-172059523D01*
X53928571Y-172011904D01*
X54023809Y-171964285D01*
X54261904Y-171964285D01*
X54357142Y-172011904D01*
X54404761Y-172059523D01*
X54452380Y-172154761D01*
X54452380Y-172440476D01*
X54404761Y-172535714D01*
X54357142Y-172583333D01*
G04 #@! TO.C,C4*
X47357142Y-164916666D02*
X47404761Y-164964285D01*
X47452380Y-165107142D01*
X47452380Y-165202380D01*
X47404761Y-165345238D01*
X47309523Y-165440476D01*
X47214285Y-165488095D01*
X47023809Y-165535714D01*
X46880952Y-165535714D01*
X46690476Y-165488095D01*
X46595238Y-165440476D01*
X46500000Y-165345238D01*
X46452380Y-165202380D01*
X46452380Y-165107142D01*
X46500000Y-164964285D01*
X46547619Y-164916666D01*
X46785714Y-164059523D02*
X47452380Y-164059523D01*
X46404761Y-164297619D02*
X47119047Y-164535714D01*
X47119047Y-163916666D01*
G04 #@! TO.C,R1*
X50083333Y-173952380D02*
X49750000Y-173476190D01*
X49511904Y-173952380D02*
X49511904Y-172952380D01*
X49892857Y-172952380D01*
X49988095Y-173000000D01*
X50035714Y-173047619D01*
X50083333Y-173142857D01*
X50083333Y-173285714D01*
X50035714Y-173380952D01*
X49988095Y-173428571D01*
X49892857Y-173476190D01*
X49511904Y-173476190D01*
X51035714Y-173952380D02*
X50464285Y-173952380D01*
X50750000Y-173952380D02*
X50750000Y-172952380D01*
X50654761Y-173095238D01*
X50559523Y-173190476D01*
X50464285Y-173238095D01*
G04 #@! TO.C,R2*
X39833333Y-173452380D02*
X39500000Y-172976190D01*
X39261904Y-173452380D02*
X39261904Y-172452380D01*
X39642857Y-172452380D01*
X39738095Y-172500000D01*
X39785714Y-172547619D01*
X39833333Y-172642857D01*
X39833333Y-172785714D01*
X39785714Y-172880952D01*
X39738095Y-172928571D01*
X39642857Y-172976190D01*
X39261904Y-172976190D01*
X40214285Y-172547619D02*
X40261904Y-172500000D01*
X40357142Y-172452380D01*
X40595238Y-172452380D01*
X40690476Y-172500000D01*
X40738095Y-172547619D01*
X40785714Y-172642857D01*
X40785714Y-172738095D01*
X40738095Y-172880952D01*
X40166666Y-173452380D01*
X40785714Y-173452380D01*
G04 #@! TO.C,U1*
X51488095Y-172952380D02*
X51488095Y-173761904D01*
X51535714Y-173857142D01*
X51583333Y-173904761D01*
X51678571Y-173952380D01*
X51869047Y-173952380D01*
X51964285Y-173904761D01*
X52011904Y-173857142D01*
X52059523Y-173761904D01*
X52059523Y-172952380D01*
X53059523Y-173952380D02*
X52488095Y-173952380D01*
X52773809Y-173952380D02*
X52773809Y-172952380D01*
X52678571Y-173095238D01*
X52583333Y-173190476D01*
X52488095Y-173238095D01*
G04 #@! TO.C,U2*
X35988095Y-172452380D02*
X35988095Y-173261904D01*
X36035714Y-173357142D01*
X36083333Y-173404761D01*
X36178571Y-173452380D01*
X36369047Y-173452380D01*
X36464285Y-173404761D01*
X36511904Y-173357142D01*
X36559523Y-173261904D01*
X36559523Y-172452380D01*
X36988095Y-172547619D02*
X37035714Y-172500000D01*
X37130952Y-172452380D01*
X37369047Y-172452380D01*
X37464285Y-172500000D01*
X37511904Y-172547619D01*
X37559523Y-172642857D01*
X37559523Y-172738095D01*
X37511904Y-172880952D01*
X36940476Y-173452380D01*
X37559523Y-173452380D01*
G04 #@! TO.C,U3*
X49702380Y-165511904D02*
X50511904Y-165511904D01*
X50607142Y-165464285D01*
X50654761Y-165416666D01*
X50702380Y-165321428D01*
X50702380Y-165130952D01*
X50654761Y-165035714D01*
X50607142Y-164988095D01*
X50511904Y-164940476D01*
X49702380Y-164940476D01*
X49702380Y-164559523D02*
X49702380Y-163940476D01*
X50083333Y-164273809D01*
X50083333Y-164130952D01*
X50130952Y-164035714D01*
X50178571Y-163988095D01*
X50273809Y-163940476D01*
X50511904Y-163940476D01*
X50607142Y-163988095D01*
X50654761Y-164035714D01*
X50702380Y-164130952D01*
X50702380Y-164416666D01*
X50654761Y-164511904D01*
X50607142Y-164559523D01*
G04 #@! TD*
%LPC*%
G04 #@! TO.C,C1*
G36*
G01*
X45725000Y-166200000D02*
X44775000Y-166200000D01*
G75*
G02*
X44525000Y-165950000I0J250000D01*
G01*
X44525000Y-165450000D01*
G75*
G02*
X44775000Y-165200000I250000J0D01*
G01*
X45725000Y-165200000D01*
G75*
G02*
X45975000Y-165450000I0J-250000D01*
G01*
X45975000Y-165950000D01*
G75*
G02*
X45725000Y-166200000I-250000J0D01*
G01*
G37*
G36*
G01*
X45725000Y-164300000D02*
X44775000Y-164300000D01*
G75*
G02*
X44525000Y-164050000I0J250000D01*
G01*
X44525000Y-163550000D01*
G75*
G02*
X44775000Y-163300000I250000J0D01*
G01*
X45725000Y-163300000D01*
G75*
G02*
X45975000Y-163550000I0J-250000D01*
G01*
X45975000Y-164050000D01*
G75*
G02*
X45725000Y-164300000I-250000J0D01*
G01*
G37*
G04 #@! TD*
G04 #@! TO.C,C3*
G36*
G01*
X53525000Y-169950000D02*
X54475000Y-169950000D01*
G75*
G02*
X54725000Y-170200000I0J-250000D01*
G01*
X54725000Y-170700000D01*
G75*
G02*
X54475000Y-170950000I-250000J0D01*
G01*
X53525000Y-170950000D01*
G75*
G02*
X53275000Y-170700000I0J250000D01*
G01*
X53275000Y-170200000D01*
G75*
G02*
X53525000Y-169950000I250000J0D01*
G01*
G37*
G36*
G01*
X53525000Y-168050000D02*
X54475000Y-168050000D01*
G75*
G02*
X54725000Y-168300000I0J-250000D01*
G01*
X54725000Y-168800000D01*
G75*
G02*
X54475000Y-169050000I-250000J0D01*
G01*
X53525000Y-169050000D01*
G75*
G02*
X53275000Y-168800000I0J250000D01*
G01*
X53275000Y-168300000D01*
G75*
G02*
X53525000Y-168050000I250000J0D01*
G01*
G37*
G04 #@! TD*
G04 #@! TO.C,C4*
G36*
G01*
X48975000Y-166200000D02*
X48025000Y-166200000D01*
G75*
G02*
X47775000Y-165950000I0J250000D01*
G01*
X47775000Y-165450000D01*
G75*
G02*
X48025000Y-165200000I250000J0D01*
G01*
X48975000Y-165200000D01*
G75*
G02*
X49225000Y-165450000I0J-250000D01*
G01*
X49225000Y-165950000D01*
G75*
G02*
X48975000Y-166200000I-250000J0D01*
G01*
G37*
G36*
G01*
X48975000Y-164300000D02*
X48025000Y-164300000D01*
G75*
G02*
X47775000Y-164050000I0J250000D01*
G01*
X47775000Y-163550000D01*
G75*
G02*
X48025000Y-163300000I250000J0D01*
G01*
X48975000Y-163300000D01*
G75*
G02*
X49225000Y-163550000I0J-250000D01*
G01*
X49225000Y-164050000D01*
G75*
G02*
X48975000Y-164300000I-250000J0D01*
G01*
G37*
G04 #@! TD*
D13*
G04 #@! TO.C,J1*
X52714999Y-161265001D03*
D14*
X50174999Y-161265001D03*
X47634999Y-161265001D03*
X45094999Y-161265001D03*
X42554999Y-161265001D03*
X40014999Y-161265001D03*
X37474999Y-161265001D03*
G04 #@! TD*
G04 #@! TO.C,R1*
G36*
G01*
X46075000Y-174200001D02*
X46075000Y-173299999D01*
G75*
G02*
X46324999Y-173050000I249999J0D01*
G01*
X46850001Y-173050000D01*
G75*
G02*
X47100000Y-173299999I0J-249999D01*
G01*
X47100000Y-174200001D01*
G75*
G02*
X46850001Y-174450000I-249999J0D01*
G01*
X46324999Y-174450000D01*
G75*
G02*
X46075000Y-174200001I0J249999D01*
G01*
G37*
G36*
G01*
X47900000Y-174200001D02*
X47900000Y-173299999D01*
G75*
G02*
X48149999Y-173050000I249999J0D01*
G01*
X48675001Y-173050000D01*
G75*
G02*
X48925000Y-173299999I0J-249999D01*
G01*
X48925000Y-174200001D01*
G75*
G02*
X48675001Y-174450000I-249999J0D01*
G01*
X48149999Y-174450000D01*
G75*
G02*
X47900000Y-174200001I0J249999D01*
G01*
G37*
G04 #@! TD*
G04 #@! TO.C,R2*
G36*
G01*
X42100000Y-173299999D02*
X42100000Y-174200001D01*
G75*
G02*
X41850001Y-174450000I-249999J0D01*
G01*
X41324999Y-174450000D01*
G75*
G02*
X41075000Y-174200001I0J249999D01*
G01*
X41075000Y-173299999D01*
G75*
G02*
X41324999Y-173050000I249999J0D01*
G01*
X41850001Y-173050000D01*
G75*
G02*
X42100000Y-173299999I0J-249999D01*
G01*
G37*
G36*
G01*
X43925000Y-173299999D02*
X43925000Y-174200001D01*
G75*
G02*
X43675001Y-174450000I-249999J0D01*
G01*
X43149999Y-174450000D01*
G75*
G02*
X42900000Y-174200001I0J249999D01*
G01*
X42900000Y-173299999D01*
G75*
G02*
X43149999Y-173050000I249999J0D01*
G01*
X43675001Y-173050000D01*
G75*
G02*
X43925000Y-173299999I0J-249999D01*
G01*
G37*
G04 #@! TD*
G04 #@! TO.C,U1*
G36*
G01*
X52100000Y-171250000D02*
X52100000Y-171500000D01*
G75*
G02*
X51975000Y-171625000I-125000J0D01*
G01*
X51025000Y-171625000D01*
G75*
G02*
X50900000Y-171500000I0J125000D01*
G01*
X50900000Y-171250000D01*
G75*
G02*
X51025000Y-171125000I125000J0D01*
G01*
X51975000Y-171125000D01*
G75*
G02*
X52100000Y-171250000I0J-125000D01*
G01*
G37*
G36*
G01*
X52100000Y-170000000D02*
X52100000Y-170250000D01*
G75*
G02*
X51975000Y-170375000I-125000J0D01*
G01*
X51025000Y-170375000D01*
G75*
G02*
X50900000Y-170250000I0J125000D01*
G01*
X50900000Y-170000000D01*
G75*
G02*
X51025000Y-169875000I125000J0D01*
G01*
X51975000Y-169875000D01*
G75*
G02*
X52100000Y-170000000I0J-125000D01*
G01*
G37*
G36*
G01*
X52100000Y-168750000D02*
X52100000Y-169000000D01*
G75*
G02*
X51975000Y-169125000I-125000J0D01*
G01*
X51025000Y-169125000D01*
G75*
G02*
X50900000Y-169000000I0J125000D01*
G01*
X50900000Y-168750000D01*
G75*
G02*
X51025000Y-168625000I125000J0D01*
G01*
X51975000Y-168625000D01*
G75*
G02*
X52100000Y-168750000I0J-125000D01*
G01*
G37*
G36*
G01*
X52100000Y-167500000D02*
X52100000Y-167750000D01*
G75*
G02*
X51975000Y-167875000I-125000J0D01*
G01*
X51025000Y-167875000D01*
G75*
G02*
X50900000Y-167750000I0J125000D01*
G01*
X50900000Y-167500000D01*
G75*
G02*
X51025000Y-167375000I125000J0D01*
G01*
X51975000Y-167375000D01*
G75*
G02*
X52100000Y-167500000I0J-125000D01*
G01*
G37*
G36*
G01*
X44600000Y-167500000D02*
X44600000Y-167750000D01*
G75*
G02*
X44475000Y-167875000I-125000J0D01*
G01*
X43525000Y-167875000D01*
G75*
G02*
X43400000Y-167750000I0J125000D01*
G01*
X43400000Y-167500000D01*
G75*
G02*
X43525000Y-167375000I125000J0D01*
G01*
X44475000Y-167375000D01*
G75*
G02*
X44600000Y-167500000I0J-125000D01*
G01*
G37*
G36*
G01*
X44600000Y-168750000D02*
X44600000Y-169000000D01*
G75*
G02*
X44475000Y-169125000I-125000J0D01*
G01*
X43525000Y-169125000D01*
G75*
G02*
X43400000Y-169000000I0J125000D01*
G01*
X43400000Y-168750000D01*
G75*
G02*
X43525000Y-168625000I125000J0D01*
G01*
X44475000Y-168625000D01*
G75*
G02*
X44600000Y-168750000I0J-125000D01*
G01*
G37*
G36*
G01*
X44600000Y-170000000D02*
X44600000Y-170250000D01*
G75*
G02*
X44475000Y-170375000I-125000J0D01*
G01*
X43525000Y-170375000D01*
G75*
G02*
X43400000Y-170250000I0J125000D01*
G01*
X43400000Y-170000000D01*
G75*
G02*
X43525000Y-169875000I125000J0D01*
G01*
X44475000Y-169875000D01*
G75*
G02*
X44600000Y-170000000I0J-125000D01*
G01*
G37*
G36*
G01*
X44600000Y-171250000D02*
X44600000Y-171500000D01*
G75*
G02*
X44475000Y-171625000I-125000J0D01*
G01*
X43525000Y-171625000D01*
G75*
G02*
X43400000Y-171500000I0J125000D01*
G01*
X43400000Y-171250000D01*
G75*
G02*
X43525000Y-171125000I125000J0D01*
G01*
X44475000Y-171125000D01*
G75*
G02*
X44600000Y-171250000I0J-125000D01*
G01*
G37*
G04 #@! TD*
G04 #@! TO.C,U2*
G36*
G01*
X35300000Y-163840000D02*
X35300000Y-163540000D01*
G75*
G02*
X35450000Y-163390000I150000J0D01*
G01*
X37100000Y-163390000D01*
G75*
G02*
X37250000Y-163540000I0J-150000D01*
G01*
X37250000Y-163840000D01*
G75*
G02*
X37100000Y-163990000I-150000J0D01*
G01*
X35450000Y-163990000D01*
G75*
G02*
X35300000Y-163840000I0J150000D01*
G01*
G37*
G36*
G01*
X35300000Y-165110000D02*
X35300000Y-164810000D01*
G75*
G02*
X35450000Y-164660000I150000J0D01*
G01*
X37100000Y-164660000D01*
G75*
G02*
X37250000Y-164810000I0J-150000D01*
G01*
X37250000Y-165110000D01*
G75*
G02*
X37100000Y-165260000I-150000J0D01*
G01*
X35450000Y-165260000D01*
G75*
G02*
X35300000Y-165110000I0J150000D01*
G01*
G37*
G36*
G01*
X35300000Y-166380000D02*
X35300000Y-166080000D01*
G75*
G02*
X35450000Y-165930000I150000J0D01*
G01*
X37100000Y-165930000D01*
G75*
G02*
X37250000Y-166080000I0J-150000D01*
G01*
X37250000Y-166380000D01*
G75*
G02*
X37100000Y-166530000I-150000J0D01*
G01*
X35450000Y-166530000D01*
G75*
G02*
X35300000Y-166380000I0J150000D01*
G01*
G37*
G36*
G01*
X35300000Y-167650000D02*
X35300000Y-167350000D01*
G75*
G02*
X35450000Y-167200000I150000J0D01*
G01*
X37100000Y-167200000D01*
G75*
G02*
X37250000Y-167350000I0J-150000D01*
G01*
X37250000Y-167650000D01*
G75*
G02*
X37100000Y-167800000I-150000J0D01*
G01*
X35450000Y-167800000D01*
G75*
G02*
X35300000Y-167650000I0J150000D01*
G01*
G37*
G36*
G01*
X35300000Y-168920000D02*
X35300000Y-168620000D01*
G75*
G02*
X35450000Y-168470000I150000J0D01*
G01*
X37100000Y-168470000D01*
G75*
G02*
X37250000Y-168620000I0J-150000D01*
G01*
X37250000Y-168920000D01*
G75*
G02*
X37100000Y-169070000I-150000J0D01*
G01*
X35450000Y-169070000D01*
G75*
G02*
X35300000Y-168920000I0J150000D01*
G01*
G37*
G36*
G01*
X35300000Y-170190000D02*
X35300000Y-169890000D01*
G75*
G02*
X35450000Y-169740000I150000J0D01*
G01*
X37100000Y-169740000D01*
G75*
G02*
X37250000Y-169890000I0J-150000D01*
G01*
X37250000Y-170190000D01*
G75*
G02*
X37100000Y-170340000I-150000J0D01*
G01*
X35450000Y-170340000D01*
G75*
G02*
X35300000Y-170190000I0J150000D01*
G01*
G37*
G36*
G01*
X35300000Y-171460000D02*
X35300000Y-171160000D01*
G75*
G02*
X35450000Y-171010000I150000J0D01*
G01*
X37100000Y-171010000D01*
G75*
G02*
X37250000Y-171160000I0J-150000D01*
G01*
X37250000Y-171460000D01*
G75*
G02*
X37100000Y-171610000I-150000J0D01*
G01*
X35450000Y-171610000D01*
G75*
G02*
X35300000Y-171460000I0J150000D01*
G01*
G37*
G36*
G01*
X40250000Y-171460000D02*
X40250000Y-171160000D01*
G75*
G02*
X40400000Y-171010000I150000J0D01*
G01*
X42050000Y-171010000D01*
G75*
G02*
X42200000Y-171160000I0J-150000D01*
G01*
X42200000Y-171460000D01*
G75*
G02*
X42050000Y-171610000I-150000J0D01*
G01*
X40400000Y-171610000D01*
G75*
G02*
X40250000Y-171460000I0J150000D01*
G01*
G37*
G36*
G01*
X40250000Y-170190000D02*
X40250000Y-169890000D01*
G75*
G02*
X40400000Y-169740000I150000J0D01*
G01*
X42050000Y-169740000D01*
G75*
G02*
X42200000Y-169890000I0J-150000D01*
G01*
X42200000Y-170190000D01*
G75*
G02*
X42050000Y-170340000I-150000J0D01*
G01*
X40400000Y-170340000D01*
G75*
G02*
X40250000Y-170190000I0J150000D01*
G01*
G37*
G36*
G01*
X40250000Y-168920000D02*
X40250000Y-168620000D01*
G75*
G02*
X40400000Y-168470000I150000J0D01*
G01*
X42050000Y-168470000D01*
G75*
G02*
X42200000Y-168620000I0J-150000D01*
G01*
X42200000Y-168920000D01*
G75*
G02*
X42050000Y-169070000I-150000J0D01*
G01*
X40400000Y-169070000D01*
G75*
G02*
X40250000Y-168920000I0J150000D01*
G01*
G37*
G36*
G01*
X40250000Y-167650000D02*
X40250000Y-167350000D01*
G75*
G02*
X40400000Y-167200000I150000J0D01*
G01*
X42050000Y-167200000D01*
G75*
G02*
X42200000Y-167350000I0J-150000D01*
G01*
X42200000Y-167650000D01*
G75*
G02*
X42050000Y-167800000I-150000J0D01*
G01*
X40400000Y-167800000D01*
G75*
G02*
X40250000Y-167650000I0J150000D01*
G01*
G37*
G36*
G01*
X40250000Y-166380000D02*
X40250000Y-166080000D01*
G75*
G02*
X40400000Y-165930000I150000J0D01*
G01*
X42050000Y-165930000D01*
G75*
G02*
X42200000Y-166080000I0J-150000D01*
G01*
X42200000Y-166380000D01*
G75*
G02*
X42050000Y-166530000I-150000J0D01*
G01*
X40400000Y-166530000D01*
G75*
G02*
X40250000Y-166380000I0J150000D01*
G01*
G37*
G36*
G01*
X40250000Y-165110000D02*
X40250000Y-164810000D01*
G75*
G02*
X40400000Y-164660000I150000J0D01*
G01*
X42050000Y-164660000D01*
G75*
G02*
X42200000Y-164810000I0J-150000D01*
G01*
X42200000Y-165110000D01*
G75*
G02*
X42050000Y-165260000I-150000J0D01*
G01*
X40400000Y-165260000D01*
G75*
G02*
X40250000Y-165110000I0J150000D01*
G01*
G37*
G36*
G01*
X40250000Y-163840000D02*
X40250000Y-163540000D01*
G75*
G02*
X40400000Y-163390000I150000J0D01*
G01*
X42050000Y-163390000D01*
G75*
G02*
X42200000Y-163540000I0J-150000D01*
G01*
X42200000Y-163840000D01*
G75*
G02*
X42050000Y-163990000I-150000J0D01*
G01*
X40400000Y-163990000D01*
G75*
G02*
X40250000Y-163840000I0J150000D01*
G01*
G37*
G04 #@! TD*
D15*
G04 #@! TO.C,U3*
X53850000Y-165700000D03*
X53850000Y-164750000D03*
X53850000Y-163800000D03*
X51650000Y-163800000D03*
X51650000Y-165700000D03*
G04 #@! TD*
M02*
