%TF.GenerationSoftware,KiCad,Pcbnew,(5.1.9-0-10_14)*%
%TF.CreationDate,2022-11-21T01:50:29-05:00*%
%TF.ProjectId,5AhG3-12S,35416847-332d-4313-9253-2e6b69636164,rev?*%
%TF.SameCoordinates,Original*%
%TF.FileFunction,Copper,L1,Top*%
%TF.FilePolarity,Positive*%
%FSLAX46Y46*%
G04 Gerber Fmt 4.6, Leading zero omitted, Abs format (unit mm)*
G04 Created by KiCad (PCBNEW (5.1.9-0-10_14)) date 2022-11-21 01:50:29*
%MOMM*%
%LPD*%
G01*
G04 APERTURE LIST*
%TA.AperFunction,ComponentPad*%
%ADD10C,3.000000*%
%TD*%
%TA.AperFunction,ComponentPad*%
%ADD11O,3.600000X1.800000*%
%TD*%
%TA.AperFunction,ComponentPad*%
%ADD12R,1.700000X1.700000*%
%TD*%
%TA.AperFunction,ComponentPad*%
%ADD13O,1.700000X1.700000*%
%TD*%
%TA.AperFunction,ViaPad*%
%ADD14C,0.800000*%
%TD*%
%TA.AperFunction,Conductor*%
%ADD15C,1.500000*%
%TD*%
%TA.AperFunction,Conductor*%
%ADD16C,0.750000*%
%TD*%
%TA.AperFunction,NonConductor*%
%ADD17C,0.254000*%
%TD*%
%TA.AperFunction,NonConductor*%
%ADD18C,0.100000*%
%TD*%
G04 APERTURE END LIST*
D10*
%TO.P,F1,1*%
%TO.N,/HVDC_POS*%
X290500000Y-92500000D03*
%TO.P,F1,2*%
%TO.N,/HVDC_POS_UNFUSED*%
X290500000Y-115000000D03*
%TD*%
%TO.P,J3,1*%
%TO.N,/HVDC_POS*%
%TA.AperFunction,ComponentPad*%
G36*
G01*
X300550000Y-99900000D02*
X297450000Y-99900000D01*
G75*
G02*
X297200000Y-99650000I0J250000D01*
G01*
X297200000Y-98350000D01*
G75*
G02*
X297450000Y-98100000I250000J0D01*
G01*
X300550000Y-98100000D01*
G75*
G02*
X300800000Y-98350000I0J-250000D01*
G01*
X300800000Y-99650000D01*
G75*
G02*
X300550000Y-99900000I-250000J0D01*
G01*
G37*
%TD.AperFunction*%
D11*
%TO.P,J3,2*%
X299000000Y-95500000D03*
%TO.P,J3,3*%
X299000000Y-92000000D03*
%TD*%
%TO.P,J4,3*%
%TO.N,/HVDC_NEG_SWITCHED*%
X299000000Y-109500000D03*
%TO.P,J4,2*%
X299000000Y-113000000D03*
%TO.P,J4,1*%
%TA.AperFunction,ComponentPad*%
G36*
G01*
X300550000Y-117400000D02*
X297450000Y-117400000D01*
G75*
G02*
X297200000Y-117150000I0J250000D01*
G01*
X297200000Y-115850000D01*
G75*
G02*
X297450000Y-115600000I250000J0D01*
G01*
X300550000Y-115600000D01*
G75*
G02*
X300800000Y-115850000I0J-250000D01*
G01*
X300800000Y-117150000D01*
G75*
G02*
X300550000Y-117400000I-250000J0D01*
G01*
G37*
%TD.AperFunction*%
%TD*%
D12*
%TO.P,J1,1*%
%TO.N,/GND_SAFE*%
X294500000Y-86500000D03*
D13*
%TO.P,J1,2*%
%TO.N,/GPIO*%
X297040000Y-86500000D03*
%TD*%
%TO.P,J2,1*%
%TO.N,/HVDC_NEG*%
%TA.AperFunction,ComponentPad*%
G36*
G01*
X300550000Y-106900000D02*
X297450000Y-106900000D01*
G75*
G02*
X297200000Y-106650000I0J250000D01*
G01*
X297200000Y-105350000D01*
G75*
G02*
X297450000Y-105100000I250000J0D01*
G01*
X300550000Y-105100000D01*
G75*
G02*
X300800000Y-105350000I0J-250000D01*
G01*
X300800000Y-106650000D01*
G75*
G02*
X300550000Y-106900000I-250000J0D01*
G01*
G37*
%TD.AperFunction*%
D11*
%TO.P,J2,2*%
%TO.N,/HVDC_POS_UNFUSED*%
X299000000Y-102500000D03*
%TD*%
D14*
%TO.N,/Q1_GATE*%
X282750000Y-116000000D03*
X309037500Y-87212500D03*
%TD*%
D15*
%TO.N,/HVDC_POS*%
X291000000Y-92000000D02*
X290500000Y-92500000D01*
D16*
%TO.N,/Q1_GATE*%
X282750000Y-118500000D02*
X282750000Y-116000000D01*
X294000000Y-122750000D02*
X287000000Y-122750000D01*
X296500000Y-120250000D02*
X294000000Y-122750000D01*
X287000000Y-122750000D02*
X282750000Y-118500000D01*
X303500000Y-104500000D02*
X303500000Y-118750000D01*
X302000000Y-120250000D02*
X296500000Y-120250000D01*
X303500000Y-118750000D02*
X302000000Y-120250000D01*
X309037500Y-87212500D02*
X309037500Y-98962500D01*
X309037500Y-98962500D02*
X308875000Y-99125000D01*
X308875000Y-99125000D02*
X303500000Y-104500000D01*
%TD*%
D17*
X278596257Y-76140769D02*
X278685955Y-76177923D01*
X278762976Y-76237024D01*
X278822077Y-76314045D01*
X278859231Y-76403743D01*
X278873000Y-76508328D01*
X278873000Y-97284565D01*
X278859231Y-97389150D01*
X278822078Y-97478845D01*
X278757866Y-97562528D01*
X275312823Y-101007571D01*
X275228979Y-101071876D01*
X275139102Y-101109033D01*
X275034332Y-101122705D01*
X92707681Y-100873284D01*
X92691074Y-100874352D01*
X92561421Y-100891271D01*
X92529333Y-100899837D01*
X92408500Y-100949791D01*
X92379731Y-100966383D01*
X92275980Y-101045956D01*
X92263467Y-101056927D01*
X82562528Y-110757866D01*
X82478845Y-110822078D01*
X82389150Y-110859231D01*
X82284565Y-110873000D01*
X75508328Y-110873000D01*
X75403743Y-110859231D01*
X75314045Y-110822077D01*
X75237024Y-110762976D01*
X75177923Y-110685955D01*
X75152000Y-110623371D01*
X75152000Y-76376629D01*
X75177923Y-76314045D01*
X75237024Y-76237024D01*
X75314045Y-76177923D01*
X75403743Y-76140769D01*
X75508328Y-76127000D01*
X278491672Y-76127000D01*
X278596257Y-76140769D01*
%TA.AperFunction,NonConductor*%
D18*
G36*
X278596257Y-76140769D02*
G01*
X278685955Y-76177923D01*
X278762976Y-76237024D01*
X278822077Y-76314045D01*
X278859231Y-76403743D01*
X278873000Y-76508328D01*
X278873000Y-97284565D01*
X278859231Y-97389150D01*
X278822078Y-97478845D01*
X278757866Y-97562528D01*
X275312823Y-101007571D01*
X275228979Y-101071876D01*
X275139102Y-101109033D01*
X275034332Y-101122705D01*
X92707681Y-100873284D01*
X92691074Y-100874352D01*
X92561421Y-100891271D01*
X92529333Y-100899837D01*
X92408500Y-100949791D01*
X92379731Y-100966383D01*
X92275980Y-101045956D01*
X92263467Y-101056927D01*
X82562528Y-110757866D01*
X82478845Y-110822078D01*
X82389150Y-110859231D01*
X82284565Y-110873000D01*
X75508328Y-110873000D01*
X75403743Y-110859231D01*
X75314045Y-110822077D01*
X75237024Y-110762976D01*
X75177923Y-110685955D01*
X75152000Y-110623371D01*
X75152000Y-76376629D01*
X75177923Y-76314045D01*
X75237024Y-76237024D01*
X75314045Y-76177923D01*
X75403743Y-76140769D01*
X75508328Y-76127000D01*
X278491672Y-76127000D01*
X278596257Y-76140769D01*
G37*
%TD.AperFunction*%
D17*
X80889150Y-161140769D02*
X80978845Y-161177922D01*
X81062528Y-161242134D01*
X90763750Y-170943356D01*
X90776240Y-170954309D01*
X90879794Y-171033769D01*
X90908506Y-171050346D01*
X91029096Y-171100296D01*
X91061120Y-171108877D01*
X91190530Y-171125914D01*
X91207107Y-171127000D01*
X265292893Y-171127000D01*
X265309470Y-171125914D01*
X265438880Y-171108877D01*
X265470904Y-171100296D01*
X265591494Y-171050346D01*
X265620206Y-171033769D01*
X265723760Y-170954309D01*
X265736250Y-170943356D01*
X275437472Y-161242134D01*
X275521155Y-161177922D01*
X275610850Y-161140769D01*
X275715435Y-161127000D01*
X277991672Y-161127000D01*
X278096257Y-161140769D01*
X278185955Y-161177923D01*
X278262976Y-161237024D01*
X278322077Y-161314045D01*
X278359231Y-161403743D01*
X278373000Y-161508328D01*
X278373000Y-195491672D01*
X278359231Y-195596257D01*
X278322077Y-195685955D01*
X278262976Y-195762976D01*
X278185955Y-195822077D01*
X278096257Y-195859231D01*
X277991672Y-195873000D01*
X75508328Y-195873000D01*
X75403743Y-195859231D01*
X75314045Y-195822077D01*
X75237024Y-195762976D01*
X75177923Y-195685955D01*
X75152000Y-195623371D01*
X75152000Y-161376629D01*
X75177923Y-161314045D01*
X75237024Y-161237024D01*
X75314045Y-161177923D01*
X75403743Y-161140769D01*
X75508328Y-161127000D01*
X80784565Y-161127000D01*
X80889150Y-161140769D01*
%TA.AperFunction,NonConductor*%
D18*
G36*
X80889150Y-161140769D02*
G01*
X80978845Y-161177922D01*
X81062528Y-161242134D01*
X90763750Y-170943356D01*
X90776240Y-170954309D01*
X90879794Y-171033769D01*
X90908506Y-171050346D01*
X91029096Y-171100296D01*
X91061120Y-171108877D01*
X91190530Y-171125914D01*
X91207107Y-171127000D01*
X265292893Y-171127000D01*
X265309470Y-171125914D01*
X265438880Y-171108877D01*
X265470904Y-171100296D01*
X265591494Y-171050346D01*
X265620206Y-171033769D01*
X265723760Y-170954309D01*
X265736250Y-170943356D01*
X275437472Y-161242134D01*
X275521155Y-161177922D01*
X275610850Y-161140769D01*
X275715435Y-161127000D01*
X277991672Y-161127000D01*
X278096257Y-161140769D01*
X278185955Y-161177923D01*
X278262976Y-161237024D01*
X278322077Y-161314045D01*
X278359231Y-161403743D01*
X278373000Y-161508328D01*
X278373000Y-195491672D01*
X278359231Y-195596257D01*
X278322077Y-195685955D01*
X278262976Y-195762976D01*
X278185955Y-195822077D01*
X278096257Y-195859231D01*
X277991672Y-195873000D01*
X75508328Y-195873000D01*
X75403743Y-195859231D01*
X75314045Y-195822077D01*
X75237024Y-195762976D01*
X75177923Y-195685955D01*
X75152000Y-195623371D01*
X75152000Y-161376629D01*
X75177923Y-161314045D01*
X75237024Y-161237024D01*
X75314045Y-161177923D01*
X75403743Y-161140769D01*
X75508328Y-161127000D01*
X80784565Y-161127000D01*
X80889150Y-161140769D01*
G37*
%TD.AperFunction*%
M02*
