%TF.GenerationSoftware,KiCad,Pcbnew,(5.1.9-0-10_14)*%
%TF.CreationDate,2022-11-21T01:50:29-05:00*%
%TF.ProjectId,5AhG3-12S,35416847-332d-4313-9253-2e6b69636164,rev?*%
%TF.SameCoordinates,Original*%
%TF.FileFunction,Soldermask,Bot*%
%TF.FilePolarity,Negative*%
%FSLAX46Y46*%
G04 Gerber Fmt 4.6, Leading zero omitted, Abs format (unit mm)*
G04 Created by KiCad (PCBNEW (5.1.9-0-10_14)) date 2022-11-21 01:50:29*
%MOMM*%
%LPD*%
G01*
G04 APERTURE LIST*
%ADD10C,3.000000*%
%ADD11C,2.700000*%
%ADD12O,3.600000X1.800000*%
%ADD13R,2.200000X1.200000*%
%ADD14R,6.400000X5.800000*%
%ADD15R,1.700000X1.700000*%
%ADD16O,1.700000X1.700000*%
G04 APERTURE END LIST*
%TO.C,R2*%
G36*
G01*
X90800000Y-115924999D02*
X90800000Y-118075001D01*
G75*
G02*
X90550001Y-118325000I-249999J0D01*
G01*
X89824999Y-118325000D01*
G75*
G02*
X89575000Y-118075001I0J249999D01*
G01*
X89575000Y-115924999D01*
G75*
G02*
X89824999Y-115675000I249999J0D01*
G01*
X90550001Y-115675000D01*
G75*
G02*
X90800000Y-115924999I0J-249999D01*
G01*
G37*
G36*
G01*
X95425000Y-115924999D02*
X95425000Y-118075001D01*
G75*
G02*
X95175001Y-118325000I-249999J0D01*
G01*
X94449999Y-118325000D01*
G75*
G02*
X94200000Y-118075001I0J249999D01*
G01*
X94200000Y-115924999D01*
G75*
G02*
X94449999Y-115675000I249999J0D01*
G01*
X95175001Y-115675000D01*
G75*
G02*
X95425000Y-115924999I0J-249999D01*
G01*
G37*
%TD*%
%TO.C,R6*%
G36*
G01*
X93424999Y-145700000D02*
X95575001Y-145700000D01*
G75*
G02*
X95825000Y-145949999I0J-249999D01*
G01*
X95825000Y-146675001D01*
G75*
G02*
X95575001Y-146925000I-249999J0D01*
G01*
X93424999Y-146925000D01*
G75*
G02*
X93175000Y-146675001I0J249999D01*
G01*
X93175000Y-145949999D01*
G75*
G02*
X93424999Y-145700000I249999J0D01*
G01*
G37*
G36*
G01*
X93424999Y-141075000D02*
X95575001Y-141075000D01*
G75*
G02*
X95825000Y-141324999I0J-249999D01*
G01*
X95825000Y-142050001D01*
G75*
G02*
X95575001Y-142300000I-249999J0D01*
G01*
X93424999Y-142300000D01*
G75*
G02*
X93175000Y-142050001I0J249999D01*
G01*
X93175000Y-141324999D01*
G75*
G02*
X93424999Y-141075000I249999J0D01*
G01*
G37*
%TD*%
%TO.C,R12*%
G36*
G01*
X108700000Y-125075001D02*
X108700000Y-122924999D01*
G75*
G02*
X108949999Y-122675000I249999J0D01*
G01*
X109675001Y-122675000D01*
G75*
G02*
X109925000Y-122924999I0J-249999D01*
G01*
X109925000Y-125075001D01*
G75*
G02*
X109675001Y-125325000I-249999J0D01*
G01*
X108949999Y-125325000D01*
G75*
G02*
X108700000Y-125075001I0J249999D01*
G01*
G37*
G36*
G01*
X104075000Y-125075001D02*
X104075000Y-122924999D01*
G75*
G02*
X104324999Y-122675000I249999J0D01*
G01*
X105050001Y-122675000D01*
G75*
G02*
X105300000Y-122924999I0J-249999D01*
G01*
X105300000Y-125075001D01*
G75*
G02*
X105050001Y-125325000I-249999J0D01*
G01*
X104324999Y-125325000D01*
G75*
G02*
X104075000Y-125075001I0J249999D01*
G01*
G37*
%TD*%
%TO.C,R20*%
G36*
G01*
X120300000Y-116924999D02*
X120300000Y-119075001D01*
G75*
G02*
X120050001Y-119325000I-249999J0D01*
G01*
X119324999Y-119325000D01*
G75*
G02*
X119075000Y-119075001I0J249999D01*
G01*
X119075000Y-116924999D01*
G75*
G02*
X119324999Y-116675000I249999J0D01*
G01*
X120050001Y-116675000D01*
G75*
G02*
X120300000Y-116924999I0J-249999D01*
G01*
G37*
G36*
G01*
X124925000Y-116924999D02*
X124925000Y-119075001D01*
G75*
G02*
X124675001Y-119325000I-249999J0D01*
G01*
X123949999Y-119325000D01*
G75*
G02*
X123700000Y-119075001I0J249999D01*
G01*
X123700000Y-116924999D01*
G75*
G02*
X123949999Y-116675000I249999J0D01*
G01*
X124675001Y-116675000D01*
G75*
G02*
X124925000Y-116924999I0J-249999D01*
G01*
G37*
%TD*%
%TO.C,R29*%
G36*
G01*
X139925000Y-116924999D02*
X139925000Y-119075001D01*
G75*
G02*
X139675001Y-119325000I-249999J0D01*
G01*
X138949999Y-119325000D01*
G75*
G02*
X138700000Y-119075001I0J249999D01*
G01*
X138700000Y-116924999D01*
G75*
G02*
X138949999Y-116675000I249999J0D01*
G01*
X139675001Y-116675000D01*
G75*
G02*
X139925000Y-116924999I0J-249999D01*
G01*
G37*
G36*
G01*
X135300000Y-116924999D02*
X135300000Y-119075001D01*
G75*
G02*
X135050001Y-119325000I-249999J0D01*
G01*
X134324999Y-119325000D01*
G75*
G02*
X134075000Y-119075001I0J249999D01*
G01*
X134075000Y-116924999D01*
G75*
G02*
X134324999Y-116675000I249999J0D01*
G01*
X135050001Y-116675000D01*
G75*
G02*
X135300000Y-116924999I0J-249999D01*
G01*
G37*
%TD*%
%TO.C,R40*%
G36*
G01*
X150300000Y-128924999D02*
X150300000Y-131075001D01*
G75*
G02*
X150050001Y-131325000I-249999J0D01*
G01*
X149324999Y-131325000D01*
G75*
G02*
X149075000Y-131075001I0J249999D01*
G01*
X149075000Y-128924999D01*
G75*
G02*
X149324999Y-128675000I249999J0D01*
G01*
X150050001Y-128675000D01*
G75*
G02*
X150300000Y-128924999I0J-249999D01*
G01*
G37*
G36*
G01*
X154925000Y-128924999D02*
X154925000Y-131075001D01*
G75*
G02*
X154675001Y-131325000I-249999J0D01*
G01*
X153949999Y-131325000D01*
G75*
G02*
X153700000Y-131075001I0J249999D01*
G01*
X153700000Y-128924999D01*
G75*
G02*
X153949999Y-128675000I249999J0D01*
G01*
X154675001Y-128675000D01*
G75*
G02*
X154925000Y-128924999I0J-249999D01*
G01*
G37*
%TD*%
%TO.C,R53*%
G36*
G01*
X169925000Y-152924999D02*
X169925000Y-155075001D01*
G75*
G02*
X169675001Y-155325000I-249999J0D01*
G01*
X168949999Y-155325000D01*
G75*
G02*
X168700000Y-155075001I0J249999D01*
G01*
X168700000Y-152924999D01*
G75*
G02*
X168949999Y-152675000I249999J0D01*
G01*
X169675001Y-152675000D01*
G75*
G02*
X169925000Y-152924999I0J-249999D01*
G01*
G37*
G36*
G01*
X165300000Y-152924999D02*
X165300000Y-155075001D01*
G75*
G02*
X165050001Y-155325000I-249999J0D01*
G01*
X164324999Y-155325000D01*
G75*
G02*
X164075000Y-155075001I0J249999D01*
G01*
X164075000Y-152924999D01*
G75*
G02*
X164324999Y-152675000I249999J0D01*
G01*
X165050001Y-152675000D01*
G75*
G02*
X165300000Y-152924999I0J-249999D01*
G01*
G37*
%TD*%
%TO.C,R67*%
G36*
G01*
X199925000Y-128924999D02*
X199925000Y-131075001D01*
G75*
G02*
X199675001Y-131325000I-249999J0D01*
G01*
X198949999Y-131325000D01*
G75*
G02*
X198700000Y-131075001I0J249999D01*
G01*
X198700000Y-128924999D01*
G75*
G02*
X198949999Y-128675000I249999J0D01*
G01*
X199675001Y-128675000D01*
G75*
G02*
X199925000Y-128924999I0J-249999D01*
G01*
G37*
G36*
G01*
X195300000Y-128924999D02*
X195300000Y-131075001D01*
G75*
G02*
X195050001Y-131325000I-249999J0D01*
G01*
X194324999Y-131325000D01*
G75*
G02*
X194075000Y-131075001I0J249999D01*
G01*
X194075000Y-128924999D01*
G75*
G02*
X194324999Y-128675000I249999J0D01*
G01*
X195050001Y-128675000D01*
G75*
G02*
X195300000Y-128924999I0J-249999D01*
G01*
G37*
%TD*%
%TO.C,R95*%
G36*
G01*
X239075000Y-137075001D02*
X239075000Y-134924999D01*
G75*
G02*
X239324999Y-134675000I249999J0D01*
G01*
X240050001Y-134675000D01*
G75*
G02*
X240300000Y-134924999I0J-249999D01*
G01*
X240300000Y-137075001D01*
G75*
G02*
X240050001Y-137325000I-249999J0D01*
G01*
X239324999Y-137325000D01*
G75*
G02*
X239075000Y-137075001I0J249999D01*
G01*
G37*
G36*
G01*
X243700000Y-137075001D02*
X243700000Y-134924999D01*
G75*
G02*
X243949999Y-134675000I249999J0D01*
G01*
X244675001Y-134675000D01*
G75*
G02*
X244925000Y-134924999I0J-249999D01*
G01*
X244925000Y-137075001D01*
G75*
G02*
X244675001Y-137325000I-249999J0D01*
G01*
X243949999Y-137325000D01*
G75*
G02*
X243700000Y-137075001I0J249999D01*
G01*
G37*
%TD*%
%TO.C,R1*%
G36*
G01*
X89575000Y-113075001D02*
X89575000Y-110924999D01*
G75*
G02*
X89824999Y-110675000I249999J0D01*
G01*
X90550001Y-110675000D01*
G75*
G02*
X90800000Y-110924999I0J-249999D01*
G01*
X90800000Y-113075001D01*
G75*
G02*
X90550001Y-113325000I-249999J0D01*
G01*
X89824999Y-113325000D01*
G75*
G02*
X89575000Y-113075001I0J249999D01*
G01*
G37*
G36*
G01*
X94200000Y-113075001D02*
X94200000Y-110924999D01*
G75*
G02*
X94449999Y-110675000I249999J0D01*
G01*
X95175001Y-110675000D01*
G75*
G02*
X95425000Y-110924999I0J-249999D01*
G01*
X95425000Y-113075001D01*
G75*
G02*
X95175001Y-113325000I-249999J0D01*
G01*
X94449999Y-113325000D01*
G75*
G02*
X94200000Y-113075001I0J249999D01*
G01*
G37*
%TD*%
%TO.C,R3*%
G36*
G01*
X89575000Y-123075001D02*
X89575000Y-120924999D01*
G75*
G02*
X89824999Y-120675000I249999J0D01*
G01*
X90550001Y-120675000D01*
G75*
G02*
X90800000Y-120924999I0J-249999D01*
G01*
X90800000Y-123075001D01*
G75*
G02*
X90550001Y-123325000I-249999J0D01*
G01*
X89824999Y-123325000D01*
G75*
G02*
X89575000Y-123075001I0J249999D01*
G01*
G37*
G36*
G01*
X94200000Y-123075001D02*
X94200000Y-120924999D01*
G75*
G02*
X94449999Y-120675000I249999J0D01*
G01*
X95175001Y-120675000D01*
G75*
G02*
X95425000Y-120924999I0J-249999D01*
G01*
X95425000Y-123075001D01*
G75*
G02*
X95175001Y-123325000I-249999J0D01*
G01*
X94449999Y-123325000D01*
G75*
G02*
X94200000Y-123075001I0J249999D01*
G01*
G37*
%TD*%
%TO.C,R4*%
G36*
G01*
X93424999Y-129700000D02*
X95575001Y-129700000D01*
G75*
G02*
X95825000Y-129949999I0J-249999D01*
G01*
X95825000Y-130675001D01*
G75*
G02*
X95575001Y-130925000I-249999J0D01*
G01*
X93424999Y-130925000D01*
G75*
G02*
X93175000Y-130675001I0J249999D01*
G01*
X93175000Y-129949999D01*
G75*
G02*
X93424999Y-129700000I249999J0D01*
G01*
G37*
G36*
G01*
X93424999Y-125075000D02*
X95575001Y-125075000D01*
G75*
G02*
X95825000Y-125324999I0J-249999D01*
G01*
X95825000Y-126050001D01*
G75*
G02*
X95575001Y-126300000I-249999J0D01*
G01*
X93424999Y-126300000D01*
G75*
G02*
X93175000Y-126050001I0J249999D01*
G01*
X93175000Y-125324999D01*
G75*
G02*
X93424999Y-125075000I249999J0D01*
G01*
G37*
%TD*%
%TO.C,R5*%
G36*
G01*
X93424999Y-133075000D02*
X95575001Y-133075000D01*
G75*
G02*
X95825000Y-133324999I0J-249999D01*
G01*
X95825000Y-134050001D01*
G75*
G02*
X95575001Y-134300000I-249999J0D01*
G01*
X93424999Y-134300000D01*
G75*
G02*
X93175000Y-134050001I0J249999D01*
G01*
X93175000Y-133324999D01*
G75*
G02*
X93424999Y-133075000I249999J0D01*
G01*
G37*
G36*
G01*
X93424999Y-137700000D02*
X95575001Y-137700000D01*
G75*
G02*
X95825000Y-137949999I0J-249999D01*
G01*
X95825000Y-138675001D01*
G75*
G02*
X95575001Y-138925000I-249999J0D01*
G01*
X93424999Y-138925000D01*
G75*
G02*
X93175000Y-138675001I0J249999D01*
G01*
X93175000Y-137949999D01*
G75*
G02*
X93424999Y-137700000I249999J0D01*
G01*
G37*
%TD*%
%TO.C,R7*%
G36*
G01*
X95425000Y-148924999D02*
X95425000Y-151075001D01*
G75*
G02*
X95175001Y-151325000I-249999J0D01*
G01*
X94449999Y-151325000D01*
G75*
G02*
X94200000Y-151075001I0J249999D01*
G01*
X94200000Y-148924999D01*
G75*
G02*
X94449999Y-148675000I249999J0D01*
G01*
X95175001Y-148675000D01*
G75*
G02*
X95425000Y-148924999I0J-249999D01*
G01*
G37*
G36*
G01*
X90800000Y-148924999D02*
X90800000Y-151075001D01*
G75*
G02*
X90550001Y-151325000I-249999J0D01*
G01*
X89824999Y-151325000D01*
G75*
G02*
X89575000Y-151075001I0J249999D01*
G01*
X89575000Y-148924999D01*
G75*
G02*
X89824999Y-148675000I249999J0D01*
G01*
X90550001Y-148675000D01*
G75*
G02*
X90800000Y-148924999I0J-249999D01*
G01*
G37*
%TD*%
%TO.C,R8*%
G36*
G01*
X94200000Y-156075001D02*
X94200000Y-153924999D01*
G75*
G02*
X94449999Y-153675000I249999J0D01*
G01*
X95175001Y-153675000D01*
G75*
G02*
X95425000Y-153924999I0J-249999D01*
G01*
X95425000Y-156075001D01*
G75*
G02*
X95175001Y-156325000I-249999J0D01*
G01*
X94449999Y-156325000D01*
G75*
G02*
X94200000Y-156075001I0J249999D01*
G01*
G37*
G36*
G01*
X89575000Y-156075001D02*
X89575000Y-153924999D01*
G75*
G02*
X89824999Y-153675000I249999J0D01*
G01*
X90550001Y-153675000D01*
G75*
G02*
X90800000Y-153924999I0J-249999D01*
G01*
X90800000Y-156075001D01*
G75*
G02*
X90550001Y-156325000I-249999J0D01*
G01*
X89824999Y-156325000D01*
G75*
G02*
X89575000Y-156075001I0J249999D01*
G01*
G37*
%TD*%
%TO.C,R9*%
G36*
G01*
X95425000Y-158924999D02*
X95425000Y-161075001D01*
G75*
G02*
X95175001Y-161325000I-249999J0D01*
G01*
X94449999Y-161325000D01*
G75*
G02*
X94200000Y-161075001I0J249999D01*
G01*
X94200000Y-158924999D01*
G75*
G02*
X94449999Y-158675000I249999J0D01*
G01*
X95175001Y-158675000D01*
G75*
G02*
X95425000Y-158924999I0J-249999D01*
G01*
G37*
G36*
G01*
X90800000Y-158924999D02*
X90800000Y-161075001D01*
G75*
G02*
X90550001Y-161325000I-249999J0D01*
G01*
X89824999Y-161325000D01*
G75*
G02*
X89575000Y-161075001I0J249999D01*
G01*
X89575000Y-158924999D01*
G75*
G02*
X89824999Y-158675000I249999J0D01*
G01*
X90550001Y-158675000D01*
G75*
G02*
X90800000Y-158924999I0J-249999D01*
G01*
G37*
%TD*%
%TO.C,R10*%
G36*
G01*
X108700000Y-113075001D02*
X108700000Y-110924999D01*
G75*
G02*
X108949999Y-110675000I249999J0D01*
G01*
X109675001Y-110675000D01*
G75*
G02*
X109925000Y-110924999I0J-249999D01*
G01*
X109925000Y-113075001D01*
G75*
G02*
X109675001Y-113325000I-249999J0D01*
G01*
X108949999Y-113325000D01*
G75*
G02*
X108700000Y-113075001I0J249999D01*
G01*
G37*
G36*
G01*
X104075000Y-113075001D02*
X104075000Y-110924999D01*
G75*
G02*
X104324999Y-110675000I249999J0D01*
G01*
X105050001Y-110675000D01*
G75*
G02*
X105300000Y-110924999I0J-249999D01*
G01*
X105300000Y-113075001D01*
G75*
G02*
X105050001Y-113325000I-249999J0D01*
G01*
X104324999Y-113325000D01*
G75*
G02*
X104075000Y-113075001I0J249999D01*
G01*
G37*
%TD*%
%TO.C,R11*%
G36*
G01*
X109925000Y-116924999D02*
X109925000Y-119075001D01*
G75*
G02*
X109675001Y-119325000I-249999J0D01*
G01*
X108949999Y-119325000D01*
G75*
G02*
X108700000Y-119075001I0J249999D01*
G01*
X108700000Y-116924999D01*
G75*
G02*
X108949999Y-116675000I249999J0D01*
G01*
X109675001Y-116675000D01*
G75*
G02*
X109925000Y-116924999I0J-249999D01*
G01*
G37*
G36*
G01*
X105300000Y-116924999D02*
X105300000Y-119075001D01*
G75*
G02*
X105050001Y-119325000I-249999J0D01*
G01*
X104324999Y-119325000D01*
G75*
G02*
X104075000Y-119075001I0J249999D01*
G01*
X104075000Y-116924999D01*
G75*
G02*
X104324999Y-116675000I249999J0D01*
G01*
X105050001Y-116675000D01*
G75*
G02*
X105300000Y-116924999I0J-249999D01*
G01*
G37*
%TD*%
%TO.C,R13*%
G36*
G01*
X109925000Y-128924999D02*
X109925000Y-131075001D01*
G75*
G02*
X109675001Y-131325000I-249999J0D01*
G01*
X108949999Y-131325000D01*
G75*
G02*
X108700000Y-131075001I0J249999D01*
G01*
X108700000Y-128924999D01*
G75*
G02*
X108949999Y-128675000I249999J0D01*
G01*
X109675001Y-128675000D01*
G75*
G02*
X109925000Y-128924999I0J-249999D01*
G01*
G37*
G36*
G01*
X105300000Y-128924999D02*
X105300000Y-131075001D01*
G75*
G02*
X105050001Y-131325000I-249999J0D01*
G01*
X104324999Y-131325000D01*
G75*
G02*
X104075000Y-131075001I0J249999D01*
G01*
X104075000Y-128924999D01*
G75*
G02*
X104324999Y-128675000I249999J0D01*
G01*
X105050001Y-128675000D01*
G75*
G02*
X105300000Y-128924999I0J-249999D01*
G01*
G37*
%TD*%
%TO.C,R14*%
G36*
G01*
X108700000Y-137075001D02*
X108700000Y-134924999D01*
G75*
G02*
X108949999Y-134675000I249999J0D01*
G01*
X109675001Y-134675000D01*
G75*
G02*
X109925000Y-134924999I0J-249999D01*
G01*
X109925000Y-137075001D01*
G75*
G02*
X109675001Y-137325000I-249999J0D01*
G01*
X108949999Y-137325000D01*
G75*
G02*
X108700000Y-137075001I0J249999D01*
G01*
G37*
G36*
G01*
X104075000Y-137075001D02*
X104075000Y-134924999D01*
G75*
G02*
X104324999Y-134675000I249999J0D01*
G01*
X105050001Y-134675000D01*
G75*
G02*
X105300000Y-134924999I0J-249999D01*
G01*
X105300000Y-137075001D01*
G75*
G02*
X105050001Y-137325000I-249999J0D01*
G01*
X104324999Y-137325000D01*
G75*
G02*
X104075000Y-137075001I0J249999D01*
G01*
G37*
%TD*%
%TO.C,R15*%
G36*
G01*
X109925000Y-140924999D02*
X109925000Y-143075001D01*
G75*
G02*
X109675001Y-143325000I-249999J0D01*
G01*
X108949999Y-143325000D01*
G75*
G02*
X108700000Y-143075001I0J249999D01*
G01*
X108700000Y-140924999D01*
G75*
G02*
X108949999Y-140675000I249999J0D01*
G01*
X109675001Y-140675000D01*
G75*
G02*
X109925000Y-140924999I0J-249999D01*
G01*
G37*
G36*
G01*
X105300000Y-140924999D02*
X105300000Y-143075001D01*
G75*
G02*
X105050001Y-143325000I-249999J0D01*
G01*
X104324999Y-143325000D01*
G75*
G02*
X104075000Y-143075001I0J249999D01*
G01*
X104075000Y-140924999D01*
G75*
G02*
X104324999Y-140675000I249999J0D01*
G01*
X105050001Y-140675000D01*
G75*
G02*
X105300000Y-140924999I0J-249999D01*
G01*
G37*
%TD*%
%TO.C,R16*%
G36*
G01*
X108700000Y-149075001D02*
X108700000Y-146924999D01*
G75*
G02*
X108949999Y-146675000I249999J0D01*
G01*
X109675001Y-146675000D01*
G75*
G02*
X109925000Y-146924999I0J-249999D01*
G01*
X109925000Y-149075001D01*
G75*
G02*
X109675001Y-149325000I-249999J0D01*
G01*
X108949999Y-149325000D01*
G75*
G02*
X108700000Y-149075001I0J249999D01*
G01*
G37*
G36*
G01*
X104075000Y-149075001D02*
X104075000Y-146924999D01*
G75*
G02*
X104324999Y-146675000I249999J0D01*
G01*
X105050001Y-146675000D01*
G75*
G02*
X105300000Y-146924999I0J-249999D01*
G01*
X105300000Y-149075001D01*
G75*
G02*
X105050001Y-149325000I-249999J0D01*
G01*
X104324999Y-149325000D01*
G75*
G02*
X104075000Y-149075001I0J249999D01*
G01*
G37*
%TD*%
%TO.C,R17*%
G36*
G01*
X109925000Y-152924999D02*
X109925000Y-155075001D01*
G75*
G02*
X109675001Y-155325000I-249999J0D01*
G01*
X108949999Y-155325000D01*
G75*
G02*
X108700000Y-155075001I0J249999D01*
G01*
X108700000Y-152924999D01*
G75*
G02*
X108949999Y-152675000I249999J0D01*
G01*
X109675001Y-152675000D01*
G75*
G02*
X109925000Y-152924999I0J-249999D01*
G01*
G37*
G36*
G01*
X105300000Y-152924999D02*
X105300000Y-155075001D01*
G75*
G02*
X105050001Y-155325000I-249999J0D01*
G01*
X104324999Y-155325000D01*
G75*
G02*
X104075000Y-155075001I0J249999D01*
G01*
X104075000Y-152924999D01*
G75*
G02*
X104324999Y-152675000I249999J0D01*
G01*
X105050001Y-152675000D01*
G75*
G02*
X105300000Y-152924999I0J-249999D01*
G01*
G37*
%TD*%
%TO.C,R18*%
G36*
G01*
X108700000Y-161075001D02*
X108700000Y-158924999D01*
G75*
G02*
X108949999Y-158675000I249999J0D01*
G01*
X109675001Y-158675000D01*
G75*
G02*
X109925000Y-158924999I0J-249999D01*
G01*
X109925000Y-161075001D01*
G75*
G02*
X109675001Y-161325000I-249999J0D01*
G01*
X108949999Y-161325000D01*
G75*
G02*
X108700000Y-161075001I0J249999D01*
G01*
G37*
G36*
G01*
X104075000Y-161075001D02*
X104075000Y-158924999D01*
G75*
G02*
X104324999Y-158675000I249999J0D01*
G01*
X105050001Y-158675000D01*
G75*
G02*
X105300000Y-158924999I0J-249999D01*
G01*
X105300000Y-161075001D01*
G75*
G02*
X105050001Y-161325000I-249999J0D01*
G01*
X104324999Y-161325000D01*
G75*
G02*
X104075000Y-161075001I0J249999D01*
G01*
G37*
%TD*%
%TO.C,R19*%
G36*
G01*
X119075000Y-113075001D02*
X119075000Y-110924999D01*
G75*
G02*
X119324999Y-110675000I249999J0D01*
G01*
X120050001Y-110675000D01*
G75*
G02*
X120300000Y-110924999I0J-249999D01*
G01*
X120300000Y-113075001D01*
G75*
G02*
X120050001Y-113325000I-249999J0D01*
G01*
X119324999Y-113325000D01*
G75*
G02*
X119075000Y-113075001I0J249999D01*
G01*
G37*
G36*
G01*
X123700000Y-113075001D02*
X123700000Y-110924999D01*
G75*
G02*
X123949999Y-110675000I249999J0D01*
G01*
X124675001Y-110675000D01*
G75*
G02*
X124925000Y-110924999I0J-249999D01*
G01*
X124925000Y-113075001D01*
G75*
G02*
X124675001Y-113325000I-249999J0D01*
G01*
X123949999Y-113325000D01*
G75*
G02*
X123700000Y-113075001I0J249999D01*
G01*
G37*
%TD*%
%TO.C,R21*%
G36*
G01*
X119075000Y-125075001D02*
X119075000Y-122924999D01*
G75*
G02*
X119324999Y-122675000I249999J0D01*
G01*
X120050001Y-122675000D01*
G75*
G02*
X120300000Y-122924999I0J-249999D01*
G01*
X120300000Y-125075001D01*
G75*
G02*
X120050001Y-125325000I-249999J0D01*
G01*
X119324999Y-125325000D01*
G75*
G02*
X119075000Y-125075001I0J249999D01*
G01*
G37*
G36*
G01*
X123700000Y-125075001D02*
X123700000Y-122924999D01*
G75*
G02*
X123949999Y-122675000I249999J0D01*
G01*
X124675001Y-122675000D01*
G75*
G02*
X124925000Y-122924999I0J-249999D01*
G01*
X124925000Y-125075001D01*
G75*
G02*
X124675001Y-125325000I-249999J0D01*
G01*
X123949999Y-125325000D01*
G75*
G02*
X123700000Y-125075001I0J249999D01*
G01*
G37*
%TD*%
%TO.C,R22*%
G36*
G01*
X120300000Y-128924999D02*
X120300000Y-131075001D01*
G75*
G02*
X120050001Y-131325000I-249999J0D01*
G01*
X119324999Y-131325000D01*
G75*
G02*
X119075000Y-131075001I0J249999D01*
G01*
X119075000Y-128924999D01*
G75*
G02*
X119324999Y-128675000I249999J0D01*
G01*
X120050001Y-128675000D01*
G75*
G02*
X120300000Y-128924999I0J-249999D01*
G01*
G37*
G36*
G01*
X124925000Y-128924999D02*
X124925000Y-131075001D01*
G75*
G02*
X124675001Y-131325000I-249999J0D01*
G01*
X123949999Y-131325000D01*
G75*
G02*
X123700000Y-131075001I0J249999D01*
G01*
X123700000Y-128924999D01*
G75*
G02*
X123949999Y-128675000I249999J0D01*
G01*
X124675001Y-128675000D01*
G75*
G02*
X124925000Y-128924999I0J-249999D01*
G01*
G37*
%TD*%
%TO.C,R23*%
G36*
G01*
X119075000Y-137075001D02*
X119075000Y-134924999D01*
G75*
G02*
X119324999Y-134675000I249999J0D01*
G01*
X120050001Y-134675000D01*
G75*
G02*
X120300000Y-134924999I0J-249999D01*
G01*
X120300000Y-137075001D01*
G75*
G02*
X120050001Y-137325000I-249999J0D01*
G01*
X119324999Y-137325000D01*
G75*
G02*
X119075000Y-137075001I0J249999D01*
G01*
G37*
G36*
G01*
X123700000Y-137075001D02*
X123700000Y-134924999D01*
G75*
G02*
X123949999Y-134675000I249999J0D01*
G01*
X124675001Y-134675000D01*
G75*
G02*
X124925000Y-134924999I0J-249999D01*
G01*
X124925000Y-137075001D01*
G75*
G02*
X124675001Y-137325000I-249999J0D01*
G01*
X123949999Y-137325000D01*
G75*
G02*
X123700000Y-137075001I0J249999D01*
G01*
G37*
%TD*%
%TO.C,R24*%
G36*
G01*
X120300000Y-140924999D02*
X120300000Y-143075001D01*
G75*
G02*
X120050001Y-143325000I-249999J0D01*
G01*
X119324999Y-143325000D01*
G75*
G02*
X119075000Y-143075001I0J249999D01*
G01*
X119075000Y-140924999D01*
G75*
G02*
X119324999Y-140675000I249999J0D01*
G01*
X120050001Y-140675000D01*
G75*
G02*
X120300000Y-140924999I0J-249999D01*
G01*
G37*
G36*
G01*
X124925000Y-140924999D02*
X124925000Y-143075001D01*
G75*
G02*
X124675001Y-143325000I-249999J0D01*
G01*
X123949999Y-143325000D01*
G75*
G02*
X123700000Y-143075001I0J249999D01*
G01*
X123700000Y-140924999D01*
G75*
G02*
X123949999Y-140675000I249999J0D01*
G01*
X124675001Y-140675000D01*
G75*
G02*
X124925000Y-140924999I0J-249999D01*
G01*
G37*
%TD*%
%TO.C,R25*%
G36*
G01*
X119075000Y-149075001D02*
X119075000Y-146924999D01*
G75*
G02*
X119324999Y-146675000I249999J0D01*
G01*
X120050001Y-146675000D01*
G75*
G02*
X120300000Y-146924999I0J-249999D01*
G01*
X120300000Y-149075001D01*
G75*
G02*
X120050001Y-149325000I-249999J0D01*
G01*
X119324999Y-149325000D01*
G75*
G02*
X119075000Y-149075001I0J249999D01*
G01*
G37*
G36*
G01*
X123700000Y-149075001D02*
X123700000Y-146924999D01*
G75*
G02*
X123949999Y-146675000I249999J0D01*
G01*
X124675001Y-146675000D01*
G75*
G02*
X124925000Y-146924999I0J-249999D01*
G01*
X124925000Y-149075001D01*
G75*
G02*
X124675001Y-149325000I-249999J0D01*
G01*
X123949999Y-149325000D01*
G75*
G02*
X123700000Y-149075001I0J249999D01*
G01*
G37*
%TD*%
%TO.C,R26*%
G36*
G01*
X120300000Y-152924999D02*
X120300000Y-155075001D01*
G75*
G02*
X120050001Y-155325000I-249999J0D01*
G01*
X119324999Y-155325000D01*
G75*
G02*
X119075000Y-155075001I0J249999D01*
G01*
X119075000Y-152924999D01*
G75*
G02*
X119324999Y-152675000I249999J0D01*
G01*
X120050001Y-152675000D01*
G75*
G02*
X120300000Y-152924999I0J-249999D01*
G01*
G37*
G36*
G01*
X124925000Y-152924999D02*
X124925000Y-155075001D01*
G75*
G02*
X124675001Y-155325000I-249999J0D01*
G01*
X123949999Y-155325000D01*
G75*
G02*
X123700000Y-155075001I0J249999D01*
G01*
X123700000Y-152924999D01*
G75*
G02*
X123949999Y-152675000I249999J0D01*
G01*
X124675001Y-152675000D01*
G75*
G02*
X124925000Y-152924999I0J-249999D01*
G01*
G37*
%TD*%
%TO.C,R27*%
G36*
G01*
X119075000Y-161075001D02*
X119075000Y-158924999D01*
G75*
G02*
X119324999Y-158675000I249999J0D01*
G01*
X120050001Y-158675000D01*
G75*
G02*
X120300000Y-158924999I0J-249999D01*
G01*
X120300000Y-161075001D01*
G75*
G02*
X120050001Y-161325000I-249999J0D01*
G01*
X119324999Y-161325000D01*
G75*
G02*
X119075000Y-161075001I0J249999D01*
G01*
G37*
G36*
G01*
X123700000Y-161075001D02*
X123700000Y-158924999D01*
G75*
G02*
X123949999Y-158675000I249999J0D01*
G01*
X124675001Y-158675000D01*
G75*
G02*
X124925000Y-158924999I0J-249999D01*
G01*
X124925000Y-161075001D01*
G75*
G02*
X124675001Y-161325000I-249999J0D01*
G01*
X123949999Y-161325000D01*
G75*
G02*
X123700000Y-161075001I0J249999D01*
G01*
G37*
%TD*%
%TO.C,R28*%
G36*
G01*
X138700000Y-113075001D02*
X138700000Y-110924999D01*
G75*
G02*
X138949999Y-110675000I249999J0D01*
G01*
X139675001Y-110675000D01*
G75*
G02*
X139925000Y-110924999I0J-249999D01*
G01*
X139925000Y-113075001D01*
G75*
G02*
X139675001Y-113325000I-249999J0D01*
G01*
X138949999Y-113325000D01*
G75*
G02*
X138700000Y-113075001I0J249999D01*
G01*
G37*
G36*
G01*
X134075000Y-113075001D02*
X134075000Y-110924999D01*
G75*
G02*
X134324999Y-110675000I249999J0D01*
G01*
X135050001Y-110675000D01*
G75*
G02*
X135300000Y-110924999I0J-249999D01*
G01*
X135300000Y-113075001D01*
G75*
G02*
X135050001Y-113325000I-249999J0D01*
G01*
X134324999Y-113325000D01*
G75*
G02*
X134075000Y-113075001I0J249999D01*
G01*
G37*
%TD*%
%TO.C,R30*%
G36*
G01*
X138700000Y-125075001D02*
X138700000Y-122924999D01*
G75*
G02*
X138949999Y-122675000I249999J0D01*
G01*
X139675001Y-122675000D01*
G75*
G02*
X139925000Y-122924999I0J-249999D01*
G01*
X139925000Y-125075001D01*
G75*
G02*
X139675001Y-125325000I-249999J0D01*
G01*
X138949999Y-125325000D01*
G75*
G02*
X138700000Y-125075001I0J249999D01*
G01*
G37*
G36*
G01*
X134075000Y-125075001D02*
X134075000Y-122924999D01*
G75*
G02*
X134324999Y-122675000I249999J0D01*
G01*
X135050001Y-122675000D01*
G75*
G02*
X135300000Y-122924999I0J-249999D01*
G01*
X135300000Y-125075001D01*
G75*
G02*
X135050001Y-125325000I-249999J0D01*
G01*
X134324999Y-125325000D01*
G75*
G02*
X134075000Y-125075001I0J249999D01*
G01*
G37*
%TD*%
%TO.C,R31*%
G36*
G01*
X139925000Y-128924999D02*
X139925000Y-131075001D01*
G75*
G02*
X139675001Y-131325000I-249999J0D01*
G01*
X138949999Y-131325000D01*
G75*
G02*
X138700000Y-131075001I0J249999D01*
G01*
X138700000Y-128924999D01*
G75*
G02*
X138949999Y-128675000I249999J0D01*
G01*
X139675001Y-128675000D01*
G75*
G02*
X139925000Y-128924999I0J-249999D01*
G01*
G37*
G36*
G01*
X135300000Y-128924999D02*
X135300000Y-131075001D01*
G75*
G02*
X135050001Y-131325000I-249999J0D01*
G01*
X134324999Y-131325000D01*
G75*
G02*
X134075000Y-131075001I0J249999D01*
G01*
X134075000Y-128924999D01*
G75*
G02*
X134324999Y-128675000I249999J0D01*
G01*
X135050001Y-128675000D01*
G75*
G02*
X135300000Y-128924999I0J-249999D01*
G01*
G37*
%TD*%
%TO.C,R32*%
G36*
G01*
X138700000Y-137075001D02*
X138700000Y-134924999D01*
G75*
G02*
X138949999Y-134675000I249999J0D01*
G01*
X139675001Y-134675000D01*
G75*
G02*
X139925000Y-134924999I0J-249999D01*
G01*
X139925000Y-137075001D01*
G75*
G02*
X139675001Y-137325000I-249999J0D01*
G01*
X138949999Y-137325000D01*
G75*
G02*
X138700000Y-137075001I0J249999D01*
G01*
G37*
G36*
G01*
X134075000Y-137075001D02*
X134075000Y-134924999D01*
G75*
G02*
X134324999Y-134675000I249999J0D01*
G01*
X135050001Y-134675000D01*
G75*
G02*
X135300000Y-134924999I0J-249999D01*
G01*
X135300000Y-137075001D01*
G75*
G02*
X135050001Y-137325000I-249999J0D01*
G01*
X134324999Y-137325000D01*
G75*
G02*
X134075000Y-137075001I0J249999D01*
G01*
G37*
%TD*%
%TO.C,R33*%
G36*
G01*
X139925000Y-140924999D02*
X139925000Y-143075001D01*
G75*
G02*
X139675001Y-143325000I-249999J0D01*
G01*
X138949999Y-143325000D01*
G75*
G02*
X138700000Y-143075001I0J249999D01*
G01*
X138700000Y-140924999D01*
G75*
G02*
X138949999Y-140675000I249999J0D01*
G01*
X139675001Y-140675000D01*
G75*
G02*
X139925000Y-140924999I0J-249999D01*
G01*
G37*
G36*
G01*
X135300000Y-140924999D02*
X135300000Y-143075001D01*
G75*
G02*
X135050001Y-143325000I-249999J0D01*
G01*
X134324999Y-143325000D01*
G75*
G02*
X134075000Y-143075001I0J249999D01*
G01*
X134075000Y-140924999D01*
G75*
G02*
X134324999Y-140675000I249999J0D01*
G01*
X135050001Y-140675000D01*
G75*
G02*
X135300000Y-140924999I0J-249999D01*
G01*
G37*
%TD*%
%TO.C,R34*%
G36*
G01*
X138700000Y-149075001D02*
X138700000Y-146924999D01*
G75*
G02*
X138949999Y-146675000I249999J0D01*
G01*
X139675001Y-146675000D01*
G75*
G02*
X139925000Y-146924999I0J-249999D01*
G01*
X139925000Y-149075001D01*
G75*
G02*
X139675001Y-149325000I-249999J0D01*
G01*
X138949999Y-149325000D01*
G75*
G02*
X138700000Y-149075001I0J249999D01*
G01*
G37*
G36*
G01*
X134075000Y-149075001D02*
X134075000Y-146924999D01*
G75*
G02*
X134324999Y-146675000I249999J0D01*
G01*
X135050001Y-146675000D01*
G75*
G02*
X135300000Y-146924999I0J-249999D01*
G01*
X135300000Y-149075001D01*
G75*
G02*
X135050001Y-149325000I-249999J0D01*
G01*
X134324999Y-149325000D01*
G75*
G02*
X134075000Y-149075001I0J249999D01*
G01*
G37*
%TD*%
%TO.C,R35*%
G36*
G01*
X139925000Y-152924999D02*
X139925000Y-155075001D01*
G75*
G02*
X139675001Y-155325000I-249999J0D01*
G01*
X138949999Y-155325000D01*
G75*
G02*
X138700000Y-155075001I0J249999D01*
G01*
X138700000Y-152924999D01*
G75*
G02*
X138949999Y-152675000I249999J0D01*
G01*
X139675001Y-152675000D01*
G75*
G02*
X139925000Y-152924999I0J-249999D01*
G01*
G37*
G36*
G01*
X135300000Y-152924999D02*
X135300000Y-155075001D01*
G75*
G02*
X135050001Y-155325000I-249999J0D01*
G01*
X134324999Y-155325000D01*
G75*
G02*
X134075000Y-155075001I0J249999D01*
G01*
X134075000Y-152924999D01*
G75*
G02*
X134324999Y-152675000I249999J0D01*
G01*
X135050001Y-152675000D01*
G75*
G02*
X135300000Y-152924999I0J-249999D01*
G01*
G37*
%TD*%
%TO.C,R36*%
G36*
G01*
X138700000Y-161075001D02*
X138700000Y-158924999D01*
G75*
G02*
X138949999Y-158675000I249999J0D01*
G01*
X139675001Y-158675000D01*
G75*
G02*
X139925000Y-158924999I0J-249999D01*
G01*
X139925000Y-161075001D01*
G75*
G02*
X139675001Y-161325000I-249999J0D01*
G01*
X138949999Y-161325000D01*
G75*
G02*
X138700000Y-161075001I0J249999D01*
G01*
G37*
G36*
G01*
X134075000Y-161075001D02*
X134075000Y-158924999D01*
G75*
G02*
X134324999Y-158675000I249999J0D01*
G01*
X135050001Y-158675000D01*
G75*
G02*
X135300000Y-158924999I0J-249999D01*
G01*
X135300000Y-161075001D01*
G75*
G02*
X135050001Y-161325000I-249999J0D01*
G01*
X134324999Y-161325000D01*
G75*
G02*
X134075000Y-161075001I0J249999D01*
G01*
G37*
%TD*%
%TO.C,R37*%
G36*
G01*
X149075000Y-113075001D02*
X149075000Y-110924999D01*
G75*
G02*
X149324999Y-110675000I249999J0D01*
G01*
X150050001Y-110675000D01*
G75*
G02*
X150300000Y-110924999I0J-249999D01*
G01*
X150300000Y-113075001D01*
G75*
G02*
X150050001Y-113325000I-249999J0D01*
G01*
X149324999Y-113325000D01*
G75*
G02*
X149075000Y-113075001I0J249999D01*
G01*
G37*
G36*
G01*
X153700000Y-113075001D02*
X153700000Y-110924999D01*
G75*
G02*
X153949999Y-110675000I249999J0D01*
G01*
X154675001Y-110675000D01*
G75*
G02*
X154925000Y-110924999I0J-249999D01*
G01*
X154925000Y-113075001D01*
G75*
G02*
X154675001Y-113325000I-249999J0D01*
G01*
X153949999Y-113325000D01*
G75*
G02*
X153700000Y-113075001I0J249999D01*
G01*
G37*
%TD*%
%TO.C,R38*%
G36*
G01*
X150300000Y-116924999D02*
X150300000Y-119075001D01*
G75*
G02*
X150050001Y-119325000I-249999J0D01*
G01*
X149324999Y-119325000D01*
G75*
G02*
X149075000Y-119075001I0J249999D01*
G01*
X149075000Y-116924999D01*
G75*
G02*
X149324999Y-116675000I249999J0D01*
G01*
X150050001Y-116675000D01*
G75*
G02*
X150300000Y-116924999I0J-249999D01*
G01*
G37*
G36*
G01*
X154925000Y-116924999D02*
X154925000Y-119075001D01*
G75*
G02*
X154675001Y-119325000I-249999J0D01*
G01*
X153949999Y-119325000D01*
G75*
G02*
X153700000Y-119075001I0J249999D01*
G01*
X153700000Y-116924999D01*
G75*
G02*
X153949999Y-116675000I249999J0D01*
G01*
X154675001Y-116675000D01*
G75*
G02*
X154925000Y-116924999I0J-249999D01*
G01*
G37*
%TD*%
%TO.C,R39*%
G36*
G01*
X149075000Y-125075001D02*
X149075000Y-122924999D01*
G75*
G02*
X149324999Y-122675000I249999J0D01*
G01*
X150050001Y-122675000D01*
G75*
G02*
X150300000Y-122924999I0J-249999D01*
G01*
X150300000Y-125075001D01*
G75*
G02*
X150050001Y-125325000I-249999J0D01*
G01*
X149324999Y-125325000D01*
G75*
G02*
X149075000Y-125075001I0J249999D01*
G01*
G37*
G36*
G01*
X153700000Y-125075001D02*
X153700000Y-122924999D01*
G75*
G02*
X153949999Y-122675000I249999J0D01*
G01*
X154675001Y-122675000D01*
G75*
G02*
X154925000Y-122924999I0J-249999D01*
G01*
X154925000Y-125075001D01*
G75*
G02*
X154675001Y-125325000I-249999J0D01*
G01*
X153949999Y-125325000D01*
G75*
G02*
X153700000Y-125075001I0J249999D01*
G01*
G37*
%TD*%
%TO.C,R41*%
G36*
G01*
X149075000Y-137075001D02*
X149075000Y-134924999D01*
G75*
G02*
X149324999Y-134675000I249999J0D01*
G01*
X150050001Y-134675000D01*
G75*
G02*
X150300000Y-134924999I0J-249999D01*
G01*
X150300000Y-137075001D01*
G75*
G02*
X150050001Y-137325000I-249999J0D01*
G01*
X149324999Y-137325000D01*
G75*
G02*
X149075000Y-137075001I0J249999D01*
G01*
G37*
G36*
G01*
X153700000Y-137075001D02*
X153700000Y-134924999D01*
G75*
G02*
X153949999Y-134675000I249999J0D01*
G01*
X154675001Y-134675000D01*
G75*
G02*
X154925000Y-134924999I0J-249999D01*
G01*
X154925000Y-137075001D01*
G75*
G02*
X154675001Y-137325000I-249999J0D01*
G01*
X153949999Y-137325000D01*
G75*
G02*
X153700000Y-137075001I0J249999D01*
G01*
G37*
%TD*%
%TO.C,R42*%
G36*
G01*
X150300000Y-140924999D02*
X150300000Y-143075001D01*
G75*
G02*
X150050001Y-143325000I-249999J0D01*
G01*
X149324999Y-143325000D01*
G75*
G02*
X149075000Y-143075001I0J249999D01*
G01*
X149075000Y-140924999D01*
G75*
G02*
X149324999Y-140675000I249999J0D01*
G01*
X150050001Y-140675000D01*
G75*
G02*
X150300000Y-140924999I0J-249999D01*
G01*
G37*
G36*
G01*
X154925000Y-140924999D02*
X154925000Y-143075001D01*
G75*
G02*
X154675001Y-143325000I-249999J0D01*
G01*
X153949999Y-143325000D01*
G75*
G02*
X153700000Y-143075001I0J249999D01*
G01*
X153700000Y-140924999D01*
G75*
G02*
X153949999Y-140675000I249999J0D01*
G01*
X154675001Y-140675000D01*
G75*
G02*
X154925000Y-140924999I0J-249999D01*
G01*
G37*
%TD*%
%TO.C,R43*%
G36*
G01*
X149075000Y-149075001D02*
X149075000Y-146924999D01*
G75*
G02*
X149324999Y-146675000I249999J0D01*
G01*
X150050001Y-146675000D01*
G75*
G02*
X150300000Y-146924999I0J-249999D01*
G01*
X150300000Y-149075001D01*
G75*
G02*
X150050001Y-149325000I-249999J0D01*
G01*
X149324999Y-149325000D01*
G75*
G02*
X149075000Y-149075001I0J249999D01*
G01*
G37*
G36*
G01*
X153700000Y-149075001D02*
X153700000Y-146924999D01*
G75*
G02*
X153949999Y-146675000I249999J0D01*
G01*
X154675001Y-146675000D01*
G75*
G02*
X154925000Y-146924999I0J-249999D01*
G01*
X154925000Y-149075001D01*
G75*
G02*
X154675001Y-149325000I-249999J0D01*
G01*
X153949999Y-149325000D01*
G75*
G02*
X153700000Y-149075001I0J249999D01*
G01*
G37*
%TD*%
%TO.C,R44*%
G36*
G01*
X150300000Y-152924999D02*
X150300000Y-155075001D01*
G75*
G02*
X150050001Y-155325000I-249999J0D01*
G01*
X149324999Y-155325000D01*
G75*
G02*
X149075000Y-155075001I0J249999D01*
G01*
X149075000Y-152924999D01*
G75*
G02*
X149324999Y-152675000I249999J0D01*
G01*
X150050001Y-152675000D01*
G75*
G02*
X150300000Y-152924999I0J-249999D01*
G01*
G37*
G36*
G01*
X154925000Y-152924999D02*
X154925000Y-155075001D01*
G75*
G02*
X154675001Y-155325000I-249999J0D01*
G01*
X153949999Y-155325000D01*
G75*
G02*
X153700000Y-155075001I0J249999D01*
G01*
X153700000Y-152924999D01*
G75*
G02*
X153949999Y-152675000I249999J0D01*
G01*
X154675001Y-152675000D01*
G75*
G02*
X154925000Y-152924999I0J-249999D01*
G01*
G37*
%TD*%
%TO.C,R45*%
G36*
G01*
X149075000Y-161075001D02*
X149075000Y-158924999D01*
G75*
G02*
X149324999Y-158675000I249999J0D01*
G01*
X150050001Y-158675000D01*
G75*
G02*
X150300000Y-158924999I0J-249999D01*
G01*
X150300000Y-161075001D01*
G75*
G02*
X150050001Y-161325000I-249999J0D01*
G01*
X149324999Y-161325000D01*
G75*
G02*
X149075000Y-161075001I0J249999D01*
G01*
G37*
G36*
G01*
X153700000Y-161075001D02*
X153700000Y-158924999D01*
G75*
G02*
X153949999Y-158675000I249999J0D01*
G01*
X154675001Y-158675000D01*
G75*
G02*
X154925000Y-158924999I0J-249999D01*
G01*
X154925000Y-161075001D01*
G75*
G02*
X154675001Y-161325000I-249999J0D01*
G01*
X153949999Y-161325000D01*
G75*
G02*
X153700000Y-161075001I0J249999D01*
G01*
G37*
%TD*%
%TO.C,R46*%
G36*
G01*
X168700000Y-113075001D02*
X168700000Y-110924999D01*
G75*
G02*
X168949999Y-110675000I249999J0D01*
G01*
X169675001Y-110675000D01*
G75*
G02*
X169925000Y-110924999I0J-249999D01*
G01*
X169925000Y-113075001D01*
G75*
G02*
X169675001Y-113325000I-249999J0D01*
G01*
X168949999Y-113325000D01*
G75*
G02*
X168700000Y-113075001I0J249999D01*
G01*
G37*
G36*
G01*
X164075000Y-113075001D02*
X164075000Y-110924999D01*
G75*
G02*
X164324999Y-110675000I249999J0D01*
G01*
X165050001Y-110675000D01*
G75*
G02*
X165300000Y-110924999I0J-249999D01*
G01*
X165300000Y-113075001D01*
G75*
G02*
X165050001Y-113325000I-249999J0D01*
G01*
X164324999Y-113325000D01*
G75*
G02*
X164075000Y-113075001I0J249999D01*
G01*
G37*
%TD*%
%TO.C,R47*%
G36*
G01*
X169925000Y-116924999D02*
X169925000Y-119075001D01*
G75*
G02*
X169675001Y-119325000I-249999J0D01*
G01*
X168949999Y-119325000D01*
G75*
G02*
X168700000Y-119075001I0J249999D01*
G01*
X168700000Y-116924999D01*
G75*
G02*
X168949999Y-116675000I249999J0D01*
G01*
X169675001Y-116675000D01*
G75*
G02*
X169925000Y-116924999I0J-249999D01*
G01*
G37*
G36*
G01*
X165300000Y-116924999D02*
X165300000Y-119075001D01*
G75*
G02*
X165050001Y-119325000I-249999J0D01*
G01*
X164324999Y-119325000D01*
G75*
G02*
X164075000Y-119075001I0J249999D01*
G01*
X164075000Y-116924999D01*
G75*
G02*
X164324999Y-116675000I249999J0D01*
G01*
X165050001Y-116675000D01*
G75*
G02*
X165300000Y-116924999I0J-249999D01*
G01*
G37*
%TD*%
%TO.C,R48*%
G36*
G01*
X168700000Y-125075001D02*
X168700000Y-122924999D01*
G75*
G02*
X168949999Y-122675000I249999J0D01*
G01*
X169675001Y-122675000D01*
G75*
G02*
X169925000Y-122924999I0J-249999D01*
G01*
X169925000Y-125075001D01*
G75*
G02*
X169675001Y-125325000I-249999J0D01*
G01*
X168949999Y-125325000D01*
G75*
G02*
X168700000Y-125075001I0J249999D01*
G01*
G37*
G36*
G01*
X164075000Y-125075001D02*
X164075000Y-122924999D01*
G75*
G02*
X164324999Y-122675000I249999J0D01*
G01*
X165050001Y-122675000D01*
G75*
G02*
X165300000Y-122924999I0J-249999D01*
G01*
X165300000Y-125075001D01*
G75*
G02*
X165050001Y-125325000I-249999J0D01*
G01*
X164324999Y-125325000D01*
G75*
G02*
X164075000Y-125075001I0J249999D01*
G01*
G37*
%TD*%
%TO.C,R49*%
G36*
G01*
X169925000Y-128924999D02*
X169925000Y-131075001D01*
G75*
G02*
X169675001Y-131325000I-249999J0D01*
G01*
X168949999Y-131325000D01*
G75*
G02*
X168700000Y-131075001I0J249999D01*
G01*
X168700000Y-128924999D01*
G75*
G02*
X168949999Y-128675000I249999J0D01*
G01*
X169675001Y-128675000D01*
G75*
G02*
X169925000Y-128924999I0J-249999D01*
G01*
G37*
G36*
G01*
X165300000Y-128924999D02*
X165300000Y-131075001D01*
G75*
G02*
X165050001Y-131325000I-249999J0D01*
G01*
X164324999Y-131325000D01*
G75*
G02*
X164075000Y-131075001I0J249999D01*
G01*
X164075000Y-128924999D01*
G75*
G02*
X164324999Y-128675000I249999J0D01*
G01*
X165050001Y-128675000D01*
G75*
G02*
X165300000Y-128924999I0J-249999D01*
G01*
G37*
%TD*%
%TO.C,R50*%
G36*
G01*
X168700000Y-137075001D02*
X168700000Y-134924999D01*
G75*
G02*
X168949999Y-134675000I249999J0D01*
G01*
X169675001Y-134675000D01*
G75*
G02*
X169925000Y-134924999I0J-249999D01*
G01*
X169925000Y-137075001D01*
G75*
G02*
X169675001Y-137325000I-249999J0D01*
G01*
X168949999Y-137325000D01*
G75*
G02*
X168700000Y-137075001I0J249999D01*
G01*
G37*
G36*
G01*
X164075000Y-137075001D02*
X164075000Y-134924999D01*
G75*
G02*
X164324999Y-134675000I249999J0D01*
G01*
X165050001Y-134675000D01*
G75*
G02*
X165300000Y-134924999I0J-249999D01*
G01*
X165300000Y-137075001D01*
G75*
G02*
X165050001Y-137325000I-249999J0D01*
G01*
X164324999Y-137325000D01*
G75*
G02*
X164075000Y-137075001I0J249999D01*
G01*
G37*
%TD*%
%TO.C,R51*%
G36*
G01*
X169925000Y-140924999D02*
X169925000Y-143075001D01*
G75*
G02*
X169675001Y-143325000I-249999J0D01*
G01*
X168949999Y-143325000D01*
G75*
G02*
X168700000Y-143075001I0J249999D01*
G01*
X168700000Y-140924999D01*
G75*
G02*
X168949999Y-140675000I249999J0D01*
G01*
X169675001Y-140675000D01*
G75*
G02*
X169925000Y-140924999I0J-249999D01*
G01*
G37*
G36*
G01*
X165300000Y-140924999D02*
X165300000Y-143075001D01*
G75*
G02*
X165050001Y-143325000I-249999J0D01*
G01*
X164324999Y-143325000D01*
G75*
G02*
X164075000Y-143075001I0J249999D01*
G01*
X164075000Y-140924999D01*
G75*
G02*
X164324999Y-140675000I249999J0D01*
G01*
X165050001Y-140675000D01*
G75*
G02*
X165300000Y-140924999I0J-249999D01*
G01*
G37*
%TD*%
%TO.C,R52*%
G36*
G01*
X168700000Y-149075001D02*
X168700000Y-146924999D01*
G75*
G02*
X168949999Y-146675000I249999J0D01*
G01*
X169675001Y-146675000D01*
G75*
G02*
X169925000Y-146924999I0J-249999D01*
G01*
X169925000Y-149075001D01*
G75*
G02*
X169675001Y-149325000I-249999J0D01*
G01*
X168949999Y-149325000D01*
G75*
G02*
X168700000Y-149075001I0J249999D01*
G01*
G37*
G36*
G01*
X164075000Y-149075001D02*
X164075000Y-146924999D01*
G75*
G02*
X164324999Y-146675000I249999J0D01*
G01*
X165050001Y-146675000D01*
G75*
G02*
X165300000Y-146924999I0J-249999D01*
G01*
X165300000Y-149075001D01*
G75*
G02*
X165050001Y-149325000I-249999J0D01*
G01*
X164324999Y-149325000D01*
G75*
G02*
X164075000Y-149075001I0J249999D01*
G01*
G37*
%TD*%
%TO.C,R54*%
G36*
G01*
X168700000Y-161075001D02*
X168700000Y-158924999D01*
G75*
G02*
X168949999Y-158675000I249999J0D01*
G01*
X169675001Y-158675000D01*
G75*
G02*
X169925000Y-158924999I0J-249999D01*
G01*
X169925000Y-161075001D01*
G75*
G02*
X169675001Y-161325000I-249999J0D01*
G01*
X168949999Y-161325000D01*
G75*
G02*
X168700000Y-161075001I0J249999D01*
G01*
G37*
G36*
G01*
X164075000Y-161075001D02*
X164075000Y-158924999D01*
G75*
G02*
X164324999Y-158675000I249999J0D01*
G01*
X165050001Y-158675000D01*
G75*
G02*
X165300000Y-158924999I0J-249999D01*
G01*
X165300000Y-161075001D01*
G75*
G02*
X165050001Y-161325000I-249999J0D01*
G01*
X164324999Y-161325000D01*
G75*
G02*
X164075000Y-161075001I0J249999D01*
G01*
G37*
%TD*%
%TO.C,R55*%
G36*
G01*
X179075000Y-113075001D02*
X179075000Y-110924999D01*
G75*
G02*
X179324999Y-110675000I249999J0D01*
G01*
X180050001Y-110675000D01*
G75*
G02*
X180300000Y-110924999I0J-249999D01*
G01*
X180300000Y-113075001D01*
G75*
G02*
X180050001Y-113325000I-249999J0D01*
G01*
X179324999Y-113325000D01*
G75*
G02*
X179075000Y-113075001I0J249999D01*
G01*
G37*
G36*
G01*
X183700000Y-113075001D02*
X183700000Y-110924999D01*
G75*
G02*
X183949999Y-110675000I249999J0D01*
G01*
X184675001Y-110675000D01*
G75*
G02*
X184925000Y-110924999I0J-249999D01*
G01*
X184925000Y-113075001D01*
G75*
G02*
X184675001Y-113325000I-249999J0D01*
G01*
X183949999Y-113325000D01*
G75*
G02*
X183700000Y-113075001I0J249999D01*
G01*
G37*
%TD*%
%TO.C,R56*%
G36*
G01*
X180300000Y-116924999D02*
X180300000Y-119075001D01*
G75*
G02*
X180050001Y-119325000I-249999J0D01*
G01*
X179324999Y-119325000D01*
G75*
G02*
X179075000Y-119075001I0J249999D01*
G01*
X179075000Y-116924999D01*
G75*
G02*
X179324999Y-116675000I249999J0D01*
G01*
X180050001Y-116675000D01*
G75*
G02*
X180300000Y-116924999I0J-249999D01*
G01*
G37*
G36*
G01*
X184925000Y-116924999D02*
X184925000Y-119075001D01*
G75*
G02*
X184675001Y-119325000I-249999J0D01*
G01*
X183949999Y-119325000D01*
G75*
G02*
X183700000Y-119075001I0J249999D01*
G01*
X183700000Y-116924999D01*
G75*
G02*
X183949999Y-116675000I249999J0D01*
G01*
X184675001Y-116675000D01*
G75*
G02*
X184925000Y-116924999I0J-249999D01*
G01*
G37*
%TD*%
%TO.C,R57*%
G36*
G01*
X179075000Y-125075001D02*
X179075000Y-122924999D01*
G75*
G02*
X179324999Y-122675000I249999J0D01*
G01*
X180050001Y-122675000D01*
G75*
G02*
X180300000Y-122924999I0J-249999D01*
G01*
X180300000Y-125075001D01*
G75*
G02*
X180050001Y-125325000I-249999J0D01*
G01*
X179324999Y-125325000D01*
G75*
G02*
X179075000Y-125075001I0J249999D01*
G01*
G37*
G36*
G01*
X183700000Y-125075001D02*
X183700000Y-122924999D01*
G75*
G02*
X183949999Y-122675000I249999J0D01*
G01*
X184675001Y-122675000D01*
G75*
G02*
X184925000Y-122924999I0J-249999D01*
G01*
X184925000Y-125075001D01*
G75*
G02*
X184675001Y-125325000I-249999J0D01*
G01*
X183949999Y-125325000D01*
G75*
G02*
X183700000Y-125075001I0J249999D01*
G01*
G37*
%TD*%
%TO.C,R58*%
G36*
G01*
X180300000Y-128924999D02*
X180300000Y-131075001D01*
G75*
G02*
X180050001Y-131325000I-249999J0D01*
G01*
X179324999Y-131325000D01*
G75*
G02*
X179075000Y-131075001I0J249999D01*
G01*
X179075000Y-128924999D01*
G75*
G02*
X179324999Y-128675000I249999J0D01*
G01*
X180050001Y-128675000D01*
G75*
G02*
X180300000Y-128924999I0J-249999D01*
G01*
G37*
G36*
G01*
X184925000Y-128924999D02*
X184925000Y-131075001D01*
G75*
G02*
X184675001Y-131325000I-249999J0D01*
G01*
X183949999Y-131325000D01*
G75*
G02*
X183700000Y-131075001I0J249999D01*
G01*
X183700000Y-128924999D01*
G75*
G02*
X183949999Y-128675000I249999J0D01*
G01*
X184675001Y-128675000D01*
G75*
G02*
X184925000Y-128924999I0J-249999D01*
G01*
G37*
%TD*%
%TO.C,R59*%
G36*
G01*
X179075000Y-137075001D02*
X179075000Y-134924999D01*
G75*
G02*
X179324999Y-134675000I249999J0D01*
G01*
X180050001Y-134675000D01*
G75*
G02*
X180300000Y-134924999I0J-249999D01*
G01*
X180300000Y-137075001D01*
G75*
G02*
X180050001Y-137325000I-249999J0D01*
G01*
X179324999Y-137325000D01*
G75*
G02*
X179075000Y-137075001I0J249999D01*
G01*
G37*
G36*
G01*
X183700000Y-137075001D02*
X183700000Y-134924999D01*
G75*
G02*
X183949999Y-134675000I249999J0D01*
G01*
X184675001Y-134675000D01*
G75*
G02*
X184925000Y-134924999I0J-249999D01*
G01*
X184925000Y-137075001D01*
G75*
G02*
X184675001Y-137325000I-249999J0D01*
G01*
X183949999Y-137325000D01*
G75*
G02*
X183700000Y-137075001I0J249999D01*
G01*
G37*
%TD*%
%TO.C,R60*%
G36*
G01*
X180300000Y-140924999D02*
X180300000Y-143075001D01*
G75*
G02*
X180050001Y-143325000I-249999J0D01*
G01*
X179324999Y-143325000D01*
G75*
G02*
X179075000Y-143075001I0J249999D01*
G01*
X179075000Y-140924999D01*
G75*
G02*
X179324999Y-140675000I249999J0D01*
G01*
X180050001Y-140675000D01*
G75*
G02*
X180300000Y-140924999I0J-249999D01*
G01*
G37*
G36*
G01*
X184925000Y-140924999D02*
X184925000Y-143075001D01*
G75*
G02*
X184675001Y-143325000I-249999J0D01*
G01*
X183949999Y-143325000D01*
G75*
G02*
X183700000Y-143075001I0J249999D01*
G01*
X183700000Y-140924999D01*
G75*
G02*
X183949999Y-140675000I249999J0D01*
G01*
X184675001Y-140675000D01*
G75*
G02*
X184925000Y-140924999I0J-249999D01*
G01*
G37*
%TD*%
%TO.C,R61*%
G36*
G01*
X179075000Y-149075001D02*
X179075000Y-146924999D01*
G75*
G02*
X179324999Y-146675000I249999J0D01*
G01*
X180050001Y-146675000D01*
G75*
G02*
X180300000Y-146924999I0J-249999D01*
G01*
X180300000Y-149075001D01*
G75*
G02*
X180050001Y-149325000I-249999J0D01*
G01*
X179324999Y-149325000D01*
G75*
G02*
X179075000Y-149075001I0J249999D01*
G01*
G37*
G36*
G01*
X183700000Y-149075001D02*
X183700000Y-146924999D01*
G75*
G02*
X183949999Y-146675000I249999J0D01*
G01*
X184675001Y-146675000D01*
G75*
G02*
X184925000Y-146924999I0J-249999D01*
G01*
X184925000Y-149075001D01*
G75*
G02*
X184675001Y-149325000I-249999J0D01*
G01*
X183949999Y-149325000D01*
G75*
G02*
X183700000Y-149075001I0J249999D01*
G01*
G37*
%TD*%
%TO.C,R62*%
G36*
G01*
X180300000Y-152924999D02*
X180300000Y-155075001D01*
G75*
G02*
X180050001Y-155325000I-249999J0D01*
G01*
X179324999Y-155325000D01*
G75*
G02*
X179075000Y-155075001I0J249999D01*
G01*
X179075000Y-152924999D01*
G75*
G02*
X179324999Y-152675000I249999J0D01*
G01*
X180050001Y-152675000D01*
G75*
G02*
X180300000Y-152924999I0J-249999D01*
G01*
G37*
G36*
G01*
X184925000Y-152924999D02*
X184925000Y-155075001D01*
G75*
G02*
X184675001Y-155325000I-249999J0D01*
G01*
X183949999Y-155325000D01*
G75*
G02*
X183700000Y-155075001I0J249999D01*
G01*
X183700000Y-152924999D01*
G75*
G02*
X183949999Y-152675000I249999J0D01*
G01*
X184675001Y-152675000D01*
G75*
G02*
X184925000Y-152924999I0J-249999D01*
G01*
G37*
%TD*%
%TO.C,R63*%
G36*
G01*
X179075000Y-161075001D02*
X179075000Y-158924999D01*
G75*
G02*
X179324999Y-158675000I249999J0D01*
G01*
X180050001Y-158675000D01*
G75*
G02*
X180300000Y-158924999I0J-249999D01*
G01*
X180300000Y-161075001D01*
G75*
G02*
X180050001Y-161325000I-249999J0D01*
G01*
X179324999Y-161325000D01*
G75*
G02*
X179075000Y-161075001I0J249999D01*
G01*
G37*
G36*
G01*
X183700000Y-161075001D02*
X183700000Y-158924999D01*
G75*
G02*
X183949999Y-158675000I249999J0D01*
G01*
X184675001Y-158675000D01*
G75*
G02*
X184925000Y-158924999I0J-249999D01*
G01*
X184925000Y-161075001D01*
G75*
G02*
X184675001Y-161325000I-249999J0D01*
G01*
X183949999Y-161325000D01*
G75*
G02*
X183700000Y-161075001I0J249999D01*
G01*
G37*
%TD*%
%TO.C,R64*%
G36*
G01*
X198700000Y-113075001D02*
X198700000Y-110924999D01*
G75*
G02*
X198949999Y-110675000I249999J0D01*
G01*
X199675001Y-110675000D01*
G75*
G02*
X199925000Y-110924999I0J-249999D01*
G01*
X199925000Y-113075001D01*
G75*
G02*
X199675001Y-113325000I-249999J0D01*
G01*
X198949999Y-113325000D01*
G75*
G02*
X198700000Y-113075001I0J249999D01*
G01*
G37*
G36*
G01*
X194075000Y-113075001D02*
X194075000Y-110924999D01*
G75*
G02*
X194324999Y-110675000I249999J0D01*
G01*
X195050001Y-110675000D01*
G75*
G02*
X195300000Y-110924999I0J-249999D01*
G01*
X195300000Y-113075001D01*
G75*
G02*
X195050001Y-113325000I-249999J0D01*
G01*
X194324999Y-113325000D01*
G75*
G02*
X194075000Y-113075001I0J249999D01*
G01*
G37*
%TD*%
%TO.C,R65*%
G36*
G01*
X199925000Y-116924999D02*
X199925000Y-119075001D01*
G75*
G02*
X199675001Y-119325000I-249999J0D01*
G01*
X198949999Y-119325000D01*
G75*
G02*
X198700000Y-119075001I0J249999D01*
G01*
X198700000Y-116924999D01*
G75*
G02*
X198949999Y-116675000I249999J0D01*
G01*
X199675001Y-116675000D01*
G75*
G02*
X199925000Y-116924999I0J-249999D01*
G01*
G37*
G36*
G01*
X195300000Y-116924999D02*
X195300000Y-119075001D01*
G75*
G02*
X195050001Y-119325000I-249999J0D01*
G01*
X194324999Y-119325000D01*
G75*
G02*
X194075000Y-119075001I0J249999D01*
G01*
X194075000Y-116924999D01*
G75*
G02*
X194324999Y-116675000I249999J0D01*
G01*
X195050001Y-116675000D01*
G75*
G02*
X195300000Y-116924999I0J-249999D01*
G01*
G37*
%TD*%
%TO.C,R66*%
G36*
G01*
X198700000Y-125075001D02*
X198700000Y-122924999D01*
G75*
G02*
X198949999Y-122675000I249999J0D01*
G01*
X199675001Y-122675000D01*
G75*
G02*
X199925000Y-122924999I0J-249999D01*
G01*
X199925000Y-125075001D01*
G75*
G02*
X199675001Y-125325000I-249999J0D01*
G01*
X198949999Y-125325000D01*
G75*
G02*
X198700000Y-125075001I0J249999D01*
G01*
G37*
G36*
G01*
X194075000Y-125075001D02*
X194075000Y-122924999D01*
G75*
G02*
X194324999Y-122675000I249999J0D01*
G01*
X195050001Y-122675000D01*
G75*
G02*
X195300000Y-122924999I0J-249999D01*
G01*
X195300000Y-125075001D01*
G75*
G02*
X195050001Y-125325000I-249999J0D01*
G01*
X194324999Y-125325000D01*
G75*
G02*
X194075000Y-125075001I0J249999D01*
G01*
G37*
%TD*%
%TO.C,R68*%
G36*
G01*
X198700000Y-137075001D02*
X198700000Y-134924999D01*
G75*
G02*
X198949999Y-134675000I249999J0D01*
G01*
X199675001Y-134675000D01*
G75*
G02*
X199925000Y-134924999I0J-249999D01*
G01*
X199925000Y-137075001D01*
G75*
G02*
X199675001Y-137325000I-249999J0D01*
G01*
X198949999Y-137325000D01*
G75*
G02*
X198700000Y-137075001I0J249999D01*
G01*
G37*
G36*
G01*
X194075000Y-137075001D02*
X194075000Y-134924999D01*
G75*
G02*
X194324999Y-134675000I249999J0D01*
G01*
X195050001Y-134675000D01*
G75*
G02*
X195300000Y-134924999I0J-249999D01*
G01*
X195300000Y-137075001D01*
G75*
G02*
X195050001Y-137325000I-249999J0D01*
G01*
X194324999Y-137325000D01*
G75*
G02*
X194075000Y-137075001I0J249999D01*
G01*
G37*
%TD*%
%TO.C,R69*%
G36*
G01*
X199925000Y-140924999D02*
X199925000Y-143075001D01*
G75*
G02*
X199675001Y-143325000I-249999J0D01*
G01*
X198949999Y-143325000D01*
G75*
G02*
X198700000Y-143075001I0J249999D01*
G01*
X198700000Y-140924999D01*
G75*
G02*
X198949999Y-140675000I249999J0D01*
G01*
X199675001Y-140675000D01*
G75*
G02*
X199925000Y-140924999I0J-249999D01*
G01*
G37*
G36*
G01*
X195300000Y-140924999D02*
X195300000Y-143075001D01*
G75*
G02*
X195050001Y-143325000I-249999J0D01*
G01*
X194324999Y-143325000D01*
G75*
G02*
X194075000Y-143075001I0J249999D01*
G01*
X194075000Y-140924999D01*
G75*
G02*
X194324999Y-140675000I249999J0D01*
G01*
X195050001Y-140675000D01*
G75*
G02*
X195300000Y-140924999I0J-249999D01*
G01*
G37*
%TD*%
%TO.C,R70*%
G36*
G01*
X198700000Y-149075001D02*
X198700000Y-146924999D01*
G75*
G02*
X198949999Y-146675000I249999J0D01*
G01*
X199675001Y-146675000D01*
G75*
G02*
X199925000Y-146924999I0J-249999D01*
G01*
X199925000Y-149075001D01*
G75*
G02*
X199675001Y-149325000I-249999J0D01*
G01*
X198949999Y-149325000D01*
G75*
G02*
X198700000Y-149075001I0J249999D01*
G01*
G37*
G36*
G01*
X194075000Y-149075001D02*
X194075000Y-146924999D01*
G75*
G02*
X194324999Y-146675000I249999J0D01*
G01*
X195050001Y-146675000D01*
G75*
G02*
X195300000Y-146924999I0J-249999D01*
G01*
X195300000Y-149075001D01*
G75*
G02*
X195050001Y-149325000I-249999J0D01*
G01*
X194324999Y-149325000D01*
G75*
G02*
X194075000Y-149075001I0J249999D01*
G01*
G37*
%TD*%
%TO.C,R71*%
G36*
G01*
X199925000Y-152924999D02*
X199925000Y-155075001D01*
G75*
G02*
X199675001Y-155325000I-249999J0D01*
G01*
X198949999Y-155325000D01*
G75*
G02*
X198700000Y-155075001I0J249999D01*
G01*
X198700000Y-152924999D01*
G75*
G02*
X198949999Y-152675000I249999J0D01*
G01*
X199675001Y-152675000D01*
G75*
G02*
X199925000Y-152924999I0J-249999D01*
G01*
G37*
G36*
G01*
X195300000Y-152924999D02*
X195300000Y-155075001D01*
G75*
G02*
X195050001Y-155325000I-249999J0D01*
G01*
X194324999Y-155325000D01*
G75*
G02*
X194075000Y-155075001I0J249999D01*
G01*
X194075000Y-152924999D01*
G75*
G02*
X194324999Y-152675000I249999J0D01*
G01*
X195050001Y-152675000D01*
G75*
G02*
X195300000Y-152924999I0J-249999D01*
G01*
G37*
%TD*%
%TO.C,R72*%
G36*
G01*
X198700000Y-161075001D02*
X198700000Y-158924999D01*
G75*
G02*
X198949999Y-158675000I249999J0D01*
G01*
X199675001Y-158675000D01*
G75*
G02*
X199925000Y-158924999I0J-249999D01*
G01*
X199925000Y-161075001D01*
G75*
G02*
X199675001Y-161325000I-249999J0D01*
G01*
X198949999Y-161325000D01*
G75*
G02*
X198700000Y-161075001I0J249999D01*
G01*
G37*
G36*
G01*
X194075000Y-161075001D02*
X194075000Y-158924999D01*
G75*
G02*
X194324999Y-158675000I249999J0D01*
G01*
X195050001Y-158675000D01*
G75*
G02*
X195300000Y-158924999I0J-249999D01*
G01*
X195300000Y-161075001D01*
G75*
G02*
X195050001Y-161325000I-249999J0D01*
G01*
X194324999Y-161325000D01*
G75*
G02*
X194075000Y-161075001I0J249999D01*
G01*
G37*
%TD*%
%TO.C,R73*%
G36*
G01*
X209075000Y-113075001D02*
X209075000Y-110924999D01*
G75*
G02*
X209324999Y-110675000I249999J0D01*
G01*
X210050001Y-110675000D01*
G75*
G02*
X210300000Y-110924999I0J-249999D01*
G01*
X210300000Y-113075001D01*
G75*
G02*
X210050001Y-113325000I-249999J0D01*
G01*
X209324999Y-113325000D01*
G75*
G02*
X209075000Y-113075001I0J249999D01*
G01*
G37*
G36*
G01*
X213700000Y-113075001D02*
X213700000Y-110924999D01*
G75*
G02*
X213949999Y-110675000I249999J0D01*
G01*
X214675001Y-110675000D01*
G75*
G02*
X214925000Y-110924999I0J-249999D01*
G01*
X214925000Y-113075001D01*
G75*
G02*
X214675001Y-113325000I-249999J0D01*
G01*
X213949999Y-113325000D01*
G75*
G02*
X213700000Y-113075001I0J249999D01*
G01*
G37*
%TD*%
%TO.C,R74*%
G36*
G01*
X210300000Y-116924999D02*
X210300000Y-119075001D01*
G75*
G02*
X210050001Y-119325000I-249999J0D01*
G01*
X209324999Y-119325000D01*
G75*
G02*
X209075000Y-119075001I0J249999D01*
G01*
X209075000Y-116924999D01*
G75*
G02*
X209324999Y-116675000I249999J0D01*
G01*
X210050001Y-116675000D01*
G75*
G02*
X210300000Y-116924999I0J-249999D01*
G01*
G37*
G36*
G01*
X214925000Y-116924999D02*
X214925000Y-119075001D01*
G75*
G02*
X214675001Y-119325000I-249999J0D01*
G01*
X213949999Y-119325000D01*
G75*
G02*
X213700000Y-119075001I0J249999D01*
G01*
X213700000Y-116924999D01*
G75*
G02*
X213949999Y-116675000I249999J0D01*
G01*
X214675001Y-116675000D01*
G75*
G02*
X214925000Y-116924999I0J-249999D01*
G01*
G37*
%TD*%
%TO.C,R75*%
G36*
G01*
X209075000Y-125075001D02*
X209075000Y-122924999D01*
G75*
G02*
X209324999Y-122675000I249999J0D01*
G01*
X210050001Y-122675000D01*
G75*
G02*
X210300000Y-122924999I0J-249999D01*
G01*
X210300000Y-125075001D01*
G75*
G02*
X210050001Y-125325000I-249999J0D01*
G01*
X209324999Y-125325000D01*
G75*
G02*
X209075000Y-125075001I0J249999D01*
G01*
G37*
G36*
G01*
X213700000Y-125075001D02*
X213700000Y-122924999D01*
G75*
G02*
X213949999Y-122675000I249999J0D01*
G01*
X214675001Y-122675000D01*
G75*
G02*
X214925000Y-122924999I0J-249999D01*
G01*
X214925000Y-125075001D01*
G75*
G02*
X214675001Y-125325000I-249999J0D01*
G01*
X213949999Y-125325000D01*
G75*
G02*
X213700000Y-125075001I0J249999D01*
G01*
G37*
%TD*%
%TO.C,R76*%
G36*
G01*
X210300000Y-128924999D02*
X210300000Y-131075001D01*
G75*
G02*
X210050001Y-131325000I-249999J0D01*
G01*
X209324999Y-131325000D01*
G75*
G02*
X209075000Y-131075001I0J249999D01*
G01*
X209075000Y-128924999D01*
G75*
G02*
X209324999Y-128675000I249999J0D01*
G01*
X210050001Y-128675000D01*
G75*
G02*
X210300000Y-128924999I0J-249999D01*
G01*
G37*
G36*
G01*
X214925000Y-128924999D02*
X214925000Y-131075001D01*
G75*
G02*
X214675001Y-131325000I-249999J0D01*
G01*
X213949999Y-131325000D01*
G75*
G02*
X213700000Y-131075001I0J249999D01*
G01*
X213700000Y-128924999D01*
G75*
G02*
X213949999Y-128675000I249999J0D01*
G01*
X214675001Y-128675000D01*
G75*
G02*
X214925000Y-128924999I0J-249999D01*
G01*
G37*
%TD*%
%TO.C,R77*%
G36*
G01*
X209075000Y-137075001D02*
X209075000Y-134924999D01*
G75*
G02*
X209324999Y-134675000I249999J0D01*
G01*
X210050001Y-134675000D01*
G75*
G02*
X210300000Y-134924999I0J-249999D01*
G01*
X210300000Y-137075001D01*
G75*
G02*
X210050001Y-137325000I-249999J0D01*
G01*
X209324999Y-137325000D01*
G75*
G02*
X209075000Y-137075001I0J249999D01*
G01*
G37*
G36*
G01*
X213700000Y-137075001D02*
X213700000Y-134924999D01*
G75*
G02*
X213949999Y-134675000I249999J0D01*
G01*
X214675001Y-134675000D01*
G75*
G02*
X214925000Y-134924999I0J-249999D01*
G01*
X214925000Y-137075001D01*
G75*
G02*
X214675001Y-137325000I-249999J0D01*
G01*
X213949999Y-137325000D01*
G75*
G02*
X213700000Y-137075001I0J249999D01*
G01*
G37*
%TD*%
%TO.C,R78*%
G36*
G01*
X210300000Y-140924999D02*
X210300000Y-143075001D01*
G75*
G02*
X210050001Y-143325000I-249999J0D01*
G01*
X209324999Y-143325000D01*
G75*
G02*
X209075000Y-143075001I0J249999D01*
G01*
X209075000Y-140924999D01*
G75*
G02*
X209324999Y-140675000I249999J0D01*
G01*
X210050001Y-140675000D01*
G75*
G02*
X210300000Y-140924999I0J-249999D01*
G01*
G37*
G36*
G01*
X214925000Y-140924999D02*
X214925000Y-143075001D01*
G75*
G02*
X214675001Y-143325000I-249999J0D01*
G01*
X213949999Y-143325000D01*
G75*
G02*
X213700000Y-143075001I0J249999D01*
G01*
X213700000Y-140924999D01*
G75*
G02*
X213949999Y-140675000I249999J0D01*
G01*
X214675001Y-140675000D01*
G75*
G02*
X214925000Y-140924999I0J-249999D01*
G01*
G37*
%TD*%
%TO.C,R79*%
G36*
G01*
X209075000Y-149075001D02*
X209075000Y-146924999D01*
G75*
G02*
X209324999Y-146675000I249999J0D01*
G01*
X210050001Y-146675000D01*
G75*
G02*
X210300000Y-146924999I0J-249999D01*
G01*
X210300000Y-149075001D01*
G75*
G02*
X210050001Y-149325000I-249999J0D01*
G01*
X209324999Y-149325000D01*
G75*
G02*
X209075000Y-149075001I0J249999D01*
G01*
G37*
G36*
G01*
X213700000Y-149075001D02*
X213700000Y-146924999D01*
G75*
G02*
X213949999Y-146675000I249999J0D01*
G01*
X214675001Y-146675000D01*
G75*
G02*
X214925000Y-146924999I0J-249999D01*
G01*
X214925000Y-149075001D01*
G75*
G02*
X214675001Y-149325000I-249999J0D01*
G01*
X213949999Y-149325000D01*
G75*
G02*
X213700000Y-149075001I0J249999D01*
G01*
G37*
%TD*%
%TO.C,R80*%
G36*
G01*
X210300000Y-152924999D02*
X210300000Y-155075001D01*
G75*
G02*
X210050001Y-155325000I-249999J0D01*
G01*
X209324999Y-155325000D01*
G75*
G02*
X209075000Y-155075001I0J249999D01*
G01*
X209075000Y-152924999D01*
G75*
G02*
X209324999Y-152675000I249999J0D01*
G01*
X210050001Y-152675000D01*
G75*
G02*
X210300000Y-152924999I0J-249999D01*
G01*
G37*
G36*
G01*
X214925000Y-152924999D02*
X214925000Y-155075001D01*
G75*
G02*
X214675001Y-155325000I-249999J0D01*
G01*
X213949999Y-155325000D01*
G75*
G02*
X213700000Y-155075001I0J249999D01*
G01*
X213700000Y-152924999D01*
G75*
G02*
X213949999Y-152675000I249999J0D01*
G01*
X214675001Y-152675000D01*
G75*
G02*
X214925000Y-152924999I0J-249999D01*
G01*
G37*
%TD*%
%TO.C,R81*%
G36*
G01*
X209075000Y-161075001D02*
X209075000Y-158924999D01*
G75*
G02*
X209324999Y-158675000I249999J0D01*
G01*
X210050001Y-158675000D01*
G75*
G02*
X210300000Y-158924999I0J-249999D01*
G01*
X210300000Y-161075001D01*
G75*
G02*
X210050001Y-161325000I-249999J0D01*
G01*
X209324999Y-161325000D01*
G75*
G02*
X209075000Y-161075001I0J249999D01*
G01*
G37*
G36*
G01*
X213700000Y-161075001D02*
X213700000Y-158924999D01*
G75*
G02*
X213949999Y-158675000I249999J0D01*
G01*
X214675001Y-158675000D01*
G75*
G02*
X214925000Y-158924999I0J-249999D01*
G01*
X214925000Y-161075001D01*
G75*
G02*
X214675001Y-161325000I-249999J0D01*
G01*
X213949999Y-161325000D01*
G75*
G02*
X213700000Y-161075001I0J249999D01*
G01*
G37*
%TD*%
%TO.C,R82*%
G36*
G01*
X228700000Y-113075001D02*
X228700000Y-110924999D01*
G75*
G02*
X228949999Y-110675000I249999J0D01*
G01*
X229675001Y-110675000D01*
G75*
G02*
X229925000Y-110924999I0J-249999D01*
G01*
X229925000Y-113075001D01*
G75*
G02*
X229675001Y-113325000I-249999J0D01*
G01*
X228949999Y-113325000D01*
G75*
G02*
X228700000Y-113075001I0J249999D01*
G01*
G37*
G36*
G01*
X224075000Y-113075001D02*
X224075000Y-110924999D01*
G75*
G02*
X224324999Y-110675000I249999J0D01*
G01*
X225050001Y-110675000D01*
G75*
G02*
X225300000Y-110924999I0J-249999D01*
G01*
X225300000Y-113075001D01*
G75*
G02*
X225050001Y-113325000I-249999J0D01*
G01*
X224324999Y-113325000D01*
G75*
G02*
X224075000Y-113075001I0J249999D01*
G01*
G37*
%TD*%
%TO.C,R83*%
G36*
G01*
X229925000Y-116924999D02*
X229925000Y-119075001D01*
G75*
G02*
X229675001Y-119325000I-249999J0D01*
G01*
X228949999Y-119325000D01*
G75*
G02*
X228700000Y-119075001I0J249999D01*
G01*
X228700000Y-116924999D01*
G75*
G02*
X228949999Y-116675000I249999J0D01*
G01*
X229675001Y-116675000D01*
G75*
G02*
X229925000Y-116924999I0J-249999D01*
G01*
G37*
G36*
G01*
X225300000Y-116924999D02*
X225300000Y-119075001D01*
G75*
G02*
X225050001Y-119325000I-249999J0D01*
G01*
X224324999Y-119325000D01*
G75*
G02*
X224075000Y-119075001I0J249999D01*
G01*
X224075000Y-116924999D01*
G75*
G02*
X224324999Y-116675000I249999J0D01*
G01*
X225050001Y-116675000D01*
G75*
G02*
X225300000Y-116924999I0J-249999D01*
G01*
G37*
%TD*%
%TO.C,R84*%
G36*
G01*
X228700000Y-125075001D02*
X228700000Y-122924999D01*
G75*
G02*
X228949999Y-122675000I249999J0D01*
G01*
X229675001Y-122675000D01*
G75*
G02*
X229925000Y-122924999I0J-249999D01*
G01*
X229925000Y-125075001D01*
G75*
G02*
X229675001Y-125325000I-249999J0D01*
G01*
X228949999Y-125325000D01*
G75*
G02*
X228700000Y-125075001I0J249999D01*
G01*
G37*
G36*
G01*
X224075000Y-125075001D02*
X224075000Y-122924999D01*
G75*
G02*
X224324999Y-122675000I249999J0D01*
G01*
X225050001Y-122675000D01*
G75*
G02*
X225300000Y-122924999I0J-249999D01*
G01*
X225300000Y-125075001D01*
G75*
G02*
X225050001Y-125325000I-249999J0D01*
G01*
X224324999Y-125325000D01*
G75*
G02*
X224075000Y-125075001I0J249999D01*
G01*
G37*
%TD*%
%TO.C,R85*%
G36*
G01*
X229925000Y-128924999D02*
X229925000Y-131075001D01*
G75*
G02*
X229675001Y-131325000I-249999J0D01*
G01*
X228949999Y-131325000D01*
G75*
G02*
X228700000Y-131075001I0J249999D01*
G01*
X228700000Y-128924999D01*
G75*
G02*
X228949999Y-128675000I249999J0D01*
G01*
X229675001Y-128675000D01*
G75*
G02*
X229925000Y-128924999I0J-249999D01*
G01*
G37*
G36*
G01*
X225300000Y-128924999D02*
X225300000Y-131075001D01*
G75*
G02*
X225050001Y-131325000I-249999J0D01*
G01*
X224324999Y-131325000D01*
G75*
G02*
X224075000Y-131075001I0J249999D01*
G01*
X224075000Y-128924999D01*
G75*
G02*
X224324999Y-128675000I249999J0D01*
G01*
X225050001Y-128675000D01*
G75*
G02*
X225300000Y-128924999I0J-249999D01*
G01*
G37*
%TD*%
%TO.C,R86*%
G36*
G01*
X228700000Y-137075001D02*
X228700000Y-134924999D01*
G75*
G02*
X228949999Y-134675000I249999J0D01*
G01*
X229675001Y-134675000D01*
G75*
G02*
X229925000Y-134924999I0J-249999D01*
G01*
X229925000Y-137075001D01*
G75*
G02*
X229675001Y-137325000I-249999J0D01*
G01*
X228949999Y-137325000D01*
G75*
G02*
X228700000Y-137075001I0J249999D01*
G01*
G37*
G36*
G01*
X224075000Y-137075001D02*
X224075000Y-134924999D01*
G75*
G02*
X224324999Y-134675000I249999J0D01*
G01*
X225050001Y-134675000D01*
G75*
G02*
X225300000Y-134924999I0J-249999D01*
G01*
X225300000Y-137075001D01*
G75*
G02*
X225050001Y-137325000I-249999J0D01*
G01*
X224324999Y-137325000D01*
G75*
G02*
X224075000Y-137075001I0J249999D01*
G01*
G37*
%TD*%
%TO.C,R87*%
G36*
G01*
X229950001Y-140924999D02*
X229950001Y-143075001D01*
G75*
G02*
X229700002Y-143325000I-249999J0D01*
G01*
X228975000Y-143325000D01*
G75*
G02*
X228725001Y-143075001I0J249999D01*
G01*
X228725001Y-140924999D01*
G75*
G02*
X228975000Y-140675000I249999J0D01*
G01*
X229700002Y-140675000D01*
G75*
G02*
X229950001Y-140924999I0J-249999D01*
G01*
G37*
G36*
G01*
X225325001Y-140924999D02*
X225325001Y-143075001D01*
G75*
G02*
X225075002Y-143325000I-249999J0D01*
G01*
X224350000Y-143325000D01*
G75*
G02*
X224100001Y-143075001I0J249999D01*
G01*
X224100001Y-140924999D01*
G75*
G02*
X224350000Y-140675000I249999J0D01*
G01*
X225075002Y-140675000D01*
G75*
G02*
X225325001Y-140924999I0J-249999D01*
G01*
G37*
%TD*%
%TO.C,R88*%
G36*
G01*
X228700000Y-149075001D02*
X228700000Y-146924999D01*
G75*
G02*
X228949999Y-146675000I249999J0D01*
G01*
X229675001Y-146675000D01*
G75*
G02*
X229925000Y-146924999I0J-249999D01*
G01*
X229925000Y-149075001D01*
G75*
G02*
X229675001Y-149325000I-249999J0D01*
G01*
X228949999Y-149325000D01*
G75*
G02*
X228700000Y-149075001I0J249999D01*
G01*
G37*
G36*
G01*
X224075000Y-149075001D02*
X224075000Y-146924999D01*
G75*
G02*
X224324999Y-146675000I249999J0D01*
G01*
X225050001Y-146675000D01*
G75*
G02*
X225300000Y-146924999I0J-249999D01*
G01*
X225300000Y-149075001D01*
G75*
G02*
X225050001Y-149325000I-249999J0D01*
G01*
X224324999Y-149325000D01*
G75*
G02*
X224075000Y-149075001I0J249999D01*
G01*
G37*
%TD*%
%TO.C,R89*%
G36*
G01*
X229925000Y-152924999D02*
X229925000Y-155075001D01*
G75*
G02*
X229675001Y-155325000I-249999J0D01*
G01*
X228949999Y-155325000D01*
G75*
G02*
X228700000Y-155075001I0J249999D01*
G01*
X228700000Y-152924999D01*
G75*
G02*
X228949999Y-152675000I249999J0D01*
G01*
X229675001Y-152675000D01*
G75*
G02*
X229925000Y-152924999I0J-249999D01*
G01*
G37*
G36*
G01*
X225300000Y-152924999D02*
X225300000Y-155075001D01*
G75*
G02*
X225050001Y-155325000I-249999J0D01*
G01*
X224324999Y-155325000D01*
G75*
G02*
X224075000Y-155075001I0J249999D01*
G01*
X224075000Y-152924999D01*
G75*
G02*
X224324999Y-152675000I249999J0D01*
G01*
X225050001Y-152675000D01*
G75*
G02*
X225300000Y-152924999I0J-249999D01*
G01*
G37*
%TD*%
%TO.C,R90*%
G36*
G01*
X228700000Y-161075001D02*
X228700000Y-158924999D01*
G75*
G02*
X228949999Y-158675000I249999J0D01*
G01*
X229675001Y-158675000D01*
G75*
G02*
X229925000Y-158924999I0J-249999D01*
G01*
X229925000Y-161075001D01*
G75*
G02*
X229675001Y-161325000I-249999J0D01*
G01*
X228949999Y-161325000D01*
G75*
G02*
X228700000Y-161075001I0J249999D01*
G01*
G37*
G36*
G01*
X224075000Y-161075001D02*
X224075000Y-158924999D01*
G75*
G02*
X224324999Y-158675000I249999J0D01*
G01*
X225050001Y-158675000D01*
G75*
G02*
X225300000Y-158924999I0J-249999D01*
G01*
X225300000Y-161075001D01*
G75*
G02*
X225050001Y-161325000I-249999J0D01*
G01*
X224324999Y-161325000D01*
G75*
G02*
X224075000Y-161075001I0J249999D01*
G01*
G37*
%TD*%
%TO.C,R91*%
G36*
G01*
X239075000Y-113075001D02*
X239075000Y-110924999D01*
G75*
G02*
X239324999Y-110675000I249999J0D01*
G01*
X240050001Y-110675000D01*
G75*
G02*
X240300000Y-110924999I0J-249999D01*
G01*
X240300000Y-113075001D01*
G75*
G02*
X240050001Y-113325000I-249999J0D01*
G01*
X239324999Y-113325000D01*
G75*
G02*
X239075000Y-113075001I0J249999D01*
G01*
G37*
G36*
G01*
X243700000Y-113075001D02*
X243700000Y-110924999D01*
G75*
G02*
X243949999Y-110675000I249999J0D01*
G01*
X244675001Y-110675000D01*
G75*
G02*
X244925000Y-110924999I0J-249999D01*
G01*
X244925000Y-113075001D01*
G75*
G02*
X244675001Y-113325000I-249999J0D01*
G01*
X243949999Y-113325000D01*
G75*
G02*
X243700000Y-113075001I0J249999D01*
G01*
G37*
%TD*%
%TO.C,R92*%
G36*
G01*
X240300000Y-116924999D02*
X240300000Y-119075001D01*
G75*
G02*
X240050001Y-119325000I-249999J0D01*
G01*
X239324999Y-119325000D01*
G75*
G02*
X239075000Y-119075001I0J249999D01*
G01*
X239075000Y-116924999D01*
G75*
G02*
X239324999Y-116675000I249999J0D01*
G01*
X240050001Y-116675000D01*
G75*
G02*
X240300000Y-116924999I0J-249999D01*
G01*
G37*
G36*
G01*
X244925000Y-116924999D02*
X244925000Y-119075001D01*
G75*
G02*
X244675001Y-119325000I-249999J0D01*
G01*
X243949999Y-119325000D01*
G75*
G02*
X243700000Y-119075001I0J249999D01*
G01*
X243700000Y-116924999D01*
G75*
G02*
X243949999Y-116675000I249999J0D01*
G01*
X244675001Y-116675000D01*
G75*
G02*
X244925000Y-116924999I0J-249999D01*
G01*
G37*
%TD*%
%TO.C,R93*%
G36*
G01*
X239075000Y-125075001D02*
X239075000Y-122924999D01*
G75*
G02*
X239324999Y-122675000I249999J0D01*
G01*
X240050001Y-122675000D01*
G75*
G02*
X240300000Y-122924999I0J-249999D01*
G01*
X240300000Y-125075001D01*
G75*
G02*
X240050001Y-125325000I-249999J0D01*
G01*
X239324999Y-125325000D01*
G75*
G02*
X239075000Y-125075001I0J249999D01*
G01*
G37*
G36*
G01*
X243700000Y-125075001D02*
X243700000Y-122924999D01*
G75*
G02*
X243949999Y-122675000I249999J0D01*
G01*
X244675001Y-122675000D01*
G75*
G02*
X244925000Y-122924999I0J-249999D01*
G01*
X244925000Y-125075001D01*
G75*
G02*
X244675001Y-125325000I-249999J0D01*
G01*
X243949999Y-125325000D01*
G75*
G02*
X243700000Y-125075001I0J249999D01*
G01*
G37*
%TD*%
%TO.C,R94*%
G36*
G01*
X240300000Y-128924999D02*
X240300000Y-131075001D01*
G75*
G02*
X240050001Y-131325000I-249999J0D01*
G01*
X239324999Y-131325000D01*
G75*
G02*
X239075000Y-131075001I0J249999D01*
G01*
X239075000Y-128924999D01*
G75*
G02*
X239324999Y-128675000I249999J0D01*
G01*
X240050001Y-128675000D01*
G75*
G02*
X240300000Y-128924999I0J-249999D01*
G01*
G37*
G36*
G01*
X244925000Y-128924999D02*
X244925000Y-131075001D01*
G75*
G02*
X244675001Y-131325000I-249999J0D01*
G01*
X243949999Y-131325000D01*
G75*
G02*
X243700000Y-131075001I0J249999D01*
G01*
X243700000Y-128924999D01*
G75*
G02*
X243949999Y-128675000I249999J0D01*
G01*
X244675001Y-128675000D01*
G75*
G02*
X244925000Y-128924999I0J-249999D01*
G01*
G37*
%TD*%
%TO.C,R96*%
G36*
G01*
X240300000Y-140924999D02*
X240300000Y-143075001D01*
G75*
G02*
X240050001Y-143325000I-249999J0D01*
G01*
X239324999Y-143325000D01*
G75*
G02*
X239075000Y-143075001I0J249999D01*
G01*
X239075000Y-140924999D01*
G75*
G02*
X239324999Y-140675000I249999J0D01*
G01*
X240050001Y-140675000D01*
G75*
G02*
X240300000Y-140924999I0J-249999D01*
G01*
G37*
G36*
G01*
X244925000Y-140924999D02*
X244925000Y-143075001D01*
G75*
G02*
X244675001Y-143325000I-249999J0D01*
G01*
X243949999Y-143325000D01*
G75*
G02*
X243700000Y-143075001I0J249999D01*
G01*
X243700000Y-140924999D01*
G75*
G02*
X243949999Y-140675000I249999J0D01*
G01*
X244675001Y-140675000D01*
G75*
G02*
X244925000Y-140924999I0J-249999D01*
G01*
G37*
%TD*%
%TO.C,R97*%
G36*
G01*
X239075000Y-149075001D02*
X239075000Y-146924999D01*
G75*
G02*
X239324999Y-146675000I249999J0D01*
G01*
X240050001Y-146675000D01*
G75*
G02*
X240300000Y-146924999I0J-249999D01*
G01*
X240300000Y-149075001D01*
G75*
G02*
X240050001Y-149325000I-249999J0D01*
G01*
X239324999Y-149325000D01*
G75*
G02*
X239075000Y-149075001I0J249999D01*
G01*
G37*
G36*
G01*
X243700000Y-149075001D02*
X243700000Y-146924999D01*
G75*
G02*
X243949999Y-146675000I249999J0D01*
G01*
X244675001Y-146675000D01*
G75*
G02*
X244925000Y-146924999I0J-249999D01*
G01*
X244925000Y-149075001D01*
G75*
G02*
X244675001Y-149325000I-249999J0D01*
G01*
X243949999Y-149325000D01*
G75*
G02*
X243700000Y-149075001I0J249999D01*
G01*
G37*
%TD*%
%TO.C,R98*%
G36*
G01*
X240300000Y-152924999D02*
X240300000Y-155075001D01*
G75*
G02*
X240050001Y-155325000I-249999J0D01*
G01*
X239324999Y-155325000D01*
G75*
G02*
X239075000Y-155075001I0J249999D01*
G01*
X239075000Y-152924999D01*
G75*
G02*
X239324999Y-152675000I249999J0D01*
G01*
X240050001Y-152675000D01*
G75*
G02*
X240300000Y-152924999I0J-249999D01*
G01*
G37*
G36*
G01*
X244925000Y-152924999D02*
X244925000Y-155075001D01*
G75*
G02*
X244675001Y-155325000I-249999J0D01*
G01*
X243949999Y-155325000D01*
G75*
G02*
X243700000Y-155075001I0J249999D01*
G01*
X243700000Y-152924999D01*
G75*
G02*
X243949999Y-152675000I249999J0D01*
G01*
X244675001Y-152675000D01*
G75*
G02*
X244925000Y-152924999I0J-249999D01*
G01*
G37*
%TD*%
%TO.C,R99*%
G36*
G01*
X239075000Y-161075001D02*
X239075000Y-158924999D01*
G75*
G02*
X239324999Y-158675000I249999J0D01*
G01*
X240050001Y-158675000D01*
G75*
G02*
X240300000Y-158924999I0J-249999D01*
G01*
X240300000Y-161075001D01*
G75*
G02*
X240050001Y-161325000I-249999J0D01*
G01*
X239324999Y-161325000D01*
G75*
G02*
X239075000Y-161075001I0J249999D01*
G01*
G37*
G36*
G01*
X243700000Y-161075001D02*
X243700000Y-158924999D01*
G75*
G02*
X243949999Y-158675000I249999J0D01*
G01*
X244675001Y-158675000D01*
G75*
G02*
X244925000Y-158924999I0J-249999D01*
G01*
X244925000Y-161075001D01*
G75*
G02*
X244675001Y-161325000I-249999J0D01*
G01*
X243949999Y-161325000D01*
G75*
G02*
X243700000Y-161075001I0J249999D01*
G01*
G37*
%TD*%
%TO.C,R100*%
G36*
G01*
X255300000Y-110924999D02*
X255300000Y-113075001D01*
G75*
G02*
X255050001Y-113325000I-249999J0D01*
G01*
X254324999Y-113325000D01*
G75*
G02*
X254075000Y-113075001I0J249999D01*
G01*
X254075000Y-110924999D01*
G75*
G02*
X254324999Y-110675000I249999J0D01*
G01*
X255050001Y-110675000D01*
G75*
G02*
X255300000Y-110924999I0J-249999D01*
G01*
G37*
G36*
G01*
X259925000Y-110924999D02*
X259925000Y-113075001D01*
G75*
G02*
X259675001Y-113325000I-249999J0D01*
G01*
X258949999Y-113325000D01*
G75*
G02*
X258700000Y-113075001I0J249999D01*
G01*
X258700000Y-110924999D01*
G75*
G02*
X258949999Y-110675000I249999J0D01*
G01*
X259675001Y-110675000D01*
G75*
G02*
X259925000Y-110924999I0J-249999D01*
G01*
G37*
%TD*%
%TO.C,R101*%
G36*
G01*
X254075000Y-118075001D02*
X254075000Y-115924999D01*
G75*
G02*
X254324999Y-115675000I249999J0D01*
G01*
X255050001Y-115675000D01*
G75*
G02*
X255300000Y-115924999I0J-249999D01*
G01*
X255300000Y-118075001D01*
G75*
G02*
X255050001Y-118325000I-249999J0D01*
G01*
X254324999Y-118325000D01*
G75*
G02*
X254075000Y-118075001I0J249999D01*
G01*
G37*
G36*
G01*
X258700000Y-118075001D02*
X258700000Y-115924999D01*
G75*
G02*
X258949999Y-115675000I249999J0D01*
G01*
X259675001Y-115675000D01*
G75*
G02*
X259925000Y-115924999I0J-249999D01*
G01*
X259925000Y-118075001D01*
G75*
G02*
X259675001Y-118325000I-249999J0D01*
G01*
X258949999Y-118325000D01*
G75*
G02*
X258700000Y-118075001I0J249999D01*
G01*
G37*
%TD*%
%TO.C,R102*%
G36*
G01*
X255300000Y-120924999D02*
X255300000Y-123075001D01*
G75*
G02*
X255050001Y-123325000I-249999J0D01*
G01*
X254324999Y-123325000D01*
G75*
G02*
X254075000Y-123075001I0J249999D01*
G01*
X254075000Y-120924999D01*
G75*
G02*
X254324999Y-120675000I249999J0D01*
G01*
X255050001Y-120675000D01*
G75*
G02*
X255300000Y-120924999I0J-249999D01*
G01*
G37*
G36*
G01*
X259925000Y-120924999D02*
X259925000Y-123075001D01*
G75*
G02*
X259675001Y-123325000I-249999J0D01*
G01*
X258949999Y-123325000D01*
G75*
G02*
X258700000Y-123075001I0J249999D01*
G01*
X258700000Y-120924999D01*
G75*
G02*
X258949999Y-120675000I249999J0D01*
G01*
X259675001Y-120675000D01*
G75*
G02*
X259925000Y-120924999I0J-249999D01*
G01*
G37*
%TD*%
%TO.C,R103*%
G36*
G01*
X254352499Y-125075000D02*
X256502501Y-125075000D01*
G75*
G02*
X256752500Y-125324999I0J-249999D01*
G01*
X256752500Y-126050001D01*
G75*
G02*
X256502501Y-126300000I-249999J0D01*
G01*
X254352499Y-126300000D01*
G75*
G02*
X254102500Y-126050001I0J249999D01*
G01*
X254102500Y-125324999D01*
G75*
G02*
X254352499Y-125075000I249999J0D01*
G01*
G37*
G36*
G01*
X254352499Y-129700000D02*
X256502501Y-129700000D01*
G75*
G02*
X256752500Y-129949999I0J-249999D01*
G01*
X256752500Y-130675001D01*
G75*
G02*
X256502501Y-130925000I-249999J0D01*
G01*
X254352499Y-130925000D01*
G75*
G02*
X254102500Y-130675001I0J249999D01*
G01*
X254102500Y-129949999D01*
G75*
G02*
X254352499Y-129700000I249999J0D01*
G01*
G37*
%TD*%
%TO.C,R104*%
G36*
G01*
X254352499Y-137700000D02*
X256502501Y-137700000D01*
G75*
G02*
X256752500Y-137949999I0J-249999D01*
G01*
X256752500Y-138675001D01*
G75*
G02*
X256502501Y-138925000I-249999J0D01*
G01*
X254352499Y-138925000D01*
G75*
G02*
X254102500Y-138675001I0J249999D01*
G01*
X254102500Y-137949999D01*
G75*
G02*
X254352499Y-137700000I249999J0D01*
G01*
G37*
G36*
G01*
X254352499Y-133075000D02*
X256502501Y-133075000D01*
G75*
G02*
X256752500Y-133324999I0J-249999D01*
G01*
X256752500Y-134050001D01*
G75*
G02*
X256502501Y-134300000I-249999J0D01*
G01*
X254352499Y-134300000D01*
G75*
G02*
X254102500Y-134050001I0J249999D01*
G01*
X254102500Y-133324999D01*
G75*
G02*
X254352499Y-133075000I249999J0D01*
G01*
G37*
%TD*%
%TO.C,R105*%
G36*
G01*
X254352499Y-141075000D02*
X256502501Y-141075000D01*
G75*
G02*
X256752500Y-141324999I0J-249999D01*
G01*
X256752500Y-142050001D01*
G75*
G02*
X256502501Y-142300000I-249999J0D01*
G01*
X254352499Y-142300000D01*
G75*
G02*
X254102500Y-142050001I0J249999D01*
G01*
X254102500Y-141324999D01*
G75*
G02*
X254352499Y-141075000I249999J0D01*
G01*
G37*
G36*
G01*
X254352499Y-145700000D02*
X256502501Y-145700000D01*
G75*
G02*
X256752500Y-145949999I0J-249999D01*
G01*
X256752500Y-146675001D01*
G75*
G02*
X256502501Y-146925000I-249999J0D01*
G01*
X254352499Y-146925000D01*
G75*
G02*
X254102500Y-146675001I0J249999D01*
G01*
X254102500Y-145949999D01*
G75*
G02*
X254352499Y-145700000I249999J0D01*
G01*
G37*
%TD*%
%TO.C,R106*%
G36*
G01*
X258700000Y-151075001D02*
X258700000Y-148924999D01*
G75*
G02*
X258949999Y-148675000I249999J0D01*
G01*
X259675001Y-148675000D01*
G75*
G02*
X259925000Y-148924999I0J-249999D01*
G01*
X259925000Y-151075001D01*
G75*
G02*
X259675001Y-151325000I-249999J0D01*
G01*
X258949999Y-151325000D01*
G75*
G02*
X258700000Y-151075001I0J249999D01*
G01*
G37*
G36*
G01*
X254075000Y-151075001D02*
X254075000Y-148924999D01*
G75*
G02*
X254324999Y-148675000I249999J0D01*
G01*
X255050001Y-148675000D01*
G75*
G02*
X255300000Y-148924999I0J-249999D01*
G01*
X255300000Y-151075001D01*
G75*
G02*
X255050001Y-151325000I-249999J0D01*
G01*
X254324999Y-151325000D01*
G75*
G02*
X254075000Y-151075001I0J249999D01*
G01*
G37*
%TD*%
%TO.C,R107*%
G36*
G01*
X259925000Y-153924999D02*
X259925000Y-156075001D01*
G75*
G02*
X259675001Y-156325000I-249999J0D01*
G01*
X258949999Y-156325000D01*
G75*
G02*
X258700000Y-156075001I0J249999D01*
G01*
X258700000Y-153924999D01*
G75*
G02*
X258949999Y-153675000I249999J0D01*
G01*
X259675001Y-153675000D01*
G75*
G02*
X259925000Y-153924999I0J-249999D01*
G01*
G37*
G36*
G01*
X255300000Y-153924999D02*
X255300000Y-156075001D01*
G75*
G02*
X255050001Y-156325000I-249999J0D01*
G01*
X254324999Y-156325000D01*
G75*
G02*
X254075000Y-156075001I0J249999D01*
G01*
X254075000Y-153924999D01*
G75*
G02*
X254324999Y-153675000I249999J0D01*
G01*
X255050001Y-153675000D01*
G75*
G02*
X255300000Y-153924999I0J-249999D01*
G01*
G37*
%TD*%
%TO.C,R108*%
G36*
G01*
X258700000Y-161075001D02*
X258700000Y-158924999D01*
G75*
G02*
X258949999Y-158675000I249999J0D01*
G01*
X259675001Y-158675000D01*
G75*
G02*
X259925000Y-158924999I0J-249999D01*
G01*
X259925000Y-161075001D01*
G75*
G02*
X259675001Y-161325000I-249999J0D01*
G01*
X258949999Y-161325000D01*
G75*
G02*
X258700000Y-161075001I0J249999D01*
G01*
G37*
G36*
G01*
X254075000Y-161075001D02*
X254075000Y-158924999D01*
G75*
G02*
X254324999Y-158675000I249999J0D01*
G01*
X255050001Y-158675000D01*
G75*
G02*
X255300000Y-158924999I0J-249999D01*
G01*
X255300000Y-161075001D01*
G75*
G02*
X255050001Y-161325000I-249999J0D01*
G01*
X254324999Y-161325000D01*
G75*
G02*
X254075000Y-161075001I0J249999D01*
G01*
G37*
%TD*%
%TO.C,R109*%
G36*
G01*
X299700001Y-82425000D02*
X298799999Y-82425000D01*
G75*
G02*
X298550000Y-82175001I0J249999D01*
G01*
X298550000Y-81649999D01*
G75*
G02*
X298799999Y-81400000I249999J0D01*
G01*
X299700001Y-81400000D01*
G75*
G02*
X299950000Y-81649999I0J-249999D01*
G01*
X299950000Y-82175001D01*
G75*
G02*
X299700001Y-82425000I-249999J0D01*
G01*
G37*
G36*
G01*
X299700001Y-80600000D02*
X298799999Y-80600000D01*
G75*
G02*
X298550000Y-80350001I0J249999D01*
G01*
X298550000Y-79824999D01*
G75*
G02*
X298799999Y-79575000I249999J0D01*
G01*
X299700001Y-79575000D01*
G75*
G02*
X299950000Y-79824999I0J-249999D01*
G01*
X299950000Y-80350001D01*
G75*
G02*
X299700001Y-80600000I-249999J0D01*
G01*
G37*
%TD*%
%TO.C,R110*%
G36*
G01*
X302200001Y-80600000D02*
X301299999Y-80600000D01*
G75*
G02*
X301050000Y-80350001I0J249999D01*
G01*
X301050000Y-79824999D01*
G75*
G02*
X301299999Y-79575000I249999J0D01*
G01*
X302200001Y-79575000D01*
G75*
G02*
X302450000Y-79824999I0J-249999D01*
G01*
X302450000Y-80350001D01*
G75*
G02*
X302200001Y-80600000I-249999J0D01*
G01*
G37*
G36*
G01*
X302200001Y-82425000D02*
X301299999Y-82425000D01*
G75*
G02*
X301050000Y-82175001I0J249999D01*
G01*
X301050000Y-81649999D01*
G75*
G02*
X301299999Y-81400000I249999J0D01*
G01*
X302200001Y-81400000D01*
G75*
G02*
X302450000Y-81649999I0J-249999D01*
G01*
X302450000Y-82175001D01*
G75*
G02*
X302200001Y-82425000I-249999J0D01*
G01*
G37*
%TD*%
%TO.C,U1*%
G36*
G01*
X309592500Y-79525000D02*
X309867500Y-79525000D01*
G75*
G02*
X310005000Y-79662500I0J-137500D01*
G01*
X310005000Y-80837500D01*
G75*
G02*
X309867500Y-80975000I-137500J0D01*
G01*
X309592500Y-80975000D01*
G75*
G02*
X309455000Y-80837500I0J137500D01*
G01*
X309455000Y-79662500D01*
G75*
G02*
X309592500Y-79525000I137500J0D01*
G01*
G37*
G36*
G01*
X312132500Y-79525000D02*
X312407500Y-79525000D01*
G75*
G02*
X312545000Y-79662500I0J-137500D01*
G01*
X312545000Y-80837500D01*
G75*
G02*
X312407500Y-80975000I-137500J0D01*
G01*
X312132500Y-80975000D01*
G75*
G02*
X311995000Y-80837500I0J137500D01*
G01*
X311995000Y-79662500D01*
G75*
G02*
X312132500Y-79525000I137500J0D01*
G01*
G37*
G36*
G01*
X312132500Y-85025000D02*
X312407500Y-85025000D01*
G75*
G02*
X312545000Y-85162500I0J-137500D01*
G01*
X312545000Y-86337500D01*
G75*
G02*
X312407500Y-86475000I-137500J0D01*
G01*
X312132500Y-86475000D01*
G75*
G02*
X311995000Y-86337500I0J137500D01*
G01*
X311995000Y-85162500D01*
G75*
G02*
X312132500Y-85025000I137500J0D01*
G01*
G37*
G36*
G01*
X309592500Y-85025000D02*
X309867500Y-85025000D01*
G75*
G02*
X310005000Y-85162500I0J-137500D01*
G01*
X310005000Y-86337500D01*
G75*
G02*
X309867500Y-86475000I-137500J0D01*
G01*
X309592500Y-86475000D01*
G75*
G02*
X309455000Y-86337500I0J137500D01*
G01*
X309455000Y-85162500D01*
G75*
G02*
X309592500Y-85025000I137500J0D01*
G01*
G37*
%TD*%
%TO.C,D1*%
G36*
G01*
X306543750Y-79575000D02*
X307456250Y-79575000D01*
G75*
G02*
X307700000Y-79818750I0J-243750D01*
G01*
X307700000Y-80306250D01*
G75*
G02*
X307456250Y-80550000I-243750J0D01*
G01*
X306543750Y-80550000D01*
G75*
G02*
X306300000Y-80306250I0J243750D01*
G01*
X306300000Y-79818750D01*
G75*
G02*
X306543750Y-79575000I243750J0D01*
G01*
G37*
G36*
G01*
X306543750Y-81450000D02*
X307456250Y-81450000D01*
G75*
G02*
X307700000Y-81693750I0J-243750D01*
G01*
X307700000Y-82181250D01*
G75*
G02*
X307456250Y-82425000I-243750J0D01*
G01*
X306543750Y-82425000D01*
G75*
G02*
X306300000Y-82181250I0J243750D01*
G01*
X306300000Y-81693750D01*
G75*
G02*
X306543750Y-81450000I243750J0D01*
G01*
G37*
%TD*%
D10*
%TO.C,F1*%
X290500000Y-92500000D03*
X290500000Y-115000000D03*
D11*
X290500000Y-103750000D03*
%TD*%
%TO.C,J3*%
G36*
G01*
X300550000Y-99900000D02*
X297450000Y-99900000D01*
G75*
G02*
X297200000Y-99650000I0J250000D01*
G01*
X297200000Y-98350000D01*
G75*
G02*
X297450000Y-98100000I250000J0D01*
G01*
X300550000Y-98100000D01*
G75*
G02*
X300800000Y-98350000I0J-250000D01*
G01*
X300800000Y-99650000D01*
G75*
G02*
X300550000Y-99900000I-250000J0D01*
G01*
G37*
D12*
X299000000Y-95500000D03*
X299000000Y-92000000D03*
%TD*%
%TO.C,J4*%
X299000000Y-109500000D03*
X299000000Y-113000000D03*
G36*
G01*
X300550000Y-117400000D02*
X297450000Y-117400000D01*
G75*
G02*
X297200000Y-117150000I0J250000D01*
G01*
X297200000Y-115850000D01*
G75*
G02*
X297450000Y-115600000I250000J0D01*
G01*
X300550000Y-115600000D01*
G75*
G02*
X300800000Y-115850000I0J-250000D01*
G01*
X300800000Y-117150000D01*
G75*
G02*
X300550000Y-117400000I-250000J0D01*
G01*
G37*
%TD*%
D13*
%TO.C,Q1*%
X280550000Y-114470000D03*
X269500000Y-116500000D03*
X280550000Y-119030000D03*
D14*
X274250000Y-116750000D03*
%TD*%
%TO.C,R111*%
G36*
G01*
X308475000Y-89625001D02*
X308475000Y-88374999D01*
G75*
G02*
X308724999Y-88125000I249999J0D01*
G01*
X309350001Y-88125000D01*
G75*
G02*
X309600000Y-88374999I0J-249999D01*
G01*
X309600000Y-89625001D01*
G75*
G02*
X309350001Y-89875000I-249999J0D01*
G01*
X308724999Y-89875000D01*
G75*
G02*
X308475000Y-89625001I0J249999D01*
G01*
G37*
G36*
G01*
X311400000Y-89625001D02*
X311400000Y-88374999D01*
G75*
G02*
X311649999Y-88125000I249999J0D01*
G01*
X312275001Y-88125000D01*
G75*
G02*
X312525000Y-88374999I0J-249999D01*
G01*
X312525000Y-89625001D01*
G75*
G02*
X312275001Y-89875000I-249999J0D01*
G01*
X311649999Y-89875000D01*
G75*
G02*
X311400000Y-89625001I0J249999D01*
G01*
G37*
%TD*%
%TO.C,R112*%
G36*
G01*
X303799999Y-79575000D02*
X304700001Y-79575000D01*
G75*
G02*
X304950000Y-79824999I0J-249999D01*
G01*
X304950000Y-80350001D01*
G75*
G02*
X304700001Y-80600000I-249999J0D01*
G01*
X303799999Y-80600000D01*
G75*
G02*
X303550000Y-80350001I0J249999D01*
G01*
X303550000Y-79824999D01*
G75*
G02*
X303799999Y-79575000I249999J0D01*
G01*
G37*
G36*
G01*
X303799999Y-81400000D02*
X304700001Y-81400000D01*
G75*
G02*
X304950000Y-81649999I0J-249999D01*
G01*
X304950000Y-82175001D01*
G75*
G02*
X304700001Y-82425000I-249999J0D01*
G01*
X303799999Y-82425000D01*
G75*
G02*
X303550000Y-82175001I0J249999D01*
G01*
X303550000Y-81649999D01*
G75*
G02*
X303799999Y-81400000I249999J0D01*
G01*
G37*
%TD*%
D15*
%TO.C,J1*%
X294500000Y-86500000D03*
D16*
X297040000Y-86500000D03*
%TD*%
%TO.C,J2*%
G36*
G01*
X300550000Y-106900000D02*
X297450000Y-106900000D01*
G75*
G02*
X297200000Y-106650000I0J250000D01*
G01*
X297200000Y-105350000D01*
G75*
G02*
X297450000Y-105100000I250000J0D01*
G01*
X300550000Y-105100000D01*
G75*
G02*
X300800000Y-105350000I0J-250000D01*
G01*
X300800000Y-106650000D01*
G75*
G02*
X300550000Y-106900000I-250000J0D01*
G01*
G37*
D12*
X299000000Y-102500000D03*
%TD*%
M02*
