%TF.GenerationSoftware,KiCad,Pcbnew,(5.1.9-0-10_14)*%
%TF.CreationDate,2022-08-31T22:56:09-04:00*%
%TF.ProjectId,47AhFoMoCo,34374168-466f-44d6-9f43-6f2e6b696361,rev?*%
%TF.SameCoordinates,Original*%
%TF.FileFunction,Legend,Top*%
%TF.FilePolarity,Positive*%
%FSLAX46Y46*%
G04 Gerber Fmt 4.6, Leading zero omitted, Abs format (unit mm)*
G04 Created by KiCad (PCBNEW (5.1.9-0-10_14)) date 2022-08-31 22:56:09*
%MOMM*%
%LPD*%
G01*
G04 APERTURE LIST*
%ADD10C,0.300000*%
%ADD11C,0.500000*%
%ADD12C,0.150000*%
%ADD13C,0.010000*%
G04 APERTURE END LIST*
D10*
X329628571Y-130750000D02*
X328128571Y-130750000D01*
X328842857Y-129535714D02*
X328842857Y-130035714D01*
X329628571Y-130035714D02*
X328128571Y-130035714D01*
X328128571Y-129321428D01*
X328128571Y-127821428D02*
X328128571Y-126964285D01*
X329628571Y-127392857D02*
X328128571Y-127392857D01*
X329628571Y-126464285D02*
X328128571Y-126464285D01*
X328842857Y-126464285D02*
X328842857Y-125607142D01*
X329628571Y-125607142D02*
X328128571Y-125607142D01*
X329628571Y-124892857D02*
X328128571Y-124892857D01*
X329557142Y-124250000D02*
X329628571Y-124035714D01*
X329628571Y-123678571D01*
X329557142Y-123535714D01*
X329485714Y-123464285D01*
X329342857Y-123392857D01*
X329200000Y-123392857D01*
X329057142Y-123464285D01*
X328985714Y-123535714D01*
X328914285Y-123678571D01*
X328842857Y-123964285D01*
X328771428Y-124107142D01*
X328700000Y-124178571D01*
X328557142Y-124250000D01*
X328414285Y-124250000D01*
X328271428Y-124178571D01*
X328200000Y-124107142D01*
X328128571Y-123964285D01*
X328128571Y-123607142D01*
X328200000Y-123392857D01*
X329485714Y-120750000D02*
X329557142Y-120821428D01*
X329628571Y-121035714D01*
X329628571Y-121178571D01*
X329557142Y-121392857D01*
X329414285Y-121535714D01*
X329271428Y-121607142D01*
X328985714Y-121678571D01*
X328771428Y-121678571D01*
X328485714Y-121607142D01*
X328342857Y-121535714D01*
X328200000Y-121392857D01*
X328128571Y-121178571D01*
X328128571Y-121035714D01*
X328200000Y-120821428D01*
X328271428Y-120750000D01*
X328128571Y-119821428D02*
X328128571Y-119535714D01*
X328200000Y-119392857D01*
X328342857Y-119250000D01*
X328628571Y-119178571D01*
X329128571Y-119178571D01*
X329414285Y-119250000D01*
X329557142Y-119392857D01*
X329628571Y-119535714D01*
X329628571Y-119821428D01*
X329557142Y-119964285D01*
X329414285Y-120107142D01*
X329128571Y-120178571D01*
X328628571Y-120178571D01*
X328342857Y-120107142D01*
X328200000Y-119964285D01*
X328128571Y-119821428D01*
X329628571Y-118535714D02*
X328128571Y-118535714D01*
X329628571Y-117678571D01*
X328128571Y-117678571D01*
X329628571Y-116964285D02*
X328128571Y-116964285D01*
X329628571Y-116107142D01*
X328128571Y-116107142D01*
X328842857Y-115392857D02*
X328842857Y-114892857D01*
X329628571Y-114678571D02*
X329628571Y-115392857D01*
X328128571Y-115392857D01*
X328128571Y-114678571D01*
X329485714Y-113178571D02*
X329557142Y-113250000D01*
X329628571Y-113464285D01*
X329628571Y-113607142D01*
X329557142Y-113821428D01*
X329414285Y-113964285D01*
X329271428Y-114035714D01*
X328985714Y-114107142D01*
X328771428Y-114107142D01*
X328485714Y-114035714D01*
X328342857Y-113964285D01*
X328200000Y-113821428D01*
X328128571Y-113607142D01*
X328128571Y-113464285D01*
X328200000Y-113250000D01*
X328271428Y-113178571D01*
X328128571Y-112750000D02*
X328128571Y-111892857D01*
X329628571Y-112321428D02*
X328128571Y-112321428D01*
X328128571Y-111107142D02*
X328128571Y-110821428D01*
X328200000Y-110678571D01*
X328342857Y-110535714D01*
X328628571Y-110464285D01*
X329128571Y-110464285D01*
X329414285Y-110535714D01*
X329557142Y-110678571D01*
X329628571Y-110821428D01*
X329628571Y-111107142D01*
X329557142Y-111250000D01*
X329414285Y-111392857D01*
X329128571Y-111464285D01*
X328628571Y-111464285D01*
X328342857Y-111392857D01*
X328200000Y-111250000D01*
X328128571Y-111107142D01*
X329628571Y-108964285D02*
X328914285Y-109464285D01*
X329628571Y-109821428D02*
X328128571Y-109821428D01*
X328128571Y-109250000D01*
X328200000Y-109107142D01*
X328271428Y-109035714D01*
X328414285Y-108964285D01*
X328628571Y-108964285D01*
X328771428Y-109035714D01*
X328842857Y-109107142D01*
X328914285Y-109250000D01*
X328914285Y-109821428D01*
X329628571Y-107178571D02*
X328128571Y-107178571D01*
X329557142Y-106535714D02*
X329628571Y-106321428D01*
X329628571Y-105964285D01*
X329557142Y-105821428D01*
X329485714Y-105750000D01*
X329342857Y-105678571D01*
X329200000Y-105678571D01*
X329057142Y-105750000D01*
X328985714Y-105821428D01*
X328914285Y-105964285D01*
X328842857Y-106250000D01*
X328771428Y-106392857D01*
X328700000Y-106464285D01*
X328557142Y-106535714D01*
X328414285Y-106535714D01*
X328271428Y-106464285D01*
X328200000Y-106392857D01*
X328128571Y-106250000D01*
X328128571Y-105892857D01*
X328200000Y-105678571D01*
X332178571Y-130964285D02*
X330678571Y-130964285D01*
X330678571Y-130392857D01*
X330750000Y-130250000D01*
X330821428Y-130178571D01*
X330964285Y-130107142D01*
X331178571Y-130107142D01*
X331321428Y-130178571D01*
X331392857Y-130250000D01*
X331464285Y-130392857D01*
X331464285Y-130964285D01*
X330678571Y-129178571D02*
X330678571Y-128892857D01*
X330750000Y-128750000D01*
X330892857Y-128607142D01*
X331178571Y-128535714D01*
X331678571Y-128535714D01*
X331964285Y-128607142D01*
X332107142Y-128750000D01*
X332178571Y-128892857D01*
X332178571Y-129178571D01*
X332107142Y-129321428D01*
X331964285Y-129464285D01*
X331678571Y-129535714D01*
X331178571Y-129535714D01*
X330892857Y-129464285D01*
X330750000Y-129321428D01*
X330678571Y-129178571D01*
X332178571Y-127892857D02*
X330678571Y-127892857D01*
X330678571Y-127321428D01*
X330750000Y-127178571D01*
X330821428Y-127107142D01*
X330964285Y-127035714D01*
X331178571Y-127035714D01*
X331321428Y-127107142D01*
X331392857Y-127178571D01*
X331464285Y-127321428D01*
X331464285Y-127892857D01*
X330678571Y-126392857D02*
X331892857Y-126392857D01*
X332035714Y-126321428D01*
X332107142Y-126250000D01*
X332178571Y-126107142D01*
X332178571Y-125821428D01*
X332107142Y-125678571D01*
X332035714Y-125607142D01*
X331892857Y-125535714D01*
X330678571Y-125535714D01*
X332178571Y-124107142D02*
X332178571Y-124821428D01*
X330678571Y-124821428D01*
X331750000Y-123678571D02*
X331750000Y-122964285D01*
X332178571Y-123821428D02*
X330678571Y-123321428D01*
X332178571Y-122821428D01*
X330678571Y-122535714D02*
X330678571Y-121678571D01*
X332178571Y-122107142D02*
X330678571Y-122107142D01*
X331392857Y-121178571D02*
X331392857Y-120678571D01*
X332178571Y-120464285D02*
X332178571Y-121178571D01*
X330678571Y-121178571D01*
X330678571Y-120464285D01*
X332178571Y-119821428D02*
X330678571Y-119821428D01*
X330678571Y-119464285D01*
X330750000Y-119250000D01*
X330892857Y-119107142D01*
X331035714Y-119035714D01*
X331321428Y-118964285D01*
X331535714Y-118964285D01*
X331821428Y-119035714D01*
X331964285Y-119107142D01*
X332107142Y-119250000D01*
X332178571Y-119464285D01*
X332178571Y-119821428D01*
X332107142Y-118250000D02*
X332178571Y-118250000D01*
X332321428Y-118321428D01*
X332392857Y-118392857D01*
X330678571Y-116678571D02*
X330678571Y-115821428D01*
X332178571Y-116250000D02*
X330678571Y-116250000D01*
X332178571Y-115321428D02*
X330678571Y-115321428D01*
X331392857Y-115321428D02*
X331392857Y-114464285D01*
X332178571Y-114464285D02*
X330678571Y-114464285D01*
X331392857Y-113750000D02*
X331392857Y-113250000D01*
X332178571Y-113035714D02*
X332178571Y-113750000D01*
X330678571Y-113750000D01*
X330678571Y-113035714D01*
X332178571Y-112392857D02*
X330678571Y-112392857D01*
X332178571Y-111535714D01*
X330678571Y-111535714D01*
X330678571Y-109892857D02*
X330678571Y-109035714D01*
X332178571Y-109464285D02*
X330678571Y-109464285D01*
X332178571Y-108535714D02*
X330678571Y-108535714D01*
X331392857Y-108535714D02*
X331392857Y-107678571D01*
X332178571Y-107678571D02*
X330678571Y-107678571D01*
X332178571Y-106964285D02*
X330678571Y-106964285D01*
X332107142Y-106321428D02*
X332178571Y-106107142D01*
X332178571Y-105750000D01*
X332107142Y-105607142D01*
X332035714Y-105535714D01*
X331892857Y-105464285D01*
X331750000Y-105464285D01*
X331607142Y-105535714D01*
X331535714Y-105607142D01*
X331464285Y-105750000D01*
X331392857Y-106035714D01*
X331321428Y-106178571D01*
X331250000Y-106250000D01*
X331107142Y-106321428D01*
X330964285Y-106321428D01*
X330821428Y-106250000D01*
X330750000Y-106178571D01*
X330678571Y-106035714D01*
X330678571Y-105678571D01*
X330750000Y-105464285D01*
X334728571Y-132250000D02*
X333228571Y-132250000D01*
X333228571Y-131678571D01*
X333300000Y-131535714D01*
X333371428Y-131464285D01*
X333514285Y-131392857D01*
X333728571Y-131392857D01*
X333871428Y-131464285D01*
X333942857Y-131535714D01*
X334014285Y-131678571D01*
X334014285Y-132250000D01*
X334585714Y-129892857D02*
X334657142Y-129964285D01*
X334728571Y-130178571D01*
X334728571Y-130321428D01*
X334657142Y-130535714D01*
X334514285Y-130678571D01*
X334371428Y-130750000D01*
X334085714Y-130821428D01*
X333871428Y-130821428D01*
X333585714Y-130750000D01*
X333442857Y-130678571D01*
X333300000Y-130535714D01*
X333228571Y-130321428D01*
X333228571Y-130178571D01*
X333300000Y-129964285D01*
X333371428Y-129892857D01*
X333942857Y-128750000D02*
X334014285Y-128535714D01*
X334085714Y-128464285D01*
X334228571Y-128392857D01*
X334442857Y-128392857D01*
X334585714Y-128464285D01*
X334657142Y-128535714D01*
X334728571Y-128678571D01*
X334728571Y-129250000D01*
X333228571Y-129250000D01*
X333228571Y-128750000D01*
X333300000Y-128607142D01*
X333371428Y-128535714D01*
X333514285Y-128464285D01*
X333657142Y-128464285D01*
X333800000Y-128535714D01*
X333871428Y-128607142D01*
X333942857Y-128750000D01*
X333942857Y-129250000D01*
X334728571Y-126607142D02*
X333228571Y-126607142D01*
X334657142Y-125964285D02*
X334728571Y-125750000D01*
X334728571Y-125392857D01*
X334657142Y-125250000D01*
X334585714Y-125178571D01*
X334442857Y-125107142D01*
X334300000Y-125107142D01*
X334157142Y-125178571D01*
X334085714Y-125250000D01*
X334014285Y-125392857D01*
X333942857Y-125678571D01*
X333871428Y-125821428D01*
X333800000Y-125892857D01*
X333657142Y-125964285D01*
X333514285Y-125964285D01*
X333371428Y-125892857D01*
X333300000Y-125821428D01*
X333228571Y-125678571D01*
X333228571Y-125321428D01*
X333300000Y-125107142D01*
X333942857Y-122821428D02*
X333942857Y-123321428D01*
X334728571Y-123321428D02*
X333228571Y-123321428D01*
X333228571Y-122607142D01*
X333228571Y-121750000D02*
X333228571Y-121464285D01*
X333300000Y-121321428D01*
X333442857Y-121178571D01*
X333728571Y-121107142D01*
X334228571Y-121107142D01*
X334514285Y-121178571D01*
X334657142Y-121321428D01*
X334728571Y-121464285D01*
X334728571Y-121750000D01*
X334657142Y-121892857D01*
X334514285Y-122035714D01*
X334228571Y-122107142D01*
X333728571Y-122107142D01*
X333442857Y-122035714D01*
X333300000Y-121892857D01*
X333228571Y-121750000D01*
X334728571Y-119607142D02*
X334014285Y-120107142D01*
X334728571Y-120464285D02*
X333228571Y-120464285D01*
X333228571Y-119892857D01*
X333300000Y-119750000D01*
X333371428Y-119678571D01*
X333514285Y-119607142D01*
X333728571Y-119607142D01*
X333871428Y-119678571D01*
X333942857Y-119750000D01*
X334014285Y-119892857D01*
X334014285Y-120464285D01*
X334585714Y-116964285D02*
X334657142Y-117035714D01*
X334728571Y-117250000D01*
X334728571Y-117392857D01*
X334657142Y-117607142D01*
X334514285Y-117750000D01*
X334371428Y-117821428D01*
X334085714Y-117892857D01*
X333871428Y-117892857D01*
X333585714Y-117821428D01*
X333442857Y-117750000D01*
X333300000Y-117607142D01*
X333228571Y-117392857D01*
X333228571Y-117250000D01*
X333300000Y-117035714D01*
X333371428Y-116964285D01*
X333942857Y-116321428D02*
X333942857Y-115821428D01*
X334728571Y-115607142D02*
X334728571Y-116321428D01*
X333228571Y-116321428D01*
X333228571Y-115607142D01*
X334728571Y-114250000D02*
X334728571Y-114964285D01*
X333228571Y-114964285D01*
X334728571Y-113035714D02*
X334728571Y-113750000D01*
X333228571Y-113750000D01*
X334657142Y-112607142D02*
X334728571Y-112392857D01*
X334728571Y-112035714D01*
X334657142Y-111892857D01*
X334585714Y-111821428D01*
X334442857Y-111750000D01*
X334300000Y-111750000D01*
X334157142Y-111821428D01*
X334085714Y-111892857D01*
X334014285Y-112035714D01*
X333942857Y-112321428D01*
X333871428Y-112464285D01*
X333800000Y-112535714D01*
X333657142Y-112607142D01*
X333514285Y-112607142D01*
X333371428Y-112535714D01*
X333300000Y-112464285D01*
X333228571Y-112321428D01*
X333228571Y-111964285D01*
X333300000Y-111750000D01*
X334728571Y-109178571D02*
X334728571Y-110035714D01*
X334728571Y-109607142D02*
X333228571Y-109607142D01*
X333442857Y-109750000D01*
X333585714Y-109892857D01*
X333657142Y-110035714D01*
X333228571Y-108678571D02*
X333228571Y-107750000D01*
X333800000Y-108250000D01*
X333800000Y-108035714D01*
X333871428Y-107892857D01*
X333942857Y-107821428D01*
X334085714Y-107750000D01*
X334442857Y-107750000D01*
X334585714Y-107821428D01*
X334657142Y-107892857D01*
X334728571Y-108035714D01*
X334728571Y-108464285D01*
X334657142Y-108607142D01*
X334585714Y-108678571D01*
X334585714Y-107107142D02*
X334657142Y-107035714D01*
X334728571Y-107107142D01*
X334657142Y-107178571D01*
X334585714Y-107107142D01*
X334728571Y-107107142D01*
X333800000Y-107107142D02*
X333871428Y-107035714D01*
X333942857Y-107107142D01*
X333871428Y-107178571D01*
X333800000Y-107107142D01*
X333942857Y-107107142D01*
X333371428Y-106464285D02*
X333300000Y-106392857D01*
X333228571Y-106250000D01*
X333228571Y-105892857D01*
X333300000Y-105750000D01*
X333371428Y-105678571D01*
X333514285Y-105607142D01*
X333657142Y-105607142D01*
X333871428Y-105678571D01*
X334728571Y-106535714D01*
X334728571Y-105607142D01*
X333728571Y-104321428D02*
X334728571Y-104321428D01*
X333157142Y-104678571D02*
X334228571Y-105035714D01*
X334228571Y-104107142D01*
D11*
X176071428Y-92357142D02*
X177785714Y-92357142D01*
X176928571Y-95357142D02*
X176928571Y-92357142D01*
X178785714Y-95357142D02*
X178785714Y-92357142D01*
X178785714Y-93785714D02*
X180499999Y-93785714D01*
X180499999Y-95357142D02*
X180499999Y-92357142D01*
X181928571Y-95357142D02*
X181928571Y-92357142D01*
X183214285Y-95214285D02*
X183642857Y-95357142D01*
X184357142Y-95357142D01*
X184642857Y-95214285D01*
X184785714Y-95071428D01*
X184928571Y-94785714D01*
X184928571Y-94500000D01*
X184785714Y-94214285D01*
X184642857Y-94071428D01*
X184357142Y-93928571D01*
X183785714Y-93785714D01*
X183499999Y-93642857D01*
X183357142Y-93500000D01*
X183214285Y-93214285D01*
X183214285Y-92928571D01*
X183357142Y-92642857D01*
X183499999Y-92500000D01*
X183785714Y-92357142D01*
X184499999Y-92357142D01*
X184928571Y-92500000D01*
X188357142Y-95214285D02*
X188785714Y-95357142D01*
X189499999Y-95357142D01*
X189785714Y-95214285D01*
X189928571Y-95071428D01*
X190071428Y-94785714D01*
X190071428Y-94500000D01*
X189928571Y-94214285D01*
X189785714Y-94071428D01*
X189499999Y-93928571D01*
X188928571Y-93785714D01*
X188642857Y-93642857D01*
X188499999Y-93500000D01*
X188357142Y-93214285D01*
X188357142Y-92928571D01*
X188499999Y-92642857D01*
X188642857Y-92500000D01*
X188928571Y-92357142D01*
X189642857Y-92357142D01*
X190071428Y-92500000D01*
X191357142Y-95357142D02*
X191357142Y-92357142D01*
X192785714Y-95357142D02*
X192785714Y-92357142D01*
X193499999Y-92357142D01*
X193928571Y-92500000D01*
X194214285Y-92785714D01*
X194357142Y-93071428D01*
X194499999Y-93642857D01*
X194499999Y-94071428D01*
X194357142Y-94642857D01*
X194214285Y-94928571D01*
X193928571Y-95214285D01*
X193499999Y-95357142D01*
X192785714Y-95357142D01*
X195785714Y-93785714D02*
X196785714Y-93785714D01*
X197214285Y-95357142D02*
X195785714Y-95357142D01*
X195785714Y-92357142D01*
X197214285Y-92357142D01*
X200642857Y-94500000D02*
X202071428Y-94500000D01*
X200357142Y-95357142D02*
X201357142Y-92357142D01*
X202357142Y-95357142D01*
X203071428Y-92357142D02*
X203785714Y-95357142D01*
X204357142Y-93214285D01*
X204928571Y-95357142D01*
X205642857Y-92357142D01*
X206642857Y-94500000D02*
X208071428Y-94500000D01*
X206357142Y-95357142D02*
X207357142Y-92357142D01*
X208357142Y-95357142D01*
X209928571Y-93928571D02*
X209928571Y-95357142D01*
X208928571Y-92357142D02*
X209928571Y-93928571D01*
X210928571Y-92357142D01*
X181285714Y-98785714D02*
X180285714Y-98785714D01*
X180285714Y-100357142D02*
X180285714Y-97357142D01*
X181714285Y-97357142D01*
X184571428Y-100357142D02*
X183571428Y-98928571D01*
X182857142Y-100357142D02*
X182857142Y-97357142D01*
X184000000Y-97357142D01*
X184285714Y-97500000D01*
X184428571Y-97642857D01*
X184571428Y-97928571D01*
X184571428Y-98357142D01*
X184428571Y-98642857D01*
X184285714Y-98785714D01*
X184000000Y-98928571D01*
X182857142Y-98928571D01*
X186428571Y-97357142D02*
X187000000Y-97357142D01*
X187285714Y-97500000D01*
X187571428Y-97785714D01*
X187714285Y-98357142D01*
X187714285Y-99357142D01*
X187571428Y-99928571D01*
X187285714Y-100214285D01*
X187000000Y-100357142D01*
X186428571Y-100357142D01*
X186142857Y-100214285D01*
X185857142Y-99928571D01*
X185714285Y-99357142D01*
X185714285Y-98357142D01*
X185857142Y-97785714D01*
X186142857Y-97500000D01*
X186428571Y-97357142D01*
X189000000Y-100357142D02*
X189000000Y-97357142D01*
X190000000Y-99500000D01*
X191000000Y-97357142D01*
X191000000Y-100357142D01*
X196428571Y-100071428D02*
X196285714Y-100214285D01*
X195857142Y-100357142D01*
X195571428Y-100357142D01*
X195142857Y-100214285D01*
X194857142Y-99928571D01*
X194714285Y-99642857D01*
X194571428Y-99071428D01*
X194571428Y-98642857D01*
X194714285Y-98071428D01*
X194857142Y-97785714D01*
X195142857Y-97500000D01*
X195571428Y-97357142D01*
X195857142Y-97357142D01*
X196285714Y-97500000D01*
X196428571Y-97642857D01*
X197714285Y-98785714D02*
X198714285Y-98785714D01*
X199142857Y-100357142D02*
X197714285Y-100357142D01*
X197714285Y-97357142D01*
X199142857Y-97357142D01*
X201857142Y-100357142D02*
X200428571Y-100357142D01*
X200428571Y-97357142D01*
X204285714Y-100357142D02*
X202857142Y-100357142D01*
X202857142Y-97357142D01*
X205142857Y-100214285D02*
X205571428Y-100357142D01*
X206285714Y-100357142D01*
X206571428Y-100214285D01*
X206714285Y-100071428D01*
X206857142Y-99785714D01*
X206857142Y-99500000D01*
X206714285Y-99214285D01*
X206571428Y-99071428D01*
X206285714Y-98928571D01*
X205714285Y-98785714D01*
X205428571Y-98642857D01*
X205285714Y-98500000D01*
X205142857Y-98214285D01*
X205142857Y-97928571D01*
X205285714Y-97642857D01*
X205428571Y-97500000D01*
X205714285Y-97357142D01*
X206428571Y-97357142D01*
X206857142Y-97500000D01*
D12*
X211264166Y-137285714D02*
X211264166Y-138095238D01*
X211216547Y-138190476D01*
X211168928Y-138238095D01*
X211073690Y-138285714D01*
X210930833Y-138285714D01*
X210835595Y-138238095D01*
X211264166Y-137904761D02*
X211168928Y-137952380D01*
X210978452Y-137952380D01*
X210883214Y-137904761D01*
X210835595Y-137857142D01*
X210787976Y-137761904D01*
X210787976Y-137476190D01*
X210835595Y-137380952D01*
X210883214Y-137333333D01*
X210978452Y-137285714D01*
X211168928Y-137285714D01*
X211264166Y-137333333D01*
X211740357Y-137952380D02*
X211740357Y-137285714D01*
X211740357Y-136952380D02*
X211692738Y-137000000D01*
X211740357Y-137047619D01*
X211787976Y-137000000D01*
X211740357Y-136952380D01*
X211740357Y-137047619D01*
X212073690Y-137285714D02*
X212454642Y-137285714D01*
X212216547Y-136952380D02*
X212216547Y-137809523D01*
X212264166Y-137904761D01*
X212359404Y-137952380D01*
X212454642Y-137952380D01*
X212787976Y-137952380D02*
X212787976Y-136952380D01*
X213216547Y-137952380D02*
X213216547Y-137428571D01*
X213168928Y-137333333D01*
X213073690Y-137285714D01*
X212930833Y-137285714D01*
X212835595Y-137333333D01*
X212787976Y-137380952D01*
X214121309Y-137285714D02*
X214121309Y-137952380D01*
X213692738Y-137285714D02*
X213692738Y-137809523D01*
X213740357Y-137904761D01*
X213835595Y-137952380D01*
X213978452Y-137952380D01*
X214073690Y-137904761D01*
X214121309Y-137857142D01*
X214597500Y-137952380D02*
X214597500Y-136952380D01*
X214597500Y-137333333D02*
X214692738Y-137285714D01*
X214883214Y-137285714D01*
X214978452Y-137333333D01*
X215026071Y-137380952D01*
X215073690Y-137476190D01*
X215073690Y-137761904D01*
X215026071Y-137857142D01*
X214978452Y-137904761D01*
X214883214Y-137952380D01*
X214692738Y-137952380D01*
X214597500Y-137904761D01*
X215502261Y-137857142D02*
X215549880Y-137904761D01*
X215502261Y-137952380D01*
X215454642Y-137904761D01*
X215502261Y-137857142D01*
X215502261Y-137952380D01*
X216407023Y-137904761D02*
X216311785Y-137952380D01*
X216121309Y-137952380D01*
X216026071Y-137904761D01*
X215978452Y-137857142D01*
X215930833Y-137761904D01*
X215930833Y-137476190D01*
X215978452Y-137380952D01*
X216026071Y-137333333D01*
X216121309Y-137285714D01*
X216311785Y-137285714D01*
X216407023Y-137333333D01*
X216978452Y-137952380D02*
X216883214Y-137904761D01*
X216835595Y-137857142D01*
X216787976Y-137761904D01*
X216787976Y-137476190D01*
X216835595Y-137380952D01*
X216883214Y-137333333D01*
X216978452Y-137285714D01*
X217121309Y-137285714D01*
X217216547Y-137333333D01*
X217264166Y-137380952D01*
X217311785Y-137476190D01*
X217311785Y-137761904D01*
X217264166Y-137857142D01*
X217216547Y-137904761D01*
X217121309Y-137952380D01*
X216978452Y-137952380D01*
X217740357Y-137952380D02*
X217740357Y-137285714D01*
X217740357Y-137380952D02*
X217787976Y-137333333D01*
X217883214Y-137285714D01*
X218026071Y-137285714D01*
X218121309Y-137333333D01*
X218168928Y-137428571D01*
X218168928Y-137952380D01*
X218168928Y-137428571D02*
X218216547Y-137333333D01*
X218311785Y-137285714D01*
X218454642Y-137285714D01*
X218549880Y-137333333D01*
X218597500Y-137428571D01*
X218597500Y-137952380D01*
X219787976Y-136904761D02*
X218930833Y-138190476D01*
X220549880Y-137952380D02*
X220549880Y-136952380D01*
X220549880Y-137904761D02*
X220454642Y-137952380D01*
X220264166Y-137952380D01*
X220168928Y-137904761D01*
X220121309Y-137857142D01*
X220073690Y-137761904D01*
X220073690Y-137476190D01*
X220121309Y-137380952D01*
X220168928Y-137333333D01*
X220264166Y-137285714D01*
X220454642Y-137285714D01*
X220549880Y-137333333D01*
X221168928Y-137952380D02*
X221073690Y-137904761D01*
X221026071Y-137857142D01*
X220978452Y-137761904D01*
X220978452Y-137476190D01*
X221026071Y-137380952D01*
X221073690Y-137333333D01*
X221168928Y-137285714D01*
X221311785Y-137285714D01*
X221407023Y-137333333D01*
X221454642Y-137380952D01*
X221502261Y-137476190D01*
X221502261Y-137761904D01*
X221454642Y-137857142D01*
X221407023Y-137904761D01*
X221311785Y-137952380D01*
X221168928Y-137952380D01*
X221930833Y-137285714D02*
X221930833Y-138285714D01*
X221930833Y-137333333D02*
X222026071Y-137285714D01*
X222216547Y-137285714D01*
X222311785Y-137333333D01*
X222359404Y-137380952D01*
X222407023Y-137476190D01*
X222407023Y-137761904D01*
X222359404Y-137857142D01*
X222311785Y-137904761D01*
X222216547Y-137952380D01*
X222026071Y-137952380D01*
X221930833Y-137904761D01*
X222835595Y-137285714D02*
X222835595Y-138285714D01*
X222835595Y-137333333D02*
X222930833Y-137285714D01*
X223121309Y-137285714D01*
X223216547Y-137333333D01*
X223264166Y-137380952D01*
X223311785Y-137476190D01*
X223311785Y-137761904D01*
X223264166Y-137857142D01*
X223216547Y-137904761D01*
X223121309Y-137952380D01*
X222930833Y-137952380D01*
X222835595Y-137904761D01*
X224121309Y-137904761D02*
X224026071Y-137952380D01*
X223835595Y-137952380D01*
X223740357Y-137904761D01*
X223692738Y-137809523D01*
X223692738Y-137428571D01*
X223740357Y-137333333D01*
X223835595Y-137285714D01*
X224026071Y-137285714D01*
X224121309Y-137333333D01*
X224168928Y-137428571D01*
X224168928Y-137523809D01*
X223692738Y-137619047D01*
X224740357Y-137952380D02*
X224645119Y-137904761D01*
X224597500Y-137809523D01*
X224597500Y-136952380D01*
X225121309Y-137952380D02*
X225121309Y-136952380D01*
X225549880Y-137952380D02*
X225549880Y-137428571D01*
X225502261Y-137333333D01*
X225407023Y-137285714D01*
X225264166Y-137285714D01*
X225168928Y-137333333D01*
X225121309Y-137380952D01*
X226454642Y-137285714D02*
X226454642Y-137952380D01*
X226026071Y-137285714D02*
X226026071Y-137809523D01*
X226073690Y-137904761D01*
X226168928Y-137952380D01*
X226311785Y-137952380D01*
X226407023Y-137904761D01*
X226454642Y-137857142D01*
X226930833Y-137952380D02*
X226930833Y-136952380D01*
X226930833Y-137333333D02*
X227026071Y-137285714D01*
X227216547Y-137285714D01*
X227311785Y-137333333D01*
X227359404Y-137380952D01*
X227407023Y-137476190D01*
X227407023Y-137761904D01*
X227359404Y-137857142D01*
X227311785Y-137904761D01*
X227216547Y-137952380D01*
X227026071Y-137952380D01*
X226930833Y-137904761D01*
X228549880Y-136904761D02*
X227692738Y-138190476D01*
X228883214Y-137952380D02*
X228883214Y-136952380D01*
X228883214Y-137428571D02*
X229454642Y-137428571D01*
X229454642Y-137952380D02*
X229454642Y-136952380D01*
X230073690Y-137952380D02*
X229978452Y-137904761D01*
X229930833Y-137857142D01*
X229883214Y-137761904D01*
X229883214Y-137476190D01*
X229930833Y-137380952D01*
X229978452Y-137333333D01*
X230073690Y-137285714D01*
X230216547Y-137285714D01*
X230311785Y-137333333D01*
X230359404Y-137380952D01*
X230407023Y-137476190D01*
X230407023Y-137761904D01*
X230359404Y-137857142D01*
X230311785Y-137904761D01*
X230216547Y-137952380D01*
X230073690Y-137952380D01*
X230835595Y-137285714D02*
X230835595Y-137952380D01*
X230835595Y-137380952D02*
X230883214Y-137333333D01*
X230978452Y-137285714D01*
X231121309Y-137285714D01*
X231216547Y-137333333D01*
X231264166Y-137428571D01*
X231264166Y-137952380D01*
X232168928Y-137952380D02*
X232168928Y-136952380D01*
X232168928Y-137904761D02*
X232073690Y-137952380D01*
X231883214Y-137952380D01*
X231787976Y-137904761D01*
X231740357Y-137857142D01*
X231692738Y-137761904D01*
X231692738Y-137476190D01*
X231740357Y-137380952D01*
X231787976Y-137333333D01*
X231883214Y-137285714D01*
X232073690Y-137285714D01*
X232168928Y-137333333D01*
X233073690Y-137952380D02*
X233073690Y-137428571D01*
X233026071Y-137333333D01*
X232930833Y-137285714D01*
X232740357Y-137285714D01*
X232645119Y-137333333D01*
X233073690Y-137904761D02*
X232978452Y-137952380D01*
X232740357Y-137952380D01*
X232645119Y-137904761D01*
X232597500Y-137809523D01*
X232597500Y-137714285D01*
X232645119Y-137619047D01*
X232740357Y-137571428D01*
X232978452Y-137571428D01*
X233073690Y-137523809D01*
X233311785Y-138047619D02*
X234073690Y-138047619D01*
X234311785Y-137952380D02*
X234311785Y-136952380D01*
X234787976Y-137285714D02*
X234787976Y-137952380D01*
X234787976Y-137380952D02*
X234835595Y-137333333D01*
X234930833Y-137285714D01*
X235073690Y-137285714D01*
X235168928Y-137333333D01*
X235216547Y-137428571D01*
X235216547Y-137952380D01*
X235645119Y-137904761D02*
X235740357Y-137952380D01*
X235930833Y-137952380D01*
X236026071Y-137904761D01*
X236073690Y-137809523D01*
X236073690Y-137761904D01*
X236026071Y-137666666D01*
X235930833Y-137619047D01*
X235787976Y-137619047D01*
X235692738Y-137571428D01*
X235645119Y-137476190D01*
X235645119Y-137428571D01*
X235692738Y-137333333D01*
X235787976Y-137285714D01*
X235930833Y-137285714D01*
X236026071Y-137333333D01*
X236502261Y-137952380D02*
X236502261Y-137285714D01*
X236502261Y-136952380D02*
X236454642Y-137000000D01*
X236502261Y-137047619D01*
X236549880Y-137000000D01*
X236502261Y-136952380D01*
X236502261Y-137047619D01*
X237407023Y-137285714D02*
X237407023Y-138095238D01*
X237359404Y-138190476D01*
X237311785Y-138238095D01*
X237216547Y-138285714D01*
X237073690Y-138285714D01*
X236978452Y-138238095D01*
X237407023Y-137904761D02*
X237311785Y-137952380D01*
X237121309Y-137952380D01*
X237026071Y-137904761D01*
X236978452Y-137857142D01*
X236930833Y-137761904D01*
X236930833Y-137476190D01*
X236978452Y-137380952D01*
X237026071Y-137333333D01*
X237121309Y-137285714D01*
X237311785Y-137285714D01*
X237407023Y-137333333D01*
X237883214Y-137952380D02*
X237883214Y-136952380D01*
X238311785Y-137952380D02*
X238311785Y-137428571D01*
X238264166Y-137333333D01*
X238168928Y-137285714D01*
X238026071Y-137285714D01*
X237930833Y-137333333D01*
X237883214Y-137380952D01*
X238645119Y-137285714D02*
X239026071Y-137285714D01*
X238787976Y-136952380D02*
X238787976Y-137809523D01*
X238835595Y-137904761D01*
X238930833Y-137952380D01*
X239026071Y-137952380D01*
X239121309Y-138047619D02*
X239883214Y-138047619D01*
X240597500Y-137952380D02*
X240121309Y-137952380D01*
X240121309Y-136952380D01*
X240930833Y-137952380D02*
X240930833Y-137285714D01*
X240930833Y-136952380D02*
X240883214Y-137000000D01*
X240930833Y-137047619D01*
X240978452Y-137000000D01*
X240930833Y-136952380D01*
X240930833Y-137047619D01*
X241740357Y-137428571D02*
X241883214Y-137476190D01*
X241930833Y-137523809D01*
X241978452Y-137619047D01*
X241978452Y-137761904D01*
X241930833Y-137857142D01*
X241883214Y-137904761D01*
X241787976Y-137952380D01*
X241407023Y-137952380D01*
X241407023Y-136952380D01*
X241740357Y-136952380D01*
X241835595Y-137000000D01*
X241883214Y-137047619D01*
X241930833Y-137142857D01*
X241930833Y-137238095D01*
X241883214Y-137333333D01*
X241835595Y-137380952D01*
X241740357Y-137428571D01*
X241407023Y-137428571D01*
X242978452Y-137857142D02*
X242930833Y-137904761D01*
X242787976Y-137952380D01*
X242692738Y-137952380D01*
X242549880Y-137904761D01*
X242454642Y-137809523D01*
X242407023Y-137714285D01*
X242359404Y-137523809D01*
X242359404Y-137380952D01*
X242407023Y-137190476D01*
X242454642Y-137095238D01*
X242549880Y-137000000D01*
X242692738Y-136952380D01*
X242787976Y-136952380D01*
X242930833Y-137000000D01*
X242978452Y-137047619D01*
X243407023Y-137952380D02*
X243407023Y-136952380D01*
X243740357Y-137666666D01*
X244073690Y-136952380D01*
X244073690Y-137952380D01*
X245264166Y-136904761D02*
X244407023Y-138190476D01*
X245454642Y-137285714D02*
X245835595Y-137285714D01*
X245597500Y-136952380D02*
X245597500Y-137809523D01*
X245645119Y-137904761D01*
X245740357Y-137952380D01*
X245835595Y-137952380D01*
X246168928Y-137952380D02*
X246168928Y-137285714D01*
X246168928Y-137476190D02*
X246216547Y-137380952D01*
X246264166Y-137333333D01*
X246359404Y-137285714D01*
X246454642Y-137285714D01*
X247168928Y-137904761D02*
X247073690Y-137952380D01*
X246883214Y-137952380D01*
X246787976Y-137904761D01*
X246740357Y-137809523D01*
X246740357Y-137428571D01*
X246787976Y-137333333D01*
X246883214Y-137285714D01*
X247073690Y-137285714D01*
X247168928Y-137333333D01*
X247216547Y-137428571D01*
X247216547Y-137523809D01*
X246740357Y-137619047D01*
X248026071Y-137904761D02*
X247930833Y-137952380D01*
X247740357Y-137952380D01*
X247645119Y-137904761D01*
X247597500Y-137809523D01*
X247597500Y-137428571D01*
X247645119Y-137333333D01*
X247740357Y-137285714D01*
X247930833Y-137285714D01*
X248026071Y-137333333D01*
X248073690Y-137428571D01*
X248073690Y-137523809D01*
X247597500Y-137619047D01*
X249216547Y-136904761D02*
X248359404Y-138190476D01*
X249549880Y-137952380D02*
X249549880Y-137285714D01*
X249549880Y-137380952D02*
X249597500Y-137333333D01*
X249692738Y-137285714D01*
X249835595Y-137285714D01*
X249930833Y-137333333D01*
X249978452Y-137428571D01*
X249978452Y-137952380D01*
X249978452Y-137428571D02*
X250026071Y-137333333D01*
X250121309Y-137285714D01*
X250264166Y-137285714D01*
X250359404Y-137333333D01*
X250407023Y-137428571D01*
X250407023Y-137952380D01*
X251311785Y-137952380D02*
X251311785Y-137428571D01*
X251264166Y-137333333D01*
X251168928Y-137285714D01*
X250978452Y-137285714D01*
X250883214Y-137333333D01*
X251311785Y-137904761D02*
X251216547Y-137952380D01*
X250978452Y-137952380D01*
X250883214Y-137904761D01*
X250835595Y-137809523D01*
X250835595Y-137714285D01*
X250883214Y-137619047D01*
X250978452Y-137571428D01*
X251216547Y-137571428D01*
X251311785Y-137523809D01*
X251787976Y-137952380D02*
X251787976Y-137285714D01*
X251787976Y-136952380D02*
X251740357Y-137000000D01*
X251787976Y-137047619D01*
X251835595Y-137000000D01*
X251787976Y-136952380D01*
X251787976Y-137047619D01*
X252264166Y-137285714D02*
X252264166Y-137952380D01*
X252264166Y-137380952D02*
X252311785Y-137333333D01*
X252407023Y-137285714D01*
X252549880Y-137285714D01*
X252645119Y-137333333D01*
X252692738Y-137428571D01*
X252692738Y-137952380D01*
X253883214Y-136904761D02*
X253026071Y-138190476D01*
X254216547Y-137428571D02*
X254549880Y-137428571D01*
X254692738Y-137952380D02*
X254216547Y-137952380D01*
X254216547Y-136952380D01*
X254692738Y-136952380D01*
X255264166Y-137952380D02*
X255168928Y-137904761D01*
X255121309Y-137809523D01*
X255121309Y-136952380D01*
X256026071Y-137904761D02*
X255930833Y-137952380D01*
X255740357Y-137952380D01*
X255645119Y-137904761D01*
X255597500Y-137809523D01*
X255597500Y-137428571D01*
X255645119Y-137333333D01*
X255740357Y-137285714D01*
X255930833Y-137285714D01*
X256026071Y-137333333D01*
X256073690Y-137428571D01*
X256073690Y-137523809D01*
X255597500Y-137619047D01*
X256930833Y-137904761D02*
X256835595Y-137952380D01*
X256645119Y-137952380D01*
X256549880Y-137904761D01*
X256502261Y-137857142D01*
X256454642Y-137761904D01*
X256454642Y-137476190D01*
X256502261Y-137380952D01*
X256549880Y-137333333D01*
X256645119Y-137285714D01*
X256835595Y-137285714D01*
X256930833Y-137333333D01*
X257216547Y-137285714D02*
X257597500Y-137285714D01*
X257359404Y-136952380D02*
X257359404Y-137809523D01*
X257407023Y-137904761D01*
X257502261Y-137952380D01*
X257597500Y-137952380D01*
X257930833Y-137952380D02*
X257930833Y-137285714D01*
X257930833Y-137476190D02*
X257978452Y-137380952D01*
X258026071Y-137333333D01*
X258121309Y-137285714D01*
X258216547Y-137285714D01*
X258692738Y-137952380D02*
X258597500Y-137904761D01*
X258549880Y-137857142D01*
X258502261Y-137761904D01*
X258502261Y-137476190D01*
X258549880Y-137380952D01*
X258597500Y-137333333D01*
X258692738Y-137285714D01*
X258835595Y-137285714D01*
X258930833Y-137333333D01*
X258978452Y-137380952D01*
X259026071Y-137476190D01*
X259026071Y-137761904D01*
X258978452Y-137857142D01*
X258930833Y-137904761D01*
X258835595Y-137952380D01*
X258692738Y-137952380D01*
X259454642Y-137285714D02*
X259454642Y-137952380D01*
X259454642Y-137380952D02*
X259502261Y-137333333D01*
X259597500Y-137285714D01*
X259740357Y-137285714D01*
X259835595Y-137333333D01*
X259883214Y-137428571D01*
X259883214Y-137952380D01*
X260359404Y-137952380D02*
X260359404Y-137285714D01*
X260359404Y-136952380D02*
X260311785Y-137000000D01*
X260359404Y-137047619D01*
X260407023Y-137000000D01*
X260359404Y-136952380D01*
X260359404Y-137047619D01*
X261264166Y-137904761D02*
X261168928Y-137952380D01*
X260978452Y-137952380D01*
X260883214Y-137904761D01*
X260835595Y-137857142D01*
X260787976Y-137761904D01*
X260787976Y-137476190D01*
X260835595Y-137380952D01*
X260883214Y-137333333D01*
X260978452Y-137285714D01*
X261168928Y-137285714D01*
X261264166Y-137333333D01*
X261645119Y-137904761D02*
X261740357Y-137952380D01*
X261930833Y-137952380D01*
X262026071Y-137904761D01*
X262073690Y-137809523D01*
X262073690Y-137761904D01*
X262026071Y-137666666D01*
X261930833Y-137619047D01*
X261787976Y-137619047D01*
X261692738Y-137571428D01*
X261645119Y-137476190D01*
X261645119Y-137428571D01*
X261692738Y-137333333D01*
X261787976Y-137285714D01*
X261930833Y-137285714D01*
X262026071Y-137333333D01*
X263216547Y-136904761D02*
X262359404Y-138190476D01*
X264026071Y-137952380D02*
X263549880Y-137952380D01*
X263549880Y-136952380D01*
X264359404Y-137952380D02*
X264359404Y-137285714D01*
X264359404Y-136952380D02*
X264311785Y-137000000D01*
X264359404Y-137047619D01*
X264407023Y-137000000D01*
X264359404Y-136952380D01*
X264359404Y-137047619D01*
X264692738Y-137285714D02*
X265073690Y-137285714D01*
X264835595Y-136952380D02*
X264835595Y-137809523D01*
X264883214Y-137904761D01*
X264978452Y-137952380D01*
X265073690Y-137952380D01*
X265407023Y-137952380D02*
X265407023Y-136952380D01*
X265835595Y-137952380D02*
X265835595Y-137428571D01*
X265787976Y-137333333D01*
X265692738Y-137285714D01*
X265549880Y-137285714D01*
X265454642Y-137333333D01*
X265407023Y-137380952D01*
X266311785Y-137952380D02*
X266311785Y-137285714D01*
X266311785Y-136952380D02*
X266264166Y-137000000D01*
X266311785Y-137047619D01*
X266359404Y-137000000D01*
X266311785Y-136952380D01*
X266311785Y-137047619D01*
X267216547Y-137285714D02*
X267216547Y-137952380D01*
X266787976Y-137285714D02*
X266787976Y-137809523D01*
X266835595Y-137904761D01*
X266930833Y-137952380D01*
X267073690Y-137952380D01*
X267168928Y-137904761D01*
X267216547Y-137857142D01*
X267692738Y-137952380D02*
X267692738Y-137285714D01*
X267692738Y-137380952D02*
X267740357Y-137333333D01*
X267835595Y-137285714D01*
X267978452Y-137285714D01*
X268073690Y-137333333D01*
X268121309Y-137428571D01*
X268121309Y-137952380D01*
X268121309Y-137428571D02*
X268168928Y-137333333D01*
X268264166Y-137285714D01*
X268407023Y-137285714D01*
X268502261Y-137333333D01*
X268549880Y-137428571D01*
X268549880Y-137952380D01*
X268978452Y-137952380D02*
X269740357Y-136952380D01*
X269121309Y-136952380D02*
X269216547Y-137000000D01*
X269264166Y-137095238D01*
X269216547Y-137190476D01*
X269121309Y-137238095D01*
X269026071Y-137190476D01*
X268978452Y-137095238D01*
X269026071Y-137000000D01*
X269121309Y-136952380D01*
X269692738Y-137904761D02*
X269740357Y-137809523D01*
X269692738Y-137714285D01*
X269597500Y-137666666D01*
X269502261Y-137714285D01*
X269454642Y-137809523D01*
X269502261Y-137904761D01*
X269597500Y-137952380D01*
X269692738Y-137904761D01*
X270121309Y-137047619D02*
X270168928Y-137000000D01*
X270264166Y-136952380D01*
X270502261Y-136952380D01*
X270597500Y-137000000D01*
X270645119Y-137047619D01*
X270692738Y-137142857D01*
X270692738Y-137238095D01*
X270645119Y-137380952D01*
X270073690Y-137952380D01*
X270692738Y-137952380D01*
X271311785Y-136952380D02*
X271407023Y-136952380D01*
X271502261Y-137000000D01*
X271549880Y-137047619D01*
X271597500Y-137142857D01*
X271645119Y-137333333D01*
X271645119Y-137571428D01*
X271597500Y-137761904D01*
X271549880Y-137857142D01*
X271502261Y-137904761D01*
X271407023Y-137952380D01*
X271311785Y-137952380D01*
X271216547Y-137904761D01*
X271168928Y-137857142D01*
X271121309Y-137761904D01*
X271073690Y-137571428D01*
X271073690Y-137333333D01*
X271121309Y-137142857D01*
X271168928Y-137047619D01*
X271216547Y-137000000D01*
X271311785Y-136952380D01*
X272407023Y-137428571D02*
X272549880Y-137476190D01*
X272597500Y-137523809D01*
X272645119Y-137619047D01*
X272645119Y-137761904D01*
X272597500Y-137857142D01*
X272549880Y-137904761D01*
X272454642Y-137952380D01*
X272073690Y-137952380D01*
X272073690Y-136952380D01*
X272407023Y-136952380D01*
X272502261Y-137000000D01*
X272549880Y-137047619D01*
X272597500Y-137142857D01*
X272597500Y-137238095D01*
X272549880Y-137333333D01*
X272502261Y-137380952D01*
X272407023Y-137428571D01*
X272073690Y-137428571D01*
X273502261Y-137952380D02*
X273502261Y-137428571D01*
X273454642Y-137333333D01*
X273359404Y-137285714D01*
X273168928Y-137285714D01*
X273073690Y-137333333D01*
X273502261Y-137904761D02*
X273407023Y-137952380D01*
X273168928Y-137952380D01*
X273073690Y-137904761D01*
X273026071Y-137809523D01*
X273026071Y-137714285D01*
X273073690Y-137619047D01*
X273168928Y-137571428D01*
X273407023Y-137571428D01*
X273502261Y-137523809D01*
X273835595Y-137285714D02*
X274216547Y-137285714D01*
X273978452Y-136952380D02*
X273978452Y-137809523D01*
X274026071Y-137904761D01*
X274121309Y-137952380D01*
X274216547Y-137952380D01*
X274407023Y-137285714D02*
X274787976Y-137285714D01*
X274549880Y-136952380D02*
X274549880Y-137809523D01*
X274597500Y-137904761D01*
X274692738Y-137952380D01*
X274787976Y-137952380D01*
X275502261Y-137904761D02*
X275407023Y-137952380D01*
X275216547Y-137952380D01*
X275121309Y-137904761D01*
X275073690Y-137809523D01*
X275073690Y-137428571D01*
X275121309Y-137333333D01*
X275216547Y-137285714D01*
X275407023Y-137285714D01*
X275502261Y-137333333D01*
X275549880Y-137428571D01*
X275549880Y-137523809D01*
X275073690Y-137619047D01*
X275978452Y-137952380D02*
X275978452Y-137285714D01*
X275978452Y-137476190D02*
X276026071Y-137380952D01*
X276073690Y-137333333D01*
X276168928Y-137285714D01*
X276264166Y-137285714D01*
X276597500Y-137952380D02*
X276597500Y-137285714D01*
X276597500Y-136952380D02*
X276549880Y-137000000D01*
X276597500Y-137047619D01*
X276645119Y-137000000D01*
X276597500Y-136952380D01*
X276597500Y-137047619D01*
X277454642Y-137904761D02*
X277359404Y-137952380D01*
X277168928Y-137952380D01*
X277073690Y-137904761D01*
X277026071Y-137809523D01*
X277026071Y-137428571D01*
X277073690Y-137333333D01*
X277168928Y-137285714D01*
X277359404Y-137285714D01*
X277454642Y-137333333D01*
X277502261Y-137428571D01*
X277502261Y-137523809D01*
X277026071Y-137619047D01*
X277883214Y-137904761D02*
X277978452Y-137952380D01*
X278168928Y-137952380D01*
X278264166Y-137904761D01*
X278311785Y-137809523D01*
X278311785Y-137761904D01*
X278264166Y-137666666D01*
X278168928Y-137619047D01*
X278026071Y-137619047D01*
X277930833Y-137571428D01*
X277883214Y-137476190D01*
X277883214Y-137428571D01*
X277930833Y-137333333D01*
X278026071Y-137285714D01*
X278168928Y-137285714D01*
X278264166Y-137333333D01*
X279454642Y-136904761D02*
X278597500Y-138190476D01*
X280216547Y-137285714D02*
X280216547Y-137952380D01*
X279978452Y-136904761D02*
X279740357Y-137619047D01*
X280359404Y-137619047D01*
X280645119Y-136952380D02*
X281311785Y-136952380D01*
X280883214Y-137952380D01*
X281645119Y-137952380D02*
X282407023Y-136952380D01*
X281787976Y-136952380D02*
X281883214Y-137000000D01*
X281930833Y-137095238D01*
X281883214Y-137190476D01*
X281787976Y-137238095D01*
X281692738Y-137190476D01*
X281645119Y-137095238D01*
X281692738Y-137000000D01*
X281787976Y-136952380D01*
X282359404Y-137904761D02*
X282407023Y-137809523D01*
X282359404Y-137714285D01*
X282264166Y-137666666D01*
X282168928Y-137714285D01*
X282121309Y-137809523D01*
X282168928Y-137904761D01*
X282264166Y-137952380D01*
X282359404Y-137904761D01*
X282787976Y-137047619D02*
X282835595Y-137000000D01*
X282930833Y-136952380D01*
X283168928Y-136952380D01*
X283264166Y-137000000D01*
X283311785Y-137047619D01*
X283359404Y-137142857D01*
X283359404Y-137238095D01*
X283311785Y-137380952D01*
X282740357Y-137952380D01*
X283359404Y-137952380D01*
X283978452Y-136952380D02*
X284073690Y-136952380D01*
X284168928Y-137000000D01*
X284216547Y-137047619D01*
X284264166Y-137142857D01*
X284311785Y-137333333D01*
X284311785Y-137571428D01*
X284264166Y-137761904D01*
X284216547Y-137857142D01*
X284168928Y-137904761D01*
X284073690Y-137952380D01*
X283978452Y-137952380D01*
X283883214Y-137904761D01*
X283835595Y-137857142D01*
X283787976Y-137761904D01*
X283740357Y-137571428D01*
X283740357Y-137333333D01*
X283787976Y-137142857D01*
X283835595Y-137047619D01*
X283883214Y-137000000D01*
X283978452Y-136952380D01*
X284692738Y-137666666D02*
X285168928Y-137666666D01*
X284597500Y-137952380D02*
X284930833Y-136952380D01*
X285264166Y-137952380D01*
X285597500Y-137952380D02*
X285597500Y-136952380D01*
X286026071Y-137952380D02*
X286026071Y-137428571D01*
X285978452Y-137333333D01*
X285883214Y-137285714D01*
X285740357Y-137285714D01*
X285645119Y-137333333D01*
X285597500Y-137380952D01*
X286454642Y-137952380D02*
X287216547Y-136952380D01*
X286597500Y-136952380D02*
X286692738Y-137000000D01*
X286740357Y-137095238D01*
X286692738Y-137190476D01*
X286597500Y-137238095D01*
X286502261Y-137190476D01*
X286454642Y-137095238D01*
X286502261Y-137000000D01*
X286597500Y-136952380D01*
X287168928Y-137904761D02*
X287216547Y-137809523D01*
X287168928Y-137714285D01*
X287073690Y-137666666D01*
X286978452Y-137714285D01*
X286930833Y-137809523D01*
X286978452Y-137904761D01*
X287073690Y-137952380D01*
X287168928Y-137904761D01*
X287597500Y-137047619D02*
X287645119Y-137000000D01*
X287740357Y-136952380D01*
X287978452Y-136952380D01*
X288073690Y-137000000D01*
X288121309Y-137047619D01*
X288168928Y-137142857D01*
X288168928Y-137238095D01*
X288121309Y-137380952D01*
X287549880Y-137952380D01*
X288168928Y-137952380D01*
X288787976Y-136952380D02*
X288883214Y-136952380D01*
X288978452Y-137000000D01*
X289026071Y-137047619D01*
X289073690Y-137142857D01*
X289121309Y-137333333D01*
X289121309Y-137571428D01*
X289073690Y-137761904D01*
X289026071Y-137857142D01*
X288978452Y-137904761D01*
X288883214Y-137952380D01*
X288787976Y-137952380D01*
X288692738Y-137904761D01*
X288645119Y-137857142D01*
X288597500Y-137761904D01*
X288549880Y-137571428D01*
X288549880Y-137333333D01*
X288597500Y-137142857D01*
X288645119Y-137047619D01*
X288692738Y-137000000D01*
X288787976Y-136952380D01*
X289883214Y-137428571D02*
X289549880Y-137428571D01*
X289549880Y-137952380D02*
X289549880Y-136952380D01*
X290026071Y-136952380D01*
X290549880Y-137952380D02*
X290454642Y-137904761D01*
X290407023Y-137857142D01*
X290359404Y-137761904D01*
X290359404Y-137476190D01*
X290407023Y-137380952D01*
X290454642Y-137333333D01*
X290549880Y-137285714D01*
X290692738Y-137285714D01*
X290787976Y-137333333D01*
X290835595Y-137380952D01*
X290883214Y-137476190D01*
X290883214Y-137761904D01*
X290835595Y-137857142D01*
X290787976Y-137904761D01*
X290692738Y-137952380D01*
X290549880Y-137952380D01*
X291311785Y-137952380D02*
X291311785Y-136952380D01*
X291645119Y-137666666D01*
X291978452Y-136952380D01*
X291978452Y-137952380D01*
X292597500Y-137952380D02*
X292502261Y-137904761D01*
X292454642Y-137857142D01*
X292407023Y-137761904D01*
X292407023Y-137476190D01*
X292454642Y-137380952D01*
X292502261Y-137333333D01*
X292597500Y-137285714D01*
X292740357Y-137285714D01*
X292835595Y-137333333D01*
X292883214Y-137380952D01*
X292930833Y-137476190D01*
X292930833Y-137761904D01*
X292883214Y-137857142D01*
X292835595Y-137904761D01*
X292740357Y-137952380D01*
X292597500Y-137952380D01*
X293930833Y-137857142D02*
X293883214Y-137904761D01*
X293740357Y-137952380D01*
X293645119Y-137952380D01*
X293502261Y-137904761D01*
X293407023Y-137809523D01*
X293359404Y-137714285D01*
X293311785Y-137523809D01*
X293311785Y-137380952D01*
X293359404Y-137190476D01*
X293407023Y-137095238D01*
X293502261Y-137000000D01*
X293645119Y-136952380D01*
X293740357Y-136952380D01*
X293883214Y-137000000D01*
X293930833Y-137047619D01*
X294502261Y-137952380D02*
X294407023Y-137904761D01*
X294359404Y-137857142D01*
X294311785Y-137761904D01*
X294311785Y-137476190D01*
X294359404Y-137380952D01*
X294407023Y-137333333D01*
X294502261Y-137285714D01*
X294645119Y-137285714D01*
X294740357Y-137333333D01*
X294787976Y-137380952D01*
X294835595Y-137476190D01*
X294835595Y-137761904D01*
X294787976Y-137857142D01*
X294740357Y-137904761D01*
X294645119Y-137952380D01*
X294502261Y-137952380D01*
X295216547Y-137952380D02*
X295978452Y-136952380D01*
X295359404Y-136952380D02*
X295454642Y-137000000D01*
X295502261Y-137095238D01*
X295454642Y-137190476D01*
X295359404Y-137238095D01*
X295264166Y-137190476D01*
X295216547Y-137095238D01*
X295264166Y-137000000D01*
X295359404Y-136952380D01*
X295930833Y-137904761D02*
X295978452Y-137809523D01*
X295930833Y-137714285D01*
X295835595Y-137666666D01*
X295740357Y-137714285D01*
X295692738Y-137809523D01*
X295740357Y-137904761D01*
X295835595Y-137952380D01*
X295930833Y-137904761D01*
X296359404Y-137047619D02*
X296407023Y-137000000D01*
X296502261Y-136952380D01*
X296740357Y-136952380D01*
X296835595Y-137000000D01*
X296883214Y-137047619D01*
X296930833Y-137142857D01*
X296930833Y-137238095D01*
X296883214Y-137380952D01*
X296311785Y-137952380D01*
X296930833Y-137952380D01*
X297549880Y-136952380D02*
X297645119Y-136952380D01*
X297740357Y-137000000D01*
X297787976Y-137047619D01*
X297835595Y-137142857D01*
X297883214Y-137333333D01*
X297883214Y-137571428D01*
X297835595Y-137761904D01*
X297787976Y-137857142D01*
X297740357Y-137904761D01*
X297645119Y-137952380D01*
X297549880Y-137952380D01*
X297454642Y-137904761D01*
X297407023Y-137857142D01*
X297359404Y-137761904D01*
X297311785Y-137571428D01*
X297311785Y-137333333D01*
X297359404Y-137142857D01*
X297407023Y-137047619D01*
X297454642Y-137000000D01*
X297549880Y-136952380D01*
X298311785Y-137952380D02*
X298311785Y-136952380D01*
X298645119Y-137666666D01*
X298978452Y-136952380D01*
X298978452Y-137952380D01*
X299597500Y-137952380D02*
X299502261Y-137904761D01*
X299454642Y-137857142D01*
X299407023Y-137761904D01*
X299407023Y-137476190D01*
X299454642Y-137380952D01*
X299502261Y-137333333D01*
X299597500Y-137285714D01*
X299740357Y-137285714D01*
X299835595Y-137333333D01*
X299883214Y-137380952D01*
X299930833Y-137476190D01*
X299930833Y-137761904D01*
X299883214Y-137857142D01*
X299835595Y-137904761D01*
X299740357Y-137952380D01*
X299597500Y-137952380D01*
X300787976Y-137952380D02*
X300787976Y-136952380D01*
X300787976Y-137904761D02*
X300692738Y-137952380D01*
X300502261Y-137952380D01*
X300407023Y-137904761D01*
X300359404Y-137857142D01*
X300311785Y-137761904D01*
X300311785Y-137476190D01*
X300359404Y-137380952D01*
X300407023Y-137333333D01*
X300502261Y-137285714D01*
X300692738Y-137285714D01*
X300787976Y-137333333D01*
X301692738Y-137285714D02*
X301692738Y-137952380D01*
X301264166Y-137285714D02*
X301264166Y-137809523D01*
X301311785Y-137904761D01*
X301407023Y-137952380D01*
X301549880Y-137952380D01*
X301645119Y-137904761D01*
X301692738Y-137857142D01*
X302311785Y-137952380D02*
X302216547Y-137904761D01*
X302168928Y-137809523D01*
X302168928Y-136952380D01*
X303073690Y-137904761D02*
X302978452Y-137952380D01*
X302787976Y-137952380D01*
X302692738Y-137904761D01*
X302645119Y-137809523D01*
X302645119Y-137428571D01*
X302692738Y-137333333D01*
X302787976Y-137285714D01*
X302978452Y-137285714D01*
X303073690Y-137333333D01*
X303121309Y-137428571D01*
X303121309Y-137523809D01*
X302645119Y-137619047D01*
X303502261Y-137904761D02*
X303597500Y-137952380D01*
X303787976Y-137952380D01*
X303883214Y-137904761D01*
X303930833Y-137809523D01*
X303930833Y-137761904D01*
X303883214Y-137666666D01*
X303787976Y-137619047D01*
X303645119Y-137619047D01*
X303549880Y-137571428D01*
X303502261Y-137476190D01*
X303502261Y-137428571D01*
X303549880Y-137333333D01*
X303645119Y-137285714D01*
X303787976Y-137285714D01*
X303883214Y-137333333D01*
D10*
X232749999Y-127103571D02*
X232249999Y-126389285D01*
X231892857Y-127103571D02*
X231892857Y-125603571D01*
X232464285Y-125603571D01*
X232607142Y-125675000D01*
X232678571Y-125746428D01*
X232749999Y-125889285D01*
X232749999Y-126103571D01*
X232678571Y-126246428D01*
X232607142Y-126317857D01*
X232464285Y-126389285D01*
X231892857Y-126389285D01*
X233392857Y-127103571D02*
X233392857Y-125603571D01*
X234607142Y-126317857D02*
X234821428Y-126389285D01*
X234892857Y-126460714D01*
X234964285Y-126603571D01*
X234964285Y-126817857D01*
X234892857Y-126960714D01*
X234821428Y-127032142D01*
X234678571Y-127103571D01*
X234107142Y-127103571D01*
X234107142Y-125603571D01*
X234607142Y-125603571D01*
X234749999Y-125675000D01*
X234821428Y-125746428D01*
X234892857Y-125889285D01*
X234892857Y-126032142D01*
X234821428Y-126175000D01*
X234749999Y-126246428D01*
X234607142Y-126317857D01*
X234107142Y-126317857D01*
X236107142Y-126317857D02*
X236321428Y-126389285D01*
X236392857Y-126460714D01*
X236464285Y-126603571D01*
X236464285Y-126817857D01*
X236392857Y-126960714D01*
X236321428Y-127032142D01*
X236178571Y-127103571D01*
X235607142Y-127103571D01*
X235607142Y-125603571D01*
X236107142Y-125603571D01*
X236249999Y-125675000D01*
X236321428Y-125746428D01*
X236392857Y-125889285D01*
X236392857Y-126032142D01*
X236321428Y-126175000D01*
X236249999Y-126246428D01*
X236107142Y-126317857D01*
X235607142Y-126317857D01*
X237392857Y-125603571D02*
X237678571Y-125603571D01*
X237821428Y-125675000D01*
X237964285Y-125817857D01*
X238035714Y-126103571D01*
X238035714Y-126603571D01*
X237964285Y-126889285D01*
X237821428Y-127032142D01*
X237678571Y-127103571D01*
X237392857Y-127103571D01*
X237249999Y-127032142D01*
X237107142Y-126889285D01*
X237035714Y-126603571D01*
X237035714Y-126103571D01*
X237107142Y-125817857D01*
X237249999Y-125675000D01*
X237392857Y-125603571D01*
X238678571Y-127103571D02*
X238678571Y-125603571D01*
X239535714Y-127103571D01*
X239535714Y-125603571D01*
X241392857Y-127103571D02*
X241392857Y-125603571D01*
X241392857Y-126317857D02*
X242249999Y-126317857D01*
X242249999Y-127103571D02*
X242249999Y-125603571D01*
X242964285Y-126317857D02*
X243464285Y-126317857D01*
X243678571Y-127103571D02*
X242964285Y-127103571D01*
X242964285Y-125603571D01*
X243678571Y-125603571D01*
X244249999Y-126675000D02*
X244964285Y-126675000D01*
X244107142Y-127103571D02*
X244607142Y-125603571D01*
X245107142Y-127103571D01*
X245607142Y-127103571D02*
X245607142Y-125603571D01*
X245964285Y-125603571D01*
X246178571Y-125675000D01*
X246321428Y-125817857D01*
X246392857Y-125960714D01*
X246464285Y-126246428D01*
X246464285Y-126460714D01*
X246392857Y-126746428D01*
X246321428Y-126889285D01*
X246178571Y-127032142D01*
X245964285Y-127103571D01*
X245607142Y-127103571D01*
X247107142Y-126317857D02*
X247607142Y-126317857D01*
X247821428Y-127103571D02*
X247107142Y-127103571D01*
X247107142Y-125603571D01*
X247821428Y-125603571D01*
X249321428Y-127103571D02*
X248821428Y-126389285D01*
X248464285Y-127103571D02*
X248464285Y-125603571D01*
X249035714Y-125603571D01*
X249178571Y-125675000D01*
X249249999Y-125746428D01*
X249321428Y-125889285D01*
X249321428Y-126103571D01*
X249249999Y-126246428D01*
X249178571Y-126317857D01*
X249035714Y-126389285D01*
X248464285Y-126389285D01*
X251035714Y-126675000D02*
X251749999Y-126675000D01*
X250892857Y-127103571D02*
X251392857Y-125603571D01*
X251892857Y-127103571D01*
X252392857Y-127103571D02*
X252392857Y-125603571D01*
X252749999Y-125603571D01*
X252964285Y-125675000D01*
X253107142Y-125817857D01*
X253178571Y-125960714D01*
X253249999Y-126246428D01*
X253249999Y-126460714D01*
X253178571Y-126746428D01*
X253107142Y-126889285D01*
X252964285Y-127032142D01*
X252749999Y-127103571D01*
X252392857Y-127103571D01*
X253821428Y-126675000D02*
X254535714Y-126675000D01*
X253678571Y-127103571D02*
X254178571Y-125603571D01*
X254678571Y-127103571D01*
X255178571Y-127103571D02*
X255178571Y-125603571D01*
X255749999Y-125603571D01*
X255892857Y-125675000D01*
X255964285Y-125746428D01*
X256035714Y-125889285D01*
X256035714Y-126103571D01*
X255964285Y-126246428D01*
X255892857Y-126317857D01*
X255749999Y-126389285D01*
X255178571Y-126389285D01*
X256464285Y-125603571D02*
X257321428Y-125603571D01*
X256892857Y-127103571D02*
X256892857Y-125603571D01*
X257821428Y-126317857D02*
X258321428Y-126317857D01*
X258535714Y-127103571D02*
X257821428Y-127103571D01*
X257821428Y-125603571D01*
X258535714Y-125603571D01*
X260035714Y-127103571D02*
X259535714Y-126389285D01*
X259178571Y-127103571D02*
X259178571Y-125603571D01*
X259749999Y-125603571D01*
X259892857Y-125675000D01*
X259964285Y-125746428D01*
X260035714Y-125889285D01*
X260035714Y-126103571D01*
X259964285Y-126246428D01*
X259892857Y-126317857D01*
X259749999Y-126389285D01*
X259178571Y-126389285D01*
X261821428Y-127103571D02*
X261821428Y-125603571D01*
X262392857Y-125603571D01*
X262535714Y-125675000D01*
X262607142Y-125746428D01*
X262678571Y-125889285D01*
X262678571Y-126103571D01*
X262607142Y-126246428D01*
X262535714Y-126317857D01*
X262392857Y-126389285D01*
X261821428Y-126389285D01*
X264178571Y-126960714D02*
X264107142Y-127032142D01*
X263892857Y-127103571D01*
X263749999Y-127103571D01*
X263535714Y-127032142D01*
X263392857Y-126889285D01*
X263321428Y-126746428D01*
X263249999Y-126460714D01*
X263249999Y-126246428D01*
X263321428Y-125960714D01*
X263392857Y-125817857D01*
X263535714Y-125675000D01*
X263749999Y-125603571D01*
X263892857Y-125603571D01*
X264107142Y-125675000D01*
X264178571Y-125746428D01*
X265321428Y-126317857D02*
X265535714Y-126389285D01*
X265607142Y-126460714D01*
X265678571Y-126603571D01*
X265678571Y-126817857D01*
X265607142Y-126960714D01*
X265535714Y-127032142D01*
X265392857Y-127103571D01*
X264821428Y-127103571D01*
X264821428Y-125603571D01*
X265321428Y-125603571D01*
X265464285Y-125675000D01*
X265535714Y-125746428D01*
X265607142Y-125889285D01*
X265607142Y-126032142D01*
X265535714Y-126175000D01*
X265464285Y-126246428D01*
X265321428Y-126317857D01*
X264821428Y-126317857D01*
X232285714Y-128867857D02*
X231785714Y-128867857D01*
X231785714Y-129653571D02*
X231785714Y-128153571D01*
X232500000Y-128153571D01*
X233357142Y-128153571D02*
X233642857Y-128153571D01*
X233785714Y-128225000D01*
X233928571Y-128367857D01*
X234000000Y-128653571D01*
X234000000Y-129153571D01*
X233928571Y-129439285D01*
X233785714Y-129582142D01*
X233642857Y-129653571D01*
X233357142Y-129653571D01*
X233214285Y-129582142D01*
X233071428Y-129439285D01*
X233000000Y-129153571D01*
X233000000Y-128653571D01*
X233071428Y-128367857D01*
X233214285Y-128225000D01*
X233357142Y-128153571D01*
X235500000Y-129653571D02*
X235000000Y-128939285D01*
X234642857Y-129653571D02*
X234642857Y-128153571D01*
X235214285Y-128153571D01*
X235357142Y-128225000D01*
X235428571Y-128296428D01*
X235500000Y-128439285D01*
X235500000Y-128653571D01*
X235428571Y-128796428D01*
X235357142Y-128867857D01*
X235214285Y-128939285D01*
X234642857Y-128939285D01*
X237214285Y-129582142D02*
X237428571Y-129653571D01*
X237785714Y-129653571D01*
X237928571Y-129582142D01*
X238000000Y-129510714D01*
X238071428Y-129367857D01*
X238071428Y-129225000D01*
X238000000Y-129082142D01*
X237928571Y-129010714D01*
X237785714Y-128939285D01*
X237500000Y-128867857D01*
X237357142Y-128796428D01*
X237285714Y-128725000D01*
X237214285Y-128582142D01*
X237214285Y-128439285D01*
X237285714Y-128296428D01*
X237357142Y-128225000D01*
X237500000Y-128153571D01*
X237857142Y-128153571D01*
X238071428Y-128225000D01*
X238642857Y-129225000D02*
X239357142Y-129225000D01*
X238500000Y-129653571D02*
X239000000Y-128153571D01*
X239500000Y-129653571D01*
X240000000Y-129653571D02*
X240000000Y-128153571D01*
X240500000Y-129225000D01*
X241000000Y-128153571D01*
X241000000Y-129653571D01*
X241642857Y-129582142D02*
X241857142Y-129653571D01*
X242214285Y-129653571D01*
X242357142Y-129582142D01*
X242428571Y-129510714D01*
X242500000Y-129367857D01*
X242500000Y-129225000D01*
X242428571Y-129082142D01*
X242357142Y-129010714D01*
X242214285Y-128939285D01*
X241928571Y-128867857D01*
X241785714Y-128796428D01*
X241714285Y-128725000D01*
X241642857Y-128582142D01*
X241642857Y-128439285D01*
X241714285Y-128296428D01*
X241785714Y-128225000D01*
X241928571Y-128153571D01*
X242285714Y-128153571D01*
X242500000Y-128225000D01*
X243142857Y-128153571D02*
X243142857Y-129367857D01*
X243214285Y-129510714D01*
X243285714Y-129582142D01*
X243428571Y-129653571D01*
X243714285Y-129653571D01*
X243857142Y-129582142D01*
X243928571Y-129510714D01*
X244000000Y-129367857D01*
X244000000Y-128153571D01*
X244714285Y-129653571D02*
X244714285Y-128153571D01*
X245571428Y-129653571D01*
X245571428Y-128153571D01*
X247071428Y-128225000D02*
X246928571Y-128153571D01*
X246714285Y-128153571D01*
X246500000Y-128225000D01*
X246357142Y-128367857D01*
X246285714Y-128510714D01*
X246214285Y-128796428D01*
X246214285Y-129010714D01*
X246285714Y-129296428D01*
X246357142Y-129439285D01*
X246500000Y-129582142D01*
X246714285Y-129653571D01*
X246857142Y-129653571D01*
X247071428Y-129582142D01*
X247142857Y-129510714D01*
X247142857Y-129010714D01*
X246857142Y-129010714D01*
X248928571Y-129653571D02*
X248928571Y-128153571D01*
X249428571Y-129225000D01*
X249928571Y-128153571D01*
X249928571Y-129653571D01*
X250642857Y-129653571D02*
X250642857Y-128153571D01*
X251214285Y-128153571D01*
X251357142Y-128225000D01*
X251428571Y-128296428D01*
X251500000Y-128439285D01*
X251500000Y-128653571D01*
X251428571Y-128796428D01*
X251357142Y-128867857D01*
X251214285Y-128939285D01*
X250642857Y-128939285D01*
X252428571Y-128153571D02*
X252571428Y-128153571D01*
X252714285Y-128225000D01*
X252785714Y-128296428D01*
X252857142Y-128439285D01*
X252928571Y-128725000D01*
X252928571Y-129082142D01*
X252857142Y-129367857D01*
X252785714Y-129510714D01*
X252714285Y-129582142D01*
X252571428Y-129653571D01*
X252428571Y-129653571D01*
X252285714Y-129582142D01*
X252214285Y-129510714D01*
X252142857Y-129367857D01*
X252071428Y-129082142D01*
X252071428Y-128725000D01*
X252142857Y-128439285D01*
X252214285Y-128296428D01*
X252285714Y-128225000D01*
X252428571Y-128153571D01*
X253500000Y-128296428D02*
X253571428Y-128225000D01*
X253714285Y-128153571D01*
X254071428Y-128153571D01*
X254214285Y-128225000D01*
X254285714Y-128296428D01*
X254357142Y-128439285D01*
X254357142Y-128582142D01*
X254285714Y-128796428D01*
X253428571Y-129653571D01*
X254357142Y-129653571D01*
X255785714Y-129653571D02*
X254928571Y-129653571D01*
X255357142Y-129653571D02*
X255357142Y-128153571D01*
X255214285Y-128367857D01*
X255071428Y-128510714D01*
X254928571Y-128582142D01*
X256285714Y-128153571D02*
X257285714Y-128153571D01*
X256642857Y-129653571D01*
X257857142Y-129653571D02*
X257857142Y-128153571D01*
X258714285Y-129653571D01*
X258714285Y-128153571D01*
X259357142Y-129582142D02*
X259571428Y-129653571D01*
X259928571Y-129653571D01*
X260071428Y-129582142D01*
X260142857Y-129510714D01*
X260214285Y-129367857D01*
X260214285Y-129225000D01*
X260142857Y-129082142D01*
X260071428Y-129010714D01*
X259928571Y-128939285D01*
X259642857Y-128867857D01*
X259500000Y-128796428D01*
X259428571Y-128725000D01*
X259357142Y-128582142D01*
X259357142Y-128439285D01*
X259428571Y-128296428D01*
X259500000Y-128225000D01*
X259642857Y-128153571D01*
X260000000Y-128153571D01*
X260214285Y-128225000D01*
X261142857Y-128153571D02*
X261285714Y-128153571D01*
X261428571Y-128225000D01*
X261500000Y-128296428D01*
X261571428Y-128439285D01*
X261642857Y-128725000D01*
X261642857Y-129082142D01*
X261571428Y-129367857D01*
X261500000Y-129510714D01*
X261428571Y-129582142D01*
X261285714Y-129653571D01*
X261142857Y-129653571D01*
X261000000Y-129582142D01*
X260928571Y-129510714D01*
X260857142Y-129367857D01*
X260785714Y-129082142D01*
X260785714Y-128725000D01*
X260857142Y-128439285D01*
X260928571Y-128296428D01*
X261000000Y-128225000D01*
X261142857Y-128153571D01*
X262571428Y-128153571D02*
X262714285Y-128153571D01*
X262857142Y-128225000D01*
X262928571Y-128296428D01*
X263000000Y-128439285D01*
X263071428Y-128725000D01*
X263071428Y-129082142D01*
X263000000Y-129367857D01*
X262928571Y-129510714D01*
X262857142Y-129582142D01*
X262714285Y-129653571D01*
X262571428Y-129653571D01*
X262428571Y-129582142D01*
X262357142Y-129510714D01*
X262285714Y-129367857D01*
X262214285Y-129082142D01*
X262214285Y-128725000D01*
X262285714Y-128439285D01*
X262357142Y-128296428D01*
X262428571Y-128225000D01*
X262571428Y-128153571D01*
X263642857Y-128296428D02*
X263714285Y-128225000D01*
X263857142Y-128153571D01*
X264214285Y-128153571D01*
X264357142Y-128225000D01*
X264428571Y-128296428D01*
X264500000Y-128439285D01*
X264500000Y-128582142D01*
X264428571Y-128796428D01*
X263571428Y-129653571D01*
X264500000Y-129653571D01*
X265071428Y-129225000D02*
X265785714Y-129225000D01*
X264928571Y-129653571D02*
X265428571Y-128153571D01*
X265928571Y-129653571D01*
X230214285Y-132203571D02*
X229500000Y-132203571D01*
X229500000Y-130703571D01*
X230714285Y-132203571D02*
X230714285Y-130703571D01*
X231214285Y-130703571D02*
X232071428Y-130703571D01*
X231642857Y-132203571D02*
X231642857Y-130703571D01*
X232571428Y-132203571D02*
X232571428Y-130703571D01*
X232571428Y-131417857D02*
X233428571Y-131417857D01*
X233428571Y-132203571D02*
X233428571Y-130703571D01*
X234142857Y-132203571D02*
X234142857Y-130703571D01*
X234857142Y-130703571D02*
X234857142Y-131917857D01*
X234928571Y-132060714D01*
X235000000Y-132132142D01*
X235142857Y-132203571D01*
X235428571Y-132203571D01*
X235571428Y-132132142D01*
X235642857Y-132060714D01*
X235714285Y-131917857D01*
X235714285Y-130703571D01*
X236428571Y-132203571D02*
X236428571Y-130703571D01*
X236928571Y-131775000D01*
X237428571Y-130703571D01*
X237428571Y-132203571D01*
X239285714Y-132203571D02*
X239285714Y-130703571D01*
X239785714Y-131775000D01*
X240285714Y-130703571D01*
X240285714Y-132203571D01*
X241285714Y-130703571D02*
X241571428Y-130703571D01*
X241714285Y-130775000D01*
X241857142Y-130917857D01*
X241928571Y-131203571D01*
X241928571Y-131703571D01*
X241857142Y-131989285D01*
X241714285Y-132132142D01*
X241571428Y-132203571D01*
X241285714Y-132203571D01*
X241142857Y-132132142D01*
X241000000Y-131989285D01*
X240928571Y-131703571D01*
X240928571Y-131203571D01*
X241000000Y-130917857D01*
X241142857Y-130775000D01*
X241285714Y-130703571D01*
X242571428Y-132203571D02*
X242571428Y-130703571D01*
X242928571Y-130703571D01*
X243142857Y-130775000D01*
X243285714Y-130917857D01*
X243357142Y-131060714D01*
X243428571Y-131346428D01*
X243428571Y-131560714D01*
X243357142Y-131846428D01*
X243285714Y-131989285D01*
X243142857Y-132132142D01*
X242928571Y-132203571D01*
X242571428Y-132203571D01*
X244071428Y-130703571D02*
X244071428Y-131917857D01*
X244142857Y-132060714D01*
X244214285Y-132132142D01*
X244357142Y-132203571D01*
X244642857Y-132203571D01*
X244785714Y-132132142D01*
X244857142Y-132060714D01*
X244928571Y-131917857D01*
X244928571Y-130703571D01*
X246357142Y-132203571D02*
X245642857Y-132203571D01*
X245642857Y-130703571D01*
X246857142Y-131417857D02*
X247357142Y-131417857D01*
X247571428Y-132203571D02*
X246857142Y-132203571D01*
X246857142Y-130703571D01*
X247571428Y-130703571D01*
X248142857Y-132132142D02*
X248357142Y-132203571D01*
X248714285Y-132203571D01*
X248857142Y-132132142D01*
X248928571Y-132060714D01*
X249000000Y-131917857D01*
X249000000Y-131775000D01*
X248928571Y-131632142D01*
X248857142Y-131560714D01*
X248714285Y-131489285D01*
X248428571Y-131417857D01*
X248285714Y-131346428D01*
X248214285Y-131275000D01*
X248142857Y-131132142D01*
X248142857Y-130989285D01*
X248214285Y-130846428D01*
X248285714Y-130775000D01*
X248428571Y-130703571D01*
X248785714Y-130703571D01*
X249000000Y-130775000D01*
X251214285Y-132775000D02*
X251142857Y-132703571D01*
X251000000Y-132489285D01*
X250928571Y-132346428D01*
X250857142Y-132132142D01*
X250785714Y-131775000D01*
X250785714Y-131489285D01*
X250857142Y-131132142D01*
X250928571Y-130917857D01*
X251000000Y-130775000D01*
X251142857Y-130560714D01*
X251214285Y-130489285D01*
X252500000Y-132203571D02*
X251785714Y-132203571D01*
X251785714Y-130703571D01*
X252857142Y-130703571D02*
X253857142Y-132203571D01*
X253857142Y-130703571D02*
X252857142Y-132203571D01*
X255071428Y-130703571D02*
X254785714Y-130703571D01*
X254642857Y-130775000D01*
X254571428Y-130846428D01*
X254428571Y-131060714D01*
X254357142Y-131346428D01*
X254357142Y-131917857D01*
X254428571Y-132060714D01*
X254500000Y-132132142D01*
X254642857Y-132203571D01*
X254928571Y-132203571D01*
X255071428Y-132132142D01*
X255142857Y-132060714D01*
X255214285Y-131917857D01*
X255214285Y-131560714D01*
X255142857Y-131417857D01*
X255071428Y-131346428D01*
X254928571Y-131275000D01*
X254642857Y-131275000D01*
X254500000Y-131346428D01*
X254428571Y-131417857D01*
X254357142Y-131560714D01*
X256071428Y-131346428D02*
X255928571Y-131275000D01*
X255857142Y-131203571D01*
X255785714Y-131060714D01*
X255785714Y-130989285D01*
X255857142Y-130846428D01*
X255928571Y-130775000D01*
X256071428Y-130703571D01*
X256357142Y-130703571D01*
X256500000Y-130775000D01*
X256571428Y-130846428D01*
X256642857Y-130989285D01*
X256642857Y-131060714D01*
X256571428Y-131203571D01*
X256500000Y-131275000D01*
X256357142Y-131346428D01*
X256071428Y-131346428D01*
X255928571Y-131417857D01*
X255857142Y-131489285D01*
X255785714Y-131632142D01*
X255785714Y-131917857D01*
X255857142Y-132060714D01*
X255928571Y-132132142D01*
X256071428Y-132203571D01*
X256357142Y-132203571D01*
X256500000Y-132132142D01*
X256571428Y-132060714D01*
X256642857Y-131917857D01*
X256642857Y-131632142D01*
X256571428Y-131489285D01*
X256500000Y-131417857D01*
X256357142Y-131346428D01*
X257285714Y-131632142D02*
X258428571Y-131632142D01*
X259928571Y-132203571D02*
X259071428Y-132203571D01*
X259500000Y-132203571D02*
X259500000Y-130703571D01*
X259357142Y-130917857D01*
X259214285Y-131060714D01*
X259071428Y-131132142D01*
X260857142Y-130703571D02*
X261000000Y-130703571D01*
X261142857Y-130775000D01*
X261214285Y-130846428D01*
X261285714Y-130989285D01*
X261357142Y-131275000D01*
X261357142Y-131632142D01*
X261285714Y-131917857D01*
X261214285Y-132060714D01*
X261142857Y-132132142D01*
X261000000Y-132203571D01*
X260857142Y-132203571D01*
X260714285Y-132132142D01*
X260642857Y-132060714D01*
X260571428Y-131917857D01*
X260500000Y-131632142D01*
X260500000Y-131275000D01*
X260571428Y-130989285D01*
X260642857Y-130846428D01*
X260714285Y-130775000D01*
X260857142Y-130703571D01*
X262214285Y-131346428D02*
X262071428Y-131275000D01*
X262000000Y-131203571D01*
X261928571Y-131060714D01*
X261928571Y-130989285D01*
X262000000Y-130846428D01*
X262071428Y-130775000D01*
X262214285Y-130703571D01*
X262500000Y-130703571D01*
X262642857Y-130775000D01*
X262714285Y-130846428D01*
X262785714Y-130989285D01*
X262785714Y-131060714D01*
X262714285Y-131203571D01*
X262642857Y-131275000D01*
X262500000Y-131346428D01*
X262214285Y-131346428D01*
X262071428Y-131417857D01*
X262000000Y-131489285D01*
X261928571Y-131632142D01*
X261928571Y-131917857D01*
X262000000Y-132060714D01*
X262071428Y-132132142D01*
X262214285Y-132203571D01*
X262500000Y-132203571D01*
X262642857Y-132132142D01*
X262714285Y-132060714D01*
X262785714Y-131917857D01*
X262785714Y-131632142D01*
X262714285Y-131489285D01*
X262642857Y-131417857D01*
X262500000Y-131346428D01*
X263285714Y-130703571D02*
X264285714Y-130703571D01*
X263642857Y-132203571D01*
X265571428Y-130703571D02*
X264857142Y-130703571D01*
X264785714Y-131417857D01*
X264857142Y-131346428D01*
X265000000Y-131275000D01*
X265357142Y-131275000D01*
X265500000Y-131346428D01*
X265571428Y-131417857D01*
X265642857Y-131560714D01*
X265642857Y-131917857D01*
X265571428Y-132060714D01*
X265500000Y-132132142D01*
X265357142Y-132203571D01*
X265000000Y-132203571D01*
X264857142Y-132132142D01*
X264785714Y-132060714D01*
X266357142Y-132203571D02*
X266642857Y-132203571D01*
X266785714Y-132132142D01*
X266857142Y-132060714D01*
X267000000Y-131846428D01*
X267071428Y-131560714D01*
X267071428Y-130989285D01*
X267000000Y-130846428D01*
X266928571Y-130775000D01*
X266785714Y-130703571D01*
X266500000Y-130703571D01*
X266357142Y-130775000D01*
X266285714Y-130846428D01*
X266214285Y-130989285D01*
X266214285Y-131346428D01*
X266285714Y-131489285D01*
X266357142Y-131560714D01*
X266500000Y-131632142D01*
X266785714Y-131632142D01*
X266928571Y-131560714D01*
X267000000Y-131489285D01*
X267071428Y-131346428D01*
X267571428Y-132775000D02*
X267642857Y-132703571D01*
X267785714Y-132489285D01*
X267857142Y-132346428D01*
X267928571Y-132132142D01*
X267999999Y-131775000D01*
X267999999Y-131489285D01*
X267928571Y-131132142D01*
X267857142Y-130917857D01*
X267785714Y-130775000D01*
X267642857Y-130560714D01*
X267571428Y-130489285D01*
X230928571Y-134325000D02*
X231642857Y-134325000D01*
X230785714Y-134753571D02*
X231285714Y-133253571D01*
X231785714Y-134753571D01*
X232285714Y-134610714D02*
X232357142Y-134682142D01*
X232285714Y-134753571D01*
X232214285Y-134682142D01*
X232285714Y-134610714D01*
X232285714Y-134753571D01*
X233000000Y-134753571D02*
X233000000Y-133253571D01*
X233857142Y-134753571D02*
X233214285Y-133896428D01*
X233857142Y-133253571D02*
X233000000Y-134110714D01*
X234500000Y-134610714D02*
X234571428Y-134682142D01*
X234500000Y-134753571D01*
X234428571Y-134682142D01*
X234500000Y-134610714D01*
X234500000Y-134753571D01*
X235142857Y-134325000D02*
X235857142Y-134325000D01*
X235000000Y-134753571D02*
X235500000Y-133253571D01*
X236000000Y-134753571D01*
X236500000Y-134610714D02*
X236571428Y-134682142D01*
X236500000Y-134753571D01*
X236428571Y-134682142D01*
X236500000Y-134610714D01*
X236500000Y-134753571D01*
X238285714Y-133253571D02*
X238285714Y-133539285D01*
X238857142Y-133253571D02*
X238857142Y-133539285D01*
X240142857Y-133753571D02*
X240142857Y-134753571D01*
X239785714Y-133182142D02*
X239428571Y-134253571D01*
X240357142Y-134253571D01*
X240785714Y-133253571D02*
X241785714Y-133253571D01*
X241142857Y-134753571D01*
X243428571Y-134325000D02*
X244142857Y-134325000D01*
X243285714Y-134753571D02*
X243785714Y-133253571D01*
X244285714Y-134753571D01*
X244785714Y-134753571D02*
X244785714Y-133253571D01*
X245428571Y-134753571D02*
X245428571Y-133967857D01*
X245357142Y-133825000D01*
X245214285Y-133753571D01*
X245000000Y-133753571D01*
X244857142Y-133825000D01*
X244785714Y-133896428D01*
X247785714Y-133967857D02*
X247285714Y-133967857D01*
X247285714Y-134753571D02*
X247285714Y-133253571D01*
X248000000Y-133253571D01*
X248785714Y-134753571D02*
X248642857Y-134682142D01*
X248571428Y-134610714D01*
X248500000Y-134467857D01*
X248500000Y-134039285D01*
X248571428Y-133896428D01*
X248642857Y-133825000D01*
X248785714Y-133753571D01*
X249000000Y-133753571D01*
X249142857Y-133825000D01*
X249214285Y-133896428D01*
X249285714Y-134039285D01*
X249285714Y-134467857D01*
X249214285Y-134610714D01*
X249142857Y-134682142D01*
X249000000Y-134753571D01*
X248785714Y-134753571D01*
X249928571Y-134753571D02*
X249928571Y-133253571D01*
X250428571Y-134325000D01*
X250928571Y-133253571D01*
X250928571Y-134753571D01*
X251857142Y-134753571D02*
X251714285Y-134682142D01*
X251642857Y-134610714D01*
X251571428Y-134467857D01*
X251571428Y-134039285D01*
X251642857Y-133896428D01*
X251714285Y-133825000D01*
X251857142Y-133753571D01*
X252071428Y-133753571D01*
X252214285Y-133825000D01*
X252285714Y-133896428D01*
X252357142Y-134039285D01*
X252357142Y-134467857D01*
X252285714Y-134610714D01*
X252214285Y-134682142D01*
X252071428Y-134753571D01*
X251857142Y-134753571D01*
X253857142Y-134610714D02*
X253785714Y-134682142D01*
X253571428Y-134753571D01*
X253428571Y-134753571D01*
X253214285Y-134682142D01*
X253071428Y-134539285D01*
X253000000Y-134396428D01*
X252928571Y-134110714D01*
X252928571Y-133896428D01*
X253000000Y-133610714D01*
X253071428Y-133467857D01*
X253214285Y-133325000D01*
X253428571Y-133253571D01*
X253571428Y-133253571D01*
X253785714Y-133325000D01*
X253857142Y-133396428D01*
X254714285Y-134753571D02*
X254571428Y-134682142D01*
X254500000Y-134610714D01*
X254428571Y-134467857D01*
X254428571Y-134039285D01*
X254500000Y-133896428D01*
X254571428Y-133825000D01*
X254714285Y-133753571D01*
X254928571Y-133753571D01*
X255071428Y-133825000D01*
X255142857Y-133896428D01*
X255214285Y-134039285D01*
X255214285Y-134467857D01*
X255142857Y-134610714D01*
X255071428Y-134682142D01*
X254928571Y-134753571D01*
X254714285Y-134753571D01*
X257000000Y-134753571D02*
X257000000Y-133253571D01*
X257500000Y-134325000D01*
X258000000Y-133253571D01*
X258000000Y-134753571D01*
X258928571Y-134753571D02*
X258785714Y-134682142D01*
X258714285Y-134610714D01*
X258642857Y-134467857D01*
X258642857Y-134039285D01*
X258714285Y-133896428D01*
X258785714Y-133825000D01*
X258928571Y-133753571D01*
X259142857Y-133753571D01*
X259285714Y-133825000D01*
X259357142Y-133896428D01*
X259428571Y-134039285D01*
X259428571Y-134467857D01*
X259357142Y-134610714D01*
X259285714Y-134682142D01*
X259142857Y-134753571D01*
X258928571Y-134753571D01*
X260714285Y-134753571D02*
X260714285Y-133253571D01*
X260714285Y-134682142D02*
X260571428Y-134753571D01*
X260285714Y-134753571D01*
X260142857Y-134682142D01*
X260071428Y-134610714D01*
X260000000Y-134467857D01*
X260000000Y-134039285D01*
X260071428Y-133896428D01*
X260142857Y-133825000D01*
X260285714Y-133753571D01*
X260571428Y-133753571D01*
X260714285Y-133825000D01*
X262071428Y-133753571D02*
X262071428Y-134753571D01*
X261428571Y-133753571D02*
X261428571Y-134539285D01*
X261500000Y-134682142D01*
X261642857Y-134753571D01*
X261857142Y-134753571D01*
X262000000Y-134682142D01*
X262071428Y-134610714D01*
X263000000Y-134753571D02*
X262857142Y-134682142D01*
X262785714Y-134539285D01*
X262785714Y-133253571D01*
X264142857Y-134682142D02*
X264000000Y-134753571D01*
X263714285Y-134753571D01*
X263571428Y-134682142D01*
X263500000Y-134539285D01*
X263500000Y-133967857D01*
X263571428Y-133825000D01*
X263714285Y-133753571D01*
X264000000Y-133753571D01*
X264142857Y-133825000D01*
X264214285Y-133967857D01*
X264214285Y-134110714D01*
X263500000Y-134253571D01*
X264785714Y-134682142D02*
X264928571Y-134753571D01*
X265214285Y-134753571D01*
X265357142Y-134682142D01*
X265428571Y-134539285D01*
X265428571Y-134467857D01*
X265357142Y-134325000D01*
X265214285Y-134253571D01*
X265000000Y-134253571D01*
X264857142Y-134182142D01*
X264785714Y-134039285D01*
X264785714Y-133967857D01*
X264857142Y-133825000D01*
X265000000Y-133753571D01*
X265214285Y-133753571D01*
X265357142Y-133825000D01*
X266000000Y-133253571D02*
X266000000Y-133539285D01*
X266571428Y-133253571D02*
X266571428Y-133539285D01*
X130750000Y-104628571D02*
X130750000Y-103128571D01*
X131250000Y-104200000D01*
X131750000Y-103128571D01*
X131750000Y-104628571D01*
X132392857Y-104200000D02*
X133107142Y-104200000D01*
X132250000Y-104628571D02*
X132750000Y-103128571D01*
X133250000Y-104628571D01*
X134535714Y-103200000D02*
X134392857Y-103128571D01*
X134178571Y-103128571D01*
X133964285Y-103200000D01*
X133821428Y-103342857D01*
X133750000Y-103485714D01*
X133678571Y-103771428D01*
X133678571Y-103985714D01*
X133750000Y-104271428D01*
X133821428Y-104414285D01*
X133964285Y-104557142D01*
X134178571Y-104628571D01*
X134321428Y-104628571D01*
X134535714Y-104557142D01*
X134607142Y-104485714D01*
X134607142Y-103985714D01*
X134321428Y-103985714D01*
X135250000Y-104628571D02*
X135250000Y-103128571D01*
X136821428Y-104485714D02*
X136750000Y-104557142D01*
X136535714Y-104628571D01*
X136392857Y-104628571D01*
X136178571Y-104557142D01*
X136035714Y-104414285D01*
X135964285Y-104271428D01*
X135892857Y-103985714D01*
X135892857Y-103771428D01*
X135964285Y-103485714D01*
X136035714Y-103342857D01*
X136178571Y-103200000D01*
X136392857Y-103128571D01*
X136535714Y-103128571D01*
X136750000Y-103200000D01*
X136821428Y-103271428D01*
X130250000Y-107107142D02*
X130464285Y-107178571D01*
X130821428Y-107178571D01*
X130964285Y-107107142D01*
X131035714Y-107035714D01*
X131107142Y-106892857D01*
X131107142Y-106750000D01*
X131035714Y-106607142D01*
X130964285Y-106535714D01*
X130821428Y-106464285D01*
X130535714Y-106392857D01*
X130392857Y-106321428D01*
X130321428Y-106250000D01*
X130250000Y-106107142D01*
X130250000Y-105964285D01*
X130321428Y-105821428D01*
X130392857Y-105750000D01*
X130535714Y-105678571D01*
X130892857Y-105678571D01*
X131107142Y-105750000D01*
X131750000Y-107178571D02*
X131750000Y-105678571D01*
X132250000Y-106750000D01*
X132750000Y-105678571D01*
X132750000Y-107178571D01*
X133750000Y-105678571D02*
X134035714Y-105678571D01*
X134178571Y-105750000D01*
X134321428Y-105892857D01*
X134392857Y-106178571D01*
X134392857Y-106678571D01*
X134321428Y-106964285D01*
X134178571Y-107107142D01*
X134035714Y-107178571D01*
X133750000Y-107178571D01*
X133607142Y-107107142D01*
X133464285Y-106964285D01*
X133392857Y-106678571D01*
X133392857Y-106178571D01*
X133464285Y-105892857D01*
X133607142Y-105750000D01*
X133750000Y-105678571D01*
X135035714Y-107178571D02*
X135035714Y-105678571D01*
X135892857Y-107178571D02*
X135250000Y-106321428D01*
X135892857Y-105678571D02*
X135035714Y-106535714D01*
X136535714Y-106392857D02*
X137035714Y-106392857D01*
X137250000Y-107178571D02*
X136535714Y-107178571D01*
X136535714Y-105678571D01*
X137250000Y-105678571D01*
X131250000Y-109728571D02*
X131250000Y-108228571D01*
X131250000Y-108942857D02*
X132107142Y-108942857D01*
X132107142Y-109728571D02*
X132107142Y-108228571D01*
X133107142Y-108228571D02*
X133392857Y-108228571D01*
X133535714Y-108300000D01*
X133678571Y-108442857D01*
X133750000Y-108728571D01*
X133750000Y-109228571D01*
X133678571Y-109514285D01*
X133535714Y-109657142D01*
X133392857Y-109728571D01*
X133107142Y-109728571D01*
X132964285Y-109657142D01*
X132821428Y-109514285D01*
X132750000Y-109228571D01*
X132750000Y-108728571D01*
X132821428Y-108442857D01*
X132964285Y-108300000D01*
X133107142Y-108228571D01*
X135107142Y-109728571D02*
X134392857Y-109728571D01*
X134392857Y-108228571D01*
X135607142Y-108942857D02*
X136107142Y-108942857D01*
X136321428Y-109728571D02*
X135607142Y-109728571D01*
X135607142Y-108228571D01*
X136321428Y-108228571D01*
X314214285Y-125285714D02*
X314142857Y-125357142D01*
X313928571Y-125428571D01*
X313785714Y-125428571D01*
X313571428Y-125357142D01*
X313428571Y-125214285D01*
X313357142Y-125071428D01*
X313285714Y-124785714D01*
X313285714Y-124571428D01*
X313357142Y-124285714D01*
X313428571Y-124142857D01*
X313571428Y-124000000D01*
X313785714Y-123928571D01*
X313928571Y-123928571D01*
X314142857Y-124000000D01*
X314214285Y-124071428D01*
X314857142Y-124642857D02*
X315357142Y-124642857D01*
X315571428Y-125428571D02*
X314857142Y-125428571D01*
X314857142Y-123928571D01*
X315571428Y-123928571D01*
X316928571Y-125428571D02*
X316214285Y-125428571D01*
X316214285Y-123928571D01*
X318142857Y-125428571D02*
X317428571Y-125428571D01*
X317428571Y-123928571D01*
X319428571Y-125428571D02*
X318571428Y-125428571D01*
X319000000Y-125428571D02*
X319000000Y-123928571D01*
X318857142Y-124142857D01*
X318714285Y-124285714D01*
X318571428Y-124357142D01*
X320857142Y-125428571D02*
X320000000Y-125428571D01*
X320428571Y-125428571D02*
X320428571Y-123928571D01*
X320285714Y-124142857D01*
X320142857Y-124285714D01*
X320000000Y-124357142D01*
X321500000Y-124857142D02*
X322642857Y-124857142D01*
X322071428Y-125428571D02*
X322071428Y-124285714D01*
X272928571Y-125285714D02*
X272857142Y-125357142D01*
X272642857Y-125428571D01*
X272500000Y-125428571D01*
X272285714Y-125357142D01*
X272142857Y-125214285D01*
X272071428Y-125071428D01*
X272000000Y-124785714D01*
X272000000Y-124571428D01*
X272071428Y-124285714D01*
X272142857Y-124142857D01*
X272285714Y-124000000D01*
X272500000Y-123928571D01*
X272642857Y-123928571D01*
X272857142Y-124000000D01*
X272928571Y-124071428D01*
X273571428Y-124642857D02*
X274071428Y-124642857D01*
X274285714Y-125428571D02*
X273571428Y-125428571D01*
X273571428Y-123928571D01*
X274285714Y-123928571D01*
X275642857Y-125428571D02*
X274928571Y-125428571D01*
X274928571Y-123928571D01*
X276857142Y-125428571D02*
X276142857Y-125428571D01*
X276142857Y-123928571D01*
X277428571Y-125428571D02*
X277714285Y-125428571D01*
X277857142Y-125357142D01*
X277928571Y-125285714D01*
X278071428Y-125071428D01*
X278142857Y-124785714D01*
X278142857Y-124214285D01*
X278071428Y-124071428D01*
X278000000Y-124000000D01*
X277857142Y-123928571D01*
X277571428Y-123928571D01*
X277428571Y-124000000D01*
X277357142Y-124071428D01*
X277285714Y-124214285D01*
X277285714Y-124571428D01*
X277357142Y-124714285D01*
X277428571Y-124785714D01*
X277571428Y-124857142D01*
X277857142Y-124857142D01*
X278000000Y-124785714D01*
X278071428Y-124714285D01*
X278142857Y-124571428D01*
X278785714Y-124857142D02*
X279928571Y-124857142D01*
X279357142Y-125428571D02*
X279357142Y-124285714D01*
X218928571Y-125285714D02*
X218857142Y-125357142D01*
X218642857Y-125428571D01*
X218500000Y-125428571D01*
X218285714Y-125357142D01*
X218142857Y-125214285D01*
X218071428Y-125071428D01*
X218000000Y-124785714D01*
X218000000Y-124571428D01*
X218071428Y-124285714D01*
X218142857Y-124142857D01*
X218285714Y-124000000D01*
X218500000Y-123928571D01*
X218642857Y-123928571D01*
X218857142Y-124000000D01*
X218928571Y-124071428D01*
X219571428Y-124642857D02*
X220071428Y-124642857D01*
X220285714Y-125428571D02*
X219571428Y-125428571D01*
X219571428Y-123928571D01*
X220285714Y-123928571D01*
X221642857Y-125428571D02*
X220928571Y-125428571D01*
X220928571Y-123928571D01*
X222857142Y-125428571D02*
X222142857Y-125428571D01*
X222142857Y-123928571D01*
X223214285Y-123928571D02*
X224214285Y-123928571D01*
X223571428Y-125428571D01*
X224785714Y-124857142D02*
X225928571Y-124857142D01*
X225357142Y-125428571D02*
X225357142Y-124285714D01*
X163678571Y-125285714D02*
X163607142Y-125357142D01*
X163392857Y-125428571D01*
X163250000Y-125428571D01*
X163035714Y-125357142D01*
X162892857Y-125214285D01*
X162821428Y-125071428D01*
X162750000Y-124785714D01*
X162750000Y-124571428D01*
X162821428Y-124285714D01*
X162892857Y-124142857D01*
X163035714Y-124000000D01*
X163250000Y-123928571D01*
X163392857Y-123928571D01*
X163607142Y-124000000D01*
X163678571Y-124071428D01*
X164321428Y-124642857D02*
X164821428Y-124642857D01*
X165035714Y-125428571D02*
X164321428Y-125428571D01*
X164321428Y-123928571D01*
X165035714Y-123928571D01*
X166392857Y-125428571D02*
X165678571Y-125428571D01*
X165678571Y-123928571D01*
X167607142Y-125428571D02*
X166892857Y-125428571D01*
X166892857Y-123928571D01*
X168821428Y-123928571D02*
X168107142Y-123928571D01*
X168035714Y-124642857D01*
X168107142Y-124571428D01*
X168250000Y-124500000D01*
X168607142Y-124500000D01*
X168750000Y-124571428D01*
X168821428Y-124642857D01*
X168892857Y-124785714D01*
X168892857Y-125142857D01*
X168821428Y-125285714D01*
X168750000Y-125357142D01*
X168607142Y-125428571D01*
X168250000Y-125428571D01*
X168107142Y-125357142D01*
X168035714Y-125285714D01*
X169535714Y-124857142D02*
X170678571Y-124857142D01*
X170107142Y-125428571D02*
X170107142Y-124285714D01*
X109678571Y-125285714D02*
X109607142Y-125357142D01*
X109392857Y-125428571D01*
X109250000Y-125428571D01*
X109035714Y-125357142D01*
X108892857Y-125214285D01*
X108821428Y-125071428D01*
X108750000Y-124785714D01*
X108750000Y-124571428D01*
X108821428Y-124285714D01*
X108892857Y-124142857D01*
X109035714Y-124000000D01*
X109250000Y-123928571D01*
X109392857Y-123928571D01*
X109607142Y-124000000D01*
X109678571Y-124071428D01*
X110321428Y-124642857D02*
X110821428Y-124642857D01*
X111035714Y-125428571D02*
X110321428Y-125428571D01*
X110321428Y-123928571D01*
X111035714Y-123928571D01*
X112392857Y-125428571D02*
X111678571Y-125428571D01*
X111678571Y-123928571D01*
X113607142Y-125428571D02*
X112892857Y-125428571D01*
X112892857Y-123928571D01*
X113964285Y-123928571D02*
X114892857Y-123928571D01*
X114392857Y-124500000D01*
X114607142Y-124500000D01*
X114750000Y-124571428D01*
X114821428Y-124642857D01*
X114892857Y-124785714D01*
X114892857Y-125142857D01*
X114821428Y-125285714D01*
X114750000Y-125357142D01*
X114607142Y-125428571D01*
X114178571Y-125428571D01*
X114035714Y-125357142D01*
X113964285Y-125285714D01*
X115535714Y-124857142D02*
X116678571Y-124857142D01*
X116107142Y-125428571D02*
X116107142Y-124285714D01*
X72928571Y-125285714D02*
X72857142Y-125357142D01*
X72642857Y-125428571D01*
X72500000Y-125428571D01*
X72285714Y-125357142D01*
X72142857Y-125214285D01*
X72071428Y-125071428D01*
X72000000Y-124785714D01*
X72000000Y-124571428D01*
X72071428Y-124285714D01*
X72142857Y-124142857D01*
X72285714Y-124000000D01*
X72500000Y-123928571D01*
X72642857Y-123928571D01*
X72857142Y-124000000D01*
X72928571Y-124071428D01*
X73571428Y-124642857D02*
X74071428Y-124642857D01*
X74285714Y-125428571D02*
X73571428Y-125428571D01*
X73571428Y-123928571D01*
X74285714Y-123928571D01*
X75642857Y-125428571D02*
X74928571Y-125428571D01*
X74928571Y-123928571D01*
X76857142Y-125428571D02*
X76142857Y-125428571D01*
X76142857Y-123928571D01*
X78142857Y-125428571D02*
X77285714Y-125428571D01*
X77714285Y-125428571D02*
X77714285Y-123928571D01*
X77571428Y-124142857D01*
X77428571Y-124285714D01*
X77285714Y-124357142D01*
X78785714Y-124857142D02*
X79928571Y-124857142D01*
X79357142Y-125428571D02*
X79357142Y-124285714D01*
X313714285Y-88285714D02*
X313642857Y-88357142D01*
X313428571Y-88428571D01*
X313285714Y-88428571D01*
X313071428Y-88357142D01*
X312928571Y-88214285D01*
X312857142Y-88071428D01*
X312785714Y-87785714D01*
X312785714Y-87571428D01*
X312857142Y-87285714D01*
X312928571Y-87142857D01*
X313071428Y-87000000D01*
X313285714Y-86928571D01*
X313428571Y-86928571D01*
X313642857Y-87000000D01*
X313714285Y-87071428D01*
X314357142Y-87642857D02*
X314857142Y-87642857D01*
X315071428Y-88428571D02*
X314357142Y-88428571D01*
X314357142Y-86928571D01*
X315071428Y-86928571D01*
X316428571Y-88428571D02*
X315714285Y-88428571D01*
X315714285Y-86928571D01*
X317642857Y-88428571D02*
X316928571Y-88428571D01*
X316928571Y-86928571D01*
X318928571Y-88428571D02*
X318071428Y-88428571D01*
X318500000Y-88428571D02*
X318500000Y-86928571D01*
X318357142Y-87142857D01*
X318214285Y-87285714D01*
X318071428Y-87357142D01*
X319500000Y-87071428D02*
X319571428Y-87000000D01*
X319714285Y-86928571D01*
X320071428Y-86928571D01*
X320214285Y-87000000D01*
X320285714Y-87071428D01*
X320357142Y-87214285D01*
X320357142Y-87357142D01*
X320285714Y-87571428D01*
X319428571Y-88428571D01*
X320357142Y-88428571D01*
X321000000Y-87857142D02*
X322142857Y-87857142D01*
X321571428Y-88428571D02*
X321571428Y-87285714D01*
X299214285Y-88285714D02*
X299142857Y-88357142D01*
X298928571Y-88428571D01*
X298785714Y-88428571D01*
X298571428Y-88357142D01*
X298428571Y-88214285D01*
X298357142Y-88071428D01*
X298285714Y-87785714D01*
X298285714Y-87571428D01*
X298357142Y-87285714D01*
X298428571Y-87142857D01*
X298571428Y-87000000D01*
X298785714Y-86928571D01*
X298928571Y-86928571D01*
X299142857Y-87000000D01*
X299214285Y-87071428D01*
X299857142Y-87642857D02*
X300357142Y-87642857D01*
X300571428Y-88428571D02*
X299857142Y-88428571D01*
X299857142Y-86928571D01*
X300571428Y-86928571D01*
X301928571Y-88428571D02*
X301214285Y-88428571D01*
X301214285Y-86928571D01*
X303142857Y-88428571D02*
X302428571Y-88428571D01*
X302428571Y-86928571D01*
X304428571Y-88428571D02*
X303571428Y-88428571D01*
X304000000Y-88428571D02*
X304000000Y-86928571D01*
X303857142Y-87142857D01*
X303714285Y-87285714D01*
X303571428Y-87357142D01*
X305357142Y-86928571D02*
X305500000Y-86928571D01*
X305642857Y-87000000D01*
X305714285Y-87071428D01*
X305785714Y-87214285D01*
X305857142Y-87500000D01*
X305857142Y-87857142D01*
X305785714Y-88142857D01*
X305714285Y-88285714D01*
X305642857Y-88357142D01*
X305500000Y-88428571D01*
X305357142Y-88428571D01*
X305214285Y-88357142D01*
X305142857Y-88285714D01*
X305071428Y-88142857D01*
X305000000Y-87857142D01*
X305000000Y-87500000D01*
X305071428Y-87214285D01*
X305142857Y-87071428D01*
X305214285Y-87000000D01*
X305357142Y-86928571D01*
X306500000Y-87857142D02*
X307642857Y-87857142D01*
X307071428Y-88428571D02*
X307071428Y-87285714D01*
X245178571Y-88285714D02*
X245107142Y-88357142D01*
X244892857Y-88428571D01*
X244750000Y-88428571D01*
X244535714Y-88357142D01*
X244392857Y-88214285D01*
X244321428Y-88071428D01*
X244250000Y-87785714D01*
X244250000Y-87571428D01*
X244321428Y-87285714D01*
X244392857Y-87142857D01*
X244535714Y-87000000D01*
X244750000Y-86928571D01*
X244892857Y-86928571D01*
X245107142Y-87000000D01*
X245178571Y-87071428D01*
X245821428Y-87642857D02*
X246321428Y-87642857D01*
X246535714Y-88428571D02*
X245821428Y-88428571D01*
X245821428Y-86928571D01*
X246535714Y-86928571D01*
X247892857Y-88428571D02*
X247178571Y-88428571D01*
X247178571Y-86928571D01*
X249107142Y-88428571D02*
X248392857Y-88428571D01*
X248392857Y-86928571D01*
X249821428Y-87571428D02*
X249678571Y-87500000D01*
X249607142Y-87428571D01*
X249535714Y-87285714D01*
X249535714Y-87214285D01*
X249607142Y-87071428D01*
X249678571Y-87000000D01*
X249821428Y-86928571D01*
X250107142Y-86928571D01*
X250250000Y-87000000D01*
X250321428Y-87071428D01*
X250392857Y-87214285D01*
X250392857Y-87285714D01*
X250321428Y-87428571D01*
X250250000Y-87500000D01*
X250107142Y-87571428D01*
X249821428Y-87571428D01*
X249678571Y-87642857D01*
X249607142Y-87714285D01*
X249535714Y-87857142D01*
X249535714Y-88142857D01*
X249607142Y-88285714D01*
X249678571Y-88357142D01*
X249821428Y-88428571D01*
X250107142Y-88428571D01*
X250250000Y-88357142D01*
X250321428Y-88285714D01*
X250392857Y-88142857D01*
X250392857Y-87857142D01*
X250321428Y-87714285D01*
X250250000Y-87642857D01*
X250107142Y-87571428D01*
X251035714Y-87857142D02*
X252178571Y-87857142D01*
X251607142Y-88428571D02*
X251607142Y-87285714D01*
X190928571Y-88285714D02*
X190857142Y-88357142D01*
X190642857Y-88428571D01*
X190500000Y-88428571D01*
X190285714Y-88357142D01*
X190142857Y-88214285D01*
X190071428Y-88071428D01*
X190000000Y-87785714D01*
X190000000Y-87571428D01*
X190071428Y-87285714D01*
X190142857Y-87142857D01*
X190285714Y-87000000D01*
X190500000Y-86928571D01*
X190642857Y-86928571D01*
X190857142Y-87000000D01*
X190928571Y-87071428D01*
X191571428Y-87642857D02*
X192071428Y-87642857D01*
X192285714Y-88428571D02*
X191571428Y-88428571D01*
X191571428Y-86928571D01*
X192285714Y-86928571D01*
X193642857Y-88428571D02*
X192928571Y-88428571D01*
X192928571Y-86928571D01*
X194857142Y-88428571D02*
X194142857Y-88428571D01*
X194142857Y-86928571D01*
X196000000Y-86928571D02*
X195714285Y-86928571D01*
X195571428Y-87000000D01*
X195500000Y-87071428D01*
X195357142Y-87285714D01*
X195285714Y-87571428D01*
X195285714Y-88142857D01*
X195357142Y-88285714D01*
X195428571Y-88357142D01*
X195571428Y-88428571D01*
X195857142Y-88428571D01*
X196000000Y-88357142D01*
X196071428Y-88285714D01*
X196142857Y-88142857D01*
X196142857Y-87785714D01*
X196071428Y-87642857D01*
X196000000Y-87571428D01*
X195857142Y-87500000D01*
X195571428Y-87500000D01*
X195428571Y-87571428D01*
X195357142Y-87642857D01*
X195285714Y-87785714D01*
X196785714Y-87857142D02*
X197928571Y-87857142D01*
X197357142Y-88428571D02*
X197357142Y-87285714D01*
X136928571Y-88285714D02*
X136857142Y-88357142D01*
X136642857Y-88428571D01*
X136500000Y-88428571D01*
X136285714Y-88357142D01*
X136142857Y-88214285D01*
X136071428Y-88071428D01*
X136000000Y-87785714D01*
X136000000Y-87571428D01*
X136071428Y-87285714D01*
X136142857Y-87142857D01*
X136285714Y-87000000D01*
X136500000Y-86928571D01*
X136642857Y-86928571D01*
X136857142Y-87000000D01*
X136928571Y-87071428D01*
X137571428Y-87642857D02*
X138071428Y-87642857D01*
X138285714Y-88428571D02*
X137571428Y-88428571D01*
X137571428Y-86928571D01*
X138285714Y-86928571D01*
X139642857Y-88428571D02*
X138928571Y-88428571D01*
X138928571Y-86928571D01*
X140857142Y-88428571D02*
X140142857Y-88428571D01*
X140142857Y-86928571D01*
X142000000Y-87428571D02*
X142000000Y-88428571D01*
X141642857Y-86857142D02*
X141285714Y-87928571D01*
X142214285Y-87928571D01*
X142785714Y-87857142D02*
X143928571Y-87857142D01*
X143357142Y-88428571D02*
X143357142Y-87285714D01*
X83428571Y-88285714D02*
X83357142Y-88357142D01*
X83142857Y-88428571D01*
X83000000Y-88428571D01*
X82785714Y-88357142D01*
X82642857Y-88214285D01*
X82571428Y-88071428D01*
X82500000Y-87785714D01*
X82500000Y-87571428D01*
X82571428Y-87285714D01*
X82642857Y-87142857D01*
X82785714Y-87000000D01*
X83000000Y-86928571D01*
X83142857Y-86928571D01*
X83357142Y-87000000D01*
X83428571Y-87071428D01*
X84071428Y-87642857D02*
X84571428Y-87642857D01*
X84785714Y-88428571D02*
X84071428Y-88428571D01*
X84071428Y-86928571D01*
X84785714Y-86928571D01*
X86142857Y-88428571D02*
X85428571Y-88428571D01*
X85428571Y-86928571D01*
X87357142Y-88428571D02*
X86642857Y-88428571D01*
X86642857Y-86928571D01*
X87785714Y-87071428D02*
X87857142Y-87000000D01*
X88000000Y-86928571D01*
X88357142Y-86928571D01*
X88500000Y-87000000D01*
X88571428Y-87071428D01*
X88642857Y-87214285D01*
X88642857Y-87357142D01*
X88571428Y-87571428D01*
X87714285Y-88428571D01*
X88642857Y-88428571D01*
X89285714Y-87857142D02*
X90428571Y-87857142D01*
X89857142Y-88428571D02*
X89857142Y-87285714D01*
X67928571Y-88285714D02*
X67857142Y-88357142D01*
X67642857Y-88428571D01*
X67500000Y-88428571D01*
X67285714Y-88357142D01*
X67142857Y-88214285D01*
X67071428Y-88071428D01*
X67000000Y-87785714D01*
X67000000Y-87571428D01*
X67071428Y-87285714D01*
X67142857Y-87142857D01*
X67285714Y-87000000D01*
X67500000Y-86928571D01*
X67642857Y-86928571D01*
X67857142Y-87000000D01*
X67928571Y-87071428D01*
X68571428Y-87642857D02*
X69071428Y-87642857D01*
X69285714Y-88428571D02*
X68571428Y-88428571D01*
X68571428Y-86928571D01*
X69285714Y-86928571D01*
X70642857Y-88428571D02*
X69928571Y-88428571D01*
X69928571Y-86928571D01*
X71857142Y-88428571D02*
X71142857Y-88428571D01*
X71142857Y-86928571D01*
X73142857Y-88428571D02*
X72285714Y-88428571D01*
X72714285Y-88428571D02*
X72714285Y-86928571D01*
X72571428Y-87142857D01*
X72428571Y-87285714D01*
X72285714Y-87357142D01*
X73785714Y-87857142D02*
X74928571Y-87857142D01*
X349052142Y-110028571D02*
X349052142Y-108528571D01*
X349909285Y-110028571D01*
X349909285Y-108528571D01*
X351480714Y-109885714D02*
X351409285Y-109957142D01*
X351195000Y-110028571D01*
X351052142Y-110028571D01*
X350837857Y-109957142D01*
X350695000Y-109814285D01*
X350623571Y-109671428D01*
X350552142Y-109385714D01*
X350552142Y-109171428D01*
X350623571Y-108885714D01*
X350695000Y-108742857D01*
X350837857Y-108600000D01*
X351052142Y-108528571D01*
X351195000Y-108528571D01*
X351409285Y-108600000D01*
X351480714Y-108671428D01*
X349837857Y-112578571D02*
X348980714Y-112578571D01*
X349409285Y-112578571D02*
X349409285Y-111078571D01*
X349266428Y-111292857D01*
X349123571Y-111435714D01*
X348980714Y-111507142D01*
X351266428Y-112578571D02*
X350409285Y-112578571D01*
X350837857Y-112578571D02*
X350837857Y-111078571D01*
X350695000Y-111292857D01*
X350552142Y-111435714D01*
X350409285Y-111507142D01*
X351909285Y-112007142D02*
X353052142Y-112007142D01*
X352480714Y-112578571D02*
X352480714Y-111435714D01*
X349123571Y-115128571D02*
X349409285Y-115128571D01*
X349552142Y-115057142D01*
X349623571Y-114985714D01*
X349766428Y-114771428D01*
X349837857Y-114485714D01*
X349837857Y-113914285D01*
X349766428Y-113771428D01*
X349695000Y-113700000D01*
X349552142Y-113628571D01*
X349266428Y-113628571D01*
X349123571Y-113700000D01*
X349052142Y-113771428D01*
X348980714Y-113914285D01*
X348980714Y-114271428D01*
X349052142Y-114414285D01*
X349123571Y-114485714D01*
X349266428Y-114557142D01*
X349552142Y-114557142D01*
X349695000Y-114485714D01*
X349766428Y-114414285D01*
X349837857Y-114271428D01*
X350480714Y-114557142D02*
X351623571Y-114557142D01*
X351052142Y-115128571D02*
X351052142Y-113985714D01*
X348909285Y-116178571D02*
X349909285Y-116178571D01*
X349266428Y-117678571D01*
X350480714Y-117107142D02*
X351623571Y-117107142D01*
X351052142Y-117678571D02*
X351052142Y-116535714D01*
X349766428Y-118728571D02*
X349052142Y-118728571D01*
X348980714Y-119442857D01*
X349052142Y-119371428D01*
X349195000Y-119300000D01*
X349552142Y-119300000D01*
X349695000Y-119371428D01*
X349766428Y-119442857D01*
X349837857Y-119585714D01*
X349837857Y-119942857D01*
X349766428Y-120085714D01*
X349695000Y-120157142D01*
X349552142Y-120228571D01*
X349195000Y-120228571D01*
X349052142Y-120157142D01*
X348980714Y-120085714D01*
X350480714Y-119657142D02*
X351623571Y-119657142D01*
X351052142Y-120228571D02*
X351052142Y-119085714D01*
X348909285Y-121278571D02*
X349837857Y-121278571D01*
X349337857Y-121850000D01*
X349552142Y-121850000D01*
X349695000Y-121921428D01*
X349766428Y-121992857D01*
X349837857Y-122135714D01*
X349837857Y-122492857D01*
X349766428Y-122635714D01*
X349695000Y-122707142D01*
X349552142Y-122778571D01*
X349123571Y-122778571D01*
X348980714Y-122707142D01*
X348909285Y-122635714D01*
X350480714Y-122207142D02*
X351623571Y-122207142D01*
X351052142Y-122778571D02*
X351052142Y-121635714D01*
X349837857Y-125328571D02*
X348980714Y-125328571D01*
X349409285Y-125328571D02*
X349409285Y-123828571D01*
X349266428Y-124042857D01*
X349123571Y-124185714D01*
X348980714Y-124257142D01*
X350480714Y-124757142D02*
X351623571Y-124757142D01*
X351052142Y-125328571D02*
X351052142Y-124185714D01*
X338087857Y-110028571D02*
X337230714Y-110028571D01*
X337659285Y-110028571D02*
X337659285Y-108528571D01*
X337516428Y-108742857D01*
X337373571Y-108885714D01*
X337230714Y-108957142D01*
X338659285Y-108671428D02*
X338730714Y-108600000D01*
X338873571Y-108528571D01*
X339230714Y-108528571D01*
X339373571Y-108600000D01*
X339445000Y-108671428D01*
X339516428Y-108814285D01*
X339516428Y-108957142D01*
X339445000Y-109171428D01*
X338587857Y-110028571D01*
X339516428Y-110028571D01*
X340159285Y-109457142D02*
X341302142Y-109457142D01*
X340730714Y-110028571D02*
X340730714Y-108885714D01*
X338087857Y-112578571D02*
X337230714Y-112578571D01*
X337659285Y-112578571D02*
X337659285Y-111078571D01*
X337516428Y-111292857D01*
X337373571Y-111435714D01*
X337230714Y-111507142D01*
X339016428Y-111078571D02*
X339159285Y-111078571D01*
X339302142Y-111150000D01*
X339373571Y-111221428D01*
X339445000Y-111364285D01*
X339516428Y-111650000D01*
X339516428Y-112007142D01*
X339445000Y-112292857D01*
X339373571Y-112435714D01*
X339302142Y-112507142D01*
X339159285Y-112578571D01*
X339016428Y-112578571D01*
X338873571Y-112507142D01*
X338802142Y-112435714D01*
X338730714Y-112292857D01*
X338659285Y-112007142D01*
X338659285Y-111650000D01*
X338730714Y-111364285D01*
X338802142Y-111221428D01*
X338873571Y-111150000D01*
X339016428Y-111078571D01*
X340159285Y-112007142D02*
X341302142Y-112007142D01*
X340730714Y-112578571D02*
X340730714Y-111435714D01*
X337516428Y-114271428D02*
X337373571Y-114200000D01*
X337302142Y-114128571D01*
X337230714Y-113985714D01*
X337230714Y-113914285D01*
X337302142Y-113771428D01*
X337373571Y-113700000D01*
X337516428Y-113628571D01*
X337802142Y-113628571D01*
X337945000Y-113700000D01*
X338016428Y-113771428D01*
X338087857Y-113914285D01*
X338087857Y-113985714D01*
X338016428Y-114128571D01*
X337945000Y-114200000D01*
X337802142Y-114271428D01*
X337516428Y-114271428D01*
X337373571Y-114342857D01*
X337302142Y-114414285D01*
X337230714Y-114557142D01*
X337230714Y-114842857D01*
X337302142Y-114985714D01*
X337373571Y-115057142D01*
X337516428Y-115128571D01*
X337802142Y-115128571D01*
X337945000Y-115057142D01*
X338016428Y-114985714D01*
X338087857Y-114842857D01*
X338087857Y-114557142D01*
X338016428Y-114414285D01*
X337945000Y-114342857D01*
X337802142Y-114271428D01*
X338730714Y-114557142D02*
X339873571Y-114557142D01*
X339302142Y-115128571D02*
X339302142Y-113985714D01*
X337945000Y-116178571D02*
X337659285Y-116178571D01*
X337516428Y-116250000D01*
X337445000Y-116321428D01*
X337302142Y-116535714D01*
X337230714Y-116821428D01*
X337230714Y-117392857D01*
X337302142Y-117535714D01*
X337373571Y-117607142D01*
X337516428Y-117678571D01*
X337802142Y-117678571D01*
X337945000Y-117607142D01*
X338016428Y-117535714D01*
X338087857Y-117392857D01*
X338087857Y-117035714D01*
X338016428Y-116892857D01*
X337945000Y-116821428D01*
X337802142Y-116750000D01*
X337516428Y-116750000D01*
X337373571Y-116821428D01*
X337302142Y-116892857D01*
X337230714Y-117035714D01*
X338730714Y-117107142D02*
X339873571Y-117107142D01*
X339302142Y-117678571D02*
X339302142Y-116535714D01*
X337945000Y-119228571D02*
X337945000Y-120228571D01*
X337587857Y-118657142D02*
X337230714Y-119728571D01*
X338159285Y-119728571D01*
X338730714Y-119657142D02*
X339873571Y-119657142D01*
X339302142Y-120228571D02*
X339302142Y-119085714D01*
X337230714Y-121421428D02*
X337302142Y-121350000D01*
X337445000Y-121278571D01*
X337802142Y-121278571D01*
X337945000Y-121350000D01*
X338016428Y-121421428D01*
X338087857Y-121564285D01*
X338087857Y-121707142D01*
X338016428Y-121921428D01*
X337159285Y-122778571D01*
X338087857Y-122778571D01*
X338730714Y-122207142D02*
X339873571Y-122207142D01*
X339302142Y-122778571D02*
X339302142Y-121635714D01*
X338087857Y-125328571D02*
X337230714Y-125328571D01*
X337659285Y-125328571D02*
X337659285Y-123828571D01*
X337516428Y-124042857D01*
X337373571Y-124185714D01*
X337230714Y-124257142D01*
X338730714Y-124757142D02*
X339873571Y-124757142D01*
X48587857Y-110028571D02*
X47730714Y-110028571D01*
X48159285Y-110028571D02*
X48159285Y-108528571D01*
X48016428Y-108742857D01*
X47873571Y-108885714D01*
X47730714Y-108957142D01*
X49230714Y-109457142D02*
X50373571Y-109457142D01*
X47730714Y-111221428D02*
X47802142Y-111150000D01*
X47945000Y-111078571D01*
X48302142Y-111078571D01*
X48445000Y-111150000D01*
X48516428Y-111221428D01*
X48587857Y-111364285D01*
X48587857Y-111507142D01*
X48516428Y-111721428D01*
X47659285Y-112578571D01*
X48587857Y-112578571D01*
X49230714Y-112007142D02*
X50373571Y-112007142D01*
X49802142Y-112578571D02*
X49802142Y-111435714D01*
X48445000Y-114128571D02*
X48445000Y-115128571D01*
X48087857Y-113557142D02*
X47730714Y-114628571D01*
X48659285Y-114628571D01*
X49230714Y-114557142D02*
X50373571Y-114557142D01*
X49802142Y-115128571D02*
X49802142Y-113985714D01*
X48445000Y-116178571D02*
X48159285Y-116178571D01*
X48016428Y-116250000D01*
X47945000Y-116321428D01*
X47802142Y-116535714D01*
X47730714Y-116821428D01*
X47730714Y-117392857D01*
X47802142Y-117535714D01*
X47873571Y-117607142D01*
X48016428Y-117678571D01*
X48302142Y-117678571D01*
X48445000Y-117607142D01*
X48516428Y-117535714D01*
X48587857Y-117392857D01*
X48587857Y-117035714D01*
X48516428Y-116892857D01*
X48445000Y-116821428D01*
X48302142Y-116750000D01*
X48016428Y-116750000D01*
X47873571Y-116821428D01*
X47802142Y-116892857D01*
X47730714Y-117035714D01*
X49230714Y-117107142D02*
X50373571Y-117107142D01*
X49802142Y-117678571D02*
X49802142Y-116535714D01*
X48016428Y-119371428D02*
X47873571Y-119300000D01*
X47802142Y-119228571D01*
X47730714Y-119085714D01*
X47730714Y-119014285D01*
X47802142Y-118871428D01*
X47873571Y-118800000D01*
X48016428Y-118728571D01*
X48302142Y-118728571D01*
X48445000Y-118800000D01*
X48516428Y-118871428D01*
X48587857Y-119014285D01*
X48587857Y-119085714D01*
X48516428Y-119228571D01*
X48445000Y-119300000D01*
X48302142Y-119371428D01*
X48016428Y-119371428D01*
X47873571Y-119442857D01*
X47802142Y-119514285D01*
X47730714Y-119657142D01*
X47730714Y-119942857D01*
X47802142Y-120085714D01*
X47873571Y-120157142D01*
X48016428Y-120228571D01*
X48302142Y-120228571D01*
X48445000Y-120157142D01*
X48516428Y-120085714D01*
X48587857Y-119942857D01*
X48587857Y-119657142D01*
X48516428Y-119514285D01*
X48445000Y-119442857D01*
X48302142Y-119371428D01*
X49230714Y-119657142D02*
X50373571Y-119657142D01*
X49802142Y-120228571D02*
X49802142Y-119085714D01*
X48587857Y-122778571D02*
X47730714Y-122778571D01*
X48159285Y-122778571D02*
X48159285Y-121278571D01*
X48016428Y-121492857D01*
X47873571Y-121635714D01*
X47730714Y-121707142D01*
X49516428Y-121278571D02*
X49659285Y-121278571D01*
X49802142Y-121350000D01*
X49873571Y-121421428D01*
X49945000Y-121564285D01*
X50016428Y-121850000D01*
X50016428Y-122207142D01*
X49945000Y-122492857D01*
X49873571Y-122635714D01*
X49802142Y-122707142D01*
X49659285Y-122778571D01*
X49516428Y-122778571D01*
X49373571Y-122707142D01*
X49302142Y-122635714D01*
X49230714Y-122492857D01*
X49159285Y-122207142D01*
X49159285Y-121850000D01*
X49230714Y-121564285D01*
X49302142Y-121421428D01*
X49373571Y-121350000D01*
X49516428Y-121278571D01*
X50659285Y-122207142D02*
X51802142Y-122207142D01*
X51230714Y-122778571D02*
X51230714Y-121635714D01*
X48587857Y-125328571D02*
X47730714Y-125328571D01*
X48159285Y-125328571D02*
X48159285Y-123828571D01*
X48016428Y-124042857D01*
X47873571Y-124185714D01*
X47730714Y-124257142D01*
X49159285Y-123971428D02*
X49230714Y-123900000D01*
X49373571Y-123828571D01*
X49730714Y-123828571D01*
X49873571Y-123900000D01*
X49945000Y-123971428D01*
X50016428Y-124114285D01*
X50016428Y-124257142D01*
X49945000Y-124471428D01*
X49087857Y-125328571D01*
X50016428Y-125328571D01*
X50659285Y-124757142D02*
X51802142Y-124757142D01*
X51230714Y-125328571D02*
X51230714Y-124185714D01*
X36087857Y-110028571D02*
X35230714Y-110028571D01*
X35659285Y-110028571D02*
X35659285Y-108528571D01*
X35516428Y-108742857D01*
X35373571Y-108885714D01*
X35230714Y-108957142D01*
X36730714Y-109457142D02*
X37873571Y-109457142D01*
X37302142Y-110028571D02*
X37302142Y-108885714D01*
X35159285Y-111078571D02*
X36087857Y-111078571D01*
X35587857Y-111650000D01*
X35802142Y-111650000D01*
X35945000Y-111721428D01*
X36016428Y-111792857D01*
X36087857Y-111935714D01*
X36087857Y-112292857D01*
X36016428Y-112435714D01*
X35945000Y-112507142D01*
X35802142Y-112578571D01*
X35373571Y-112578571D01*
X35230714Y-112507142D01*
X35159285Y-112435714D01*
X36730714Y-112007142D02*
X37873571Y-112007142D01*
X37302142Y-112578571D02*
X37302142Y-111435714D01*
X36016428Y-113628571D02*
X35302142Y-113628571D01*
X35230714Y-114342857D01*
X35302142Y-114271428D01*
X35445000Y-114200000D01*
X35802142Y-114200000D01*
X35945000Y-114271428D01*
X36016428Y-114342857D01*
X36087857Y-114485714D01*
X36087857Y-114842857D01*
X36016428Y-114985714D01*
X35945000Y-115057142D01*
X35802142Y-115128571D01*
X35445000Y-115128571D01*
X35302142Y-115057142D01*
X35230714Y-114985714D01*
X36730714Y-114557142D02*
X37873571Y-114557142D01*
X37302142Y-115128571D02*
X37302142Y-113985714D01*
X35159285Y-116178571D02*
X36159285Y-116178571D01*
X35516428Y-117678571D01*
X36730714Y-117107142D02*
X37873571Y-117107142D01*
X37302142Y-117678571D02*
X37302142Y-116535714D01*
X35373571Y-120228571D02*
X35659285Y-120228571D01*
X35802142Y-120157142D01*
X35873571Y-120085714D01*
X36016428Y-119871428D01*
X36087857Y-119585714D01*
X36087857Y-119014285D01*
X36016428Y-118871428D01*
X35945000Y-118800000D01*
X35802142Y-118728571D01*
X35516428Y-118728571D01*
X35373571Y-118800000D01*
X35302142Y-118871428D01*
X35230714Y-119014285D01*
X35230714Y-119371428D01*
X35302142Y-119514285D01*
X35373571Y-119585714D01*
X35516428Y-119657142D01*
X35802142Y-119657142D01*
X35945000Y-119585714D01*
X36016428Y-119514285D01*
X36087857Y-119371428D01*
X36730714Y-119657142D02*
X37873571Y-119657142D01*
X37302142Y-120228571D02*
X37302142Y-119085714D01*
X36087857Y-122778571D02*
X35230714Y-122778571D01*
X35659285Y-122778571D02*
X35659285Y-121278571D01*
X35516428Y-121492857D01*
X35373571Y-121635714D01*
X35230714Y-121707142D01*
X37516428Y-122778571D02*
X36659285Y-122778571D01*
X37087857Y-122778571D02*
X37087857Y-121278571D01*
X36945000Y-121492857D01*
X36802142Y-121635714D01*
X36659285Y-121707142D01*
X38159285Y-122207142D02*
X39302142Y-122207142D01*
X38730714Y-122778571D02*
X38730714Y-121635714D01*
X35302142Y-125328571D02*
X35302142Y-123828571D01*
X36159285Y-125328571D01*
X36159285Y-123828571D01*
X37730714Y-125185714D02*
X37659285Y-125257142D01*
X37445000Y-125328571D01*
X37302142Y-125328571D01*
X37087857Y-125257142D01*
X36945000Y-125114285D01*
X36873571Y-124971428D01*
X36802142Y-124685714D01*
X36802142Y-124471428D01*
X36873571Y-124185714D01*
X36945000Y-124042857D01*
X37087857Y-123900000D01*
X37302142Y-123828571D01*
X37445000Y-123828571D01*
X37659285Y-123900000D01*
X37730714Y-123971428D01*
D13*
%TO.C,REF\u002A\u002A*%
G36*
X186203166Y-122936506D02*
G01*
X186389084Y-123029204D01*
X186553180Y-123199885D01*
X186598372Y-123263107D01*
X186647604Y-123345834D01*
X186679547Y-123435687D01*
X186697822Y-123555608D01*
X186706048Y-123728537D01*
X186707855Y-123956835D01*
X186699697Y-124269693D01*
X186671341Y-124504598D01*
X186616962Y-124679847D01*
X186530737Y-124813738D01*
X186406841Y-124924569D01*
X186397737Y-124931131D01*
X186275634Y-124998256D01*
X186128600Y-125031467D01*
X185941604Y-125039655D01*
X185637613Y-125039655D01*
X185637485Y-125334762D01*
X185634656Y-125499117D01*
X185617418Y-125595523D01*
X185572370Y-125653343D01*
X185486114Y-125701941D01*
X185465399Y-125711869D01*
X185368462Y-125758398D01*
X185293407Y-125787786D01*
X185237598Y-125790324D01*
X185198397Y-125756302D01*
X185173168Y-125676012D01*
X185159272Y-125539743D01*
X185154073Y-125337787D01*
X185154934Y-125060434D01*
X185159216Y-124697976D01*
X185160553Y-124589560D01*
X185165371Y-124215837D01*
X185169687Y-123971369D01*
X185637357Y-123971369D01*
X185639985Y-124178877D01*
X185651667Y-124314645D01*
X185678097Y-124404192D01*
X185724969Y-124473039D01*
X185756793Y-124506618D01*
X185886892Y-124604869D01*
X186002079Y-124612866D01*
X186120934Y-124531730D01*
X186123947Y-124528736D01*
X186172305Y-124466030D01*
X186201722Y-124380808D01*
X186216560Y-124249564D01*
X186221181Y-124048793D01*
X186221265Y-124004314D01*
X186210098Y-123727639D01*
X186173747Y-123535842D01*
X186107941Y-123418757D01*
X186008407Y-123366215D01*
X185950881Y-123360920D01*
X185814351Y-123385767D01*
X185720702Y-123467581D01*
X185664330Y-123617270D01*
X185639633Y-123845743D01*
X185637357Y-123971369D01*
X185169687Y-123971369D01*
X185170478Y-123926587D01*
X185177078Y-123708970D01*
X185186377Y-123550146D01*
X185199577Y-123437274D01*
X185217885Y-123357513D01*
X185242503Y-123298023D01*
X185274637Y-123245963D01*
X185288415Y-123226373D01*
X185471188Y-123041328D01*
X185702276Y-122936412D01*
X185969590Y-122907163D01*
X186203166Y-122936506D01*
G37*
X186203166Y-122936506D02*
X186389084Y-123029204D01*
X186553180Y-123199885D01*
X186598372Y-123263107D01*
X186647604Y-123345834D01*
X186679547Y-123435687D01*
X186697822Y-123555608D01*
X186706048Y-123728537D01*
X186707855Y-123956835D01*
X186699697Y-124269693D01*
X186671341Y-124504598D01*
X186616962Y-124679847D01*
X186530737Y-124813738D01*
X186406841Y-124924569D01*
X186397737Y-124931131D01*
X186275634Y-124998256D01*
X186128600Y-125031467D01*
X185941604Y-125039655D01*
X185637613Y-125039655D01*
X185637485Y-125334762D01*
X185634656Y-125499117D01*
X185617418Y-125595523D01*
X185572370Y-125653343D01*
X185486114Y-125701941D01*
X185465399Y-125711869D01*
X185368462Y-125758398D01*
X185293407Y-125787786D01*
X185237598Y-125790324D01*
X185198397Y-125756302D01*
X185173168Y-125676012D01*
X185159272Y-125539743D01*
X185154073Y-125337787D01*
X185154934Y-125060434D01*
X185159216Y-124697976D01*
X185160553Y-124589560D01*
X185165371Y-124215837D01*
X185169687Y-123971369D01*
X185637357Y-123971369D01*
X185639985Y-124178877D01*
X185651667Y-124314645D01*
X185678097Y-124404192D01*
X185724969Y-124473039D01*
X185756793Y-124506618D01*
X185886892Y-124604869D01*
X186002079Y-124612866D01*
X186120934Y-124531730D01*
X186123947Y-124528736D01*
X186172305Y-124466030D01*
X186201722Y-124380808D01*
X186216560Y-124249564D01*
X186221181Y-124048793D01*
X186221265Y-124004314D01*
X186210098Y-123727639D01*
X186173747Y-123535842D01*
X186107941Y-123418757D01*
X186008407Y-123366215D01*
X185950881Y-123360920D01*
X185814351Y-123385767D01*
X185720702Y-123467581D01*
X185664330Y-123617270D01*
X185639633Y-123845743D01*
X185637357Y-123971369D01*
X185169687Y-123971369D01*
X185170478Y-123926587D01*
X185177078Y-123708970D01*
X185186377Y-123550146D01*
X185199577Y-123437274D01*
X185217885Y-123357513D01*
X185242503Y-123298023D01*
X185274637Y-123245963D01*
X185288415Y-123226373D01*
X185471188Y-123041328D01*
X185702276Y-122936412D01*
X185969590Y-122907163D01*
X186203166Y-122936506D01*
G36*
X189945716Y-122962865D02*
G01*
X190101872Y-123053190D01*
X190210441Y-123142845D01*
X190289845Y-123236776D01*
X190344546Y-123351646D01*
X190379010Y-123504114D01*
X190397701Y-123710844D01*
X190405081Y-123988496D01*
X190405939Y-124188086D01*
X190405939Y-124922766D01*
X190199138Y-125015472D01*
X189992338Y-125108179D01*
X189968008Y-124303492D01*
X189957955Y-124002966D01*
X189947409Y-123784835D01*
X189934343Y-123634186D01*
X189916729Y-123536107D01*
X189892539Y-123475688D01*
X189859746Y-123438016D01*
X189849225Y-123429862D01*
X189689813Y-123366178D01*
X189528679Y-123391378D01*
X189432759Y-123458238D01*
X189393741Y-123505616D01*
X189366733Y-123567787D01*
X189349568Y-123662039D01*
X189340082Y-123805657D01*
X189336107Y-124015931D01*
X189335441Y-124235070D01*
X189335310Y-124509999D01*
X189330603Y-124704602D01*
X189314846Y-124835851D01*
X189281567Y-124920718D01*
X189224293Y-124976177D01*
X189136553Y-125019201D01*
X189019362Y-125063907D01*
X188891368Y-125112571D01*
X188906604Y-124248910D01*
X188912739Y-123937565D01*
X188919918Y-123707483D01*
X188930205Y-123542614D01*
X188945670Y-123426909D01*
X188968379Y-123344316D01*
X189000399Y-123278788D01*
X189039003Y-123220974D01*
X189225253Y-123036283D01*
X189452521Y-122929481D01*
X189699709Y-122903898D01*
X189945716Y-122962865D01*
G37*
X189945716Y-122962865D02*
X190101872Y-123053190D01*
X190210441Y-123142845D01*
X190289845Y-123236776D01*
X190344546Y-123351646D01*
X190379010Y-123504114D01*
X190397701Y-123710844D01*
X190405081Y-123988496D01*
X190405939Y-124188086D01*
X190405939Y-124922766D01*
X190199138Y-125015472D01*
X189992338Y-125108179D01*
X189968008Y-124303492D01*
X189957955Y-124002966D01*
X189947409Y-123784835D01*
X189934343Y-123634186D01*
X189916729Y-123536107D01*
X189892539Y-123475688D01*
X189859746Y-123438016D01*
X189849225Y-123429862D01*
X189689813Y-123366178D01*
X189528679Y-123391378D01*
X189432759Y-123458238D01*
X189393741Y-123505616D01*
X189366733Y-123567787D01*
X189349568Y-123662039D01*
X189340082Y-123805657D01*
X189336107Y-124015931D01*
X189335441Y-124235070D01*
X189335310Y-124509999D01*
X189330603Y-124704602D01*
X189314846Y-124835851D01*
X189281567Y-124920718D01*
X189224293Y-124976177D01*
X189136553Y-125019201D01*
X189019362Y-125063907D01*
X188891368Y-125112571D01*
X188906604Y-124248910D01*
X188912739Y-123937565D01*
X188919918Y-123707483D01*
X188930205Y-123542614D01*
X188945670Y-123426909D01*
X188968379Y-123344316D01*
X189000399Y-123278788D01*
X189039003Y-123220974D01*
X189225253Y-123036283D01*
X189452521Y-122929481D01*
X189699709Y-122903898D01*
X189945716Y-122962865D01*
G36*
X184330368Y-122943358D02*
G01*
X184558436Y-123063280D01*
X184726752Y-123256278D01*
X184786541Y-123380355D01*
X184833066Y-123566653D01*
X184856882Y-123802045D01*
X184859140Y-124058952D01*
X184840992Y-124309799D01*
X184803589Y-124527009D01*
X184748084Y-124683005D01*
X184731025Y-124709871D01*
X184528970Y-124910415D01*
X184288978Y-125030529D01*
X184028566Y-125065680D01*
X183765247Y-125011337D01*
X183691967Y-124978756D01*
X183549261Y-124878353D01*
X183424014Y-124745225D01*
X183412177Y-124728341D01*
X183364065Y-124646969D01*
X183332262Y-124559984D01*
X183313474Y-124445475D01*
X183304408Y-124281530D01*
X183301771Y-124046240D01*
X183301725Y-123993487D01*
X183301846Y-123976699D01*
X183788315Y-123976699D01*
X183791146Y-124198761D01*
X183802288Y-124346123D01*
X183825709Y-124441308D01*
X183865381Y-124506837D01*
X183885633Y-124528736D01*
X184002060Y-124611953D01*
X184115098Y-124608158D01*
X184229391Y-124535973D01*
X184297559Y-124458911D01*
X184337930Y-124346429D01*
X184360602Y-124169055D01*
X184362157Y-124148367D01*
X184366027Y-123826911D01*
X184325583Y-123588167D01*
X184241374Y-123433600D01*
X184113947Y-123364678D01*
X184068460Y-123360920D01*
X183949019Y-123379821D01*
X183867317Y-123445306D01*
X183817363Y-123570544D01*
X183793166Y-123768704D01*
X183788315Y-123976699D01*
X183301846Y-123976699D01*
X183303537Y-123742765D01*
X183311147Y-123567582D01*
X183327814Y-123446191D01*
X183356799Y-123356847D01*
X183401360Y-123277803D01*
X183411207Y-123263107D01*
X183576720Y-123065011D01*
X183757070Y-122950014D01*
X183976635Y-122904365D01*
X184051195Y-122902135D01*
X184330368Y-122943358D01*
G37*
X184330368Y-122943358D02*
X184558436Y-123063280D01*
X184726752Y-123256278D01*
X184786541Y-123380355D01*
X184833066Y-123566653D01*
X184856882Y-123802045D01*
X184859140Y-124058952D01*
X184840992Y-124309799D01*
X184803589Y-124527009D01*
X184748084Y-124683005D01*
X184731025Y-124709871D01*
X184528970Y-124910415D01*
X184288978Y-125030529D01*
X184028566Y-125065680D01*
X183765247Y-125011337D01*
X183691967Y-124978756D01*
X183549261Y-124878353D01*
X183424014Y-124745225D01*
X183412177Y-124728341D01*
X183364065Y-124646969D01*
X183332262Y-124559984D01*
X183313474Y-124445475D01*
X183304408Y-124281530D01*
X183301771Y-124046240D01*
X183301725Y-123993487D01*
X183301846Y-123976699D01*
X183788315Y-123976699D01*
X183791146Y-124198761D01*
X183802288Y-124346123D01*
X183825709Y-124441308D01*
X183865381Y-124506837D01*
X183885633Y-124528736D01*
X184002060Y-124611953D01*
X184115098Y-124608158D01*
X184229391Y-124535973D01*
X184297559Y-124458911D01*
X184337930Y-124346429D01*
X184360602Y-124169055D01*
X184362157Y-124148367D01*
X184366027Y-123826911D01*
X184325583Y-123588167D01*
X184241374Y-123433600D01*
X184113947Y-123364678D01*
X184068460Y-123360920D01*
X183949019Y-123379821D01*
X183867317Y-123445306D01*
X183817363Y-123570544D01*
X183793166Y-123768704D01*
X183788315Y-123976699D01*
X183301846Y-123976699D01*
X183303537Y-123742765D01*
X183311147Y-123567582D01*
X183327814Y-123446191D01*
X183356799Y-123356847D01*
X183401360Y-123277803D01*
X183411207Y-123263107D01*
X183576720Y-123065011D01*
X183757070Y-122950014D01*
X183976635Y-122904365D01*
X184051195Y-122902135D01*
X184330368Y-122943358D01*
G36*
X188109253Y-122974461D02*
G01*
X188301097Y-123103519D01*
X188449352Y-123289915D01*
X188537916Y-123527109D01*
X188555828Y-123701691D01*
X188553794Y-123774544D01*
X188536760Y-123830324D01*
X188489936Y-123880298D01*
X188398527Y-123935733D01*
X188247742Y-124007896D01*
X188022787Y-124108055D01*
X188021648Y-124108558D01*
X187814585Y-124203396D01*
X187644788Y-124287609D01*
X187529612Y-124352133D01*
X187486410Y-124387900D01*
X187486399Y-124388188D01*
X187524475Y-124466074D01*
X187613516Y-124551924D01*
X187715737Y-124613769D01*
X187767526Y-124626054D01*
X187908816Y-124583564D01*
X188030488Y-124477152D01*
X188089855Y-124360156D01*
X188146967Y-124273905D01*
X188258839Y-124175681D01*
X188390346Y-124090827D01*
X188506368Y-124044681D01*
X188530629Y-124042146D01*
X188557938Y-124083868D01*
X188559584Y-124190519D01*
X188539514Y-124334321D01*
X188501678Y-124487501D01*
X188450023Y-124622283D01*
X188447414Y-124627516D01*
X188291969Y-124844557D01*
X188090507Y-124992185D01*
X187861712Y-125064644D01*
X187624267Y-125056177D01*
X187396854Y-124961027D01*
X187386743Y-124954337D01*
X187207850Y-124792211D01*
X187090220Y-124580682D01*
X187025123Y-124302543D01*
X187016387Y-124224398D01*
X187000914Y-123855549D01*
X187019463Y-123683541D01*
X187486399Y-123683541D01*
X187492466Y-123790838D01*
X187525649Y-123822152D01*
X187608377Y-123798725D01*
X187738779Y-123743348D01*
X187884543Y-123673932D01*
X187888166Y-123672094D01*
X188011717Y-123607108D01*
X188061303Y-123563740D01*
X188049075Y-123518275D01*
X187997588Y-123458536D01*
X187866601Y-123372085D01*
X187725538Y-123365733D01*
X187599005Y-123428649D01*
X187511608Y-123550003D01*
X187486399Y-123683541D01*
X187019463Y-123683541D01*
X187032740Y-123560435D01*
X187114391Y-123326382D01*
X187228061Y-123162413D01*
X187433225Y-122996716D01*
X187659214Y-122914519D01*
X187889925Y-122909281D01*
X188109253Y-122974461D01*
G37*
X188109253Y-122974461D02*
X188301097Y-123103519D01*
X188449352Y-123289915D01*
X188537916Y-123527109D01*
X188555828Y-123701691D01*
X188553794Y-123774544D01*
X188536760Y-123830324D01*
X188489936Y-123880298D01*
X188398527Y-123935733D01*
X188247742Y-124007896D01*
X188022787Y-124108055D01*
X188021648Y-124108558D01*
X187814585Y-124203396D01*
X187644788Y-124287609D01*
X187529612Y-124352133D01*
X187486410Y-124387900D01*
X187486399Y-124388188D01*
X187524475Y-124466074D01*
X187613516Y-124551924D01*
X187715737Y-124613769D01*
X187767526Y-124626054D01*
X187908816Y-124583564D01*
X188030488Y-124477152D01*
X188089855Y-124360156D01*
X188146967Y-124273905D01*
X188258839Y-124175681D01*
X188390346Y-124090827D01*
X188506368Y-124044681D01*
X188530629Y-124042146D01*
X188557938Y-124083868D01*
X188559584Y-124190519D01*
X188539514Y-124334321D01*
X188501678Y-124487501D01*
X188450023Y-124622283D01*
X188447414Y-124627516D01*
X188291969Y-124844557D01*
X188090507Y-124992185D01*
X187861712Y-125064644D01*
X187624267Y-125056177D01*
X187396854Y-124961027D01*
X187386743Y-124954337D01*
X187207850Y-124792211D01*
X187090220Y-124580682D01*
X187025123Y-124302543D01*
X187016387Y-124224398D01*
X187000914Y-123855549D01*
X187019463Y-123683541D01*
X187486399Y-123683541D01*
X187492466Y-123790838D01*
X187525649Y-123822152D01*
X187608377Y-123798725D01*
X187738779Y-123743348D01*
X187884543Y-123673932D01*
X187888166Y-123672094D01*
X188011717Y-123607108D01*
X188061303Y-123563740D01*
X188049075Y-123518275D01*
X187997588Y-123458536D01*
X187866601Y-123372085D01*
X187725538Y-123365733D01*
X187599005Y-123428649D01*
X187511608Y-123550003D01*
X187486399Y-123683541D01*
X187019463Y-123683541D01*
X187032740Y-123560435D01*
X187114391Y-123326382D01*
X187228061Y-123162413D01*
X187433225Y-122996716D01*
X187659214Y-122914519D01*
X187889925Y-122909281D01*
X188109253Y-122974461D01*
G36*
X192157663Y-122706429D02*
G01*
X192171923Y-122905313D01*
X192188302Y-123022511D01*
X192210998Y-123073632D01*
X192244212Y-123074286D01*
X192254981Y-123068183D01*
X192398233Y-123023997D01*
X192584575Y-123026577D01*
X192774024Y-123071999D01*
X192892517Y-123130759D01*
X193014009Y-123224631D01*
X193102823Y-123330865D01*
X193163792Y-123465850D01*
X193201750Y-123645976D01*
X193221532Y-123887633D01*
X193227970Y-124207211D01*
X193228086Y-124268516D01*
X193228161Y-124957147D01*
X193074923Y-125010566D01*
X192966087Y-125046908D01*
X192906374Y-125063828D01*
X192904617Y-125063985D01*
X192898736Y-125018100D01*
X192893732Y-124891539D01*
X192889984Y-124700941D01*
X192887873Y-124462948D01*
X192887548Y-124318252D01*
X192886871Y-124032955D01*
X192883386Y-123828480D01*
X192874912Y-123688334D01*
X192859266Y-123596023D01*
X192834269Y-123535053D01*
X192797738Y-123488931D01*
X192774929Y-123466720D01*
X192618249Y-123377214D01*
X192447274Y-123370511D01*
X192292150Y-123446208D01*
X192263463Y-123473539D01*
X192221387Y-123524929D01*
X192192201Y-123585886D01*
X192173571Y-123674025D01*
X192163161Y-123806961D01*
X192158637Y-124002309D01*
X192157663Y-124271652D01*
X192157663Y-124957147D01*
X192004425Y-125010566D01*
X191895589Y-125046908D01*
X191835876Y-125063828D01*
X191834119Y-125063985D01*
X191829625Y-125017414D01*
X191825575Y-124886051D01*
X191822130Y-124682422D01*
X191819453Y-124419054D01*
X191817706Y-124108471D01*
X191817051Y-123763201D01*
X191817050Y-123747843D01*
X191817050Y-122431701D01*
X192133334Y-122298289D01*
X192157663Y-122706429D01*
G37*
X192157663Y-122706429D02*
X192171923Y-122905313D01*
X192188302Y-123022511D01*
X192210998Y-123073632D01*
X192244212Y-123074286D01*
X192254981Y-123068183D01*
X192398233Y-123023997D01*
X192584575Y-123026577D01*
X192774024Y-123071999D01*
X192892517Y-123130759D01*
X193014009Y-123224631D01*
X193102823Y-123330865D01*
X193163792Y-123465850D01*
X193201750Y-123645976D01*
X193221532Y-123887633D01*
X193227970Y-124207211D01*
X193228086Y-124268516D01*
X193228161Y-124957147D01*
X193074923Y-125010566D01*
X192966087Y-125046908D01*
X192906374Y-125063828D01*
X192904617Y-125063985D01*
X192898736Y-125018100D01*
X192893732Y-124891539D01*
X192889984Y-124700941D01*
X192887873Y-124462948D01*
X192887548Y-124318252D01*
X192886871Y-124032955D01*
X192883386Y-123828480D01*
X192874912Y-123688334D01*
X192859266Y-123596023D01*
X192834269Y-123535053D01*
X192797738Y-123488931D01*
X192774929Y-123466720D01*
X192618249Y-123377214D01*
X192447274Y-123370511D01*
X192292150Y-123446208D01*
X192263463Y-123473539D01*
X192221387Y-123524929D01*
X192192201Y-123585886D01*
X192173571Y-123674025D01*
X192163161Y-123806961D01*
X192158637Y-124002309D01*
X192157663Y-124271652D01*
X192157663Y-124957147D01*
X192004425Y-125010566D01*
X191895589Y-125046908D01*
X191835876Y-125063828D01*
X191834119Y-125063985D01*
X191829625Y-125017414D01*
X191825575Y-124886051D01*
X191822130Y-124682422D01*
X191819453Y-124419054D01*
X191817706Y-124108471D01*
X191817051Y-123763201D01*
X191817050Y-123747843D01*
X191817050Y-122431701D01*
X192133334Y-122298289D01*
X192157663Y-122706429D01*
G36*
X194383241Y-123040601D02*
G01*
X194573905Y-123111403D01*
X194576086Y-123112764D01*
X194694006Y-123199550D01*
X194781060Y-123300973D01*
X194842286Y-123433145D01*
X194882723Y-123612182D01*
X194907409Y-123854195D01*
X194921382Y-124175299D01*
X194922607Y-124221048D01*
X194940200Y-124910869D01*
X194792152Y-124987427D01*
X194685030Y-125039163D01*
X194620351Y-125063678D01*
X194617359Y-125063985D01*
X194606166Y-125018751D01*
X194597275Y-124896736D01*
X194591806Y-124718468D01*
X194590613Y-124574116D01*
X194590586Y-124340271D01*
X194579896Y-124193419D01*
X194542633Y-124123376D01*
X194462888Y-124119958D01*
X194324749Y-124172983D01*
X194116188Y-124270454D01*
X193962829Y-124351409D01*
X193883952Y-124421644D01*
X193860764Y-124498194D01*
X193860728Y-124501982D01*
X193898993Y-124633852D01*
X194012283Y-124705091D01*
X194185664Y-124715410D01*
X194310550Y-124713620D01*
X194376399Y-124749589D01*
X194417464Y-124835985D01*
X194441099Y-124946054D01*
X194407039Y-125008508D01*
X194394214Y-125017446D01*
X194273472Y-125053343D01*
X194104388Y-125058426D01*
X193930261Y-125034631D01*
X193806876Y-124991147D01*
X193636287Y-124846309D01*
X193539319Y-124644694D01*
X193520115Y-124487180D01*
X193534770Y-124345104D01*
X193587801Y-124229127D01*
X193692806Y-124126121D01*
X193863386Y-124022954D01*
X194113138Y-123906496D01*
X194128353Y-123899914D01*
X194353329Y-123795981D01*
X194492157Y-123710743D01*
X194551662Y-123634147D01*
X194538672Y-123556139D01*
X194460012Y-123466664D01*
X194436490Y-123446073D01*
X194278933Y-123366236D01*
X194115677Y-123369597D01*
X193973495Y-123447874D01*
X193879160Y-123592781D01*
X193870395Y-123621224D01*
X193785038Y-123759174D01*
X193676729Y-123825620D01*
X193520115Y-123891471D01*
X193520115Y-123721097D01*
X193567756Y-123473454D01*
X193709159Y-123246307D01*
X193782742Y-123170318D01*
X193950009Y-123072790D01*
X194162726Y-123028640D01*
X194383241Y-123040601D01*
G37*
X194383241Y-123040601D02*
X194573905Y-123111403D01*
X194576086Y-123112764D01*
X194694006Y-123199550D01*
X194781060Y-123300973D01*
X194842286Y-123433145D01*
X194882723Y-123612182D01*
X194907409Y-123854195D01*
X194921382Y-124175299D01*
X194922607Y-124221048D01*
X194940200Y-124910869D01*
X194792152Y-124987427D01*
X194685030Y-125039163D01*
X194620351Y-125063678D01*
X194617359Y-125063985D01*
X194606166Y-125018751D01*
X194597275Y-124896736D01*
X194591806Y-124718468D01*
X194590613Y-124574116D01*
X194590586Y-124340271D01*
X194579896Y-124193419D01*
X194542633Y-124123376D01*
X194462888Y-124119958D01*
X194324749Y-124172983D01*
X194116188Y-124270454D01*
X193962829Y-124351409D01*
X193883952Y-124421644D01*
X193860764Y-124498194D01*
X193860728Y-124501982D01*
X193898993Y-124633852D01*
X194012283Y-124705091D01*
X194185664Y-124715410D01*
X194310550Y-124713620D01*
X194376399Y-124749589D01*
X194417464Y-124835985D01*
X194441099Y-124946054D01*
X194407039Y-125008508D01*
X194394214Y-125017446D01*
X194273472Y-125053343D01*
X194104388Y-125058426D01*
X193930261Y-125034631D01*
X193806876Y-124991147D01*
X193636287Y-124846309D01*
X193539319Y-124644694D01*
X193520115Y-124487180D01*
X193534770Y-124345104D01*
X193587801Y-124229127D01*
X193692806Y-124126121D01*
X193863386Y-124022954D01*
X194113138Y-123906496D01*
X194128353Y-123899914D01*
X194353329Y-123795981D01*
X194492157Y-123710743D01*
X194551662Y-123634147D01*
X194538672Y-123556139D01*
X194460012Y-123466664D01*
X194436490Y-123446073D01*
X194278933Y-123366236D01*
X194115677Y-123369597D01*
X193973495Y-123447874D01*
X193879160Y-123592781D01*
X193870395Y-123621224D01*
X193785038Y-123759174D01*
X193676729Y-123825620D01*
X193520115Y-123891471D01*
X193520115Y-123721097D01*
X193567756Y-123473454D01*
X193709159Y-123246307D01*
X193782742Y-123170318D01*
X193950009Y-123072790D01*
X194162726Y-123028640D01*
X194383241Y-123040601D01*
G36*
X196026572Y-123036534D02*
G01*
X196247609Y-123118099D01*
X196426683Y-123262366D01*
X196496720Y-123363920D01*
X196573071Y-123550268D01*
X196571485Y-123685010D01*
X196491347Y-123775631D01*
X196461696Y-123791040D01*
X196333674Y-123839084D01*
X196268294Y-123826776D01*
X196246148Y-123746098D01*
X196245020Y-123701533D01*
X196204477Y-123537581D01*
X196098802Y-123422891D01*
X195951924Y-123367497D01*
X195787773Y-123381435D01*
X195654337Y-123453827D01*
X195609269Y-123495120D01*
X195577323Y-123545216D01*
X195555744Y-123620942D01*
X195541773Y-123739128D01*
X195532655Y-123916600D01*
X195525631Y-124170186D01*
X195523812Y-124250479D01*
X195517178Y-124525158D01*
X195509636Y-124718481D01*
X195498325Y-124846388D01*
X195480385Y-124924822D01*
X195452955Y-124969725D01*
X195413177Y-124997038D01*
X195387710Y-125009105D01*
X195279556Y-125050367D01*
X195215890Y-125063985D01*
X195194854Y-125018505D01*
X195182013Y-124881006D01*
X195177300Y-124649902D01*
X195180644Y-124323604D01*
X195181686Y-124273276D01*
X195189035Y-123975581D01*
X195197726Y-123758205D01*
X195210092Y-123604153D01*
X195228470Y-123496430D01*
X195255195Y-123418042D01*
X195292602Y-123351994D01*
X195312170Y-123323691D01*
X195424366Y-123198467D01*
X195549850Y-123101063D01*
X195565213Y-123092561D01*
X195790223Y-123025433D01*
X196026572Y-123036534D01*
G37*
X196026572Y-123036534D02*
X196247609Y-123118099D01*
X196426683Y-123262366D01*
X196496720Y-123363920D01*
X196573071Y-123550268D01*
X196571485Y-123685010D01*
X196491347Y-123775631D01*
X196461696Y-123791040D01*
X196333674Y-123839084D01*
X196268294Y-123826776D01*
X196246148Y-123746098D01*
X196245020Y-123701533D01*
X196204477Y-123537581D01*
X196098802Y-123422891D01*
X195951924Y-123367497D01*
X195787773Y-123381435D01*
X195654337Y-123453827D01*
X195609269Y-123495120D01*
X195577323Y-123545216D01*
X195555744Y-123620942D01*
X195541773Y-123739128D01*
X195532655Y-123916600D01*
X195525631Y-124170186D01*
X195523812Y-124250479D01*
X195517178Y-124525158D01*
X195509636Y-124718481D01*
X195498325Y-124846388D01*
X195480385Y-124924822D01*
X195452955Y-124969725D01*
X195413177Y-124997038D01*
X195387710Y-125009105D01*
X195279556Y-125050367D01*
X195215890Y-125063985D01*
X195194854Y-125018505D01*
X195182013Y-124881006D01*
X195177300Y-124649902D01*
X195180644Y-124323604D01*
X195181686Y-124273276D01*
X195189035Y-123975581D01*
X195197726Y-123758205D01*
X195210092Y-123604153D01*
X195228470Y-123496430D01*
X195255195Y-123418042D01*
X195292602Y-123351994D01*
X195312170Y-123323691D01*
X195424366Y-123198467D01*
X195549850Y-123101063D01*
X195565213Y-123092561D01*
X195790223Y-123025433D01*
X196026572Y-123036534D01*
G36*
X198239857Y-123424093D02*
G01*
X198239239Y-123787769D01*
X198236847Y-124067532D01*
X198231671Y-124276784D01*
X198222704Y-124428926D01*
X198208936Y-124537359D01*
X198189361Y-124615485D01*
X198162968Y-124676707D01*
X198142984Y-124711652D01*
X197977483Y-124901157D01*
X197767648Y-125019942D01*
X197535486Y-125062564D01*
X197303008Y-125023583D01*
X197164572Y-124953532D01*
X197019242Y-124832353D01*
X196920195Y-124684354D01*
X196860435Y-124490534D01*
X196832969Y-124231892D01*
X196829079Y-124042146D01*
X196829603Y-124028510D01*
X197169541Y-124028510D01*
X197171617Y-124246096D01*
X197181130Y-124390134D01*
X197203008Y-124484364D01*
X197242176Y-124552523D01*
X197288976Y-124603936D01*
X197446146Y-124703175D01*
X197614900Y-124711653D01*
X197774393Y-124628799D01*
X197786807Y-124617572D01*
X197839791Y-124559171D01*
X197873014Y-124489686D01*
X197891000Y-124386270D01*
X197898275Y-124226073D01*
X197899426Y-124048965D01*
X197896932Y-123826467D01*
X197886608Y-123678037D01*
X197864191Y-123580489D01*
X197825418Y-123510637D01*
X197793626Y-123473539D01*
X197645939Y-123379975D01*
X197475846Y-123368725D01*
X197313492Y-123440190D01*
X197282160Y-123466720D01*
X197228822Y-123525636D01*
X197195531Y-123595837D01*
X197177656Y-123700418D01*
X197170566Y-123862479D01*
X197169541Y-124028510D01*
X196829603Y-124028510D01*
X196840840Y-123736579D01*
X196880787Y-123506993D01*
X196955913Y-123334387D01*
X197073214Y-123199760D01*
X197164572Y-123130759D01*
X197330627Y-123056214D01*
X197523092Y-123021613D01*
X197701999Y-123030875D01*
X197802108Y-123068238D01*
X197841393Y-123078872D01*
X197867461Y-123039225D01*
X197885658Y-122932981D01*
X197899426Y-122771145D01*
X197914499Y-122590902D01*
X197935436Y-122482458D01*
X197973532Y-122420446D01*
X198040085Y-122379499D01*
X198081897Y-122361366D01*
X198240039Y-122295120D01*
X198239857Y-123424093D01*
G37*
X198239857Y-123424093D02*
X198239239Y-123787769D01*
X198236847Y-124067532D01*
X198231671Y-124276784D01*
X198222704Y-124428926D01*
X198208936Y-124537359D01*
X198189361Y-124615485D01*
X198162968Y-124676707D01*
X198142984Y-124711652D01*
X197977483Y-124901157D01*
X197767648Y-125019942D01*
X197535486Y-125062564D01*
X197303008Y-125023583D01*
X197164572Y-124953532D01*
X197019242Y-124832353D01*
X196920195Y-124684354D01*
X196860435Y-124490534D01*
X196832969Y-124231892D01*
X196829079Y-124042146D01*
X196829603Y-124028510D01*
X197169541Y-124028510D01*
X197171617Y-124246096D01*
X197181130Y-124390134D01*
X197203008Y-124484364D01*
X197242176Y-124552523D01*
X197288976Y-124603936D01*
X197446146Y-124703175D01*
X197614900Y-124711653D01*
X197774393Y-124628799D01*
X197786807Y-124617572D01*
X197839791Y-124559171D01*
X197873014Y-124489686D01*
X197891000Y-124386270D01*
X197898275Y-124226073D01*
X197899426Y-124048965D01*
X197896932Y-123826467D01*
X197886608Y-123678037D01*
X197864191Y-123580489D01*
X197825418Y-123510637D01*
X197793626Y-123473539D01*
X197645939Y-123379975D01*
X197475846Y-123368725D01*
X197313492Y-123440190D01*
X197282160Y-123466720D01*
X197228822Y-123525636D01*
X197195531Y-123595837D01*
X197177656Y-123700418D01*
X197170566Y-123862479D01*
X197169541Y-124028510D01*
X196829603Y-124028510D01*
X196840840Y-123736579D01*
X196880787Y-123506993D01*
X196955913Y-123334387D01*
X197073214Y-123199760D01*
X197164572Y-123130759D01*
X197330627Y-123056214D01*
X197523092Y-123021613D01*
X197701999Y-123030875D01*
X197802108Y-123068238D01*
X197841393Y-123078872D01*
X197867461Y-123039225D01*
X197885658Y-122932981D01*
X197899426Y-122771145D01*
X197914499Y-122590902D01*
X197935436Y-122482458D01*
X197973532Y-122420446D01*
X198040085Y-122379499D01*
X198081897Y-122361366D01*
X198240039Y-122295120D01*
X198239857Y-123424093D01*
G36*
X200216873Y-123066400D02*
G01*
X200224299Y-123194422D01*
X200230118Y-123388985D01*
X200233859Y-123634702D01*
X200235058Y-123892426D01*
X200235058Y-124764545D01*
X200081075Y-124918528D01*
X199974963Y-125013412D01*
X199881816Y-125051845D01*
X199754504Y-125049413D01*
X199703968Y-125043223D01*
X199546017Y-125025210D01*
X199415371Y-125014888D01*
X199383525Y-125013935D01*
X199276166Y-125020171D01*
X199122619Y-125035824D01*
X199063083Y-125043223D01*
X198916857Y-125054668D01*
X198818589Y-125029808D01*
X198721150Y-124953058D01*
X198685976Y-124918528D01*
X198531993Y-124764545D01*
X198531993Y-123133246D01*
X198655930Y-123076776D01*
X198762650Y-123034950D01*
X198825087Y-123020307D01*
X198841096Y-123066583D01*
X198856058Y-123195884D01*
X198868978Y-123393914D01*
X198878857Y-123646380D01*
X198883622Y-123859675D01*
X198896935Y-124699042D01*
X199013080Y-124715464D01*
X199118716Y-124703982D01*
X199170477Y-124666805D01*
X199184945Y-124597298D01*
X199197298Y-124449240D01*
X199206552Y-124241391D01*
X199211728Y-123992512D01*
X199212474Y-123864435D01*
X199213219Y-123127145D01*
X199366457Y-123073726D01*
X199474916Y-123037406D01*
X199533913Y-123020468D01*
X199535614Y-123020307D01*
X199541533Y-123066349D01*
X199548039Y-123194018D01*
X199554586Y-123387632D01*
X199560627Y-123631507D01*
X199564848Y-123859675D01*
X199578161Y-124699042D01*
X199870115Y-124699042D01*
X199883513Y-123933275D01*
X199896910Y-123167508D01*
X200039238Y-123093908D01*
X200144322Y-123043366D01*
X200206517Y-123020431D01*
X200208312Y-123020307D01*
X200216873Y-123066400D01*
G37*
X200216873Y-123066400D02*
X200224299Y-123194422D01*
X200230118Y-123388985D01*
X200233859Y-123634702D01*
X200235058Y-123892426D01*
X200235058Y-124764545D01*
X200081075Y-124918528D01*
X199974963Y-125013412D01*
X199881816Y-125051845D01*
X199754504Y-125049413D01*
X199703968Y-125043223D01*
X199546017Y-125025210D01*
X199415371Y-125014888D01*
X199383525Y-125013935D01*
X199276166Y-125020171D01*
X199122619Y-125035824D01*
X199063083Y-125043223D01*
X198916857Y-125054668D01*
X198818589Y-125029808D01*
X198721150Y-124953058D01*
X198685976Y-124918528D01*
X198531993Y-124764545D01*
X198531993Y-123133246D01*
X198655930Y-123076776D01*
X198762650Y-123034950D01*
X198825087Y-123020307D01*
X198841096Y-123066583D01*
X198856058Y-123195884D01*
X198868978Y-123393914D01*
X198878857Y-123646380D01*
X198883622Y-123859675D01*
X198896935Y-124699042D01*
X199013080Y-124715464D01*
X199118716Y-124703982D01*
X199170477Y-124666805D01*
X199184945Y-124597298D01*
X199197298Y-124449240D01*
X199206552Y-124241391D01*
X199211728Y-123992512D01*
X199212474Y-123864435D01*
X199213219Y-123127145D01*
X199366457Y-123073726D01*
X199474916Y-123037406D01*
X199533913Y-123020468D01*
X199535614Y-123020307D01*
X199541533Y-123066349D01*
X199548039Y-123194018D01*
X199554586Y-123387632D01*
X199560627Y-123631507D01*
X199564848Y-123859675D01*
X199578161Y-124699042D01*
X199870115Y-124699042D01*
X199883513Y-123933275D01*
X199896910Y-123167508D01*
X200039238Y-123093908D01*
X200144322Y-123043366D01*
X200206517Y-123020431D01*
X200208312Y-123020307D01*
X200216873Y-123066400D01*
G36*
X201440678Y-123058594D02*
G01*
X201580782Y-123122323D01*
X201690750Y-123199543D01*
X201771324Y-123285887D01*
X201826954Y-123397272D01*
X201862089Y-123549616D01*
X201881179Y-123758835D01*
X201888672Y-124040846D01*
X201889464Y-124226555D01*
X201889464Y-124951046D01*
X201765527Y-125007515D01*
X201667910Y-125048787D01*
X201619550Y-125063985D01*
X201610298Y-125018762D01*
X201602958Y-124896824D01*
X201598464Y-124718772D01*
X201597510Y-124577395D01*
X201593410Y-124373146D01*
X201582354Y-124211113D01*
X201566211Y-124111891D01*
X201553387Y-124090805D01*
X201467186Y-124112338D01*
X201331862Y-124167566D01*
X201175170Y-124242436D01*
X201024863Y-124322892D01*
X200908693Y-124394880D01*
X200854413Y-124444346D01*
X200854198Y-124444881D01*
X200858867Y-124536428D01*
X200900732Y-124623820D01*
X200974235Y-124694802D01*
X201081516Y-124718543D01*
X201173202Y-124715777D01*
X201303058Y-124713741D01*
X201371221Y-124744164D01*
X201412159Y-124824543D01*
X201417321Y-124839700D01*
X201435067Y-124954331D01*
X201387609Y-125023934D01*
X201263907Y-125057105D01*
X201130281Y-125063240D01*
X200889817Y-125017763D01*
X200765338Y-124952817D01*
X200611605Y-124800246D01*
X200530073Y-124612971D01*
X200522756Y-124415085D01*
X200591669Y-124230685D01*
X200695328Y-124115134D01*
X200798823Y-124050442D01*
X200961492Y-123968542D01*
X201151054Y-123885486D01*
X201182650Y-123872795D01*
X201390869Y-123780908D01*
X201510898Y-123699923D01*
X201549501Y-123619413D01*
X201513440Y-123528950D01*
X201451533Y-123458238D01*
X201305213Y-123371170D01*
X201144217Y-123364640D01*
X200996573Y-123431735D01*
X200890310Y-123565544D01*
X200876362Y-123600067D01*
X200795160Y-123727042D01*
X200676608Y-123821309D01*
X200527012Y-123898668D01*
X200527012Y-123679307D01*
X200535817Y-123545280D01*
X200573570Y-123439644D01*
X200657279Y-123326939D01*
X200737636Y-123240127D01*
X200862591Y-123117204D01*
X200959677Y-123051171D01*
X201063954Y-123024684D01*
X201181989Y-123020307D01*
X201440678Y-123058594D01*
G37*
X201440678Y-123058594D02*
X201580782Y-123122323D01*
X201690750Y-123199543D01*
X201771324Y-123285887D01*
X201826954Y-123397272D01*
X201862089Y-123549616D01*
X201881179Y-123758835D01*
X201888672Y-124040846D01*
X201889464Y-124226555D01*
X201889464Y-124951046D01*
X201765527Y-125007515D01*
X201667910Y-125048787D01*
X201619550Y-125063985D01*
X201610298Y-125018762D01*
X201602958Y-124896824D01*
X201598464Y-124718772D01*
X201597510Y-124577395D01*
X201593410Y-124373146D01*
X201582354Y-124211113D01*
X201566211Y-124111891D01*
X201553387Y-124090805D01*
X201467186Y-124112338D01*
X201331862Y-124167566D01*
X201175170Y-124242436D01*
X201024863Y-124322892D01*
X200908693Y-124394880D01*
X200854413Y-124444346D01*
X200854198Y-124444881D01*
X200858867Y-124536428D01*
X200900732Y-124623820D01*
X200974235Y-124694802D01*
X201081516Y-124718543D01*
X201173202Y-124715777D01*
X201303058Y-124713741D01*
X201371221Y-124744164D01*
X201412159Y-124824543D01*
X201417321Y-124839700D01*
X201435067Y-124954331D01*
X201387609Y-125023934D01*
X201263907Y-125057105D01*
X201130281Y-125063240D01*
X200889817Y-125017763D01*
X200765338Y-124952817D01*
X200611605Y-124800246D01*
X200530073Y-124612971D01*
X200522756Y-124415085D01*
X200591669Y-124230685D01*
X200695328Y-124115134D01*
X200798823Y-124050442D01*
X200961492Y-123968542D01*
X201151054Y-123885486D01*
X201182650Y-123872795D01*
X201390869Y-123780908D01*
X201510898Y-123699923D01*
X201549501Y-123619413D01*
X201513440Y-123528950D01*
X201451533Y-123458238D01*
X201305213Y-123371170D01*
X201144217Y-123364640D01*
X200996573Y-123431735D01*
X200890310Y-123565544D01*
X200876362Y-123600067D01*
X200795160Y-123727042D01*
X200676608Y-123821309D01*
X200527012Y-123898668D01*
X200527012Y-123679307D01*
X200535817Y-123545280D01*
X200573570Y-123439644D01*
X200657279Y-123326939D01*
X200737636Y-123240127D01*
X200862591Y-123117204D01*
X200959677Y-123051171D01*
X201063954Y-123024684D01*
X201181989Y-123020307D01*
X201440678Y-123058594D01*
G36*
X203142816Y-123066697D02*
G01*
X203200976Y-123092116D01*
X203339795Y-123202059D01*
X203458505Y-123361030D01*
X203531921Y-123530677D01*
X203543870Y-123614313D01*
X203503809Y-123731078D01*
X203415935Y-123792862D01*
X203321718Y-123830273D01*
X203278577Y-123837167D01*
X203257571Y-123787138D01*
X203216090Y-123678269D01*
X203197892Y-123629076D01*
X203095848Y-123458913D01*
X202948103Y-123374038D01*
X202758655Y-123376648D01*
X202744623Y-123379991D01*
X202643481Y-123427945D01*
X202569124Y-123521432D01*
X202518338Y-123671939D01*
X202487908Y-123890951D01*
X202474618Y-124189956D01*
X202473372Y-124349056D01*
X202472754Y-124599855D01*
X202468705Y-124770825D01*
X202457933Y-124879454D01*
X202437147Y-124943230D01*
X202403055Y-124979643D01*
X202352365Y-125006179D01*
X202349435Y-125007515D01*
X202251818Y-125048787D01*
X202203458Y-125063985D01*
X202196027Y-125018037D01*
X202189666Y-124891034D01*
X202184832Y-124699235D01*
X202181985Y-124458902D01*
X202181418Y-124283024D01*
X202184313Y-123942688D01*
X202195637Y-123684495D01*
X202219346Y-123493374D01*
X202259397Y-123354253D01*
X202319747Y-123252060D01*
X202404353Y-123171724D01*
X202487899Y-123115655D01*
X202688791Y-123041032D01*
X202922596Y-123024202D01*
X203142816Y-123066697D01*
G37*
X203142816Y-123066697D02*
X203200976Y-123092116D01*
X203339795Y-123202059D01*
X203458505Y-123361030D01*
X203531921Y-123530677D01*
X203543870Y-123614313D01*
X203503809Y-123731078D01*
X203415935Y-123792862D01*
X203321718Y-123830273D01*
X203278577Y-123837167D01*
X203257571Y-123787138D01*
X203216090Y-123678269D01*
X203197892Y-123629076D01*
X203095848Y-123458913D01*
X202948103Y-123374038D01*
X202758655Y-123376648D01*
X202744623Y-123379991D01*
X202643481Y-123427945D01*
X202569124Y-123521432D01*
X202518338Y-123671939D01*
X202487908Y-123890951D01*
X202474618Y-124189956D01*
X202473372Y-124349056D01*
X202472754Y-124599855D01*
X202468705Y-124770825D01*
X202457933Y-124879454D01*
X202437147Y-124943230D01*
X202403055Y-124979643D01*
X202352365Y-125006179D01*
X202349435Y-125007515D01*
X202251818Y-125048787D01*
X202203458Y-125063985D01*
X202196027Y-125018037D01*
X202189666Y-124891034D01*
X202184832Y-124699235D01*
X202181985Y-124458902D01*
X202181418Y-124283024D01*
X202184313Y-123942688D01*
X202195637Y-123684495D01*
X202219346Y-123493374D01*
X202259397Y-123354253D01*
X202319747Y-123252060D01*
X202404353Y-123171724D01*
X202487899Y-123115655D01*
X202688791Y-123041032D01*
X202922596Y-123024202D01*
X203142816Y-123066697D01*
G36*
X204822399Y-123094233D02*
G01*
X205014917Y-123220057D01*
X205107774Y-123332696D01*
X205181340Y-123537092D01*
X205187183Y-123698830D01*
X205173947Y-123915094D01*
X204675192Y-124133398D01*
X204432685Y-124244930D01*
X204274229Y-124334650D01*
X204191836Y-124412361D01*
X204177518Y-124487867D01*
X204223287Y-124570971D01*
X204273755Y-124626054D01*
X204420605Y-124714389D01*
X204580328Y-124720579D01*
X204727020Y-124651735D01*
X204834781Y-124514972D01*
X204854055Y-124466680D01*
X204946376Y-124315848D01*
X205052588Y-124251567D01*
X205198276Y-124196576D01*
X205198276Y-124405057D01*
X205185396Y-124546926D01*
X205134943Y-124666563D01*
X205029197Y-124803927D01*
X205013480Y-124821777D01*
X204895855Y-124943986D01*
X204794746Y-125009570D01*
X204668250Y-125039742D01*
X204563384Y-125049623D01*
X204375811Y-125052085D01*
X204242284Y-125020892D01*
X204158983Y-124974579D01*
X204028063Y-124872735D01*
X203937439Y-124762591D01*
X203880087Y-124624069D01*
X203848980Y-124437090D01*
X203837094Y-124181577D01*
X203836145Y-124051894D01*
X203839371Y-123896421D01*
X204133166Y-123896421D01*
X204136573Y-123979827D01*
X204145066Y-123993487D01*
X204201110Y-123974931D01*
X204321718Y-123925822D01*
X204482913Y-123856002D01*
X204516622Y-123840995D01*
X204720339Y-123737404D01*
X204832579Y-123646359D01*
X204857247Y-123561081D01*
X204798245Y-123474794D01*
X204749518Y-123436667D01*
X204573694Y-123360417D01*
X204409127Y-123373014D01*
X204271354Y-123466086D01*
X204175913Y-123631256D01*
X204145314Y-123762357D01*
X204133166Y-123896421D01*
X203839371Y-123896421D01*
X203842432Y-123748919D01*
X203865599Y-123524756D01*
X203911490Y-123361526D01*
X203985954Y-123241352D01*
X204094836Y-123146355D01*
X204142305Y-123115655D01*
X204357938Y-123035703D01*
X204594021Y-123030672D01*
X204822399Y-123094233D01*
G37*
X204822399Y-123094233D02*
X205014917Y-123220057D01*
X205107774Y-123332696D01*
X205181340Y-123537092D01*
X205187183Y-123698830D01*
X205173947Y-123915094D01*
X204675192Y-124133398D01*
X204432685Y-124244930D01*
X204274229Y-124334650D01*
X204191836Y-124412361D01*
X204177518Y-124487867D01*
X204223287Y-124570971D01*
X204273755Y-124626054D01*
X204420605Y-124714389D01*
X204580328Y-124720579D01*
X204727020Y-124651735D01*
X204834781Y-124514972D01*
X204854055Y-124466680D01*
X204946376Y-124315848D01*
X205052588Y-124251567D01*
X205198276Y-124196576D01*
X205198276Y-124405057D01*
X205185396Y-124546926D01*
X205134943Y-124666563D01*
X205029197Y-124803927D01*
X205013480Y-124821777D01*
X204895855Y-124943986D01*
X204794746Y-125009570D01*
X204668250Y-125039742D01*
X204563384Y-125049623D01*
X204375811Y-125052085D01*
X204242284Y-125020892D01*
X204158983Y-124974579D01*
X204028063Y-124872735D01*
X203937439Y-124762591D01*
X203880087Y-124624069D01*
X203848980Y-124437090D01*
X203837094Y-124181577D01*
X203836145Y-124051894D01*
X203839371Y-123896421D01*
X204133166Y-123896421D01*
X204136573Y-123979827D01*
X204145066Y-123993487D01*
X204201110Y-123974931D01*
X204321718Y-123925822D01*
X204482913Y-123856002D01*
X204516622Y-123840995D01*
X204720339Y-123737404D01*
X204832579Y-123646359D01*
X204857247Y-123561081D01*
X204798245Y-123474794D01*
X204749518Y-123436667D01*
X204573694Y-123360417D01*
X204409127Y-123373014D01*
X204271354Y-123466086D01*
X204175913Y-123631256D01*
X204145314Y-123762357D01*
X204133166Y-123896421D01*
X203839371Y-123896421D01*
X203842432Y-123748919D01*
X203865599Y-123524756D01*
X203911490Y-123361526D01*
X203985954Y-123241352D01*
X204094836Y-123146355D01*
X204142305Y-123115655D01*
X204357938Y-123035703D01*
X204594021Y-123030672D01*
X204822399Y-123094233D01*
G36*
X194598357Y-107254997D02*
G01*
X194861677Y-107256439D01*
X195052246Y-107260342D01*
X195182345Y-107267937D01*
X195264257Y-107280450D01*
X195310266Y-107299111D01*
X195332653Y-107325148D01*
X195343702Y-107359788D01*
X195344776Y-107364272D01*
X195361559Y-107445189D01*
X195392625Y-107604842D01*
X195434742Y-107826238D01*
X195484679Y-108092385D01*
X195539203Y-108386290D01*
X195541107Y-108396612D01*
X195595723Y-108684636D01*
X195646822Y-108939115D01*
X195691106Y-109144785D01*
X195725279Y-109286385D01*
X195746043Y-109348650D01*
X195747033Y-109349753D01*
X195808199Y-109380159D01*
X195934310Y-109430828D01*
X196098131Y-109490822D01*
X196099043Y-109491142D01*
X196305388Y-109568704D01*
X196548660Y-109667507D01*
X196777969Y-109766848D01*
X196788822Y-109771760D01*
X197162317Y-109941276D01*
X197989365Y-109376495D01*
X198243077Y-109204320D01*
X198472902Y-109050395D01*
X198665525Y-108923474D01*
X198807632Y-108832309D01*
X198885907Y-108785655D01*
X198893340Y-108782195D01*
X198950224Y-108797600D01*
X199056469Y-108871927D01*
X199216219Y-109008681D01*
X199433616Y-109211368D01*
X199655548Y-109427008D01*
X199869491Y-109639503D01*
X200060969Y-109833410D01*
X200218455Y-109996754D01*
X200330422Y-110117561D01*
X200385343Y-110183855D01*
X200387386Y-110187268D01*
X200393458Y-110232761D01*
X200370584Y-110307056D01*
X200313115Y-110420186D01*
X200215399Y-110582185D01*
X200071784Y-110803086D01*
X199880333Y-111087460D01*
X199710423Y-111337759D01*
X199558538Y-111562250D01*
X199433455Y-111747900D01*
X199343949Y-111881675D01*
X199298800Y-111950542D01*
X199295958Y-111955218D01*
X199301470Y-112021201D01*
X199343255Y-112149448D01*
X199412997Y-112315720D01*
X199437854Y-112368819D01*
X199546311Y-112605377D01*
X199662020Y-112873789D01*
X199756015Y-113106035D01*
X199823745Y-113278407D01*
X199877543Y-113409403D01*
X199908631Y-113477867D01*
X199912496Y-113483142D01*
X199969671Y-113491880D01*
X200104448Y-113515823D01*
X200298906Y-113551562D01*
X200535125Y-113595689D01*
X200795184Y-113644795D01*
X201061163Y-113695472D01*
X201315143Y-113744313D01*
X201539201Y-113787909D01*
X201715420Y-113822851D01*
X201825877Y-113845732D01*
X201852970Y-113852201D01*
X201880956Y-113868167D01*
X201902081Y-113904227D01*
X201917297Y-113972552D01*
X201927553Y-114085315D01*
X201933800Y-114254686D01*
X201936988Y-114492838D01*
X201938067Y-114811942D01*
X201938123Y-114942741D01*
X201938123Y-116006511D01*
X201682663Y-116056933D01*
X201540537Y-116084273D01*
X201328450Y-116124182D01*
X201072193Y-116171845D01*
X200797558Y-116222446D01*
X200721648Y-116236344D01*
X200468221Y-116285617D01*
X200247447Y-116334070D01*
X200077857Y-116377215D01*
X199977980Y-116410563D01*
X199961343Y-116420502D01*
X199920489Y-116490891D01*
X199861913Y-116627283D01*
X199796955Y-116802805D01*
X199784071Y-116840613D01*
X199698934Y-117075030D01*
X199593256Y-117339524D01*
X199489840Y-117577041D01*
X199489330Y-117578144D01*
X199317112Y-117950733D01*
X199883524Y-118783893D01*
X200449935Y-119617053D01*
X199722702Y-120345500D01*
X199502748Y-120562302D01*
X199302132Y-120753414D01*
X199132122Y-120908636D01*
X199003985Y-121017764D01*
X198928989Y-121070595D01*
X198918231Y-121073947D01*
X198855067Y-121047549D01*
X198726180Y-120974160D01*
X198545649Y-120862484D01*
X198327554Y-120721224D01*
X198091754Y-120563027D01*
X197852436Y-120401664D01*
X197639059Y-120261252D01*
X197465175Y-120150431D01*
X197344334Y-120077838D01*
X197290263Y-120052108D01*
X197224294Y-120073880D01*
X197099198Y-120131251D01*
X196940780Y-120212300D01*
X196923987Y-120221309D01*
X196710652Y-120328300D01*
X196564364Y-120380772D01*
X196473380Y-120381330D01*
X196425959Y-120332580D01*
X196425683Y-120331897D01*
X196401980Y-120274164D01*
X196345449Y-120137115D01*
X196260474Y-119931357D01*
X196151438Y-119667498D01*
X196022724Y-119356144D01*
X195878715Y-119007904D01*
X195739251Y-118670744D01*
X195585980Y-118298666D01*
X195445251Y-117953987D01*
X195321282Y-117647271D01*
X195218291Y-117389085D01*
X195140496Y-117189994D01*
X195092114Y-117060565D01*
X195077204Y-117012261D01*
X195114594Y-116956850D01*
X195212398Y-116868538D01*
X195342815Y-116771174D01*
X195714223Y-116463253D01*
X196004530Y-116110304D01*
X196210256Y-115719761D01*
X196327923Y-115299057D01*
X196354051Y-114855629D01*
X196335060Y-114650958D01*
X196231583Y-114226323D01*
X196053373Y-113851336D01*
X195811482Y-113529696D01*
X195516963Y-113265101D01*
X195180871Y-113061250D01*
X194814258Y-112921842D01*
X194428177Y-112850574D01*
X194033681Y-112851145D01*
X193641825Y-112927254D01*
X193263660Y-113082599D01*
X192910240Y-113320879D01*
X192762727Y-113455639D01*
X192479816Y-113801679D01*
X192282832Y-114179826D01*
X192170464Y-114579055D01*
X192141401Y-114988345D01*
X192194331Y-115396672D01*
X192327943Y-115793013D01*
X192540925Y-116166345D01*
X192831966Y-116505645D01*
X193157186Y-116771174D01*
X193292652Y-116872671D01*
X193388349Y-116960025D01*
X193422797Y-117012343D01*
X193404760Y-117069398D01*
X193353462Y-117205698D01*
X193273124Y-117410678D01*
X193167964Y-117673772D01*
X193042204Y-117984416D01*
X192900063Y-118332043D01*
X192760365Y-118670826D01*
X192606241Y-119043222D01*
X192463482Y-119388307D01*
X192336471Y-119695477D01*
X192229589Y-119954125D01*
X192147220Y-120153647D01*
X192093747Y-120283435D01*
X192073933Y-120331897D01*
X192027124Y-120381129D01*
X191936583Y-120380985D01*
X191790658Y-120328877D01*
X191577698Y-120222216D01*
X191576014Y-120221309D01*
X191415670Y-120138536D01*
X191286052Y-120078242D01*
X191212963Y-120052346D01*
X191209737Y-120052108D01*
X191154716Y-120078374D01*
X191033243Y-120151416D01*
X190858871Y-120262595D01*
X190645150Y-120403273D01*
X190408247Y-120563027D01*
X190167055Y-120724779D01*
X189949674Y-120865450D01*
X189770184Y-120976335D01*
X189642664Y-121048730D01*
X189581770Y-121073947D01*
X189525697Y-121040803D01*
X189412960Y-120948173D01*
X189254823Y-120806257D01*
X189062551Y-120625255D01*
X188847409Y-120415369D01*
X188777048Y-120345249D01*
X188049566Y-119616552D01*
X188603295Y-118803900D01*
X188771577Y-118554342D01*
X188919271Y-118330366D01*
X189038090Y-118144949D01*
X189119750Y-118011065D01*
X189155964Y-117941690D01*
X189157025Y-117936755D01*
X189137933Y-117871364D01*
X189086582Y-117739825D01*
X189011860Y-117564181D01*
X188959412Y-117446591D01*
X188861346Y-117221461D01*
X188768993Y-116994015D01*
X188697394Y-116801839D01*
X188677944Y-116743295D01*
X188622686Y-116586956D01*
X188568669Y-116466158D01*
X188538999Y-116420502D01*
X188473524Y-116392561D01*
X188330624Y-116352951D01*
X188128839Y-116306162D01*
X187886712Y-116256683D01*
X187778353Y-116236344D01*
X187503189Y-116185781D01*
X187239254Y-116136822D01*
X187012341Y-116094281D01*
X186848239Y-116062975D01*
X186817338Y-116056933D01*
X186561878Y-116006511D01*
X186561878Y-114942741D01*
X186562452Y-114592950D01*
X186564807Y-114328300D01*
X186569893Y-114136622D01*
X186578661Y-114005744D01*
X186592062Y-113923493D01*
X186611046Y-113877698D01*
X186636562Y-113856188D01*
X186647031Y-113852201D01*
X186710174Y-113838056D01*
X186849675Y-113809834D01*
X187047611Y-113770943D01*
X187286065Y-113724792D01*
X187547114Y-113674788D01*
X187812839Y-113624341D01*
X188065319Y-113576858D01*
X188286635Y-113535748D01*
X188458866Y-113504419D01*
X188564092Y-113486278D01*
X188587505Y-113483142D01*
X188608716Y-113441173D01*
X188655668Y-113329370D01*
X188719581Y-113168888D01*
X188743986Y-113106035D01*
X188842420Y-112863203D01*
X188958334Y-112594918D01*
X189062147Y-112368819D01*
X189138535Y-112195935D01*
X189189356Y-112053877D01*
X189206321Y-111966878D01*
X189203616Y-111955218D01*
X189167761Y-111900170D01*
X189085892Y-111777739D01*
X188966795Y-111600962D01*
X188819258Y-111382877D01*
X188652069Y-111136520D01*
X188619010Y-111087891D01*
X188425020Y-110799773D01*
X188282421Y-110580377D01*
X188185527Y-110419602D01*
X188128654Y-110307346D01*
X188106116Y-110233510D01*
X188112228Y-110187990D01*
X188112384Y-110187700D01*
X188160489Y-110127910D01*
X188266889Y-110012319D01*
X188420052Y-109852909D01*
X188608445Y-109661665D01*
X188820535Y-109450568D01*
X188844453Y-109427008D01*
X189111738Y-109168172D01*
X189318008Y-108978117D01*
X189467408Y-108853337D01*
X189564080Y-108790327D01*
X189606661Y-108782195D01*
X189668804Y-108817672D01*
X189797763Y-108899623D01*
X189980222Y-109019292D01*
X190202867Y-109167926D01*
X190452384Y-109336772D01*
X190510636Y-109376495D01*
X191337684Y-109941276D01*
X191711179Y-109771760D01*
X191938316Y-109672971D01*
X192182128Y-109573617D01*
X192391725Y-109494401D01*
X192400958Y-109491142D01*
X192564905Y-109431129D01*
X192691285Y-109380382D01*
X192752863Y-109349841D01*
X192752968Y-109349753D01*
X192772507Y-109294548D01*
X192805721Y-109158779D01*
X192849313Y-108957709D01*
X192899984Y-108706599D01*
X192954439Y-108420713D01*
X192958894Y-108396612D01*
X193013518Y-108102059D01*
X193063664Y-107834684D01*
X193106102Y-107611480D01*
X193137598Y-107449439D01*
X193154923Y-107365553D01*
X193155225Y-107364272D01*
X193165768Y-107328588D01*
X193186269Y-107301646D01*
X193229011Y-107282218D01*
X193306276Y-107269075D01*
X193430348Y-107260989D01*
X193613509Y-107256732D01*
X193868042Y-107255075D01*
X194206231Y-107254790D01*
X194250000Y-107254790D01*
X194598357Y-107254997D01*
G37*
X194598357Y-107254997D02*
X194861677Y-107256439D01*
X195052246Y-107260342D01*
X195182345Y-107267937D01*
X195264257Y-107280450D01*
X195310266Y-107299111D01*
X195332653Y-107325148D01*
X195343702Y-107359788D01*
X195344776Y-107364272D01*
X195361559Y-107445189D01*
X195392625Y-107604842D01*
X195434742Y-107826238D01*
X195484679Y-108092385D01*
X195539203Y-108386290D01*
X195541107Y-108396612D01*
X195595723Y-108684636D01*
X195646822Y-108939115D01*
X195691106Y-109144785D01*
X195725279Y-109286385D01*
X195746043Y-109348650D01*
X195747033Y-109349753D01*
X195808199Y-109380159D01*
X195934310Y-109430828D01*
X196098131Y-109490822D01*
X196099043Y-109491142D01*
X196305388Y-109568704D01*
X196548660Y-109667507D01*
X196777969Y-109766848D01*
X196788822Y-109771760D01*
X197162317Y-109941276D01*
X197989365Y-109376495D01*
X198243077Y-109204320D01*
X198472902Y-109050395D01*
X198665525Y-108923474D01*
X198807632Y-108832309D01*
X198885907Y-108785655D01*
X198893340Y-108782195D01*
X198950224Y-108797600D01*
X199056469Y-108871927D01*
X199216219Y-109008681D01*
X199433616Y-109211368D01*
X199655548Y-109427008D01*
X199869491Y-109639503D01*
X200060969Y-109833410D01*
X200218455Y-109996754D01*
X200330422Y-110117561D01*
X200385343Y-110183855D01*
X200387386Y-110187268D01*
X200393458Y-110232761D01*
X200370584Y-110307056D01*
X200313115Y-110420186D01*
X200215399Y-110582185D01*
X200071784Y-110803086D01*
X199880333Y-111087460D01*
X199710423Y-111337759D01*
X199558538Y-111562250D01*
X199433455Y-111747900D01*
X199343949Y-111881675D01*
X199298800Y-111950542D01*
X199295958Y-111955218D01*
X199301470Y-112021201D01*
X199343255Y-112149448D01*
X199412997Y-112315720D01*
X199437854Y-112368819D01*
X199546311Y-112605377D01*
X199662020Y-112873789D01*
X199756015Y-113106035D01*
X199823745Y-113278407D01*
X199877543Y-113409403D01*
X199908631Y-113477867D01*
X199912496Y-113483142D01*
X199969671Y-113491880D01*
X200104448Y-113515823D01*
X200298906Y-113551562D01*
X200535125Y-113595689D01*
X200795184Y-113644795D01*
X201061163Y-113695472D01*
X201315143Y-113744313D01*
X201539201Y-113787909D01*
X201715420Y-113822851D01*
X201825877Y-113845732D01*
X201852970Y-113852201D01*
X201880956Y-113868167D01*
X201902081Y-113904227D01*
X201917297Y-113972552D01*
X201927553Y-114085315D01*
X201933800Y-114254686D01*
X201936988Y-114492838D01*
X201938067Y-114811942D01*
X201938123Y-114942741D01*
X201938123Y-116006511D01*
X201682663Y-116056933D01*
X201540537Y-116084273D01*
X201328450Y-116124182D01*
X201072193Y-116171845D01*
X200797558Y-116222446D01*
X200721648Y-116236344D01*
X200468221Y-116285617D01*
X200247447Y-116334070D01*
X200077857Y-116377215D01*
X199977980Y-116410563D01*
X199961343Y-116420502D01*
X199920489Y-116490891D01*
X199861913Y-116627283D01*
X199796955Y-116802805D01*
X199784071Y-116840613D01*
X199698934Y-117075030D01*
X199593256Y-117339524D01*
X199489840Y-117577041D01*
X199489330Y-117578144D01*
X199317112Y-117950733D01*
X199883524Y-118783893D01*
X200449935Y-119617053D01*
X199722702Y-120345500D01*
X199502748Y-120562302D01*
X199302132Y-120753414D01*
X199132122Y-120908636D01*
X199003985Y-121017764D01*
X198928989Y-121070595D01*
X198918231Y-121073947D01*
X198855067Y-121047549D01*
X198726180Y-120974160D01*
X198545649Y-120862484D01*
X198327554Y-120721224D01*
X198091754Y-120563027D01*
X197852436Y-120401664D01*
X197639059Y-120261252D01*
X197465175Y-120150431D01*
X197344334Y-120077838D01*
X197290263Y-120052108D01*
X197224294Y-120073880D01*
X197099198Y-120131251D01*
X196940780Y-120212300D01*
X196923987Y-120221309D01*
X196710652Y-120328300D01*
X196564364Y-120380772D01*
X196473380Y-120381330D01*
X196425959Y-120332580D01*
X196425683Y-120331897D01*
X196401980Y-120274164D01*
X196345449Y-120137115D01*
X196260474Y-119931357D01*
X196151438Y-119667498D01*
X196022724Y-119356144D01*
X195878715Y-119007904D01*
X195739251Y-118670744D01*
X195585980Y-118298666D01*
X195445251Y-117953987D01*
X195321282Y-117647271D01*
X195218291Y-117389085D01*
X195140496Y-117189994D01*
X195092114Y-117060565D01*
X195077204Y-117012261D01*
X195114594Y-116956850D01*
X195212398Y-116868538D01*
X195342815Y-116771174D01*
X195714223Y-116463253D01*
X196004530Y-116110304D01*
X196210256Y-115719761D01*
X196327923Y-115299057D01*
X196354051Y-114855629D01*
X196335060Y-114650958D01*
X196231583Y-114226323D01*
X196053373Y-113851336D01*
X195811482Y-113529696D01*
X195516963Y-113265101D01*
X195180871Y-113061250D01*
X194814258Y-112921842D01*
X194428177Y-112850574D01*
X194033681Y-112851145D01*
X193641825Y-112927254D01*
X193263660Y-113082599D01*
X192910240Y-113320879D01*
X192762727Y-113455639D01*
X192479816Y-113801679D01*
X192282832Y-114179826D01*
X192170464Y-114579055D01*
X192141401Y-114988345D01*
X192194331Y-115396672D01*
X192327943Y-115793013D01*
X192540925Y-116166345D01*
X192831966Y-116505645D01*
X193157186Y-116771174D01*
X193292652Y-116872671D01*
X193388349Y-116960025D01*
X193422797Y-117012343D01*
X193404760Y-117069398D01*
X193353462Y-117205698D01*
X193273124Y-117410678D01*
X193167964Y-117673772D01*
X193042204Y-117984416D01*
X192900063Y-118332043D01*
X192760365Y-118670826D01*
X192606241Y-119043222D01*
X192463482Y-119388307D01*
X192336471Y-119695477D01*
X192229589Y-119954125D01*
X192147220Y-120153647D01*
X192093747Y-120283435D01*
X192073933Y-120331897D01*
X192027124Y-120381129D01*
X191936583Y-120380985D01*
X191790658Y-120328877D01*
X191577698Y-120222216D01*
X191576014Y-120221309D01*
X191415670Y-120138536D01*
X191286052Y-120078242D01*
X191212963Y-120052346D01*
X191209737Y-120052108D01*
X191154716Y-120078374D01*
X191033243Y-120151416D01*
X190858871Y-120262595D01*
X190645150Y-120403273D01*
X190408247Y-120563027D01*
X190167055Y-120724779D01*
X189949674Y-120865450D01*
X189770184Y-120976335D01*
X189642664Y-121048730D01*
X189581770Y-121073947D01*
X189525697Y-121040803D01*
X189412960Y-120948173D01*
X189254823Y-120806257D01*
X189062551Y-120625255D01*
X188847409Y-120415369D01*
X188777048Y-120345249D01*
X188049566Y-119616552D01*
X188603295Y-118803900D01*
X188771577Y-118554342D01*
X188919271Y-118330366D01*
X189038090Y-118144949D01*
X189119750Y-118011065D01*
X189155964Y-117941690D01*
X189157025Y-117936755D01*
X189137933Y-117871364D01*
X189086582Y-117739825D01*
X189011860Y-117564181D01*
X188959412Y-117446591D01*
X188861346Y-117221461D01*
X188768993Y-116994015D01*
X188697394Y-116801839D01*
X188677944Y-116743295D01*
X188622686Y-116586956D01*
X188568669Y-116466158D01*
X188538999Y-116420502D01*
X188473524Y-116392561D01*
X188330624Y-116352951D01*
X188128839Y-116306162D01*
X187886712Y-116256683D01*
X187778353Y-116236344D01*
X187503189Y-116185781D01*
X187239254Y-116136822D01*
X187012341Y-116094281D01*
X186848239Y-116062975D01*
X186817338Y-116056933D01*
X186561878Y-116006511D01*
X186561878Y-114942741D01*
X186562452Y-114592950D01*
X186564807Y-114328300D01*
X186569893Y-114136622D01*
X186578661Y-114005744D01*
X186592062Y-113923493D01*
X186611046Y-113877698D01*
X186636562Y-113856188D01*
X186647031Y-113852201D01*
X186710174Y-113838056D01*
X186849675Y-113809834D01*
X187047611Y-113770943D01*
X187286065Y-113724792D01*
X187547114Y-113674788D01*
X187812839Y-113624341D01*
X188065319Y-113576858D01*
X188286635Y-113535748D01*
X188458866Y-113504419D01*
X188564092Y-113486278D01*
X188587505Y-113483142D01*
X188608716Y-113441173D01*
X188655668Y-113329370D01*
X188719581Y-113168888D01*
X188743986Y-113106035D01*
X188842420Y-112863203D01*
X188958334Y-112594918D01*
X189062147Y-112368819D01*
X189138535Y-112195935D01*
X189189356Y-112053877D01*
X189206321Y-111966878D01*
X189203616Y-111955218D01*
X189167761Y-111900170D01*
X189085892Y-111777739D01*
X188966795Y-111600962D01*
X188819258Y-111382877D01*
X188652069Y-111136520D01*
X188619010Y-111087891D01*
X188425020Y-110799773D01*
X188282421Y-110580377D01*
X188185527Y-110419602D01*
X188128654Y-110307346D01*
X188106116Y-110233510D01*
X188112228Y-110187990D01*
X188112384Y-110187700D01*
X188160489Y-110127910D01*
X188266889Y-110012319D01*
X188420052Y-109852909D01*
X188608445Y-109661665D01*
X188820535Y-109450568D01*
X188844453Y-109427008D01*
X189111738Y-109168172D01*
X189318008Y-108978117D01*
X189467408Y-108853337D01*
X189564080Y-108790327D01*
X189606661Y-108782195D01*
X189668804Y-108817672D01*
X189797763Y-108899623D01*
X189980222Y-109019292D01*
X190202867Y-109167926D01*
X190452384Y-109336772D01*
X190510636Y-109376495D01*
X191337684Y-109941276D01*
X191711179Y-109771760D01*
X191938316Y-109672971D01*
X192182128Y-109573617D01*
X192391725Y-109494401D01*
X192400958Y-109491142D01*
X192564905Y-109431129D01*
X192691285Y-109380382D01*
X192752863Y-109349841D01*
X192752968Y-109349753D01*
X192772507Y-109294548D01*
X192805721Y-109158779D01*
X192849313Y-108957709D01*
X192899984Y-108706599D01*
X192954439Y-108420713D01*
X192958894Y-108396612D01*
X193013518Y-108102059D01*
X193063664Y-107834684D01*
X193106102Y-107611480D01*
X193137598Y-107449439D01*
X193154923Y-107365553D01*
X193155225Y-107364272D01*
X193165768Y-107328588D01*
X193186269Y-107301646D01*
X193229011Y-107282218D01*
X193306276Y-107269075D01*
X193430348Y-107260989D01*
X193613509Y-107256732D01*
X193868042Y-107255075D01*
X194206231Y-107254790D01*
X194250000Y-107254790D01*
X194598357Y-107254997D01*
%TD*%
M02*
