%TF.GenerationSoftware,KiCad,Pcbnew,(5.1.9-0-10_14)*%
%TF.CreationDate,2022-08-31T22:56:09-04:00*%
%TF.ProjectId,47AhFoMoCo,34374168-466f-44d6-9f43-6f2e6b696361,rev?*%
%TF.SameCoordinates,Original*%
%TF.FileFunction,Soldermask,Bot*%
%TF.FilePolarity,Negative*%
%FSLAX46Y46*%
G04 Gerber Fmt 4.6, Leading zero omitted, Abs format (unit mm)*
G04 Created by KiCad (PCBNEW (5.1.9-0-10_14)) date 2022-08-31 22:56:09*
%MOMM*%
%LPD*%
G01*
G04 APERTURE LIST*
%ADD10R,1.700000X1.700000*%
%ADD11O,1.700000X1.700000*%
%ADD12O,10.500000X8.750000*%
%ADD13O,13.500000X8.750000*%
G04 APERTURE END LIST*
%TO.C,R2*%
G36*
G01*
X75299998Y-120900000D02*
X76200002Y-120900000D01*
G75*
G02*
X76450000Y-121149998I0J-249998D01*
G01*
X76450000Y-121675002D01*
G75*
G02*
X76200002Y-121925000I-249998J0D01*
G01*
X75299998Y-121925000D01*
G75*
G02*
X75050000Y-121675002I0J249998D01*
G01*
X75050000Y-121149998D01*
G75*
G02*
X75299998Y-120900000I249998J0D01*
G01*
G37*
G36*
G01*
X75299998Y-119075000D02*
X76200002Y-119075000D01*
G75*
G02*
X76450000Y-119324998I0J-249998D01*
G01*
X76450000Y-119850002D01*
G75*
G02*
X76200002Y-120100000I-249998J0D01*
G01*
X75299998Y-120100000D01*
G75*
G02*
X75050000Y-119850002I0J249998D01*
G01*
X75050000Y-119324998D01*
G75*
G02*
X75299998Y-119075000I249998J0D01*
G01*
G37*
%TD*%
%TO.C,R1*%
G36*
G01*
X70950002Y-94012500D02*
X70049998Y-94012500D01*
G75*
G02*
X69800000Y-93762502I0J249998D01*
G01*
X69800000Y-93237498D01*
G75*
G02*
X70049998Y-92987500I249998J0D01*
G01*
X70950002Y-92987500D01*
G75*
G02*
X71200000Y-93237498I0J-249998D01*
G01*
X71200000Y-93762502D01*
G75*
G02*
X70950002Y-94012500I-249998J0D01*
G01*
G37*
G36*
G01*
X70950002Y-92187500D02*
X70049998Y-92187500D01*
G75*
G02*
X69800000Y-91937502I0J249998D01*
G01*
X69800000Y-91412498D01*
G75*
G02*
X70049998Y-91162500I249998J0D01*
G01*
X70950002Y-91162500D01*
G75*
G02*
X71200000Y-91412498I0J-249998D01*
G01*
X71200000Y-91937502D01*
G75*
G02*
X70950002Y-92187500I-249998J0D01*
G01*
G37*
%TD*%
%TO.C,R3*%
G36*
G01*
X86200002Y-93675000D02*
X85299998Y-93675000D01*
G75*
G02*
X85050000Y-93425002I0J249998D01*
G01*
X85050000Y-92899998D01*
G75*
G02*
X85299998Y-92650000I249998J0D01*
G01*
X86200002Y-92650000D01*
G75*
G02*
X86450000Y-92899998I0J-249998D01*
G01*
X86450000Y-93425002D01*
G75*
G02*
X86200002Y-93675000I-249998J0D01*
G01*
G37*
G36*
G01*
X86200002Y-91850000D02*
X85299998Y-91850000D01*
G75*
G02*
X85050000Y-91600002I0J249998D01*
G01*
X85050000Y-91074998D01*
G75*
G02*
X85299998Y-90825000I249998J0D01*
G01*
X86200002Y-90825000D01*
G75*
G02*
X86450000Y-91074998I0J-249998D01*
G01*
X86450000Y-91600002D01*
G75*
G02*
X86200002Y-91850000I-249998J0D01*
G01*
G37*
%TD*%
%TO.C,R4*%
G36*
G01*
X112299998Y-120900000D02*
X113200002Y-120900000D01*
G75*
G02*
X113450000Y-121149998I0J-249998D01*
G01*
X113450000Y-121675002D01*
G75*
G02*
X113200002Y-121925000I-249998J0D01*
G01*
X112299998Y-121925000D01*
G75*
G02*
X112050000Y-121675002I0J249998D01*
G01*
X112050000Y-121149998D01*
G75*
G02*
X112299998Y-120900000I249998J0D01*
G01*
G37*
G36*
G01*
X112299998Y-119075000D02*
X113200002Y-119075000D01*
G75*
G02*
X113450000Y-119324998I0J-249998D01*
G01*
X113450000Y-119850002D01*
G75*
G02*
X113200002Y-120100000I-249998J0D01*
G01*
X112299998Y-120100000D01*
G75*
G02*
X112050000Y-119850002I0J249998D01*
G01*
X112050000Y-119324998D01*
G75*
G02*
X112299998Y-119075000I249998J0D01*
G01*
G37*
%TD*%
%TO.C,R5*%
G36*
G01*
X140162502Y-93925000D02*
X139262498Y-93925000D01*
G75*
G02*
X139012500Y-93675002I0J249998D01*
G01*
X139012500Y-93149998D01*
G75*
G02*
X139262498Y-92900000I249998J0D01*
G01*
X140162502Y-92900000D01*
G75*
G02*
X140412500Y-93149998I0J-249998D01*
G01*
X140412500Y-93675002D01*
G75*
G02*
X140162502Y-93925000I-249998J0D01*
G01*
G37*
G36*
G01*
X140162502Y-92100000D02*
X139262498Y-92100000D01*
G75*
G02*
X139012500Y-91850002I0J249998D01*
G01*
X139012500Y-91324998D01*
G75*
G02*
X139262498Y-91075000I249998J0D01*
G01*
X140162502Y-91075000D01*
G75*
G02*
X140412500Y-91324998I0J-249998D01*
G01*
X140412500Y-91850002D01*
G75*
G02*
X140162502Y-92100000I-249998J0D01*
G01*
G37*
%TD*%
%TO.C,R6*%
G36*
G01*
X166299998Y-120900000D02*
X167200002Y-120900000D01*
G75*
G02*
X167450000Y-121149998I0J-249998D01*
G01*
X167450000Y-121675002D01*
G75*
G02*
X167200002Y-121925000I-249998J0D01*
G01*
X166299998Y-121925000D01*
G75*
G02*
X166050000Y-121675002I0J249998D01*
G01*
X166050000Y-121149998D01*
G75*
G02*
X166299998Y-120900000I249998J0D01*
G01*
G37*
G36*
G01*
X166299998Y-119075000D02*
X167200002Y-119075000D01*
G75*
G02*
X167450000Y-119324998I0J-249998D01*
G01*
X167450000Y-119850002D01*
G75*
G02*
X167200002Y-120100000I-249998J0D01*
G01*
X166299998Y-120100000D01*
G75*
G02*
X166050000Y-119850002I0J249998D01*
G01*
X166050000Y-119324998D01*
G75*
G02*
X166299998Y-119075000I249998J0D01*
G01*
G37*
%TD*%
%TO.C,R7*%
G36*
G01*
X194200002Y-93675000D02*
X193299998Y-93675000D01*
G75*
G02*
X193050000Y-93425002I0J249998D01*
G01*
X193050000Y-92899998D01*
G75*
G02*
X193299998Y-92650000I249998J0D01*
G01*
X194200002Y-92650000D01*
G75*
G02*
X194450000Y-92899998I0J-249998D01*
G01*
X194450000Y-93425002D01*
G75*
G02*
X194200002Y-93675000I-249998J0D01*
G01*
G37*
G36*
G01*
X194200002Y-91850000D02*
X193299998Y-91850000D01*
G75*
G02*
X193050000Y-91600002I0J249998D01*
G01*
X193050000Y-91074998D01*
G75*
G02*
X193299998Y-90825000I249998J0D01*
G01*
X194200002Y-90825000D01*
G75*
G02*
X194450000Y-91074998I0J-249998D01*
G01*
X194450000Y-91600002D01*
G75*
G02*
X194200002Y-91850000I-249998J0D01*
G01*
G37*
%TD*%
D10*
%TO.C,J13*%
X343790000Y-124630000D03*
D11*
X346330000Y-124630000D03*
X343790000Y-122090000D03*
X346330000Y-122090000D03*
X343790000Y-119550000D03*
X346330000Y-119550000D03*
X343790000Y-117010000D03*
X346330000Y-117010000D03*
X343790000Y-114470000D03*
X346330000Y-114470000D03*
X343790000Y-111930000D03*
X346330000Y-111930000D03*
X343790000Y-109390000D03*
X346330000Y-109390000D03*
%TD*%
%TO.C,J14*%
X41670000Y-124630000D03*
X44210000Y-124630000D03*
X41670000Y-122090000D03*
X44210000Y-122090000D03*
X41670000Y-119550000D03*
X44210000Y-119550000D03*
X41670000Y-117010000D03*
X44210000Y-117010000D03*
X41670000Y-114470000D03*
X44210000Y-114470000D03*
X41670000Y-111930000D03*
X44210000Y-111930000D03*
X41670000Y-109390000D03*
D10*
X44210000Y-109390000D03*
%TD*%
D12*
%TO.C,J10p1*%
X302700000Y-81900000D03*
%TD*%
%TO.C,J11p1*%
X317700000Y-131100000D03*
%TD*%
D13*
%TO.C,J12p1*%
X317500000Y-81900000D03*
%TD*%
%TO.C,J1n1*%
X70500000Y-81900000D03*
%TD*%
D12*
%TO.C,J1p1*%
X75700000Y-131100000D03*
%TD*%
%TO.C,J2p1*%
X85700000Y-81900000D03*
%TD*%
%TO.C,J3p1*%
X112700000Y-131100000D03*
%TD*%
%TO.C,J4p1*%
X139700000Y-81900000D03*
%TD*%
%TO.C,J5p1*%
X166700000Y-131100000D03*
%TD*%
%TO.C,J6p1*%
X193700000Y-81900000D03*
%TD*%
%TO.C,J7p1*%
X221700000Y-131100000D03*
%TD*%
%TO.C,J8p1*%
X247700000Y-81900000D03*
%TD*%
%TO.C,J9p1*%
X275700000Y-131100000D03*
%TD*%
%TO.C,R8*%
G36*
G01*
X221299998Y-120900000D02*
X222200002Y-120900000D01*
G75*
G02*
X222450000Y-121149998I0J-249998D01*
G01*
X222450000Y-121675002D01*
G75*
G02*
X222200002Y-121925000I-249998J0D01*
G01*
X221299998Y-121925000D01*
G75*
G02*
X221050000Y-121675002I0J249998D01*
G01*
X221050000Y-121149998D01*
G75*
G02*
X221299998Y-120900000I249998J0D01*
G01*
G37*
G36*
G01*
X221299998Y-119075000D02*
X222200002Y-119075000D01*
G75*
G02*
X222450000Y-119324998I0J-249998D01*
G01*
X222450000Y-119850002D01*
G75*
G02*
X222200002Y-120100000I-249998J0D01*
G01*
X221299998Y-120100000D01*
G75*
G02*
X221050000Y-119850002I0J249998D01*
G01*
X221050000Y-119324998D01*
G75*
G02*
X221299998Y-119075000I249998J0D01*
G01*
G37*
%TD*%
%TO.C,R9*%
G36*
G01*
X248200002Y-93675000D02*
X247299998Y-93675000D01*
G75*
G02*
X247050000Y-93425002I0J249998D01*
G01*
X247050000Y-92899998D01*
G75*
G02*
X247299998Y-92650000I249998J0D01*
G01*
X248200002Y-92650000D01*
G75*
G02*
X248450000Y-92899998I0J-249998D01*
G01*
X248450000Y-93425002D01*
G75*
G02*
X248200002Y-93675000I-249998J0D01*
G01*
G37*
G36*
G01*
X248200002Y-91850000D02*
X247299998Y-91850000D01*
G75*
G02*
X247050000Y-91600002I0J249998D01*
G01*
X247050000Y-91074998D01*
G75*
G02*
X247299998Y-90825000I249998J0D01*
G01*
X248200002Y-90825000D01*
G75*
G02*
X248450000Y-91074998I0J-249998D01*
G01*
X248450000Y-91600002D01*
G75*
G02*
X248200002Y-91850000I-249998J0D01*
G01*
G37*
%TD*%
%TO.C,R10*%
G36*
G01*
X275299998Y-120900000D02*
X276200002Y-120900000D01*
G75*
G02*
X276450000Y-121149998I0J-249998D01*
G01*
X276450000Y-121675002D01*
G75*
G02*
X276200002Y-121925000I-249998J0D01*
G01*
X275299998Y-121925000D01*
G75*
G02*
X275050000Y-121675002I0J249998D01*
G01*
X275050000Y-121149998D01*
G75*
G02*
X275299998Y-120900000I249998J0D01*
G01*
G37*
G36*
G01*
X275299998Y-119075000D02*
X276200002Y-119075000D01*
G75*
G02*
X276450000Y-119324998I0J-249998D01*
G01*
X276450000Y-119850002D01*
G75*
G02*
X276200002Y-120100000I-249998J0D01*
G01*
X275299998Y-120100000D01*
G75*
G02*
X275050000Y-119850002I0J249998D01*
G01*
X275050000Y-119324998D01*
G75*
G02*
X275299998Y-119075000I249998J0D01*
G01*
G37*
%TD*%
%TO.C,R11*%
G36*
G01*
X303200002Y-93675000D02*
X302299998Y-93675000D01*
G75*
G02*
X302050000Y-93425002I0J249998D01*
G01*
X302050000Y-92899998D01*
G75*
G02*
X302299998Y-92650000I249998J0D01*
G01*
X303200002Y-92650000D01*
G75*
G02*
X303450000Y-92899998I0J-249998D01*
G01*
X303450000Y-93425002D01*
G75*
G02*
X303200002Y-93675000I-249998J0D01*
G01*
G37*
G36*
G01*
X303200002Y-91850000D02*
X302299998Y-91850000D01*
G75*
G02*
X302050000Y-91600002I0J249998D01*
G01*
X302050000Y-91074998D01*
G75*
G02*
X302299998Y-90825000I249998J0D01*
G01*
X303200002Y-90825000D01*
G75*
G02*
X303450000Y-91074998I0J-249998D01*
G01*
X303450000Y-91600002D01*
G75*
G02*
X303200002Y-91850000I-249998J0D01*
G01*
G37*
%TD*%
%TO.C,R12*%
G36*
G01*
X317299998Y-120900000D02*
X318200002Y-120900000D01*
G75*
G02*
X318450000Y-121149998I0J-249998D01*
G01*
X318450000Y-121675002D01*
G75*
G02*
X318200002Y-121925000I-249998J0D01*
G01*
X317299998Y-121925000D01*
G75*
G02*
X317050000Y-121675002I0J249998D01*
G01*
X317050000Y-121149998D01*
G75*
G02*
X317299998Y-120900000I249998J0D01*
G01*
G37*
G36*
G01*
X317299998Y-119075000D02*
X318200002Y-119075000D01*
G75*
G02*
X318450000Y-119324998I0J-249998D01*
G01*
X318450000Y-119850002D01*
G75*
G02*
X318200002Y-120100000I-249998J0D01*
G01*
X317299998Y-120100000D01*
G75*
G02*
X317050000Y-119850002I0J249998D01*
G01*
X317050000Y-119324998D01*
G75*
G02*
X317299998Y-119075000I249998J0D01*
G01*
G37*
%TD*%
%TO.C,R13*%
G36*
G01*
X317950002Y-93675000D02*
X317049998Y-93675000D01*
G75*
G02*
X316800000Y-93425002I0J249998D01*
G01*
X316800000Y-92899998D01*
G75*
G02*
X317049998Y-92650000I249998J0D01*
G01*
X317950002Y-92650000D01*
G75*
G02*
X318200000Y-92899998I0J-249998D01*
G01*
X318200000Y-93425002D01*
G75*
G02*
X317950002Y-93675000I-249998J0D01*
G01*
G37*
G36*
G01*
X317950002Y-91850000D02*
X317049998Y-91850000D01*
G75*
G02*
X316800000Y-91600002I0J249998D01*
G01*
X316800000Y-91074998D01*
G75*
G02*
X317049998Y-90825000I249998J0D01*
G01*
X317950002Y-90825000D01*
G75*
G02*
X318200000Y-91074998I0J-249998D01*
G01*
X318200000Y-91600002D01*
G75*
G02*
X317950002Y-91850000I-249998J0D01*
G01*
G37*
%TD*%
%TO.C,J_MECH_1*%
X194200000Y-131100000D03*
%TD*%
M02*
