%TF.GenerationSoftware,KiCad,Pcbnew,(5.1.9-0-10_14)*%
%TF.CreationDate,2022-08-31T22:56:09-04:00*%
%TF.ProjectId,47AhFoMoCo,34374168-466f-44d6-9f43-6f2e6b696361,rev?*%
%TF.SameCoordinates,Original*%
%TF.FileFunction,Soldermask,Top*%
%TF.FilePolarity,Negative*%
%FSLAX46Y46*%
G04 Gerber Fmt 4.6, Leading zero omitted, Abs format (unit mm)*
G04 Created by KiCad (PCBNEW (5.1.9-0-10_14)) date 2022-08-31 22:56:09*
%MOMM*%
%LPD*%
G01*
G04 APERTURE LIST*
%ADD10R,1.700000X1.700000*%
%ADD11O,1.700000X1.700000*%
%ADD12O,10.500000X8.750000*%
%ADD13O,13.500000X8.750000*%
G04 APERTURE END LIST*
D10*
%TO.C,J13*%
X343790000Y-124630000D03*
D11*
X346330000Y-124630000D03*
X343790000Y-122090000D03*
X346330000Y-122090000D03*
X343790000Y-119550000D03*
X346330000Y-119550000D03*
X343790000Y-117010000D03*
X346330000Y-117010000D03*
X343790000Y-114470000D03*
X346330000Y-114470000D03*
X343790000Y-111930000D03*
X346330000Y-111930000D03*
X343790000Y-109390000D03*
X346330000Y-109390000D03*
%TD*%
%TO.C,J14*%
X41670000Y-124630000D03*
X44210000Y-124630000D03*
X41670000Y-122090000D03*
X44210000Y-122090000D03*
X41670000Y-119550000D03*
X44210000Y-119550000D03*
X41670000Y-117010000D03*
X44210000Y-117010000D03*
X41670000Y-114470000D03*
X44210000Y-114470000D03*
X41670000Y-111930000D03*
X44210000Y-111930000D03*
X41670000Y-109390000D03*
D10*
X44210000Y-109390000D03*
%TD*%
D12*
%TO.C,J10p1*%
X302700000Y-81900000D03*
%TD*%
%TO.C,J11p1*%
X317700000Y-131100000D03*
%TD*%
D13*
%TO.C,J12p1*%
X317500000Y-81900000D03*
%TD*%
%TO.C,J1n1*%
X70500000Y-81900000D03*
%TD*%
D12*
%TO.C,J1p1*%
X75700000Y-131100000D03*
%TD*%
%TO.C,J2p1*%
X85700000Y-81900000D03*
%TD*%
%TO.C,J3p1*%
X112700000Y-131100000D03*
%TD*%
%TO.C,J4p1*%
X139700000Y-81900000D03*
%TD*%
%TO.C,J5p1*%
X166700000Y-131100000D03*
%TD*%
%TO.C,J6p1*%
X193700000Y-81900000D03*
%TD*%
%TO.C,J7p1*%
X221700000Y-131100000D03*
%TD*%
%TO.C,J8p1*%
X247700000Y-81900000D03*
%TD*%
%TO.C,J9p1*%
X275700000Y-131100000D03*
%TD*%
%TO.C,J_MECH_1*%
X194200000Y-131100000D03*
%TD*%
M02*
