M48
; DRILL file {KiCad (5.1.9-0-10_14)} date Wednesday, August 31, 2022 at 10:56:07 PM
; FORMAT={-:-/ absolute / metric / decimal}
; #@! TF.CreationDate,2022-08-31T22:56:07-04:00
; #@! TF.GenerationSoftware,Kicad,Pcbnew,(5.1.9-0-10_14)
FMAT,2
METRIC
T1C0.400
T2C1.000
T3C4.750
%
G90
G05
T1
X72.5Y-93.5
X77.5Y-119.5
X83.25Y-113.75
X87.25Y-94.75
X114.5Y-119.5
X120.0Y-114.0
X168.75Y-119.5
X171.5Y-116.75
X189.0Y-94.5
X192.0Y-93.25
X241.0Y-94.25
X246.0Y-93.25
X274.25Y-118.25
X304.5Y-93.5
X304.5Y-99.25
X309.0Y-99.5
X315.0Y-119.5
X315.5Y-93.0
T2
X41.67Y-109.39
X41.67Y-111.93
X41.67Y-114.47
X41.67Y-117.01
X41.67Y-119.55
X41.67Y-122.09
X41.67Y-124.63
X44.21Y-109.39
X44.21Y-111.93
X44.21Y-114.47
X44.21Y-117.01
X44.21Y-119.55
X44.21Y-122.09
X44.21Y-124.63
X343.79Y-109.39
X343.79Y-111.93
X343.79Y-114.47
X343.79Y-117.01
X343.79Y-119.55
X343.79Y-122.09
X343.79Y-124.63
X346.33Y-109.39
X346.33Y-111.93
X346.33Y-114.47
X346.33Y-117.01
X346.33Y-119.55
X346.33Y-122.09
X346.33Y-124.63
T3
G00X68.375Y-81.9
M15
G01X72.625Y-81.9
M16
G05
G00X74.825Y-131.1
M15
G01X76.575Y-131.1
M16
G05
G00X84.825Y-81.9
M15
G01X86.575Y-81.9
M16
G05
G00X111.825Y-131.1
M15
G01X113.575Y-131.1
M16
G05
G00X138.825Y-81.9
M15
G01X140.575Y-81.9
M16
G05
G00X165.825Y-131.1
M15
G01X167.575Y-131.1
M16
G05
G00X192.825Y-81.9
M15
G01X194.575Y-81.9
M16
G05
G00X193.325Y-131.1
M15
G01X195.075Y-131.1
M16
G05
G00X220.825Y-131.1
M15
G01X222.575Y-131.1
M16
G05
G00X246.825Y-81.9
M15
G01X248.575Y-81.9
M16
G05
G00X274.825Y-131.1
M15
G01X276.575Y-131.1
M16
G05
G00X301.825Y-81.9
M15
G01X303.575Y-81.9
M16
G05
G00X315.375Y-81.9
M15
G01X319.625Y-81.9
M16
G05
G00X316.825Y-131.1
M15
G01X318.575Y-131.1
M16
G05
T0
M30
