%TF.GenerationSoftware,KiCad,Pcbnew,(5.1.9-0-10_14)*%
%TF.CreationDate,2022-11-18T02:47:43-05:00*%
%TF.ProjectId,5AhG3-18S,35416847-332d-4313-9853-2e6b69636164,rev?*%
%TF.SameCoordinates,Original*%
%TF.FileFunction,Soldermask,Bot*%
%TF.FilePolarity,Negative*%
%FSLAX46Y46*%
G04 Gerber Fmt 4.6, Leading zero omitted, Abs format (unit mm)*
G04 Created by KiCad (PCBNEW (5.1.9-0-10_14)) date 2022-11-18 02:47:43*
%MOMM*%
%LPD*%
G01*
G04 APERTURE LIST*
G04 APERTURE END LIST*
%TO.C,R2*%
G36*
G01*
X90800000Y-115925000D02*
X90800000Y-118075000D01*
G75*
G02*
X90550000Y-118325000I-250000J0D01*
G01*
X89825000Y-118325000D01*
G75*
G02*
X89575000Y-118075000I0J250000D01*
G01*
X89575000Y-115925000D01*
G75*
G02*
X89825000Y-115675000I250000J0D01*
G01*
X90550000Y-115675000D01*
G75*
G02*
X90800000Y-115925000I0J-250000D01*
G01*
G37*
G36*
G01*
X95425000Y-115925000D02*
X95425000Y-118075000D01*
G75*
G02*
X95175000Y-118325000I-250000J0D01*
G01*
X94450000Y-118325000D01*
G75*
G02*
X94200000Y-118075000I0J250000D01*
G01*
X94200000Y-115925000D01*
G75*
G02*
X94450000Y-115675000I250000J0D01*
G01*
X95175000Y-115675000D01*
G75*
G02*
X95425000Y-115925000I0J-250000D01*
G01*
G37*
%TD*%
%TO.C,R6*%
G36*
G01*
X93425000Y-145700000D02*
X95575000Y-145700000D01*
G75*
G02*
X95825000Y-145950000I0J-250000D01*
G01*
X95825000Y-146675000D01*
G75*
G02*
X95575000Y-146925000I-250000J0D01*
G01*
X93425000Y-146925000D01*
G75*
G02*
X93175000Y-146675000I0J250000D01*
G01*
X93175000Y-145950000D01*
G75*
G02*
X93425000Y-145700000I250000J0D01*
G01*
G37*
G36*
G01*
X93425000Y-141075000D02*
X95575000Y-141075000D01*
G75*
G02*
X95825000Y-141325000I0J-250000D01*
G01*
X95825000Y-142050000D01*
G75*
G02*
X95575000Y-142300000I-250000J0D01*
G01*
X93425000Y-142300000D01*
G75*
G02*
X93175000Y-142050000I0J250000D01*
G01*
X93175000Y-141325000D01*
G75*
G02*
X93425000Y-141075000I250000J0D01*
G01*
G37*
%TD*%
%TO.C,R12*%
G36*
G01*
X108700000Y-125075000D02*
X108700000Y-122925000D01*
G75*
G02*
X108950000Y-122675000I250000J0D01*
G01*
X109675000Y-122675000D01*
G75*
G02*
X109925000Y-122925000I0J-250000D01*
G01*
X109925000Y-125075000D01*
G75*
G02*
X109675000Y-125325000I-250000J0D01*
G01*
X108950000Y-125325000D01*
G75*
G02*
X108700000Y-125075000I0J250000D01*
G01*
G37*
G36*
G01*
X104075000Y-125075000D02*
X104075000Y-122925000D01*
G75*
G02*
X104325000Y-122675000I250000J0D01*
G01*
X105050000Y-122675000D01*
G75*
G02*
X105300000Y-122925000I0J-250000D01*
G01*
X105300000Y-125075000D01*
G75*
G02*
X105050000Y-125325000I-250000J0D01*
G01*
X104325000Y-125325000D01*
G75*
G02*
X104075000Y-125075000I0J250000D01*
G01*
G37*
%TD*%
%TO.C,R20*%
G36*
G01*
X120300000Y-116925000D02*
X120300000Y-119075000D01*
G75*
G02*
X120050000Y-119325000I-250000J0D01*
G01*
X119325000Y-119325000D01*
G75*
G02*
X119075000Y-119075000I0J250000D01*
G01*
X119075000Y-116925000D01*
G75*
G02*
X119325000Y-116675000I250000J0D01*
G01*
X120050000Y-116675000D01*
G75*
G02*
X120300000Y-116925000I0J-250000D01*
G01*
G37*
G36*
G01*
X124925000Y-116925000D02*
X124925000Y-119075000D01*
G75*
G02*
X124675000Y-119325000I-250000J0D01*
G01*
X123950000Y-119325000D01*
G75*
G02*
X123700000Y-119075000I0J250000D01*
G01*
X123700000Y-116925000D01*
G75*
G02*
X123950000Y-116675000I250000J0D01*
G01*
X124675000Y-116675000D01*
G75*
G02*
X124925000Y-116925000I0J-250000D01*
G01*
G37*
%TD*%
%TO.C,R29*%
G36*
G01*
X139925000Y-116925000D02*
X139925000Y-119075000D01*
G75*
G02*
X139675000Y-119325000I-250000J0D01*
G01*
X138950000Y-119325000D01*
G75*
G02*
X138700000Y-119075000I0J250000D01*
G01*
X138700000Y-116925000D01*
G75*
G02*
X138950000Y-116675000I250000J0D01*
G01*
X139675000Y-116675000D01*
G75*
G02*
X139925000Y-116925000I0J-250000D01*
G01*
G37*
G36*
G01*
X135300000Y-116925000D02*
X135300000Y-119075000D01*
G75*
G02*
X135050000Y-119325000I-250000J0D01*
G01*
X134325000Y-119325000D01*
G75*
G02*
X134075000Y-119075000I0J250000D01*
G01*
X134075000Y-116925000D01*
G75*
G02*
X134325000Y-116675000I250000J0D01*
G01*
X135050000Y-116675000D01*
G75*
G02*
X135300000Y-116925000I0J-250000D01*
G01*
G37*
%TD*%
%TO.C,R40*%
G36*
G01*
X150300000Y-128925000D02*
X150300000Y-131075000D01*
G75*
G02*
X150050000Y-131325000I-250000J0D01*
G01*
X149325000Y-131325000D01*
G75*
G02*
X149075000Y-131075000I0J250000D01*
G01*
X149075000Y-128925000D01*
G75*
G02*
X149325000Y-128675000I250000J0D01*
G01*
X150050000Y-128675000D01*
G75*
G02*
X150300000Y-128925000I0J-250000D01*
G01*
G37*
G36*
G01*
X154925000Y-128925000D02*
X154925000Y-131075000D01*
G75*
G02*
X154675000Y-131325000I-250000J0D01*
G01*
X153950000Y-131325000D01*
G75*
G02*
X153700000Y-131075000I0J250000D01*
G01*
X153700000Y-128925000D01*
G75*
G02*
X153950000Y-128675000I250000J0D01*
G01*
X154675000Y-128675000D01*
G75*
G02*
X154925000Y-128925000I0J-250000D01*
G01*
G37*
%TD*%
%TO.C,R53*%
G36*
G01*
X169925000Y-152925000D02*
X169925000Y-155075000D01*
G75*
G02*
X169675000Y-155325000I-250000J0D01*
G01*
X168950000Y-155325000D01*
G75*
G02*
X168700000Y-155075000I0J250000D01*
G01*
X168700000Y-152925000D01*
G75*
G02*
X168950000Y-152675000I250000J0D01*
G01*
X169675000Y-152675000D01*
G75*
G02*
X169925000Y-152925000I0J-250000D01*
G01*
G37*
G36*
G01*
X165300000Y-152925000D02*
X165300000Y-155075000D01*
G75*
G02*
X165050000Y-155325000I-250000J0D01*
G01*
X164325000Y-155325000D01*
G75*
G02*
X164075000Y-155075000I0J250000D01*
G01*
X164075000Y-152925000D01*
G75*
G02*
X164325000Y-152675000I250000J0D01*
G01*
X165050000Y-152675000D01*
G75*
G02*
X165300000Y-152925000I0J-250000D01*
G01*
G37*
%TD*%
%TO.C,R67*%
G36*
G01*
X199925000Y-128925000D02*
X199925000Y-131075000D01*
G75*
G02*
X199675000Y-131325000I-250000J0D01*
G01*
X198950000Y-131325000D01*
G75*
G02*
X198700000Y-131075000I0J250000D01*
G01*
X198700000Y-128925000D01*
G75*
G02*
X198950000Y-128675000I250000J0D01*
G01*
X199675000Y-128675000D01*
G75*
G02*
X199925000Y-128925000I0J-250000D01*
G01*
G37*
G36*
G01*
X195300000Y-128925000D02*
X195300000Y-131075000D01*
G75*
G02*
X195050000Y-131325000I-250000J0D01*
G01*
X194325000Y-131325000D01*
G75*
G02*
X194075000Y-131075000I0J250000D01*
G01*
X194075000Y-128925000D01*
G75*
G02*
X194325000Y-128675000I250000J0D01*
G01*
X195050000Y-128675000D01*
G75*
G02*
X195300000Y-128925000I0J-250000D01*
G01*
G37*
%TD*%
%TO.C,R95*%
G36*
G01*
X239075000Y-137075000D02*
X239075000Y-134925000D01*
G75*
G02*
X239325000Y-134675000I250000J0D01*
G01*
X240050000Y-134675000D01*
G75*
G02*
X240300000Y-134925000I0J-250000D01*
G01*
X240300000Y-137075000D01*
G75*
G02*
X240050000Y-137325000I-250000J0D01*
G01*
X239325000Y-137325000D01*
G75*
G02*
X239075000Y-137075000I0J250000D01*
G01*
G37*
G36*
G01*
X243700000Y-137075000D02*
X243700000Y-134925000D01*
G75*
G02*
X243950000Y-134675000I250000J0D01*
G01*
X244675000Y-134675000D01*
G75*
G02*
X244925000Y-134925000I0J-250000D01*
G01*
X244925000Y-137075000D01*
G75*
G02*
X244675000Y-137325000I-250000J0D01*
G01*
X243950000Y-137325000D01*
G75*
G02*
X243700000Y-137075000I0J250000D01*
G01*
G37*
%TD*%
%TO.C,R109*%
G36*
G01*
X269075000Y-113075000D02*
X269075000Y-110925000D01*
G75*
G02*
X269325000Y-110675000I250000J0D01*
G01*
X270050000Y-110675000D01*
G75*
G02*
X270300000Y-110925000I0J-250000D01*
G01*
X270300000Y-113075000D01*
G75*
G02*
X270050000Y-113325000I-250000J0D01*
G01*
X269325000Y-113325000D01*
G75*
G02*
X269075000Y-113075000I0J250000D01*
G01*
G37*
G36*
G01*
X273700000Y-113075000D02*
X273700000Y-110925000D01*
G75*
G02*
X273950000Y-110675000I250000J0D01*
G01*
X274675000Y-110675000D01*
G75*
G02*
X274925000Y-110925000I0J-250000D01*
G01*
X274925000Y-113075000D01*
G75*
G02*
X274675000Y-113325000I-250000J0D01*
G01*
X273950000Y-113325000D01*
G75*
G02*
X273700000Y-113075000I0J250000D01*
G01*
G37*
%TD*%
%TO.C,R123*%
G36*
G01*
X289925000Y-140925000D02*
X289925000Y-143075000D01*
G75*
G02*
X289675000Y-143325000I-250000J0D01*
G01*
X288950000Y-143325000D01*
G75*
G02*
X288700000Y-143075000I0J250000D01*
G01*
X288700000Y-140925000D01*
G75*
G02*
X288950000Y-140675000I250000J0D01*
G01*
X289675000Y-140675000D01*
G75*
G02*
X289925000Y-140925000I0J-250000D01*
G01*
G37*
G36*
G01*
X285300000Y-140925000D02*
X285300000Y-143075000D01*
G75*
G02*
X285050000Y-143325000I-250000J0D01*
G01*
X284325000Y-143325000D01*
G75*
G02*
X284075000Y-143075000I0J250000D01*
G01*
X284075000Y-140925000D01*
G75*
G02*
X284325000Y-140675000I250000J0D01*
G01*
X285050000Y-140675000D01*
G75*
G02*
X285300000Y-140925000I0J-250000D01*
G01*
G37*
%TD*%
%TO.C,R137*%
G36*
G01*
X319925000Y-116925000D02*
X319925000Y-119075000D01*
G75*
G02*
X319675000Y-119325000I-250000J0D01*
G01*
X318950000Y-119325000D01*
G75*
G02*
X318700000Y-119075000I0J250000D01*
G01*
X318700000Y-116925000D01*
G75*
G02*
X318950000Y-116675000I250000J0D01*
G01*
X319675000Y-116675000D01*
G75*
G02*
X319925000Y-116925000I0J-250000D01*
G01*
G37*
G36*
G01*
X315300000Y-116925000D02*
X315300000Y-119075000D01*
G75*
G02*
X315050000Y-119325000I-250000J0D01*
G01*
X314325000Y-119325000D01*
G75*
G02*
X314075000Y-119075000I0J250000D01*
G01*
X314075000Y-116925000D01*
G75*
G02*
X314325000Y-116675000I250000J0D01*
G01*
X315050000Y-116675000D01*
G75*
G02*
X315300000Y-116925000I0J-250000D01*
G01*
G37*
%TD*%
%TO.C,R150*%
G36*
G01*
X330300000Y-140925000D02*
X330300000Y-143075000D01*
G75*
G02*
X330050000Y-143325000I-250000J0D01*
G01*
X329325000Y-143325000D01*
G75*
G02*
X329075000Y-143075000I0J250000D01*
G01*
X329075000Y-140925000D01*
G75*
G02*
X329325000Y-140675000I250000J0D01*
G01*
X330050000Y-140675000D01*
G75*
G02*
X330300000Y-140925000I0J-250000D01*
G01*
G37*
G36*
G01*
X334925000Y-140925000D02*
X334925000Y-143075000D01*
G75*
G02*
X334675000Y-143325000I-250000J0D01*
G01*
X333950000Y-143325000D01*
G75*
G02*
X333700000Y-143075000I0J250000D01*
G01*
X333700000Y-140925000D01*
G75*
G02*
X333950000Y-140675000I250000J0D01*
G01*
X334675000Y-140675000D01*
G75*
G02*
X334925000Y-140925000I0J-250000D01*
G01*
G37*
%TD*%
%TO.C,R162*%
G36*
G01*
X348700000Y-161075000D02*
X348700000Y-158925000D01*
G75*
G02*
X348950000Y-158675000I250000J0D01*
G01*
X349675000Y-158675000D01*
G75*
G02*
X349925000Y-158925000I0J-250000D01*
G01*
X349925000Y-161075000D01*
G75*
G02*
X349675000Y-161325000I-250000J0D01*
G01*
X348950000Y-161325000D01*
G75*
G02*
X348700000Y-161075000I0J250000D01*
G01*
G37*
G36*
G01*
X344075000Y-161075000D02*
X344075000Y-158925000D01*
G75*
G02*
X344325000Y-158675000I250000J0D01*
G01*
X345050000Y-158675000D01*
G75*
G02*
X345300000Y-158925000I0J-250000D01*
G01*
X345300000Y-161075000D01*
G75*
G02*
X345050000Y-161325000I-250000J0D01*
G01*
X344325000Y-161325000D01*
G75*
G02*
X344075000Y-161075000I0J250000D01*
G01*
G37*
%TD*%
%TO.C,R1*%
G36*
G01*
X89575000Y-113075000D02*
X89575000Y-110925000D01*
G75*
G02*
X89825000Y-110675000I250000J0D01*
G01*
X90550000Y-110675000D01*
G75*
G02*
X90800000Y-110925000I0J-250000D01*
G01*
X90800000Y-113075000D01*
G75*
G02*
X90550000Y-113325000I-250000J0D01*
G01*
X89825000Y-113325000D01*
G75*
G02*
X89575000Y-113075000I0J250000D01*
G01*
G37*
G36*
G01*
X94200000Y-113075000D02*
X94200000Y-110925000D01*
G75*
G02*
X94450000Y-110675000I250000J0D01*
G01*
X95175000Y-110675000D01*
G75*
G02*
X95425000Y-110925000I0J-250000D01*
G01*
X95425000Y-113075000D01*
G75*
G02*
X95175000Y-113325000I-250000J0D01*
G01*
X94450000Y-113325000D01*
G75*
G02*
X94200000Y-113075000I0J250000D01*
G01*
G37*
%TD*%
%TO.C,R3*%
G36*
G01*
X89575000Y-123075000D02*
X89575000Y-120925000D01*
G75*
G02*
X89825000Y-120675000I250000J0D01*
G01*
X90550000Y-120675000D01*
G75*
G02*
X90800000Y-120925000I0J-250000D01*
G01*
X90800000Y-123075000D01*
G75*
G02*
X90550000Y-123325000I-250000J0D01*
G01*
X89825000Y-123325000D01*
G75*
G02*
X89575000Y-123075000I0J250000D01*
G01*
G37*
G36*
G01*
X94200000Y-123075000D02*
X94200000Y-120925000D01*
G75*
G02*
X94450000Y-120675000I250000J0D01*
G01*
X95175000Y-120675000D01*
G75*
G02*
X95425000Y-120925000I0J-250000D01*
G01*
X95425000Y-123075000D01*
G75*
G02*
X95175000Y-123325000I-250000J0D01*
G01*
X94450000Y-123325000D01*
G75*
G02*
X94200000Y-123075000I0J250000D01*
G01*
G37*
%TD*%
%TO.C,R4*%
G36*
G01*
X93425000Y-129700000D02*
X95575000Y-129700000D01*
G75*
G02*
X95825000Y-129950000I0J-250000D01*
G01*
X95825000Y-130675000D01*
G75*
G02*
X95575000Y-130925000I-250000J0D01*
G01*
X93425000Y-130925000D01*
G75*
G02*
X93175000Y-130675000I0J250000D01*
G01*
X93175000Y-129950000D01*
G75*
G02*
X93425000Y-129700000I250000J0D01*
G01*
G37*
G36*
G01*
X93425000Y-125075000D02*
X95575000Y-125075000D01*
G75*
G02*
X95825000Y-125325000I0J-250000D01*
G01*
X95825000Y-126050000D01*
G75*
G02*
X95575000Y-126300000I-250000J0D01*
G01*
X93425000Y-126300000D01*
G75*
G02*
X93175000Y-126050000I0J250000D01*
G01*
X93175000Y-125325000D01*
G75*
G02*
X93425000Y-125075000I250000J0D01*
G01*
G37*
%TD*%
%TO.C,R5*%
G36*
G01*
X93425000Y-133075000D02*
X95575000Y-133075000D01*
G75*
G02*
X95825000Y-133325000I0J-250000D01*
G01*
X95825000Y-134050000D01*
G75*
G02*
X95575000Y-134300000I-250000J0D01*
G01*
X93425000Y-134300000D01*
G75*
G02*
X93175000Y-134050000I0J250000D01*
G01*
X93175000Y-133325000D01*
G75*
G02*
X93425000Y-133075000I250000J0D01*
G01*
G37*
G36*
G01*
X93425000Y-137700000D02*
X95575000Y-137700000D01*
G75*
G02*
X95825000Y-137950000I0J-250000D01*
G01*
X95825000Y-138675000D01*
G75*
G02*
X95575000Y-138925000I-250000J0D01*
G01*
X93425000Y-138925000D01*
G75*
G02*
X93175000Y-138675000I0J250000D01*
G01*
X93175000Y-137950000D01*
G75*
G02*
X93425000Y-137700000I250000J0D01*
G01*
G37*
%TD*%
%TO.C,R7*%
G36*
G01*
X95425000Y-148925000D02*
X95425000Y-151075000D01*
G75*
G02*
X95175000Y-151325000I-250000J0D01*
G01*
X94450000Y-151325000D01*
G75*
G02*
X94200000Y-151075000I0J250000D01*
G01*
X94200000Y-148925000D01*
G75*
G02*
X94450000Y-148675000I250000J0D01*
G01*
X95175000Y-148675000D01*
G75*
G02*
X95425000Y-148925000I0J-250000D01*
G01*
G37*
G36*
G01*
X90800000Y-148925000D02*
X90800000Y-151075000D01*
G75*
G02*
X90550000Y-151325000I-250000J0D01*
G01*
X89825000Y-151325000D01*
G75*
G02*
X89575000Y-151075000I0J250000D01*
G01*
X89575000Y-148925000D01*
G75*
G02*
X89825000Y-148675000I250000J0D01*
G01*
X90550000Y-148675000D01*
G75*
G02*
X90800000Y-148925000I0J-250000D01*
G01*
G37*
%TD*%
%TO.C,R8*%
G36*
G01*
X94200000Y-156075000D02*
X94200000Y-153925000D01*
G75*
G02*
X94450000Y-153675000I250000J0D01*
G01*
X95175000Y-153675000D01*
G75*
G02*
X95425000Y-153925000I0J-250000D01*
G01*
X95425000Y-156075000D01*
G75*
G02*
X95175000Y-156325000I-250000J0D01*
G01*
X94450000Y-156325000D01*
G75*
G02*
X94200000Y-156075000I0J250000D01*
G01*
G37*
G36*
G01*
X89575000Y-156075000D02*
X89575000Y-153925000D01*
G75*
G02*
X89825000Y-153675000I250000J0D01*
G01*
X90550000Y-153675000D01*
G75*
G02*
X90800000Y-153925000I0J-250000D01*
G01*
X90800000Y-156075000D01*
G75*
G02*
X90550000Y-156325000I-250000J0D01*
G01*
X89825000Y-156325000D01*
G75*
G02*
X89575000Y-156075000I0J250000D01*
G01*
G37*
%TD*%
%TO.C,R9*%
G36*
G01*
X95425000Y-158925000D02*
X95425000Y-161075000D01*
G75*
G02*
X95175000Y-161325000I-250000J0D01*
G01*
X94450000Y-161325000D01*
G75*
G02*
X94200000Y-161075000I0J250000D01*
G01*
X94200000Y-158925000D01*
G75*
G02*
X94450000Y-158675000I250000J0D01*
G01*
X95175000Y-158675000D01*
G75*
G02*
X95425000Y-158925000I0J-250000D01*
G01*
G37*
G36*
G01*
X90800000Y-158925000D02*
X90800000Y-161075000D01*
G75*
G02*
X90550000Y-161325000I-250000J0D01*
G01*
X89825000Y-161325000D01*
G75*
G02*
X89575000Y-161075000I0J250000D01*
G01*
X89575000Y-158925000D01*
G75*
G02*
X89825000Y-158675000I250000J0D01*
G01*
X90550000Y-158675000D01*
G75*
G02*
X90800000Y-158925000I0J-250000D01*
G01*
G37*
%TD*%
%TO.C,R10*%
G36*
G01*
X108700000Y-113075000D02*
X108700000Y-110925000D01*
G75*
G02*
X108950000Y-110675000I250000J0D01*
G01*
X109675000Y-110675000D01*
G75*
G02*
X109925000Y-110925000I0J-250000D01*
G01*
X109925000Y-113075000D01*
G75*
G02*
X109675000Y-113325000I-250000J0D01*
G01*
X108950000Y-113325000D01*
G75*
G02*
X108700000Y-113075000I0J250000D01*
G01*
G37*
G36*
G01*
X104075000Y-113075000D02*
X104075000Y-110925000D01*
G75*
G02*
X104325000Y-110675000I250000J0D01*
G01*
X105050000Y-110675000D01*
G75*
G02*
X105300000Y-110925000I0J-250000D01*
G01*
X105300000Y-113075000D01*
G75*
G02*
X105050000Y-113325000I-250000J0D01*
G01*
X104325000Y-113325000D01*
G75*
G02*
X104075000Y-113075000I0J250000D01*
G01*
G37*
%TD*%
%TO.C,R11*%
G36*
G01*
X109925000Y-116925000D02*
X109925000Y-119075000D01*
G75*
G02*
X109675000Y-119325000I-250000J0D01*
G01*
X108950000Y-119325000D01*
G75*
G02*
X108700000Y-119075000I0J250000D01*
G01*
X108700000Y-116925000D01*
G75*
G02*
X108950000Y-116675000I250000J0D01*
G01*
X109675000Y-116675000D01*
G75*
G02*
X109925000Y-116925000I0J-250000D01*
G01*
G37*
G36*
G01*
X105300000Y-116925000D02*
X105300000Y-119075000D01*
G75*
G02*
X105050000Y-119325000I-250000J0D01*
G01*
X104325000Y-119325000D01*
G75*
G02*
X104075000Y-119075000I0J250000D01*
G01*
X104075000Y-116925000D01*
G75*
G02*
X104325000Y-116675000I250000J0D01*
G01*
X105050000Y-116675000D01*
G75*
G02*
X105300000Y-116925000I0J-250000D01*
G01*
G37*
%TD*%
%TO.C,R13*%
G36*
G01*
X109925000Y-128925000D02*
X109925000Y-131075000D01*
G75*
G02*
X109675000Y-131325000I-250000J0D01*
G01*
X108950000Y-131325000D01*
G75*
G02*
X108700000Y-131075000I0J250000D01*
G01*
X108700000Y-128925000D01*
G75*
G02*
X108950000Y-128675000I250000J0D01*
G01*
X109675000Y-128675000D01*
G75*
G02*
X109925000Y-128925000I0J-250000D01*
G01*
G37*
G36*
G01*
X105300000Y-128925000D02*
X105300000Y-131075000D01*
G75*
G02*
X105050000Y-131325000I-250000J0D01*
G01*
X104325000Y-131325000D01*
G75*
G02*
X104075000Y-131075000I0J250000D01*
G01*
X104075000Y-128925000D01*
G75*
G02*
X104325000Y-128675000I250000J0D01*
G01*
X105050000Y-128675000D01*
G75*
G02*
X105300000Y-128925000I0J-250000D01*
G01*
G37*
%TD*%
%TO.C,R14*%
G36*
G01*
X108700000Y-137075000D02*
X108700000Y-134925000D01*
G75*
G02*
X108950000Y-134675000I250000J0D01*
G01*
X109675000Y-134675000D01*
G75*
G02*
X109925000Y-134925000I0J-250000D01*
G01*
X109925000Y-137075000D01*
G75*
G02*
X109675000Y-137325000I-250000J0D01*
G01*
X108950000Y-137325000D01*
G75*
G02*
X108700000Y-137075000I0J250000D01*
G01*
G37*
G36*
G01*
X104075000Y-137075000D02*
X104075000Y-134925000D01*
G75*
G02*
X104325000Y-134675000I250000J0D01*
G01*
X105050000Y-134675000D01*
G75*
G02*
X105300000Y-134925000I0J-250000D01*
G01*
X105300000Y-137075000D01*
G75*
G02*
X105050000Y-137325000I-250000J0D01*
G01*
X104325000Y-137325000D01*
G75*
G02*
X104075000Y-137075000I0J250000D01*
G01*
G37*
%TD*%
%TO.C,R15*%
G36*
G01*
X109925000Y-140925000D02*
X109925000Y-143075000D01*
G75*
G02*
X109675000Y-143325000I-250000J0D01*
G01*
X108950000Y-143325000D01*
G75*
G02*
X108700000Y-143075000I0J250000D01*
G01*
X108700000Y-140925000D01*
G75*
G02*
X108950000Y-140675000I250000J0D01*
G01*
X109675000Y-140675000D01*
G75*
G02*
X109925000Y-140925000I0J-250000D01*
G01*
G37*
G36*
G01*
X105300000Y-140925000D02*
X105300000Y-143075000D01*
G75*
G02*
X105050000Y-143325000I-250000J0D01*
G01*
X104325000Y-143325000D01*
G75*
G02*
X104075000Y-143075000I0J250000D01*
G01*
X104075000Y-140925000D01*
G75*
G02*
X104325000Y-140675000I250000J0D01*
G01*
X105050000Y-140675000D01*
G75*
G02*
X105300000Y-140925000I0J-250000D01*
G01*
G37*
%TD*%
%TO.C,R16*%
G36*
G01*
X108700000Y-149075000D02*
X108700000Y-146925000D01*
G75*
G02*
X108950000Y-146675000I250000J0D01*
G01*
X109675000Y-146675000D01*
G75*
G02*
X109925000Y-146925000I0J-250000D01*
G01*
X109925000Y-149075000D01*
G75*
G02*
X109675000Y-149325000I-250000J0D01*
G01*
X108950000Y-149325000D01*
G75*
G02*
X108700000Y-149075000I0J250000D01*
G01*
G37*
G36*
G01*
X104075000Y-149075000D02*
X104075000Y-146925000D01*
G75*
G02*
X104325000Y-146675000I250000J0D01*
G01*
X105050000Y-146675000D01*
G75*
G02*
X105300000Y-146925000I0J-250000D01*
G01*
X105300000Y-149075000D01*
G75*
G02*
X105050000Y-149325000I-250000J0D01*
G01*
X104325000Y-149325000D01*
G75*
G02*
X104075000Y-149075000I0J250000D01*
G01*
G37*
%TD*%
%TO.C,R17*%
G36*
G01*
X109925000Y-152925000D02*
X109925000Y-155075000D01*
G75*
G02*
X109675000Y-155325000I-250000J0D01*
G01*
X108950000Y-155325000D01*
G75*
G02*
X108700000Y-155075000I0J250000D01*
G01*
X108700000Y-152925000D01*
G75*
G02*
X108950000Y-152675000I250000J0D01*
G01*
X109675000Y-152675000D01*
G75*
G02*
X109925000Y-152925000I0J-250000D01*
G01*
G37*
G36*
G01*
X105300000Y-152925000D02*
X105300000Y-155075000D01*
G75*
G02*
X105050000Y-155325000I-250000J0D01*
G01*
X104325000Y-155325000D01*
G75*
G02*
X104075000Y-155075000I0J250000D01*
G01*
X104075000Y-152925000D01*
G75*
G02*
X104325000Y-152675000I250000J0D01*
G01*
X105050000Y-152675000D01*
G75*
G02*
X105300000Y-152925000I0J-250000D01*
G01*
G37*
%TD*%
%TO.C,R18*%
G36*
G01*
X108700000Y-161075000D02*
X108700000Y-158925000D01*
G75*
G02*
X108950000Y-158675000I250000J0D01*
G01*
X109675000Y-158675000D01*
G75*
G02*
X109925000Y-158925000I0J-250000D01*
G01*
X109925000Y-161075000D01*
G75*
G02*
X109675000Y-161325000I-250000J0D01*
G01*
X108950000Y-161325000D01*
G75*
G02*
X108700000Y-161075000I0J250000D01*
G01*
G37*
G36*
G01*
X104075000Y-161075000D02*
X104075000Y-158925000D01*
G75*
G02*
X104325000Y-158675000I250000J0D01*
G01*
X105050000Y-158675000D01*
G75*
G02*
X105300000Y-158925000I0J-250000D01*
G01*
X105300000Y-161075000D01*
G75*
G02*
X105050000Y-161325000I-250000J0D01*
G01*
X104325000Y-161325000D01*
G75*
G02*
X104075000Y-161075000I0J250000D01*
G01*
G37*
%TD*%
%TO.C,R19*%
G36*
G01*
X119075000Y-113075000D02*
X119075000Y-110925000D01*
G75*
G02*
X119325000Y-110675000I250000J0D01*
G01*
X120050000Y-110675000D01*
G75*
G02*
X120300000Y-110925000I0J-250000D01*
G01*
X120300000Y-113075000D01*
G75*
G02*
X120050000Y-113325000I-250000J0D01*
G01*
X119325000Y-113325000D01*
G75*
G02*
X119075000Y-113075000I0J250000D01*
G01*
G37*
G36*
G01*
X123700000Y-113075000D02*
X123700000Y-110925000D01*
G75*
G02*
X123950000Y-110675000I250000J0D01*
G01*
X124675000Y-110675000D01*
G75*
G02*
X124925000Y-110925000I0J-250000D01*
G01*
X124925000Y-113075000D01*
G75*
G02*
X124675000Y-113325000I-250000J0D01*
G01*
X123950000Y-113325000D01*
G75*
G02*
X123700000Y-113075000I0J250000D01*
G01*
G37*
%TD*%
%TO.C,R21*%
G36*
G01*
X119075000Y-125075000D02*
X119075000Y-122925000D01*
G75*
G02*
X119325000Y-122675000I250000J0D01*
G01*
X120050000Y-122675000D01*
G75*
G02*
X120300000Y-122925000I0J-250000D01*
G01*
X120300000Y-125075000D01*
G75*
G02*
X120050000Y-125325000I-250000J0D01*
G01*
X119325000Y-125325000D01*
G75*
G02*
X119075000Y-125075000I0J250000D01*
G01*
G37*
G36*
G01*
X123700000Y-125075000D02*
X123700000Y-122925000D01*
G75*
G02*
X123950000Y-122675000I250000J0D01*
G01*
X124675000Y-122675000D01*
G75*
G02*
X124925000Y-122925000I0J-250000D01*
G01*
X124925000Y-125075000D01*
G75*
G02*
X124675000Y-125325000I-250000J0D01*
G01*
X123950000Y-125325000D01*
G75*
G02*
X123700000Y-125075000I0J250000D01*
G01*
G37*
%TD*%
%TO.C,R22*%
G36*
G01*
X120300000Y-128925000D02*
X120300000Y-131075000D01*
G75*
G02*
X120050000Y-131325000I-250000J0D01*
G01*
X119325000Y-131325000D01*
G75*
G02*
X119075000Y-131075000I0J250000D01*
G01*
X119075000Y-128925000D01*
G75*
G02*
X119325000Y-128675000I250000J0D01*
G01*
X120050000Y-128675000D01*
G75*
G02*
X120300000Y-128925000I0J-250000D01*
G01*
G37*
G36*
G01*
X124925000Y-128925000D02*
X124925000Y-131075000D01*
G75*
G02*
X124675000Y-131325000I-250000J0D01*
G01*
X123950000Y-131325000D01*
G75*
G02*
X123700000Y-131075000I0J250000D01*
G01*
X123700000Y-128925000D01*
G75*
G02*
X123950000Y-128675000I250000J0D01*
G01*
X124675000Y-128675000D01*
G75*
G02*
X124925000Y-128925000I0J-250000D01*
G01*
G37*
%TD*%
%TO.C,R23*%
G36*
G01*
X119075000Y-137075000D02*
X119075000Y-134925000D01*
G75*
G02*
X119325000Y-134675000I250000J0D01*
G01*
X120050000Y-134675000D01*
G75*
G02*
X120300000Y-134925000I0J-250000D01*
G01*
X120300000Y-137075000D01*
G75*
G02*
X120050000Y-137325000I-250000J0D01*
G01*
X119325000Y-137325000D01*
G75*
G02*
X119075000Y-137075000I0J250000D01*
G01*
G37*
G36*
G01*
X123700000Y-137075000D02*
X123700000Y-134925000D01*
G75*
G02*
X123950000Y-134675000I250000J0D01*
G01*
X124675000Y-134675000D01*
G75*
G02*
X124925000Y-134925000I0J-250000D01*
G01*
X124925000Y-137075000D01*
G75*
G02*
X124675000Y-137325000I-250000J0D01*
G01*
X123950000Y-137325000D01*
G75*
G02*
X123700000Y-137075000I0J250000D01*
G01*
G37*
%TD*%
%TO.C,R24*%
G36*
G01*
X120300000Y-140925000D02*
X120300000Y-143075000D01*
G75*
G02*
X120050000Y-143325000I-250000J0D01*
G01*
X119325000Y-143325000D01*
G75*
G02*
X119075000Y-143075000I0J250000D01*
G01*
X119075000Y-140925000D01*
G75*
G02*
X119325000Y-140675000I250000J0D01*
G01*
X120050000Y-140675000D01*
G75*
G02*
X120300000Y-140925000I0J-250000D01*
G01*
G37*
G36*
G01*
X124925000Y-140925000D02*
X124925000Y-143075000D01*
G75*
G02*
X124675000Y-143325000I-250000J0D01*
G01*
X123950000Y-143325000D01*
G75*
G02*
X123700000Y-143075000I0J250000D01*
G01*
X123700000Y-140925000D01*
G75*
G02*
X123950000Y-140675000I250000J0D01*
G01*
X124675000Y-140675000D01*
G75*
G02*
X124925000Y-140925000I0J-250000D01*
G01*
G37*
%TD*%
%TO.C,R25*%
G36*
G01*
X119075000Y-149075000D02*
X119075000Y-146925000D01*
G75*
G02*
X119325000Y-146675000I250000J0D01*
G01*
X120050000Y-146675000D01*
G75*
G02*
X120300000Y-146925000I0J-250000D01*
G01*
X120300000Y-149075000D01*
G75*
G02*
X120050000Y-149325000I-250000J0D01*
G01*
X119325000Y-149325000D01*
G75*
G02*
X119075000Y-149075000I0J250000D01*
G01*
G37*
G36*
G01*
X123700000Y-149075000D02*
X123700000Y-146925000D01*
G75*
G02*
X123950000Y-146675000I250000J0D01*
G01*
X124675000Y-146675000D01*
G75*
G02*
X124925000Y-146925000I0J-250000D01*
G01*
X124925000Y-149075000D01*
G75*
G02*
X124675000Y-149325000I-250000J0D01*
G01*
X123950000Y-149325000D01*
G75*
G02*
X123700000Y-149075000I0J250000D01*
G01*
G37*
%TD*%
%TO.C,R26*%
G36*
G01*
X120300000Y-152925000D02*
X120300000Y-155075000D01*
G75*
G02*
X120050000Y-155325000I-250000J0D01*
G01*
X119325000Y-155325000D01*
G75*
G02*
X119075000Y-155075000I0J250000D01*
G01*
X119075000Y-152925000D01*
G75*
G02*
X119325000Y-152675000I250000J0D01*
G01*
X120050000Y-152675000D01*
G75*
G02*
X120300000Y-152925000I0J-250000D01*
G01*
G37*
G36*
G01*
X124925000Y-152925000D02*
X124925000Y-155075000D01*
G75*
G02*
X124675000Y-155325000I-250000J0D01*
G01*
X123950000Y-155325000D01*
G75*
G02*
X123700000Y-155075000I0J250000D01*
G01*
X123700000Y-152925000D01*
G75*
G02*
X123950000Y-152675000I250000J0D01*
G01*
X124675000Y-152675000D01*
G75*
G02*
X124925000Y-152925000I0J-250000D01*
G01*
G37*
%TD*%
%TO.C,R27*%
G36*
G01*
X119075000Y-161075000D02*
X119075000Y-158925000D01*
G75*
G02*
X119325000Y-158675000I250000J0D01*
G01*
X120050000Y-158675000D01*
G75*
G02*
X120300000Y-158925000I0J-250000D01*
G01*
X120300000Y-161075000D01*
G75*
G02*
X120050000Y-161325000I-250000J0D01*
G01*
X119325000Y-161325000D01*
G75*
G02*
X119075000Y-161075000I0J250000D01*
G01*
G37*
G36*
G01*
X123700000Y-161075000D02*
X123700000Y-158925000D01*
G75*
G02*
X123950000Y-158675000I250000J0D01*
G01*
X124675000Y-158675000D01*
G75*
G02*
X124925000Y-158925000I0J-250000D01*
G01*
X124925000Y-161075000D01*
G75*
G02*
X124675000Y-161325000I-250000J0D01*
G01*
X123950000Y-161325000D01*
G75*
G02*
X123700000Y-161075000I0J250000D01*
G01*
G37*
%TD*%
%TO.C,R28*%
G36*
G01*
X138700000Y-113075000D02*
X138700000Y-110925000D01*
G75*
G02*
X138950000Y-110675000I250000J0D01*
G01*
X139675000Y-110675000D01*
G75*
G02*
X139925000Y-110925000I0J-250000D01*
G01*
X139925000Y-113075000D01*
G75*
G02*
X139675000Y-113325000I-250000J0D01*
G01*
X138950000Y-113325000D01*
G75*
G02*
X138700000Y-113075000I0J250000D01*
G01*
G37*
G36*
G01*
X134075000Y-113075000D02*
X134075000Y-110925000D01*
G75*
G02*
X134325000Y-110675000I250000J0D01*
G01*
X135050000Y-110675000D01*
G75*
G02*
X135300000Y-110925000I0J-250000D01*
G01*
X135300000Y-113075000D01*
G75*
G02*
X135050000Y-113325000I-250000J0D01*
G01*
X134325000Y-113325000D01*
G75*
G02*
X134075000Y-113075000I0J250000D01*
G01*
G37*
%TD*%
%TO.C,R30*%
G36*
G01*
X138700000Y-125075000D02*
X138700000Y-122925000D01*
G75*
G02*
X138950000Y-122675000I250000J0D01*
G01*
X139675000Y-122675000D01*
G75*
G02*
X139925000Y-122925000I0J-250000D01*
G01*
X139925000Y-125075000D01*
G75*
G02*
X139675000Y-125325000I-250000J0D01*
G01*
X138950000Y-125325000D01*
G75*
G02*
X138700000Y-125075000I0J250000D01*
G01*
G37*
G36*
G01*
X134075000Y-125075000D02*
X134075000Y-122925000D01*
G75*
G02*
X134325000Y-122675000I250000J0D01*
G01*
X135050000Y-122675000D01*
G75*
G02*
X135300000Y-122925000I0J-250000D01*
G01*
X135300000Y-125075000D01*
G75*
G02*
X135050000Y-125325000I-250000J0D01*
G01*
X134325000Y-125325000D01*
G75*
G02*
X134075000Y-125075000I0J250000D01*
G01*
G37*
%TD*%
%TO.C,R31*%
G36*
G01*
X139925000Y-128925000D02*
X139925000Y-131075000D01*
G75*
G02*
X139675000Y-131325000I-250000J0D01*
G01*
X138950000Y-131325000D01*
G75*
G02*
X138700000Y-131075000I0J250000D01*
G01*
X138700000Y-128925000D01*
G75*
G02*
X138950000Y-128675000I250000J0D01*
G01*
X139675000Y-128675000D01*
G75*
G02*
X139925000Y-128925000I0J-250000D01*
G01*
G37*
G36*
G01*
X135300000Y-128925000D02*
X135300000Y-131075000D01*
G75*
G02*
X135050000Y-131325000I-250000J0D01*
G01*
X134325000Y-131325000D01*
G75*
G02*
X134075000Y-131075000I0J250000D01*
G01*
X134075000Y-128925000D01*
G75*
G02*
X134325000Y-128675000I250000J0D01*
G01*
X135050000Y-128675000D01*
G75*
G02*
X135300000Y-128925000I0J-250000D01*
G01*
G37*
%TD*%
%TO.C,R32*%
G36*
G01*
X138700000Y-137075000D02*
X138700000Y-134925000D01*
G75*
G02*
X138950000Y-134675000I250000J0D01*
G01*
X139675000Y-134675000D01*
G75*
G02*
X139925000Y-134925000I0J-250000D01*
G01*
X139925000Y-137075000D01*
G75*
G02*
X139675000Y-137325000I-250000J0D01*
G01*
X138950000Y-137325000D01*
G75*
G02*
X138700000Y-137075000I0J250000D01*
G01*
G37*
G36*
G01*
X134075000Y-137075000D02*
X134075000Y-134925000D01*
G75*
G02*
X134325000Y-134675000I250000J0D01*
G01*
X135050000Y-134675000D01*
G75*
G02*
X135300000Y-134925000I0J-250000D01*
G01*
X135300000Y-137075000D01*
G75*
G02*
X135050000Y-137325000I-250000J0D01*
G01*
X134325000Y-137325000D01*
G75*
G02*
X134075000Y-137075000I0J250000D01*
G01*
G37*
%TD*%
%TO.C,R33*%
G36*
G01*
X139925000Y-140925000D02*
X139925000Y-143075000D01*
G75*
G02*
X139675000Y-143325000I-250000J0D01*
G01*
X138950000Y-143325000D01*
G75*
G02*
X138700000Y-143075000I0J250000D01*
G01*
X138700000Y-140925000D01*
G75*
G02*
X138950000Y-140675000I250000J0D01*
G01*
X139675000Y-140675000D01*
G75*
G02*
X139925000Y-140925000I0J-250000D01*
G01*
G37*
G36*
G01*
X135300000Y-140925000D02*
X135300000Y-143075000D01*
G75*
G02*
X135050000Y-143325000I-250000J0D01*
G01*
X134325000Y-143325000D01*
G75*
G02*
X134075000Y-143075000I0J250000D01*
G01*
X134075000Y-140925000D01*
G75*
G02*
X134325000Y-140675000I250000J0D01*
G01*
X135050000Y-140675000D01*
G75*
G02*
X135300000Y-140925000I0J-250000D01*
G01*
G37*
%TD*%
%TO.C,R34*%
G36*
G01*
X138700000Y-149075000D02*
X138700000Y-146925000D01*
G75*
G02*
X138950000Y-146675000I250000J0D01*
G01*
X139675000Y-146675000D01*
G75*
G02*
X139925000Y-146925000I0J-250000D01*
G01*
X139925000Y-149075000D01*
G75*
G02*
X139675000Y-149325000I-250000J0D01*
G01*
X138950000Y-149325000D01*
G75*
G02*
X138700000Y-149075000I0J250000D01*
G01*
G37*
G36*
G01*
X134075000Y-149075000D02*
X134075000Y-146925000D01*
G75*
G02*
X134325000Y-146675000I250000J0D01*
G01*
X135050000Y-146675000D01*
G75*
G02*
X135300000Y-146925000I0J-250000D01*
G01*
X135300000Y-149075000D01*
G75*
G02*
X135050000Y-149325000I-250000J0D01*
G01*
X134325000Y-149325000D01*
G75*
G02*
X134075000Y-149075000I0J250000D01*
G01*
G37*
%TD*%
%TO.C,R35*%
G36*
G01*
X139925000Y-152925000D02*
X139925000Y-155075000D01*
G75*
G02*
X139675000Y-155325000I-250000J0D01*
G01*
X138950000Y-155325000D01*
G75*
G02*
X138700000Y-155075000I0J250000D01*
G01*
X138700000Y-152925000D01*
G75*
G02*
X138950000Y-152675000I250000J0D01*
G01*
X139675000Y-152675000D01*
G75*
G02*
X139925000Y-152925000I0J-250000D01*
G01*
G37*
G36*
G01*
X135300000Y-152925000D02*
X135300000Y-155075000D01*
G75*
G02*
X135050000Y-155325000I-250000J0D01*
G01*
X134325000Y-155325000D01*
G75*
G02*
X134075000Y-155075000I0J250000D01*
G01*
X134075000Y-152925000D01*
G75*
G02*
X134325000Y-152675000I250000J0D01*
G01*
X135050000Y-152675000D01*
G75*
G02*
X135300000Y-152925000I0J-250000D01*
G01*
G37*
%TD*%
%TO.C,R36*%
G36*
G01*
X138700000Y-161075000D02*
X138700000Y-158925000D01*
G75*
G02*
X138950000Y-158675000I250000J0D01*
G01*
X139675000Y-158675000D01*
G75*
G02*
X139925000Y-158925000I0J-250000D01*
G01*
X139925000Y-161075000D01*
G75*
G02*
X139675000Y-161325000I-250000J0D01*
G01*
X138950000Y-161325000D01*
G75*
G02*
X138700000Y-161075000I0J250000D01*
G01*
G37*
G36*
G01*
X134075000Y-161075000D02*
X134075000Y-158925000D01*
G75*
G02*
X134325000Y-158675000I250000J0D01*
G01*
X135050000Y-158675000D01*
G75*
G02*
X135300000Y-158925000I0J-250000D01*
G01*
X135300000Y-161075000D01*
G75*
G02*
X135050000Y-161325000I-250000J0D01*
G01*
X134325000Y-161325000D01*
G75*
G02*
X134075000Y-161075000I0J250000D01*
G01*
G37*
%TD*%
%TO.C,R37*%
G36*
G01*
X149075000Y-113075000D02*
X149075000Y-110925000D01*
G75*
G02*
X149325000Y-110675000I250000J0D01*
G01*
X150050000Y-110675000D01*
G75*
G02*
X150300000Y-110925000I0J-250000D01*
G01*
X150300000Y-113075000D01*
G75*
G02*
X150050000Y-113325000I-250000J0D01*
G01*
X149325000Y-113325000D01*
G75*
G02*
X149075000Y-113075000I0J250000D01*
G01*
G37*
G36*
G01*
X153700000Y-113075000D02*
X153700000Y-110925000D01*
G75*
G02*
X153950000Y-110675000I250000J0D01*
G01*
X154675000Y-110675000D01*
G75*
G02*
X154925000Y-110925000I0J-250000D01*
G01*
X154925000Y-113075000D01*
G75*
G02*
X154675000Y-113325000I-250000J0D01*
G01*
X153950000Y-113325000D01*
G75*
G02*
X153700000Y-113075000I0J250000D01*
G01*
G37*
%TD*%
%TO.C,R38*%
G36*
G01*
X150300000Y-116925000D02*
X150300000Y-119075000D01*
G75*
G02*
X150050000Y-119325000I-250000J0D01*
G01*
X149325000Y-119325000D01*
G75*
G02*
X149075000Y-119075000I0J250000D01*
G01*
X149075000Y-116925000D01*
G75*
G02*
X149325000Y-116675000I250000J0D01*
G01*
X150050000Y-116675000D01*
G75*
G02*
X150300000Y-116925000I0J-250000D01*
G01*
G37*
G36*
G01*
X154925000Y-116925000D02*
X154925000Y-119075000D01*
G75*
G02*
X154675000Y-119325000I-250000J0D01*
G01*
X153950000Y-119325000D01*
G75*
G02*
X153700000Y-119075000I0J250000D01*
G01*
X153700000Y-116925000D01*
G75*
G02*
X153950000Y-116675000I250000J0D01*
G01*
X154675000Y-116675000D01*
G75*
G02*
X154925000Y-116925000I0J-250000D01*
G01*
G37*
%TD*%
%TO.C,R39*%
G36*
G01*
X149075000Y-125075000D02*
X149075000Y-122925000D01*
G75*
G02*
X149325000Y-122675000I250000J0D01*
G01*
X150050000Y-122675000D01*
G75*
G02*
X150300000Y-122925000I0J-250000D01*
G01*
X150300000Y-125075000D01*
G75*
G02*
X150050000Y-125325000I-250000J0D01*
G01*
X149325000Y-125325000D01*
G75*
G02*
X149075000Y-125075000I0J250000D01*
G01*
G37*
G36*
G01*
X153700000Y-125075000D02*
X153700000Y-122925000D01*
G75*
G02*
X153950000Y-122675000I250000J0D01*
G01*
X154675000Y-122675000D01*
G75*
G02*
X154925000Y-122925000I0J-250000D01*
G01*
X154925000Y-125075000D01*
G75*
G02*
X154675000Y-125325000I-250000J0D01*
G01*
X153950000Y-125325000D01*
G75*
G02*
X153700000Y-125075000I0J250000D01*
G01*
G37*
%TD*%
%TO.C,R41*%
G36*
G01*
X149075000Y-137075000D02*
X149075000Y-134925000D01*
G75*
G02*
X149325000Y-134675000I250000J0D01*
G01*
X150050000Y-134675000D01*
G75*
G02*
X150300000Y-134925000I0J-250000D01*
G01*
X150300000Y-137075000D01*
G75*
G02*
X150050000Y-137325000I-250000J0D01*
G01*
X149325000Y-137325000D01*
G75*
G02*
X149075000Y-137075000I0J250000D01*
G01*
G37*
G36*
G01*
X153700000Y-137075000D02*
X153700000Y-134925000D01*
G75*
G02*
X153950000Y-134675000I250000J0D01*
G01*
X154675000Y-134675000D01*
G75*
G02*
X154925000Y-134925000I0J-250000D01*
G01*
X154925000Y-137075000D01*
G75*
G02*
X154675000Y-137325000I-250000J0D01*
G01*
X153950000Y-137325000D01*
G75*
G02*
X153700000Y-137075000I0J250000D01*
G01*
G37*
%TD*%
%TO.C,R42*%
G36*
G01*
X150300000Y-140925000D02*
X150300000Y-143075000D01*
G75*
G02*
X150050000Y-143325000I-250000J0D01*
G01*
X149325000Y-143325000D01*
G75*
G02*
X149075000Y-143075000I0J250000D01*
G01*
X149075000Y-140925000D01*
G75*
G02*
X149325000Y-140675000I250000J0D01*
G01*
X150050000Y-140675000D01*
G75*
G02*
X150300000Y-140925000I0J-250000D01*
G01*
G37*
G36*
G01*
X154925000Y-140925000D02*
X154925000Y-143075000D01*
G75*
G02*
X154675000Y-143325000I-250000J0D01*
G01*
X153950000Y-143325000D01*
G75*
G02*
X153700000Y-143075000I0J250000D01*
G01*
X153700000Y-140925000D01*
G75*
G02*
X153950000Y-140675000I250000J0D01*
G01*
X154675000Y-140675000D01*
G75*
G02*
X154925000Y-140925000I0J-250000D01*
G01*
G37*
%TD*%
%TO.C,R43*%
G36*
G01*
X149075000Y-149075000D02*
X149075000Y-146925000D01*
G75*
G02*
X149325000Y-146675000I250000J0D01*
G01*
X150050000Y-146675000D01*
G75*
G02*
X150300000Y-146925000I0J-250000D01*
G01*
X150300000Y-149075000D01*
G75*
G02*
X150050000Y-149325000I-250000J0D01*
G01*
X149325000Y-149325000D01*
G75*
G02*
X149075000Y-149075000I0J250000D01*
G01*
G37*
G36*
G01*
X153700000Y-149075000D02*
X153700000Y-146925000D01*
G75*
G02*
X153950000Y-146675000I250000J0D01*
G01*
X154675000Y-146675000D01*
G75*
G02*
X154925000Y-146925000I0J-250000D01*
G01*
X154925000Y-149075000D01*
G75*
G02*
X154675000Y-149325000I-250000J0D01*
G01*
X153950000Y-149325000D01*
G75*
G02*
X153700000Y-149075000I0J250000D01*
G01*
G37*
%TD*%
%TO.C,R44*%
G36*
G01*
X150300000Y-152925000D02*
X150300000Y-155075000D01*
G75*
G02*
X150050000Y-155325000I-250000J0D01*
G01*
X149325000Y-155325000D01*
G75*
G02*
X149075000Y-155075000I0J250000D01*
G01*
X149075000Y-152925000D01*
G75*
G02*
X149325000Y-152675000I250000J0D01*
G01*
X150050000Y-152675000D01*
G75*
G02*
X150300000Y-152925000I0J-250000D01*
G01*
G37*
G36*
G01*
X154925000Y-152925000D02*
X154925000Y-155075000D01*
G75*
G02*
X154675000Y-155325000I-250000J0D01*
G01*
X153950000Y-155325000D01*
G75*
G02*
X153700000Y-155075000I0J250000D01*
G01*
X153700000Y-152925000D01*
G75*
G02*
X153950000Y-152675000I250000J0D01*
G01*
X154675000Y-152675000D01*
G75*
G02*
X154925000Y-152925000I0J-250000D01*
G01*
G37*
%TD*%
%TO.C,R45*%
G36*
G01*
X149075000Y-161075000D02*
X149075000Y-158925000D01*
G75*
G02*
X149325000Y-158675000I250000J0D01*
G01*
X150050000Y-158675000D01*
G75*
G02*
X150300000Y-158925000I0J-250000D01*
G01*
X150300000Y-161075000D01*
G75*
G02*
X150050000Y-161325000I-250000J0D01*
G01*
X149325000Y-161325000D01*
G75*
G02*
X149075000Y-161075000I0J250000D01*
G01*
G37*
G36*
G01*
X153700000Y-161075000D02*
X153700000Y-158925000D01*
G75*
G02*
X153950000Y-158675000I250000J0D01*
G01*
X154675000Y-158675000D01*
G75*
G02*
X154925000Y-158925000I0J-250000D01*
G01*
X154925000Y-161075000D01*
G75*
G02*
X154675000Y-161325000I-250000J0D01*
G01*
X153950000Y-161325000D01*
G75*
G02*
X153700000Y-161075000I0J250000D01*
G01*
G37*
%TD*%
%TO.C,R46*%
G36*
G01*
X168700000Y-113075000D02*
X168700000Y-110925000D01*
G75*
G02*
X168950000Y-110675000I250000J0D01*
G01*
X169675000Y-110675000D01*
G75*
G02*
X169925000Y-110925000I0J-250000D01*
G01*
X169925000Y-113075000D01*
G75*
G02*
X169675000Y-113325000I-250000J0D01*
G01*
X168950000Y-113325000D01*
G75*
G02*
X168700000Y-113075000I0J250000D01*
G01*
G37*
G36*
G01*
X164075000Y-113075000D02*
X164075000Y-110925000D01*
G75*
G02*
X164325000Y-110675000I250000J0D01*
G01*
X165050000Y-110675000D01*
G75*
G02*
X165300000Y-110925000I0J-250000D01*
G01*
X165300000Y-113075000D01*
G75*
G02*
X165050000Y-113325000I-250000J0D01*
G01*
X164325000Y-113325000D01*
G75*
G02*
X164075000Y-113075000I0J250000D01*
G01*
G37*
%TD*%
%TO.C,R47*%
G36*
G01*
X169925000Y-116925000D02*
X169925000Y-119075000D01*
G75*
G02*
X169675000Y-119325000I-250000J0D01*
G01*
X168950000Y-119325000D01*
G75*
G02*
X168700000Y-119075000I0J250000D01*
G01*
X168700000Y-116925000D01*
G75*
G02*
X168950000Y-116675000I250000J0D01*
G01*
X169675000Y-116675000D01*
G75*
G02*
X169925000Y-116925000I0J-250000D01*
G01*
G37*
G36*
G01*
X165300000Y-116925000D02*
X165300000Y-119075000D01*
G75*
G02*
X165050000Y-119325000I-250000J0D01*
G01*
X164325000Y-119325000D01*
G75*
G02*
X164075000Y-119075000I0J250000D01*
G01*
X164075000Y-116925000D01*
G75*
G02*
X164325000Y-116675000I250000J0D01*
G01*
X165050000Y-116675000D01*
G75*
G02*
X165300000Y-116925000I0J-250000D01*
G01*
G37*
%TD*%
%TO.C,R48*%
G36*
G01*
X168700000Y-125075000D02*
X168700000Y-122925000D01*
G75*
G02*
X168950000Y-122675000I250000J0D01*
G01*
X169675000Y-122675000D01*
G75*
G02*
X169925000Y-122925000I0J-250000D01*
G01*
X169925000Y-125075000D01*
G75*
G02*
X169675000Y-125325000I-250000J0D01*
G01*
X168950000Y-125325000D01*
G75*
G02*
X168700000Y-125075000I0J250000D01*
G01*
G37*
G36*
G01*
X164075000Y-125075000D02*
X164075000Y-122925000D01*
G75*
G02*
X164325000Y-122675000I250000J0D01*
G01*
X165050000Y-122675000D01*
G75*
G02*
X165300000Y-122925000I0J-250000D01*
G01*
X165300000Y-125075000D01*
G75*
G02*
X165050000Y-125325000I-250000J0D01*
G01*
X164325000Y-125325000D01*
G75*
G02*
X164075000Y-125075000I0J250000D01*
G01*
G37*
%TD*%
%TO.C,R49*%
G36*
G01*
X169925000Y-128925000D02*
X169925000Y-131075000D01*
G75*
G02*
X169675000Y-131325000I-250000J0D01*
G01*
X168950000Y-131325000D01*
G75*
G02*
X168700000Y-131075000I0J250000D01*
G01*
X168700000Y-128925000D01*
G75*
G02*
X168950000Y-128675000I250000J0D01*
G01*
X169675000Y-128675000D01*
G75*
G02*
X169925000Y-128925000I0J-250000D01*
G01*
G37*
G36*
G01*
X165300000Y-128925000D02*
X165300000Y-131075000D01*
G75*
G02*
X165050000Y-131325000I-250000J0D01*
G01*
X164325000Y-131325000D01*
G75*
G02*
X164075000Y-131075000I0J250000D01*
G01*
X164075000Y-128925000D01*
G75*
G02*
X164325000Y-128675000I250000J0D01*
G01*
X165050000Y-128675000D01*
G75*
G02*
X165300000Y-128925000I0J-250000D01*
G01*
G37*
%TD*%
%TO.C,R50*%
G36*
G01*
X168700000Y-137075000D02*
X168700000Y-134925000D01*
G75*
G02*
X168950000Y-134675000I250000J0D01*
G01*
X169675000Y-134675000D01*
G75*
G02*
X169925000Y-134925000I0J-250000D01*
G01*
X169925000Y-137075000D01*
G75*
G02*
X169675000Y-137325000I-250000J0D01*
G01*
X168950000Y-137325000D01*
G75*
G02*
X168700000Y-137075000I0J250000D01*
G01*
G37*
G36*
G01*
X164075000Y-137075000D02*
X164075000Y-134925000D01*
G75*
G02*
X164325000Y-134675000I250000J0D01*
G01*
X165050000Y-134675000D01*
G75*
G02*
X165300000Y-134925000I0J-250000D01*
G01*
X165300000Y-137075000D01*
G75*
G02*
X165050000Y-137325000I-250000J0D01*
G01*
X164325000Y-137325000D01*
G75*
G02*
X164075000Y-137075000I0J250000D01*
G01*
G37*
%TD*%
%TO.C,R51*%
G36*
G01*
X169925000Y-140925000D02*
X169925000Y-143075000D01*
G75*
G02*
X169675000Y-143325000I-250000J0D01*
G01*
X168950000Y-143325000D01*
G75*
G02*
X168700000Y-143075000I0J250000D01*
G01*
X168700000Y-140925000D01*
G75*
G02*
X168950000Y-140675000I250000J0D01*
G01*
X169675000Y-140675000D01*
G75*
G02*
X169925000Y-140925000I0J-250000D01*
G01*
G37*
G36*
G01*
X165300000Y-140925000D02*
X165300000Y-143075000D01*
G75*
G02*
X165050000Y-143325000I-250000J0D01*
G01*
X164325000Y-143325000D01*
G75*
G02*
X164075000Y-143075000I0J250000D01*
G01*
X164075000Y-140925000D01*
G75*
G02*
X164325000Y-140675000I250000J0D01*
G01*
X165050000Y-140675000D01*
G75*
G02*
X165300000Y-140925000I0J-250000D01*
G01*
G37*
%TD*%
%TO.C,R52*%
G36*
G01*
X168700000Y-149075000D02*
X168700000Y-146925000D01*
G75*
G02*
X168950000Y-146675000I250000J0D01*
G01*
X169675000Y-146675000D01*
G75*
G02*
X169925000Y-146925000I0J-250000D01*
G01*
X169925000Y-149075000D01*
G75*
G02*
X169675000Y-149325000I-250000J0D01*
G01*
X168950000Y-149325000D01*
G75*
G02*
X168700000Y-149075000I0J250000D01*
G01*
G37*
G36*
G01*
X164075000Y-149075000D02*
X164075000Y-146925000D01*
G75*
G02*
X164325000Y-146675000I250000J0D01*
G01*
X165050000Y-146675000D01*
G75*
G02*
X165300000Y-146925000I0J-250000D01*
G01*
X165300000Y-149075000D01*
G75*
G02*
X165050000Y-149325000I-250000J0D01*
G01*
X164325000Y-149325000D01*
G75*
G02*
X164075000Y-149075000I0J250000D01*
G01*
G37*
%TD*%
%TO.C,R54*%
G36*
G01*
X168700000Y-161075000D02*
X168700000Y-158925000D01*
G75*
G02*
X168950000Y-158675000I250000J0D01*
G01*
X169675000Y-158675000D01*
G75*
G02*
X169925000Y-158925000I0J-250000D01*
G01*
X169925000Y-161075000D01*
G75*
G02*
X169675000Y-161325000I-250000J0D01*
G01*
X168950000Y-161325000D01*
G75*
G02*
X168700000Y-161075000I0J250000D01*
G01*
G37*
G36*
G01*
X164075000Y-161075000D02*
X164075000Y-158925000D01*
G75*
G02*
X164325000Y-158675000I250000J0D01*
G01*
X165050000Y-158675000D01*
G75*
G02*
X165300000Y-158925000I0J-250000D01*
G01*
X165300000Y-161075000D01*
G75*
G02*
X165050000Y-161325000I-250000J0D01*
G01*
X164325000Y-161325000D01*
G75*
G02*
X164075000Y-161075000I0J250000D01*
G01*
G37*
%TD*%
%TO.C,R55*%
G36*
G01*
X179075000Y-113075000D02*
X179075000Y-110925000D01*
G75*
G02*
X179325000Y-110675000I250000J0D01*
G01*
X180050000Y-110675000D01*
G75*
G02*
X180300000Y-110925000I0J-250000D01*
G01*
X180300000Y-113075000D01*
G75*
G02*
X180050000Y-113325000I-250000J0D01*
G01*
X179325000Y-113325000D01*
G75*
G02*
X179075000Y-113075000I0J250000D01*
G01*
G37*
G36*
G01*
X183700000Y-113075000D02*
X183700000Y-110925000D01*
G75*
G02*
X183950000Y-110675000I250000J0D01*
G01*
X184675000Y-110675000D01*
G75*
G02*
X184925000Y-110925000I0J-250000D01*
G01*
X184925000Y-113075000D01*
G75*
G02*
X184675000Y-113325000I-250000J0D01*
G01*
X183950000Y-113325000D01*
G75*
G02*
X183700000Y-113075000I0J250000D01*
G01*
G37*
%TD*%
%TO.C,R56*%
G36*
G01*
X180300000Y-116925000D02*
X180300000Y-119075000D01*
G75*
G02*
X180050000Y-119325000I-250000J0D01*
G01*
X179325000Y-119325000D01*
G75*
G02*
X179075000Y-119075000I0J250000D01*
G01*
X179075000Y-116925000D01*
G75*
G02*
X179325000Y-116675000I250000J0D01*
G01*
X180050000Y-116675000D01*
G75*
G02*
X180300000Y-116925000I0J-250000D01*
G01*
G37*
G36*
G01*
X184925000Y-116925000D02*
X184925000Y-119075000D01*
G75*
G02*
X184675000Y-119325000I-250000J0D01*
G01*
X183950000Y-119325000D01*
G75*
G02*
X183700000Y-119075000I0J250000D01*
G01*
X183700000Y-116925000D01*
G75*
G02*
X183950000Y-116675000I250000J0D01*
G01*
X184675000Y-116675000D01*
G75*
G02*
X184925000Y-116925000I0J-250000D01*
G01*
G37*
%TD*%
%TO.C,R57*%
G36*
G01*
X179075000Y-125075000D02*
X179075000Y-122925000D01*
G75*
G02*
X179325000Y-122675000I250000J0D01*
G01*
X180050000Y-122675000D01*
G75*
G02*
X180300000Y-122925000I0J-250000D01*
G01*
X180300000Y-125075000D01*
G75*
G02*
X180050000Y-125325000I-250000J0D01*
G01*
X179325000Y-125325000D01*
G75*
G02*
X179075000Y-125075000I0J250000D01*
G01*
G37*
G36*
G01*
X183700000Y-125075000D02*
X183700000Y-122925000D01*
G75*
G02*
X183950000Y-122675000I250000J0D01*
G01*
X184675000Y-122675000D01*
G75*
G02*
X184925000Y-122925000I0J-250000D01*
G01*
X184925000Y-125075000D01*
G75*
G02*
X184675000Y-125325000I-250000J0D01*
G01*
X183950000Y-125325000D01*
G75*
G02*
X183700000Y-125075000I0J250000D01*
G01*
G37*
%TD*%
%TO.C,R58*%
G36*
G01*
X180300000Y-128925000D02*
X180300000Y-131075000D01*
G75*
G02*
X180050000Y-131325000I-250000J0D01*
G01*
X179325000Y-131325000D01*
G75*
G02*
X179075000Y-131075000I0J250000D01*
G01*
X179075000Y-128925000D01*
G75*
G02*
X179325000Y-128675000I250000J0D01*
G01*
X180050000Y-128675000D01*
G75*
G02*
X180300000Y-128925000I0J-250000D01*
G01*
G37*
G36*
G01*
X184925000Y-128925000D02*
X184925000Y-131075000D01*
G75*
G02*
X184675000Y-131325000I-250000J0D01*
G01*
X183950000Y-131325000D01*
G75*
G02*
X183700000Y-131075000I0J250000D01*
G01*
X183700000Y-128925000D01*
G75*
G02*
X183950000Y-128675000I250000J0D01*
G01*
X184675000Y-128675000D01*
G75*
G02*
X184925000Y-128925000I0J-250000D01*
G01*
G37*
%TD*%
%TO.C,R59*%
G36*
G01*
X179075000Y-137075000D02*
X179075000Y-134925000D01*
G75*
G02*
X179325000Y-134675000I250000J0D01*
G01*
X180050000Y-134675000D01*
G75*
G02*
X180300000Y-134925000I0J-250000D01*
G01*
X180300000Y-137075000D01*
G75*
G02*
X180050000Y-137325000I-250000J0D01*
G01*
X179325000Y-137325000D01*
G75*
G02*
X179075000Y-137075000I0J250000D01*
G01*
G37*
G36*
G01*
X183700000Y-137075000D02*
X183700000Y-134925000D01*
G75*
G02*
X183950000Y-134675000I250000J0D01*
G01*
X184675000Y-134675000D01*
G75*
G02*
X184925000Y-134925000I0J-250000D01*
G01*
X184925000Y-137075000D01*
G75*
G02*
X184675000Y-137325000I-250000J0D01*
G01*
X183950000Y-137325000D01*
G75*
G02*
X183700000Y-137075000I0J250000D01*
G01*
G37*
%TD*%
%TO.C,R60*%
G36*
G01*
X180300000Y-140925000D02*
X180300000Y-143075000D01*
G75*
G02*
X180050000Y-143325000I-250000J0D01*
G01*
X179325000Y-143325000D01*
G75*
G02*
X179075000Y-143075000I0J250000D01*
G01*
X179075000Y-140925000D01*
G75*
G02*
X179325000Y-140675000I250000J0D01*
G01*
X180050000Y-140675000D01*
G75*
G02*
X180300000Y-140925000I0J-250000D01*
G01*
G37*
G36*
G01*
X184925000Y-140925000D02*
X184925000Y-143075000D01*
G75*
G02*
X184675000Y-143325000I-250000J0D01*
G01*
X183950000Y-143325000D01*
G75*
G02*
X183700000Y-143075000I0J250000D01*
G01*
X183700000Y-140925000D01*
G75*
G02*
X183950000Y-140675000I250000J0D01*
G01*
X184675000Y-140675000D01*
G75*
G02*
X184925000Y-140925000I0J-250000D01*
G01*
G37*
%TD*%
%TO.C,R61*%
G36*
G01*
X179075000Y-149075000D02*
X179075000Y-146925000D01*
G75*
G02*
X179325000Y-146675000I250000J0D01*
G01*
X180050000Y-146675000D01*
G75*
G02*
X180300000Y-146925000I0J-250000D01*
G01*
X180300000Y-149075000D01*
G75*
G02*
X180050000Y-149325000I-250000J0D01*
G01*
X179325000Y-149325000D01*
G75*
G02*
X179075000Y-149075000I0J250000D01*
G01*
G37*
G36*
G01*
X183700000Y-149075000D02*
X183700000Y-146925000D01*
G75*
G02*
X183950000Y-146675000I250000J0D01*
G01*
X184675000Y-146675000D01*
G75*
G02*
X184925000Y-146925000I0J-250000D01*
G01*
X184925000Y-149075000D01*
G75*
G02*
X184675000Y-149325000I-250000J0D01*
G01*
X183950000Y-149325000D01*
G75*
G02*
X183700000Y-149075000I0J250000D01*
G01*
G37*
%TD*%
%TO.C,R62*%
G36*
G01*
X180300000Y-152925000D02*
X180300000Y-155075000D01*
G75*
G02*
X180050000Y-155325000I-250000J0D01*
G01*
X179325000Y-155325000D01*
G75*
G02*
X179075000Y-155075000I0J250000D01*
G01*
X179075000Y-152925000D01*
G75*
G02*
X179325000Y-152675000I250000J0D01*
G01*
X180050000Y-152675000D01*
G75*
G02*
X180300000Y-152925000I0J-250000D01*
G01*
G37*
G36*
G01*
X184925000Y-152925000D02*
X184925000Y-155075000D01*
G75*
G02*
X184675000Y-155325000I-250000J0D01*
G01*
X183950000Y-155325000D01*
G75*
G02*
X183700000Y-155075000I0J250000D01*
G01*
X183700000Y-152925000D01*
G75*
G02*
X183950000Y-152675000I250000J0D01*
G01*
X184675000Y-152675000D01*
G75*
G02*
X184925000Y-152925000I0J-250000D01*
G01*
G37*
%TD*%
%TO.C,R63*%
G36*
G01*
X179075000Y-161075000D02*
X179075000Y-158925000D01*
G75*
G02*
X179325000Y-158675000I250000J0D01*
G01*
X180050000Y-158675000D01*
G75*
G02*
X180300000Y-158925000I0J-250000D01*
G01*
X180300000Y-161075000D01*
G75*
G02*
X180050000Y-161325000I-250000J0D01*
G01*
X179325000Y-161325000D01*
G75*
G02*
X179075000Y-161075000I0J250000D01*
G01*
G37*
G36*
G01*
X183700000Y-161075000D02*
X183700000Y-158925000D01*
G75*
G02*
X183950000Y-158675000I250000J0D01*
G01*
X184675000Y-158675000D01*
G75*
G02*
X184925000Y-158925000I0J-250000D01*
G01*
X184925000Y-161075000D01*
G75*
G02*
X184675000Y-161325000I-250000J0D01*
G01*
X183950000Y-161325000D01*
G75*
G02*
X183700000Y-161075000I0J250000D01*
G01*
G37*
%TD*%
%TO.C,R64*%
G36*
G01*
X198700000Y-113075000D02*
X198700000Y-110925000D01*
G75*
G02*
X198950000Y-110675000I250000J0D01*
G01*
X199675000Y-110675000D01*
G75*
G02*
X199925000Y-110925000I0J-250000D01*
G01*
X199925000Y-113075000D01*
G75*
G02*
X199675000Y-113325000I-250000J0D01*
G01*
X198950000Y-113325000D01*
G75*
G02*
X198700000Y-113075000I0J250000D01*
G01*
G37*
G36*
G01*
X194075000Y-113075000D02*
X194075000Y-110925000D01*
G75*
G02*
X194325000Y-110675000I250000J0D01*
G01*
X195050000Y-110675000D01*
G75*
G02*
X195300000Y-110925000I0J-250000D01*
G01*
X195300000Y-113075000D01*
G75*
G02*
X195050000Y-113325000I-250000J0D01*
G01*
X194325000Y-113325000D01*
G75*
G02*
X194075000Y-113075000I0J250000D01*
G01*
G37*
%TD*%
%TO.C,R65*%
G36*
G01*
X199925000Y-116925000D02*
X199925000Y-119075000D01*
G75*
G02*
X199675000Y-119325000I-250000J0D01*
G01*
X198950000Y-119325000D01*
G75*
G02*
X198700000Y-119075000I0J250000D01*
G01*
X198700000Y-116925000D01*
G75*
G02*
X198950000Y-116675000I250000J0D01*
G01*
X199675000Y-116675000D01*
G75*
G02*
X199925000Y-116925000I0J-250000D01*
G01*
G37*
G36*
G01*
X195300000Y-116925000D02*
X195300000Y-119075000D01*
G75*
G02*
X195050000Y-119325000I-250000J0D01*
G01*
X194325000Y-119325000D01*
G75*
G02*
X194075000Y-119075000I0J250000D01*
G01*
X194075000Y-116925000D01*
G75*
G02*
X194325000Y-116675000I250000J0D01*
G01*
X195050000Y-116675000D01*
G75*
G02*
X195300000Y-116925000I0J-250000D01*
G01*
G37*
%TD*%
%TO.C,R66*%
G36*
G01*
X198700000Y-125075000D02*
X198700000Y-122925000D01*
G75*
G02*
X198950000Y-122675000I250000J0D01*
G01*
X199675000Y-122675000D01*
G75*
G02*
X199925000Y-122925000I0J-250000D01*
G01*
X199925000Y-125075000D01*
G75*
G02*
X199675000Y-125325000I-250000J0D01*
G01*
X198950000Y-125325000D01*
G75*
G02*
X198700000Y-125075000I0J250000D01*
G01*
G37*
G36*
G01*
X194075000Y-125075000D02*
X194075000Y-122925000D01*
G75*
G02*
X194325000Y-122675000I250000J0D01*
G01*
X195050000Y-122675000D01*
G75*
G02*
X195300000Y-122925000I0J-250000D01*
G01*
X195300000Y-125075000D01*
G75*
G02*
X195050000Y-125325000I-250000J0D01*
G01*
X194325000Y-125325000D01*
G75*
G02*
X194075000Y-125075000I0J250000D01*
G01*
G37*
%TD*%
%TO.C,R68*%
G36*
G01*
X198700000Y-137075000D02*
X198700000Y-134925000D01*
G75*
G02*
X198950000Y-134675000I250000J0D01*
G01*
X199675000Y-134675000D01*
G75*
G02*
X199925000Y-134925000I0J-250000D01*
G01*
X199925000Y-137075000D01*
G75*
G02*
X199675000Y-137325000I-250000J0D01*
G01*
X198950000Y-137325000D01*
G75*
G02*
X198700000Y-137075000I0J250000D01*
G01*
G37*
G36*
G01*
X194075000Y-137075000D02*
X194075000Y-134925000D01*
G75*
G02*
X194325000Y-134675000I250000J0D01*
G01*
X195050000Y-134675000D01*
G75*
G02*
X195300000Y-134925000I0J-250000D01*
G01*
X195300000Y-137075000D01*
G75*
G02*
X195050000Y-137325000I-250000J0D01*
G01*
X194325000Y-137325000D01*
G75*
G02*
X194075000Y-137075000I0J250000D01*
G01*
G37*
%TD*%
%TO.C,R69*%
G36*
G01*
X199925000Y-140925000D02*
X199925000Y-143075000D01*
G75*
G02*
X199675000Y-143325000I-250000J0D01*
G01*
X198950000Y-143325000D01*
G75*
G02*
X198700000Y-143075000I0J250000D01*
G01*
X198700000Y-140925000D01*
G75*
G02*
X198950000Y-140675000I250000J0D01*
G01*
X199675000Y-140675000D01*
G75*
G02*
X199925000Y-140925000I0J-250000D01*
G01*
G37*
G36*
G01*
X195300000Y-140925000D02*
X195300000Y-143075000D01*
G75*
G02*
X195050000Y-143325000I-250000J0D01*
G01*
X194325000Y-143325000D01*
G75*
G02*
X194075000Y-143075000I0J250000D01*
G01*
X194075000Y-140925000D01*
G75*
G02*
X194325000Y-140675000I250000J0D01*
G01*
X195050000Y-140675000D01*
G75*
G02*
X195300000Y-140925000I0J-250000D01*
G01*
G37*
%TD*%
%TO.C,R70*%
G36*
G01*
X198700000Y-149075000D02*
X198700000Y-146925000D01*
G75*
G02*
X198950000Y-146675000I250000J0D01*
G01*
X199675000Y-146675000D01*
G75*
G02*
X199925000Y-146925000I0J-250000D01*
G01*
X199925000Y-149075000D01*
G75*
G02*
X199675000Y-149325000I-250000J0D01*
G01*
X198950000Y-149325000D01*
G75*
G02*
X198700000Y-149075000I0J250000D01*
G01*
G37*
G36*
G01*
X194075000Y-149075000D02*
X194075000Y-146925000D01*
G75*
G02*
X194325000Y-146675000I250000J0D01*
G01*
X195050000Y-146675000D01*
G75*
G02*
X195300000Y-146925000I0J-250000D01*
G01*
X195300000Y-149075000D01*
G75*
G02*
X195050000Y-149325000I-250000J0D01*
G01*
X194325000Y-149325000D01*
G75*
G02*
X194075000Y-149075000I0J250000D01*
G01*
G37*
%TD*%
%TO.C,R71*%
G36*
G01*
X199925000Y-152925000D02*
X199925000Y-155075000D01*
G75*
G02*
X199675000Y-155325000I-250000J0D01*
G01*
X198950000Y-155325000D01*
G75*
G02*
X198700000Y-155075000I0J250000D01*
G01*
X198700000Y-152925000D01*
G75*
G02*
X198950000Y-152675000I250000J0D01*
G01*
X199675000Y-152675000D01*
G75*
G02*
X199925000Y-152925000I0J-250000D01*
G01*
G37*
G36*
G01*
X195300000Y-152925000D02*
X195300000Y-155075000D01*
G75*
G02*
X195050000Y-155325000I-250000J0D01*
G01*
X194325000Y-155325000D01*
G75*
G02*
X194075000Y-155075000I0J250000D01*
G01*
X194075000Y-152925000D01*
G75*
G02*
X194325000Y-152675000I250000J0D01*
G01*
X195050000Y-152675000D01*
G75*
G02*
X195300000Y-152925000I0J-250000D01*
G01*
G37*
%TD*%
%TO.C,R72*%
G36*
G01*
X198700000Y-161075000D02*
X198700000Y-158925000D01*
G75*
G02*
X198950000Y-158675000I250000J0D01*
G01*
X199675000Y-158675000D01*
G75*
G02*
X199925000Y-158925000I0J-250000D01*
G01*
X199925000Y-161075000D01*
G75*
G02*
X199675000Y-161325000I-250000J0D01*
G01*
X198950000Y-161325000D01*
G75*
G02*
X198700000Y-161075000I0J250000D01*
G01*
G37*
G36*
G01*
X194075000Y-161075000D02*
X194075000Y-158925000D01*
G75*
G02*
X194325000Y-158675000I250000J0D01*
G01*
X195050000Y-158675000D01*
G75*
G02*
X195300000Y-158925000I0J-250000D01*
G01*
X195300000Y-161075000D01*
G75*
G02*
X195050000Y-161325000I-250000J0D01*
G01*
X194325000Y-161325000D01*
G75*
G02*
X194075000Y-161075000I0J250000D01*
G01*
G37*
%TD*%
%TO.C,R73*%
G36*
G01*
X209075000Y-113075000D02*
X209075000Y-110925000D01*
G75*
G02*
X209325000Y-110675000I250000J0D01*
G01*
X210050000Y-110675000D01*
G75*
G02*
X210300000Y-110925000I0J-250000D01*
G01*
X210300000Y-113075000D01*
G75*
G02*
X210050000Y-113325000I-250000J0D01*
G01*
X209325000Y-113325000D01*
G75*
G02*
X209075000Y-113075000I0J250000D01*
G01*
G37*
G36*
G01*
X213700000Y-113075000D02*
X213700000Y-110925000D01*
G75*
G02*
X213950000Y-110675000I250000J0D01*
G01*
X214675000Y-110675000D01*
G75*
G02*
X214925000Y-110925000I0J-250000D01*
G01*
X214925000Y-113075000D01*
G75*
G02*
X214675000Y-113325000I-250000J0D01*
G01*
X213950000Y-113325000D01*
G75*
G02*
X213700000Y-113075000I0J250000D01*
G01*
G37*
%TD*%
%TO.C,R74*%
G36*
G01*
X210300000Y-116925000D02*
X210300000Y-119075000D01*
G75*
G02*
X210050000Y-119325000I-250000J0D01*
G01*
X209325000Y-119325000D01*
G75*
G02*
X209075000Y-119075000I0J250000D01*
G01*
X209075000Y-116925000D01*
G75*
G02*
X209325000Y-116675000I250000J0D01*
G01*
X210050000Y-116675000D01*
G75*
G02*
X210300000Y-116925000I0J-250000D01*
G01*
G37*
G36*
G01*
X214925000Y-116925000D02*
X214925000Y-119075000D01*
G75*
G02*
X214675000Y-119325000I-250000J0D01*
G01*
X213950000Y-119325000D01*
G75*
G02*
X213700000Y-119075000I0J250000D01*
G01*
X213700000Y-116925000D01*
G75*
G02*
X213950000Y-116675000I250000J0D01*
G01*
X214675000Y-116675000D01*
G75*
G02*
X214925000Y-116925000I0J-250000D01*
G01*
G37*
%TD*%
%TO.C,R75*%
G36*
G01*
X209075000Y-125075000D02*
X209075000Y-122925000D01*
G75*
G02*
X209325000Y-122675000I250000J0D01*
G01*
X210050000Y-122675000D01*
G75*
G02*
X210300000Y-122925000I0J-250000D01*
G01*
X210300000Y-125075000D01*
G75*
G02*
X210050000Y-125325000I-250000J0D01*
G01*
X209325000Y-125325000D01*
G75*
G02*
X209075000Y-125075000I0J250000D01*
G01*
G37*
G36*
G01*
X213700000Y-125075000D02*
X213700000Y-122925000D01*
G75*
G02*
X213950000Y-122675000I250000J0D01*
G01*
X214675000Y-122675000D01*
G75*
G02*
X214925000Y-122925000I0J-250000D01*
G01*
X214925000Y-125075000D01*
G75*
G02*
X214675000Y-125325000I-250000J0D01*
G01*
X213950000Y-125325000D01*
G75*
G02*
X213700000Y-125075000I0J250000D01*
G01*
G37*
%TD*%
%TO.C,R76*%
G36*
G01*
X210300000Y-128925000D02*
X210300000Y-131075000D01*
G75*
G02*
X210050000Y-131325000I-250000J0D01*
G01*
X209325000Y-131325000D01*
G75*
G02*
X209075000Y-131075000I0J250000D01*
G01*
X209075000Y-128925000D01*
G75*
G02*
X209325000Y-128675000I250000J0D01*
G01*
X210050000Y-128675000D01*
G75*
G02*
X210300000Y-128925000I0J-250000D01*
G01*
G37*
G36*
G01*
X214925000Y-128925000D02*
X214925000Y-131075000D01*
G75*
G02*
X214675000Y-131325000I-250000J0D01*
G01*
X213950000Y-131325000D01*
G75*
G02*
X213700000Y-131075000I0J250000D01*
G01*
X213700000Y-128925000D01*
G75*
G02*
X213950000Y-128675000I250000J0D01*
G01*
X214675000Y-128675000D01*
G75*
G02*
X214925000Y-128925000I0J-250000D01*
G01*
G37*
%TD*%
%TO.C,R77*%
G36*
G01*
X209075000Y-137075000D02*
X209075000Y-134925000D01*
G75*
G02*
X209325000Y-134675000I250000J0D01*
G01*
X210050000Y-134675000D01*
G75*
G02*
X210300000Y-134925000I0J-250000D01*
G01*
X210300000Y-137075000D01*
G75*
G02*
X210050000Y-137325000I-250000J0D01*
G01*
X209325000Y-137325000D01*
G75*
G02*
X209075000Y-137075000I0J250000D01*
G01*
G37*
G36*
G01*
X213700000Y-137075000D02*
X213700000Y-134925000D01*
G75*
G02*
X213950000Y-134675000I250000J0D01*
G01*
X214675000Y-134675000D01*
G75*
G02*
X214925000Y-134925000I0J-250000D01*
G01*
X214925000Y-137075000D01*
G75*
G02*
X214675000Y-137325000I-250000J0D01*
G01*
X213950000Y-137325000D01*
G75*
G02*
X213700000Y-137075000I0J250000D01*
G01*
G37*
%TD*%
%TO.C,R78*%
G36*
G01*
X210300000Y-140925000D02*
X210300000Y-143075000D01*
G75*
G02*
X210050000Y-143325000I-250000J0D01*
G01*
X209325000Y-143325000D01*
G75*
G02*
X209075000Y-143075000I0J250000D01*
G01*
X209075000Y-140925000D01*
G75*
G02*
X209325000Y-140675000I250000J0D01*
G01*
X210050000Y-140675000D01*
G75*
G02*
X210300000Y-140925000I0J-250000D01*
G01*
G37*
G36*
G01*
X214925000Y-140925000D02*
X214925000Y-143075000D01*
G75*
G02*
X214675000Y-143325000I-250000J0D01*
G01*
X213950000Y-143325000D01*
G75*
G02*
X213700000Y-143075000I0J250000D01*
G01*
X213700000Y-140925000D01*
G75*
G02*
X213950000Y-140675000I250000J0D01*
G01*
X214675000Y-140675000D01*
G75*
G02*
X214925000Y-140925000I0J-250000D01*
G01*
G37*
%TD*%
%TO.C,R79*%
G36*
G01*
X209075000Y-149075000D02*
X209075000Y-146925000D01*
G75*
G02*
X209325000Y-146675000I250000J0D01*
G01*
X210050000Y-146675000D01*
G75*
G02*
X210300000Y-146925000I0J-250000D01*
G01*
X210300000Y-149075000D01*
G75*
G02*
X210050000Y-149325000I-250000J0D01*
G01*
X209325000Y-149325000D01*
G75*
G02*
X209075000Y-149075000I0J250000D01*
G01*
G37*
G36*
G01*
X213700000Y-149075000D02*
X213700000Y-146925000D01*
G75*
G02*
X213950000Y-146675000I250000J0D01*
G01*
X214675000Y-146675000D01*
G75*
G02*
X214925000Y-146925000I0J-250000D01*
G01*
X214925000Y-149075000D01*
G75*
G02*
X214675000Y-149325000I-250000J0D01*
G01*
X213950000Y-149325000D01*
G75*
G02*
X213700000Y-149075000I0J250000D01*
G01*
G37*
%TD*%
%TO.C,R80*%
G36*
G01*
X210300000Y-152925000D02*
X210300000Y-155075000D01*
G75*
G02*
X210050000Y-155325000I-250000J0D01*
G01*
X209325000Y-155325000D01*
G75*
G02*
X209075000Y-155075000I0J250000D01*
G01*
X209075000Y-152925000D01*
G75*
G02*
X209325000Y-152675000I250000J0D01*
G01*
X210050000Y-152675000D01*
G75*
G02*
X210300000Y-152925000I0J-250000D01*
G01*
G37*
G36*
G01*
X214925000Y-152925000D02*
X214925000Y-155075000D01*
G75*
G02*
X214675000Y-155325000I-250000J0D01*
G01*
X213950000Y-155325000D01*
G75*
G02*
X213700000Y-155075000I0J250000D01*
G01*
X213700000Y-152925000D01*
G75*
G02*
X213950000Y-152675000I250000J0D01*
G01*
X214675000Y-152675000D01*
G75*
G02*
X214925000Y-152925000I0J-250000D01*
G01*
G37*
%TD*%
%TO.C,R81*%
G36*
G01*
X209075000Y-161075000D02*
X209075000Y-158925000D01*
G75*
G02*
X209325000Y-158675000I250000J0D01*
G01*
X210050000Y-158675000D01*
G75*
G02*
X210300000Y-158925000I0J-250000D01*
G01*
X210300000Y-161075000D01*
G75*
G02*
X210050000Y-161325000I-250000J0D01*
G01*
X209325000Y-161325000D01*
G75*
G02*
X209075000Y-161075000I0J250000D01*
G01*
G37*
G36*
G01*
X213700000Y-161075000D02*
X213700000Y-158925000D01*
G75*
G02*
X213950000Y-158675000I250000J0D01*
G01*
X214675000Y-158675000D01*
G75*
G02*
X214925000Y-158925000I0J-250000D01*
G01*
X214925000Y-161075000D01*
G75*
G02*
X214675000Y-161325000I-250000J0D01*
G01*
X213950000Y-161325000D01*
G75*
G02*
X213700000Y-161075000I0J250000D01*
G01*
G37*
%TD*%
%TO.C,R82*%
G36*
G01*
X228700000Y-113075000D02*
X228700000Y-110925000D01*
G75*
G02*
X228950000Y-110675000I250000J0D01*
G01*
X229675000Y-110675000D01*
G75*
G02*
X229925000Y-110925000I0J-250000D01*
G01*
X229925000Y-113075000D01*
G75*
G02*
X229675000Y-113325000I-250000J0D01*
G01*
X228950000Y-113325000D01*
G75*
G02*
X228700000Y-113075000I0J250000D01*
G01*
G37*
G36*
G01*
X224075000Y-113075000D02*
X224075000Y-110925000D01*
G75*
G02*
X224325000Y-110675000I250000J0D01*
G01*
X225050000Y-110675000D01*
G75*
G02*
X225300000Y-110925000I0J-250000D01*
G01*
X225300000Y-113075000D01*
G75*
G02*
X225050000Y-113325000I-250000J0D01*
G01*
X224325000Y-113325000D01*
G75*
G02*
X224075000Y-113075000I0J250000D01*
G01*
G37*
%TD*%
%TO.C,R83*%
G36*
G01*
X229925000Y-116925000D02*
X229925000Y-119075000D01*
G75*
G02*
X229675000Y-119325000I-250000J0D01*
G01*
X228950000Y-119325000D01*
G75*
G02*
X228700000Y-119075000I0J250000D01*
G01*
X228700000Y-116925000D01*
G75*
G02*
X228950000Y-116675000I250000J0D01*
G01*
X229675000Y-116675000D01*
G75*
G02*
X229925000Y-116925000I0J-250000D01*
G01*
G37*
G36*
G01*
X225300000Y-116925000D02*
X225300000Y-119075000D01*
G75*
G02*
X225050000Y-119325000I-250000J0D01*
G01*
X224325000Y-119325000D01*
G75*
G02*
X224075000Y-119075000I0J250000D01*
G01*
X224075000Y-116925000D01*
G75*
G02*
X224325000Y-116675000I250000J0D01*
G01*
X225050000Y-116675000D01*
G75*
G02*
X225300000Y-116925000I0J-250000D01*
G01*
G37*
%TD*%
%TO.C,R84*%
G36*
G01*
X228700000Y-125075000D02*
X228700000Y-122925000D01*
G75*
G02*
X228950000Y-122675000I250000J0D01*
G01*
X229675000Y-122675000D01*
G75*
G02*
X229925000Y-122925000I0J-250000D01*
G01*
X229925000Y-125075000D01*
G75*
G02*
X229675000Y-125325000I-250000J0D01*
G01*
X228950000Y-125325000D01*
G75*
G02*
X228700000Y-125075000I0J250000D01*
G01*
G37*
G36*
G01*
X224075000Y-125075000D02*
X224075000Y-122925000D01*
G75*
G02*
X224325000Y-122675000I250000J0D01*
G01*
X225050000Y-122675000D01*
G75*
G02*
X225300000Y-122925000I0J-250000D01*
G01*
X225300000Y-125075000D01*
G75*
G02*
X225050000Y-125325000I-250000J0D01*
G01*
X224325000Y-125325000D01*
G75*
G02*
X224075000Y-125075000I0J250000D01*
G01*
G37*
%TD*%
%TO.C,R85*%
G36*
G01*
X229925000Y-128925000D02*
X229925000Y-131075000D01*
G75*
G02*
X229675000Y-131325000I-250000J0D01*
G01*
X228950000Y-131325000D01*
G75*
G02*
X228700000Y-131075000I0J250000D01*
G01*
X228700000Y-128925000D01*
G75*
G02*
X228950000Y-128675000I250000J0D01*
G01*
X229675000Y-128675000D01*
G75*
G02*
X229925000Y-128925000I0J-250000D01*
G01*
G37*
G36*
G01*
X225300000Y-128925000D02*
X225300000Y-131075000D01*
G75*
G02*
X225050000Y-131325000I-250000J0D01*
G01*
X224325000Y-131325000D01*
G75*
G02*
X224075000Y-131075000I0J250000D01*
G01*
X224075000Y-128925000D01*
G75*
G02*
X224325000Y-128675000I250000J0D01*
G01*
X225050000Y-128675000D01*
G75*
G02*
X225300000Y-128925000I0J-250000D01*
G01*
G37*
%TD*%
%TO.C,R86*%
G36*
G01*
X228700000Y-137075000D02*
X228700000Y-134925000D01*
G75*
G02*
X228950000Y-134675000I250000J0D01*
G01*
X229675000Y-134675000D01*
G75*
G02*
X229925000Y-134925000I0J-250000D01*
G01*
X229925000Y-137075000D01*
G75*
G02*
X229675000Y-137325000I-250000J0D01*
G01*
X228950000Y-137325000D01*
G75*
G02*
X228700000Y-137075000I0J250000D01*
G01*
G37*
G36*
G01*
X224075000Y-137075000D02*
X224075000Y-134925000D01*
G75*
G02*
X224325000Y-134675000I250000J0D01*
G01*
X225050000Y-134675000D01*
G75*
G02*
X225300000Y-134925000I0J-250000D01*
G01*
X225300000Y-137075000D01*
G75*
G02*
X225050000Y-137325000I-250000J0D01*
G01*
X224325000Y-137325000D01*
G75*
G02*
X224075000Y-137075000I0J250000D01*
G01*
G37*
%TD*%
%TO.C,R87*%
G36*
G01*
X229950001Y-140925000D02*
X229950001Y-143075000D01*
G75*
G02*
X229700001Y-143325000I-250000J0D01*
G01*
X228975001Y-143325000D01*
G75*
G02*
X228725001Y-143075000I0J250000D01*
G01*
X228725001Y-140925000D01*
G75*
G02*
X228975001Y-140675000I250000J0D01*
G01*
X229700001Y-140675000D01*
G75*
G02*
X229950001Y-140925000I0J-250000D01*
G01*
G37*
G36*
G01*
X225325001Y-140925000D02*
X225325001Y-143075000D01*
G75*
G02*
X225075001Y-143325000I-250000J0D01*
G01*
X224350001Y-143325000D01*
G75*
G02*
X224100001Y-143075000I0J250000D01*
G01*
X224100001Y-140925000D01*
G75*
G02*
X224350001Y-140675000I250000J0D01*
G01*
X225075001Y-140675000D01*
G75*
G02*
X225325001Y-140925000I0J-250000D01*
G01*
G37*
%TD*%
%TO.C,R88*%
G36*
G01*
X228700000Y-149075000D02*
X228700000Y-146925000D01*
G75*
G02*
X228950000Y-146675000I250000J0D01*
G01*
X229675000Y-146675000D01*
G75*
G02*
X229925000Y-146925000I0J-250000D01*
G01*
X229925000Y-149075000D01*
G75*
G02*
X229675000Y-149325000I-250000J0D01*
G01*
X228950000Y-149325000D01*
G75*
G02*
X228700000Y-149075000I0J250000D01*
G01*
G37*
G36*
G01*
X224075000Y-149075000D02*
X224075000Y-146925000D01*
G75*
G02*
X224325000Y-146675000I250000J0D01*
G01*
X225050000Y-146675000D01*
G75*
G02*
X225300000Y-146925000I0J-250000D01*
G01*
X225300000Y-149075000D01*
G75*
G02*
X225050000Y-149325000I-250000J0D01*
G01*
X224325000Y-149325000D01*
G75*
G02*
X224075000Y-149075000I0J250000D01*
G01*
G37*
%TD*%
%TO.C,R89*%
G36*
G01*
X229925000Y-152925000D02*
X229925000Y-155075000D01*
G75*
G02*
X229675000Y-155325000I-250000J0D01*
G01*
X228950000Y-155325000D01*
G75*
G02*
X228700000Y-155075000I0J250000D01*
G01*
X228700000Y-152925000D01*
G75*
G02*
X228950000Y-152675000I250000J0D01*
G01*
X229675000Y-152675000D01*
G75*
G02*
X229925000Y-152925000I0J-250000D01*
G01*
G37*
G36*
G01*
X225300000Y-152925000D02*
X225300000Y-155075000D01*
G75*
G02*
X225050000Y-155325000I-250000J0D01*
G01*
X224325000Y-155325000D01*
G75*
G02*
X224075000Y-155075000I0J250000D01*
G01*
X224075000Y-152925000D01*
G75*
G02*
X224325000Y-152675000I250000J0D01*
G01*
X225050000Y-152675000D01*
G75*
G02*
X225300000Y-152925000I0J-250000D01*
G01*
G37*
%TD*%
%TO.C,R90*%
G36*
G01*
X228700000Y-161075000D02*
X228700000Y-158925000D01*
G75*
G02*
X228950000Y-158675000I250000J0D01*
G01*
X229675000Y-158675000D01*
G75*
G02*
X229925000Y-158925000I0J-250000D01*
G01*
X229925000Y-161075000D01*
G75*
G02*
X229675000Y-161325000I-250000J0D01*
G01*
X228950000Y-161325000D01*
G75*
G02*
X228700000Y-161075000I0J250000D01*
G01*
G37*
G36*
G01*
X224075000Y-161075000D02*
X224075000Y-158925000D01*
G75*
G02*
X224325000Y-158675000I250000J0D01*
G01*
X225050000Y-158675000D01*
G75*
G02*
X225300000Y-158925000I0J-250000D01*
G01*
X225300000Y-161075000D01*
G75*
G02*
X225050000Y-161325000I-250000J0D01*
G01*
X224325000Y-161325000D01*
G75*
G02*
X224075000Y-161075000I0J250000D01*
G01*
G37*
%TD*%
%TO.C,R91*%
G36*
G01*
X239075000Y-113075000D02*
X239075000Y-110925000D01*
G75*
G02*
X239325000Y-110675000I250000J0D01*
G01*
X240050000Y-110675000D01*
G75*
G02*
X240300000Y-110925000I0J-250000D01*
G01*
X240300000Y-113075000D01*
G75*
G02*
X240050000Y-113325000I-250000J0D01*
G01*
X239325000Y-113325000D01*
G75*
G02*
X239075000Y-113075000I0J250000D01*
G01*
G37*
G36*
G01*
X243700000Y-113075000D02*
X243700000Y-110925000D01*
G75*
G02*
X243950000Y-110675000I250000J0D01*
G01*
X244675000Y-110675000D01*
G75*
G02*
X244925000Y-110925000I0J-250000D01*
G01*
X244925000Y-113075000D01*
G75*
G02*
X244675000Y-113325000I-250000J0D01*
G01*
X243950000Y-113325000D01*
G75*
G02*
X243700000Y-113075000I0J250000D01*
G01*
G37*
%TD*%
%TO.C,R92*%
G36*
G01*
X240300000Y-116925000D02*
X240300000Y-119075000D01*
G75*
G02*
X240050000Y-119325000I-250000J0D01*
G01*
X239325000Y-119325000D01*
G75*
G02*
X239075000Y-119075000I0J250000D01*
G01*
X239075000Y-116925000D01*
G75*
G02*
X239325000Y-116675000I250000J0D01*
G01*
X240050000Y-116675000D01*
G75*
G02*
X240300000Y-116925000I0J-250000D01*
G01*
G37*
G36*
G01*
X244925000Y-116925000D02*
X244925000Y-119075000D01*
G75*
G02*
X244675000Y-119325000I-250000J0D01*
G01*
X243950000Y-119325000D01*
G75*
G02*
X243700000Y-119075000I0J250000D01*
G01*
X243700000Y-116925000D01*
G75*
G02*
X243950000Y-116675000I250000J0D01*
G01*
X244675000Y-116675000D01*
G75*
G02*
X244925000Y-116925000I0J-250000D01*
G01*
G37*
%TD*%
%TO.C,R93*%
G36*
G01*
X239075000Y-125075000D02*
X239075000Y-122925000D01*
G75*
G02*
X239325000Y-122675000I250000J0D01*
G01*
X240050000Y-122675000D01*
G75*
G02*
X240300000Y-122925000I0J-250000D01*
G01*
X240300000Y-125075000D01*
G75*
G02*
X240050000Y-125325000I-250000J0D01*
G01*
X239325000Y-125325000D01*
G75*
G02*
X239075000Y-125075000I0J250000D01*
G01*
G37*
G36*
G01*
X243700000Y-125075000D02*
X243700000Y-122925000D01*
G75*
G02*
X243950000Y-122675000I250000J0D01*
G01*
X244675000Y-122675000D01*
G75*
G02*
X244925000Y-122925000I0J-250000D01*
G01*
X244925000Y-125075000D01*
G75*
G02*
X244675000Y-125325000I-250000J0D01*
G01*
X243950000Y-125325000D01*
G75*
G02*
X243700000Y-125075000I0J250000D01*
G01*
G37*
%TD*%
%TO.C,R94*%
G36*
G01*
X240300000Y-128925000D02*
X240300000Y-131075000D01*
G75*
G02*
X240050000Y-131325000I-250000J0D01*
G01*
X239325000Y-131325000D01*
G75*
G02*
X239075000Y-131075000I0J250000D01*
G01*
X239075000Y-128925000D01*
G75*
G02*
X239325000Y-128675000I250000J0D01*
G01*
X240050000Y-128675000D01*
G75*
G02*
X240300000Y-128925000I0J-250000D01*
G01*
G37*
G36*
G01*
X244925000Y-128925000D02*
X244925000Y-131075000D01*
G75*
G02*
X244675000Y-131325000I-250000J0D01*
G01*
X243950000Y-131325000D01*
G75*
G02*
X243700000Y-131075000I0J250000D01*
G01*
X243700000Y-128925000D01*
G75*
G02*
X243950000Y-128675000I250000J0D01*
G01*
X244675000Y-128675000D01*
G75*
G02*
X244925000Y-128925000I0J-250000D01*
G01*
G37*
%TD*%
%TO.C,R96*%
G36*
G01*
X240300000Y-140925000D02*
X240300000Y-143075000D01*
G75*
G02*
X240050000Y-143325000I-250000J0D01*
G01*
X239325000Y-143325000D01*
G75*
G02*
X239075000Y-143075000I0J250000D01*
G01*
X239075000Y-140925000D01*
G75*
G02*
X239325000Y-140675000I250000J0D01*
G01*
X240050000Y-140675000D01*
G75*
G02*
X240300000Y-140925000I0J-250000D01*
G01*
G37*
G36*
G01*
X244925000Y-140925000D02*
X244925000Y-143075000D01*
G75*
G02*
X244675000Y-143325000I-250000J0D01*
G01*
X243950000Y-143325000D01*
G75*
G02*
X243700000Y-143075000I0J250000D01*
G01*
X243700000Y-140925000D01*
G75*
G02*
X243950000Y-140675000I250000J0D01*
G01*
X244675000Y-140675000D01*
G75*
G02*
X244925000Y-140925000I0J-250000D01*
G01*
G37*
%TD*%
%TO.C,R97*%
G36*
G01*
X239075000Y-149075000D02*
X239075000Y-146925000D01*
G75*
G02*
X239325000Y-146675000I250000J0D01*
G01*
X240050000Y-146675000D01*
G75*
G02*
X240300000Y-146925000I0J-250000D01*
G01*
X240300000Y-149075000D01*
G75*
G02*
X240050000Y-149325000I-250000J0D01*
G01*
X239325000Y-149325000D01*
G75*
G02*
X239075000Y-149075000I0J250000D01*
G01*
G37*
G36*
G01*
X243700000Y-149075000D02*
X243700000Y-146925000D01*
G75*
G02*
X243950000Y-146675000I250000J0D01*
G01*
X244675000Y-146675000D01*
G75*
G02*
X244925000Y-146925000I0J-250000D01*
G01*
X244925000Y-149075000D01*
G75*
G02*
X244675000Y-149325000I-250000J0D01*
G01*
X243950000Y-149325000D01*
G75*
G02*
X243700000Y-149075000I0J250000D01*
G01*
G37*
%TD*%
%TO.C,R98*%
G36*
G01*
X240300000Y-152925000D02*
X240300000Y-155075000D01*
G75*
G02*
X240050000Y-155325000I-250000J0D01*
G01*
X239325000Y-155325000D01*
G75*
G02*
X239075000Y-155075000I0J250000D01*
G01*
X239075000Y-152925000D01*
G75*
G02*
X239325000Y-152675000I250000J0D01*
G01*
X240050000Y-152675000D01*
G75*
G02*
X240300000Y-152925000I0J-250000D01*
G01*
G37*
G36*
G01*
X244925000Y-152925000D02*
X244925000Y-155075000D01*
G75*
G02*
X244675000Y-155325000I-250000J0D01*
G01*
X243950000Y-155325000D01*
G75*
G02*
X243700000Y-155075000I0J250000D01*
G01*
X243700000Y-152925000D01*
G75*
G02*
X243950000Y-152675000I250000J0D01*
G01*
X244675000Y-152675000D01*
G75*
G02*
X244925000Y-152925000I0J-250000D01*
G01*
G37*
%TD*%
%TO.C,R99*%
G36*
G01*
X239075000Y-161075000D02*
X239075000Y-158925000D01*
G75*
G02*
X239325000Y-158675000I250000J0D01*
G01*
X240050000Y-158675000D01*
G75*
G02*
X240300000Y-158925000I0J-250000D01*
G01*
X240300000Y-161075000D01*
G75*
G02*
X240050000Y-161325000I-250000J0D01*
G01*
X239325000Y-161325000D01*
G75*
G02*
X239075000Y-161075000I0J250000D01*
G01*
G37*
G36*
G01*
X243700000Y-161075000D02*
X243700000Y-158925000D01*
G75*
G02*
X243950000Y-158675000I250000J0D01*
G01*
X244675000Y-158675000D01*
G75*
G02*
X244925000Y-158925000I0J-250000D01*
G01*
X244925000Y-161075000D01*
G75*
G02*
X244675000Y-161325000I-250000J0D01*
G01*
X243950000Y-161325000D01*
G75*
G02*
X243700000Y-161075000I0J250000D01*
G01*
G37*
%TD*%
%TO.C,R100*%
G36*
G01*
X258700000Y-113075000D02*
X258700000Y-110925000D01*
G75*
G02*
X258950000Y-110675000I250000J0D01*
G01*
X259675000Y-110675000D01*
G75*
G02*
X259925000Y-110925000I0J-250000D01*
G01*
X259925000Y-113075000D01*
G75*
G02*
X259675000Y-113325000I-250000J0D01*
G01*
X258950000Y-113325000D01*
G75*
G02*
X258700000Y-113075000I0J250000D01*
G01*
G37*
G36*
G01*
X254075000Y-113075000D02*
X254075000Y-110925000D01*
G75*
G02*
X254325000Y-110675000I250000J0D01*
G01*
X255050000Y-110675000D01*
G75*
G02*
X255300000Y-110925000I0J-250000D01*
G01*
X255300000Y-113075000D01*
G75*
G02*
X255050000Y-113325000I-250000J0D01*
G01*
X254325000Y-113325000D01*
G75*
G02*
X254075000Y-113075000I0J250000D01*
G01*
G37*
%TD*%
%TO.C,R101*%
G36*
G01*
X259925000Y-116925000D02*
X259925000Y-119075000D01*
G75*
G02*
X259675000Y-119325000I-250000J0D01*
G01*
X258950000Y-119325000D01*
G75*
G02*
X258700000Y-119075000I0J250000D01*
G01*
X258700000Y-116925000D01*
G75*
G02*
X258950000Y-116675000I250000J0D01*
G01*
X259675000Y-116675000D01*
G75*
G02*
X259925000Y-116925000I0J-250000D01*
G01*
G37*
G36*
G01*
X255300000Y-116925000D02*
X255300000Y-119075000D01*
G75*
G02*
X255050000Y-119325000I-250000J0D01*
G01*
X254325000Y-119325000D01*
G75*
G02*
X254075000Y-119075000I0J250000D01*
G01*
X254075000Y-116925000D01*
G75*
G02*
X254325000Y-116675000I250000J0D01*
G01*
X255050000Y-116675000D01*
G75*
G02*
X255300000Y-116925000I0J-250000D01*
G01*
G37*
%TD*%
%TO.C,R102*%
G36*
G01*
X258700000Y-125075000D02*
X258700000Y-122925000D01*
G75*
G02*
X258950000Y-122675000I250000J0D01*
G01*
X259675000Y-122675000D01*
G75*
G02*
X259925000Y-122925000I0J-250000D01*
G01*
X259925000Y-125075000D01*
G75*
G02*
X259675000Y-125325000I-250000J0D01*
G01*
X258950000Y-125325000D01*
G75*
G02*
X258700000Y-125075000I0J250000D01*
G01*
G37*
G36*
G01*
X254075000Y-125075000D02*
X254075000Y-122925000D01*
G75*
G02*
X254325000Y-122675000I250000J0D01*
G01*
X255050000Y-122675000D01*
G75*
G02*
X255300000Y-122925000I0J-250000D01*
G01*
X255300000Y-125075000D01*
G75*
G02*
X255050000Y-125325000I-250000J0D01*
G01*
X254325000Y-125325000D01*
G75*
G02*
X254075000Y-125075000I0J250000D01*
G01*
G37*
%TD*%
%TO.C,R103*%
G36*
G01*
X259925000Y-128925000D02*
X259925000Y-131075000D01*
G75*
G02*
X259675000Y-131325000I-250000J0D01*
G01*
X258950000Y-131325000D01*
G75*
G02*
X258700000Y-131075000I0J250000D01*
G01*
X258700000Y-128925000D01*
G75*
G02*
X258950000Y-128675000I250000J0D01*
G01*
X259675000Y-128675000D01*
G75*
G02*
X259925000Y-128925000I0J-250000D01*
G01*
G37*
G36*
G01*
X255300000Y-128925000D02*
X255300000Y-131075000D01*
G75*
G02*
X255050000Y-131325000I-250000J0D01*
G01*
X254325000Y-131325000D01*
G75*
G02*
X254075000Y-131075000I0J250000D01*
G01*
X254075000Y-128925000D01*
G75*
G02*
X254325000Y-128675000I250000J0D01*
G01*
X255050000Y-128675000D01*
G75*
G02*
X255300000Y-128925000I0J-250000D01*
G01*
G37*
%TD*%
%TO.C,R104*%
G36*
G01*
X258700000Y-137075000D02*
X258700000Y-134925000D01*
G75*
G02*
X258950000Y-134675000I250000J0D01*
G01*
X259675000Y-134675000D01*
G75*
G02*
X259925000Y-134925000I0J-250000D01*
G01*
X259925000Y-137075000D01*
G75*
G02*
X259675000Y-137325000I-250000J0D01*
G01*
X258950000Y-137325000D01*
G75*
G02*
X258700000Y-137075000I0J250000D01*
G01*
G37*
G36*
G01*
X254075000Y-137075000D02*
X254075000Y-134925000D01*
G75*
G02*
X254325000Y-134675000I250000J0D01*
G01*
X255050000Y-134675000D01*
G75*
G02*
X255300000Y-134925000I0J-250000D01*
G01*
X255300000Y-137075000D01*
G75*
G02*
X255050000Y-137325000I-250000J0D01*
G01*
X254325000Y-137325000D01*
G75*
G02*
X254075000Y-137075000I0J250000D01*
G01*
G37*
%TD*%
%TO.C,R105*%
G36*
G01*
X259925000Y-140925000D02*
X259925000Y-143075000D01*
G75*
G02*
X259675000Y-143325000I-250000J0D01*
G01*
X258950000Y-143325000D01*
G75*
G02*
X258700000Y-143075000I0J250000D01*
G01*
X258700000Y-140925000D01*
G75*
G02*
X258950000Y-140675000I250000J0D01*
G01*
X259675000Y-140675000D01*
G75*
G02*
X259925000Y-140925000I0J-250000D01*
G01*
G37*
G36*
G01*
X255300000Y-140925000D02*
X255300000Y-143075000D01*
G75*
G02*
X255050000Y-143325000I-250000J0D01*
G01*
X254325000Y-143325000D01*
G75*
G02*
X254075000Y-143075000I0J250000D01*
G01*
X254075000Y-140925000D01*
G75*
G02*
X254325000Y-140675000I250000J0D01*
G01*
X255050000Y-140675000D01*
G75*
G02*
X255300000Y-140925000I0J-250000D01*
G01*
G37*
%TD*%
%TO.C,R106*%
G36*
G01*
X258700000Y-149075000D02*
X258700000Y-146925000D01*
G75*
G02*
X258950000Y-146675000I250000J0D01*
G01*
X259675000Y-146675000D01*
G75*
G02*
X259925000Y-146925000I0J-250000D01*
G01*
X259925000Y-149075000D01*
G75*
G02*
X259675000Y-149325000I-250000J0D01*
G01*
X258950000Y-149325000D01*
G75*
G02*
X258700000Y-149075000I0J250000D01*
G01*
G37*
G36*
G01*
X254075000Y-149075000D02*
X254075000Y-146925000D01*
G75*
G02*
X254325000Y-146675000I250000J0D01*
G01*
X255050000Y-146675000D01*
G75*
G02*
X255300000Y-146925000I0J-250000D01*
G01*
X255300000Y-149075000D01*
G75*
G02*
X255050000Y-149325000I-250000J0D01*
G01*
X254325000Y-149325000D01*
G75*
G02*
X254075000Y-149075000I0J250000D01*
G01*
G37*
%TD*%
%TO.C,R107*%
G36*
G01*
X259925000Y-152925000D02*
X259925000Y-155075000D01*
G75*
G02*
X259675000Y-155325000I-250000J0D01*
G01*
X258950000Y-155325000D01*
G75*
G02*
X258700000Y-155075000I0J250000D01*
G01*
X258700000Y-152925000D01*
G75*
G02*
X258950000Y-152675000I250000J0D01*
G01*
X259675000Y-152675000D01*
G75*
G02*
X259925000Y-152925000I0J-250000D01*
G01*
G37*
G36*
G01*
X255300000Y-152925000D02*
X255300000Y-155075000D01*
G75*
G02*
X255050000Y-155325000I-250000J0D01*
G01*
X254325000Y-155325000D01*
G75*
G02*
X254075000Y-155075000I0J250000D01*
G01*
X254075000Y-152925000D01*
G75*
G02*
X254325000Y-152675000I250000J0D01*
G01*
X255050000Y-152675000D01*
G75*
G02*
X255300000Y-152925000I0J-250000D01*
G01*
G37*
%TD*%
%TO.C,R108*%
G36*
G01*
X258700000Y-161075000D02*
X258700000Y-158925000D01*
G75*
G02*
X258950000Y-158675000I250000J0D01*
G01*
X259675000Y-158675000D01*
G75*
G02*
X259925000Y-158925000I0J-250000D01*
G01*
X259925000Y-161075000D01*
G75*
G02*
X259675000Y-161325000I-250000J0D01*
G01*
X258950000Y-161325000D01*
G75*
G02*
X258700000Y-161075000I0J250000D01*
G01*
G37*
G36*
G01*
X254075000Y-161075000D02*
X254075000Y-158925000D01*
G75*
G02*
X254325000Y-158675000I250000J0D01*
G01*
X255050000Y-158675000D01*
G75*
G02*
X255300000Y-158925000I0J-250000D01*
G01*
X255300000Y-161075000D01*
G75*
G02*
X255050000Y-161325000I-250000J0D01*
G01*
X254325000Y-161325000D01*
G75*
G02*
X254075000Y-161075000I0J250000D01*
G01*
G37*
%TD*%
%TO.C,R110*%
G36*
G01*
X270300000Y-116925000D02*
X270300000Y-119075000D01*
G75*
G02*
X270050000Y-119325000I-250000J0D01*
G01*
X269325000Y-119325000D01*
G75*
G02*
X269075000Y-119075000I0J250000D01*
G01*
X269075000Y-116925000D01*
G75*
G02*
X269325000Y-116675000I250000J0D01*
G01*
X270050000Y-116675000D01*
G75*
G02*
X270300000Y-116925000I0J-250000D01*
G01*
G37*
G36*
G01*
X274925000Y-116925000D02*
X274925000Y-119075000D01*
G75*
G02*
X274675000Y-119325000I-250000J0D01*
G01*
X273950000Y-119325000D01*
G75*
G02*
X273700000Y-119075000I0J250000D01*
G01*
X273700000Y-116925000D01*
G75*
G02*
X273950000Y-116675000I250000J0D01*
G01*
X274675000Y-116675000D01*
G75*
G02*
X274925000Y-116925000I0J-250000D01*
G01*
G37*
%TD*%
%TO.C,R111*%
G36*
G01*
X269075000Y-125075000D02*
X269075000Y-122925000D01*
G75*
G02*
X269325000Y-122675000I250000J0D01*
G01*
X270050000Y-122675000D01*
G75*
G02*
X270300000Y-122925000I0J-250000D01*
G01*
X270300000Y-125075000D01*
G75*
G02*
X270050000Y-125325000I-250000J0D01*
G01*
X269325000Y-125325000D01*
G75*
G02*
X269075000Y-125075000I0J250000D01*
G01*
G37*
G36*
G01*
X273700000Y-125075000D02*
X273700000Y-122925000D01*
G75*
G02*
X273950000Y-122675000I250000J0D01*
G01*
X274675000Y-122675000D01*
G75*
G02*
X274925000Y-122925000I0J-250000D01*
G01*
X274925000Y-125075000D01*
G75*
G02*
X274675000Y-125325000I-250000J0D01*
G01*
X273950000Y-125325000D01*
G75*
G02*
X273700000Y-125075000I0J250000D01*
G01*
G37*
%TD*%
%TO.C,R112*%
G36*
G01*
X270300000Y-128925000D02*
X270300000Y-131075000D01*
G75*
G02*
X270050000Y-131325000I-250000J0D01*
G01*
X269325000Y-131325000D01*
G75*
G02*
X269075000Y-131075000I0J250000D01*
G01*
X269075000Y-128925000D01*
G75*
G02*
X269325000Y-128675000I250000J0D01*
G01*
X270050000Y-128675000D01*
G75*
G02*
X270300000Y-128925000I0J-250000D01*
G01*
G37*
G36*
G01*
X274925000Y-128925000D02*
X274925000Y-131075000D01*
G75*
G02*
X274675000Y-131325000I-250000J0D01*
G01*
X273950000Y-131325000D01*
G75*
G02*
X273700000Y-131075000I0J250000D01*
G01*
X273700000Y-128925000D01*
G75*
G02*
X273950000Y-128675000I250000J0D01*
G01*
X274675000Y-128675000D01*
G75*
G02*
X274925000Y-128925000I0J-250000D01*
G01*
G37*
%TD*%
%TO.C,R113*%
G36*
G01*
X269075000Y-137075000D02*
X269075000Y-134925000D01*
G75*
G02*
X269325000Y-134675000I250000J0D01*
G01*
X270050000Y-134675000D01*
G75*
G02*
X270300000Y-134925000I0J-250000D01*
G01*
X270300000Y-137075000D01*
G75*
G02*
X270050000Y-137325000I-250000J0D01*
G01*
X269325000Y-137325000D01*
G75*
G02*
X269075000Y-137075000I0J250000D01*
G01*
G37*
G36*
G01*
X273700000Y-137075000D02*
X273700000Y-134925000D01*
G75*
G02*
X273950000Y-134675000I250000J0D01*
G01*
X274675000Y-134675000D01*
G75*
G02*
X274925000Y-134925000I0J-250000D01*
G01*
X274925000Y-137075000D01*
G75*
G02*
X274675000Y-137325000I-250000J0D01*
G01*
X273950000Y-137325000D01*
G75*
G02*
X273700000Y-137075000I0J250000D01*
G01*
G37*
%TD*%
%TO.C,R114*%
G36*
G01*
X270300000Y-140925000D02*
X270300000Y-143075000D01*
G75*
G02*
X270050000Y-143325000I-250000J0D01*
G01*
X269325000Y-143325000D01*
G75*
G02*
X269075000Y-143075000I0J250000D01*
G01*
X269075000Y-140925000D01*
G75*
G02*
X269325000Y-140675000I250000J0D01*
G01*
X270050000Y-140675000D01*
G75*
G02*
X270300000Y-140925000I0J-250000D01*
G01*
G37*
G36*
G01*
X274925000Y-140925000D02*
X274925000Y-143075000D01*
G75*
G02*
X274675000Y-143325000I-250000J0D01*
G01*
X273950000Y-143325000D01*
G75*
G02*
X273700000Y-143075000I0J250000D01*
G01*
X273700000Y-140925000D01*
G75*
G02*
X273950000Y-140675000I250000J0D01*
G01*
X274675000Y-140675000D01*
G75*
G02*
X274925000Y-140925000I0J-250000D01*
G01*
G37*
%TD*%
%TO.C,R115*%
G36*
G01*
X269075000Y-149075000D02*
X269075000Y-146925000D01*
G75*
G02*
X269325000Y-146675000I250000J0D01*
G01*
X270050000Y-146675000D01*
G75*
G02*
X270300000Y-146925000I0J-250000D01*
G01*
X270300000Y-149075000D01*
G75*
G02*
X270050000Y-149325000I-250000J0D01*
G01*
X269325000Y-149325000D01*
G75*
G02*
X269075000Y-149075000I0J250000D01*
G01*
G37*
G36*
G01*
X273700000Y-149075000D02*
X273700000Y-146925000D01*
G75*
G02*
X273950000Y-146675000I250000J0D01*
G01*
X274675000Y-146675000D01*
G75*
G02*
X274925000Y-146925000I0J-250000D01*
G01*
X274925000Y-149075000D01*
G75*
G02*
X274675000Y-149325000I-250000J0D01*
G01*
X273950000Y-149325000D01*
G75*
G02*
X273700000Y-149075000I0J250000D01*
G01*
G37*
%TD*%
%TO.C,R116*%
G36*
G01*
X270300000Y-152925000D02*
X270300000Y-155075000D01*
G75*
G02*
X270050000Y-155325000I-250000J0D01*
G01*
X269325000Y-155325000D01*
G75*
G02*
X269075000Y-155075000I0J250000D01*
G01*
X269075000Y-152925000D01*
G75*
G02*
X269325000Y-152675000I250000J0D01*
G01*
X270050000Y-152675000D01*
G75*
G02*
X270300000Y-152925000I0J-250000D01*
G01*
G37*
G36*
G01*
X274925000Y-152925000D02*
X274925000Y-155075000D01*
G75*
G02*
X274675000Y-155325000I-250000J0D01*
G01*
X273950000Y-155325000D01*
G75*
G02*
X273700000Y-155075000I0J250000D01*
G01*
X273700000Y-152925000D01*
G75*
G02*
X273950000Y-152675000I250000J0D01*
G01*
X274675000Y-152675000D01*
G75*
G02*
X274925000Y-152925000I0J-250000D01*
G01*
G37*
%TD*%
%TO.C,R117*%
G36*
G01*
X269075000Y-161075000D02*
X269075000Y-158925000D01*
G75*
G02*
X269325000Y-158675000I250000J0D01*
G01*
X270050000Y-158675000D01*
G75*
G02*
X270300000Y-158925000I0J-250000D01*
G01*
X270300000Y-161075000D01*
G75*
G02*
X270050000Y-161325000I-250000J0D01*
G01*
X269325000Y-161325000D01*
G75*
G02*
X269075000Y-161075000I0J250000D01*
G01*
G37*
G36*
G01*
X273700000Y-161075000D02*
X273700000Y-158925000D01*
G75*
G02*
X273950000Y-158675000I250000J0D01*
G01*
X274675000Y-158675000D01*
G75*
G02*
X274925000Y-158925000I0J-250000D01*
G01*
X274925000Y-161075000D01*
G75*
G02*
X274675000Y-161325000I-250000J0D01*
G01*
X273950000Y-161325000D01*
G75*
G02*
X273700000Y-161075000I0J250000D01*
G01*
G37*
%TD*%
%TO.C,R118*%
G36*
G01*
X288700000Y-113075000D02*
X288700000Y-110925000D01*
G75*
G02*
X288950000Y-110675000I250000J0D01*
G01*
X289675000Y-110675000D01*
G75*
G02*
X289925000Y-110925000I0J-250000D01*
G01*
X289925000Y-113075000D01*
G75*
G02*
X289675000Y-113325000I-250000J0D01*
G01*
X288950000Y-113325000D01*
G75*
G02*
X288700000Y-113075000I0J250000D01*
G01*
G37*
G36*
G01*
X284075000Y-113075000D02*
X284075000Y-110925000D01*
G75*
G02*
X284325000Y-110675000I250000J0D01*
G01*
X285050000Y-110675000D01*
G75*
G02*
X285300000Y-110925000I0J-250000D01*
G01*
X285300000Y-113075000D01*
G75*
G02*
X285050000Y-113325000I-250000J0D01*
G01*
X284325000Y-113325000D01*
G75*
G02*
X284075000Y-113075000I0J250000D01*
G01*
G37*
%TD*%
%TO.C,R119*%
G36*
G01*
X289925000Y-116925000D02*
X289925000Y-119075000D01*
G75*
G02*
X289675000Y-119325000I-250000J0D01*
G01*
X288950000Y-119325000D01*
G75*
G02*
X288700000Y-119075000I0J250000D01*
G01*
X288700000Y-116925000D01*
G75*
G02*
X288950000Y-116675000I250000J0D01*
G01*
X289675000Y-116675000D01*
G75*
G02*
X289925000Y-116925000I0J-250000D01*
G01*
G37*
G36*
G01*
X285300000Y-116925000D02*
X285300000Y-119075000D01*
G75*
G02*
X285050000Y-119325000I-250000J0D01*
G01*
X284325000Y-119325000D01*
G75*
G02*
X284075000Y-119075000I0J250000D01*
G01*
X284075000Y-116925000D01*
G75*
G02*
X284325000Y-116675000I250000J0D01*
G01*
X285050000Y-116675000D01*
G75*
G02*
X285300000Y-116925000I0J-250000D01*
G01*
G37*
%TD*%
%TO.C,R120*%
G36*
G01*
X288700000Y-125075000D02*
X288700000Y-122925000D01*
G75*
G02*
X288950000Y-122675000I250000J0D01*
G01*
X289675000Y-122675000D01*
G75*
G02*
X289925000Y-122925000I0J-250000D01*
G01*
X289925000Y-125075000D01*
G75*
G02*
X289675000Y-125325000I-250000J0D01*
G01*
X288950000Y-125325000D01*
G75*
G02*
X288700000Y-125075000I0J250000D01*
G01*
G37*
G36*
G01*
X284075000Y-125075000D02*
X284075000Y-122925000D01*
G75*
G02*
X284325000Y-122675000I250000J0D01*
G01*
X285050000Y-122675000D01*
G75*
G02*
X285300000Y-122925000I0J-250000D01*
G01*
X285300000Y-125075000D01*
G75*
G02*
X285050000Y-125325000I-250000J0D01*
G01*
X284325000Y-125325000D01*
G75*
G02*
X284075000Y-125075000I0J250000D01*
G01*
G37*
%TD*%
%TO.C,R121*%
G36*
G01*
X289925000Y-128925000D02*
X289925000Y-131075000D01*
G75*
G02*
X289675000Y-131325000I-250000J0D01*
G01*
X288950000Y-131325000D01*
G75*
G02*
X288700000Y-131075000I0J250000D01*
G01*
X288700000Y-128925000D01*
G75*
G02*
X288950000Y-128675000I250000J0D01*
G01*
X289675000Y-128675000D01*
G75*
G02*
X289925000Y-128925000I0J-250000D01*
G01*
G37*
G36*
G01*
X285300000Y-128925000D02*
X285300000Y-131075000D01*
G75*
G02*
X285050000Y-131325000I-250000J0D01*
G01*
X284325000Y-131325000D01*
G75*
G02*
X284075000Y-131075000I0J250000D01*
G01*
X284075000Y-128925000D01*
G75*
G02*
X284325000Y-128675000I250000J0D01*
G01*
X285050000Y-128675000D01*
G75*
G02*
X285300000Y-128925000I0J-250000D01*
G01*
G37*
%TD*%
%TO.C,R122*%
G36*
G01*
X288700000Y-137075000D02*
X288700000Y-134925000D01*
G75*
G02*
X288950000Y-134675000I250000J0D01*
G01*
X289675000Y-134675000D01*
G75*
G02*
X289925000Y-134925000I0J-250000D01*
G01*
X289925000Y-137075000D01*
G75*
G02*
X289675000Y-137325000I-250000J0D01*
G01*
X288950000Y-137325000D01*
G75*
G02*
X288700000Y-137075000I0J250000D01*
G01*
G37*
G36*
G01*
X284075000Y-137075000D02*
X284075000Y-134925000D01*
G75*
G02*
X284325000Y-134675000I250000J0D01*
G01*
X285050000Y-134675000D01*
G75*
G02*
X285300000Y-134925000I0J-250000D01*
G01*
X285300000Y-137075000D01*
G75*
G02*
X285050000Y-137325000I-250000J0D01*
G01*
X284325000Y-137325000D01*
G75*
G02*
X284075000Y-137075000I0J250000D01*
G01*
G37*
%TD*%
%TO.C,R124*%
G36*
G01*
X288700000Y-149075000D02*
X288700000Y-146925000D01*
G75*
G02*
X288950000Y-146675000I250000J0D01*
G01*
X289675000Y-146675000D01*
G75*
G02*
X289925000Y-146925000I0J-250000D01*
G01*
X289925000Y-149075000D01*
G75*
G02*
X289675000Y-149325000I-250000J0D01*
G01*
X288950000Y-149325000D01*
G75*
G02*
X288700000Y-149075000I0J250000D01*
G01*
G37*
G36*
G01*
X284075000Y-149075000D02*
X284075000Y-146925000D01*
G75*
G02*
X284325000Y-146675000I250000J0D01*
G01*
X285050000Y-146675000D01*
G75*
G02*
X285300000Y-146925000I0J-250000D01*
G01*
X285300000Y-149075000D01*
G75*
G02*
X285050000Y-149325000I-250000J0D01*
G01*
X284325000Y-149325000D01*
G75*
G02*
X284075000Y-149075000I0J250000D01*
G01*
G37*
%TD*%
%TO.C,R125*%
G36*
G01*
X289925000Y-152925000D02*
X289925000Y-155075000D01*
G75*
G02*
X289675000Y-155325000I-250000J0D01*
G01*
X288950000Y-155325000D01*
G75*
G02*
X288700000Y-155075000I0J250000D01*
G01*
X288700000Y-152925000D01*
G75*
G02*
X288950000Y-152675000I250000J0D01*
G01*
X289675000Y-152675000D01*
G75*
G02*
X289925000Y-152925000I0J-250000D01*
G01*
G37*
G36*
G01*
X285300000Y-152925000D02*
X285300000Y-155075000D01*
G75*
G02*
X285050000Y-155325000I-250000J0D01*
G01*
X284325000Y-155325000D01*
G75*
G02*
X284075000Y-155075000I0J250000D01*
G01*
X284075000Y-152925000D01*
G75*
G02*
X284325000Y-152675000I250000J0D01*
G01*
X285050000Y-152675000D01*
G75*
G02*
X285300000Y-152925000I0J-250000D01*
G01*
G37*
%TD*%
%TO.C,R126*%
G36*
G01*
X288700000Y-161075000D02*
X288700000Y-158925000D01*
G75*
G02*
X288950000Y-158675000I250000J0D01*
G01*
X289675000Y-158675000D01*
G75*
G02*
X289925000Y-158925000I0J-250000D01*
G01*
X289925000Y-161075000D01*
G75*
G02*
X289675000Y-161325000I-250000J0D01*
G01*
X288950000Y-161325000D01*
G75*
G02*
X288700000Y-161075000I0J250000D01*
G01*
G37*
G36*
G01*
X284075000Y-161075000D02*
X284075000Y-158925000D01*
G75*
G02*
X284325000Y-158675000I250000J0D01*
G01*
X285050000Y-158675000D01*
G75*
G02*
X285300000Y-158925000I0J-250000D01*
G01*
X285300000Y-161075000D01*
G75*
G02*
X285050000Y-161325000I-250000J0D01*
G01*
X284325000Y-161325000D01*
G75*
G02*
X284075000Y-161075000I0J250000D01*
G01*
G37*
%TD*%
%TO.C,R127*%
G36*
G01*
X299075000Y-113075000D02*
X299075000Y-110925000D01*
G75*
G02*
X299325000Y-110675000I250000J0D01*
G01*
X300050000Y-110675000D01*
G75*
G02*
X300300000Y-110925000I0J-250000D01*
G01*
X300300000Y-113075000D01*
G75*
G02*
X300050000Y-113325000I-250000J0D01*
G01*
X299325000Y-113325000D01*
G75*
G02*
X299075000Y-113075000I0J250000D01*
G01*
G37*
G36*
G01*
X303700000Y-113075000D02*
X303700000Y-110925000D01*
G75*
G02*
X303950000Y-110675000I250000J0D01*
G01*
X304675000Y-110675000D01*
G75*
G02*
X304925000Y-110925000I0J-250000D01*
G01*
X304925000Y-113075000D01*
G75*
G02*
X304675000Y-113325000I-250000J0D01*
G01*
X303950000Y-113325000D01*
G75*
G02*
X303700000Y-113075000I0J250000D01*
G01*
G37*
%TD*%
%TO.C,R128*%
G36*
G01*
X300300000Y-116925000D02*
X300300000Y-119075000D01*
G75*
G02*
X300050000Y-119325000I-250000J0D01*
G01*
X299325000Y-119325000D01*
G75*
G02*
X299075000Y-119075000I0J250000D01*
G01*
X299075000Y-116925000D01*
G75*
G02*
X299325000Y-116675000I250000J0D01*
G01*
X300050000Y-116675000D01*
G75*
G02*
X300300000Y-116925000I0J-250000D01*
G01*
G37*
G36*
G01*
X304925000Y-116925000D02*
X304925000Y-119075000D01*
G75*
G02*
X304675000Y-119325000I-250000J0D01*
G01*
X303950000Y-119325000D01*
G75*
G02*
X303700000Y-119075000I0J250000D01*
G01*
X303700000Y-116925000D01*
G75*
G02*
X303950000Y-116675000I250000J0D01*
G01*
X304675000Y-116675000D01*
G75*
G02*
X304925000Y-116925000I0J-250000D01*
G01*
G37*
%TD*%
%TO.C,R129*%
G36*
G01*
X299075000Y-125075000D02*
X299075000Y-122925000D01*
G75*
G02*
X299325000Y-122675000I250000J0D01*
G01*
X300050000Y-122675000D01*
G75*
G02*
X300300000Y-122925000I0J-250000D01*
G01*
X300300000Y-125075000D01*
G75*
G02*
X300050000Y-125325000I-250000J0D01*
G01*
X299325000Y-125325000D01*
G75*
G02*
X299075000Y-125075000I0J250000D01*
G01*
G37*
G36*
G01*
X303700000Y-125075000D02*
X303700000Y-122925000D01*
G75*
G02*
X303950000Y-122675000I250000J0D01*
G01*
X304675000Y-122675000D01*
G75*
G02*
X304925000Y-122925000I0J-250000D01*
G01*
X304925000Y-125075000D01*
G75*
G02*
X304675000Y-125325000I-250000J0D01*
G01*
X303950000Y-125325000D01*
G75*
G02*
X303700000Y-125075000I0J250000D01*
G01*
G37*
%TD*%
%TO.C,R130*%
G36*
G01*
X300300000Y-128925000D02*
X300300000Y-131075000D01*
G75*
G02*
X300050000Y-131325000I-250000J0D01*
G01*
X299325000Y-131325000D01*
G75*
G02*
X299075000Y-131075000I0J250000D01*
G01*
X299075000Y-128925000D01*
G75*
G02*
X299325000Y-128675000I250000J0D01*
G01*
X300050000Y-128675000D01*
G75*
G02*
X300300000Y-128925000I0J-250000D01*
G01*
G37*
G36*
G01*
X304925000Y-128925000D02*
X304925000Y-131075000D01*
G75*
G02*
X304675000Y-131325000I-250000J0D01*
G01*
X303950000Y-131325000D01*
G75*
G02*
X303700000Y-131075000I0J250000D01*
G01*
X303700000Y-128925000D01*
G75*
G02*
X303950000Y-128675000I250000J0D01*
G01*
X304675000Y-128675000D01*
G75*
G02*
X304925000Y-128925000I0J-250000D01*
G01*
G37*
%TD*%
%TO.C,R131*%
G36*
G01*
X299075000Y-137075000D02*
X299075000Y-134925000D01*
G75*
G02*
X299325000Y-134675000I250000J0D01*
G01*
X300050000Y-134675000D01*
G75*
G02*
X300300000Y-134925000I0J-250000D01*
G01*
X300300000Y-137075000D01*
G75*
G02*
X300050000Y-137325000I-250000J0D01*
G01*
X299325000Y-137325000D01*
G75*
G02*
X299075000Y-137075000I0J250000D01*
G01*
G37*
G36*
G01*
X303700000Y-137075000D02*
X303700000Y-134925000D01*
G75*
G02*
X303950000Y-134675000I250000J0D01*
G01*
X304675000Y-134675000D01*
G75*
G02*
X304925000Y-134925000I0J-250000D01*
G01*
X304925000Y-137075000D01*
G75*
G02*
X304675000Y-137325000I-250000J0D01*
G01*
X303950000Y-137325000D01*
G75*
G02*
X303700000Y-137075000I0J250000D01*
G01*
G37*
%TD*%
%TO.C,R132*%
G36*
G01*
X300300000Y-140925000D02*
X300300000Y-143075000D01*
G75*
G02*
X300050000Y-143325000I-250000J0D01*
G01*
X299325000Y-143325000D01*
G75*
G02*
X299075000Y-143075000I0J250000D01*
G01*
X299075000Y-140925000D01*
G75*
G02*
X299325000Y-140675000I250000J0D01*
G01*
X300050000Y-140675000D01*
G75*
G02*
X300300000Y-140925000I0J-250000D01*
G01*
G37*
G36*
G01*
X304925000Y-140925000D02*
X304925000Y-143075000D01*
G75*
G02*
X304675000Y-143325000I-250000J0D01*
G01*
X303950000Y-143325000D01*
G75*
G02*
X303700000Y-143075000I0J250000D01*
G01*
X303700000Y-140925000D01*
G75*
G02*
X303950000Y-140675000I250000J0D01*
G01*
X304675000Y-140675000D01*
G75*
G02*
X304925000Y-140925000I0J-250000D01*
G01*
G37*
%TD*%
%TO.C,R133*%
G36*
G01*
X299075000Y-149075000D02*
X299075000Y-146925000D01*
G75*
G02*
X299325000Y-146675000I250000J0D01*
G01*
X300050000Y-146675000D01*
G75*
G02*
X300300000Y-146925000I0J-250000D01*
G01*
X300300000Y-149075000D01*
G75*
G02*
X300050000Y-149325000I-250000J0D01*
G01*
X299325000Y-149325000D01*
G75*
G02*
X299075000Y-149075000I0J250000D01*
G01*
G37*
G36*
G01*
X303700000Y-149075000D02*
X303700000Y-146925000D01*
G75*
G02*
X303950000Y-146675000I250000J0D01*
G01*
X304675000Y-146675000D01*
G75*
G02*
X304925000Y-146925000I0J-250000D01*
G01*
X304925000Y-149075000D01*
G75*
G02*
X304675000Y-149325000I-250000J0D01*
G01*
X303950000Y-149325000D01*
G75*
G02*
X303700000Y-149075000I0J250000D01*
G01*
G37*
%TD*%
%TO.C,R134*%
G36*
G01*
X300300000Y-152925000D02*
X300300000Y-155075000D01*
G75*
G02*
X300050000Y-155325000I-250000J0D01*
G01*
X299325000Y-155325000D01*
G75*
G02*
X299075000Y-155075000I0J250000D01*
G01*
X299075000Y-152925000D01*
G75*
G02*
X299325000Y-152675000I250000J0D01*
G01*
X300050000Y-152675000D01*
G75*
G02*
X300300000Y-152925000I0J-250000D01*
G01*
G37*
G36*
G01*
X304925000Y-152925000D02*
X304925000Y-155075000D01*
G75*
G02*
X304675000Y-155325000I-250000J0D01*
G01*
X303950000Y-155325000D01*
G75*
G02*
X303700000Y-155075000I0J250000D01*
G01*
X303700000Y-152925000D01*
G75*
G02*
X303950000Y-152675000I250000J0D01*
G01*
X304675000Y-152675000D01*
G75*
G02*
X304925000Y-152925000I0J-250000D01*
G01*
G37*
%TD*%
%TO.C,R135*%
G36*
G01*
X299075000Y-161075000D02*
X299075000Y-158925000D01*
G75*
G02*
X299325000Y-158675000I250000J0D01*
G01*
X300050000Y-158675000D01*
G75*
G02*
X300300000Y-158925000I0J-250000D01*
G01*
X300300000Y-161075000D01*
G75*
G02*
X300050000Y-161325000I-250000J0D01*
G01*
X299325000Y-161325000D01*
G75*
G02*
X299075000Y-161075000I0J250000D01*
G01*
G37*
G36*
G01*
X303700000Y-161075000D02*
X303700000Y-158925000D01*
G75*
G02*
X303950000Y-158675000I250000J0D01*
G01*
X304675000Y-158675000D01*
G75*
G02*
X304925000Y-158925000I0J-250000D01*
G01*
X304925000Y-161075000D01*
G75*
G02*
X304675000Y-161325000I-250000J0D01*
G01*
X303950000Y-161325000D01*
G75*
G02*
X303700000Y-161075000I0J250000D01*
G01*
G37*
%TD*%
%TO.C,R136*%
G36*
G01*
X318700000Y-113075000D02*
X318700000Y-110925000D01*
G75*
G02*
X318950000Y-110675000I250000J0D01*
G01*
X319675000Y-110675000D01*
G75*
G02*
X319925000Y-110925000I0J-250000D01*
G01*
X319925000Y-113075000D01*
G75*
G02*
X319675000Y-113325000I-250000J0D01*
G01*
X318950000Y-113325000D01*
G75*
G02*
X318700000Y-113075000I0J250000D01*
G01*
G37*
G36*
G01*
X314075000Y-113075000D02*
X314075000Y-110925000D01*
G75*
G02*
X314325000Y-110675000I250000J0D01*
G01*
X315050000Y-110675000D01*
G75*
G02*
X315300000Y-110925000I0J-250000D01*
G01*
X315300000Y-113075000D01*
G75*
G02*
X315050000Y-113325000I-250000J0D01*
G01*
X314325000Y-113325000D01*
G75*
G02*
X314075000Y-113075000I0J250000D01*
G01*
G37*
%TD*%
%TO.C,R138*%
G36*
G01*
X318700000Y-125075000D02*
X318700000Y-122925000D01*
G75*
G02*
X318950000Y-122675000I250000J0D01*
G01*
X319675000Y-122675000D01*
G75*
G02*
X319925000Y-122925000I0J-250000D01*
G01*
X319925000Y-125075000D01*
G75*
G02*
X319675000Y-125325000I-250000J0D01*
G01*
X318950000Y-125325000D01*
G75*
G02*
X318700000Y-125075000I0J250000D01*
G01*
G37*
G36*
G01*
X314075000Y-125075000D02*
X314075000Y-122925000D01*
G75*
G02*
X314325000Y-122675000I250000J0D01*
G01*
X315050000Y-122675000D01*
G75*
G02*
X315300000Y-122925000I0J-250000D01*
G01*
X315300000Y-125075000D01*
G75*
G02*
X315050000Y-125325000I-250000J0D01*
G01*
X314325000Y-125325000D01*
G75*
G02*
X314075000Y-125075000I0J250000D01*
G01*
G37*
%TD*%
%TO.C,R139*%
G36*
G01*
X319925000Y-128925000D02*
X319925000Y-131075000D01*
G75*
G02*
X319675000Y-131325000I-250000J0D01*
G01*
X318950000Y-131325000D01*
G75*
G02*
X318700000Y-131075000I0J250000D01*
G01*
X318700000Y-128925000D01*
G75*
G02*
X318950000Y-128675000I250000J0D01*
G01*
X319675000Y-128675000D01*
G75*
G02*
X319925000Y-128925000I0J-250000D01*
G01*
G37*
G36*
G01*
X315300000Y-128925000D02*
X315300000Y-131075000D01*
G75*
G02*
X315050000Y-131325000I-250000J0D01*
G01*
X314325000Y-131325000D01*
G75*
G02*
X314075000Y-131075000I0J250000D01*
G01*
X314075000Y-128925000D01*
G75*
G02*
X314325000Y-128675000I250000J0D01*
G01*
X315050000Y-128675000D01*
G75*
G02*
X315300000Y-128925000I0J-250000D01*
G01*
G37*
%TD*%
%TO.C,R140*%
G36*
G01*
X318700000Y-137075000D02*
X318700000Y-134925000D01*
G75*
G02*
X318950000Y-134675000I250000J0D01*
G01*
X319675000Y-134675000D01*
G75*
G02*
X319925000Y-134925000I0J-250000D01*
G01*
X319925000Y-137075000D01*
G75*
G02*
X319675000Y-137325000I-250000J0D01*
G01*
X318950000Y-137325000D01*
G75*
G02*
X318700000Y-137075000I0J250000D01*
G01*
G37*
G36*
G01*
X314075000Y-137075000D02*
X314075000Y-134925000D01*
G75*
G02*
X314325000Y-134675000I250000J0D01*
G01*
X315050000Y-134675000D01*
G75*
G02*
X315300000Y-134925000I0J-250000D01*
G01*
X315300000Y-137075000D01*
G75*
G02*
X315050000Y-137325000I-250000J0D01*
G01*
X314325000Y-137325000D01*
G75*
G02*
X314075000Y-137075000I0J250000D01*
G01*
G37*
%TD*%
%TO.C,R141*%
G36*
G01*
X319925000Y-140925000D02*
X319925000Y-143075000D01*
G75*
G02*
X319675000Y-143325000I-250000J0D01*
G01*
X318950000Y-143325000D01*
G75*
G02*
X318700000Y-143075000I0J250000D01*
G01*
X318700000Y-140925000D01*
G75*
G02*
X318950000Y-140675000I250000J0D01*
G01*
X319675000Y-140675000D01*
G75*
G02*
X319925000Y-140925000I0J-250000D01*
G01*
G37*
G36*
G01*
X315300000Y-140925000D02*
X315300000Y-143075000D01*
G75*
G02*
X315050000Y-143325000I-250000J0D01*
G01*
X314325000Y-143325000D01*
G75*
G02*
X314075000Y-143075000I0J250000D01*
G01*
X314075000Y-140925000D01*
G75*
G02*
X314325000Y-140675000I250000J0D01*
G01*
X315050000Y-140675000D01*
G75*
G02*
X315300000Y-140925000I0J-250000D01*
G01*
G37*
%TD*%
%TO.C,R142*%
G36*
G01*
X318700000Y-149075000D02*
X318700000Y-146925000D01*
G75*
G02*
X318950000Y-146675000I250000J0D01*
G01*
X319675000Y-146675000D01*
G75*
G02*
X319925000Y-146925000I0J-250000D01*
G01*
X319925000Y-149075000D01*
G75*
G02*
X319675000Y-149325000I-250000J0D01*
G01*
X318950000Y-149325000D01*
G75*
G02*
X318700000Y-149075000I0J250000D01*
G01*
G37*
G36*
G01*
X314075000Y-149075000D02*
X314075000Y-146925000D01*
G75*
G02*
X314325000Y-146675000I250000J0D01*
G01*
X315050000Y-146675000D01*
G75*
G02*
X315300000Y-146925000I0J-250000D01*
G01*
X315300000Y-149075000D01*
G75*
G02*
X315050000Y-149325000I-250000J0D01*
G01*
X314325000Y-149325000D01*
G75*
G02*
X314075000Y-149075000I0J250000D01*
G01*
G37*
%TD*%
%TO.C,R143*%
G36*
G01*
X319925000Y-152925000D02*
X319925000Y-155075000D01*
G75*
G02*
X319675000Y-155325000I-250000J0D01*
G01*
X318950000Y-155325000D01*
G75*
G02*
X318700000Y-155075000I0J250000D01*
G01*
X318700000Y-152925000D01*
G75*
G02*
X318950000Y-152675000I250000J0D01*
G01*
X319675000Y-152675000D01*
G75*
G02*
X319925000Y-152925000I0J-250000D01*
G01*
G37*
G36*
G01*
X315300000Y-152925000D02*
X315300000Y-155075000D01*
G75*
G02*
X315050000Y-155325000I-250000J0D01*
G01*
X314325000Y-155325000D01*
G75*
G02*
X314075000Y-155075000I0J250000D01*
G01*
X314075000Y-152925000D01*
G75*
G02*
X314325000Y-152675000I250000J0D01*
G01*
X315050000Y-152675000D01*
G75*
G02*
X315300000Y-152925000I0J-250000D01*
G01*
G37*
%TD*%
%TO.C,R144*%
G36*
G01*
X318700000Y-161075000D02*
X318700000Y-158925000D01*
G75*
G02*
X318950000Y-158675000I250000J0D01*
G01*
X319675000Y-158675000D01*
G75*
G02*
X319925000Y-158925000I0J-250000D01*
G01*
X319925000Y-161075000D01*
G75*
G02*
X319675000Y-161325000I-250000J0D01*
G01*
X318950000Y-161325000D01*
G75*
G02*
X318700000Y-161075000I0J250000D01*
G01*
G37*
G36*
G01*
X314075000Y-161075000D02*
X314075000Y-158925000D01*
G75*
G02*
X314325000Y-158675000I250000J0D01*
G01*
X315050000Y-158675000D01*
G75*
G02*
X315300000Y-158925000I0J-250000D01*
G01*
X315300000Y-161075000D01*
G75*
G02*
X315050000Y-161325000I-250000J0D01*
G01*
X314325000Y-161325000D01*
G75*
G02*
X314075000Y-161075000I0J250000D01*
G01*
G37*
%TD*%
%TO.C,R145*%
G36*
G01*
X329075000Y-113075000D02*
X329075000Y-110925000D01*
G75*
G02*
X329325000Y-110675000I250000J0D01*
G01*
X330050000Y-110675000D01*
G75*
G02*
X330300000Y-110925000I0J-250000D01*
G01*
X330300000Y-113075000D01*
G75*
G02*
X330050000Y-113325000I-250000J0D01*
G01*
X329325000Y-113325000D01*
G75*
G02*
X329075000Y-113075000I0J250000D01*
G01*
G37*
G36*
G01*
X333700000Y-113075000D02*
X333700000Y-110925000D01*
G75*
G02*
X333950000Y-110675000I250000J0D01*
G01*
X334675000Y-110675000D01*
G75*
G02*
X334925000Y-110925000I0J-250000D01*
G01*
X334925000Y-113075000D01*
G75*
G02*
X334675000Y-113325000I-250000J0D01*
G01*
X333950000Y-113325000D01*
G75*
G02*
X333700000Y-113075000I0J250000D01*
G01*
G37*
%TD*%
%TO.C,R146*%
G36*
G01*
X330300000Y-116925000D02*
X330300000Y-119075000D01*
G75*
G02*
X330050000Y-119325000I-250000J0D01*
G01*
X329325000Y-119325000D01*
G75*
G02*
X329075000Y-119075000I0J250000D01*
G01*
X329075000Y-116925000D01*
G75*
G02*
X329325000Y-116675000I250000J0D01*
G01*
X330050000Y-116675000D01*
G75*
G02*
X330300000Y-116925000I0J-250000D01*
G01*
G37*
G36*
G01*
X334925000Y-116925000D02*
X334925000Y-119075000D01*
G75*
G02*
X334675000Y-119325000I-250000J0D01*
G01*
X333950000Y-119325000D01*
G75*
G02*
X333700000Y-119075000I0J250000D01*
G01*
X333700000Y-116925000D01*
G75*
G02*
X333950000Y-116675000I250000J0D01*
G01*
X334675000Y-116675000D01*
G75*
G02*
X334925000Y-116925000I0J-250000D01*
G01*
G37*
%TD*%
%TO.C,R147*%
G36*
G01*
X329075000Y-125075000D02*
X329075000Y-122925000D01*
G75*
G02*
X329325000Y-122675000I250000J0D01*
G01*
X330050000Y-122675000D01*
G75*
G02*
X330300000Y-122925000I0J-250000D01*
G01*
X330300000Y-125075000D01*
G75*
G02*
X330050000Y-125325000I-250000J0D01*
G01*
X329325000Y-125325000D01*
G75*
G02*
X329075000Y-125075000I0J250000D01*
G01*
G37*
G36*
G01*
X333700000Y-125075000D02*
X333700000Y-122925000D01*
G75*
G02*
X333950000Y-122675000I250000J0D01*
G01*
X334675000Y-122675000D01*
G75*
G02*
X334925000Y-122925000I0J-250000D01*
G01*
X334925000Y-125075000D01*
G75*
G02*
X334675000Y-125325000I-250000J0D01*
G01*
X333950000Y-125325000D01*
G75*
G02*
X333700000Y-125075000I0J250000D01*
G01*
G37*
%TD*%
%TO.C,R148*%
G36*
G01*
X330300000Y-128925000D02*
X330300000Y-131075000D01*
G75*
G02*
X330050000Y-131325000I-250000J0D01*
G01*
X329325000Y-131325000D01*
G75*
G02*
X329075000Y-131075000I0J250000D01*
G01*
X329075000Y-128925000D01*
G75*
G02*
X329325000Y-128675000I250000J0D01*
G01*
X330050000Y-128675000D01*
G75*
G02*
X330300000Y-128925000I0J-250000D01*
G01*
G37*
G36*
G01*
X334925000Y-128925000D02*
X334925000Y-131075000D01*
G75*
G02*
X334675000Y-131325000I-250000J0D01*
G01*
X333950000Y-131325000D01*
G75*
G02*
X333700000Y-131075000I0J250000D01*
G01*
X333700000Y-128925000D01*
G75*
G02*
X333950000Y-128675000I250000J0D01*
G01*
X334675000Y-128675000D01*
G75*
G02*
X334925000Y-128925000I0J-250000D01*
G01*
G37*
%TD*%
%TO.C,R149*%
G36*
G01*
X329075000Y-137075000D02*
X329075000Y-134925000D01*
G75*
G02*
X329325000Y-134675000I250000J0D01*
G01*
X330050000Y-134675000D01*
G75*
G02*
X330300000Y-134925000I0J-250000D01*
G01*
X330300000Y-137075000D01*
G75*
G02*
X330050000Y-137325000I-250000J0D01*
G01*
X329325000Y-137325000D01*
G75*
G02*
X329075000Y-137075000I0J250000D01*
G01*
G37*
G36*
G01*
X333700000Y-137075000D02*
X333700000Y-134925000D01*
G75*
G02*
X333950000Y-134675000I250000J0D01*
G01*
X334675000Y-134675000D01*
G75*
G02*
X334925000Y-134925000I0J-250000D01*
G01*
X334925000Y-137075000D01*
G75*
G02*
X334675000Y-137325000I-250000J0D01*
G01*
X333950000Y-137325000D01*
G75*
G02*
X333700000Y-137075000I0J250000D01*
G01*
G37*
%TD*%
%TO.C,R151*%
G36*
G01*
X329075000Y-149075000D02*
X329075000Y-146925000D01*
G75*
G02*
X329325000Y-146675000I250000J0D01*
G01*
X330050000Y-146675000D01*
G75*
G02*
X330300000Y-146925000I0J-250000D01*
G01*
X330300000Y-149075000D01*
G75*
G02*
X330050000Y-149325000I-250000J0D01*
G01*
X329325000Y-149325000D01*
G75*
G02*
X329075000Y-149075000I0J250000D01*
G01*
G37*
G36*
G01*
X333700000Y-149075000D02*
X333700000Y-146925000D01*
G75*
G02*
X333950000Y-146675000I250000J0D01*
G01*
X334675000Y-146675000D01*
G75*
G02*
X334925000Y-146925000I0J-250000D01*
G01*
X334925000Y-149075000D01*
G75*
G02*
X334675000Y-149325000I-250000J0D01*
G01*
X333950000Y-149325000D01*
G75*
G02*
X333700000Y-149075000I0J250000D01*
G01*
G37*
%TD*%
%TO.C,R152*%
G36*
G01*
X330300000Y-152925000D02*
X330300000Y-155075000D01*
G75*
G02*
X330050000Y-155325000I-250000J0D01*
G01*
X329325000Y-155325000D01*
G75*
G02*
X329075000Y-155075000I0J250000D01*
G01*
X329075000Y-152925000D01*
G75*
G02*
X329325000Y-152675000I250000J0D01*
G01*
X330050000Y-152675000D01*
G75*
G02*
X330300000Y-152925000I0J-250000D01*
G01*
G37*
G36*
G01*
X334925000Y-152925000D02*
X334925000Y-155075000D01*
G75*
G02*
X334675000Y-155325000I-250000J0D01*
G01*
X333950000Y-155325000D01*
G75*
G02*
X333700000Y-155075000I0J250000D01*
G01*
X333700000Y-152925000D01*
G75*
G02*
X333950000Y-152675000I250000J0D01*
G01*
X334675000Y-152675000D01*
G75*
G02*
X334925000Y-152925000I0J-250000D01*
G01*
G37*
%TD*%
%TO.C,R153*%
G36*
G01*
X329075000Y-161075000D02*
X329075000Y-158925000D01*
G75*
G02*
X329325000Y-158675000I250000J0D01*
G01*
X330050000Y-158675000D01*
G75*
G02*
X330300000Y-158925000I0J-250000D01*
G01*
X330300000Y-161075000D01*
G75*
G02*
X330050000Y-161325000I-250000J0D01*
G01*
X329325000Y-161325000D01*
G75*
G02*
X329075000Y-161075000I0J250000D01*
G01*
G37*
G36*
G01*
X333700000Y-161075000D02*
X333700000Y-158925000D01*
G75*
G02*
X333950000Y-158675000I250000J0D01*
G01*
X334675000Y-158675000D01*
G75*
G02*
X334925000Y-158925000I0J-250000D01*
G01*
X334925000Y-161075000D01*
G75*
G02*
X334675000Y-161325000I-250000J0D01*
G01*
X333950000Y-161325000D01*
G75*
G02*
X333700000Y-161075000I0J250000D01*
G01*
G37*
%TD*%
%TO.C,R154*%
G36*
G01*
X348700000Y-113075000D02*
X348700000Y-110925000D01*
G75*
G02*
X348950000Y-110675000I250000J0D01*
G01*
X349675000Y-110675000D01*
G75*
G02*
X349925000Y-110925000I0J-250000D01*
G01*
X349925000Y-113075000D01*
G75*
G02*
X349675000Y-113325000I-250000J0D01*
G01*
X348950000Y-113325000D01*
G75*
G02*
X348700000Y-113075000I0J250000D01*
G01*
G37*
G36*
G01*
X344075000Y-113075000D02*
X344075000Y-110925000D01*
G75*
G02*
X344325000Y-110675000I250000J0D01*
G01*
X345050000Y-110675000D01*
G75*
G02*
X345300000Y-110925000I0J-250000D01*
G01*
X345300000Y-113075000D01*
G75*
G02*
X345050000Y-113325000I-250000J0D01*
G01*
X344325000Y-113325000D01*
G75*
G02*
X344075000Y-113075000I0J250000D01*
G01*
G37*
%TD*%
%TO.C,R155*%
G36*
G01*
X349925000Y-116925000D02*
X349925000Y-119075000D01*
G75*
G02*
X349675000Y-119325000I-250000J0D01*
G01*
X348950000Y-119325000D01*
G75*
G02*
X348700000Y-119075000I0J250000D01*
G01*
X348700000Y-116925000D01*
G75*
G02*
X348950000Y-116675000I250000J0D01*
G01*
X349675000Y-116675000D01*
G75*
G02*
X349925000Y-116925000I0J-250000D01*
G01*
G37*
G36*
G01*
X345300000Y-116925000D02*
X345300000Y-119075000D01*
G75*
G02*
X345050000Y-119325000I-250000J0D01*
G01*
X344325000Y-119325000D01*
G75*
G02*
X344075000Y-119075000I0J250000D01*
G01*
X344075000Y-116925000D01*
G75*
G02*
X344325000Y-116675000I250000J0D01*
G01*
X345050000Y-116675000D01*
G75*
G02*
X345300000Y-116925000I0J-250000D01*
G01*
G37*
%TD*%
%TO.C,R156*%
G36*
G01*
X348700000Y-125075000D02*
X348700000Y-122925000D01*
G75*
G02*
X348950000Y-122675000I250000J0D01*
G01*
X349675000Y-122675000D01*
G75*
G02*
X349925000Y-122925000I0J-250000D01*
G01*
X349925000Y-125075000D01*
G75*
G02*
X349675000Y-125325000I-250000J0D01*
G01*
X348950000Y-125325000D01*
G75*
G02*
X348700000Y-125075000I0J250000D01*
G01*
G37*
G36*
G01*
X344075000Y-125075000D02*
X344075000Y-122925000D01*
G75*
G02*
X344325000Y-122675000I250000J0D01*
G01*
X345050000Y-122675000D01*
G75*
G02*
X345300000Y-122925000I0J-250000D01*
G01*
X345300000Y-125075000D01*
G75*
G02*
X345050000Y-125325000I-250000J0D01*
G01*
X344325000Y-125325000D01*
G75*
G02*
X344075000Y-125075000I0J250000D01*
G01*
G37*
%TD*%
%TO.C,R157*%
G36*
G01*
X349925000Y-128925000D02*
X349925000Y-131075000D01*
G75*
G02*
X349675000Y-131325000I-250000J0D01*
G01*
X348950000Y-131325000D01*
G75*
G02*
X348700000Y-131075000I0J250000D01*
G01*
X348700000Y-128925000D01*
G75*
G02*
X348950000Y-128675000I250000J0D01*
G01*
X349675000Y-128675000D01*
G75*
G02*
X349925000Y-128925000I0J-250000D01*
G01*
G37*
G36*
G01*
X345300000Y-128925000D02*
X345300000Y-131075000D01*
G75*
G02*
X345050000Y-131325000I-250000J0D01*
G01*
X344325000Y-131325000D01*
G75*
G02*
X344075000Y-131075000I0J250000D01*
G01*
X344075000Y-128925000D01*
G75*
G02*
X344325000Y-128675000I250000J0D01*
G01*
X345050000Y-128675000D01*
G75*
G02*
X345300000Y-128925000I0J-250000D01*
G01*
G37*
%TD*%
%TO.C,R158*%
G36*
G01*
X348700000Y-137075000D02*
X348700000Y-134925000D01*
G75*
G02*
X348950000Y-134675000I250000J0D01*
G01*
X349675000Y-134675000D01*
G75*
G02*
X349925000Y-134925000I0J-250000D01*
G01*
X349925000Y-137075000D01*
G75*
G02*
X349675000Y-137325000I-250000J0D01*
G01*
X348950000Y-137325000D01*
G75*
G02*
X348700000Y-137075000I0J250000D01*
G01*
G37*
G36*
G01*
X344075000Y-137075000D02*
X344075000Y-134925000D01*
G75*
G02*
X344325000Y-134675000I250000J0D01*
G01*
X345050000Y-134675000D01*
G75*
G02*
X345300000Y-134925000I0J-250000D01*
G01*
X345300000Y-137075000D01*
G75*
G02*
X345050000Y-137325000I-250000J0D01*
G01*
X344325000Y-137325000D01*
G75*
G02*
X344075000Y-137075000I0J250000D01*
G01*
G37*
%TD*%
%TO.C,R159*%
G36*
G01*
X349925000Y-140925000D02*
X349925000Y-143075000D01*
G75*
G02*
X349675000Y-143325000I-250000J0D01*
G01*
X348950000Y-143325000D01*
G75*
G02*
X348700000Y-143075000I0J250000D01*
G01*
X348700000Y-140925000D01*
G75*
G02*
X348950000Y-140675000I250000J0D01*
G01*
X349675000Y-140675000D01*
G75*
G02*
X349925000Y-140925000I0J-250000D01*
G01*
G37*
G36*
G01*
X345300000Y-140925000D02*
X345300000Y-143075000D01*
G75*
G02*
X345050000Y-143325000I-250000J0D01*
G01*
X344325000Y-143325000D01*
G75*
G02*
X344075000Y-143075000I0J250000D01*
G01*
X344075000Y-140925000D01*
G75*
G02*
X344325000Y-140675000I250000J0D01*
G01*
X345050000Y-140675000D01*
G75*
G02*
X345300000Y-140925000I0J-250000D01*
G01*
G37*
%TD*%
%TO.C,R160*%
G36*
G01*
X348700000Y-149075000D02*
X348700000Y-146925000D01*
G75*
G02*
X348950000Y-146675000I250000J0D01*
G01*
X349675000Y-146675000D01*
G75*
G02*
X349925000Y-146925000I0J-250000D01*
G01*
X349925000Y-149075000D01*
G75*
G02*
X349675000Y-149325000I-250000J0D01*
G01*
X348950000Y-149325000D01*
G75*
G02*
X348700000Y-149075000I0J250000D01*
G01*
G37*
G36*
G01*
X344075000Y-149075000D02*
X344075000Y-146925000D01*
G75*
G02*
X344325000Y-146675000I250000J0D01*
G01*
X345050000Y-146675000D01*
G75*
G02*
X345300000Y-146925000I0J-250000D01*
G01*
X345300000Y-149075000D01*
G75*
G02*
X345050000Y-149325000I-250000J0D01*
G01*
X344325000Y-149325000D01*
G75*
G02*
X344075000Y-149075000I0J250000D01*
G01*
G37*
%TD*%
%TO.C,R161*%
G36*
G01*
X349925000Y-152925000D02*
X349925000Y-155075000D01*
G75*
G02*
X349675000Y-155325000I-250000J0D01*
G01*
X348950000Y-155325000D01*
G75*
G02*
X348700000Y-155075000I0J250000D01*
G01*
X348700000Y-152925000D01*
G75*
G02*
X348950000Y-152675000I250000J0D01*
G01*
X349675000Y-152675000D01*
G75*
G02*
X349925000Y-152925000I0J-250000D01*
G01*
G37*
G36*
G01*
X345300000Y-152925000D02*
X345300000Y-155075000D01*
G75*
G02*
X345050000Y-155325000I-250000J0D01*
G01*
X344325000Y-155325000D01*
G75*
G02*
X344075000Y-155075000I0J250000D01*
G01*
X344075000Y-152925000D01*
G75*
G02*
X344325000Y-152675000I250000J0D01*
G01*
X345050000Y-152675000D01*
G75*
G02*
X345300000Y-152925000I0J-250000D01*
G01*
G37*
%TD*%
%TO.C,H1*%
G36*
G01*
X359125000Y-118125002D02*
X359125000Y-115874998D01*
G75*
G02*
X359374998Y-115625000I249998J0D01*
G01*
X361625002Y-115625000D01*
G75*
G02*
X361875000Y-115874998I0J-249998D01*
G01*
X361875000Y-118125002D01*
G75*
G02*
X361625002Y-118375000I-249998J0D01*
G01*
X359374998Y-118375000D01*
G75*
G02*
X359125000Y-118125002I0J249998D01*
G01*
G37*
%TD*%
%TO.C,H2*%
G36*
G01*
X359125000Y-156125002D02*
X359125000Y-153874998D01*
G75*
G02*
X359374998Y-153625000I249998J0D01*
G01*
X361625002Y-153625000D01*
G75*
G02*
X361875000Y-153874998I0J-249998D01*
G01*
X361875000Y-156125002D01*
G75*
G02*
X361625002Y-156375000I-249998J0D01*
G01*
X359374998Y-156375000D01*
G75*
G02*
X359125000Y-156125002I0J249998D01*
G01*
G37*
%TD*%
%TO.C,H3*%
G36*
G01*
X82625000Y-118125002D02*
X82625000Y-115874998D01*
G75*
G02*
X82874998Y-115625000I249998J0D01*
G01*
X85125002Y-115625000D01*
G75*
G02*
X85375000Y-115874998I0J-249998D01*
G01*
X85375000Y-118125002D01*
G75*
G02*
X85125002Y-118375000I-249998J0D01*
G01*
X82874998Y-118375000D01*
G75*
G02*
X82625000Y-118125002I0J249998D01*
G01*
G37*
%TD*%
%TO.C,H4*%
G36*
G01*
X82625000Y-156125002D02*
X82625000Y-153874998D01*
G75*
G02*
X82874998Y-153625000I249998J0D01*
G01*
X85125002Y-153625000D01*
G75*
G02*
X85375000Y-153874998I0J-249998D01*
G01*
X85375000Y-156125002D01*
G75*
G02*
X85125002Y-156375000I-249998J0D01*
G01*
X82874998Y-156375000D01*
G75*
G02*
X82625000Y-156125002I0J249998D01*
G01*
G37*
%TD*%
M02*
