%TF.GenerationSoftware,KiCad,Pcbnew,(5.1.9-0-10_14)*%
%TF.CreationDate,2022-12-08T20:25:56-05:00*%
%TF.ProjectId,5AhG3-12S,35416847-332d-4313-9253-2e6b69636164,rev?*%
%TF.SameCoordinates,Original*%
%TF.FileFunction,Paste,Bot*%
%TF.FilePolarity,Positive*%
%FSLAX46Y46*%
G04 Gerber Fmt 4.6, Leading zero omitted, Abs format (unit mm)*
G04 Created by KiCad (PCBNEW (5.1.9-0-10_14)) date 2022-12-08 20:25:56*
%MOMM*%
%LPD*%
G01*
G04 APERTURE LIST*
%ADD10R,2.200000X1.200000*%
%ADD11R,3.050000X2.750000*%
G04 APERTURE END LIST*
%TO.C,R2*%
G36*
G01*
X90800000Y-115924999D02*
X90800000Y-118075001D01*
G75*
G02*
X90550001Y-118325000I-249999J0D01*
G01*
X89824999Y-118325000D01*
G75*
G02*
X89575000Y-118075001I0J249999D01*
G01*
X89575000Y-115924999D01*
G75*
G02*
X89824999Y-115675000I249999J0D01*
G01*
X90550001Y-115675000D01*
G75*
G02*
X90800000Y-115924999I0J-249999D01*
G01*
G37*
G36*
G01*
X95425000Y-115924999D02*
X95425000Y-118075001D01*
G75*
G02*
X95175001Y-118325000I-249999J0D01*
G01*
X94449999Y-118325000D01*
G75*
G02*
X94200000Y-118075001I0J249999D01*
G01*
X94200000Y-115924999D01*
G75*
G02*
X94449999Y-115675000I249999J0D01*
G01*
X95175001Y-115675000D01*
G75*
G02*
X95425000Y-115924999I0J-249999D01*
G01*
G37*
%TD*%
%TO.C,R6*%
G36*
G01*
X93424999Y-145700000D02*
X95575001Y-145700000D01*
G75*
G02*
X95825000Y-145949999I0J-249999D01*
G01*
X95825000Y-146675001D01*
G75*
G02*
X95575001Y-146925000I-249999J0D01*
G01*
X93424999Y-146925000D01*
G75*
G02*
X93175000Y-146675001I0J249999D01*
G01*
X93175000Y-145949999D01*
G75*
G02*
X93424999Y-145700000I249999J0D01*
G01*
G37*
G36*
G01*
X93424999Y-141075000D02*
X95575001Y-141075000D01*
G75*
G02*
X95825000Y-141324999I0J-249999D01*
G01*
X95825000Y-142050001D01*
G75*
G02*
X95575001Y-142300000I-249999J0D01*
G01*
X93424999Y-142300000D01*
G75*
G02*
X93175000Y-142050001I0J249999D01*
G01*
X93175000Y-141324999D01*
G75*
G02*
X93424999Y-141075000I249999J0D01*
G01*
G37*
%TD*%
%TO.C,R12*%
G36*
G01*
X108700000Y-125075001D02*
X108700000Y-122924999D01*
G75*
G02*
X108949999Y-122675000I249999J0D01*
G01*
X109675001Y-122675000D01*
G75*
G02*
X109925000Y-122924999I0J-249999D01*
G01*
X109925000Y-125075001D01*
G75*
G02*
X109675001Y-125325000I-249999J0D01*
G01*
X108949999Y-125325000D01*
G75*
G02*
X108700000Y-125075001I0J249999D01*
G01*
G37*
G36*
G01*
X104075000Y-125075001D02*
X104075000Y-122924999D01*
G75*
G02*
X104324999Y-122675000I249999J0D01*
G01*
X105050001Y-122675000D01*
G75*
G02*
X105300000Y-122924999I0J-249999D01*
G01*
X105300000Y-125075001D01*
G75*
G02*
X105050001Y-125325000I-249999J0D01*
G01*
X104324999Y-125325000D01*
G75*
G02*
X104075000Y-125075001I0J249999D01*
G01*
G37*
%TD*%
%TO.C,R20*%
G36*
G01*
X120300000Y-116924999D02*
X120300000Y-119075001D01*
G75*
G02*
X120050001Y-119325000I-249999J0D01*
G01*
X119324999Y-119325000D01*
G75*
G02*
X119075000Y-119075001I0J249999D01*
G01*
X119075000Y-116924999D01*
G75*
G02*
X119324999Y-116675000I249999J0D01*
G01*
X120050001Y-116675000D01*
G75*
G02*
X120300000Y-116924999I0J-249999D01*
G01*
G37*
G36*
G01*
X124925000Y-116924999D02*
X124925000Y-119075001D01*
G75*
G02*
X124675001Y-119325000I-249999J0D01*
G01*
X123949999Y-119325000D01*
G75*
G02*
X123700000Y-119075001I0J249999D01*
G01*
X123700000Y-116924999D01*
G75*
G02*
X123949999Y-116675000I249999J0D01*
G01*
X124675001Y-116675000D01*
G75*
G02*
X124925000Y-116924999I0J-249999D01*
G01*
G37*
%TD*%
%TO.C,R29*%
G36*
G01*
X139925000Y-116924999D02*
X139925000Y-119075001D01*
G75*
G02*
X139675001Y-119325000I-249999J0D01*
G01*
X138949999Y-119325000D01*
G75*
G02*
X138700000Y-119075001I0J249999D01*
G01*
X138700000Y-116924999D01*
G75*
G02*
X138949999Y-116675000I249999J0D01*
G01*
X139675001Y-116675000D01*
G75*
G02*
X139925000Y-116924999I0J-249999D01*
G01*
G37*
G36*
G01*
X135300000Y-116924999D02*
X135300000Y-119075001D01*
G75*
G02*
X135050001Y-119325000I-249999J0D01*
G01*
X134324999Y-119325000D01*
G75*
G02*
X134075000Y-119075001I0J249999D01*
G01*
X134075000Y-116924999D01*
G75*
G02*
X134324999Y-116675000I249999J0D01*
G01*
X135050001Y-116675000D01*
G75*
G02*
X135300000Y-116924999I0J-249999D01*
G01*
G37*
%TD*%
%TO.C,R40*%
G36*
G01*
X150300000Y-128924999D02*
X150300000Y-131075001D01*
G75*
G02*
X150050001Y-131325000I-249999J0D01*
G01*
X149324999Y-131325000D01*
G75*
G02*
X149075000Y-131075001I0J249999D01*
G01*
X149075000Y-128924999D01*
G75*
G02*
X149324999Y-128675000I249999J0D01*
G01*
X150050001Y-128675000D01*
G75*
G02*
X150300000Y-128924999I0J-249999D01*
G01*
G37*
G36*
G01*
X154925000Y-128924999D02*
X154925000Y-131075001D01*
G75*
G02*
X154675001Y-131325000I-249999J0D01*
G01*
X153949999Y-131325000D01*
G75*
G02*
X153700000Y-131075001I0J249999D01*
G01*
X153700000Y-128924999D01*
G75*
G02*
X153949999Y-128675000I249999J0D01*
G01*
X154675001Y-128675000D01*
G75*
G02*
X154925000Y-128924999I0J-249999D01*
G01*
G37*
%TD*%
%TO.C,R53*%
G36*
G01*
X169925000Y-152924999D02*
X169925000Y-155075001D01*
G75*
G02*
X169675001Y-155325000I-249999J0D01*
G01*
X168949999Y-155325000D01*
G75*
G02*
X168700000Y-155075001I0J249999D01*
G01*
X168700000Y-152924999D01*
G75*
G02*
X168949999Y-152675000I249999J0D01*
G01*
X169675001Y-152675000D01*
G75*
G02*
X169925000Y-152924999I0J-249999D01*
G01*
G37*
G36*
G01*
X165300000Y-152924999D02*
X165300000Y-155075001D01*
G75*
G02*
X165050001Y-155325000I-249999J0D01*
G01*
X164324999Y-155325000D01*
G75*
G02*
X164075000Y-155075001I0J249999D01*
G01*
X164075000Y-152924999D01*
G75*
G02*
X164324999Y-152675000I249999J0D01*
G01*
X165050001Y-152675000D01*
G75*
G02*
X165300000Y-152924999I0J-249999D01*
G01*
G37*
%TD*%
%TO.C,R67*%
G36*
G01*
X199925000Y-128924999D02*
X199925000Y-131075001D01*
G75*
G02*
X199675001Y-131325000I-249999J0D01*
G01*
X198949999Y-131325000D01*
G75*
G02*
X198700000Y-131075001I0J249999D01*
G01*
X198700000Y-128924999D01*
G75*
G02*
X198949999Y-128675000I249999J0D01*
G01*
X199675001Y-128675000D01*
G75*
G02*
X199925000Y-128924999I0J-249999D01*
G01*
G37*
G36*
G01*
X195300000Y-128924999D02*
X195300000Y-131075001D01*
G75*
G02*
X195050001Y-131325000I-249999J0D01*
G01*
X194324999Y-131325000D01*
G75*
G02*
X194075000Y-131075001I0J249999D01*
G01*
X194075000Y-128924999D01*
G75*
G02*
X194324999Y-128675000I249999J0D01*
G01*
X195050001Y-128675000D01*
G75*
G02*
X195300000Y-128924999I0J-249999D01*
G01*
G37*
%TD*%
%TO.C,R95*%
G36*
G01*
X239075000Y-137075001D02*
X239075000Y-134924999D01*
G75*
G02*
X239324999Y-134675000I249999J0D01*
G01*
X240050001Y-134675000D01*
G75*
G02*
X240300000Y-134924999I0J-249999D01*
G01*
X240300000Y-137075001D01*
G75*
G02*
X240050001Y-137325000I-249999J0D01*
G01*
X239324999Y-137325000D01*
G75*
G02*
X239075000Y-137075001I0J249999D01*
G01*
G37*
G36*
G01*
X243700000Y-137075001D02*
X243700000Y-134924999D01*
G75*
G02*
X243949999Y-134675000I249999J0D01*
G01*
X244675001Y-134675000D01*
G75*
G02*
X244925000Y-134924999I0J-249999D01*
G01*
X244925000Y-137075001D01*
G75*
G02*
X244675001Y-137325000I-249999J0D01*
G01*
X243949999Y-137325000D01*
G75*
G02*
X243700000Y-137075001I0J249999D01*
G01*
G37*
%TD*%
%TO.C,R1*%
G36*
G01*
X89575000Y-113075001D02*
X89575000Y-110924999D01*
G75*
G02*
X89824999Y-110675000I249999J0D01*
G01*
X90550001Y-110675000D01*
G75*
G02*
X90800000Y-110924999I0J-249999D01*
G01*
X90800000Y-113075001D01*
G75*
G02*
X90550001Y-113325000I-249999J0D01*
G01*
X89824999Y-113325000D01*
G75*
G02*
X89575000Y-113075001I0J249999D01*
G01*
G37*
G36*
G01*
X94200000Y-113075001D02*
X94200000Y-110924999D01*
G75*
G02*
X94449999Y-110675000I249999J0D01*
G01*
X95175001Y-110675000D01*
G75*
G02*
X95425000Y-110924999I0J-249999D01*
G01*
X95425000Y-113075001D01*
G75*
G02*
X95175001Y-113325000I-249999J0D01*
G01*
X94449999Y-113325000D01*
G75*
G02*
X94200000Y-113075001I0J249999D01*
G01*
G37*
%TD*%
%TO.C,R3*%
G36*
G01*
X89575000Y-123075001D02*
X89575000Y-120924999D01*
G75*
G02*
X89824999Y-120675000I249999J0D01*
G01*
X90550001Y-120675000D01*
G75*
G02*
X90800000Y-120924999I0J-249999D01*
G01*
X90800000Y-123075001D01*
G75*
G02*
X90550001Y-123325000I-249999J0D01*
G01*
X89824999Y-123325000D01*
G75*
G02*
X89575000Y-123075001I0J249999D01*
G01*
G37*
G36*
G01*
X94200000Y-123075001D02*
X94200000Y-120924999D01*
G75*
G02*
X94449999Y-120675000I249999J0D01*
G01*
X95175001Y-120675000D01*
G75*
G02*
X95425000Y-120924999I0J-249999D01*
G01*
X95425000Y-123075001D01*
G75*
G02*
X95175001Y-123325000I-249999J0D01*
G01*
X94449999Y-123325000D01*
G75*
G02*
X94200000Y-123075001I0J249999D01*
G01*
G37*
%TD*%
%TO.C,R4*%
G36*
G01*
X93424999Y-129700000D02*
X95575001Y-129700000D01*
G75*
G02*
X95825000Y-129949999I0J-249999D01*
G01*
X95825000Y-130675001D01*
G75*
G02*
X95575001Y-130925000I-249999J0D01*
G01*
X93424999Y-130925000D01*
G75*
G02*
X93175000Y-130675001I0J249999D01*
G01*
X93175000Y-129949999D01*
G75*
G02*
X93424999Y-129700000I249999J0D01*
G01*
G37*
G36*
G01*
X93424999Y-125075000D02*
X95575001Y-125075000D01*
G75*
G02*
X95825000Y-125324999I0J-249999D01*
G01*
X95825000Y-126050001D01*
G75*
G02*
X95575001Y-126300000I-249999J0D01*
G01*
X93424999Y-126300000D01*
G75*
G02*
X93175000Y-126050001I0J249999D01*
G01*
X93175000Y-125324999D01*
G75*
G02*
X93424999Y-125075000I249999J0D01*
G01*
G37*
%TD*%
%TO.C,R7*%
G36*
G01*
X95425000Y-148924999D02*
X95425000Y-151075001D01*
G75*
G02*
X95175001Y-151325000I-249999J0D01*
G01*
X94449999Y-151325000D01*
G75*
G02*
X94200000Y-151075001I0J249999D01*
G01*
X94200000Y-148924999D01*
G75*
G02*
X94449999Y-148675000I249999J0D01*
G01*
X95175001Y-148675000D01*
G75*
G02*
X95425000Y-148924999I0J-249999D01*
G01*
G37*
G36*
G01*
X90800000Y-148924999D02*
X90800000Y-151075001D01*
G75*
G02*
X90550001Y-151325000I-249999J0D01*
G01*
X89824999Y-151325000D01*
G75*
G02*
X89575000Y-151075001I0J249999D01*
G01*
X89575000Y-148924999D01*
G75*
G02*
X89824999Y-148675000I249999J0D01*
G01*
X90550001Y-148675000D01*
G75*
G02*
X90800000Y-148924999I0J-249999D01*
G01*
G37*
%TD*%
%TO.C,R8*%
G36*
G01*
X94200000Y-156075001D02*
X94200000Y-153924999D01*
G75*
G02*
X94449999Y-153675000I249999J0D01*
G01*
X95175001Y-153675000D01*
G75*
G02*
X95425000Y-153924999I0J-249999D01*
G01*
X95425000Y-156075001D01*
G75*
G02*
X95175001Y-156325000I-249999J0D01*
G01*
X94449999Y-156325000D01*
G75*
G02*
X94200000Y-156075001I0J249999D01*
G01*
G37*
G36*
G01*
X89575000Y-156075001D02*
X89575000Y-153924999D01*
G75*
G02*
X89824999Y-153675000I249999J0D01*
G01*
X90550001Y-153675000D01*
G75*
G02*
X90800000Y-153924999I0J-249999D01*
G01*
X90800000Y-156075001D01*
G75*
G02*
X90550001Y-156325000I-249999J0D01*
G01*
X89824999Y-156325000D01*
G75*
G02*
X89575000Y-156075001I0J249999D01*
G01*
G37*
%TD*%
%TO.C,R9*%
G36*
G01*
X95425000Y-158924999D02*
X95425000Y-161075001D01*
G75*
G02*
X95175001Y-161325000I-249999J0D01*
G01*
X94449999Y-161325000D01*
G75*
G02*
X94200000Y-161075001I0J249999D01*
G01*
X94200000Y-158924999D01*
G75*
G02*
X94449999Y-158675000I249999J0D01*
G01*
X95175001Y-158675000D01*
G75*
G02*
X95425000Y-158924999I0J-249999D01*
G01*
G37*
G36*
G01*
X90800000Y-158924999D02*
X90800000Y-161075001D01*
G75*
G02*
X90550001Y-161325000I-249999J0D01*
G01*
X89824999Y-161325000D01*
G75*
G02*
X89575000Y-161075001I0J249999D01*
G01*
X89575000Y-158924999D01*
G75*
G02*
X89824999Y-158675000I249999J0D01*
G01*
X90550001Y-158675000D01*
G75*
G02*
X90800000Y-158924999I0J-249999D01*
G01*
G37*
%TD*%
%TO.C,R10*%
G36*
G01*
X108700000Y-113075001D02*
X108700000Y-110924999D01*
G75*
G02*
X108949999Y-110675000I249999J0D01*
G01*
X109675001Y-110675000D01*
G75*
G02*
X109925000Y-110924999I0J-249999D01*
G01*
X109925000Y-113075001D01*
G75*
G02*
X109675001Y-113325000I-249999J0D01*
G01*
X108949999Y-113325000D01*
G75*
G02*
X108700000Y-113075001I0J249999D01*
G01*
G37*
G36*
G01*
X104075000Y-113075001D02*
X104075000Y-110924999D01*
G75*
G02*
X104324999Y-110675000I249999J0D01*
G01*
X105050001Y-110675000D01*
G75*
G02*
X105300000Y-110924999I0J-249999D01*
G01*
X105300000Y-113075001D01*
G75*
G02*
X105050001Y-113325000I-249999J0D01*
G01*
X104324999Y-113325000D01*
G75*
G02*
X104075000Y-113075001I0J249999D01*
G01*
G37*
%TD*%
%TO.C,R11*%
G36*
G01*
X109925000Y-116924999D02*
X109925000Y-119075001D01*
G75*
G02*
X109675001Y-119325000I-249999J0D01*
G01*
X108949999Y-119325000D01*
G75*
G02*
X108700000Y-119075001I0J249999D01*
G01*
X108700000Y-116924999D01*
G75*
G02*
X108949999Y-116675000I249999J0D01*
G01*
X109675001Y-116675000D01*
G75*
G02*
X109925000Y-116924999I0J-249999D01*
G01*
G37*
G36*
G01*
X105300000Y-116924999D02*
X105300000Y-119075001D01*
G75*
G02*
X105050001Y-119325000I-249999J0D01*
G01*
X104324999Y-119325000D01*
G75*
G02*
X104075000Y-119075001I0J249999D01*
G01*
X104075000Y-116924999D01*
G75*
G02*
X104324999Y-116675000I249999J0D01*
G01*
X105050001Y-116675000D01*
G75*
G02*
X105300000Y-116924999I0J-249999D01*
G01*
G37*
%TD*%
%TO.C,R13*%
G36*
G01*
X109925000Y-128924999D02*
X109925000Y-131075001D01*
G75*
G02*
X109675001Y-131325000I-249999J0D01*
G01*
X108949999Y-131325000D01*
G75*
G02*
X108700000Y-131075001I0J249999D01*
G01*
X108700000Y-128924999D01*
G75*
G02*
X108949999Y-128675000I249999J0D01*
G01*
X109675001Y-128675000D01*
G75*
G02*
X109925000Y-128924999I0J-249999D01*
G01*
G37*
G36*
G01*
X105300000Y-128924999D02*
X105300000Y-131075001D01*
G75*
G02*
X105050001Y-131325000I-249999J0D01*
G01*
X104324999Y-131325000D01*
G75*
G02*
X104075000Y-131075001I0J249999D01*
G01*
X104075000Y-128924999D01*
G75*
G02*
X104324999Y-128675000I249999J0D01*
G01*
X105050001Y-128675000D01*
G75*
G02*
X105300000Y-128924999I0J-249999D01*
G01*
G37*
%TD*%
%TO.C,R14*%
G36*
G01*
X108700000Y-137075001D02*
X108700000Y-134924999D01*
G75*
G02*
X108949999Y-134675000I249999J0D01*
G01*
X109675001Y-134675000D01*
G75*
G02*
X109925000Y-134924999I0J-249999D01*
G01*
X109925000Y-137075001D01*
G75*
G02*
X109675001Y-137325000I-249999J0D01*
G01*
X108949999Y-137325000D01*
G75*
G02*
X108700000Y-137075001I0J249999D01*
G01*
G37*
G36*
G01*
X104075000Y-137075001D02*
X104075000Y-134924999D01*
G75*
G02*
X104324999Y-134675000I249999J0D01*
G01*
X105050001Y-134675000D01*
G75*
G02*
X105300000Y-134924999I0J-249999D01*
G01*
X105300000Y-137075001D01*
G75*
G02*
X105050001Y-137325000I-249999J0D01*
G01*
X104324999Y-137325000D01*
G75*
G02*
X104075000Y-137075001I0J249999D01*
G01*
G37*
%TD*%
%TO.C,R15*%
G36*
G01*
X109925000Y-140924999D02*
X109925000Y-143075001D01*
G75*
G02*
X109675001Y-143325000I-249999J0D01*
G01*
X108949999Y-143325000D01*
G75*
G02*
X108700000Y-143075001I0J249999D01*
G01*
X108700000Y-140924999D01*
G75*
G02*
X108949999Y-140675000I249999J0D01*
G01*
X109675001Y-140675000D01*
G75*
G02*
X109925000Y-140924999I0J-249999D01*
G01*
G37*
G36*
G01*
X105300000Y-140924999D02*
X105300000Y-143075001D01*
G75*
G02*
X105050001Y-143325000I-249999J0D01*
G01*
X104324999Y-143325000D01*
G75*
G02*
X104075000Y-143075001I0J249999D01*
G01*
X104075000Y-140924999D01*
G75*
G02*
X104324999Y-140675000I249999J0D01*
G01*
X105050001Y-140675000D01*
G75*
G02*
X105300000Y-140924999I0J-249999D01*
G01*
G37*
%TD*%
%TO.C,R16*%
G36*
G01*
X108700000Y-149075001D02*
X108700000Y-146924999D01*
G75*
G02*
X108949999Y-146675000I249999J0D01*
G01*
X109675001Y-146675000D01*
G75*
G02*
X109925000Y-146924999I0J-249999D01*
G01*
X109925000Y-149075001D01*
G75*
G02*
X109675001Y-149325000I-249999J0D01*
G01*
X108949999Y-149325000D01*
G75*
G02*
X108700000Y-149075001I0J249999D01*
G01*
G37*
G36*
G01*
X104075000Y-149075001D02*
X104075000Y-146924999D01*
G75*
G02*
X104324999Y-146675000I249999J0D01*
G01*
X105050001Y-146675000D01*
G75*
G02*
X105300000Y-146924999I0J-249999D01*
G01*
X105300000Y-149075001D01*
G75*
G02*
X105050001Y-149325000I-249999J0D01*
G01*
X104324999Y-149325000D01*
G75*
G02*
X104075000Y-149075001I0J249999D01*
G01*
G37*
%TD*%
%TO.C,R17*%
G36*
G01*
X109925000Y-152924999D02*
X109925000Y-155075001D01*
G75*
G02*
X109675001Y-155325000I-249999J0D01*
G01*
X108949999Y-155325000D01*
G75*
G02*
X108700000Y-155075001I0J249999D01*
G01*
X108700000Y-152924999D01*
G75*
G02*
X108949999Y-152675000I249999J0D01*
G01*
X109675001Y-152675000D01*
G75*
G02*
X109925000Y-152924999I0J-249999D01*
G01*
G37*
G36*
G01*
X105300000Y-152924999D02*
X105300000Y-155075001D01*
G75*
G02*
X105050001Y-155325000I-249999J0D01*
G01*
X104324999Y-155325000D01*
G75*
G02*
X104075000Y-155075001I0J249999D01*
G01*
X104075000Y-152924999D01*
G75*
G02*
X104324999Y-152675000I249999J0D01*
G01*
X105050001Y-152675000D01*
G75*
G02*
X105300000Y-152924999I0J-249999D01*
G01*
G37*
%TD*%
%TO.C,R18*%
G36*
G01*
X108700000Y-161075001D02*
X108700000Y-158924999D01*
G75*
G02*
X108949999Y-158675000I249999J0D01*
G01*
X109675001Y-158675000D01*
G75*
G02*
X109925000Y-158924999I0J-249999D01*
G01*
X109925000Y-161075001D01*
G75*
G02*
X109675001Y-161325000I-249999J0D01*
G01*
X108949999Y-161325000D01*
G75*
G02*
X108700000Y-161075001I0J249999D01*
G01*
G37*
G36*
G01*
X104075000Y-161075001D02*
X104075000Y-158924999D01*
G75*
G02*
X104324999Y-158675000I249999J0D01*
G01*
X105050001Y-158675000D01*
G75*
G02*
X105300000Y-158924999I0J-249999D01*
G01*
X105300000Y-161075001D01*
G75*
G02*
X105050001Y-161325000I-249999J0D01*
G01*
X104324999Y-161325000D01*
G75*
G02*
X104075000Y-161075001I0J249999D01*
G01*
G37*
%TD*%
%TO.C,R19*%
G36*
G01*
X119075000Y-113075001D02*
X119075000Y-110924999D01*
G75*
G02*
X119324999Y-110675000I249999J0D01*
G01*
X120050001Y-110675000D01*
G75*
G02*
X120300000Y-110924999I0J-249999D01*
G01*
X120300000Y-113075001D01*
G75*
G02*
X120050001Y-113325000I-249999J0D01*
G01*
X119324999Y-113325000D01*
G75*
G02*
X119075000Y-113075001I0J249999D01*
G01*
G37*
G36*
G01*
X123700000Y-113075001D02*
X123700000Y-110924999D01*
G75*
G02*
X123949999Y-110675000I249999J0D01*
G01*
X124675001Y-110675000D01*
G75*
G02*
X124925000Y-110924999I0J-249999D01*
G01*
X124925000Y-113075001D01*
G75*
G02*
X124675001Y-113325000I-249999J0D01*
G01*
X123949999Y-113325000D01*
G75*
G02*
X123700000Y-113075001I0J249999D01*
G01*
G37*
%TD*%
%TO.C,R21*%
G36*
G01*
X119075000Y-125075001D02*
X119075000Y-122924999D01*
G75*
G02*
X119324999Y-122675000I249999J0D01*
G01*
X120050001Y-122675000D01*
G75*
G02*
X120300000Y-122924999I0J-249999D01*
G01*
X120300000Y-125075001D01*
G75*
G02*
X120050001Y-125325000I-249999J0D01*
G01*
X119324999Y-125325000D01*
G75*
G02*
X119075000Y-125075001I0J249999D01*
G01*
G37*
G36*
G01*
X123700000Y-125075001D02*
X123700000Y-122924999D01*
G75*
G02*
X123949999Y-122675000I249999J0D01*
G01*
X124675001Y-122675000D01*
G75*
G02*
X124925000Y-122924999I0J-249999D01*
G01*
X124925000Y-125075001D01*
G75*
G02*
X124675001Y-125325000I-249999J0D01*
G01*
X123949999Y-125325000D01*
G75*
G02*
X123700000Y-125075001I0J249999D01*
G01*
G37*
%TD*%
%TO.C,R22*%
G36*
G01*
X120300000Y-128924999D02*
X120300000Y-131075001D01*
G75*
G02*
X120050001Y-131325000I-249999J0D01*
G01*
X119324999Y-131325000D01*
G75*
G02*
X119075000Y-131075001I0J249999D01*
G01*
X119075000Y-128924999D01*
G75*
G02*
X119324999Y-128675000I249999J0D01*
G01*
X120050001Y-128675000D01*
G75*
G02*
X120300000Y-128924999I0J-249999D01*
G01*
G37*
G36*
G01*
X124925000Y-128924999D02*
X124925000Y-131075001D01*
G75*
G02*
X124675001Y-131325000I-249999J0D01*
G01*
X123949999Y-131325000D01*
G75*
G02*
X123700000Y-131075001I0J249999D01*
G01*
X123700000Y-128924999D01*
G75*
G02*
X123949999Y-128675000I249999J0D01*
G01*
X124675001Y-128675000D01*
G75*
G02*
X124925000Y-128924999I0J-249999D01*
G01*
G37*
%TD*%
%TO.C,R23*%
G36*
G01*
X119075000Y-137075001D02*
X119075000Y-134924999D01*
G75*
G02*
X119324999Y-134675000I249999J0D01*
G01*
X120050001Y-134675000D01*
G75*
G02*
X120300000Y-134924999I0J-249999D01*
G01*
X120300000Y-137075001D01*
G75*
G02*
X120050001Y-137325000I-249999J0D01*
G01*
X119324999Y-137325000D01*
G75*
G02*
X119075000Y-137075001I0J249999D01*
G01*
G37*
G36*
G01*
X123700000Y-137075001D02*
X123700000Y-134924999D01*
G75*
G02*
X123949999Y-134675000I249999J0D01*
G01*
X124675001Y-134675000D01*
G75*
G02*
X124925000Y-134924999I0J-249999D01*
G01*
X124925000Y-137075001D01*
G75*
G02*
X124675001Y-137325000I-249999J0D01*
G01*
X123949999Y-137325000D01*
G75*
G02*
X123700000Y-137075001I0J249999D01*
G01*
G37*
%TD*%
%TO.C,R24*%
G36*
G01*
X120300000Y-140924999D02*
X120300000Y-143075001D01*
G75*
G02*
X120050001Y-143325000I-249999J0D01*
G01*
X119324999Y-143325000D01*
G75*
G02*
X119075000Y-143075001I0J249999D01*
G01*
X119075000Y-140924999D01*
G75*
G02*
X119324999Y-140675000I249999J0D01*
G01*
X120050001Y-140675000D01*
G75*
G02*
X120300000Y-140924999I0J-249999D01*
G01*
G37*
G36*
G01*
X124925000Y-140924999D02*
X124925000Y-143075001D01*
G75*
G02*
X124675001Y-143325000I-249999J0D01*
G01*
X123949999Y-143325000D01*
G75*
G02*
X123700000Y-143075001I0J249999D01*
G01*
X123700000Y-140924999D01*
G75*
G02*
X123949999Y-140675000I249999J0D01*
G01*
X124675001Y-140675000D01*
G75*
G02*
X124925000Y-140924999I0J-249999D01*
G01*
G37*
%TD*%
%TO.C,R25*%
G36*
G01*
X119075000Y-149075001D02*
X119075000Y-146924999D01*
G75*
G02*
X119324999Y-146675000I249999J0D01*
G01*
X120050001Y-146675000D01*
G75*
G02*
X120300000Y-146924999I0J-249999D01*
G01*
X120300000Y-149075001D01*
G75*
G02*
X120050001Y-149325000I-249999J0D01*
G01*
X119324999Y-149325000D01*
G75*
G02*
X119075000Y-149075001I0J249999D01*
G01*
G37*
G36*
G01*
X123700000Y-149075001D02*
X123700000Y-146924999D01*
G75*
G02*
X123949999Y-146675000I249999J0D01*
G01*
X124675001Y-146675000D01*
G75*
G02*
X124925000Y-146924999I0J-249999D01*
G01*
X124925000Y-149075001D01*
G75*
G02*
X124675001Y-149325000I-249999J0D01*
G01*
X123949999Y-149325000D01*
G75*
G02*
X123700000Y-149075001I0J249999D01*
G01*
G37*
%TD*%
%TO.C,R26*%
G36*
G01*
X120300000Y-152924999D02*
X120300000Y-155075001D01*
G75*
G02*
X120050001Y-155325000I-249999J0D01*
G01*
X119324999Y-155325000D01*
G75*
G02*
X119075000Y-155075001I0J249999D01*
G01*
X119075000Y-152924999D01*
G75*
G02*
X119324999Y-152675000I249999J0D01*
G01*
X120050001Y-152675000D01*
G75*
G02*
X120300000Y-152924999I0J-249999D01*
G01*
G37*
G36*
G01*
X124925000Y-152924999D02*
X124925000Y-155075001D01*
G75*
G02*
X124675001Y-155325000I-249999J0D01*
G01*
X123949999Y-155325000D01*
G75*
G02*
X123700000Y-155075001I0J249999D01*
G01*
X123700000Y-152924999D01*
G75*
G02*
X123949999Y-152675000I249999J0D01*
G01*
X124675001Y-152675000D01*
G75*
G02*
X124925000Y-152924999I0J-249999D01*
G01*
G37*
%TD*%
%TO.C,R27*%
G36*
G01*
X119075000Y-161075001D02*
X119075000Y-158924999D01*
G75*
G02*
X119324999Y-158675000I249999J0D01*
G01*
X120050001Y-158675000D01*
G75*
G02*
X120300000Y-158924999I0J-249999D01*
G01*
X120300000Y-161075001D01*
G75*
G02*
X120050001Y-161325000I-249999J0D01*
G01*
X119324999Y-161325000D01*
G75*
G02*
X119075000Y-161075001I0J249999D01*
G01*
G37*
G36*
G01*
X123700000Y-161075001D02*
X123700000Y-158924999D01*
G75*
G02*
X123949999Y-158675000I249999J0D01*
G01*
X124675001Y-158675000D01*
G75*
G02*
X124925000Y-158924999I0J-249999D01*
G01*
X124925000Y-161075001D01*
G75*
G02*
X124675001Y-161325000I-249999J0D01*
G01*
X123949999Y-161325000D01*
G75*
G02*
X123700000Y-161075001I0J249999D01*
G01*
G37*
%TD*%
%TO.C,R28*%
G36*
G01*
X138700000Y-113075001D02*
X138700000Y-110924999D01*
G75*
G02*
X138949999Y-110675000I249999J0D01*
G01*
X139675001Y-110675000D01*
G75*
G02*
X139925000Y-110924999I0J-249999D01*
G01*
X139925000Y-113075001D01*
G75*
G02*
X139675001Y-113325000I-249999J0D01*
G01*
X138949999Y-113325000D01*
G75*
G02*
X138700000Y-113075001I0J249999D01*
G01*
G37*
G36*
G01*
X134075000Y-113075001D02*
X134075000Y-110924999D01*
G75*
G02*
X134324999Y-110675000I249999J0D01*
G01*
X135050001Y-110675000D01*
G75*
G02*
X135300000Y-110924999I0J-249999D01*
G01*
X135300000Y-113075001D01*
G75*
G02*
X135050001Y-113325000I-249999J0D01*
G01*
X134324999Y-113325000D01*
G75*
G02*
X134075000Y-113075001I0J249999D01*
G01*
G37*
%TD*%
%TO.C,R30*%
G36*
G01*
X138700000Y-125075001D02*
X138700000Y-122924999D01*
G75*
G02*
X138949999Y-122675000I249999J0D01*
G01*
X139675001Y-122675000D01*
G75*
G02*
X139925000Y-122924999I0J-249999D01*
G01*
X139925000Y-125075001D01*
G75*
G02*
X139675001Y-125325000I-249999J0D01*
G01*
X138949999Y-125325000D01*
G75*
G02*
X138700000Y-125075001I0J249999D01*
G01*
G37*
G36*
G01*
X134075000Y-125075001D02*
X134075000Y-122924999D01*
G75*
G02*
X134324999Y-122675000I249999J0D01*
G01*
X135050001Y-122675000D01*
G75*
G02*
X135300000Y-122924999I0J-249999D01*
G01*
X135300000Y-125075001D01*
G75*
G02*
X135050001Y-125325000I-249999J0D01*
G01*
X134324999Y-125325000D01*
G75*
G02*
X134075000Y-125075001I0J249999D01*
G01*
G37*
%TD*%
%TO.C,R31*%
G36*
G01*
X139925000Y-128924999D02*
X139925000Y-131075001D01*
G75*
G02*
X139675001Y-131325000I-249999J0D01*
G01*
X138949999Y-131325000D01*
G75*
G02*
X138700000Y-131075001I0J249999D01*
G01*
X138700000Y-128924999D01*
G75*
G02*
X138949999Y-128675000I249999J0D01*
G01*
X139675001Y-128675000D01*
G75*
G02*
X139925000Y-128924999I0J-249999D01*
G01*
G37*
G36*
G01*
X135300000Y-128924999D02*
X135300000Y-131075001D01*
G75*
G02*
X135050001Y-131325000I-249999J0D01*
G01*
X134324999Y-131325000D01*
G75*
G02*
X134075000Y-131075001I0J249999D01*
G01*
X134075000Y-128924999D01*
G75*
G02*
X134324999Y-128675000I249999J0D01*
G01*
X135050001Y-128675000D01*
G75*
G02*
X135300000Y-128924999I0J-249999D01*
G01*
G37*
%TD*%
%TO.C,R32*%
G36*
G01*
X138700000Y-137075001D02*
X138700000Y-134924999D01*
G75*
G02*
X138949999Y-134675000I249999J0D01*
G01*
X139675001Y-134675000D01*
G75*
G02*
X139925000Y-134924999I0J-249999D01*
G01*
X139925000Y-137075001D01*
G75*
G02*
X139675001Y-137325000I-249999J0D01*
G01*
X138949999Y-137325000D01*
G75*
G02*
X138700000Y-137075001I0J249999D01*
G01*
G37*
G36*
G01*
X134075000Y-137075001D02*
X134075000Y-134924999D01*
G75*
G02*
X134324999Y-134675000I249999J0D01*
G01*
X135050001Y-134675000D01*
G75*
G02*
X135300000Y-134924999I0J-249999D01*
G01*
X135300000Y-137075001D01*
G75*
G02*
X135050001Y-137325000I-249999J0D01*
G01*
X134324999Y-137325000D01*
G75*
G02*
X134075000Y-137075001I0J249999D01*
G01*
G37*
%TD*%
%TO.C,R33*%
G36*
G01*
X139925000Y-140924999D02*
X139925000Y-143075001D01*
G75*
G02*
X139675001Y-143325000I-249999J0D01*
G01*
X138949999Y-143325000D01*
G75*
G02*
X138700000Y-143075001I0J249999D01*
G01*
X138700000Y-140924999D01*
G75*
G02*
X138949999Y-140675000I249999J0D01*
G01*
X139675001Y-140675000D01*
G75*
G02*
X139925000Y-140924999I0J-249999D01*
G01*
G37*
G36*
G01*
X135300000Y-140924999D02*
X135300000Y-143075001D01*
G75*
G02*
X135050001Y-143325000I-249999J0D01*
G01*
X134324999Y-143325000D01*
G75*
G02*
X134075000Y-143075001I0J249999D01*
G01*
X134075000Y-140924999D01*
G75*
G02*
X134324999Y-140675000I249999J0D01*
G01*
X135050001Y-140675000D01*
G75*
G02*
X135300000Y-140924999I0J-249999D01*
G01*
G37*
%TD*%
%TO.C,R34*%
G36*
G01*
X138700000Y-149075001D02*
X138700000Y-146924999D01*
G75*
G02*
X138949999Y-146675000I249999J0D01*
G01*
X139675001Y-146675000D01*
G75*
G02*
X139925000Y-146924999I0J-249999D01*
G01*
X139925000Y-149075001D01*
G75*
G02*
X139675001Y-149325000I-249999J0D01*
G01*
X138949999Y-149325000D01*
G75*
G02*
X138700000Y-149075001I0J249999D01*
G01*
G37*
G36*
G01*
X134075000Y-149075001D02*
X134075000Y-146924999D01*
G75*
G02*
X134324999Y-146675000I249999J0D01*
G01*
X135050001Y-146675000D01*
G75*
G02*
X135300000Y-146924999I0J-249999D01*
G01*
X135300000Y-149075001D01*
G75*
G02*
X135050001Y-149325000I-249999J0D01*
G01*
X134324999Y-149325000D01*
G75*
G02*
X134075000Y-149075001I0J249999D01*
G01*
G37*
%TD*%
%TO.C,R35*%
G36*
G01*
X139925000Y-152924999D02*
X139925000Y-155075001D01*
G75*
G02*
X139675001Y-155325000I-249999J0D01*
G01*
X138949999Y-155325000D01*
G75*
G02*
X138700000Y-155075001I0J249999D01*
G01*
X138700000Y-152924999D01*
G75*
G02*
X138949999Y-152675000I249999J0D01*
G01*
X139675001Y-152675000D01*
G75*
G02*
X139925000Y-152924999I0J-249999D01*
G01*
G37*
G36*
G01*
X135300000Y-152924999D02*
X135300000Y-155075001D01*
G75*
G02*
X135050001Y-155325000I-249999J0D01*
G01*
X134324999Y-155325000D01*
G75*
G02*
X134075000Y-155075001I0J249999D01*
G01*
X134075000Y-152924999D01*
G75*
G02*
X134324999Y-152675000I249999J0D01*
G01*
X135050001Y-152675000D01*
G75*
G02*
X135300000Y-152924999I0J-249999D01*
G01*
G37*
%TD*%
%TO.C,R36*%
G36*
G01*
X138700000Y-161075001D02*
X138700000Y-158924999D01*
G75*
G02*
X138949999Y-158675000I249999J0D01*
G01*
X139675001Y-158675000D01*
G75*
G02*
X139925000Y-158924999I0J-249999D01*
G01*
X139925000Y-161075001D01*
G75*
G02*
X139675001Y-161325000I-249999J0D01*
G01*
X138949999Y-161325000D01*
G75*
G02*
X138700000Y-161075001I0J249999D01*
G01*
G37*
G36*
G01*
X134075000Y-161075001D02*
X134075000Y-158924999D01*
G75*
G02*
X134324999Y-158675000I249999J0D01*
G01*
X135050001Y-158675000D01*
G75*
G02*
X135300000Y-158924999I0J-249999D01*
G01*
X135300000Y-161075001D01*
G75*
G02*
X135050001Y-161325000I-249999J0D01*
G01*
X134324999Y-161325000D01*
G75*
G02*
X134075000Y-161075001I0J249999D01*
G01*
G37*
%TD*%
%TO.C,R37*%
G36*
G01*
X149075000Y-113075001D02*
X149075000Y-110924999D01*
G75*
G02*
X149324999Y-110675000I249999J0D01*
G01*
X150050001Y-110675000D01*
G75*
G02*
X150300000Y-110924999I0J-249999D01*
G01*
X150300000Y-113075001D01*
G75*
G02*
X150050001Y-113325000I-249999J0D01*
G01*
X149324999Y-113325000D01*
G75*
G02*
X149075000Y-113075001I0J249999D01*
G01*
G37*
G36*
G01*
X153700000Y-113075001D02*
X153700000Y-110924999D01*
G75*
G02*
X153949999Y-110675000I249999J0D01*
G01*
X154675001Y-110675000D01*
G75*
G02*
X154925000Y-110924999I0J-249999D01*
G01*
X154925000Y-113075001D01*
G75*
G02*
X154675001Y-113325000I-249999J0D01*
G01*
X153949999Y-113325000D01*
G75*
G02*
X153700000Y-113075001I0J249999D01*
G01*
G37*
%TD*%
%TO.C,R38*%
G36*
G01*
X150300000Y-116924999D02*
X150300000Y-119075001D01*
G75*
G02*
X150050001Y-119325000I-249999J0D01*
G01*
X149324999Y-119325000D01*
G75*
G02*
X149075000Y-119075001I0J249999D01*
G01*
X149075000Y-116924999D01*
G75*
G02*
X149324999Y-116675000I249999J0D01*
G01*
X150050001Y-116675000D01*
G75*
G02*
X150300000Y-116924999I0J-249999D01*
G01*
G37*
G36*
G01*
X154925000Y-116924999D02*
X154925000Y-119075001D01*
G75*
G02*
X154675001Y-119325000I-249999J0D01*
G01*
X153949999Y-119325000D01*
G75*
G02*
X153700000Y-119075001I0J249999D01*
G01*
X153700000Y-116924999D01*
G75*
G02*
X153949999Y-116675000I249999J0D01*
G01*
X154675001Y-116675000D01*
G75*
G02*
X154925000Y-116924999I0J-249999D01*
G01*
G37*
%TD*%
%TO.C,R39*%
G36*
G01*
X149075000Y-125075001D02*
X149075000Y-122924999D01*
G75*
G02*
X149324999Y-122675000I249999J0D01*
G01*
X150050001Y-122675000D01*
G75*
G02*
X150300000Y-122924999I0J-249999D01*
G01*
X150300000Y-125075001D01*
G75*
G02*
X150050001Y-125325000I-249999J0D01*
G01*
X149324999Y-125325000D01*
G75*
G02*
X149075000Y-125075001I0J249999D01*
G01*
G37*
G36*
G01*
X153700000Y-125075001D02*
X153700000Y-122924999D01*
G75*
G02*
X153949999Y-122675000I249999J0D01*
G01*
X154675001Y-122675000D01*
G75*
G02*
X154925000Y-122924999I0J-249999D01*
G01*
X154925000Y-125075001D01*
G75*
G02*
X154675001Y-125325000I-249999J0D01*
G01*
X153949999Y-125325000D01*
G75*
G02*
X153700000Y-125075001I0J249999D01*
G01*
G37*
%TD*%
%TO.C,R41*%
G36*
G01*
X149075000Y-137075001D02*
X149075000Y-134924999D01*
G75*
G02*
X149324999Y-134675000I249999J0D01*
G01*
X150050001Y-134675000D01*
G75*
G02*
X150300000Y-134924999I0J-249999D01*
G01*
X150300000Y-137075001D01*
G75*
G02*
X150050001Y-137325000I-249999J0D01*
G01*
X149324999Y-137325000D01*
G75*
G02*
X149075000Y-137075001I0J249999D01*
G01*
G37*
G36*
G01*
X153700000Y-137075001D02*
X153700000Y-134924999D01*
G75*
G02*
X153949999Y-134675000I249999J0D01*
G01*
X154675001Y-134675000D01*
G75*
G02*
X154925000Y-134924999I0J-249999D01*
G01*
X154925000Y-137075001D01*
G75*
G02*
X154675001Y-137325000I-249999J0D01*
G01*
X153949999Y-137325000D01*
G75*
G02*
X153700000Y-137075001I0J249999D01*
G01*
G37*
%TD*%
%TO.C,R42*%
G36*
G01*
X150300000Y-140924999D02*
X150300000Y-143075001D01*
G75*
G02*
X150050001Y-143325000I-249999J0D01*
G01*
X149324999Y-143325000D01*
G75*
G02*
X149075000Y-143075001I0J249999D01*
G01*
X149075000Y-140924999D01*
G75*
G02*
X149324999Y-140675000I249999J0D01*
G01*
X150050001Y-140675000D01*
G75*
G02*
X150300000Y-140924999I0J-249999D01*
G01*
G37*
G36*
G01*
X154925000Y-140924999D02*
X154925000Y-143075001D01*
G75*
G02*
X154675001Y-143325000I-249999J0D01*
G01*
X153949999Y-143325000D01*
G75*
G02*
X153700000Y-143075001I0J249999D01*
G01*
X153700000Y-140924999D01*
G75*
G02*
X153949999Y-140675000I249999J0D01*
G01*
X154675001Y-140675000D01*
G75*
G02*
X154925000Y-140924999I0J-249999D01*
G01*
G37*
%TD*%
%TO.C,R43*%
G36*
G01*
X149075000Y-149075001D02*
X149075000Y-146924999D01*
G75*
G02*
X149324999Y-146675000I249999J0D01*
G01*
X150050001Y-146675000D01*
G75*
G02*
X150300000Y-146924999I0J-249999D01*
G01*
X150300000Y-149075001D01*
G75*
G02*
X150050001Y-149325000I-249999J0D01*
G01*
X149324999Y-149325000D01*
G75*
G02*
X149075000Y-149075001I0J249999D01*
G01*
G37*
G36*
G01*
X153700000Y-149075001D02*
X153700000Y-146924999D01*
G75*
G02*
X153949999Y-146675000I249999J0D01*
G01*
X154675001Y-146675000D01*
G75*
G02*
X154925000Y-146924999I0J-249999D01*
G01*
X154925000Y-149075001D01*
G75*
G02*
X154675001Y-149325000I-249999J0D01*
G01*
X153949999Y-149325000D01*
G75*
G02*
X153700000Y-149075001I0J249999D01*
G01*
G37*
%TD*%
%TO.C,R44*%
G36*
G01*
X150300000Y-152924999D02*
X150300000Y-155075001D01*
G75*
G02*
X150050001Y-155325000I-249999J0D01*
G01*
X149324999Y-155325000D01*
G75*
G02*
X149075000Y-155075001I0J249999D01*
G01*
X149075000Y-152924999D01*
G75*
G02*
X149324999Y-152675000I249999J0D01*
G01*
X150050001Y-152675000D01*
G75*
G02*
X150300000Y-152924999I0J-249999D01*
G01*
G37*
G36*
G01*
X154925000Y-152924999D02*
X154925000Y-155075001D01*
G75*
G02*
X154675001Y-155325000I-249999J0D01*
G01*
X153949999Y-155325000D01*
G75*
G02*
X153700000Y-155075001I0J249999D01*
G01*
X153700000Y-152924999D01*
G75*
G02*
X153949999Y-152675000I249999J0D01*
G01*
X154675001Y-152675000D01*
G75*
G02*
X154925000Y-152924999I0J-249999D01*
G01*
G37*
%TD*%
%TO.C,R45*%
G36*
G01*
X149075000Y-161075001D02*
X149075000Y-158924999D01*
G75*
G02*
X149324999Y-158675000I249999J0D01*
G01*
X150050001Y-158675000D01*
G75*
G02*
X150300000Y-158924999I0J-249999D01*
G01*
X150300000Y-161075001D01*
G75*
G02*
X150050001Y-161325000I-249999J0D01*
G01*
X149324999Y-161325000D01*
G75*
G02*
X149075000Y-161075001I0J249999D01*
G01*
G37*
G36*
G01*
X153700000Y-161075001D02*
X153700000Y-158924999D01*
G75*
G02*
X153949999Y-158675000I249999J0D01*
G01*
X154675001Y-158675000D01*
G75*
G02*
X154925000Y-158924999I0J-249999D01*
G01*
X154925000Y-161075001D01*
G75*
G02*
X154675001Y-161325000I-249999J0D01*
G01*
X153949999Y-161325000D01*
G75*
G02*
X153700000Y-161075001I0J249999D01*
G01*
G37*
%TD*%
%TO.C,R46*%
G36*
G01*
X168700000Y-113075001D02*
X168700000Y-110924999D01*
G75*
G02*
X168949999Y-110675000I249999J0D01*
G01*
X169675001Y-110675000D01*
G75*
G02*
X169925000Y-110924999I0J-249999D01*
G01*
X169925000Y-113075001D01*
G75*
G02*
X169675001Y-113325000I-249999J0D01*
G01*
X168949999Y-113325000D01*
G75*
G02*
X168700000Y-113075001I0J249999D01*
G01*
G37*
G36*
G01*
X164075000Y-113075001D02*
X164075000Y-110924999D01*
G75*
G02*
X164324999Y-110675000I249999J0D01*
G01*
X165050001Y-110675000D01*
G75*
G02*
X165300000Y-110924999I0J-249999D01*
G01*
X165300000Y-113075001D01*
G75*
G02*
X165050001Y-113325000I-249999J0D01*
G01*
X164324999Y-113325000D01*
G75*
G02*
X164075000Y-113075001I0J249999D01*
G01*
G37*
%TD*%
%TO.C,R47*%
G36*
G01*
X169925000Y-116924999D02*
X169925000Y-119075001D01*
G75*
G02*
X169675001Y-119325000I-249999J0D01*
G01*
X168949999Y-119325000D01*
G75*
G02*
X168700000Y-119075001I0J249999D01*
G01*
X168700000Y-116924999D01*
G75*
G02*
X168949999Y-116675000I249999J0D01*
G01*
X169675001Y-116675000D01*
G75*
G02*
X169925000Y-116924999I0J-249999D01*
G01*
G37*
G36*
G01*
X165300000Y-116924999D02*
X165300000Y-119075001D01*
G75*
G02*
X165050001Y-119325000I-249999J0D01*
G01*
X164324999Y-119325000D01*
G75*
G02*
X164075000Y-119075001I0J249999D01*
G01*
X164075000Y-116924999D01*
G75*
G02*
X164324999Y-116675000I249999J0D01*
G01*
X165050001Y-116675000D01*
G75*
G02*
X165300000Y-116924999I0J-249999D01*
G01*
G37*
%TD*%
%TO.C,R48*%
G36*
G01*
X168700000Y-125075001D02*
X168700000Y-122924999D01*
G75*
G02*
X168949999Y-122675000I249999J0D01*
G01*
X169675001Y-122675000D01*
G75*
G02*
X169925000Y-122924999I0J-249999D01*
G01*
X169925000Y-125075001D01*
G75*
G02*
X169675001Y-125325000I-249999J0D01*
G01*
X168949999Y-125325000D01*
G75*
G02*
X168700000Y-125075001I0J249999D01*
G01*
G37*
G36*
G01*
X164075000Y-125075001D02*
X164075000Y-122924999D01*
G75*
G02*
X164324999Y-122675000I249999J0D01*
G01*
X165050001Y-122675000D01*
G75*
G02*
X165300000Y-122924999I0J-249999D01*
G01*
X165300000Y-125075001D01*
G75*
G02*
X165050001Y-125325000I-249999J0D01*
G01*
X164324999Y-125325000D01*
G75*
G02*
X164075000Y-125075001I0J249999D01*
G01*
G37*
%TD*%
%TO.C,R49*%
G36*
G01*
X169925000Y-128924999D02*
X169925000Y-131075001D01*
G75*
G02*
X169675001Y-131325000I-249999J0D01*
G01*
X168949999Y-131325000D01*
G75*
G02*
X168700000Y-131075001I0J249999D01*
G01*
X168700000Y-128924999D01*
G75*
G02*
X168949999Y-128675000I249999J0D01*
G01*
X169675001Y-128675000D01*
G75*
G02*
X169925000Y-128924999I0J-249999D01*
G01*
G37*
G36*
G01*
X165300000Y-128924999D02*
X165300000Y-131075001D01*
G75*
G02*
X165050001Y-131325000I-249999J0D01*
G01*
X164324999Y-131325000D01*
G75*
G02*
X164075000Y-131075001I0J249999D01*
G01*
X164075000Y-128924999D01*
G75*
G02*
X164324999Y-128675000I249999J0D01*
G01*
X165050001Y-128675000D01*
G75*
G02*
X165300000Y-128924999I0J-249999D01*
G01*
G37*
%TD*%
%TO.C,R50*%
G36*
G01*
X168700000Y-137075001D02*
X168700000Y-134924999D01*
G75*
G02*
X168949999Y-134675000I249999J0D01*
G01*
X169675001Y-134675000D01*
G75*
G02*
X169925000Y-134924999I0J-249999D01*
G01*
X169925000Y-137075001D01*
G75*
G02*
X169675001Y-137325000I-249999J0D01*
G01*
X168949999Y-137325000D01*
G75*
G02*
X168700000Y-137075001I0J249999D01*
G01*
G37*
G36*
G01*
X164075000Y-137075001D02*
X164075000Y-134924999D01*
G75*
G02*
X164324999Y-134675000I249999J0D01*
G01*
X165050001Y-134675000D01*
G75*
G02*
X165300000Y-134924999I0J-249999D01*
G01*
X165300000Y-137075001D01*
G75*
G02*
X165050001Y-137325000I-249999J0D01*
G01*
X164324999Y-137325000D01*
G75*
G02*
X164075000Y-137075001I0J249999D01*
G01*
G37*
%TD*%
%TO.C,R51*%
G36*
G01*
X169925000Y-140924999D02*
X169925000Y-143075001D01*
G75*
G02*
X169675001Y-143325000I-249999J0D01*
G01*
X168949999Y-143325000D01*
G75*
G02*
X168700000Y-143075001I0J249999D01*
G01*
X168700000Y-140924999D01*
G75*
G02*
X168949999Y-140675000I249999J0D01*
G01*
X169675001Y-140675000D01*
G75*
G02*
X169925000Y-140924999I0J-249999D01*
G01*
G37*
G36*
G01*
X165300000Y-140924999D02*
X165300000Y-143075001D01*
G75*
G02*
X165050001Y-143325000I-249999J0D01*
G01*
X164324999Y-143325000D01*
G75*
G02*
X164075000Y-143075001I0J249999D01*
G01*
X164075000Y-140924999D01*
G75*
G02*
X164324999Y-140675000I249999J0D01*
G01*
X165050001Y-140675000D01*
G75*
G02*
X165300000Y-140924999I0J-249999D01*
G01*
G37*
%TD*%
%TO.C,R52*%
G36*
G01*
X168700000Y-149075001D02*
X168700000Y-146924999D01*
G75*
G02*
X168949999Y-146675000I249999J0D01*
G01*
X169675001Y-146675000D01*
G75*
G02*
X169925000Y-146924999I0J-249999D01*
G01*
X169925000Y-149075001D01*
G75*
G02*
X169675001Y-149325000I-249999J0D01*
G01*
X168949999Y-149325000D01*
G75*
G02*
X168700000Y-149075001I0J249999D01*
G01*
G37*
G36*
G01*
X164075000Y-149075001D02*
X164075000Y-146924999D01*
G75*
G02*
X164324999Y-146675000I249999J0D01*
G01*
X165050001Y-146675000D01*
G75*
G02*
X165300000Y-146924999I0J-249999D01*
G01*
X165300000Y-149075001D01*
G75*
G02*
X165050001Y-149325000I-249999J0D01*
G01*
X164324999Y-149325000D01*
G75*
G02*
X164075000Y-149075001I0J249999D01*
G01*
G37*
%TD*%
%TO.C,R54*%
G36*
G01*
X168700000Y-161075001D02*
X168700000Y-158924999D01*
G75*
G02*
X168949999Y-158675000I249999J0D01*
G01*
X169675001Y-158675000D01*
G75*
G02*
X169925000Y-158924999I0J-249999D01*
G01*
X169925000Y-161075001D01*
G75*
G02*
X169675001Y-161325000I-249999J0D01*
G01*
X168949999Y-161325000D01*
G75*
G02*
X168700000Y-161075001I0J249999D01*
G01*
G37*
G36*
G01*
X164075000Y-161075001D02*
X164075000Y-158924999D01*
G75*
G02*
X164324999Y-158675000I249999J0D01*
G01*
X165050001Y-158675000D01*
G75*
G02*
X165300000Y-158924999I0J-249999D01*
G01*
X165300000Y-161075001D01*
G75*
G02*
X165050001Y-161325000I-249999J0D01*
G01*
X164324999Y-161325000D01*
G75*
G02*
X164075000Y-161075001I0J249999D01*
G01*
G37*
%TD*%
%TO.C,R55*%
G36*
G01*
X179075000Y-113075001D02*
X179075000Y-110924999D01*
G75*
G02*
X179324999Y-110675000I249999J0D01*
G01*
X180050001Y-110675000D01*
G75*
G02*
X180300000Y-110924999I0J-249999D01*
G01*
X180300000Y-113075001D01*
G75*
G02*
X180050001Y-113325000I-249999J0D01*
G01*
X179324999Y-113325000D01*
G75*
G02*
X179075000Y-113075001I0J249999D01*
G01*
G37*
G36*
G01*
X183700000Y-113075001D02*
X183700000Y-110924999D01*
G75*
G02*
X183949999Y-110675000I249999J0D01*
G01*
X184675001Y-110675000D01*
G75*
G02*
X184925000Y-110924999I0J-249999D01*
G01*
X184925000Y-113075001D01*
G75*
G02*
X184675001Y-113325000I-249999J0D01*
G01*
X183949999Y-113325000D01*
G75*
G02*
X183700000Y-113075001I0J249999D01*
G01*
G37*
%TD*%
%TO.C,R56*%
G36*
G01*
X180300000Y-116924999D02*
X180300000Y-119075001D01*
G75*
G02*
X180050001Y-119325000I-249999J0D01*
G01*
X179324999Y-119325000D01*
G75*
G02*
X179075000Y-119075001I0J249999D01*
G01*
X179075000Y-116924999D01*
G75*
G02*
X179324999Y-116675000I249999J0D01*
G01*
X180050001Y-116675000D01*
G75*
G02*
X180300000Y-116924999I0J-249999D01*
G01*
G37*
G36*
G01*
X184925000Y-116924999D02*
X184925000Y-119075001D01*
G75*
G02*
X184675001Y-119325000I-249999J0D01*
G01*
X183949999Y-119325000D01*
G75*
G02*
X183700000Y-119075001I0J249999D01*
G01*
X183700000Y-116924999D01*
G75*
G02*
X183949999Y-116675000I249999J0D01*
G01*
X184675001Y-116675000D01*
G75*
G02*
X184925000Y-116924999I0J-249999D01*
G01*
G37*
%TD*%
%TO.C,R57*%
G36*
G01*
X179075000Y-125075001D02*
X179075000Y-122924999D01*
G75*
G02*
X179324999Y-122675000I249999J0D01*
G01*
X180050001Y-122675000D01*
G75*
G02*
X180300000Y-122924999I0J-249999D01*
G01*
X180300000Y-125075001D01*
G75*
G02*
X180050001Y-125325000I-249999J0D01*
G01*
X179324999Y-125325000D01*
G75*
G02*
X179075000Y-125075001I0J249999D01*
G01*
G37*
G36*
G01*
X183700000Y-125075001D02*
X183700000Y-122924999D01*
G75*
G02*
X183949999Y-122675000I249999J0D01*
G01*
X184675001Y-122675000D01*
G75*
G02*
X184925000Y-122924999I0J-249999D01*
G01*
X184925000Y-125075001D01*
G75*
G02*
X184675001Y-125325000I-249999J0D01*
G01*
X183949999Y-125325000D01*
G75*
G02*
X183700000Y-125075001I0J249999D01*
G01*
G37*
%TD*%
%TO.C,R58*%
G36*
G01*
X180300000Y-128924999D02*
X180300000Y-131075001D01*
G75*
G02*
X180050001Y-131325000I-249999J0D01*
G01*
X179324999Y-131325000D01*
G75*
G02*
X179075000Y-131075001I0J249999D01*
G01*
X179075000Y-128924999D01*
G75*
G02*
X179324999Y-128675000I249999J0D01*
G01*
X180050001Y-128675000D01*
G75*
G02*
X180300000Y-128924999I0J-249999D01*
G01*
G37*
G36*
G01*
X184925000Y-128924999D02*
X184925000Y-131075001D01*
G75*
G02*
X184675001Y-131325000I-249999J0D01*
G01*
X183949999Y-131325000D01*
G75*
G02*
X183700000Y-131075001I0J249999D01*
G01*
X183700000Y-128924999D01*
G75*
G02*
X183949999Y-128675000I249999J0D01*
G01*
X184675001Y-128675000D01*
G75*
G02*
X184925000Y-128924999I0J-249999D01*
G01*
G37*
%TD*%
%TO.C,R59*%
G36*
G01*
X179075000Y-137075001D02*
X179075000Y-134924999D01*
G75*
G02*
X179324999Y-134675000I249999J0D01*
G01*
X180050001Y-134675000D01*
G75*
G02*
X180300000Y-134924999I0J-249999D01*
G01*
X180300000Y-137075001D01*
G75*
G02*
X180050001Y-137325000I-249999J0D01*
G01*
X179324999Y-137325000D01*
G75*
G02*
X179075000Y-137075001I0J249999D01*
G01*
G37*
G36*
G01*
X183700000Y-137075001D02*
X183700000Y-134924999D01*
G75*
G02*
X183949999Y-134675000I249999J0D01*
G01*
X184675001Y-134675000D01*
G75*
G02*
X184925000Y-134924999I0J-249999D01*
G01*
X184925000Y-137075001D01*
G75*
G02*
X184675001Y-137325000I-249999J0D01*
G01*
X183949999Y-137325000D01*
G75*
G02*
X183700000Y-137075001I0J249999D01*
G01*
G37*
%TD*%
%TO.C,R60*%
G36*
G01*
X180300000Y-140924999D02*
X180300000Y-143075001D01*
G75*
G02*
X180050001Y-143325000I-249999J0D01*
G01*
X179324999Y-143325000D01*
G75*
G02*
X179075000Y-143075001I0J249999D01*
G01*
X179075000Y-140924999D01*
G75*
G02*
X179324999Y-140675000I249999J0D01*
G01*
X180050001Y-140675000D01*
G75*
G02*
X180300000Y-140924999I0J-249999D01*
G01*
G37*
G36*
G01*
X184925000Y-140924999D02*
X184925000Y-143075001D01*
G75*
G02*
X184675001Y-143325000I-249999J0D01*
G01*
X183949999Y-143325000D01*
G75*
G02*
X183700000Y-143075001I0J249999D01*
G01*
X183700000Y-140924999D01*
G75*
G02*
X183949999Y-140675000I249999J0D01*
G01*
X184675001Y-140675000D01*
G75*
G02*
X184925000Y-140924999I0J-249999D01*
G01*
G37*
%TD*%
%TO.C,R61*%
G36*
G01*
X179075000Y-149075001D02*
X179075000Y-146924999D01*
G75*
G02*
X179324999Y-146675000I249999J0D01*
G01*
X180050001Y-146675000D01*
G75*
G02*
X180300000Y-146924999I0J-249999D01*
G01*
X180300000Y-149075001D01*
G75*
G02*
X180050001Y-149325000I-249999J0D01*
G01*
X179324999Y-149325000D01*
G75*
G02*
X179075000Y-149075001I0J249999D01*
G01*
G37*
G36*
G01*
X183700000Y-149075001D02*
X183700000Y-146924999D01*
G75*
G02*
X183949999Y-146675000I249999J0D01*
G01*
X184675001Y-146675000D01*
G75*
G02*
X184925000Y-146924999I0J-249999D01*
G01*
X184925000Y-149075001D01*
G75*
G02*
X184675001Y-149325000I-249999J0D01*
G01*
X183949999Y-149325000D01*
G75*
G02*
X183700000Y-149075001I0J249999D01*
G01*
G37*
%TD*%
%TO.C,R62*%
G36*
G01*
X180300000Y-152924999D02*
X180300000Y-155075001D01*
G75*
G02*
X180050001Y-155325000I-249999J0D01*
G01*
X179324999Y-155325000D01*
G75*
G02*
X179075000Y-155075001I0J249999D01*
G01*
X179075000Y-152924999D01*
G75*
G02*
X179324999Y-152675000I249999J0D01*
G01*
X180050001Y-152675000D01*
G75*
G02*
X180300000Y-152924999I0J-249999D01*
G01*
G37*
G36*
G01*
X184925000Y-152924999D02*
X184925000Y-155075001D01*
G75*
G02*
X184675001Y-155325000I-249999J0D01*
G01*
X183949999Y-155325000D01*
G75*
G02*
X183700000Y-155075001I0J249999D01*
G01*
X183700000Y-152924999D01*
G75*
G02*
X183949999Y-152675000I249999J0D01*
G01*
X184675001Y-152675000D01*
G75*
G02*
X184925000Y-152924999I0J-249999D01*
G01*
G37*
%TD*%
%TO.C,R63*%
G36*
G01*
X179075000Y-161075001D02*
X179075000Y-158924999D01*
G75*
G02*
X179324999Y-158675000I249999J0D01*
G01*
X180050001Y-158675000D01*
G75*
G02*
X180300000Y-158924999I0J-249999D01*
G01*
X180300000Y-161075001D01*
G75*
G02*
X180050001Y-161325000I-249999J0D01*
G01*
X179324999Y-161325000D01*
G75*
G02*
X179075000Y-161075001I0J249999D01*
G01*
G37*
G36*
G01*
X183700000Y-161075001D02*
X183700000Y-158924999D01*
G75*
G02*
X183949999Y-158675000I249999J0D01*
G01*
X184675001Y-158675000D01*
G75*
G02*
X184925000Y-158924999I0J-249999D01*
G01*
X184925000Y-161075001D01*
G75*
G02*
X184675001Y-161325000I-249999J0D01*
G01*
X183949999Y-161325000D01*
G75*
G02*
X183700000Y-161075001I0J249999D01*
G01*
G37*
%TD*%
%TO.C,R64*%
G36*
G01*
X198700000Y-113075001D02*
X198700000Y-110924999D01*
G75*
G02*
X198949999Y-110675000I249999J0D01*
G01*
X199675001Y-110675000D01*
G75*
G02*
X199925000Y-110924999I0J-249999D01*
G01*
X199925000Y-113075001D01*
G75*
G02*
X199675001Y-113325000I-249999J0D01*
G01*
X198949999Y-113325000D01*
G75*
G02*
X198700000Y-113075001I0J249999D01*
G01*
G37*
G36*
G01*
X194075000Y-113075001D02*
X194075000Y-110924999D01*
G75*
G02*
X194324999Y-110675000I249999J0D01*
G01*
X195050001Y-110675000D01*
G75*
G02*
X195300000Y-110924999I0J-249999D01*
G01*
X195300000Y-113075001D01*
G75*
G02*
X195050001Y-113325000I-249999J0D01*
G01*
X194324999Y-113325000D01*
G75*
G02*
X194075000Y-113075001I0J249999D01*
G01*
G37*
%TD*%
%TO.C,R65*%
G36*
G01*
X199925000Y-116924999D02*
X199925000Y-119075001D01*
G75*
G02*
X199675001Y-119325000I-249999J0D01*
G01*
X198949999Y-119325000D01*
G75*
G02*
X198700000Y-119075001I0J249999D01*
G01*
X198700000Y-116924999D01*
G75*
G02*
X198949999Y-116675000I249999J0D01*
G01*
X199675001Y-116675000D01*
G75*
G02*
X199925000Y-116924999I0J-249999D01*
G01*
G37*
G36*
G01*
X195300000Y-116924999D02*
X195300000Y-119075001D01*
G75*
G02*
X195050001Y-119325000I-249999J0D01*
G01*
X194324999Y-119325000D01*
G75*
G02*
X194075000Y-119075001I0J249999D01*
G01*
X194075000Y-116924999D01*
G75*
G02*
X194324999Y-116675000I249999J0D01*
G01*
X195050001Y-116675000D01*
G75*
G02*
X195300000Y-116924999I0J-249999D01*
G01*
G37*
%TD*%
%TO.C,R66*%
G36*
G01*
X198700000Y-125075001D02*
X198700000Y-122924999D01*
G75*
G02*
X198949999Y-122675000I249999J0D01*
G01*
X199675001Y-122675000D01*
G75*
G02*
X199925000Y-122924999I0J-249999D01*
G01*
X199925000Y-125075001D01*
G75*
G02*
X199675001Y-125325000I-249999J0D01*
G01*
X198949999Y-125325000D01*
G75*
G02*
X198700000Y-125075001I0J249999D01*
G01*
G37*
G36*
G01*
X194075000Y-125075001D02*
X194075000Y-122924999D01*
G75*
G02*
X194324999Y-122675000I249999J0D01*
G01*
X195050001Y-122675000D01*
G75*
G02*
X195300000Y-122924999I0J-249999D01*
G01*
X195300000Y-125075001D01*
G75*
G02*
X195050001Y-125325000I-249999J0D01*
G01*
X194324999Y-125325000D01*
G75*
G02*
X194075000Y-125075001I0J249999D01*
G01*
G37*
%TD*%
%TO.C,R68*%
G36*
G01*
X198700000Y-137075001D02*
X198700000Y-134924999D01*
G75*
G02*
X198949999Y-134675000I249999J0D01*
G01*
X199675001Y-134675000D01*
G75*
G02*
X199925000Y-134924999I0J-249999D01*
G01*
X199925000Y-137075001D01*
G75*
G02*
X199675001Y-137325000I-249999J0D01*
G01*
X198949999Y-137325000D01*
G75*
G02*
X198700000Y-137075001I0J249999D01*
G01*
G37*
G36*
G01*
X194075000Y-137075001D02*
X194075000Y-134924999D01*
G75*
G02*
X194324999Y-134675000I249999J0D01*
G01*
X195050001Y-134675000D01*
G75*
G02*
X195300000Y-134924999I0J-249999D01*
G01*
X195300000Y-137075001D01*
G75*
G02*
X195050001Y-137325000I-249999J0D01*
G01*
X194324999Y-137325000D01*
G75*
G02*
X194075000Y-137075001I0J249999D01*
G01*
G37*
%TD*%
%TO.C,R69*%
G36*
G01*
X199925000Y-140924999D02*
X199925000Y-143075001D01*
G75*
G02*
X199675001Y-143325000I-249999J0D01*
G01*
X198949999Y-143325000D01*
G75*
G02*
X198700000Y-143075001I0J249999D01*
G01*
X198700000Y-140924999D01*
G75*
G02*
X198949999Y-140675000I249999J0D01*
G01*
X199675001Y-140675000D01*
G75*
G02*
X199925000Y-140924999I0J-249999D01*
G01*
G37*
G36*
G01*
X195300000Y-140924999D02*
X195300000Y-143075001D01*
G75*
G02*
X195050001Y-143325000I-249999J0D01*
G01*
X194324999Y-143325000D01*
G75*
G02*
X194075000Y-143075001I0J249999D01*
G01*
X194075000Y-140924999D01*
G75*
G02*
X194324999Y-140675000I249999J0D01*
G01*
X195050001Y-140675000D01*
G75*
G02*
X195300000Y-140924999I0J-249999D01*
G01*
G37*
%TD*%
%TO.C,R70*%
G36*
G01*
X198700000Y-149075001D02*
X198700000Y-146924999D01*
G75*
G02*
X198949999Y-146675000I249999J0D01*
G01*
X199675001Y-146675000D01*
G75*
G02*
X199925000Y-146924999I0J-249999D01*
G01*
X199925000Y-149075001D01*
G75*
G02*
X199675001Y-149325000I-249999J0D01*
G01*
X198949999Y-149325000D01*
G75*
G02*
X198700000Y-149075001I0J249999D01*
G01*
G37*
G36*
G01*
X194075000Y-149075001D02*
X194075000Y-146924999D01*
G75*
G02*
X194324999Y-146675000I249999J0D01*
G01*
X195050001Y-146675000D01*
G75*
G02*
X195300000Y-146924999I0J-249999D01*
G01*
X195300000Y-149075001D01*
G75*
G02*
X195050001Y-149325000I-249999J0D01*
G01*
X194324999Y-149325000D01*
G75*
G02*
X194075000Y-149075001I0J249999D01*
G01*
G37*
%TD*%
%TO.C,R71*%
G36*
G01*
X199925000Y-152924999D02*
X199925000Y-155075001D01*
G75*
G02*
X199675001Y-155325000I-249999J0D01*
G01*
X198949999Y-155325000D01*
G75*
G02*
X198700000Y-155075001I0J249999D01*
G01*
X198700000Y-152924999D01*
G75*
G02*
X198949999Y-152675000I249999J0D01*
G01*
X199675001Y-152675000D01*
G75*
G02*
X199925000Y-152924999I0J-249999D01*
G01*
G37*
G36*
G01*
X195300000Y-152924999D02*
X195300000Y-155075001D01*
G75*
G02*
X195050001Y-155325000I-249999J0D01*
G01*
X194324999Y-155325000D01*
G75*
G02*
X194075000Y-155075001I0J249999D01*
G01*
X194075000Y-152924999D01*
G75*
G02*
X194324999Y-152675000I249999J0D01*
G01*
X195050001Y-152675000D01*
G75*
G02*
X195300000Y-152924999I0J-249999D01*
G01*
G37*
%TD*%
%TO.C,R72*%
G36*
G01*
X198700000Y-161075001D02*
X198700000Y-158924999D01*
G75*
G02*
X198949999Y-158675000I249999J0D01*
G01*
X199675001Y-158675000D01*
G75*
G02*
X199925000Y-158924999I0J-249999D01*
G01*
X199925000Y-161075001D01*
G75*
G02*
X199675001Y-161325000I-249999J0D01*
G01*
X198949999Y-161325000D01*
G75*
G02*
X198700000Y-161075001I0J249999D01*
G01*
G37*
G36*
G01*
X194075000Y-161075001D02*
X194075000Y-158924999D01*
G75*
G02*
X194324999Y-158675000I249999J0D01*
G01*
X195050001Y-158675000D01*
G75*
G02*
X195300000Y-158924999I0J-249999D01*
G01*
X195300000Y-161075001D01*
G75*
G02*
X195050001Y-161325000I-249999J0D01*
G01*
X194324999Y-161325000D01*
G75*
G02*
X194075000Y-161075001I0J249999D01*
G01*
G37*
%TD*%
%TO.C,R73*%
G36*
G01*
X209075000Y-113075001D02*
X209075000Y-110924999D01*
G75*
G02*
X209324999Y-110675000I249999J0D01*
G01*
X210050001Y-110675000D01*
G75*
G02*
X210300000Y-110924999I0J-249999D01*
G01*
X210300000Y-113075001D01*
G75*
G02*
X210050001Y-113325000I-249999J0D01*
G01*
X209324999Y-113325000D01*
G75*
G02*
X209075000Y-113075001I0J249999D01*
G01*
G37*
G36*
G01*
X213700000Y-113075001D02*
X213700000Y-110924999D01*
G75*
G02*
X213949999Y-110675000I249999J0D01*
G01*
X214675001Y-110675000D01*
G75*
G02*
X214925000Y-110924999I0J-249999D01*
G01*
X214925000Y-113075001D01*
G75*
G02*
X214675001Y-113325000I-249999J0D01*
G01*
X213949999Y-113325000D01*
G75*
G02*
X213700000Y-113075001I0J249999D01*
G01*
G37*
%TD*%
%TO.C,R74*%
G36*
G01*
X210300000Y-116924999D02*
X210300000Y-119075001D01*
G75*
G02*
X210050001Y-119325000I-249999J0D01*
G01*
X209324999Y-119325000D01*
G75*
G02*
X209075000Y-119075001I0J249999D01*
G01*
X209075000Y-116924999D01*
G75*
G02*
X209324999Y-116675000I249999J0D01*
G01*
X210050001Y-116675000D01*
G75*
G02*
X210300000Y-116924999I0J-249999D01*
G01*
G37*
G36*
G01*
X214925000Y-116924999D02*
X214925000Y-119075001D01*
G75*
G02*
X214675001Y-119325000I-249999J0D01*
G01*
X213949999Y-119325000D01*
G75*
G02*
X213700000Y-119075001I0J249999D01*
G01*
X213700000Y-116924999D01*
G75*
G02*
X213949999Y-116675000I249999J0D01*
G01*
X214675001Y-116675000D01*
G75*
G02*
X214925000Y-116924999I0J-249999D01*
G01*
G37*
%TD*%
%TO.C,R75*%
G36*
G01*
X209075000Y-125075001D02*
X209075000Y-122924999D01*
G75*
G02*
X209324999Y-122675000I249999J0D01*
G01*
X210050001Y-122675000D01*
G75*
G02*
X210300000Y-122924999I0J-249999D01*
G01*
X210300000Y-125075001D01*
G75*
G02*
X210050001Y-125325000I-249999J0D01*
G01*
X209324999Y-125325000D01*
G75*
G02*
X209075000Y-125075001I0J249999D01*
G01*
G37*
G36*
G01*
X213700000Y-125075001D02*
X213700000Y-122924999D01*
G75*
G02*
X213949999Y-122675000I249999J0D01*
G01*
X214675001Y-122675000D01*
G75*
G02*
X214925000Y-122924999I0J-249999D01*
G01*
X214925000Y-125075001D01*
G75*
G02*
X214675001Y-125325000I-249999J0D01*
G01*
X213949999Y-125325000D01*
G75*
G02*
X213700000Y-125075001I0J249999D01*
G01*
G37*
%TD*%
%TO.C,R76*%
G36*
G01*
X210300000Y-128924999D02*
X210300000Y-131075001D01*
G75*
G02*
X210050001Y-131325000I-249999J0D01*
G01*
X209324999Y-131325000D01*
G75*
G02*
X209075000Y-131075001I0J249999D01*
G01*
X209075000Y-128924999D01*
G75*
G02*
X209324999Y-128675000I249999J0D01*
G01*
X210050001Y-128675000D01*
G75*
G02*
X210300000Y-128924999I0J-249999D01*
G01*
G37*
G36*
G01*
X214925000Y-128924999D02*
X214925000Y-131075001D01*
G75*
G02*
X214675001Y-131325000I-249999J0D01*
G01*
X213949999Y-131325000D01*
G75*
G02*
X213700000Y-131075001I0J249999D01*
G01*
X213700000Y-128924999D01*
G75*
G02*
X213949999Y-128675000I249999J0D01*
G01*
X214675001Y-128675000D01*
G75*
G02*
X214925000Y-128924999I0J-249999D01*
G01*
G37*
%TD*%
%TO.C,R77*%
G36*
G01*
X209075000Y-137075001D02*
X209075000Y-134924999D01*
G75*
G02*
X209324999Y-134675000I249999J0D01*
G01*
X210050001Y-134675000D01*
G75*
G02*
X210300000Y-134924999I0J-249999D01*
G01*
X210300000Y-137075001D01*
G75*
G02*
X210050001Y-137325000I-249999J0D01*
G01*
X209324999Y-137325000D01*
G75*
G02*
X209075000Y-137075001I0J249999D01*
G01*
G37*
G36*
G01*
X213700000Y-137075001D02*
X213700000Y-134924999D01*
G75*
G02*
X213949999Y-134675000I249999J0D01*
G01*
X214675001Y-134675000D01*
G75*
G02*
X214925000Y-134924999I0J-249999D01*
G01*
X214925000Y-137075001D01*
G75*
G02*
X214675001Y-137325000I-249999J0D01*
G01*
X213949999Y-137325000D01*
G75*
G02*
X213700000Y-137075001I0J249999D01*
G01*
G37*
%TD*%
%TO.C,R78*%
G36*
G01*
X210300000Y-140924999D02*
X210300000Y-143075001D01*
G75*
G02*
X210050001Y-143325000I-249999J0D01*
G01*
X209324999Y-143325000D01*
G75*
G02*
X209075000Y-143075001I0J249999D01*
G01*
X209075000Y-140924999D01*
G75*
G02*
X209324999Y-140675000I249999J0D01*
G01*
X210050001Y-140675000D01*
G75*
G02*
X210300000Y-140924999I0J-249999D01*
G01*
G37*
G36*
G01*
X214925000Y-140924999D02*
X214925000Y-143075001D01*
G75*
G02*
X214675001Y-143325000I-249999J0D01*
G01*
X213949999Y-143325000D01*
G75*
G02*
X213700000Y-143075001I0J249999D01*
G01*
X213700000Y-140924999D01*
G75*
G02*
X213949999Y-140675000I249999J0D01*
G01*
X214675001Y-140675000D01*
G75*
G02*
X214925000Y-140924999I0J-249999D01*
G01*
G37*
%TD*%
%TO.C,R79*%
G36*
G01*
X209075000Y-149075001D02*
X209075000Y-146924999D01*
G75*
G02*
X209324999Y-146675000I249999J0D01*
G01*
X210050001Y-146675000D01*
G75*
G02*
X210300000Y-146924999I0J-249999D01*
G01*
X210300000Y-149075001D01*
G75*
G02*
X210050001Y-149325000I-249999J0D01*
G01*
X209324999Y-149325000D01*
G75*
G02*
X209075000Y-149075001I0J249999D01*
G01*
G37*
G36*
G01*
X213700000Y-149075001D02*
X213700000Y-146924999D01*
G75*
G02*
X213949999Y-146675000I249999J0D01*
G01*
X214675001Y-146675000D01*
G75*
G02*
X214925000Y-146924999I0J-249999D01*
G01*
X214925000Y-149075001D01*
G75*
G02*
X214675001Y-149325000I-249999J0D01*
G01*
X213949999Y-149325000D01*
G75*
G02*
X213700000Y-149075001I0J249999D01*
G01*
G37*
%TD*%
%TO.C,R80*%
G36*
G01*
X210300000Y-152924999D02*
X210300000Y-155075001D01*
G75*
G02*
X210050001Y-155325000I-249999J0D01*
G01*
X209324999Y-155325000D01*
G75*
G02*
X209075000Y-155075001I0J249999D01*
G01*
X209075000Y-152924999D01*
G75*
G02*
X209324999Y-152675000I249999J0D01*
G01*
X210050001Y-152675000D01*
G75*
G02*
X210300000Y-152924999I0J-249999D01*
G01*
G37*
G36*
G01*
X214925000Y-152924999D02*
X214925000Y-155075001D01*
G75*
G02*
X214675001Y-155325000I-249999J0D01*
G01*
X213949999Y-155325000D01*
G75*
G02*
X213700000Y-155075001I0J249999D01*
G01*
X213700000Y-152924999D01*
G75*
G02*
X213949999Y-152675000I249999J0D01*
G01*
X214675001Y-152675000D01*
G75*
G02*
X214925000Y-152924999I0J-249999D01*
G01*
G37*
%TD*%
%TO.C,R81*%
G36*
G01*
X209075000Y-161075001D02*
X209075000Y-158924999D01*
G75*
G02*
X209324999Y-158675000I249999J0D01*
G01*
X210050001Y-158675000D01*
G75*
G02*
X210300000Y-158924999I0J-249999D01*
G01*
X210300000Y-161075001D01*
G75*
G02*
X210050001Y-161325000I-249999J0D01*
G01*
X209324999Y-161325000D01*
G75*
G02*
X209075000Y-161075001I0J249999D01*
G01*
G37*
G36*
G01*
X213700000Y-161075001D02*
X213700000Y-158924999D01*
G75*
G02*
X213949999Y-158675000I249999J0D01*
G01*
X214675001Y-158675000D01*
G75*
G02*
X214925000Y-158924999I0J-249999D01*
G01*
X214925000Y-161075001D01*
G75*
G02*
X214675001Y-161325000I-249999J0D01*
G01*
X213949999Y-161325000D01*
G75*
G02*
X213700000Y-161075001I0J249999D01*
G01*
G37*
%TD*%
%TO.C,R82*%
G36*
G01*
X228700000Y-113075001D02*
X228700000Y-110924999D01*
G75*
G02*
X228949999Y-110675000I249999J0D01*
G01*
X229675001Y-110675000D01*
G75*
G02*
X229925000Y-110924999I0J-249999D01*
G01*
X229925000Y-113075001D01*
G75*
G02*
X229675001Y-113325000I-249999J0D01*
G01*
X228949999Y-113325000D01*
G75*
G02*
X228700000Y-113075001I0J249999D01*
G01*
G37*
G36*
G01*
X224075000Y-113075001D02*
X224075000Y-110924999D01*
G75*
G02*
X224324999Y-110675000I249999J0D01*
G01*
X225050001Y-110675000D01*
G75*
G02*
X225300000Y-110924999I0J-249999D01*
G01*
X225300000Y-113075001D01*
G75*
G02*
X225050001Y-113325000I-249999J0D01*
G01*
X224324999Y-113325000D01*
G75*
G02*
X224075000Y-113075001I0J249999D01*
G01*
G37*
%TD*%
%TO.C,R83*%
G36*
G01*
X229925000Y-116924999D02*
X229925000Y-119075001D01*
G75*
G02*
X229675001Y-119325000I-249999J0D01*
G01*
X228949999Y-119325000D01*
G75*
G02*
X228700000Y-119075001I0J249999D01*
G01*
X228700000Y-116924999D01*
G75*
G02*
X228949999Y-116675000I249999J0D01*
G01*
X229675001Y-116675000D01*
G75*
G02*
X229925000Y-116924999I0J-249999D01*
G01*
G37*
G36*
G01*
X225300000Y-116924999D02*
X225300000Y-119075001D01*
G75*
G02*
X225050001Y-119325000I-249999J0D01*
G01*
X224324999Y-119325000D01*
G75*
G02*
X224075000Y-119075001I0J249999D01*
G01*
X224075000Y-116924999D01*
G75*
G02*
X224324999Y-116675000I249999J0D01*
G01*
X225050001Y-116675000D01*
G75*
G02*
X225300000Y-116924999I0J-249999D01*
G01*
G37*
%TD*%
%TO.C,R84*%
G36*
G01*
X228700000Y-125075001D02*
X228700000Y-122924999D01*
G75*
G02*
X228949999Y-122675000I249999J0D01*
G01*
X229675001Y-122675000D01*
G75*
G02*
X229925000Y-122924999I0J-249999D01*
G01*
X229925000Y-125075001D01*
G75*
G02*
X229675001Y-125325000I-249999J0D01*
G01*
X228949999Y-125325000D01*
G75*
G02*
X228700000Y-125075001I0J249999D01*
G01*
G37*
G36*
G01*
X224075000Y-125075001D02*
X224075000Y-122924999D01*
G75*
G02*
X224324999Y-122675000I249999J0D01*
G01*
X225050001Y-122675000D01*
G75*
G02*
X225300000Y-122924999I0J-249999D01*
G01*
X225300000Y-125075001D01*
G75*
G02*
X225050001Y-125325000I-249999J0D01*
G01*
X224324999Y-125325000D01*
G75*
G02*
X224075000Y-125075001I0J249999D01*
G01*
G37*
%TD*%
%TO.C,R85*%
G36*
G01*
X229925000Y-128924999D02*
X229925000Y-131075001D01*
G75*
G02*
X229675001Y-131325000I-249999J0D01*
G01*
X228949999Y-131325000D01*
G75*
G02*
X228700000Y-131075001I0J249999D01*
G01*
X228700000Y-128924999D01*
G75*
G02*
X228949999Y-128675000I249999J0D01*
G01*
X229675001Y-128675000D01*
G75*
G02*
X229925000Y-128924999I0J-249999D01*
G01*
G37*
G36*
G01*
X225300000Y-128924999D02*
X225300000Y-131075001D01*
G75*
G02*
X225050001Y-131325000I-249999J0D01*
G01*
X224324999Y-131325000D01*
G75*
G02*
X224075000Y-131075001I0J249999D01*
G01*
X224075000Y-128924999D01*
G75*
G02*
X224324999Y-128675000I249999J0D01*
G01*
X225050001Y-128675000D01*
G75*
G02*
X225300000Y-128924999I0J-249999D01*
G01*
G37*
%TD*%
%TO.C,R86*%
G36*
G01*
X228700000Y-137075001D02*
X228700000Y-134924999D01*
G75*
G02*
X228949999Y-134675000I249999J0D01*
G01*
X229675001Y-134675000D01*
G75*
G02*
X229925000Y-134924999I0J-249999D01*
G01*
X229925000Y-137075001D01*
G75*
G02*
X229675001Y-137325000I-249999J0D01*
G01*
X228949999Y-137325000D01*
G75*
G02*
X228700000Y-137075001I0J249999D01*
G01*
G37*
G36*
G01*
X224075000Y-137075001D02*
X224075000Y-134924999D01*
G75*
G02*
X224324999Y-134675000I249999J0D01*
G01*
X225050001Y-134675000D01*
G75*
G02*
X225300000Y-134924999I0J-249999D01*
G01*
X225300000Y-137075001D01*
G75*
G02*
X225050001Y-137325000I-249999J0D01*
G01*
X224324999Y-137325000D01*
G75*
G02*
X224075000Y-137075001I0J249999D01*
G01*
G37*
%TD*%
%TO.C,R87*%
G36*
G01*
X229950001Y-140924999D02*
X229950001Y-143075001D01*
G75*
G02*
X229700002Y-143325000I-249999J0D01*
G01*
X228975000Y-143325000D01*
G75*
G02*
X228725001Y-143075001I0J249999D01*
G01*
X228725001Y-140924999D01*
G75*
G02*
X228975000Y-140675000I249999J0D01*
G01*
X229700002Y-140675000D01*
G75*
G02*
X229950001Y-140924999I0J-249999D01*
G01*
G37*
G36*
G01*
X225325001Y-140924999D02*
X225325001Y-143075001D01*
G75*
G02*
X225075002Y-143325000I-249999J0D01*
G01*
X224350000Y-143325000D01*
G75*
G02*
X224100001Y-143075001I0J249999D01*
G01*
X224100001Y-140924999D01*
G75*
G02*
X224350000Y-140675000I249999J0D01*
G01*
X225075002Y-140675000D01*
G75*
G02*
X225325001Y-140924999I0J-249999D01*
G01*
G37*
%TD*%
%TO.C,R88*%
G36*
G01*
X228700000Y-149075001D02*
X228700000Y-146924999D01*
G75*
G02*
X228949999Y-146675000I249999J0D01*
G01*
X229675001Y-146675000D01*
G75*
G02*
X229925000Y-146924999I0J-249999D01*
G01*
X229925000Y-149075001D01*
G75*
G02*
X229675001Y-149325000I-249999J0D01*
G01*
X228949999Y-149325000D01*
G75*
G02*
X228700000Y-149075001I0J249999D01*
G01*
G37*
G36*
G01*
X224075000Y-149075001D02*
X224075000Y-146924999D01*
G75*
G02*
X224324999Y-146675000I249999J0D01*
G01*
X225050001Y-146675000D01*
G75*
G02*
X225300000Y-146924999I0J-249999D01*
G01*
X225300000Y-149075001D01*
G75*
G02*
X225050001Y-149325000I-249999J0D01*
G01*
X224324999Y-149325000D01*
G75*
G02*
X224075000Y-149075001I0J249999D01*
G01*
G37*
%TD*%
%TO.C,R89*%
G36*
G01*
X229925000Y-152924999D02*
X229925000Y-155075001D01*
G75*
G02*
X229675001Y-155325000I-249999J0D01*
G01*
X228949999Y-155325000D01*
G75*
G02*
X228700000Y-155075001I0J249999D01*
G01*
X228700000Y-152924999D01*
G75*
G02*
X228949999Y-152675000I249999J0D01*
G01*
X229675001Y-152675000D01*
G75*
G02*
X229925000Y-152924999I0J-249999D01*
G01*
G37*
G36*
G01*
X225300000Y-152924999D02*
X225300000Y-155075001D01*
G75*
G02*
X225050001Y-155325000I-249999J0D01*
G01*
X224324999Y-155325000D01*
G75*
G02*
X224075000Y-155075001I0J249999D01*
G01*
X224075000Y-152924999D01*
G75*
G02*
X224324999Y-152675000I249999J0D01*
G01*
X225050001Y-152675000D01*
G75*
G02*
X225300000Y-152924999I0J-249999D01*
G01*
G37*
%TD*%
%TO.C,R90*%
G36*
G01*
X228700000Y-161075001D02*
X228700000Y-158924999D01*
G75*
G02*
X228949999Y-158675000I249999J0D01*
G01*
X229675001Y-158675000D01*
G75*
G02*
X229925000Y-158924999I0J-249999D01*
G01*
X229925000Y-161075001D01*
G75*
G02*
X229675001Y-161325000I-249999J0D01*
G01*
X228949999Y-161325000D01*
G75*
G02*
X228700000Y-161075001I0J249999D01*
G01*
G37*
G36*
G01*
X224075000Y-161075001D02*
X224075000Y-158924999D01*
G75*
G02*
X224324999Y-158675000I249999J0D01*
G01*
X225050001Y-158675000D01*
G75*
G02*
X225300000Y-158924999I0J-249999D01*
G01*
X225300000Y-161075001D01*
G75*
G02*
X225050001Y-161325000I-249999J0D01*
G01*
X224324999Y-161325000D01*
G75*
G02*
X224075000Y-161075001I0J249999D01*
G01*
G37*
%TD*%
%TO.C,R91*%
G36*
G01*
X239075000Y-113075001D02*
X239075000Y-110924999D01*
G75*
G02*
X239324999Y-110675000I249999J0D01*
G01*
X240050001Y-110675000D01*
G75*
G02*
X240300000Y-110924999I0J-249999D01*
G01*
X240300000Y-113075001D01*
G75*
G02*
X240050001Y-113325000I-249999J0D01*
G01*
X239324999Y-113325000D01*
G75*
G02*
X239075000Y-113075001I0J249999D01*
G01*
G37*
G36*
G01*
X243700000Y-113075001D02*
X243700000Y-110924999D01*
G75*
G02*
X243949999Y-110675000I249999J0D01*
G01*
X244675001Y-110675000D01*
G75*
G02*
X244925000Y-110924999I0J-249999D01*
G01*
X244925000Y-113075001D01*
G75*
G02*
X244675001Y-113325000I-249999J0D01*
G01*
X243949999Y-113325000D01*
G75*
G02*
X243700000Y-113075001I0J249999D01*
G01*
G37*
%TD*%
%TO.C,R92*%
G36*
G01*
X240300000Y-116924999D02*
X240300000Y-119075001D01*
G75*
G02*
X240050001Y-119325000I-249999J0D01*
G01*
X239324999Y-119325000D01*
G75*
G02*
X239075000Y-119075001I0J249999D01*
G01*
X239075000Y-116924999D01*
G75*
G02*
X239324999Y-116675000I249999J0D01*
G01*
X240050001Y-116675000D01*
G75*
G02*
X240300000Y-116924999I0J-249999D01*
G01*
G37*
G36*
G01*
X244925000Y-116924999D02*
X244925000Y-119075001D01*
G75*
G02*
X244675001Y-119325000I-249999J0D01*
G01*
X243949999Y-119325000D01*
G75*
G02*
X243700000Y-119075001I0J249999D01*
G01*
X243700000Y-116924999D01*
G75*
G02*
X243949999Y-116675000I249999J0D01*
G01*
X244675001Y-116675000D01*
G75*
G02*
X244925000Y-116924999I0J-249999D01*
G01*
G37*
%TD*%
%TO.C,R93*%
G36*
G01*
X239075000Y-125075001D02*
X239075000Y-122924999D01*
G75*
G02*
X239324999Y-122675000I249999J0D01*
G01*
X240050001Y-122675000D01*
G75*
G02*
X240300000Y-122924999I0J-249999D01*
G01*
X240300000Y-125075001D01*
G75*
G02*
X240050001Y-125325000I-249999J0D01*
G01*
X239324999Y-125325000D01*
G75*
G02*
X239075000Y-125075001I0J249999D01*
G01*
G37*
G36*
G01*
X243700000Y-125075001D02*
X243700000Y-122924999D01*
G75*
G02*
X243949999Y-122675000I249999J0D01*
G01*
X244675001Y-122675000D01*
G75*
G02*
X244925000Y-122924999I0J-249999D01*
G01*
X244925000Y-125075001D01*
G75*
G02*
X244675001Y-125325000I-249999J0D01*
G01*
X243949999Y-125325000D01*
G75*
G02*
X243700000Y-125075001I0J249999D01*
G01*
G37*
%TD*%
%TO.C,R94*%
G36*
G01*
X240300000Y-128924999D02*
X240300000Y-131075001D01*
G75*
G02*
X240050001Y-131325000I-249999J0D01*
G01*
X239324999Y-131325000D01*
G75*
G02*
X239075000Y-131075001I0J249999D01*
G01*
X239075000Y-128924999D01*
G75*
G02*
X239324999Y-128675000I249999J0D01*
G01*
X240050001Y-128675000D01*
G75*
G02*
X240300000Y-128924999I0J-249999D01*
G01*
G37*
G36*
G01*
X244925000Y-128924999D02*
X244925000Y-131075001D01*
G75*
G02*
X244675001Y-131325000I-249999J0D01*
G01*
X243949999Y-131325000D01*
G75*
G02*
X243700000Y-131075001I0J249999D01*
G01*
X243700000Y-128924999D01*
G75*
G02*
X243949999Y-128675000I249999J0D01*
G01*
X244675001Y-128675000D01*
G75*
G02*
X244925000Y-128924999I0J-249999D01*
G01*
G37*
%TD*%
%TO.C,R96*%
G36*
G01*
X240300000Y-140924999D02*
X240300000Y-143075001D01*
G75*
G02*
X240050001Y-143325000I-249999J0D01*
G01*
X239324999Y-143325000D01*
G75*
G02*
X239075000Y-143075001I0J249999D01*
G01*
X239075000Y-140924999D01*
G75*
G02*
X239324999Y-140675000I249999J0D01*
G01*
X240050001Y-140675000D01*
G75*
G02*
X240300000Y-140924999I0J-249999D01*
G01*
G37*
G36*
G01*
X244925000Y-140924999D02*
X244925000Y-143075001D01*
G75*
G02*
X244675001Y-143325000I-249999J0D01*
G01*
X243949999Y-143325000D01*
G75*
G02*
X243700000Y-143075001I0J249999D01*
G01*
X243700000Y-140924999D01*
G75*
G02*
X243949999Y-140675000I249999J0D01*
G01*
X244675001Y-140675000D01*
G75*
G02*
X244925000Y-140924999I0J-249999D01*
G01*
G37*
%TD*%
%TO.C,R97*%
G36*
G01*
X239075000Y-149075001D02*
X239075000Y-146924999D01*
G75*
G02*
X239324999Y-146675000I249999J0D01*
G01*
X240050001Y-146675000D01*
G75*
G02*
X240300000Y-146924999I0J-249999D01*
G01*
X240300000Y-149075001D01*
G75*
G02*
X240050001Y-149325000I-249999J0D01*
G01*
X239324999Y-149325000D01*
G75*
G02*
X239075000Y-149075001I0J249999D01*
G01*
G37*
G36*
G01*
X243700000Y-149075001D02*
X243700000Y-146924999D01*
G75*
G02*
X243949999Y-146675000I249999J0D01*
G01*
X244675001Y-146675000D01*
G75*
G02*
X244925000Y-146924999I0J-249999D01*
G01*
X244925000Y-149075001D01*
G75*
G02*
X244675001Y-149325000I-249999J0D01*
G01*
X243949999Y-149325000D01*
G75*
G02*
X243700000Y-149075001I0J249999D01*
G01*
G37*
%TD*%
%TO.C,R98*%
G36*
G01*
X240300000Y-152924999D02*
X240300000Y-155075001D01*
G75*
G02*
X240050001Y-155325000I-249999J0D01*
G01*
X239324999Y-155325000D01*
G75*
G02*
X239075000Y-155075001I0J249999D01*
G01*
X239075000Y-152924999D01*
G75*
G02*
X239324999Y-152675000I249999J0D01*
G01*
X240050001Y-152675000D01*
G75*
G02*
X240300000Y-152924999I0J-249999D01*
G01*
G37*
G36*
G01*
X244925000Y-152924999D02*
X244925000Y-155075001D01*
G75*
G02*
X244675001Y-155325000I-249999J0D01*
G01*
X243949999Y-155325000D01*
G75*
G02*
X243700000Y-155075001I0J249999D01*
G01*
X243700000Y-152924999D01*
G75*
G02*
X243949999Y-152675000I249999J0D01*
G01*
X244675001Y-152675000D01*
G75*
G02*
X244925000Y-152924999I0J-249999D01*
G01*
G37*
%TD*%
%TO.C,R99*%
G36*
G01*
X239075000Y-161075001D02*
X239075000Y-158924999D01*
G75*
G02*
X239324999Y-158675000I249999J0D01*
G01*
X240050001Y-158675000D01*
G75*
G02*
X240300000Y-158924999I0J-249999D01*
G01*
X240300000Y-161075001D01*
G75*
G02*
X240050001Y-161325000I-249999J0D01*
G01*
X239324999Y-161325000D01*
G75*
G02*
X239075000Y-161075001I0J249999D01*
G01*
G37*
G36*
G01*
X243700000Y-161075001D02*
X243700000Y-158924999D01*
G75*
G02*
X243949999Y-158675000I249999J0D01*
G01*
X244675001Y-158675000D01*
G75*
G02*
X244925000Y-158924999I0J-249999D01*
G01*
X244925000Y-161075001D01*
G75*
G02*
X244675001Y-161325000I-249999J0D01*
G01*
X243949999Y-161325000D01*
G75*
G02*
X243700000Y-161075001I0J249999D01*
G01*
G37*
%TD*%
%TO.C,R100*%
G36*
G01*
X255300000Y-110924999D02*
X255300000Y-113075001D01*
G75*
G02*
X255050001Y-113325000I-249999J0D01*
G01*
X254324999Y-113325000D01*
G75*
G02*
X254075000Y-113075001I0J249999D01*
G01*
X254075000Y-110924999D01*
G75*
G02*
X254324999Y-110675000I249999J0D01*
G01*
X255050001Y-110675000D01*
G75*
G02*
X255300000Y-110924999I0J-249999D01*
G01*
G37*
G36*
G01*
X259925000Y-110924999D02*
X259925000Y-113075001D01*
G75*
G02*
X259675001Y-113325000I-249999J0D01*
G01*
X258949999Y-113325000D01*
G75*
G02*
X258700000Y-113075001I0J249999D01*
G01*
X258700000Y-110924999D01*
G75*
G02*
X258949999Y-110675000I249999J0D01*
G01*
X259675001Y-110675000D01*
G75*
G02*
X259925000Y-110924999I0J-249999D01*
G01*
G37*
%TD*%
%TO.C,R101*%
G36*
G01*
X254075000Y-118075001D02*
X254075000Y-115924999D01*
G75*
G02*
X254324999Y-115675000I249999J0D01*
G01*
X255050001Y-115675000D01*
G75*
G02*
X255300000Y-115924999I0J-249999D01*
G01*
X255300000Y-118075001D01*
G75*
G02*
X255050001Y-118325000I-249999J0D01*
G01*
X254324999Y-118325000D01*
G75*
G02*
X254075000Y-118075001I0J249999D01*
G01*
G37*
G36*
G01*
X258700000Y-118075001D02*
X258700000Y-115924999D01*
G75*
G02*
X258949999Y-115675000I249999J0D01*
G01*
X259675001Y-115675000D01*
G75*
G02*
X259925000Y-115924999I0J-249999D01*
G01*
X259925000Y-118075001D01*
G75*
G02*
X259675001Y-118325000I-249999J0D01*
G01*
X258949999Y-118325000D01*
G75*
G02*
X258700000Y-118075001I0J249999D01*
G01*
G37*
%TD*%
%TO.C,R102*%
G36*
G01*
X255300000Y-120924999D02*
X255300000Y-123075001D01*
G75*
G02*
X255050001Y-123325000I-249999J0D01*
G01*
X254324999Y-123325000D01*
G75*
G02*
X254075000Y-123075001I0J249999D01*
G01*
X254075000Y-120924999D01*
G75*
G02*
X254324999Y-120675000I249999J0D01*
G01*
X255050001Y-120675000D01*
G75*
G02*
X255300000Y-120924999I0J-249999D01*
G01*
G37*
G36*
G01*
X259925000Y-120924999D02*
X259925000Y-123075001D01*
G75*
G02*
X259675001Y-123325000I-249999J0D01*
G01*
X258949999Y-123325000D01*
G75*
G02*
X258700000Y-123075001I0J249999D01*
G01*
X258700000Y-120924999D01*
G75*
G02*
X258949999Y-120675000I249999J0D01*
G01*
X259675001Y-120675000D01*
G75*
G02*
X259925000Y-120924999I0J-249999D01*
G01*
G37*
%TD*%
%TO.C,R103*%
G36*
G01*
X254352499Y-125075000D02*
X256502501Y-125075000D01*
G75*
G02*
X256752500Y-125324999I0J-249999D01*
G01*
X256752500Y-126050001D01*
G75*
G02*
X256502501Y-126300000I-249999J0D01*
G01*
X254352499Y-126300000D01*
G75*
G02*
X254102500Y-126050001I0J249999D01*
G01*
X254102500Y-125324999D01*
G75*
G02*
X254352499Y-125075000I249999J0D01*
G01*
G37*
G36*
G01*
X254352499Y-129700000D02*
X256502501Y-129700000D01*
G75*
G02*
X256752500Y-129949999I0J-249999D01*
G01*
X256752500Y-130675001D01*
G75*
G02*
X256502501Y-130925000I-249999J0D01*
G01*
X254352499Y-130925000D01*
G75*
G02*
X254102500Y-130675001I0J249999D01*
G01*
X254102500Y-129949999D01*
G75*
G02*
X254352499Y-129700000I249999J0D01*
G01*
G37*
%TD*%
%TO.C,R104*%
G36*
G01*
X254352499Y-137700000D02*
X256502501Y-137700000D01*
G75*
G02*
X256752500Y-137949999I0J-249999D01*
G01*
X256752500Y-138675001D01*
G75*
G02*
X256502501Y-138925000I-249999J0D01*
G01*
X254352499Y-138925000D01*
G75*
G02*
X254102500Y-138675001I0J249999D01*
G01*
X254102500Y-137949999D01*
G75*
G02*
X254352499Y-137700000I249999J0D01*
G01*
G37*
G36*
G01*
X254352499Y-133075000D02*
X256502501Y-133075000D01*
G75*
G02*
X256752500Y-133324999I0J-249999D01*
G01*
X256752500Y-134050001D01*
G75*
G02*
X256502501Y-134300000I-249999J0D01*
G01*
X254352499Y-134300000D01*
G75*
G02*
X254102500Y-134050001I0J249999D01*
G01*
X254102500Y-133324999D01*
G75*
G02*
X254352499Y-133075000I249999J0D01*
G01*
G37*
%TD*%
%TO.C,R105*%
G36*
G01*
X254352499Y-141075000D02*
X256502501Y-141075000D01*
G75*
G02*
X256752500Y-141324999I0J-249999D01*
G01*
X256752500Y-142050001D01*
G75*
G02*
X256502501Y-142300000I-249999J0D01*
G01*
X254352499Y-142300000D01*
G75*
G02*
X254102500Y-142050001I0J249999D01*
G01*
X254102500Y-141324999D01*
G75*
G02*
X254352499Y-141075000I249999J0D01*
G01*
G37*
G36*
G01*
X254352499Y-145700000D02*
X256502501Y-145700000D01*
G75*
G02*
X256752500Y-145949999I0J-249999D01*
G01*
X256752500Y-146675001D01*
G75*
G02*
X256502501Y-146925000I-249999J0D01*
G01*
X254352499Y-146925000D01*
G75*
G02*
X254102500Y-146675001I0J249999D01*
G01*
X254102500Y-145949999D01*
G75*
G02*
X254352499Y-145700000I249999J0D01*
G01*
G37*
%TD*%
%TO.C,R106*%
G36*
G01*
X258700000Y-151075001D02*
X258700000Y-148924999D01*
G75*
G02*
X258949999Y-148675000I249999J0D01*
G01*
X259675001Y-148675000D01*
G75*
G02*
X259925000Y-148924999I0J-249999D01*
G01*
X259925000Y-151075001D01*
G75*
G02*
X259675001Y-151325000I-249999J0D01*
G01*
X258949999Y-151325000D01*
G75*
G02*
X258700000Y-151075001I0J249999D01*
G01*
G37*
G36*
G01*
X254075000Y-151075001D02*
X254075000Y-148924999D01*
G75*
G02*
X254324999Y-148675000I249999J0D01*
G01*
X255050001Y-148675000D01*
G75*
G02*
X255300000Y-148924999I0J-249999D01*
G01*
X255300000Y-151075001D01*
G75*
G02*
X255050001Y-151325000I-249999J0D01*
G01*
X254324999Y-151325000D01*
G75*
G02*
X254075000Y-151075001I0J249999D01*
G01*
G37*
%TD*%
%TO.C,R107*%
G36*
G01*
X259925000Y-153924999D02*
X259925000Y-156075001D01*
G75*
G02*
X259675001Y-156325000I-249999J0D01*
G01*
X258949999Y-156325000D01*
G75*
G02*
X258700000Y-156075001I0J249999D01*
G01*
X258700000Y-153924999D01*
G75*
G02*
X258949999Y-153675000I249999J0D01*
G01*
X259675001Y-153675000D01*
G75*
G02*
X259925000Y-153924999I0J-249999D01*
G01*
G37*
G36*
G01*
X255300000Y-153924999D02*
X255300000Y-156075001D01*
G75*
G02*
X255050001Y-156325000I-249999J0D01*
G01*
X254324999Y-156325000D01*
G75*
G02*
X254075000Y-156075001I0J249999D01*
G01*
X254075000Y-153924999D01*
G75*
G02*
X254324999Y-153675000I249999J0D01*
G01*
X255050001Y-153675000D01*
G75*
G02*
X255300000Y-153924999I0J-249999D01*
G01*
G37*
%TD*%
%TO.C,R108*%
G36*
G01*
X258700000Y-161075001D02*
X258700000Y-158924999D01*
G75*
G02*
X258949999Y-158675000I249999J0D01*
G01*
X259675001Y-158675000D01*
G75*
G02*
X259925000Y-158924999I0J-249999D01*
G01*
X259925000Y-161075001D01*
G75*
G02*
X259675001Y-161325000I-249999J0D01*
G01*
X258949999Y-161325000D01*
G75*
G02*
X258700000Y-161075001I0J249999D01*
G01*
G37*
G36*
G01*
X254075000Y-161075001D02*
X254075000Y-158924999D01*
G75*
G02*
X254324999Y-158675000I249999J0D01*
G01*
X255050001Y-158675000D01*
G75*
G02*
X255300000Y-158924999I0J-249999D01*
G01*
X255300000Y-161075001D01*
G75*
G02*
X255050001Y-161325000I-249999J0D01*
G01*
X254324999Y-161325000D01*
G75*
G02*
X254075000Y-161075001I0J249999D01*
G01*
G37*
%TD*%
%TO.C,R109*%
G36*
G01*
X311425000Y-82799998D02*
X311425000Y-83700002D01*
G75*
G02*
X311175002Y-83950000I-249998J0D01*
G01*
X310649998Y-83950000D01*
G75*
G02*
X310400000Y-83700002I0J249998D01*
G01*
X310400000Y-82799998D01*
G75*
G02*
X310649998Y-82550000I249998J0D01*
G01*
X311175002Y-82550000D01*
G75*
G02*
X311425000Y-82799998I0J-249998D01*
G01*
G37*
G36*
G01*
X309600000Y-82799998D02*
X309600000Y-83700002D01*
G75*
G02*
X309350002Y-83950000I-249998J0D01*
G01*
X308824998Y-83950000D01*
G75*
G02*
X308575000Y-83700002I0J249998D01*
G01*
X308575000Y-82799998D01*
G75*
G02*
X308824998Y-82550000I249998J0D01*
G01*
X309350002Y-82550000D01*
G75*
G02*
X309600000Y-82799998I0J-249998D01*
G01*
G37*
%TD*%
%TO.C,R110*%
G36*
G01*
X309600000Y-80299998D02*
X309600000Y-81200002D01*
G75*
G02*
X309350002Y-81450000I-249998J0D01*
G01*
X308824998Y-81450000D01*
G75*
G02*
X308575000Y-81200002I0J249998D01*
G01*
X308575000Y-80299998D01*
G75*
G02*
X308824998Y-80050000I249998J0D01*
G01*
X309350002Y-80050000D01*
G75*
G02*
X309600000Y-80299998I0J-249998D01*
G01*
G37*
G36*
G01*
X311425000Y-80299998D02*
X311425000Y-81200002D01*
G75*
G02*
X311175002Y-81450000I-249998J0D01*
G01*
X310649998Y-81450000D01*
G75*
G02*
X310400000Y-81200002I0J249998D01*
G01*
X310400000Y-80299998D01*
G75*
G02*
X310649998Y-80050000I249998J0D01*
G01*
X311175002Y-80050000D01*
G75*
G02*
X311425000Y-80299998I0J-249998D01*
G01*
G37*
%TD*%
%TO.C,U1*%
G36*
G01*
X305975000Y-87342500D02*
X305975000Y-87617500D01*
G75*
G02*
X305837500Y-87755000I-137500J0D01*
G01*
X304662500Y-87755000D01*
G75*
G02*
X304525000Y-87617500I0J137500D01*
G01*
X304525000Y-87342500D01*
G75*
G02*
X304662500Y-87205000I137500J0D01*
G01*
X305837500Y-87205000D01*
G75*
G02*
X305975000Y-87342500I0J-137500D01*
G01*
G37*
G36*
G01*
X305975000Y-89882500D02*
X305975000Y-90157500D01*
G75*
G02*
X305837500Y-90295000I-137500J0D01*
G01*
X304662500Y-90295000D01*
G75*
G02*
X304525000Y-90157500I0J137500D01*
G01*
X304525000Y-89882500D01*
G75*
G02*
X304662500Y-89745000I137500J0D01*
G01*
X305837500Y-89745000D01*
G75*
G02*
X305975000Y-89882500I0J-137500D01*
G01*
G37*
G36*
G01*
X300475000Y-89882500D02*
X300475000Y-90157500D01*
G75*
G02*
X300337500Y-90295000I-137500J0D01*
G01*
X299162500Y-90295000D01*
G75*
G02*
X299025000Y-90157500I0J137500D01*
G01*
X299025000Y-89882500D01*
G75*
G02*
X299162500Y-89745000I137500J0D01*
G01*
X300337500Y-89745000D01*
G75*
G02*
X300475000Y-89882500I0J-137500D01*
G01*
G37*
G36*
G01*
X300475000Y-87342500D02*
X300475000Y-87617500D01*
G75*
G02*
X300337500Y-87755000I-137500J0D01*
G01*
X299162500Y-87755000D01*
G75*
G02*
X299025000Y-87617500I0J137500D01*
G01*
X299025000Y-87342500D01*
G75*
G02*
X299162500Y-87205000I137500J0D01*
G01*
X300337500Y-87205000D01*
G75*
G02*
X300475000Y-87342500I0J-137500D01*
G01*
G37*
%TD*%
%TO.C,D1*%
G36*
G01*
X303425000Y-83043750D02*
X303425000Y-83956250D01*
G75*
G02*
X303181250Y-84200000I-243750J0D01*
G01*
X302693750Y-84200000D01*
G75*
G02*
X302450000Y-83956250I0J243750D01*
G01*
X302450000Y-83043750D01*
G75*
G02*
X302693750Y-82800000I243750J0D01*
G01*
X303181250Y-82800000D01*
G75*
G02*
X303425000Y-83043750I0J-243750D01*
G01*
G37*
G36*
G01*
X301550000Y-83043750D02*
X301550000Y-83956250D01*
G75*
G02*
X301306250Y-84200000I-243750J0D01*
G01*
X300818750Y-84200000D01*
G75*
G02*
X300575000Y-83956250I0J243750D01*
G01*
X300575000Y-83043750D01*
G75*
G02*
X300818750Y-82800000I243750J0D01*
G01*
X301306250Y-82800000D01*
G75*
G02*
X301550000Y-83043750I0J-243750D01*
G01*
G37*
%TD*%
D10*
%TO.C,Q1*%
X280550000Y-114470000D03*
X269500000Y-116500000D03*
X280550000Y-119030000D03*
D11*
X272575000Y-118275000D03*
X275925000Y-115225000D03*
X272575000Y-115225000D03*
X275925000Y-118275000D03*
%TD*%
%TO.C,R111*%
G36*
G01*
X294874998Y-86475000D02*
X296125002Y-86475000D01*
G75*
G02*
X296375000Y-86724998I0J-249998D01*
G01*
X296375000Y-87350002D01*
G75*
G02*
X296125002Y-87600000I-249998J0D01*
G01*
X294874998Y-87600000D01*
G75*
G02*
X294625000Y-87350002I0J249998D01*
G01*
X294625000Y-86724998D01*
G75*
G02*
X294874998Y-86475000I249998J0D01*
G01*
G37*
G36*
G01*
X294874998Y-89400000D02*
X296125002Y-89400000D01*
G75*
G02*
X296375000Y-89649998I0J-249998D01*
G01*
X296375000Y-90275002D01*
G75*
G02*
X296125002Y-90525000I-249998J0D01*
G01*
X294874998Y-90525000D01*
G75*
G02*
X294625000Y-90275002I0J249998D01*
G01*
X294625000Y-89649998D01*
G75*
G02*
X294874998Y-89400000I249998J0D01*
G01*
G37*
%TD*%
%TO.C,R112*%
G36*
G01*
X303425000Y-80299998D02*
X303425000Y-81200002D01*
G75*
G02*
X303175002Y-81450000I-249998J0D01*
G01*
X302649998Y-81450000D01*
G75*
G02*
X302400000Y-81200002I0J249998D01*
G01*
X302400000Y-80299998D01*
G75*
G02*
X302649998Y-80050000I249998J0D01*
G01*
X303175002Y-80050000D01*
G75*
G02*
X303425000Y-80299998I0J-249998D01*
G01*
G37*
G36*
G01*
X301600000Y-80299998D02*
X301600000Y-81200002D01*
G75*
G02*
X301350002Y-81450000I-249998J0D01*
G01*
X300824998Y-81450000D01*
G75*
G02*
X300575000Y-81200002I0J249998D01*
G01*
X300575000Y-80299998D01*
G75*
G02*
X300824998Y-80050000I249998J0D01*
G01*
X301350002Y-80050000D01*
G75*
G02*
X301600000Y-80299998I0J-249998D01*
G01*
G37*
%TD*%
%TO.C,R5*%
G36*
G01*
X80300000Y-99925000D02*
X80300000Y-102075000D01*
G75*
G02*
X80050000Y-102325000I-250000J0D01*
G01*
X79325000Y-102325000D01*
G75*
G02*
X79075000Y-102075000I0J250000D01*
G01*
X79075000Y-99925000D01*
G75*
G02*
X79325000Y-99675000I250000J0D01*
G01*
X80050000Y-99675000D01*
G75*
G02*
X80300000Y-99925000I0J-250000D01*
G01*
G37*
G36*
G01*
X84925000Y-99925000D02*
X84925000Y-102075000D01*
G75*
G02*
X84675000Y-102325000I-250000J0D01*
G01*
X83950000Y-102325000D01*
G75*
G02*
X83700000Y-102075000I0J250000D01*
G01*
X83700000Y-99925000D01*
G75*
G02*
X83950000Y-99675000I250000J0D01*
G01*
X84675000Y-99675000D01*
G75*
G02*
X84925000Y-99925000I0J-250000D01*
G01*
G37*
%TD*%
%TO.C,R113*%
G36*
G01*
X79075000Y-108075000D02*
X79075000Y-105925000D01*
G75*
G02*
X79325000Y-105675000I250000J0D01*
G01*
X80050000Y-105675000D01*
G75*
G02*
X80300000Y-105925000I0J-250000D01*
G01*
X80300000Y-108075000D01*
G75*
G02*
X80050000Y-108325000I-250000J0D01*
G01*
X79325000Y-108325000D01*
G75*
G02*
X79075000Y-108075000I0J250000D01*
G01*
G37*
G36*
G01*
X83700000Y-108075000D02*
X83700000Y-105925000D01*
G75*
G02*
X83950000Y-105675000I250000J0D01*
G01*
X84675000Y-105675000D01*
G75*
G02*
X84925000Y-105925000I0J-250000D01*
G01*
X84925000Y-108075000D01*
G75*
G02*
X84675000Y-108325000I-250000J0D01*
G01*
X83950000Y-108325000D01*
G75*
G02*
X83700000Y-108075000I0J250000D01*
G01*
G37*
%TD*%
%TO.C,R114*%
G36*
G01*
X80300000Y-111925000D02*
X80300000Y-114075000D01*
G75*
G02*
X80050000Y-114325000I-250000J0D01*
G01*
X79325000Y-114325000D01*
G75*
G02*
X79075000Y-114075000I0J250000D01*
G01*
X79075000Y-111925000D01*
G75*
G02*
X79325000Y-111675000I250000J0D01*
G01*
X80050000Y-111675000D01*
G75*
G02*
X80300000Y-111925000I0J-250000D01*
G01*
G37*
G36*
G01*
X84925000Y-111925000D02*
X84925000Y-114075000D01*
G75*
G02*
X84675000Y-114325000I-250000J0D01*
G01*
X83950000Y-114325000D01*
G75*
G02*
X83700000Y-114075000I0J250000D01*
G01*
X83700000Y-111925000D01*
G75*
G02*
X83950000Y-111675000I250000J0D01*
G01*
X84675000Y-111675000D01*
G75*
G02*
X84925000Y-111925000I0J-250000D01*
G01*
G37*
%TD*%
%TO.C,R115*%
G36*
G01*
X79075000Y-120075000D02*
X79075000Y-117925000D01*
G75*
G02*
X79325000Y-117675000I250000J0D01*
G01*
X80050000Y-117675000D01*
G75*
G02*
X80300000Y-117925000I0J-250000D01*
G01*
X80300000Y-120075000D01*
G75*
G02*
X80050000Y-120325000I-250000J0D01*
G01*
X79325000Y-120325000D01*
G75*
G02*
X79075000Y-120075000I0J250000D01*
G01*
G37*
G36*
G01*
X83700000Y-120075000D02*
X83700000Y-117925000D01*
G75*
G02*
X83950000Y-117675000I250000J0D01*
G01*
X84675000Y-117675000D01*
G75*
G02*
X84925000Y-117925000I0J-250000D01*
G01*
X84925000Y-120075000D01*
G75*
G02*
X84675000Y-120325000I-250000J0D01*
G01*
X83950000Y-120325000D01*
G75*
G02*
X83700000Y-120075000I0J250000D01*
G01*
G37*
%TD*%
%TO.C,R116*%
G36*
G01*
X80300000Y-151925000D02*
X80300000Y-154075000D01*
G75*
G02*
X80050000Y-154325000I-250000J0D01*
G01*
X79325000Y-154325000D01*
G75*
G02*
X79075000Y-154075000I0J250000D01*
G01*
X79075000Y-151925000D01*
G75*
G02*
X79325000Y-151675000I250000J0D01*
G01*
X80050000Y-151675000D01*
G75*
G02*
X80300000Y-151925000I0J-250000D01*
G01*
G37*
G36*
G01*
X84925000Y-151925000D02*
X84925000Y-154075000D01*
G75*
G02*
X84675000Y-154325000I-250000J0D01*
G01*
X83950000Y-154325000D01*
G75*
G02*
X83700000Y-154075000I0J250000D01*
G01*
X83700000Y-151925000D01*
G75*
G02*
X83950000Y-151675000I250000J0D01*
G01*
X84675000Y-151675000D01*
G75*
G02*
X84925000Y-151925000I0J-250000D01*
G01*
G37*
%TD*%
%TO.C,R117*%
G36*
G01*
X79075000Y-160075000D02*
X79075000Y-157925000D01*
G75*
G02*
X79325000Y-157675000I250000J0D01*
G01*
X80050000Y-157675000D01*
G75*
G02*
X80300000Y-157925000I0J-250000D01*
G01*
X80300000Y-160075000D01*
G75*
G02*
X80050000Y-160325000I-250000J0D01*
G01*
X79325000Y-160325000D01*
G75*
G02*
X79075000Y-160075000I0J250000D01*
G01*
G37*
G36*
G01*
X83700000Y-160075000D02*
X83700000Y-157925000D01*
G75*
G02*
X83950000Y-157675000I250000J0D01*
G01*
X84675000Y-157675000D01*
G75*
G02*
X84925000Y-157925000I0J-250000D01*
G01*
X84925000Y-160075000D01*
G75*
G02*
X84675000Y-160325000I-250000J0D01*
G01*
X83950000Y-160325000D01*
G75*
G02*
X83700000Y-160075000I0J250000D01*
G01*
G37*
%TD*%
%TO.C,R118*%
G36*
G01*
X80300000Y-163925000D02*
X80300000Y-166075000D01*
G75*
G02*
X80050000Y-166325000I-250000J0D01*
G01*
X79325000Y-166325000D01*
G75*
G02*
X79075000Y-166075000I0J250000D01*
G01*
X79075000Y-163925000D01*
G75*
G02*
X79325000Y-163675000I250000J0D01*
G01*
X80050000Y-163675000D01*
G75*
G02*
X80300000Y-163925000I0J-250000D01*
G01*
G37*
G36*
G01*
X84925000Y-163925000D02*
X84925000Y-166075000D01*
G75*
G02*
X84675000Y-166325000I-250000J0D01*
G01*
X83950000Y-166325000D01*
G75*
G02*
X83700000Y-166075000I0J250000D01*
G01*
X83700000Y-163925000D01*
G75*
G02*
X83950000Y-163675000I250000J0D01*
G01*
X84675000Y-163675000D01*
G75*
G02*
X84925000Y-163925000I0J-250000D01*
G01*
G37*
%TD*%
%TO.C,R119*%
G36*
G01*
X79075000Y-172075000D02*
X79075000Y-169925000D01*
G75*
G02*
X79325000Y-169675000I250000J0D01*
G01*
X80050000Y-169675000D01*
G75*
G02*
X80300000Y-169925000I0J-250000D01*
G01*
X80300000Y-172075000D01*
G75*
G02*
X80050000Y-172325000I-250000J0D01*
G01*
X79325000Y-172325000D01*
G75*
G02*
X79075000Y-172075000I0J250000D01*
G01*
G37*
G36*
G01*
X83700000Y-172075000D02*
X83700000Y-169925000D01*
G75*
G02*
X83950000Y-169675000I250000J0D01*
G01*
X84675000Y-169675000D01*
G75*
G02*
X84925000Y-169925000I0J-250000D01*
G01*
X84925000Y-172075000D01*
G75*
G02*
X84675000Y-172325000I-250000J0D01*
G01*
X83950000Y-172325000D01*
G75*
G02*
X83700000Y-172075000I0J250000D01*
G01*
G37*
%TD*%
%TO.C,TH1*%
G36*
G01*
X179049999Y-86575000D02*
X179950001Y-86575000D01*
G75*
G02*
X180200000Y-86824999I0J-249999D01*
G01*
X180200000Y-87350001D01*
G75*
G02*
X179950001Y-87600000I-249999J0D01*
G01*
X179049999Y-87600000D01*
G75*
G02*
X178800000Y-87350001I0J249999D01*
G01*
X178800000Y-86824999D01*
G75*
G02*
X179049999Y-86575000I249999J0D01*
G01*
G37*
G36*
G01*
X179049999Y-88400000D02*
X179950001Y-88400000D01*
G75*
G02*
X180200000Y-88649999I0J-249999D01*
G01*
X180200000Y-89175001D01*
G75*
G02*
X179950001Y-89425000I-249999J0D01*
G01*
X179049999Y-89425000D01*
G75*
G02*
X178800000Y-89175001I0J249999D01*
G01*
X178800000Y-88649999D01*
G75*
G02*
X179049999Y-88400000I249999J0D01*
G01*
G37*
%TD*%
M02*
