%TF.GenerationSoftware,KiCad,Pcbnew,(5.1.9-0-10_14)*%
%TF.CreationDate,2022-12-08T20:25:56-05:00*%
%TF.ProjectId,5AhG3-12S,35416847-332d-4313-9253-2e6b69636164,rev?*%
%TF.SameCoordinates,Original*%
%TF.FileFunction,Copper,L1,Top*%
%TF.FilePolarity,Positive*%
%FSLAX46Y46*%
G04 Gerber Fmt 4.6, Leading zero omitted, Abs format (unit mm)*
G04 Created by KiCad (PCBNEW (5.1.9-0-10_14)) date 2022-12-08 20:25:56*
%MOMM*%
%LPD*%
G01*
G04 APERTURE LIST*
%TA.AperFunction,ComponentPad*%
%ADD10C,3.000000*%
%TD*%
%TA.AperFunction,ComponentPad*%
%ADD11R,1.700000X1.700000*%
%TD*%
%TA.AperFunction,ComponentPad*%
%ADD12O,1.700000X1.700000*%
%TD*%
%TA.AperFunction,ComponentPad*%
%ADD13O,3.600000X1.800000*%
%TD*%
%TA.AperFunction,ViaPad*%
%ADD14C,0.800000*%
%TD*%
%TA.AperFunction,Conductor*%
%ADD15C,1.500000*%
%TD*%
%TA.AperFunction,Conductor*%
%ADD16C,0.750000*%
%TD*%
%TA.AperFunction,NonConductor*%
%ADD17C,0.254000*%
%TD*%
%TA.AperFunction,NonConductor*%
%ADD18C,0.100000*%
%TD*%
G04 APERTURE END LIST*
D10*
%TO.P,F1,1*%
%TO.N,/HVDC_POS*%
X290500000Y-92500000D03*
%TO.P,F1,2*%
%TO.N,/HVDC_POS_UNFUSED*%
X290500000Y-115000000D03*
%TD*%
D11*
%TO.P,J1,1*%
%TO.N,/GND_SAFE*%
X308500000Y-92500000D03*
D12*
%TO.P,J1,2*%
%TO.N,/GPIO*%
X311040000Y-92500000D03*
%TD*%
%TO.P,J2,1*%
%TO.N,/HVDC_NEG*%
%TA.AperFunction,ComponentPad*%
G36*
G01*
X300550000Y-106900000D02*
X297450000Y-106900000D01*
G75*
G02*
X297200000Y-106650000I0J250000D01*
G01*
X297200000Y-105350000D01*
G75*
G02*
X297450000Y-105100000I250000J0D01*
G01*
X300550000Y-105100000D01*
G75*
G02*
X300800000Y-105350000I0J-250000D01*
G01*
X300800000Y-106650000D01*
G75*
G02*
X300550000Y-106900000I-250000J0D01*
G01*
G37*
%TD.AperFunction*%
D13*
%TO.P,J2,2*%
%TO.N,/HVDC_POS_UNFUSED*%
X299000000Y-102500000D03*
%TD*%
D11*
%TO.P,J5,1*%
%TO.N,/TEMP_NEG*%
X84000000Y-92500000D03*
D12*
%TO.P,J5,2*%
%TO.N,/TEMP_POS*%
X84000000Y-95040000D03*
%TD*%
%TO.P,J3,1*%
%TO.N,/HVDC_POS*%
%TA.AperFunction,ComponentPad*%
G36*
G01*
X300550000Y-99900000D02*
X297450000Y-99900000D01*
G75*
G02*
X297200000Y-99650000I0J250000D01*
G01*
X297200000Y-98350000D01*
G75*
G02*
X297450000Y-98100000I250000J0D01*
G01*
X300550000Y-98100000D01*
G75*
G02*
X300800000Y-98350000I0J-250000D01*
G01*
X300800000Y-99650000D01*
G75*
G02*
X300550000Y-99900000I-250000J0D01*
G01*
G37*
%TD.AperFunction*%
D13*
%TO.P,J3,2*%
X299000000Y-95500000D03*
%TD*%
%TO.P,J4,2*%
%TO.N,/HVDC_NEG_SWITCHED*%
X299000000Y-109500000D03*
%TO.P,J4,1*%
%TA.AperFunction,ComponentPad*%
G36*
G01*
X300550000Y-113900000D02*
X297450000Y-113900000D01*
G75*
G02*
X297200000Y-113650000I0J250000D01*
G01*
X297200000Y-112350000D01*
G75*
G02*
X297450000Y-112100000I250000J0D01*
G01*
X300550000Y-112100000D01*
G75*
G02*
X300800000Y-112350000I0J-250000D01*
G01*
X300800000Y-113650000D01*
G75*
G02*
X300550000Y-113900000I-250000J0D01*
G01*
G37*
%TD.AperFunction*%
%TD*%
D14*
%TO.N,/Q1_GATE*%
X282750000Y-116000000D03*
X297250000Y-88250000D03*
%TD*%
D15*
%TO.N,/HVDC_POS*%
X291000000Y-92000000D02*
X290500000Y-92500000D01*
D16*
%TO.N,/Q1_GATE*%
X299750000Y-116750000D02*
X293750000Y-122750000D01*
X303500000Y-115250000D02*
X302000000Y-116750000D01*
X282750000Y-118500000D02*
X282750000Y-116000000D01*
X293750000Y-122750000D02*
X287000000Y-122750000D01*
X303500000Y-94500000D02*
X303500000Y-115250000D01*
X302000000Y-116750000D02*
X299750000Y-116750000D01*
X287000000Y-122750000D02*
X282750000Y-118500000D01*
X297250000Y-88250000D02*
X303500000Y-94500000D01*
%TD*%
D17*
X167096257Y-76140769D02*
X167185955Y-76177923D01*
X167262976Y-76237024D01*
X167322077Y-76314045D01*
X167359231Y-76403743D01*
X167373000Y-76508328D01*
X167373000Y-100491672D01*
X167359231Y-100596257D01*
X167322077Y-100685955D01*
X167262976Y-100762976D01*
X167185955Y-100822077D01*
X167096257Y-100859231D01*
X166991672Y-100873000D01*
X96465435Y-100873000D01*
X96360850Y-100859231D01*
X96271155Y-100822078D01*
X96187472Y-100757866D01*
X91486250Y-96056644D01*
X91473760Y-96045691D01*
X91370206Y-95966231D01*
X91341494Y-95949654D01*
X91220904Y-95899704D01*
X91188880Y-95891123D01*
X91059470Y-95874086D01*
X91042893Y-95873000D01*
X85794850Y-95873000D01*
X85901025Y-95616670D01*
X85977000Y-95234718D01*
X85977000Y-94845282D01*
X85901025Y-94463330D01*
X85751995Y-94103539D01*
X85723958Y-94061579D01*
X85791600Y-93979157D01*
X85896250Y-93783371D01*
X85960693Y-93570931D01*
X85982453Y-93350000D01*
X85982453Y-91650000D01*
X85960693Y-91429069D01*
X85896250Y-91216629D01*
X85791600Y-91020843D01*
X85650765Y-90849235D01*
X85479157Y-90708400D01*
X85283371Y-90603750D01*
X85070931Y-90539307D01*
X84850000Y-90517547D01*
X83150000Y-90517547D01*
X82929069Y-90539307D01*
X82716629Y-90603750D01*
X82520843Y-90708400D01*
X82349235Y-90849235D01*
X82208400Y-91020843D01*
X82103750Y-91216629D01*
X82039307Y-91429069D01*
X82017547Y-91650000D01*
X82017547Y-93350000D01*
X82039307Y-93570931D01*
X82103750Y-93783371D01*
X82208400Y-93979157D01*
X82276042Y-94061579D01*
X82248005Y-94103539D01*
X82098975Y-94463330D01*
X82023000Y-94845282D01*
X82023000Y-95234718D01*
X82098975Y-95616670D01*
X82205150Y-95873000D01*
X80086512Y-95873000D01*
X80056945Y-95724359D01*
X79856494Y-95240428D01*
X79565484Y-94804901D01*
X79195099Y-94434516D01*
X78759572Y-94143506D01*
X78275641Y-93943055D01*
X77761902Y-93840866D01*
X77238098Y-93840866D01*
X76724359Y-93943055D01*
X76240428Y-94143506D01*
X75804901Y-94434516D01*
X75434516Y-94804901D01*
X75152000Y-95227716D01*
X75152000Y-91772284D01*
X75434516Y-92195099D01*
X75804901Y-92565484D01*
X76240428Y-92856494D01*
X76724359Y-93056945D01*
X77238098Y-93159134D01*
X77761902Y-93159134D01*
X78275641Y-93056945D01*
X78759572Y-92856494D01*
X79195099Y-92565484D01*
X79565484Y-92195099D01*
X79856494Y-91759572D01*
X80056945Y-91275641D01*
X80159134Y-90761902D01*
X80159134Y-90238098D01*
X80056945Y-89724359D01*
X79856494Y-89240428D01*
X79565484Y-88804901D01*
X79195099Y-88434516D01*
X78759572Y-88143506D01*
X78275641Y-87943055D01*
X77761902Y-87840866D01*
X77238098Y-87840866D01*
X76724359Y-87943055D01*
X76240428Y-88143506D01*
X75804901Y-88434516D01*
X75434516Y-88804901D01*
X75152000Y-89227716D01*
X75152000Y-76376629D01*
X75177923Y-76314045D01*
X75237024Y-76237024D01*
X75314045Y-76177923D01*
X75403743Y-76140769D01*
X75508328Y-76127000D01*
X166991672Y-76127000D01*
X167096257Y-76140769D01*
%TA.AperFunction,NonConductor*%
D18*
G36*
X167096257Y-76140769D02*
G01*
X167185955Y-76177923D01*
X167262976Y-76237024D01*
X167322077Y-76314045D01*
X167359231Y-76403743D01*
X167373000Y-76508328D01*
X167373000Y-100491672D01*
X167359231Y-100596257D01*
X167322077Y-100685955D01*
X167262976Y-100762976D01*
X167185955Y-100822077D01*
X167096257Y-100859231D01*
X166991672Y-100873000D01*
X96465435Y-100873000D01*
X96360850Y-100859231D01*
X96271155Y-100822078D01*
X96187472Y-100757866D01*
X91486250Y-96056644D01*
X91473760Y-96045691D01*
X91370206Y-95966231D01*
X91341494Y-95949654D01*
X91220904Y-95899704D01*
X91188880Y-95891123D01*
X91059470Y-95874086D01*
X91042893Y-95873000D01*
X85794850Y-95873000D01*
X85901025Y-95616670D01*
X85977000Y-95234718D01*
X85977000Y-94845282D01*
X85901025Y-94463330D01*
X85751995Y-94103539D01*
X85723958Y-94061579D01*
X85791600Y-93979157D01*
X85896250Y-93783371D01*
X85960693Y-93570931D01*
X85982453Y-93350000D01*
X85982453Y-91650000D01*
X85960693Y-91429069D01*
X85896250Y-91216629D01*
X85791600Y-91020843D01*
X85650765Y-90849235D01*
X85479157Y-90708400D01*
X85283371Y-90603750D01*
X85070931Y-90539307D01*
X84850000Y-90517547D01*
X83150000Y-90517547D01*
X82929069Y-90539307D01*
X82716629Y-90603750D01*
X82520843Y-90708400D01*
X82349235Y-90849235D01*
X82208400Y-91020843D01*
X82103750Y-91216629D01*
X82039307Y-91429069D01*
X82017547Y-91650000D01*
X82017547Y-93350000D01*
X82039307Y-93570931D01*
X82103750Y-93783371D01*
X82208400Y-93979157D01*
X82276042Y-94061579D01*
X82248005Y-94103539D01*
X82098975Y-94463330D01*
X82023000Y-94845282D01*
X82023000Y-95234718D01*
X82098975Y-95616670D01*
X82205150Y-95873000D01*
X80086512Y-95873000D01*
X80056945Y-95724359D01*
X79856494Y-95240428D01*
X79565484Y-94804901D01*
X79195099Y-94434516D01*
X78759572Y-94143506D01*
X78275641Y-93943055D01*
X77761902Y-93840866D01*
X77238098Y-93840866D01*
X76724359Y-93943055D01*
X76240428Y-94143506D01*
X75804901Y-94434516D01*
X75434516Y-94804901D01*
X75152000Y-95227716D01*
X75152000Y-91772284D01*
X75434516Y-92195099D01*
X75804901Y-92565484D01*
X76240428Y-92856494D01*
X76724359Y-93056945D01*
X77238098Y-93159134D01*
X77761902Y-93159134D01*
X78275641Y-93056945D01*
X78759572Y-92856494D01*
X79195099Y-92565484D01*
X79565484Y-92195099D01*
X79856494Y-91759572D01*
X80056945Y-91275641D01*
X80159134Y-90761902D01*
X80159134Y-90238098D01*
X80056945Y-89724359D01*
X79856494Y-89240428D01*
X79565484Y-88804901D01*
X79195099Y-88434516D01*
X78759572Y-88143506D01*
X78275641Y-87943055D01*
X77761902Y-87840866D01*
X77238098Y-87840866D01*
X76724359Y-87943055D01*
X76240428Y-88143506D01*
X75804901Y-88434516D01*
X75434516Y-88804901D01*
X75152000Y-89227716D01*
X75152000Y-76376629D01*
X75177923Y-76314045D01*
X75237024Y-76237024D01*
X75314045Y-76177923D01*
X75403743Y-76140769D01*
X75508328Y-76127000D01*
X166991672Y-76127000D01*
X167096257Y-76140769D01*
G37*
%TD.AperFunction*%
D17*
X278346257Y-76140769D02*
X278435955Y-76177923D01*
X278512976Y-76237024D01*
X278572077Y-76314045D01*
X278609231Y-76403743D01*
X278623000Y-76508328D01*
X278623000Y-97284565D01*
X278609231Y-97389150D01*
X278572078Y-97478845D01*
X278507866Y-97562528D01*
X275312528Y-100757866D01*
X275228845Y-100822078D01*
X275139150Y-100859231D01*
X275034565Y-100873000D01*
X192008328Y-100873000D01*
X191903743Y-100859231D01*
X191814045Y-100822077D01*
X191737024Y-100762976D01*
X191677923Y-100685955D01*
X191640769Y-100596257D01*
X191627000Y-100491672D01*
X191627000Y-76508328D01*
X191640769Y-76403743D01*
X191677923Y-76314045D01*
X191737024Y-76237024D01*
X191814045Y-76177923D01*
X191903743Y-76140769D01*
X192008328Y-76127000D01*
X278241672Y-76127000D01*
X278346257Y-76140769D01*
%TA.AperFunction,NonConductor*%
D18*
G36*
X278346257Y-76140769D02*
G01*
X278435955Y-76177923D01*
X278512976Y-76237024D01*
X278572077Y-76314045D01*
X278609231Y-76403743D01*
X278623000Y-76508328D01*
X278623000Y-97284565D01*
X278609231Y-97389150D01*
X278572078Y-97478845D01*
X278507866Y-97562528D01*
X275312528Y-100757866D01*
X275228845Y-100822078D01*
X275139150Y-100859231D01*
X275034565Y-100873000D01*
X192008328Y-100873000D01*
X191903743Y-100859231D01*
X191814045Y-100822077D01*
X191737024Y-100762976D01*
X191677923Y-100685955D01*
X191640769Y-100596257D01*
X191627000Y-100491672D01*
X191627000Y-76508328D01*
X191640769Y-76403743D01*
X191677923Y-76314045D01*
X191737024Y-76237024D01*
X191814045Y-76177923D01*
X191903743Y-76140769D01*
X192008328Y-76127000D01*
X278241672Y-76127000D01*
X278346257Y-76140769D01*
G37*
%TD.AperFunction*%
D17*
X279096257Y-171140769D02*
X279185955Y-171177923D01*
X279262976Y-171237024D01*
X279322077Y-171314045D01*
X279348001Y-171376630D01*
X279348001Y-195623369D01*
X279322077Y-195685955D01*
X279262976Y-195762976D01*
X279185955Y-195822077D01*
X279096257Y-195859231D01*
X278991672Y-195873000D01*
X75508328Y-195873000D01*
X75403743Y-195859231D01*
X75314045Y-195822077D01*
X75237024Y-195762976D01*
X75177923Y-195685955D01*
X75152000Y-195623371D01*
X75152000Y-179376629D01*
X75177923Y-179314045D01*
X75237024Y-179237024D01*
X75314045Y-179177923D01*
X75403743Y-179140769D01*
X75508328Y-179127000D01*
X89792893Y-179127000D01*
X89809470Y-179125914D01*
X89938880Y-179108877D01*
X89970904Y-179100296D01*
X90091494Y-179050346D01*
X90120206Y-179033769D01*
X90223760Y-178954309D01*
X90236250Y-178943356D01*
X97937472Y-171242134D01*
X98021155Y-171177922D01*
X98110850Y-171140769D01*
X98215435Y-171127000D01*
X278991672Y-171127000D01*
X279096257Y-171140769D01*
%TA.AperFunction,NonConductor*%
D18*
G36*
X279096257Y-171140769D02*
G01*
X279185955Y-171177923D01*
X279262976Y-171237024D01*
X279322077Y-171314045D01*
X279348001Y-171376630D01*
X279348001Y-195623369D01*
X279322077Y-195685955D01*
X279262976Y-195762976D01*
X279185955Y-195822077D01*
X279096257Y-195859231D01*
X278991672Y-195873000D01*
X75508328Y-195873000D01*
X75403743Y-195859231D01*
X75314045Y-195822077D01*
X75237024Y-195762976D01*
X75177923Y-195685955D01*
X75152000Y-195623371D01*
X75152000Y-179376629D01*
X75177923Y-179314045D01*
X75237024Y-179237024D01*
X75314045Y-179177923D01*
X75403743Y-179140769D01*
X75508328Y-179127000D01*
X89792893Y-179127000D01*
X89809470Y-179125914D01*
X89938880Y-179108877D01*
X89970904Y-179100296D01*
X90091494Y-179050346D01*
X90120206Y-179033769D01*
X90223760Y-178954309D01*
X90236250Y-178943356D01*
X97937472Y-171242134D01*
X98021155Y-171177922D01*
X98110850Y-171140769D01*
X98215435Y-171127000D01*
X278991672Y-171127000D01*
X279096257Y-171140769D01*
G37*
%TD.AperFunction*%
M02*
