%TF.GenerationSoftware,KiCad,Pcbnew,(5.1.9-0-10_14)*%
%TF.CreationDate,2022-12-08T20:25:56-05:00*%
%TF.ProjectId,5AhG3-12S,35416847-332d-4313-9253-2e6b69636164,rev?*%
%TF.SameCoordinates,Original*%
%TF.FileFunction,Legend,Top*%
%TF.FilePolarity,Positive*%
%FSLAX46Y46*%
G04 Gerber Fmt 4.6, Leading zero omitted, Abs format (unit mm)*
G04 Created by KiCad (PCBNEW (5.1.9-0-10_14)) date 2022-12-08 20:25:56*
%MOMM*%
%LPD*%
G01*
G04 APERTURE LIST*
%ADD10C,0.500000*%
%ADD11C,0.250000*%
%ADD12C,0.100000*%
%ADD13C,0.150000*%
%ADD14C,1.000000*%
%ADD15C,0.120000*%
G04 APERTURE END LIST*
D10*
X80032142Y-92357142D02*
X81746428Y-92357142D01*
X80889285Y-95357142D02*
X80889285Y-92357142D01*
X82746428Y-93785714D02*
X83746428Y-93785714D01*
X84175000Y-95357142D02*
X82746428Y-95357142D01*
X82746428Y-92357142D01*
X84175000Y-92357142D01*
X85460714Y-95357142D02*
X85460714Y-92357142D01*
X86460714Y-94500000D01*
X87460714Y-92357142D01*
X87460714Y-95357142D01*
X88889285Y-95357142D02*
X88889285Y-92357142D01*
X90032142Y-92357142D01*
X90317857Y-92500000D01*
X90460714Y-92642857D01*
X90603571Y-92928571D01*
X90603571Y-93357142D01*
X90460714Y-93642857D01*
X90317857Y-93785714D01*
X90032142Y-93928571D01*
X88889285Y-93928571D01*
D11*
X179500000Y-88000000D02*
X74000000Y-88000000D01*
X179500000Y-88000000D02*
X179500000Y-74000000D01*
D12*
G36*
X182000000Y-90500000D02*
G01*
X177000000Y-90500000D01*
X177000000Y-85500000D01*
X182000000Y-85500000D01*
X182000000Y-90500000D01*
G37*
X182000000Y-90500000D02*
X177000000Y-90500000D01*
X177000000Y-85500000D01*
X182000000Y-85500000D01*
X182000000Y-90500000D01*
D13*
X76000000Y-192875000D02*
X76000000Y-194291666D01*
X75916666Y-194458333D01*
X75833333Y-194541666D01*
X75666666Y-194625000D01*
X75416666Y-194625000D01*
X75250000Y-194541666D01*
X76000000Y-193958333D02*
X75833333Y-194041666D01*
X75500000Y-194041666D01*
X75333333Y-193958333D01*
X75250000Y-193875000D01*
X75166666Y-193708333D01*
X75166666Y-193208333D01*
X75250000Y-193041666D01*
X75333333Y-192958333D01*
X75500000Y-192875000D01*
X75833333Y-192875000D01*
X76000000Y-192958333D01*
X76833333Y-194041666D02*
X76833333Y-192875000D01*
X76833333Y-192291666D02*
X76750000Y-192375000D01*
X76833333Y-192458333D01*
X76916666Y-192375000D01*
X76833333Y-192291666D01*
X76833333Y-192458333D01*
X77416666Y-192875000D02*
X78083333Y-192875000D01*
X77666666Y-192291666D02*
X77666666Y-193791666D01*
X77750000Y-193958333D01*
X77916666Y-194041666D01*
X78083333Y-194041666D01*
X78666666Y-194041666D02*
X78666666Y-192291666D01*
X79416666Y-194041666D02*
X79416666Y-193125000D01*
X79333333Y-192958333D01*
X79166666Y-192875000D01*
X78916666Y-192875000D01*
X78750000Y-192958333D01*
X78666666Y-193041666D01*
X81000000Y-192875000D02*
X81000000Y-194041666D01*
X80250000Y-192875000D02*
X80250000Y-193791666D01*
X80333333Y-193958333D01*
X80500000Y-194041666D01*
X80750000Y-194041666D01*
X80916666Y-193958333D01*
X81000000Y-193875000D01*
X81833333Y-194041666D02*
X81833333Y-192291666D01*
X81833333Y-192958333D02*
X82000000Y-192875000D01*
X82333333Y-192875000D01*
X82500000Y-192958333D01*
X82583333Y-193041666D01*
X82666666Y-193208333D01*
X82666666Y-193708333D01*
X82583333Y-193875000D01*
X82500000Y-193958333D01*
X82333333Y-194041666D01*
X82000000Y-194041666D01*
X81833333Y-193958333D01*
X83416666Y-193875000D02*
X83500000Y-193958333D01*
X83416666Y-194041666D01*
X83333333Y-193958333D01*
X83416666Y-193875000D01*
X83416666Y-194041666D01*
X85000000Y-193958333D02*
X84833333Y-194041666D01*
X84500000Y-194041666D01*
X84333333Y-193958333D01*
X84250000Y-193875000D01*
X84166666Y-193708333D01*
X84166666Y-193208333D01*
X84250000Y-193041666D01*
X84333333Y-192958333D01*
X84500000Y-192875000D01*
X84833333Y-192875000D01*
X85000000Y-192958333D01*
X86000000Y-194041666D02*
X85833333Y-193958333D01*
X85750000Y-193875000D01*
X85666666Y-193708333D01*
X85666666Y-193208333D01*
X85750000Y-193041666D01*
X85833333Y-192958333D01*
X86000000Y-192875000D01*
X86250000Y-192875000D01*
X86416666Y-192958333D01*
X86500000Y-193041666D01*
X86583333Y-193208333D01*
X86583333Y-193708333D01*
X86500000Y-193875000D01*
X86416666Y-193958333D01*
X86250000Y-194041666D01*
X86000000Y-194041666D01*
X87333333Y-194041666D02*
X87333333Y-192875000D01*
X87333333Y-193041666D02*
X87416666Y-192958333D01*
X87583333Y-192875000D01*
X87833333Y-192875000D01*
X88000000Y-192958333D01*
X88083333Y-193125000D01*
X88083333Y-194041666D01*
X88083333Y-193125000D02*
X88166666Y-192958333D01*
X88333333Y-192875000D01*
X88583333Y-192875000D01*
X88750000Y-192958333D01*
X88833333Y-193125000D01*
X88833333Y-194041666D01*
X90916666Y-192208333D02*
X89416666Y-194458333D01*
X92250000Y-194041666D02*
X92250000Y-192291666D01*
X92250000Y-193958333D02*
X92083333Y-194041666D01*
X91750000Y-194041666D01*
X91583333Y-193958333D01*
X91500000Y-193875000D01*
X91416666Y-193708333D01*
X91416666Y-193208333D01*
X91500000Y-193041666D01*
X91583333Y-192958333D01*
X91750000Y-192875000D01*
X92083333Y-192875000D01*
X92250000Y-192958333D01*
X93333333Y-194041666D02*
X93166666Y-193958333D01*
X93083333Y-193875000D01*
X93000000Y-193708333D01*
X93000000Y-193208333D01*
X93083333Y-193041666D01*
X93166666Y-192958333D01*
X93333333Y-192875000D01*
X93583333Y-192875000D01*
X93750000Y-192958333D01*
X93833333Y-193041666D01*
X93916666Y-193208333D01*
X93916666Y-193708333D01*
X93833333Y-193875000D01*
X93750000Y-193958333D01*
X93583333Y-194041666D01*
X93333333Y-194041666D01*
X94666666Y-192875000D02*
X94666666Y-194625000D01*
X94666666Y-192958333D02*
X94833333Y-192875000D01*
X95166666Y-192875000D01*
X95333333Y-192958333D01*
X95416666Y-193041666D01*
X95500000Y-193208333D01*
X95500000Y-193708333D01*
X95416666Y-193875000D01*
X95333333Y-193958333D01*
X95166666Y-194041666D01*
X94833333Y-194041666D01*
X94666666Y-193958333D01*
X96250000Y-192875000D02*
X96250000Y-194625000D01*
X96250000Y-192958333D02*
X96416666Y-192875000D01*
X96750000Y-192875000D01*
X96916666Y-192958333D01*
X97000000Y-193041666D01*
X97083333Y-193208333D01*
X97083333Y-193708333D01*
X97000000Y-193875000D01*
X96916666Y-193958333D01*
X96750000Y-194041666D01*
X96416666Y-194041666D01*
X96250000Y-193958333D01*
X98500000Y-193958333D02*
X98333333Y-194041666D01*
X98000000Y-194041666D01*
X97833333Y-193958333D01*
X97750000Y-193791666D01*
X97750000Y-193125000D01*
X97833333Y-192958333D01*
X98000000Y-192875000D01*
X98333333Y-192875000D01*
X98500000Y-192958333D01*
X98583333Y-193125000D01*
X98583333Y-193291666D01*
X97750000Y-193458333D01*
X99583333Y-194041666D02*
X99416666Y-193958333D01*
X99333333Y-193791666D01*
X99333333Y-192291666D01*
X100250000Y-194041666D02*
X100250000Y-192291666D01*
X101000000Y-194041666D02*
X101000000Y-193125000D01*
X100916666Y-192958333D01*
X100750000Y-192875000D01*
X100500000Y-192875000D01*
X100333333Y-192958333D01*
X100250000Y-193041666D01*
X102583333Y-192875000D02*
X102583333Y-194041666D01*
X101833333Y-192875000D02*
X101833333Y-193791666D01*
X101916666Y-193958333D01*
X102083333Y-194041666D01*
X102333333Y-194041666D01*
X102500000Y-193958333D01*
X102583333Y-193875000D01*
X103416666Y-194041666D02*
X103416666Y-192291666D01*
X103416666Y-192958333D02*
X103583333Y-192875000D01*
X103916666Y-192875000D01*
X104083333Y-192958333D01*
X104166666Y-193041666D01*
X104250000Y-193208333D01*
X104250000Y-193708333D01*
X104166666Y-193875000D01*
X104083333Y-193958333D01*
X103916666Y-194041666D01*
X103583333Y-194041666D01*
X103416666Y-193958333D01*
X106250000Y-192208333D02*
X104750000Y-194458333D01*
X106833333Y-194041666D02*
X106833333Y-192291666D01*
X106833333Y-193125000D02*
X107833333Y-193125000D01*
X107833333Y-194041666D02*
X107833333Y-192291666D01*
X108916666Y-194041666D02*
X108750000Y-193958333D01*
X108666666Y-193875000D01*
X108583333Y-193708333D01*
X108583333Y-193208333D01*
X108666666Y-193041666D01*
X108750000Y-192958333D01*
X108916666Y-192875000D01*
X109166666Y-192875000D01*
X109333333Y-192958333D01*
X109416666Y-193041666D01*
X109500000Y-193208333D01*
X109500000Y-193708333D01*
X109416666Y-193875000D01*
X109333333Y-193958333D01*
X109166666Y-194041666D01*
X108916666Y-194041666D01*
X110250000Y-192875000D02*
X110250000Y-194041666D01*
X110250000Y-193041666D02*
X110333333Y-192958333D01*
X110500000Y-192875000D01*
X110750000Y-192875000D01*
X110916666Y-192958333D01*
X111000000Y-193125000D01*
X111000000Y-194041666D01*
X112583333Y-194041666D02*
X112583333Y-192291666D01*
X112583333Y-193958333D02*
X112416666Y-194041666D01*
X112083333Y-194041666D01*
X111916666Y-193958333D01*
X111833333Y-193875000D01*
X111750000Y-193708333D01*
X111750000Y-193208333D01*
X111833333Y-193041666D01*
X111916666Y-192958333D01*
X112083333Y-192875000D01*
X112416666Y-192875000D01*
X112583333Y-192958333D01*
X114166666Y-194041666D02*
X114166666Y-193125000D01*
X114083333Y-192958333D01*
X113916666Y-192875000D01*
X113583333Y-192875000D01*
X113416666Y-192958333D01*
X114166666Y-193958333D02*
X114000000Y-194041666D01*
X113583333Y-194041666D01*
X113416666Y-193958333D01*
X113333333Y-193791666D01*
X113333333Y-193625000D01*
X113416666Y-193458333D01*
X113583333Y-193375000D01*
X114000000Y-193375000D01*
X114166666Y-193291666D01*
X114583333Y-194208333D02*
X115916666Y-194208333D01*
X116333333Y-194041666D02*
X116333333Y-192291666D01*
X117166666Y-192875000D02*
X117166666Y-194041666D01*
X117166666Y-193041666D02*
X117250000Y-192958333D01*
X117416666Y-192875000D01*
X117666666Y-192875000D01*
X117833333Y-192958333D01*
X117916666Y-193125000D01*
X117916666Y-194041666D01*
X118666666Y-193958333D02*
X118833333Y-194041666D01*
X119166666Y-194041666D01*
X119333333Y-193958333D01*
X119416666Y-193791666D01*
X119416666Y-193708333D01*
X119333333Y-193541666D01*
X119166666Y-193458333D01*
X118916666Y-193458333D01*
X118750000Y-193375000D01*
X118666666Y-193208333D01*
X118666666Y-193125000D01*
X118750000Y-192958333D01*
X118916666Y-192875000D01*
X119166666Y-192875000D01*
X119333333Y-192958333D01*
X120166666Y-194041666D02*
X120166666Y-192875000D01*
X120166666Y-192291666D02*
X120083333Y-192375000D01*
X120166666Y-192458333D01*
X120250000Y-192375000D01*
X120166666Y-192291666D01*
X120166666Y-192458333D01*
X121750000Y-192875000D02*
X121750000Y-194291666D01*
X121666666Y-194458333D01*
X121583333Y-194541666D01*
X121416666Y-194625000D01*
X121166666Y-194625000D01*
X121000000Y-194541666D01*
X121750000Y-193958333D02*
X121583333Y-194041666D01*
X121250000Y-194041666D01*
X121083333Y-193958333D01*
X121000000Y-193875000D01*
X120916666Y-193708333D01*
X120916666Y-193208333D01*
X121000000Y-193041666D01*
X121083333Y-192958333D01*
X121250000Y-192875000D01*
X121583333Y-192875000D01*
X121750000Y-192958333D01*
X122583333Y-194041666D02*
X122583333Y-192291666D01*
X123333333Y-194041666D02*
X123333333Y-193125000D01*
X123250000Y-192958333D01*
X123083333Y-192875000D01*
X122833333Y-192875000D01*
X122666666Y-192958333D01*
X122583333Y-193041666D01*
X123916666Y-192875000D02*
X124583333Y-192875000D01*
X124166666Y-192291666D02*
X124166666Y-193791666D01*
X124250000Y-193958333D01*
X124416666Y-194041666D01*
X124583333Y-194041666D01*
X124750000Y-194208333D02*
X126083333Y-194208333D01*
X127333333Y-194041666D02*
X126500000Y-194041666D01*
X126500000Y-192291666D01*
X127916666Y-194041666D02*
X127916666Y-192875000D01*
X127916666Y-192291666D02*
X127833333Y-192375000D01*
X127916666Y-192458333D01*
X128000000Y-192375000D01*
X127916666Y-192291666D01*
X127916666Y-192458333D01*
X129333333Y-193125000D02*
X129583333Y-193208333D01*
X129666666Y-193291666D01*
X129750000Y-193458333D01*
X129750000Y-193708333D01*
X129666666Y-193875000D01*
X129583333Y-193958333D01*
X129416666Y-194041666D01*
X128750000Y-194041666D01*
X128750000Y-192291666D01*
X129333333Y-192291666D01*
X129500000Y-192375000D01*
X129583333Y-192458333D01*
X129666666Y-192625000D01*
X129666666Y-192791666D01*
X129583333Y-192958333D01*
X129500000Y-193041666D01*
X129333333Y-193125000D01*
X128750000Y-193125000D01*
X131500000Y-193875000D02*
X131416666Y-193958333D01*
X131166666Y-194041666D01*
X131000000Y-194041666D01*
X130750000Y-193958333D01*
X130583333Y-193791666D01*
X130500000Y-193625000D01*
X130416666Y-193291666D01*
X130416666Y-193041666D01*
X130500000Y-192708333D01*
X130583333Y-192541666D01*
X130750000Y-192375000D01*
X131000000Y-192291666D01*
X131166666Y-192291666D01*
X131416666Y-192375000D01*
X131500000Y-192458333D01*
X132250000Y-194041666D02*
X132250000Y-192291666D01*
X132833333Y-193541666D01*
X133416666Y-192291666D01*
X133416666Y-194041666D01*
X135500000Y-192208333D02*
X134000000Y-194458333D01*
X135833333Y-192875000D02*
X136500000Y-192875000D01*
X136083333Y-192291666D02*
X136083333Y-193791666D01*
X136166666Y-193958333D01*
X136333333Y-194041666D01*
X136500000Y-194041666D01*
X137083333Y-194041666D02*
X137083333Y-192875000D01*
X137083333Y-193208333D02*
X137166666Y-193041666D01*
X137250000Y-192958333D01*
X137416666Y-192875000D01*
X137583333Y-192875000D01*
X138833333Y-193958333D02*
X138666666Y-194041666D01*
X138333333Y-194041666D01*
X138166666Y-193958333D01*
X138083333Y-193791666D01*
X138083333Y-193125000D01*
X138166666Y-192958333D01*
X138333333Y-192875000D01*
X138666666Y-192875000D01*
X138833333Y-192958333D01*
X138916666Y-193125000D01*
X138916666Y-193291666D01*
X138083333Y-193458333D01*
X140333333Y-193958333D02*
X140166666Y-194041666D01*
X139833333Y-194041666D01*
X139666666Y-193958333D01*
X139583333Y-193791666D01*
X139583333Y-193125000D01*
X139666666Y-192958333D01*
X139833333Y-192875000D01*
X140166666Y-192875000D01*
X140333333Y-192958333D01*
X140416666Y-193125000D01*
X140416666Y-193291666D01*
X139583333Y-193458333D01*
X142416666Y-192208333D02*
X140916666Y-194458333D01*
X143000000Y-194041666D02*
X143000000Y-192875000D01*
X143000000Y-193041666D02*
X143083333Y-192958333D01*
X143250000Y-192875000D01*
X143500000Y-192875000D01*
X143666666Y-192958333D01*
X143750000Y-193125000D01*
X143750000Y-194041666D01*
X143750000Y-193125000D02*
X143833333Y-192958333D01*
X144000000Y-192875000D01*
X144250000Y-192875000D01*
X144416666Y-192958333D01*
X144500000Y-193125000D01*
X144500000Y-194041666D01*
X146083333Y-194041666D02*
X146083333Y-193125000D01*
X146000000Y-192958333D01*
X145833333Y-192875000D01*
X145500000Y-192875000D01*
X145333333Y-192958333D01*
X146083333Y-193958333D02*
X145916666Y-194041666D01*
X145500000Y-194041666D01*
X145333333Y-193958333D01*
X145250000Y-193791666D01*
X145250000Y-193625000D01*
X145333333Y-193458333D01*
X145500000Y-193375000D01*
X145916666Y-193375000D01*
X146083333Y-193291666D01*
X146916666Y-194041666D02*
X146916666Y-192875000D01*
X146916666Y-192291666D02*
X146833333Y-192375000D01*
X146916666Y-192458333D01*
X147000000Y-192375000D01*
X146916666Y-192291666D01*
X146916666Y-192458333D01*
X147750000Y-192875000D02*
X147750000Y-194041666D01*
X147750000Y-193041666D02*
X147833333Y-192958333D01*
X148000000Y-192875000D01*
X148250000Y-192875000D01*
X148416666Y-192958333D01*
X148500000Y-193125000D01*
X148500000Y-194041666D01*
X150583333Y-192208333D02*
X149083333Y-194458333D01*
X151166666Y-193125000D02*
X151750000Y-193125000D01*
X152000000Y-194041666D02*
X151166666Y-194041666D01*
X151166666Y-192291666D01*
X152000000Y-192291666D01*
X153000000Y-194041666D02*
X152833333Y-193958333D01*
X152750000Y-193791666D01*
X152750000Y-192291666D01*
X154333333Y-193958333D02*
X154166666Y-194041666D01*
X153833333Y-194041666D01*
X153666666Y-193958333D01*
X153583333Y-193791666D01*
X153583333Y-193125000D01*
X153666666Y-192958333D01*
X153833333Y-192875000D01*
X154166666Y-192875000D01*
X154333333Y-192958333D01*
X154416666Y-193125000D01*
X154416666Y-193291666D01*
X153583333Y-193458333D01*
X155916666Y-193958333D02*
X155750000Y-194041666D01*
X155416666Y-194041666D01*
X155250000Y-193958333D01*
X155166666Y-193875000D01*
X155083333Y-193708333D01*
X155083333Y-193208333D01*
X155166666Y-193041666D01*
X155250000Y-192958333D01*
X155416666Y-192875000D01*
X155750000Y-192875000D01*
X155916666Y-192958333D01*
X156416666Y-192875000D02*
X157083333Y-192875000D01*
X156666666Y-192291666D02*
X156666666Y-193791666D01*
X156750000Y-193958333D01*
X156916666Y-194041666D01*
X157083333Y-194041666D01*
X157666666Y-194041666D02*
X157666666Y-192875000D01*
X157666666Y-193208333D02*
X157750000Y-193041666D01*
X157833333Y-192958333D01*
X158000000Y-192875000D01*
X158166666Y-192875000D01*
X159000000Y-194041666D02*
X158833333Y-193958333D01*
X158750000Y-193875000D01*
X158666666Y-193708333D01*
X158666666Y-193208333D01*
X158750000Y-193041666D01*
X158833333Y-192958333D01*
X159000000Y-192875000D01*
X159250000Y-192875000D01*
X159416666Y-192958333D01*
X159500000Y-193041666D01*
X159583333Y-193208333D01*
X159583333Y-193708333D01*
X159500000Y-193875000D01*
X159416666Y-193958333D01*
X159250000Y-194041666D01*
X159000000Y-194041666D01*
X160333333Y-192875000D02*
X160333333Y-194041666D01*
X160333333Y-193041666D02*
X160416666Y-192958333D01*
X160583333Y-192875000D01*
X160833333Y-192875000D01*
X161000000Y-192958333D01*
X161083333Y-193125000D01*
X161083333Y-194041666D01*
X161916666Y-194041666D02*
X161916666Y-192875000D01*
X161916666Y-192291666D02*
X161833333Y-192375000D01*
X161916666Y-192458333D01*
X162000000Y-192375000D01*
X161916666Y-192291666D01*
X161916666Y-192458333D01*
X163500000Y-193958333D02*
X163333333Y-194041666D01*
X163000000Y-194041666D01*
X162833333Y-193958333D01*
X162750000Y-193875000D01*
X162666666Y-193708333D01*
X162666666Y-193208333D01*
X162750000Y-193041666D01*
X162833333Y-192958333D01*
X163000000Y-192875000D01*
X163333333Y-192875000D01*
X163500000Y-192958333D01*
X164166666Y-193958333D02*
X164333333Y-194041666D01*
X164666666Y-194041666D01*
X164833333Y-193958333D01*
X164916666Y-193791666D01*
X164916666Y-193708333D01*
X164833333Y-193541666D01*
X164666666Y-193458333D01*
X164416666Y-193458333D01*
X164250000Y-193375000D01*
X164166666Y-193208333D01*
X164166666Y-193125000D01*
X164250000Y-192958333D01*
X164416666Y-192875000D01*
X164666666Y-192875000D01*
X164833333Y-192958333D01*
X166916666Y-192208333D02*
X165416666Y-194458333D01*
X168333333Y-194041666D02*
X167500000Y-194041666D01*
X167500000Y-192291666D01*
X168916666Y-194041666D02*
X168916666Y-192875000D01*
X168916666Y-192291666D02*
X168833333Y-192375000D01*
X168916666Y-192458333D01*
X169000000Y-192375000D01*
X168916666Y-192291666D01*
X168916666Y-192458333D01*
X169500000Y-192875000D02*
X170166666Y-192875000D01*
X169750000Y-192291666D02*
X169750000Y-193791666D01*
X169833333Y-193958333D01*
X170000000Y-194041666D01*
X170166666Y-194041666D01*
X170750000Y-194041666D02*
X170750000Y-192291666D01*
X171500000Y-194041666D02*
X171500000Y-193125000D01*
X171416666Y-192958333D01*
X171250000Y-192875000D01*
X171000000Y-192875000D01*
X170833333Y-192958333D01*
X170750000Y-193041666D01*
X172333333Y-194041666D02*
X172333333Y-192875000D01*
X172333333Y-192291666D02*
X172250000Y-192375000D01*
X172333333Y-192458333D01*
X172416666Y-192375000D01*
X172333333Y-192291666D01*
X172333333Y-192458333D01*
X173916666Y-192875000D02*
X173916666Y-194041666D01*
X173166666Y-192875000D02*
X173166666Y-193791666D01*
X173250000Y-193958333D01*
X173416666Y-194041666D01*
X173666666Y-194041666D01*
X173833333Y-193958333D01*
X173916666Y-193875000D01*
X174750000Y-194041666D02*
X174750000Y-192875000D01*
X174750000Y-193041666D02*
X174833333Y-192958333D01*
X175000000Y-192875000D01*
X175250000Y-192875000D01*
X175416666Y-192958333D01*
X175500000Y-193125000D01*
X175500000Y-194041666D01*
X175500000Y-193125000D02*
X175583333Y-192958333D01*
X175750000Y-192875000D01*
X176000000Y-192875000D01*
X176166666Y-192958333D01*
X176250000Y-193125000D01*
X176250000Y-194041666D01*
X177000000Y-194041666D02*
X178333333Y-192291666D01*
X177250000Y-192291666D02*
X177416666Y-192375000D01*
X177500000Y-192541666D01*
X177416666Y-192708333D01*
X177250000Y-192791666D01*
X177083333Y-192708333D01*
X177000000Y-192541666D01*
X177083333Y-192375000D01*
X177250000Y-192291666D01*
X178250000Y-193958333D02*
X178333333Y-193791666D01*
X178250000Y-193625000D01*
X178083333Y-193541666D01*
X177916666Y-193625000D01*
X177833333Y-193791666D01*
X177916666Y-193958333D01*
X178083333Y-194041666D01*
X178250000Y-193958333D01*
X179000000Y-192458333D02*
X179083333Y-192375000D01*
X179250000Y-192291666D01*
X179666666Y-192291666D01*
X179833333Y-192375000D01*
X179916666Y-192458333D01*
X180000000Y-192625000D01*
X180000000Y-192791666D01*
X179916666Y-193041666D01*
X178916666Y-194041666D01*
X180000000Y-194041666D01*
X181083333Y-192291666D02*
X181250000Y-192291666D01*
X181416666Y-192375000D01*
X181500000Y-192458333D01*
X181583333Y-192625000D01*
X181666666Y-192958333D01*
X181666666Y-193375000D01*
X181583333Y-193708333D01*
X181500000Y-193875000D01*
X181416666Y-193958333D01*
X181250000Y-194041666D01*
X181083333Y-194041666D01*
X180916666Y-193958333D01*
X180833333Y-193875000D01*
X180750000Y-193708333D01*
X180666666Y-193375000D01*
X180666666Y-192958333D01*
X180750000Y-192625000D01*
X180833333Y-192458333D01*
X180916666Y-192375000D01*
X181083333Y-192291666D01*
X183000000Y-193125000D02*
X183250000Y-193208333D01*
X183333333Y-193291666D01*
X183416666Y-193458333D01*
X183416666Y-193708333D01*
X183333333Y-193875000D01*
X183250000Y-193958333D01*
X183083333Y-194041666D01*
X182416666Y-194041666D01*
X182416666Y-192291666D01*
X183000000Y-192291666D01*
X183166666Y-192375000D01*
X183250000Y-192458333D01*
X183333333Y-192625000D01*
X183333333Y-192791666D01*
X183250000Y-192958333D01*
X183166666Y-193041666D01*
X183000000Y-193125000D01*
X182416666Y-193125000D01*
X184916666Y-194041666D02*
X184916666Y-193125000D01*
X184833333Y-192958333D01*
X184666666Y-192875000D01*
X184333333Y-192875000D01*
X184166666Y-192958333D01*
X184916666Y-193958333D02*
X184750000Y-194041666D01*
X184333333Y-194041666D01*
X184166666Y-193958333D01*
X184083333Y-193791666D01*
X184083333Y-193625000D01*
X184166666Y-193458333D01*
X184333333Y-193375000D01*
X184750000Y-193375000D01*
X184916666Y-193291666D01*
X185500000Y-192875000D02*
X186166666Y-192875000D01*
X185750000Y-192291666D02*
X185750000Y-193791666D01*
X185833333Y-193958333D01*
X186000000Y-194041666D01*
X186166666Y-194041666D01*
X186500000Y-192875000D02*
X187166666Y-192875000D01*
X186750000Y-192291666D02*
X186750000Y-193791666D01*
X186833333Y-193958333D01*
X187000000Y-194041666D01*
X187166666Y-194041666D01*
X188416666Y-193958333D02*
X188250000Y-194041666D01*
X187916666Y-194041666D01*
X187750000Y-193958333D01*
X187666666Y-193791666D01*
X187666666Y-193125000D01*
X187750000Y-192958333D01*
X187916666Y-192875000D01*
X188250000Y-192875000D01*
X188416666Y-192958333D01*
X188500000Y-193125000D01*
X188500000Y-193291666D01*
X187666666Y-193458333D01*
X189250000Y-194041666D02*
X189250000Y-192875000D01*
X189250000Y-193208333D02*
X189333333Y-193041666D01*
X189416666Y-192958333D01*
X189583333Y-192875000D01*
X189750000Y-192875000D01*
X190333333Y-194041666D02*
X190333333Y-192875000D01*
X190333333Y-192291666D02*
X190250000Y-192375000D01*
X190333333Y-192458333D01*
X190416666Y-192375000D01*
X190333333Y-192291666D01*
X190333333Y-192458333D01*
X191833333Y-193958333D02*
X191666666Y-194041666D01*
X191333333Y-194041666D01*
X191166666Y-193958333D01*
X191083333Y-193791666D01*
X191083333Y-193125000D01*
X191166666Y-192958333D01*
X191333333Y-192875000D01*
X191666666Y-192875000D01*
X191833333Y-192958333D01*
X191916666Y-193125000D01*
X191916666Y-193291666D01*
X191083333Y-193458333D01*
X192583333Y-193958333D02*
X192750000Y-194041666D01*
X193083333Y-194041666D01*
X193250000Y-193958333D01*
X193333333Y-193791666D01*
X193333333Y-193708333D01*
X193250000Y-193541666D01*
X193083333Y-193458333D01*
X192833333Y-193458333D01*
X192666666Y-193375000D01*
X192583333Y-193208333D01*
X192583333Y-193125000D01*
X192666666Y-192958333D01*
X192833333Y-192875000D01*
X193083333Y-192875000D01*
X193250000Y-192958333D01*
X195333333Y-192208333D02*
X193833333Y-194458333D01*
X196750000Y-192291666D02*
X195916666Y-192291666D01*
X195833333Y-193125000D01*
X195916666Y-193041666D01*
X196083333Y-192958333D01*
X196500000Y-192958333D01*
X196666666Y-193041666D01*
X196750000Y-193125000D01*
X196833333Y-193291666D01*
X196833333Y-193708333D01*
X196750000Y-193875000D01*
X196666666Y-193958333D01*
X196500000Y-194041666D01*
X196083333Y-194041666D01*
X195916666Y-193958333D01*
X195833333Y-193875000D01*
X197500000Y-194041666D02*
X198833333Y-192291666D01*
X197750000Y-192291666D02*
X197916666Y-192375000D01*
X198000000Y-192541666D01*
X197916666Y-192708333D01*
X197750000Y-192791666D01*
X197583333Y-192708333D01*
X197500000Y-192541666D01*
X197583333Y-192375000D01*
X197750000Y-192291666D01*
X198750000Y-193958333D02*
X198833333Y-193791666D01*
X198750000Y-193625000D01*
X198583333Y-193541666D01*
X198416666Y-193625000D01*
X198333333Y-193791666D01*
X198416666Y-193958333D01*
X198583333Y-194041666D01*
X198750000Y-193958333D01*
X199500000Y-192458333D02*
X199583333Y-192375000D01*
X199750000Y-192291666D01*
X200166666Y-192291666D01*
X200333333Y-192375000D01*
X200416666Y-192458333D01*
X200500000Y-192625000D01*
X200500000Y-192791666D01*
X200416666Y-193041666D01*
X199416666Y-194041666D01*
X200500000Y-194041666D01*
X201583333Y-192291666D02*
X201750000Y-192291666D01*
X201916666Y-192375000D01*
X202000000Y-192458333D01*
X202083333Y-192625000D01*
X202166666Y-192958333D01*
X202166666Y-193375000D01*
X202083333Y-193708333D01*
X202000000Y-193875000D01*
X201916666Y-193958333D01*
X201750000Y-194041666D01*
X201583333Y-194041666D01*
X201416666Y-193958333D01*
X201333333Y-193875000D01*
X201250000Y-193708333D01*
X201166666Y-193375000D01*
X201166666Y-192958333D01*
X201250000Y-192625000D01*
X201333333Y-192458333D01*
X201416666Y-192375000D01*
X201583333Y-192291666D01*
X202833333Y-193541666D02*
X203666666Y-193541666D01*
X202666666Y-194041666D02*
X203250000Y-192291666D01*
X203833333Y-194041666D01*
X204416666Y-194041666D02*
X204416666Y-192291666D01*
X205166666Y-194041666D02*
X205166666Y-193125000D01*
X205083333Y-192958333D01*
X204916666Y-192875000D01*
X204666666Y-192875000D01*
X204500000Y-192958333D01*
X204416666Y-193041666D01*
X205916666Y-194041666D02*
X207250000Y-192291666D01*
X206166666Y-192291666D02*
X206333333Y-192375000D01*
X206416666Y-192541666D01*
X206333333Y-192708333D01*
X206166666Y-192791666D01*
X206000000Y-192708333D01*
X205916666Y-192541666D01*
X206000000Y-192375000D01*
X206166666Y-192291666D01*
X207166666Y-193958333D02*
X207250000Y-193791666D01*
X207166666Y-193625000D01*
X207000000Y-193541666D01*
X206833333Y-193625000D01*
X206750000Y-193791666D01*
X206833333Y-193958333D01*
X207000000Y-194041666D01*
X207166666Y-193958333D01*
X207916666Y-192458333D02*
X208000000Y-192375000D01*
X208166666Y-192291666D01*
X208583333Y-192291666D01*
X208750000Y-192375000D01*
X208833333Y-192458333D01*
X208916666Y-192625000D01*
X208916666Y-192791666D01*
X208833333Y-193041666D01*
X207833333Y-194041666D01*
X208916666Y-194041666D01*
X210000000Y-192291666D02*
X210166666Y-192291666D01*
X210333333Y-192375000D01*
X210416666Y-192458333D01*
X210500000Y-192625000D01*
X210583333Y-192958333D01*
X210583333Y-193375000D01*
X210500000Y-193708333D01*
X210416666Y-193875000D01*
X210333333Y-193958333D01*
X210166666Y-194041666D01*
X210000000Y-194041666D01*
X209833333Y-193958333D01*
X209750000Y-193875000D01*
X209666666Y-193708333D01*
X209583333Y-193375000D01*
X209583333Y-192958333D01*
X209666666Y-192625000D01*
X209750000Y-192458333D01*
X209833333Y-192375000D01*
X210000000Y-192291666D01*
X211416666Y-192291666D02*
X211250000Y-192625000D01*
X213000000Y-192291666D02*
X212166666Y-192291666D01*
X212083333Y-193125000D01*
X212166666Y-193041666D01*
X212333333Y-192958333D01*
X212750000Y-192958333D01*
X212916666Y-193041666D01*
X213000000Y-193125000D01*
X213083333Y-193291666D01*
X213083333Y-193708333D01*
X213000000Y-193875000D01*
X212916666Y-193958333D01*
X212750000Y-194041666D01*
X212333333Y-194041666D01*
X212166666Y-193958333D01*
X212083333Y-193875000D01*
X213750000Y-193541666D02*
X214583333Y-193541666D01*
X213583333Y-194041666D02*
X214166666Y-192291666D01*
X214750000Y-194041666D01*
X215333333Y-194041666D02*
X215333333Y-192291666D01*
X216083333Y-194041666D02*
X216083333Y-193125000D01*
X216000000Y-192958333D01*
X215833333Y-192875000D01*
X215583333Y-192875000D01*
X215416666Y-192958333D01*
X215333333Y-193041666D01*
X217833333Y-192375000D02*
X217666666Y-192291666D01*
X217416666Y-192291666D01*
X217166666Y-192375000D01*
X217000000Y-192541666D01*
X216916666Y-192708333D01*
X216833333Y-193041666D01*
X216833333Y-193291666D01*
X216916666Y-193625000D01*
X217000000Y-193791666D01*
X217166666Y-193958333D01*
X217416666Y-194041666D01*
X217583333Y-194041666D01*
X217833333Y-193958333D01*
X217916666Y-193875000D01*
X217916666Y-193291666D01*
X217583333Y-193291666D01*
X218500000Y-192291666D02*
X219583333Y-192291666D01*
X219000000Y-192958333D01*
X219250000Y-192958333D01*
X219416666Y-193041666D01*
X219500000Y-193125000D01*
X219583333Y-193291666D01*
X219583333Y-193708333D01*
X219500000Y-193875000D01*
X219416666Y-193958333D01*
X219250000Y-194041666D01*
X218750000Y-194041666D01*
X218583333Y-193958333D01*
X218500000Y-193875000D01*
X220416666Y-192291666D02*
X220250000Y-192625000D01*
X221083333Y-194041666D02*
X222416666Y-192291666D01*
X221333333Y-192291666D02*
X221500000Y-192375000D01*
X221583333Y-192541666D01*
X221500000Y-192708333D01*
X221333333Y-192791666D01*
X221166666Y-192708333D01*
X221083333Y-192541666D01*
X221166666Y-192375000D01*
X221333333Y-192291666D01*
X222333333Y-193958333D02*
X222416666Y-193791666D01*
X222333333Y-193625000D01*
X222166666Y-193541666D01*
X222000000Y-193625000D01*
X221916666Y-193791666D01*
X222000000Y-193958333D01*
X222166666Y-194041666D01*
X222333333Y-193958333D01*
X223083333Y-192458333D02*
X223166666Y-192375000D01*
X223333333Y-192291666D01*
X223750000Y-192291666D01*
X223916666Y-192375000D01*
X224000000Y-192458333D01*
X224083333Y-192625000D01*
X224083333Y-192791666D01*
X224000000Y-193041666D01*
X223000000Y-194041666D01*
X224083333Y-194041666D01*
X225166666Y-192291666D02*
X225333333Y-192291666D01*
X225500000Y-192375000D01*
X225583333Y-192458333D01*
X225666666Y-192625000D01*
X225750000Y-192958333D01*
X225750000Y-193375000D01*
X225666666Y-193708333D01*
X225583333Y-193875000D01*
X225500000Y-193958333D01*
X225333333Y-194041666D01*
X225166666Y-194041666D01*
X225000000Y-193958333D01*
X224916666Y-193875000D01*
X224833333Y-193708333D01*
X224750000Y-193375000D01*
X224750000Y-192958333D01*
X224833333Y-192625000D01*
X224916666Y-192458333D01*
X225000000Y-192375000D01*
X225166666Y-192291666D01*
X226500000Y-194041666D02*
X226500000Y-192291666D01*
X227083333Y-193541666D01*
X227666666Y-192291666D01*
X227666666Y-194041666D01*
X228750000Y-194041666D02*
X228583333Y-193958333D01*
X228500000Y-193875000D01*
X228416666Y-193708333D01*
X228416666Y-193208333D01*
X228500000Y-193041666D01*
X228583333Y-192958333D01*
X228750000Y-192875000D01*
X229000000Y-192875000D01*
X229166666Y-192958333D01*
X229250000Y-193041666D01*
X229333333Y-193208333D01*
X229333333Y-193708333D01*
X229250000Y-193875000D01*
X229166666Y-193958333D01*
X229000000Y-194041666D01*
X228750000Y-194041666D01*
X230833333Y-194041666D02*
X230833333Y-192291666D01*
X230833333Y-193958333D02*
X230666666Y-194041666D01*
X230333333Y-194041666D01*
X230166666Y-193958333D01*
X230083333Y-193875000D01*
X230000000Y-193708333D01*
X230000000Y-193208333D01*
X230083333Y-193041666D01*
X230166666Y-192958333D01*
X230333333Y-192875000D01*
X230666666Y-192875000D01*
X230833333Y-192958333D01*
X232416666Y-192875000D02*
X232416666Y-194041666D01*
X231666666Y-192875000D02*
X231666666Y-193791666D01*
X231750000Y-193958333D01*
X231916666Y-194041666D01*
X232166666Y-194041666D01*
X232333333Y-193958333D01*
X232416666Y-193875000D01*
X233500000Y-194041666D02*
X233333333Y-193958333D01*
X233250000Y-193791666D01*
X233250000Y-192291666D01*
X234833333Y-193958333D02*
X234666666Y-194041666D01*
X234333333Y-194041666D01*
X234166666Y-193958333D01*
X234083333Y-193791666D01*
X234083333Y-193125000D01*
X234166666Y-192958333D01*
X234333333Y-192875000D01*
X234666666Y-192875000D01*
X234833333Y-192958333D01*
X234916666Y-193125000D01*
X234916666Y-193291666D01*
X234083333Y-193458333D01*
X235583333Y-193958333D02*
X235750000Y-194041666D01*
X236083333Y-194041666D01*
X236250000Y-193958333D01*
X236333333Y-193791666D01*
X236333333Y-193708333D01*
X236250000Y-193541666D01*
X236083333Y-193458333D01*
X235833333Y-193458333D01*
X235666666Y-193375000D01*
X235583333Y-193208333D01*
X235583333Y-193125000D01*
X235666666Y-192958333D01*
X235833333Y-192875000D01*
X236083333Y-192875000D01*
X236250000Y-192958333D01*
X238333333Y-192208333D02*
X236833333Y-194458333D01*
X238916666Y-194041666D02*
X238916666Y-192291666D01*
X239583333Y-192291666D01*
X239750000Y-192375000D01*
X239833333Y-192458333D01*
X239916666Y-192625000D01*
X239916666Y-192875000D01*
X239833333Y-193041666D01*
X239750000Y-193125000D01*
X239583333Y-193208333D01*
X238916666Y-193208333D01*
X241666666Y-193875000D02*
X241583333Y-193958333D01*
X241333333Y-194041666D01*
X241166666Y-194041666D01*
X240916666Y-193958333D01*
X240750000Y-193791666D01*
X240666666Y-193625000D01*
X240583333Y-193291666D01*
X240583333Y-193041666D01*
X240666666Y-192708333D01*
X240750000Y-192541666D01*
X240916666Y-192375000D01*
X241166666Y-192291666D01*
X241333333Y-192291666D01*
X241583333Y-192375000D01*
X241666666Y-192458333D01*
X243000000Y-193125000D02*
X243250000Y-193208333D01*
X243333333Y-193291666D01*
X243416666Y-193458333D01*
X243416666Y-193708333D01*
X243333333Y-193875000D01*
X243250000Y-193958333D01*
X243083333Y-194041666D01*
X242416666Y-194041666D01*
X242416666Y-192291666D01*
X243000000Y-192291666D01*
X243166666Y-192375000D01*
X243250000Y-192458333D01*
X243333333Y-192625000D01*
X243333333Y-192791666D01*
X243250000Y-192958333D01*
X243166666Y-193041666D01*
X243000000Y-193125000D01*
X242416666Y-193125000D01*
X244083333Y-194041666D02*
X245416666Y-192291666D01*
X244333333Y-192291666D02*
X244500000Y-192375000D01*
X244583333Y-192541666D01*
X244500000Y-192708333D01*
X244333333Y-192791666D01*
X244166666Y-192708333D01*
X244083333Y-192541666D01*
X244166666Y-192375000D01*
X244333333Y-192291666D01*
X245333333Y-193958333D02*
X245416666Y-193791666D01*
X245333333Y-193625000D01*
X245166666Y-193541666D01*
X245000000Y-193625000D01*
X244916666Y-193791666D01*
X245000000Y-193958333D01*
X245166666Y-194041666D01*
X245333333Y-193958333D01*
X246083333Y-192458333D02*
X246166666Y-192375000D01*
X246333333Y-192291666D01*
X246750000Y-192291666D01*
X246916666Y-192375000D01*
X247000000Y-192458333D01*
X247083333Y-192625000D01*
X247083333Y-192791666D01*
X247000000Y-193041666D01*
X246000000Y-194041666D01*
X247083333Y-194041666D01*
X248166666Y-192291666D02*
X248333333Y-192291666D01*
X248500000Y-192375000D01*
X248583333Y-192458333D01*
X248666666Y-192625000D01*
X248750000Y-192958333D01*
X248750000Y-193375000D01*
X248666666Y-193708333D01*
X248583333Y-193875000D01*
X248500000Y-193958333D01*
X248333333Y-194041666D01*
X248166666Y-194041666D01*
X248000000Y-193958333D01*
X247916666Y-193875000D01*
X247833333Y-193708333D01*
X247750000Y-193375000D01*
X247750000Y-192958333D01*
X247833333Y-192625000D01*
X247916666Y-192458333D01*
X248000000Y-192375000D01*
X248166666Y-192291666D01*
X249500000Y-193375000D02*
X250833333Y-193375000D01*
X251583333Y-194041666D02*
X252916666Y-192291666D01*
X251833333Y-192291666D02*
X252000000Y-192375000D01*
X252083333Y-192541666D01*
X252000000Y-192708333D01*
X251833333Y-192791666D01*
X251666666Y-192708333D01*
X251583333Y-192541666D01*
X251666666Y-192375000D01*
X251833333Y-192291666D01*
X252833333Y-193958333D02*
X252916666Y-193791666D01*
X252833333Y-193625000D01*
X252666666Y-193541666D01*
X252500000Y-193625000D01*
X252416666Y-193791666D01*
X252500000Y-193958333D01*
X252666666Y-194041666D01*
X252833333Y-193958333D01*
X253583333Y-192458333D02*
X253666666Y-192375000D01*
X253833333Y-192291666D01*
X254250000Y-192291666D01*
X254416666Y-192375000D01*
X254500000Y-192458333D01*
X254583333Y-192625000D01*
X254583333Y-192791666D01*
X254500000Y-193041666D01*
X253500000Y-194041666D01*
X254583333Y-194041666D01*
X255666666Y-192291666D02*
X255833333Y-192291666D01*
X256000000Y-192375000D01*
X256083333Y-192458333D01*
X256166666Y-192625000D01*
X256250000Y-192958333D01*
X256250000Y-193375000D01*
X256166666Y-193708333D01*
X256083333Y-193875000D01*
X256000000Y-193958333D01*
X255833333Y-194041666D01*
X255666666Y-194041666D01*
X255500000Y-193958333D01*
X255416666Y-193875000D01*
X255333333Y-193708333D01*
X255250000Y-193375000D01*
X255250000Y-192958333D01*
X255333333Y-192625000D01*
X255416666Y-192458333D01*
X255500000Y-192375000D01*
X255666666Y-192291666D01*
X257583333Y-193125000D02*
X257833333Y-193208333D01*
X257916666Y-193291666D01*
X257999999Y-193458333D01*
X257999999Y-193708333D01*
X257916666Y-193875000D01*
X257833333Y-193958333D01*
X257666666Y-194041666D01*
X256999999Y-194041666D01*
X256999999Y-192291666D01*
X257583333Y-192291666D01*
X257749999Y-192375000D01*
X257833333Y-192458333D01*
X257916666Y-192625000D01*
X257916666Y-192791666D01*
X257833333Y-192958333D01*
X257749999Y-193041666D01*
X257583333Y-193125000D01*
X256999999Y-193125000D01*
X259499999Y-194041666D02*
X259499999Y-193125000D01*
X259416666Y-192958333D01*
X259249999Y-192875000D01*
X258916666Y-192875000D01*
X258749999Y-192958333D01*
X259499999Y-193958333D02*
X259333333Y-194041666D01*
X258916666Y-194041666D01*
X258749999Y-193958333D01*
X258666666Y-193791666D01*
X258666666Y-193625000D01*
X258749999Y-193458333D01*
X258916666Y-193375000D01*
X259333333Y-193375000D01*
X259499999Y-193291666D01*
X260083333Y-192875000D02*
X260750000Y-192875000D01*
X260333333Y-192291666D02*
X260333333Y-193791666D01*
X260416666Y-193958333D01*
X260583333Y-194041666D01*
X260750000Y-194041666D01*
X261083333Y-192875000D02*
X261750000Y-192875000D01*
X261333333Y-192291666D02*
X261333333Y-193791666D01*
X261416666Y-193958333D01*
X261583333Y-194041666D01*
X261750000Y-194041666D01*
X263000000Y-193958333D02*
X262833333Y-194041666D01*
X262500000Y-194041666D01*
X262333333Y-193958333D01*
X262250000Y-193791666D01*
X262250000Y-193125000D01*
X262333333Y-192958333D01*
X262500000Y-192875000D01*
X262833333Y-192875000D01*
X263000000Y-192958333D01*
X263083333Y-193125000D01*
X263083333Y-193291666D01*
X262250000Y-193458333D01*
X263833333Y-194041666D02*
X263833333Y-192875000D01*
X263833333Y-193208333D02*
X263916666Y-193041666D01*
X264000000Y-192958333D01*
X264166666Y-192875000D01*
X264333333Y-192875000D01*
X264750000Y-192875000D02*
X265166666Y-194041666D01*
X265583333Y-192875000D02*
X265166666Y-194041666D01*
X265000000Y-194458333D01*
X264916666Y-194541666D01*
X264750000Y-194625000D01*
X266166666Y-194041666D02*
X267500000Y-192291666D01*
X266416666Y-192291666D02*
X266583333Y-192375000D01*
X266666666Y-192541666D01*
X266583333Y-192708333D01*
X266416666Y-192791666D01*
X266250000Y-192708333D01*
X266166666Y-192541666D01*
X266250000Y-192375000D01*
X266416666Y-192291666D01*
X267416666Y-193958333D02*
X267500000Y-193791666D01*
X267416666Y-193625000D01*
X267250000Y-193541666D01*
X267083333Y-193625000D01*
X267000000Y-193791666D01*
X267083333Y-193958333D01*
X267250000Y-194041666D01*
X267416666Y-193958333D01*
X268166666Y-192458333D02*
X268250000Y-192375000D01*
X268416666Y-192291666D01*
X268833333Y-192291666D01*
X269000000Y-192375000D01*
X269083333Y-192458333D01*
X269166666Y-192625000D01*
X269166666Y-192791666D01*
X269083333Y-193041666D01*
X268083333Y-194041666D01*
X269166666Y-194041666D01*
X270250000Y-192291666D02*
X270416666Y-192291666D01*
X270583333Y-192375000D01*
X270666666Y-192458333D01*
X270750000Y-192625000D01*
X270833333Y-192958333D01*
X270833333Y-193375000D01*
X270750000Y-193708333D01*
X270666666Y-193875000D01*
X270583333Y-193958333D01*
X270416666Y-194041666D01*
X270250000Y-194041666D01*
X270083333Y-193958333D01*
X270000000Y-193875000D01*
X269916666Y-193708333D01*
X269833333Y-193375000D01*
X269833333Y-192958333D01*
X269916666Y-192625000D01*
X270000000Y-192458333D01*
X270083333Y-192375000D01*
X270250000Y-192291666D01*
X271583333Y-194041666D02*
X271583333Y-192291666D01*
X271583333Y-193125000D02*
X272583333Y-193125000D01*
X272583333Y-194041666D02*
X272583333Y-192291666D01*
X274083333Y-193958333D02*
X273916666Y-194041666D01*
X273583333Y-194041666D01*
X273416666Y-193958333D01*
X273333333Y-193791666D01*
X273333333Y-193125000D01*
X273416666Y-192958333D01*
X273583333Y-192875000D01*
X273916666Y-192875000D01*
X274083333Y-192958333D01*
X274166666Y-193125000D01*
X274166666Y-193291666D01*
X273333333Y-193458333D01*
X275666666Y-194041666D02*
X275666666Y-193125000D01*
X275583333Y-192958333D01*
X275416666Y-192875000D01*
X275083333Y-192875000D01*
X274916666Y-192958333D01*
X275666666Y-193958333D02*
X275500000Y-194041666D01*
X275083333Y-194041666D01*
X274916666Y-193958333D01*
X274833333Y-193791666D01*
X274833333Y-193625000D01*
X274916666Y-193458333D01*
X275083333Y-193375000D01*
X275500000Y-193375000D01*
X275666666Y-193291666D01*
X276250000Y-192875000D02*
X276916666Y-192875000D01*
X276500000Y-192291666D02*
X276500000Y-193791666D01*
X276583333Y-193958333D01*
X276750000Y-194041666D01*
X276916666Y-194041666D01*
X278166666Y-193958333D02*
X278000000Y-194041666D01*
X277666666Y-194041666D01*
X277500000Y-193958333D01*
X277416666Y-193791666D01*
X277416666Y-193125000D01*
X277500000Y-192958333D01*
X277666666Y-192875000D01*
X278000000Y-192875000D01*
X278166666Y-192958333D01*
X278250000Y-193125000D01*
X278250000Y-193291666D01*
X277416666Y-193458333D01*
X279000000Y-194041666D02*
X279000000Y-192875000D01*
X279000000Y-193208333D02*
X279083333Y-193041666D01*
X279166666Y-192958333D01*
X279333333Y-192875000D01*
X279500000Y-192875000D01*
D14*
X306761904Y-116273809D02*
X301761904Y-116273809D01*
X301761904Y-115083333D01*
X302000000Y-114369047D01*
X302476190Y-113892857D01*
X302952380Y-113654761D01*
X303904761Y-113416666D01*
X304619047Y-113416666D01*
X305571428Y-113654761D01*
X306047619Y-113892857D01*
X306523809Y-114369047D01*
X306761904Y-115083333D01*
X306761904Y-116273809D01*
X305333333Y-111511904D02*
X305333333Y-109130952D01*
X306761904Y-111988095D02*
X301761904Y-110321428D01*
X306761904Y-108654761D01*
X306761904Y-106988095D02*
X301761904Y-106988095D01*
X306761904Y-104130952D01*
X301761904Y-104130952D01*
X302000000Y-99130952D02*
X301761904Y-99607142D01*
X301761904Y-100321428D01*
X302000000Y-101035714D01*
X302476190Y-101511904D01*
X302952380Y-101750000D01*
X303904761Y-101988095D01*
X304619047Y-101988095D01*
X305571428Y-101750000D01*
X306047619Y-101511904D01*
X306523809Y-101035714D01*
X306761904Y-100321428D01*
X306761904Y-99845238D01*
X306523809Y-99130952D01*
X306285714Y-98892857D01*
X304619047Y-98892857D01*
X304619047Y-99845238D01*
X304142857Y-96750000D02*
X304142857Y-95083333D01*
X306761904Y-94369047D02*
X306761904Y-96750000D01*
X301761904Y-96750000D01*
X301761904Y-94369047D01*
X306761904Y-89369047D02*
X304380952Y-91035714D01*
X306761904Y-92226190D02*
X301761904Y-92226190D01*
X301761904Y-90321428D01*
X302000000Y-89845238D01*
X302238095Y-89607142D01*
X302714285Y-89369047D01*
X303428571Y-89369047D01*
X303904761Y-89607142D01*
X304142857Y-89845238D01*
X304380952Y-90321428D01*
X304380952Y-92226190D01*
X306285714Y-87226190D02*
X306523809Y-86988095D01*
X306761904Y-87226190D01*
X306523809Y-87464285D01*
X306285714Y-87226190D01*
X306761904Y-87226190D01*
X304857142Y-87226190D02*
X302000000Y-87464285D01*
X301761904Y-87226190D01*
X302000000Y-86988095D01*
X304857142Y-87226190D01*
X301761904Y-87226190D01*
D10*
X285500000Y-78857142D02*
X285500000Y-75857142D01*
X285500000Y-77285714D02*
X287214285Y-77285714D01*
X287214285Y-78857142D02*
X287214285Y-75857142D01*
X288214285Y-75857142D02*
X289214285Y-78857142D01*
X290214285Y-75857142D01*
X291214285Y-78857142D02*
X291214285Y-75857142D01*
X291928571Y-75857142D01*
X292357142Y-76000000D01*
X292642857Y-76285714D01*
X292785714Y-76571428D01*
X292928571Y-77142857D01*
X292928571Y-77571428D01*
X292785714Y-78142857D01*
X292642857Y-78428571D01*
X292357142Y-78714285D01*
X291928571Y-78857142D01*
X291214285Y-78857142D01*
X295928571Y-78571428D02*
X295785714Y-78714285D01*
X295357142Y-78857142D01*
X295071428Y-78857142D01*
X294642857Y-78714285D01*
X294357142Y-78428571D01*
X294214285Y-78142857D01*
X294071428Y-77571428D01*
X294071428Y-77142857D01*
X294214285Y-76571428D01*
X294357142Y-76285714D01*
X294642857Y-76000000D01*
X295071428Y-75857142D01*
X295357142Y-75857142D01*
X295785714Y-76000000D01*
X295928571Y-76142857D01*
X299214285Y-75857142D02*
X299928571Y-78857142D01*
X300500000Y-76714285D01*
X301071428Y-78857142D01*
X301785714Y-75857142D01*
X302928571Y-78857142D02*
X302928571Y-75857142D01*
X302928571Y-77285714D02*
X304642857Y-77285714D01*
X304642857Y-78857142D02*
X304642857Y-75857142D01*
X306071428Y-77285714D02*
X307071428Y-77285714D01*
X307500000Y-78857142D02*
X306071428Y-78857142D01*
X306071428Y-75857142D01*
X307500000Y-75857142D01*
X308785714Y-78857142D02*
X308785714Y-75857142D01*
X310500000Y-78857142D01*
X310500000Y-75857142D01*
X287357142Y-83571428D02*
X287214285Y-83714285D01*
X286785714Y-83857142D01*
X286500000Y-83857142D01*
X286071428Y-83714285D01*
X285785714Y-83428571D01*
X285642857Y-83142857D01*
X285500000Y-82571428D01*
X285500000Y-82142857D01*
X285642857Y-81571428D01*
X285785714Y-81285714D01*
X286071428Y-81000000D01*
X286500000Y-80857142D01*
X286785714Y-80857142D01*
X287214285Y-81000000D01*
X287357142Y-81142857D01*
X289214285Y-80857142D02*
X289785714Y-80857142D01*
X290071428Y-81000000D01*
X290357142Y-81285714D01*
X290500000Y-81857142D01*
X290500000Y-82857142D01*
X290357142Y-83428571D01*
X290071428Y-83714285D01*
X289785714Y-83857142D01*
X289214285Y-83857142D01*
X288928571Y-83714285D01*
X288642857Y-83428571D01*
X288500000Y-82857142D01*
X288500000Y-81857142D01*
X288642857Y-81285714D01*
X288928571Y-81000000D01*
X289214285Y-80857142D01*
X291785714Y-83857142D02*
X291785714Y-80857142D01*
X293500000Y-83857142D01*
X293500000Y-80857142D01*
X294928571Y-83857142D02*
X294928571Y-80857142D01*
X296642857Y-83857142D01*
X296642857Y-80857142D01*
X298071428Y-82285714D02*
X299071428Y-82285714D01*
X299500000Y-83857142D02*
X298071428Y-83857142D01*
X298071428Y-80857142D01*
X299500000Y-80857142D01*
X302500000Y-83571428D02*
X302357142Y-83714285D01*
X301928571Y-83857142D01*
X301642857Y-83857142D01*
X301214285Y-83714285D01*
X300928571Y-83428571D01*
X300785714Y-83142857D01*
X300642857Y-82571428D01*
X300642857Y-82142857D01*
X300785714Y-81571428D01*
X300928571Y-81285714D01*
X301214285Y-81000000D01*
X301642857Y-80857142D01*
X301928571Y-80857142D01*
X302357142Y-81000000D01*
X302500000Y-81142857D01*
X303357142Y-80857142D02*
X305071428Y-80857142D01*
X304214285Y-83857142D02*
X304214285Y-80857142D01*
X306071428Y-82285714D02*
X307071428Y-82285714D01*
X307500000Y-83857142D02*
X306071428Y-83857142D01*
X306071428Y-80857142D01*
X307500000Y-80857142D01*
X308785714Y-83857142D02*
X308785714Y-80857142D01*
X309500000Y-80857142D01*
X309928571Y-81000000D01*
X310214285Y-81285714D01*
X310357142Y-81571428D01*
X310500000Y-82142857D01*
X310500000Y-82571428D01*
X310357142Y-83142857D01*
X310214285Y-83428571D01*
X309928571Y-83714285D01*
X309500000Y-83857142D01*
X308785714Y-83857142D01*
X124833333Y-129261904D02*
X127690476Y-129261904D01*
X126261904Y-134261904D02*
X126261904Y-129261904D01*
X129357142Y-134261904D02*
X129357142Y-129261904D01*
X129357142Y-131642857D02*
X132214285Y-131642857D01*
X132214285Y-134261904D02*
X132214285Y-129261904D01*
X134595238Y-134261904D02*
X134595238Y-129261904D01*
X136738095Y-134023809D02*
X137452380Y-134261904D01*
X138642857Y-134261904D01*
X139119047Y-134023809D01*
X139357142Y-133785714D01*
X139595238Y-133309523D01*
X139595238Y-132833333D01*
X139357142Y-132357142D01*
X139119047Y-132119047D01*
X138642857Y-131880952D01*
X137690476Y-131642857D01*
X137214285Y-131404761D01*
X136976190Y-131166666D01*
X136738095Y-130690476D01*
X136738095Y-130214285D01*
X136976190Y-129738095D01*
X137214285Y-129500000D01*
X137690476Y-129261904D01*
X138880952Y-129261904D01*
X139595238Y-129500000D01*
X145309523Y-134023809D02*
X146023809Y-134261904D01*
X147214285Y-134261904D01*
X147690476Y-134023809D01*
X147928571Y-133785714D01*
X148166666Y-133309523D01*
X148166666Y-132833333D01*
X147928571Y-132357142D01*
X147690476Y-132119047D01*
X147214285Y-131880952D01*
X146261904Y-131642857D01*
X145785714Y-131404761D01*
X145547619Y-131166666D01*
X145309523Y-130690476D01*
X145309523Y-130214285D01*
X145547619Y-129738095D01*
X145785714Y-129500000D01*
X146261904Y-129261904D01*
X147452380Y-129261904D01*
X148166666Y-129500000D01*
X150309523Y-134261904D02*
X150309523Y-129261904D01*
X152690476Y-134261904D02*
X152690476Y-129261904D01*
X153880952Y-129261904D01*
X154595238Y-129500000D01*
X155071428Y-129976190D01*
X155309523Y-130452380D01*
X155547619Y-131404761D01*
X155547619Y-132119047D01*
X155309523Y-133071428D01*
X155071428Y-133547619D01*
X154595238Y-134023809D01*
X153880952Y-134261904D01*
X152690476Y-134261904D01*
X157690476Y-131642857D02*
X159357142Y-131642857D01*
X160071428Y-134261904D02*
X157690476Y-134261904D01*
X157690476Y-129261904D01*
X160071428Y-129261904D01*
X165785714Y-132833333D02*
X168166666Y-132833333D01*
X165309523Y-134261904D02*
X166976190Y-129261904D01*
X168642857Y-134261904D01*
X169833333Y-129261904D02*
X171023809Y-134261904D01*
X171976190Y-130690476D01*
X172928571Y-134261904D01*
X174119047Y-129261904D01*
X175785714Y-132833333D02*
X178166666Y-132833333D01*
X175309523Y-134261904D02*
X176976190Y-129261904D01*
X178642857Y-134261904D01*
X181261904Y-131880952D02*
X181261904Y-134261904D01*
X179595238Y-129261904D02*
X181261904Y-131880952D01*
X182928571Y-129261904D01*
X190071428Y-131642857D02*
X188404761Y-131642857D01*
X188404761Y-134261904D02*
X188404761Y-129261904D01*
X190785714Y-129261904D01*
X195547619Y-134261904D02*
X193880952Y-131880952D01*
X192690476Y-134261904D02*
X192690476Y-129261904D01*
X194595238Y-129261904D01*
X195071428Y-129500000D01*
X195309523Y-129738095D01*
X195547619Y-130214285D01*
X195547619Y-130928571D01*
X195309523Y-131404761D01*
X195071428Y-131642857D01*
X194595238Y-131880952D01*
X192690476Y-131880952D01*
X198642857Y-129261904D02*
X199595238Y-129261904D01*
X200071428Y-129500000D01*
X200547619Y-129976190D01*
X200785714Y-130928571D01*
X200785714Y-132595238D01*
X200547619Y-133547619D01*
X200071428Y-134023809D01*
X199595238Y-134261904D01*
X198642857Y-134261904D01*
X198166666Y-134023809D01*
X197690476Y-133547619D01*
X197452380Y-132595238D01*
X197452380Y-130928571D01*
X197690476Y-129976190D01*
X198166666Y-129500000D01*
X198642857Y-129261904D01*
X202928571Y-134261904D02*
X202928571Y-129261904D01*
X204595238Y-132833333D01*
X206261904Y-129261904D01*
X206261904Y-134261904D01*
X215309523Y-133785714D02*
X215071428Y-134023809D01*
X214357142Y-134261904D01*
X213880952Y-134261904D01*
X213166666Y-134023809D01*
X212690476Y-133547619D01*
X212452380Y-133071428D01*
X212214285Y-132119047D01*
X212214285Y-131404761D01*
X212452380Y-130452380D01*
X212690476Y-129976190D01*
X213166666Y-129500000D01*
X213880952Y-129261904D01*
X214357142Y-129261904D01*
X215071428Y-129500000D01*
X215309523Y-129738095D01*
X217452380Y-131642857D02*
X219119047Y-131642857D01*
X219833333Y-134261904D02*
X217452380Y-134261904D01*
X217452380Y-129261904D01*
X219833333Y-129261904D01*
X224357142Y-134261904D02*
X221976190Y-134261904D01*
X221976190Y-129261904D01*
X228404761Y-134261904D02*
X226023809Y-134261904D01*
X226023809Y-129261904D01*
X229833333Y-134023809D02*
X230547619Y-134261904D01*
X231738095Y-134261904D01*
X232214285Y-134023809D01*
X232452380Y-133785714D01*
X232690476Y-133309523D01*
X232690476Y-132833333D01*
X232452380Y-132357142D01*
X232214285Y-132119047D01*
X231738095Y-131880952D01*
X230785714Y-131642857D01*
X230309523Y-131404761D01*
X230071428Y-131166666D01*
X229833333Y-130690476D01*
X229833333Y-130214285D01*
X230071428Y-129738095D01*
X230309523Y-129500000D01*
X230785714Y-129261904D01*
X231976190Y-129261904D01*
X232690476Y-129500000D01*
X140214285Y-142857142D02*
X138499999Y-142857142D01*
X139357142Y-142857142D02*
X139357142Y-139857142D01*
X139071428Y-140285714D01*
X138785714Y-140571428D01*
X138499999Y-140714285D01*
X141357142Y-140142857D02*
X141499999Y-140000000D01*
X141785714Y-139857142D01*
X142499999Y-139857142D01*
X142785714Y-140000000D01*
X142928571Y-140142857D01*
X143071428Y-140428571D01*
X143071428Y-140714285D01*
X142928571Y-141142857D01*
X141214285Y-142857142D01*
X143071428Y-142857142D01*
X144214285Y-142714285D02*
X144642857Y-142857142D01*
X145357142Y-142857142D01*
X145642857Y-142714285D01*
X145785714Y-142571428D01*
X145928571Y-142285714D01*
X145928571Y-142000000D01*
X145785714Y-141714285D01*
X145642857Y-141571428D01*
X145357142Y-141428571D01*
X144785714Y-141285714D01*
X144499999Y-141142857D01*
X144357142Y-141000000D01*
X144214285Y-140714285D01*
X144214285Y-140428571D01*
X144357142Y-140142857D01*
X144499999Y-140000000D01*
X144785714Y-139857142D01*
X145499999Y-139857142D01*
X145928571Y-140000000D01*
X150928571Y-139857142D02*
X149499999Y-139857142D01*
X149357142Y-141285714D01*
X149499999Y-141142857D01*
X149785714Y-141000000D01*
X150499999Y-141000000D01*
X150785714Y-141142857D01*
X150928571Y-141285714D01*
X151071428Y-141571428D01*
X151071428Y-142285714D01*
X150928571Y-142571428D01*
X150785714Y-142714285D01*
X150499999Y-142857142D01*
X149785714Y-142857142D01*
X149499999Y-142714285D01*
X149357142Y-142571428D01*
X152214285Y-142000000D02*
X153642857Y-142000000D01*
X151928571Y-142857142D02*
X152928571Y-139857142D01*
X153928571Y-142857142D01*
X154928571Y-142857142D02*
X154928571Y-139857142D01*
X156214285Y-142857142D02*
X156214285Y-141285714D01*
X156071428Y-141000000D01*
X155785714Y-140857142D01*
X155357142Y-140857142D01*
X155071428Y-141000000D01*
X154928571Y-141142857D01*
X159214285Y-140000000D02*
X158928571Y-139857142D01*
X158499999Y-139857142D01*
X158071428Y-140000000D01*
X157785714Y-140285714D01*
X157642857Y-140571428D01*
X157499999Y-141142857D01*
X157499999Y-141571428D01*
X157642857Y-142142857D01*
X157785714Y-142428571D01*
X158071428Y-142714285D01*
X158499999Y-142857142D01*
X158785714Y-142857142D01*
X159214285Y-142714285D01*
X159357142Y-142571428D01*
X159357142Y-141571428D01*
X158785714Y-141571428D01*
X160357142Y-139857142D02*
X162214285Y-139857142D01*
X161214285Y-141000000D01*
X161642857Y-141000000D01*
X161928571Y-141142857D01*
X162071428Y-141285714D01*
X162214285Y-141571428D01*
X162214285Y-142285714D01*
X162071428Y-142571428D01*
X161928571Y-142714285D01*
X161642857Y-142857142D01*
X160785714Y-142857142D01*
X160499999Y-142714285D01*
X160357142Y-142571428D01*
X165785714Y-142857142D02*
X165785714Y-139857142D01*
X165785714Y-141285714D02*
X167499999Y-141285714D01*
X167499999Y-142857142D02*
X167499999Y-139857142D01*
X170071428Y-142714285D02*
X169785714Y-142857142D01*
X169214285Y-142857142D01*
X168928571Y-142714285D01*
X168785714Y-142428571D01*
X168785714Y-141285714D01*
X168928571Y-141000000D01*
X169214285Y-140857142D01*
X169785714Y-140857142D01*
X170071428Y-141000000D01*
X170214285Y-141285714D01*
X170214285Y-141571428D01*
X168785714Y-141857142D01*
X172785714Y-142857142D02*
X172785714Y-141285714D01*
X172642857Y-141000000D01*
X172357142Y-140857142D01*
X171785714Y-140857142D01*
X171499999Y-141000000D01*
X172785714Y-142714285D02*
X172499999Y-142857142D01*
X171785714Y-142857142D01*
X171499999Y-142714285D01*
X171357142Y-142428571D01*
X171357142Y-142142857D01*
X171499999Y-141857142D01*
X171785714Y-141714285D01*
X172499999Y-141714285D01*
X172785714Y-141571428D01*
X173785714Y-140857142D02*
X174928571Y-140857142D01*
X174214285Y-139857142D02*
X174214285Y-142428571D01*
X174357142Y-142714285D01*
X174642857Y-142857142D01*
X174928571Y-142857142D01*
X177071428Y-142714285D02*
X176785714Y-142857142D01*
X176214285Y-142857142D01*
X175928571Y-142714285D01*
X175785714Y-142428571D01*
X175785714Y-141285714D01*
X175928571Y-141000000D01*
X176214285Y-140857142D01*
X176785714Y-140857142D01*
X177071428Y-141000000D01*
X177214285Y-141285714D01*
X177214285Y-141571428D01*
X175785714Y-141857142D01*
X178499999Y-142857142D02*
X178499999Y-140857142D01*
X178499999Y-141428571D02*
X178642857Y-141142857D01*
X178785714Y-141000000D01*
X179071428Y-140857142D01*
X179357142Y-140857142D01*
X183642857Y-141285714D02*
X184071428Y-141428571D01*
X184214285Y-141571428D01*
X184357142Y-141857142D01*
X184357142Y-142285714D01*
X184214285Y-142571428D01*
X184071428Y-142714285D01*
X183785714Y-142857142D01*
X182642857Y-142857142D01*
X182642857Y-139857142D01*
X183642857Y-139857142D01*
X183928571Y-140000000D01*
X184071428Y-140142857D01*
X184214285Y-140428571D01*
X184214285Y-140714285D01*
X184071428Y-141000000D01*
X183928571Y-141142857D01*
X183642857Y-141285714D01*
X182642857Y-141285714D01*
X186071428Y-142857142D02*
X185785714Y-142714285D01*
X185642857Y-142571428D01*
X185499999Y-142285714D01*
X185499999Y-141428571D01*
X185642857Y-141142857D01*
X185785714Y-141000000D01*
X186071428Y-140857142D01*
X186499999Y-140857142D01*
X186785714Y-141000000D01*
X186928571Y-141142857D01*
X187071428Y-141428571D01*
X187071428Y-142285714D01*
X186928571Y-142571428D01*
X186785714Y-142714285D01*
X186499999Y-142857142D01*
X186071428Y-142857142D01*
X189642857Y-142857142D02*
X189642857Y-141285714D01*
X189499999Y-141000000D01*
X189214285Y-140857142D01*
X188642857Y-140857142D01*
X188357142Y-141000000D01*
X189642857Y-142714285D02*
X189357142Y-142857142D01*
X188642857Y-142857142D01*
X188357142Y-142714285D01*
X188214285Y-142428571D01*
X188214285Y-142142857D01*
X188357142Y-141857142D01*
X188642857Y-141714285D01*
X189357142Y-141714285D01*
X189642857Y-141571428D01*
X191071428Y-142857142D02*
X191071428Y-140857142D01*
X191071428Y-141428571D02*
X191214285Y-141142857D01*
X191357142Y-141000000D01*
X191642857Y-140857142D01*
X191928571Y-140857142D01*
X194214285Y-142857142D02*
X194214285Y-139857142D01*
X194214285Y-142714285D02*
X193928571Y-142857142D01*
X193357142Y-142857142D01*
X193071428Y-142714285D01*
X192928571Y-142571428D01*
X192785714Y-142285714D01*
X192785714Y-141428571D01*
X192928571Y-141142857D01*
X193071428Y-141000000D01*
X193357142Y-140857142D01*
X193928571Y-140857142D01*
X194214285Y-141000000D01*
X197928571Y-141714285D02*
X200214285Y-141714285D01*
X205642857Y-142857142D02*
X204642857Y-141428571D01*
X203928571Y-142857142D02*
X203928571Y-139857142D01*
X205071428Y-139857142D01*
X205357142Y-140000000D01*
X205500000Y-140142857D01*
X205642857Y-140428571D01*
X205642857Y-140857142D01*
X205500000Y-141142857D01*
X205357142Y-141285714D01*
X205071428Y-141428571D01*
X203928571Y-141428571D01*
X208071428Y-142714285D02*
X207785714Y-142857142D01*
X207214285Y-142857142D01*
X206928571Y-142714285D01*
X206785714Y-142428571D01*
X206785714Y-141285714D01*
X206928571Y-141000000D01*
X207214285Y-140857142D01*
X207785714Y-140857142D01*
X208071428Y-141000000D01*
X208214285Y-141285714D01*
X208214285Y-141571428D01*
X206785714Y-141857142D01*
X209214285Y-140857142D02*
X209928571Y-142857142D01*
X210642857Y-140857142D01*
X212785714Y-141285714D02*
X213214285Y-141428571D01*
X213357142Y-141571428D01*
X213499999Y-141857142D01*
X213499999Y-142285714D01*
X213357142Y-142571428D01*
X213214285Y-142714285D01*
X212928571Y-142857142D01*
X211785714Y-142857142D01*
X211785714Y-139857142D01*
X212785714Y-139857142D01*
X213071428Y-140000000D01*
X213214285Y-140142857D01*
X213357142Y-140428571D01*
X213357142Y-140714285D01*
X213214285Y-141000000D01*
X213071428Y-141142857D01*
X212785714Y-141285714D01*
X211785714Y-141285714D01*
X80246428Y-113285714D02*
X80675000Y-113428571D01*
X80817857Y-113571428D01*
X80960714Y-113857142D01*
X80960714Y-114285714D01*
X80817857Y-114571428D01*
X80675000Y-114714285D01*
X80389285Y-114857142D01*
X79246428Y-114857142D01*
X79246428Y-111857142D01*
X80246428Y-111857142D01*
X80532142Y-112000000D01*
X80675000Y-112142857D01*
X80817857Y-112428571D01*
X80817857Y-112714285D01*
X80675000Y-113000000D01*
X80532142Y-113142857D01*
X80246428Y-113285714D01*
X79246428Y-113285714D01*
X82246428Y-114857142D02*
X82246428Y-111857142D01*
X83246428Y-114000000D01*
X84246428Y-111857142D01*
X84246428Y-114857142D01*
X85532142Y-114714285D02*
X85960714Y-114857142D01*
X86675000Y-114857142D01*
X86960714Y-114714285D01*
X87103571Y-114571428D01*
X87246428Y-114285714D01*
X87246428Y-114000000D01*
X87103571Y-113714285D01*
X86960714Y-113571428D01*
X86675000Y-113428571D01*
X86103571Y-113285714D01*
X85817857Y-113142857D01*
X85675000Y-113000000D01*
X85532142Y-112714285D01*
X85532142Y-112428571D01*
X85675000Y-112142857D01*
X85817857Y-112000000D01*
X86103571Y-111857142D01*
X86817857Y-111857142D01*
X87246428Y-112000000D01*
X92532142Y-114571428D02*
X92389285Y-114714285D01*
X91960714Y-114857142D01*
X91675000Y-114857142D01*
X91246428Y-114714285D01*
X90960714Y-114428571D01*
X90817857Y-114142857D01*
X90675000Y-113571428D01*
X90675000Y-113142857D01*
X90817857Y-112571428D01*
X90960714Y-112285714D01*
X91246428Y-112000000D01*
X91675000Y-111857142D01*
X91960714Y-111857142D01*
X92389285Y-112000000D01*
X92532142Y-112142857D01*
X94389285Y-111857142D02*
X94960714Y-111857142D01*
X95246428Y-112000000D01*
X95532142Y-112285714D01*
X95675000Y-112857142D01*
X95675000Y-113857142D01*
X95532142Y-114428571D01*
X95246428Y-114714285D01*
X94960714Y-114857142D01*
X94389285Y-114857142D01*
X94103571Y-114714285D01*
X93817857Y-114428571D01*
X93675000Y-113857142D01*
X93675000Y-112857142D01*
X93817857Y-112285714D01*
X94103571Y-112000000D01*
X94389285Y-111857142D01*
X96960714Y-114857142D02*
X96960714Y-111857142D01*
X98675000Y-114857142D01*
X98675000Y-111857142D01*
X100103571Y-114857142D02*
X100103571Y-111857142D01*
X101817857Y-114857142D01*
X101817857Y-111857142D01*
X103246428Y-113285714D02*
X104246428Y-113285714D01*
X104675000Y-114857142D02*
X103246428Y-114857142D01*
X103246428Y-111857142D01*
X104675000Y-111857142D01*
X107675000Y-114571428D02*
X107532142Y-114714285D01*
X107103571Y-114857142D01*
X106817857Y-114857142D01*
X106389285Y-114714285D01*
X106103571Y-114428571D01*
X105960714Y-114142857D01*
X105817857Y-113571428D01*
X105817857Y-113142857D01*
X105960714Y-112571428D01*
X106103571Y-112285714D01*
X106389285Y-112000000D01*
X106817857Y-111857142D01*
X107103571Y-111857142D01*
X107532142Y-112000000D01*
X107675000Y-112142857D01*
X108532142Y-111857142D02*
X110246428Y-111857142D01*
X109389285Y-114857142D02*
X109389285Y-111857142D01*
X111817857Y-111857142D02*
X112389285Y-111857142D01*
X112675000Y-112000000D01*
X112960714Y-112285714D01*
X113103571Y-112857142D01*
X113103571Y-113857142D01*
X112960714Y-114428571D01*
X112675000Y-114714285D01*
X112389285Y-114857142D01*
X111817857Y-114857142D01*
X111532142Y-114714285D01*
X111246428Y-114428571D01*
X111103571Y-113857142D01*
X111103571Y-112857142D01*
X111246428Y-112285714D01*
X111532142Y-112000000D01*
X111817857Y-111857142D01*
X116103571Y-114857142D02*
X115103571Y-113428571D01*
X114389285Y-114857142D02*
X114389285Y-111857142D01*
X115532142Y-111857142D01*
X115817857Y-112000000D01*
X115960714Y-112142857D01*
X116103571Y-112428571D01*
X116103571Y-112857142D01*
X115960714Y-113142857D01*
X115817857Y-113285714D01*
X115532142Y-113428571D01*
X114389285Y-113428571D01*
X84246428Y-117857142D02*
X81960714Y-118714285D01*
X84246428Y-119571428D01*
X87960714Y-117857142D02*
X85675000Y-118714285D01*
X87960714Y-119571428D01*
X91675000Y-117857142D02*
X89389285Y-118714285D01*
X91675000Y-119571428D01*
X94960714Y-116857142D02*
X96675000Y-116857142D01*
X95817857Y-119857142D02*
X95817857Y-116857142D01*
X97675000Y-119857142D02*
X97675000Y-116857142D01*
X97675000Y-118285714D02*
X99389285Y-118285714D01*
X99389285Y-119857142D02*
X99389285Y-116857142D01*
X100817857Y-119857142D02*
X100817857Y-116857142D01*
X102103571Y-119714285D02*
X102532142Y-119857142D01*
X103246428Y-119857142D01*
X103532142Y-119714285D01*
X103675000Y-119571428D01*
X103817857Y-119285714D01*
X103817857Y-119000000D01*
X103675000Y-118714285D01*
X103532142Y-118571428D01*
X103246428Y-118428571D01*
X102675000Y-118285714D01*
X102389285Y-118142857D01*
X102246428Y-118000000D01*
X102103571Y-117714285D01*
X102103571Y-117428571D01*
X102246428Y-117142857D01*
X102389285Y-117000000D01*
X102675000Y-116857142D01*
X103389285Y-116857142D01*
X103817857Y-117000000D01*
X107246428Y-119714285D02*
X107675000Y-119857142D01*
X108389285Y-119857142D01*
X108675000Y-119714285D01*
X108817857Y-119571428D01*
X108960714Y-119285714D01*
X108960714Y-119000000D01*
X108817857Y-118714285D01*
X108675000Y-118571428D01*
X108389285Y-118428571D01*
X107817857Y-118285714D01*
X107532142Y-118142857D01*
X107389285Y-118000000D01*
X107246428Y-117714285D01*
X107246428Y-117428571D01*
X107389285Y-117142857D01*
X107532142Y-117000000D01*
X107817857Y-116857142D01*
X108532142Y-116857142D01*
X108960714Y-117000000D01*
X110246428Y-119857142D02*
X110246428Y-116857142D01*
X111675000Y-119857142D02*
X111675000Y-116857142D01*
X112389285Y-116857142D01*
X112817857Y-117000000D01*
X113103571Y-117285714D01*
X113246428Y-117571428D01*
X113389285Y-118142857D01*
X113389285Y-118571428D01*
X113246428Y-119142857D01*
X113103571Y-119428571D01*
X112817857Y-119714285D01*
X112389285Y-119857142D01*
X111675000Y-119857142D01*
X114675000Y-118285714D02*
X115675000Y-118285714D01*
X116103571Y-119857142D02*
X114675000Y-119857142D01*
X114675000Y-116857142D01*
X116103571Y-116857142D01*
X280500000Y-188500000D02*
X74000000Y-188500000D01*
X74000000Y-83500000D02*
X280500000Y-83500000D01*
D15*
X90000000Y-136000000D02*
G75*
G03*
X90000000Y-136000000I-5000000J0D01*
G01*
M02*
