%TF.GenerationSoftware,KiCad,Pcbnew,(5.1.9-0-10_14)*%
%TF.CreationDate,2022-12-08T20:25:56-05:00*%
%TF.ProjectId,5AhG3-12S,35416847-332d-4313-9253-2e6b69636164,rev?*%
%TF.SameCoordinates,Original*%
%TF.FileFunction,Legend,Bot*%
%TF.FilePolarity,Positive*%
%FSLAX46Y46*%
G04 Gerber Fmt 4.6, Leading zero omitted, Abs format (unit mm)*
G04 Created by KiCad (PCBNEW (5.1.9-0-10_14)) date 2022-12-08 20:25:56*
%MOMM*%
%LPD*%
G01*
G04 APERTURE LIST*
%ADD10C,0.300000*%
%ADD11C,0.150000*%
%ADD12C,0.200000*%
%ADD13C,0.120000*%
%ADD14C,0.250000*%
G04 APERTURE END LIST*
D10*
X298926428Y-77819047D02*
X298521666Y-79519047D01*
X298197857Y-78304761D01*
X297874047Y-79519047D01*
X297469285Y-77819047D01*
X296821666Y-79519047D02*
X296821666Y-77819047D01*
X296821666Y-78628571D02*
X295850238Y-78628571D01*
X295850238Y-79519047D02*
X295850238Y-77819047D01*
X295040714Y-78628571D02*
X294474047Y-78628571D01*
X294231190Y-79519047D02*
X295040714Y-79519047D01*
X295040714Y-77819047D01*
X294231190Y-77819047D01*
X293502619Y-79519047D02*
X293502619Y-77819047D01*
X292531190Y-79519047D01*
X292531190Y-77819047D01*
X290588333Y-77819047D02*
X290183571Y-79519047D01*
X289859761Y-78304761D01*
X289535952Y-79519047D01*
X289131190Y-77819047D01*
X288483571Y-79519047D02*
X288483571Y-77819047D01*
X286702619Y-79519047D02*
X287269285Y-78709523D01*
X287674047Y-79519047D02*
X287674047Y-77819047D01*
X287026428Y-77819047D01*
X286864523Y-77900000D01*
X286783571Y-77980952D01*
X286702619Y-78142857D01*
X286702619Y-78385714D01*
X286783571Y-78547619D01*
X286864523Y-78628571D01*
X287026428Y-78709523D01*
X287674047Y-78709523D01*
X285974047Y-78628571D02*
X285407380Y-78628571D01*
X285164523Y-79519047D02*
X285974047Y-79519047D01*
X285974047Y-77819047D01*
X285164523Y-77819047D01*
X284516904Y-79438095D02*
X284274047Y-79519047D01*
X283869285Y-79519047D01*
X283707380Y-79438095D01*
X283626428Y-79357142D01*
X283545476Y-79195238D01*
X283545476Y-79033333D01*
X283626428Y-78871428D01*
X283707380Y-78790476D01*
X283869285Y-78709523D01*
X284193095Y-78628571D01*
X284355000Y-78547619D01*
X284435952Y-78466666D01*
X284516904Y-78304761D01*
X284516904Y-78142857D01*
X284435952Y-77980952D01*
X284355000Y-77900000D01*
X284193095Y-77819047D01*
X283788333Y-77819047D01*
X283545476Y-77900000D01*
X297793095Y-82207142D02*
X297874047Y-82288095D01*
X298116904Y-82369047D01*
X298278809Y-82369047D01*
X298521666Y-82288095D01*
X298683571Y-82126190D01*
X298764523Y-81964285D01*
X298845476Y-81640476D01*
X298845476Y-81397619D01*
X298764523Y-81073809D01*
X298683571Y-80911904D01*
X298521666Y-80750000D01*
X298278809Y-80669047D01*
X298116904Y-80669047D01*
X297874047Y-80750000D01*
X297793095Y-80830952D01*
X296740714Y-80669047D02*
X296416904Y-80669047D01*
X296255000Y-80750000D01*
X296093095Y-80911904D01*
X296012142Y-81235714D01*
X296012142Y-81802380D01*
X296093095Y-82126190D01*
X296255000Y-82288095D01*
X296416904Y-82369047D01*
X296740714Y-82369047D01*
X296902619Y-82288095D01*
X297064523Y-82126190D01*
X297145476Y-81802380D01*
X297145476Y-81235714D01*
X297064523Y-80911904D01*
X296902619Y-80750000D01*
X296740714Y-80669047D01*
X295283571Y-82369047D02*
X295283571Y-80669047D01*
X294312142Y-82369047D01*
X294312142Y-80669047D01*
X293502619Y-82369047D02*
X293502619Y-80669047D01*
X292531190Y-82369047D01*
X292531190Y-80669047D01*
X291721666Y-81478571D02*
X291155000Y-81478571D01*
X290912142Y-82369047D02*
X291721666Y-82369047D01*
X291721666Y-80669047D01*
X290912142Y-80669047D01*
X289212142Y-82207142D02*
X289293095Y-82288095D01*
X289535952Y-82369047D01*
X289697857Y-82369047D01*
X289940714Y-82288095D01*
X290102619Y-82126190D01*
X290183571Y-81964285D01*
X290264523Y-81640476D01*
X290264523Y-81397619D01*
X290183571Y-81073809D01*
X290102619Y-80911904D01*
X289940714Y-80750000D01*
X289697857Y-80669047D01*
X289535952Y-80669047D01*
X289293095Y-80750000D01*
X289212142Y-80830952D01*
X288726428Y-80669047D02*
X287755000Y-80669047D01*
X288240714Y-82369047D02*
X288240714Y-80669047D01*
X287188333Y-81478571D02*
X286621666Y-81478571D01*
X286378809Y-82369047D02*
X287188333Y-82369047D01*
X287188333Y-80669047D01*
X286378809Y-80669047D01*
X285650238Y-82369047D02*
X285650238Y-80669047D01*
X285245476Y-80669047D01*
X285002619Y-80750000D01*
X284840714Y-80911904D01*
X284759761Y-81073809D01*
X284678809Y-81397619D01*
X284678809Y-81640476D01*
X284759761Y-81964285D01*
X284840714Y-82126190D01*
X285002619Y-82288095D01*
X285245476Y-82369047D01*
X285650238Y-82369047D01*
X283950238Y-82207142D02*
X283869285Y-82288095D01*
X283950238Y-82369047D01*
X284031190Y-82288095D01*
X283950238Y-82207142D01*
X283950238Y-82369047D01*
X283950238Y-81721428D02*
X284031190Y-80750000D01*
X283950238Y-80669047D01*
X283869285Y-80750000D01*
X283950238Y-81721428D01*
X283950238Y-80669047D01*
X89464285Y-92903571D02*
X89464285Y-91403571D01*
X88892857Y-91403571D01*
X88750000Y-91475000D01*
X88678571Y-91546428D01*
X88607142Y-91689285D01*
X88607142Y-91903571D01*
X88678571Y-92046428D01*
X88750000Y-92117857D01*
X88892857Y-92189285D01*
X89464285Y-92189285D01*
X88178571Y-91403571D02*
X87321428Y-91403571D01*
X87750000Y-92903571D02*
X87750000Y-91403571D01*
X85964285Y-92760714D02*
X86035714Y-92832142D01*
X86250000Y-92903571D01*
X86392857Y-92903571D01*
X86607142Y-92832142D01*
X86750000Y-92689285D01*
X86821428Y-92546428D01*
X86892857Y-92260714D01*
X86892857Y-92046428D01*
X86821428Y-91760714D01*
X86750000Y-91617857D01*
X86607142Y-91475000D01*
X86392857Y-91403571D01*
X86250000Y-91403571D01*
X86035714Y-91475000D01*
X85964285Y-91546428D01*
X89464285Y-95453571D02*
X89464285Y-93953571D01*
X88892857Y-93953571D01*
X88750000Y-94025000D01*
X88678571Y-94096428D01*
X88607142Y-94239285D01*
X88607142Y-94453571D01*
X88678571Y-94596428D01*
X88750000Y-94667857D01*
X88892857Y-94739285D01*
X89464285Y-94739285D01*
X88178571Y-93953571D02*
X87321428Y-93953571D01*
X87750000Y-95453571D02*
X87750000Y-93953571D01*
X85964285Y-95310714D02*
X86035714Y-95382142D01*
X86250000Y-95453571D01*
X86392857Y-95453571D01*
X86607142Y-95382142D01*
X86750000Y-95239285D01*
X86821428Y-95096428D01*
X86892857Y-94810714D01*
X86892857Y-94596428D01*
X86821428Y-94310714D01*
X86750000Y-94167857D01*
X86607142Y-94025000D01*
X86392857Y-93953571D01*
X86250000Y-93953571D01*
X86035714Y-94025000D01*
X85964285Y-94096428D01*
D11*
X313354880Y-116052976D02*
X313354880Y-114802976D01*
X313057261Y-114802976D01*
X312878690Y-114862500D01*
X312759642Y-114981547D01*
X312700119Y-115100595D01*
X312640595Y-115338690D01*
X312640595Y-115517261D01*
X312700119Y-115755357D01*
X312759642Y-115874404D01*
X312878690Y-115993452D01*
X313057261Y-116052976D01*
X313354880Y-116052976D01*
X312164404Y-115695833D02*
X311569166Y-115695833D01*
X312283452Y-116052976D02*
X311866785Y-114802976D01*
X311450119Y-116052976D01*
X311033452Y-116052976D02*
X311033452Y-114802976D01*
X310319166Y-116052976D01*
X310319166Y-114802976D01*
X309069166Y-114862500D02*
X309188214Y-114802976D01*
X309366785Y-114802976D01*
X309545357Y-114862500D01*
X309664404Y-114981547D01*
X309723928Y-115100595D01*
X309783452Y-115338690D01*
X309783452Y-115517261D01*
X309723928Y-115755357D01*
X309664404Y-115874404D01*
X309545357Y-115993452D01*
X309366785Y-116052976D01*
X309247738Y-116052976D01*
X309069166Y-115993452D01*
X309009642Y-115933928D01*
X309009642Y-115517261D01*
X309247738Y-115517261D01*
X308473928Y-115398214D02*
X308057261Y-115398214D01*
X307878690Y-116052976D02*
X308473928Y-116052976D01*
X308473928Y-114802976D01*
X307878690Y-114802976D01*
X306628690Y-116052976D02*
X307045357Y-115457738D01*
X307342976Y-116052976D02*
X307342976Y-114802976D01*
X306866785Y-114802976D01*
X306747738Y-114862500D01*
X306688214Y-114922023D01*
X306628690Y-115041071D01*
X306628690Y-115219642D01*
X306688214Y-115338690D01*
X306747738Y-115398214D01*
X306866785Y-115457738D01*
X307342976Y-115457738D01*
X306092976Y-115933928D02*
X306033452Y-115993452D01*
X306092976Y-116052976D01*
X306152500Y-115993452D01*
X306092976Y-115933928D01*
X306092976Y-116052976D01*
X306092976Y-115279166D02*
X306033452Y-115338690D01*
X306092976Y-115398214D01*
X306152500Y-115338690D01*
X306092976Y-115279166D01*
X306092976Y-115398214D01*
X313354880Y-118077976D02*
X313354880Y-116827976D01*
X313354880Y-117423214D02*
X312640595Y-117423214D01*
X312640595Y-118077976D02*
X312640595Y-116827976D01*
X312045357Y-118077976D02*
X312045357Y-116827976D01*
X310795357Y-116887500D02*
X310914404Y-116827976D01*
X311092976Y-116827976D01*
X311271547Y-116887500D01*
X311390595Y-117006547D01*
X311450119Y-117125595D01*
X311509642Y-117363690D01*
X311509642Y-117542261D01*
X311450119Y-117780357D01*
X311390595Y-117899404D01*
X311271547Y-118018452D01*
X311092976Y-118077976D01*
X310973928Y-118077976D01*
X310795357Y-118018452D01*
X310735833Y-117958928D01*
X310735833Y-117542261D01*
X310973928Y-117542261D01*
X310200119Y-118077976D02*
X310200119Y-116827976D01*
X310200119Y-117423214D02*
X309485833Y-117423214D01*
X309485833Y-118077976D02*
X309485833Y-116827976D01*
X308116785Y-116827976D02*
X307700119Y-118077976D01*
X307283452Y-116827976D01*
X306628690Y-116827976D02*
X306390595Y-116827976D01*
X306271547Y-116887500D01*
X306152500Y-117006547D01*
X306092976Y-117244642D01*
X306092976Y-117661309D01*
X306152500Y-117899404D01*
X306271547Y-118018452D01*
X306390595Y-118077976D01*
X306628690Y-118077976D01*
X306747738Y-118018452D01*
X306866785Y-117899404D01*
X306926309Y-117661309D01*
X306926309Y-117244642D01*
X306866785Y-117006547D01*
X306747738Y-116887500D01*
X306628690Y-116827976D01*
X304962023Y-118077976D02*
X305557261Y-118077976D01*
X305557261Y-116827976D01*
X304723928Y-116827976D02*
X304009642Y-116827976D01*
X304366785Y-118077976D02*
X304366785Y-116827976D01*
X303652500Y-117720833D02*
X303057261Y-117720833D01*
X303771547Y-118077976D02*
X303354880Y-116827976D01*
X302938214Y-118077976D01*
X301866785Y-116887500D02*
X301985833Y-116827976D01*
X302164404Y-116827976D01*
X302342976Y-116887500D01*
X302462023Y-117006547D01*
X302521547Y-117125595D01*
X302581071Y-117363690D01*
X302581071Y-117542261D01*
X302521547Y-117780357D01*
X302462023Y-117899404D01*
X302342976Y-118018452D01*
X302164404Y-118077976D01*
X302045357Y-118077976D01*
X301866785Y-118018452D01*
X301807261Y-117958928D01*
X301807261Y-117542261D01*
X302045357Y-117542261D01*
X301271547Y-117423214D02*
X300854880Y-117423214D01*
X300676309Y-118077976D02*
X301271547Y-118077976D01*
X301271547Y-116827976D01*
X300676309Y-116827976D01*
X300140595Y-117958928D02*
X300081071Y-118018452D01*
X300140595Y-118077976D01*
X300200119Y-118018452D01*
X300140595Y-117958928D01*
X300140595Y-118077976D01*
X300140595Y-117601785D02*
X300200119Y-116887500D01*
X300140595Y-116827976D01*
X300081071Y-116887500D01*
X300140595Y-117601785D01*
X300140595Y-116827976D01*
D10*
X312900238Y-76769047D02*
X312900238Y-75069047D01*
X312495476Y-75069047D01*
X312252619Y-75150000D01*
X312090714Y-75311904D01*
X312009761Y-75473809D01*
X311928809Y-75797619D01*
X311928809Y-76040476D01*
X312009761Y-76364285D01*
X312090714Y-76526190D01*
X312252619Y-76688095D01*
X312495476Y-76769047D01*
X312900238Y-76769047D01*
X311281190Y-76283333D02*
X310471666Y-76283333D01*
X311443095Y-76769047D02*
X310876428Y-75069047D01*
X310309761Y-76769047D01*
X309743095Y-76769047D02*
X309743095Y-75069047D01*
X308771666Y-76769047D01*
X308771666Y-75069047D01*
X307071666Y-75150000D02*
X307233571Y-75069047D01*
X307476428Y-75069047D01*
X307719285Y-75150000D01*
X307881190Y-75311904D01*
X307962142Y-75473809D01*
X308043095Y-75797619D01*
X308043095Y-76040476D01*
X307962142Y-76364285D01*
X307881190Y-76526190D01*
X307719285Y-76688095D01*
X307476428Y-76769047D01*
X307314523Y-76769047D01*
X307071666Y-76688095D01*
X306990714Y-76607142D01*
X306990714Y-76040476D01*
X307314523Y-76040476D01*
X306262142Y-75878571D02*
X305695476Y-75878571D01*
X305452619Y-76769047D02*
X306262142Y-76769047D01*
X306262142Y-75069047D01*
X305452619Y-75069047D01*
X303752619Y-76769047D02*
X304319285Y-75959523D01*
X304724047Y-76769047D02*
X304724047Y-75069047D01*
X304076428Y-75069047D01*
X303914523Y-75150000D01*
X303833571Y-75230952D01*
X303752619Y-75392857D01*
X303752619Y-75635714D01*
X303833571Y-75797619D01*
X303914523Y-75878571D01*
X304076428Y-75959523D01*
X304724047Y-75959523D01*
X303024047Y-76607142D02*
X302943095Y-76688095D01*
X303024047Y-76769047D01*
X303105000Y-76688095D01*
X303024047Y-76607142D01*
X303024047Y-76769047D01*
X303024047Y-75716666D02*
X302943095Y-75797619D01*
X303024047Y-75878571D01*
X303105000Y-75797619D01*
X303024047Y-75716666D01*
X303024047Y-75878571D01*
X300919285Y-76769047D02*
X300919285Y-75069047D01*
X300919285Y-75878571D02*
X299947857Y-75878571D01*
X299947857Y-76769047D02*
X299947857Y-75069047D01*
X299138333Y-76769047D02*
X299138333Y-75069047D01*
X297438333Y-75150000D02*
X297600238Y-75069047D01*
X297843095Y-75069047D01*
X298085952Y-75150000D01*
X298247857Y-75311904D01*
X298328809Y-75473809D01*
X298409761Y-75797619D01*
X298409761Y-76040476D01*
X298328809Y-76364285D01*
X298247857Y-76526190D01*
X298085952Y-76688095D01*
X297843095Y-76769047D01*
X297681190Y-76769047D01*
X297438333Y-76688095D01*
X297357380Y-76607142D01*
X297357380Y-76040476D01*
X297681190Y-76040476D01*
X296628809Y-76769047D02*
X296628809Y-75069047D01*
X296628809Y-75878571D02*
X295657380Y-75878571D01*
X295657380Y-76769047D02*
X295657380Y-75069047D01*
X293795476Y-75069047D02*
X293228809Y-76769047D01*
X292662142Y-75069047D01*
X291771666Y-75069047D02*
X291447857Y-75069047D01*
X291285952Y-75150000D01*
X291124047Y-75311904D01*
X291043095Y-75635714D01*
X291043095Y-76202380D01*
X291124047Y-76526190D01*
X291285952Y-76688095D01*
X291447857Y-76769047D01*
X291771666Y-76769047D01*
X291933571Y-76688095D01*
X292095476Y-76526190D01*
X292176428Y-76202380D01*
X292176428Y-75635714D01*
X292095476Y-75311904D01*
X291933571Y-75150000D01*
X291771666Y-75069047D01*
X289505000Y-76769047D02*
X290314523Y-76769047D01*
X290314523Y-75069047D01*
X289181190Y-75069047D02*
X288209761Y-75069047D01*
X288695476Y-76769047D02*
X288695476Y-75069047D01*
X287724047Y-76283333D02*
X286914523Y-76283333D01*
X287885952Y-76769047D02*
X287319285Y-75069047D01*
X286752619Y-76769047D01*
X285295476Y-75150000D02*
X285457380Y-75069047D01*
X285700238Y-75069047D01*
X285943095Y-75150000D01*
X286105000Y-75311904D01*
X286185952Y-75473809D01*
X286266904Y-75797619D01*
X286266904Y-76040476D01*
X286185952Y-76364285D01*
X286105000Y-76526190D01*
X285943095Y-76688095D01*
X285700238Y-76769047D01*
X285538333Y-76769047D01*
X285295476Y-76688095D01*
X285214523Y-76607142D01*
X285214523Y-76040476D01*
X285538333Y-76040476D01*
X284485952Y-75878571D02*
X283919285Y-75878571D01*
X283676428Y-76769047D02*
X284485952Y-76769047D01*
X284485952Y-75069047D01*
X283676428Y-75069047D01*
D12*
X290986666Y-88885714D02*
X290986666Y-90019047D01*
X291391428Y-88238095D02*
X291796190Y-89452380D01*
X290743809Y-89452380D01*
X290177142Y-89533333D02*
X289367619Y-89533333D01*
X290339047Y-90019047D02*
X289772380Y-88319047D01*
X289205714Y-90019047D01*
X292377142Y-119194047D02*
X291324761Y-119194047D01*
X291891428Y-119841666D01*
X291648571Y-119841666D01*
X291486666Y-119922619D01*
X291405714Y-120003571D01*
X291324761Y-120165476D01*
X291324761Y-120570238D01*
X291405714Y-120732142D01*
X291486666Y-120813095D01*
X291648571Y-120894047D01*
X292134285Y-120894047D01*
X292296190Y-120813095D01*
X292377142Y-120732142D01*
X290272380Y-119194047D02*
X290110476Y-119194047D01*
X289948571Y-119275000D01*
X289867619Y-119355952D01*
X289786666Y-119517857D01*
X289705714Y-119841666D01*
X289705714Y-120246428D01*
X289786666Y-120570238D01*
X289867619Y-120732142D01*
X289948571Y-120813095D01*
X290110476Y-120894047D01*
X290272380Y-120894047D01*
X290434285Y-120813095D01*
X290515238Y-120732142D01*
X290596190Y-120570238D01*
X290677142Y-120246428D01*
X290677142Y-119841666D01*
X290596190Y-119517857D01*
X290515238Y-119355952D01*
X290434285Y-119275000D01*
X290272380Y-119194047D01*
X288653333Y-119194047D02*
X288491428Y-119194047D01*
X288329523Y-119275000D01*
X288248571Y-119355952D01*
X288167619Y-119517857D01*
X288086666Y-119841666D01*
X288086666Y-120246428D01*
X288167619Y-120570238D01*
X288248571Y-120732142D01*
X288329523Y-120813095D01*
X288491428Y-120894047D01*
X288653333Y-120894047D01*
X288815238Y-120813095D01*
X288896190Y-120732142D01*
X288977142Y-120570238D01*
X289058095Y-120246428D01*
X289058095Y-119841666D01*
X288977142Y-119517857D01*
X288896190Y-119355952D01*
X288815238Y-119275000D01*
X288653333Y-119194047D01*
X292458095Y-121944047D02*
X291891428Y-123644047D01*
X291324761Y-121944047D01*
X290758095Y-123644047D02*
X290758095Y-121944047D01*
X290353333Y-121944047D01*
X290110476Y-122025000D01*
X289948571Y-122186904D01*
X289867619Y-122348809D01*
X289786666Y-122672619D01*
X289786666Y-122915476D01*
X289867619Y-123239285D01*
X289948571Y-123401190D01*
X290110476Y-123563095D01*
X290353333Y-123644047D01*
X290758095Y-123644047D01*
X288086666Y-123482142D02*
X288167619Y-123563095D01*
X288410476Y-123644047D01*
X288572380Y-123644047D01*
X288815238Y-123563095D01*
X288977142Y-123401190D01*
X289058095Y-123239285D01*
X289139047Y-122915476D01*
X289139047Y-122672619D01*
X289058095Y-122348809D01*
X288977142Y-122186904D01*
X288815238Y-122025000D01*
X288572380Y-121944047D01*
X288410476Y-121944047D01*
X288167619Y-122025000D01*
X288086666Y-122105952D01*
D13*
X305500000Y-86000000D02*
G75*
G03*
X305500000Y-86000000I-250000J0D01*
G01*
D12*
X311975000Y-89324761D02*
X312055952Y-89486666D01*
X312055952Y-89729523D01*
X311975000Y-89972380D01*
X311813095Y-90134285D01*
X311651190Y-90215238D01*
X311327380Y-90296190D01*
X311084523Y-90296190D01*
X310760714Y-90215238D01*
X310598809Y-90134285D01*
X310436904Y-89972380D01*
X310355952Y-89729523D01*
X310355952Y-89567619D01*
X310436904Y-89324761D01*
X310517857Y-89243809D01*
X311084523Y-89243809D01*
X311084523Y-89567619D01*
X310355952Y-88515238D02*
X312055952Y-88515238D01*
X312055952Y-87867619D01*
X311975000Y-87705714D01*
X311894047Y-87624761D01*
X311732142Y-87543809D01*
X311489285Y-87543809D01*
X311327380Y-87624761D01*
X311246428Y-87705714D01*
X311165476Y-87867619D01*
X311165476Y-88515238D01*
X310355952Y-86815238D02*
X312055952Y-86815238D01*
X312055952Y-85681904D02*
X312055952Y-85358095D01*
X311975000Y-85196190D01*
X311813095Y-85034285D01*
X311489285Y-84953333D01*
X310922619Y-84953333D01*
X310598809Y-85034285D01*
X310436904Y-85196190D01*
X310355952Y-85358095D01*
X310355952Y-85681904D01*
X310436904Y-85843809D01*
X310598809Y-86005714D01*
X310922619Y-86086666D01*
X311489285Y-86086666D01*
X311813095Y-86005714D01*
X311975000Y-85843809D01*
X312055952Y-85681904D01*
X309225000Y-89324761D02*
X309305952Y-89486666D01*
X309305952Y-89729523D01*
X309225000Y-89972380D01*
X309063095Y-90134285D01*
X308901190Y-90215238D01*
X308577380Y-90296190D01*
X308334523Y-90296190D01*
X308010714Y-90215238D01*
X307848809Y-90134285D01*
X307686904Y-89972380D01*
X307605952Y-89729523D01*
X307605952Y-89567619D01*
X307686904Y-89324761D01*
X307767857Y-89243809D01*
X308334523Y-89243809D01*
X308334523Y-89567619D01*
X307605952Y-88515238D02*
X309305952Y-88515238D01*
X307605952Y-87543809D01*
X309305952Y-87543809D01*
X307605952Y-86734285D02*
X309305952Y-86734285D01*
X309305952Y-86329523D01*
X309225000Y-86086666D01*
X309063095Y-85924761D01*
X308901190Y-85843809D01*
X308577380Y-85762857D01*
X308334523Y-85762857D01*
X308010714Y-85843809D01*
X307848809Y-85924761D01*
X307686904Y-86086666D01*
X307605952Y-86329523D01*
X307605952Y-86734285D01*
D14*
X313111309Y-96700000D02*
X313111309Y-94600000D01*
X313111309Y-95600000D02*
X311968452Y-95600000D01*
X311968452Y-96700000D02*
X311968452Y-94600000D01*
X311016071Y-95600000D02*
X310349404Y-95600000D01*
X310063690Y-96700000D02*
X311016071Y-96700000D01*
X311016071Y-94600000D01*
X310063690Y-94600000D01*
X309301785Y-96100000D02*
X308349404Y-96100000D01*
X309492261Y-96700000D02*
X308825595Y-94600000D01*
X308158928Y-96700000D01*
X307777976Y-94600000D02*
X306635119Y-94600000D01*
X307206547Y-96700000D02*
X307206547Y-94600000D01*
X305968452Y-95900000D02*
X304444642Y-95900000D01*
X305206547Y-96700000D02*
X305206547Y-95100000D01*
X313111309Y-100100000D02*
X313111309Y-98000000D01*
X313111309Y-99000000D02*
X311968452Y-99000000D01*
X311968452Y-100100000D02*
X311968452Y-98000000D01*
X311016071Y-99000000D02*
X310349404Y-99000000D01*
X310063690Y-100100000D02*
X311016071Y-100100000D01*
X311016071Y-98000000D01*
X310063690Y-98000000D01*
X309301785Y-99500000D02*
X308349404Y-99500000D01*
X309492261Y-100100000D02*
X308825595Y-98000000D01*
X308158928Y-100100000D01*
X307777976Y-98000000D02*
X306635119Y-98000000D01*
X307206547Y-100100000D02*
X307206547Y-98000000D01*
X305968452Y-99300000D02*
X304444642Y-99300000D01*
X305206547Y-100100000D02*
X305206547Y-98500000D01*
X313111309Y-103500000D02*
X313111309Y-101400000D01*
X313111309Y-102400000D02*
X311968452Y-102400000D01*
X311968452Y-103500000D02*
X311968452Y-101400000D01*
X311301785Y-101400000D02*
X310635119Y-103500000D01*
X309968452Y-101400000D01*
X309301785Y-103500000D02*
X309301785Y-101400000D01*
X308825595Y-101400000D01*
X308539880Y-101500000D01*
X308349404Y-101700000D01*
X308254166Y-101900000D01*
X308158928Y-102300000D01*
X308158928Y-102600000D01*
X308254166Y-103000000D01*
X308349404Y-103200000D01*
X308539880Y-103400000D01*
X308825595Y-103500000D01*
X309301785Y-103500000D01*
X306158928Y-103300000D02*
X306254166Y-103400000D01*
X306539880Y-103500000D01*
X306730357Y-103500000D01*
X307016071Y-103400000D01*
X307206547Y-103200000D01*
X307301785Y-103000000D01*
X307397023Y-102600000D01*
X307397023Y-102300000D01*
X307301785Y-101900000D01*
X307206547Y-101700000D01*
X307016071Y-101500000D01*
X306730357Y-101400000D01*
X306539880Y-101400000D01*
X306254166Y-101500000D01*
X306158928Y-101600000D01*
X305301785Y-102700000D02*
X303777976Y-102700000D01*
X304539880Y-103500000D02*
X304539880Y-101900000D01*
X313111309Y-106900000D02*
X313111309Y-104800000D01*
X313111309Y-105800000D02*
X311968452Y-105800000D01*
X311968452Y-106900000D02*
X311968452Y-104800000D01*
X311301785Y-104800000D02*
X310635119Y-106900000D01*
X309968452Y-104800000D01*
X309301785Y-106900000D02*
X309301785Y-104800000D01*
X308825595Y-104800000D01*
X308539880Y-104900000D01*
X308349404Y-105100000D01*
X308254166Y-105300000D01*
X308158928Y-105700000D01*
X308158928Y-106000000D01*
X308254166Y-106400000D01*
X308349404Y-106600000D01*
X308539880Y-106800000D01*
X308825595Y-106900000D01*
X309301785Y-106900000D01*
X306158928Y-106700000D02*
X306254166Y-106800000D01*
X306539880Y-106900000D01*
X306730357Y-106900000D01*
X307016071Y-106800000D01*
X307206547Y-106600000D01*
X307301785Y-106400000D01*
X307397023Y-106000000D01*
X307397023Y-105700000D01*
X307301785Y-105300000D01*
X307206547Y-105100000D01*
X307016071Y-104900000D01*
X306730357Y-104800000D01*
X306539880Y-104800000D01*
X306254166Y-104900000D01*
X306158928Y-105000000D01*
X305301785Y-106100000D02*
X303777976Y-106100000D01*
X313111309Y-110300000D02*
X313111309Y-108200000D01*
X313111309Y-109200000D02*
X311968452Y-109200000D01*
X311968452Y-110300000D02*
X311968452Y-108200000D01*
X311016071Y-109200000D02*
X310349404Y-109200000D01*
X310063690Y-110300000D02*
X311016071Y-110300000D01*
X311016071Y-108200000D01*
X310063690Y-108200000D01*
X309301785Y-109700000D02*
X308349404Y-109700000D01*
X309492261Y-110300000D02*
X308825595Y-108200000D01*
X308158928Y-110300000D01*
X307777976Y-108200000D02*
X306635119Y-108200000D01*
X307206547Y-110300000D02*
X307206547Y-108200000D01*
X305968452Y-109500000D02*
X304444642Y-109500000D01*
X313111309Y-113700000D02*
X313111309Y-111600000D01*
X313111309Y-112600000D02*
X311968452Y-112600000D01*
X311968452Y-113700000D02*
X311968452Y-111600000D01*
X311016071Y-112600000D02*
X310349404Y-112600000D01*
X310063690Y-113700000D02*
X311016071Y-113700000D01*
X311016071Y-111600000D01*
X310063690Y-111600000D01*
X309301785Y-113100000D02*
X308349404Y-113100000D01*
X309492261Y-113700000D02*
X308825595Y-111600000D01*
X308158928Y-113700000D01*
X307777976Y-111600000D02*
X306635119Y-111600000D01*
X307206547Y-113700000D02*
X307206547Y-111600000D01*
X305968452Y-112900000D02*
X304444642Y-112900000D01*
D13*
X300000000Y-83000000D02*
X300000000Y-84500000D01*
X300000000Y-83750000D02*
X299250000Y-84500000D01*
X299250000Y-83000000D02*
X300000000Y-83750000D01*
X299250000Y-84500000D02*
X299250000Y-83000000D01*
%TO.C,R2*%
X94027064Y-115640000D02*
X90972936Y-115640000D01*
X94027064Y-118360000D02*
X90972936Y-118360000D01*
%TO.C,R6*%
X93140000Y-142472936D02*
X93140000Y-145527064D01*
X95860000Y-142472936D02*
X95860000Y-145527064D01*
%TO.C,R12*%
X105472936Y-125360000D02*
X108527064Y-125360000D01*
X105472936Y-122640000D02*
X108527064Y-122640000D01*
%TO.C,R20*%
X123527064Y-116640000D02*
X120472936Y-116640000D01*
X123527064Y-119360000D02*
X120472936Y-119360000D01*
%TO.C,R29*%
X138527064Y-119360000D02*
X135472936Y-119360000D01*
X138527064Y-116640000D02*
X135472936Y-116640000D01*
%TO.C,R40*%
X153527064Y-128640000D02*
X150472936Y-128640000D01*
X153527064Y-131360000D02*
X150472936Y-131360000D01*
%TO.C,R53*%
X168527064Y-155360000D02*
X165472936Y-155360000D01*
X168527064Y-152640000D02*
X165472936Y-152640000D01*
%TO.C,R67*%
X198527064Y-131360000D02*
X195472936Y-131360000D01*
X198527064Y-128640000D02*
X195472936Y-128640000D01*
%TO.C,R95*%
X240472936Y-134640000D02*
X243527064Y-134640000D01*
X240472936Y-137360000D02*
X243527064Y-137360000D01*
%TO.C,R1*%
X90972936Y-110640000D02*
X94027064Y-110640000D01*
X90972936Y-113360000D02*
X94027064Y-113360000D01*
%TO.C,R3*%
X90972936Y-120640000D02*
X94027064Y-120640000D01*
X90972936Y-123360000D02*
X94027064Y-123360000D01*
%TO.C,R4*%
X93140000Y-126472936D02*
X93140000Y-129527064D01*
X95860000Y-126472936D02*
X95860000Y-129527064D01*
%TO.C,R7*%
X94027064Y-151360000D02*
X90972936Y-151360000D01*
X94027064Y-148640000D02*
X90972936Y-148640000D01*
%TO.C,R8*%
X90972936Y-156360000D02*
X94027064Y-156360000D01*
X90972936Y-153640000D02*
X94027064Y-153640000D01*
%TO.C,R9*%
X94027064Y-161360000D02*
X90972936Y-161360000D01*
X94027064Y-158640000D02*
X90972936Y-158640000D01*
%TO.C,R10*%
X105472936Y-113360000D02*
X108527064Y-113360000D01*
X105472936Y-110640000D02*
X108527064Y-110640000D01*
%TO.C,R11*%
X108527064Y-119360000D02*
X105472936Y-119360000D01*
X108527064Y-116640000D02*
X105472936Y-116640000D01*
%TO.C,R13*%
X108527064Y-131360000D02*
X105472936Y-131360000D01*
X108527064Y-128640000D02*
X105472936Y-128640000D01*
%TO.C,R14*%
X105472936Y-137360000D02*
X108527064Y-137360000D01*
X105472936Y-134640000D02*
X108527064Y-134640000D01*
%TO.C,R15*%
X108527064Y-143360000D02*
X105472936Y-143360000D01*
X108527064Y-140640000D02*
X105472936Y-140640000D01*
%TO.C,R16*%
X105472936Y-149360000D02*
X108527064Y-149360000D01*
X105472936Y-146640000D02*
X108527064Y-146640000D01*
%TO.C,R17*%
X108527064Y-155360000D02*
X105472936Y-155360000D01*
X108527064Y-152640000D02*
X105472936Y-152640000D01*
%TO.C,R18*%
X105472936Y-161360000D02*
X108527064Y-161360000D01*
X105472936Y-158640000D02*
X108527064Y-158640000D01*
%TO.C,R19*%
X120472936Y-110640000D02*
X123527064Y-110640000D01*
X120472936Y-113360000D02*
X123527064Y-113360000D01*
%TO.C,R21*%
X120472936Y-122640000D02*
X123527064Y-122640000D01*
X120472936Y-125360000D02*
X123527064Y-125360000D01*
%TO.C,R22*%
X123527064Y-128640000D02*
X120472936Y-128640000D01*
X123527064Y-131360000D02*
X120472936Y-131360000D01*
%TO.C,R23*%
X120472936Y-134640000D02*
X123527064Y-134640000D01*
X120472936Y-137360000D02*
X123527064Y-137360000D01*
%TO.C,R24*%
X123527064Y-140640000D02*
X120472936Y-140640000D01*
X123527064Y-143360000D02*
X120472936Y-143360000D01*
%TO.C,R25*%
X120472936Y-146640000D02*
X123527064Y-146640000D01*
X120472936Y-149360000D02*
X123527064Y-149360000D01*
%TO.C,R26*%
X123527064Y-152640000D02*
X120472936Y-152640000D01*
X123527064Y-155360000D02*
X120472936Y-155360000D01*
%TO.C,R27*%
X120472936Y-158640000D02*
X123527064Y-158640000D01*
X120472936Y-161360000D02*
X123527064Y-161360000D01*
%TO.C,R28*%
X135472936Y-113360000D02*
X138527064Y-113360000D01*
X135472936Y-110640000D02*
X138527064Y-110640000D01*
%TO.C,R30*%
X135472936Y-125360000D02*
X138527064Y-125360000D01*
X135472936Y-122640000D02*
X138527064Y-122640000D01*
%TO.C,R31*%
X138527064Y-131360000D02*
X135472936Y-131360000D01*
X138527064Y-128640000D02*
X135472936Y-128640000D01*
%TO.C,R32*%
X135472936Y-137360000D02*
X138527064Y-137360000D01*
X135472936Y-134640000D02*
X138527064Y-134640000D01*
%TO.C,R33*%
X138527064Y-143360000D02*
X135472936Y-143360000D01*
X138527064Y-140640000D02*
X135472936Y-140640000D01*
%TO.C,R34*%
X135472936Y-149360000D02*
X138527064Y-149360000D01*
X135472936Y-146640000D02*
X138527064Y-146640000D01*
%TO.C,R35*%
X138527064Y-155360000D02*
X135472936Y-155360000D01*
X138527064Y-152640000D02*
X135472936Y-152640000D01*
%TO.C,R36*%
X135472936Y-161360000D02*
X138527064Y-161360000D01*
X135472936Y-158640000D02*
X138527064Y-158640000D01*
%TO.C,R37*%
X150472936Y-110640000D02*
X153527064Y-110640000D01*
X150472936Y-113360000D02*
X153527064Y-113360000D01*
%TO.C,R38*%
X153527064Y-116640000D02*
X150472936Y-116640000D01*
X153527064Y-119360000D02*
X150472936Y-119360000D01*
%TO.C,R39*%
X150472936Y-122640000D02*
X153527064Y-122640000D01*
X150472936Y-125360000D02*
X153527064Y-125360000D01*
%TO.C,R41*%
X150472936Y-134640000D02*
X153527064Y-134640000D01*
X150472936Y-137360000D02*
X153527064Y-137360000D01*
%TO.C,R42*%
X153527064Y-140640000D02*
X150472936Y-140640000D01*
X153527064Y-143360000D02*
X150472936Y-143360000D01*
%TO.C,R43*%
X150472936Y-146640000D02*
X153527064Y-146640000D01*
X150472936Y-149360000D02*
X153527064Y-149360000D01*
%TO.C,R44*%
X153527064Y-152640000D02*
X150472936Y-152640000D01*
X153527064Y-155360000D02*
X150472936Y-155360000D01*
%TO.C,R45*%
X150472936Y-158640000D02*
X153527064Y-158640000D01*
X150472936Y-161360000D02*
X153527064Y-161360000D01*
%TO.C,R46*%
X165472936Y-113360000D02*
X168527064Y-113360000D01*
X165472936Y-110640000D02*
X168527064Y-110640000D01*
%TO.C,R47*%
X168527064Y-119360000D02*
X165472936Y-119360000D01*
X168527064Y-116640000D02*
X165472936Y-116640000D01*
%TO.C,R48*%
X165472936Y-125360000D02*
X168527064Y-125360000D01*
X165472936Y-122640000D02*
X168527064Y-122640000D01*
%TO.C,R49*%
X168527064Y-131360000D02*
X165472936Y-131360000D01*
X168527064Y-128640000D02*
X165472936Y-128640000D01*
%TO.C,R50*%
X165472936Y-137360000D02*
X168527064Y-137360000D01*
X165472936Y-134640000D02*
X168527064Y-134640000D01*
%TO.C,R51*%
X168527064Y-143360000D02*
X165472936Y-143360000D01*
X168527064Y-140640000D02*
X165472936Y-140640000D01*
%TO.C,R52*%
X165472936Y-149360000D02*
X168527064Y-149360000D01*
X165472936Y-146640000D02*
X168527064Y-146640000D01*
%TO.C,R54*%
X165472936Y-161360000D02*
X168527064Y-161360000D01*
X165472936Y-158640000D02*
X168527064Y-158640000D01*
%TO.C,R55*%
X180472936Y-110640000D02*
X183527064Y-110640000D01*
X180472936Y-113360000D02*
X183527064Y-113360000D01*
%TO.C,R56*%
X183527064Y-116640000D02*
X180472936Y-116640000D01*
X183527064Y-119360000D02*
X180472936Y-119360000D01*
%TO.C,R57*%
X180472936Y-122640000D02*
X183527064Y-122640000D01*
X180472936Y-125360000D02*
X183527064Y-125360000D01*
%TO.C,R58*%
X183527064Y-128640000D02*
X180472936Y-128640000D01*
X183527064Y-131360000D02*
X180472936Y-131360000D01*
%TO.C,R59*%
X180472936Y-134640000D02*
X183527064Y-134640000D01*
X180472936Y-137360000D02*
X183527064Y-137360000D01*
%TO.C,R60*%
X183527064Y-140640000D02*
X180472936Y-140640000D01*
X183527064Y-143360000D02*
X180472936Y-143360000D01*
%TO.C,R61*%
X180472936Y-146640000D02*
X183527064Y-146640000D01*
X180472936Y-149360000D02*
X183527064Y-149360000D01*
%TO.C,R62*%
X183527064Y-152640000D02*
X180472936Y-152640000D01*
X183527064Y-155360000D02*
X180472936Y-155360000D01*
%TO.C,R63*%
X180472936Y-158640000D02*
X183527064Y-158640000D01*
X180472936Y-161360000D02*
X183527064Y-161360000D01*
%TO.C,R64*%
X195472936Y-113360000D02*
X198527064Y-113360000D01*
X195472936Y-110640000D02*
X198527064Y-110640000D01*
%TO.C,R65*%
X198527064Y-119360000D02*
X195472936Y-119360000D01*
X198527064Y-116640000D02*
X195472936Y-116640000D01*
%TO.C,R66*%
X195472936Y-125360000D02*
X198527064Y-125360000D01*
X195472936Y-122640000D02*
X198527064Y-122640000D01*
%TO.C,R68*%
X195472936Y-137360000D02*
X198527064Y-137360000D01*
X195472936Y-134640000D02*
X198527064Y-134640000D01*
%TO.C,R69*%
X198527064Y-143360000D02*
X195472936Y-143360000D01*
X198527064Y-140640000D02*
X195472936Y-140640000D01*
%TO.C,R70*%
X195472936Y-149360000D02*
X198527064Y-149360000D01*
X195472936Y-146640000D02*
X198527064Y-146640000D01*
%TO.C,R71*%
X198527064Y-155360000D02*
X195472936Y-155360000D01*
X198527064Y-152640000D02*
X195472936Y-152640000D01*
%TO.C,R72*%
X195472936Y-161360000D02*
X198527064Y-161360000D01*
X195472936Y-158640000D02*
X198527064Y-158640000D01*
%TO.C,R73*%
X210472936Y-110640000D02*
X213527064Y-110640000D01*
X210472936Y-113360000D02*
X213527064Y-113360000D01*
%TO.C,R74*%
X213527064Y-116640000D02*
X210472936Y-116640000D01*
X213527064Y-119360000D02*
X210472936Y-119360000D01*
%TO.C,R75*%
X210472936Y-122640000D02*
X213527064Y-122640000D01*
X210472936Y-125360000D02*
X213527064Y-125360000D01*
%TO.C,R76*%
X213527064Y-128640000D02*
X210472936Y-128640000D01*
X213527064Y-131360000D02*
X210472936Y-131360000D01*
%TO.C,R77*%
X210472936Y-134640000D02*
X213527064Y-134640000D01*
X210472936Y-137360000D02*
X213527064Y-137360000D01*
%TO.C,R78*%
X213527064Y-140640000D02*
X210472936Y-140640000D01*
X213527064Y-143360000D02*
X210472936Y-143360000D01*
%TO.C,R79*%
X210472936Y-146640000D02*
X213527064Y-146640000D01*
X210472936Y-149360000D02*
X213527064Y-149360000D01*
%TO.C,R80*%
X213527064Y-152640000D02*
X210472936Y-152640000D01*
X213527064Y-155360000D02*
X210472936Y-155360000D01*
%TO.C,R81*%
X210472936Y-158640000D02*
X213527064Y-158640000D01*
X210472936Y-161360000D02*
X213527064Y-161360000D01*
%TO.C,R82*%
X225472936Y-113360000D02*
X228527064Y-113360000D01*
X225472936Y-110640000D02*
X228527064Y-110640000D01*
%TO.C,R83*%
X228527064Y-119360000D02*
X225472936Y-119360000D01*
X228527064Y-116640000D02*
X225472936Y-116640000D01*
%TO.C,R84*%
X225472936Y-125360000D02*
X228527064Y-125360000D01*
X225472936Y-122640000D02*
X228527064Y-122640000D01*
%TO.C,R85*%
X228527064Y-131360000D02*
X225472936Y-131360000D01*
X228527064Y-128640000D02*
X225472936Y-128640000D01*
%TO.C,R86*%
X225472936Y-137360000D02*
X228527064Y-137360000D01*
X225472936Y-134640000D02*
X228527064Y-134640000D01*
%TO.C,R87*%
X228552065Y-143360000D02*
X225497937Y-143360000D01*
X228552065Y-140640000D02*
X225497937Y-140640000D01*
%TO.C,R88*%
X225472936Y-149360000D02*
X228527064Y-149360000D01*
X225472936Y-146640000D02*
X228527064Y-146640000D01*
%TO.C,R89*%
X228527064Y-155360000D02*
X225472936Y-155360000D01*
X228527064Y-152640000D02*
X225472936Y-152640000D01*
%TO.C,R90*%
X225472936Y-161360000D02*
X228527064Y-161360000D01*
X225472936Y-158640000D02*
X228527064Y-158640000D01*
%TO.C,R91*%
X240472936Y-110640000D02*
X243527064Y-110640000D01*
X240472936Y-113360000D02*
X243527064Y-113360000D01*
%TO.C,R92*%
X243527064Y-116640000D02*
X240472936Y-116640000D01*
X243527064Y-119360000D02*
X240472936Y-119360000D01*
%TO.C,R93*%
X240472936Y-122640000D02*
X243527064Y-122640000D01*
X240472936Y-125360000D02*
X243527064Y-125360000D01*
%TO.C,R94*%
X243527064Y-128640000D02*
X240472936Y-128640000D01*
X243527064Y-131360000D02*
X240472936Y-131360000D01*
%TO.C,R96*%
X243527064Y-140640000D02*
X240472936Y-140640000D01*
X243527064Y-143360000D02*
X240472936Y-143360000D01*
%TO.C,R97*%
X240472936Y-146640000D02*
X243527064Y-146640000D01*
X240472936Y-149360000D02*
X243527064Y-149360000D01*
%TO.C,R98*%
X243527064Y-152640000D02*
X240472936Y-152640000D01*
X243527064Y-155360000D02*
X240472936Y-155360000D01*
%TO.C,R99*%
X240472936Y-158640000D02*
X243527064Y-158640000D01*
X240472936Y-161360000D02*
X243527064Y-161360000D01*
%TO.C,R100*%
X258527064Y-110640000D02*
X255472936Y-110640000D01*
X258527064Y-113360000D02*
X255472936Y-113360000D01*
%TO.C,R101*%
X255472936Y-115640000D02*
X258527064Y-115640000D01*
X255472936Y-118360000D02*
X258527064Y-118360000D01*
%TO.C,R102*%
X258527064Y-120640000D02*
X255472936Y-120640000D01*
X258527064Y-123360000D02*
X255472936Y-123360000D01*
%TO.C,R103*%
X256787500Y-126472936D02*
X256787500Y-129527064D01*
X254067500Y-126472936D02*
X254067500Y-129527064D01*
%TO.C,R104*%
X254067500Y-134472936D02*
X254067500Y-137527064D01*
X256787500Y-134472936D02*
X256787500Y-137527064D01*
%TO.C,R105*%
X256787500Y-142472936D02*
X256787500Y-145527064D01*
X254067500Y-142472936D02*
X254067500Y-145527064D01*
%TO.C,R106*%
X255472936Y-151360000D02*
X258527064Y-151360000D01*
X255472936Y-148640000D02*
X258527064Y-148640000D01*
%TO.C,R107*%
X258527064Y-156360000D02*
X255472936Y-156360000D01*
X258527064Y-153640000D02*
X255472936Y-153640000D01*
%TO.C,R108*%
X255472936Y-161360000D02*
X258527064Y-161360000D01*
X255472936Y-158640000D02*
X258527064Y-158640000D01*
%TO.C,R109*%
X310227064Y-82515000D02*
X309772936Y-82515000D01*
X310227064Y-83985000D02*
X309772936Y-83985000D01*
%TO.C,R110*%
X310227064Y-81485000D02*
X309772936Y-81485000D01*
X310227064Y-80015000D02*
X309772936Y-80015000D01*
%TO.C,U1*%
X302500000Y-90910000D02*
X300490000Y-90910000D01*
X300490000Y-90910000D02*
X300490000Y-90555000D01*
X302500000Y-90910000D02*
X304510000Y-90910000D01*
X304510000Y-90910000D02*
X304510000Y-90555000D01*
X302500000Y-86590000D02*
X300490000Y-86590000D01*
X300490000Y-86590000D02*
X300490000Y-86945000D01*
X302500000Y-86590000D02*
X304510000Y-86590000D01*
X304510000Y-86590000D02*
X304510000Y-86945000D01*
X304510000Y-86945000D02*
X305975000Y-86945000D01*
%TO.C,D1*%
X303685000Y-84460000D02*
X301000000Y-84460000D01*
X303685000Y-82540000D02*
X303685000Y-84460000D01*
X301000000Y-82540000D02*
X303685000Y-82540000D01*
%TO.C,F1*%
X295410000Y-92390000D02*
X292250000Y-92390000D01*
X295410000Y-92390000D02*
X295410000Y-115110000D01*
X285590000Y-92390000D02*
X285590000Y-115110000D01*
X288750000Y-92390000D02*
X285590000Y-92390000D01*
X288750000Y-115110000D02*
X285590000Y-115110000D01*
X295410000Y-115110000D02*
X292250000Y-115110000D01*
%TO.C,Q1*%
X278820000Y-119930000D02*
X279920000Y-119930000D01*
X278820000Y-120200000D02*
X278820000Y-119930000D01*
X277320000Y-120200000D02*
X278820000Y-120200000D01*
X278820000Y-113570000D02*
X281650000Y-113570000D01*
X278820000Y-113300000D02*
X278820000Y-113570000D01*
X277320000Y-113300000D02*
X278820000Y-113300000D01*
%TO.C,R111*%
X296410000Y-87772936D02*
X296410000Y-89227064D01*
X294590000Y-87772936D02*
X294590000Y-89227064D01*
%TO.C,R112*%
X302227064Y-81485000D02*
X301772936Y-81485000D01*
X302227064Y-80015000D02*
X301772936Y-80015000D01*
%TO.C,J1*%
X312370000Y-91170000D02*
X312370000Y-93830000D01*
X309770000Y-91170000D02*
X312370000Y-91170000D01*
X309770000Y-93830000D02*
X312370000Y-93830000D01*
X309770000Y-91170000D02*
X309770000Y-93830000D01*
X308500000Y-91170000D02*
X307170000Y-91170000D01*
X307170000Y-91170000D02*
X307170000Y-92500000D01*
%TO.C,J2*%
X303360000Y-108560000D02*
X295890000Y-108560000D01*
X295890000Y-108560000D02*
X295890000Y-99940000D01*
X295890000Y-99940000D02*
X303360000Y-99940000D01*
X303360000Y-99940000D02*
X303360000Y-108560000D01*
X296750000Y-106750000D02*
X296750000Y-107500000D01*
X296750000Y-107500000D02*
X301050000Y-107500000D01*
X301050000Y-107500000D02*
X301050000Y-106750000D01*
X301050000Y-106750000D02*
X301400000Y-106750000D01*
X301400000Y-106750000D02*
X301400000Y-107250000D01*
X301400000Y-107250000D02*
X302400000Y-107500000D01*
X302400000Y-107500000D02*
X302400000Y-104500000D01*
X302400000Y-104500000D02*
X301400000Y-104750000D01*
X301400000Y-104750000D02*
X301400000Y-105250000D01*
X301400000Y-105250000D02*
X301050000Y-105250000D01*
X301050000Y-105250000D02*
X301050000Y-104500000D01*
X301050000Y-104500000D02*
X296750000Y-104500000D01*
X296750000Y-104500000D02*
X296750000Y-105250000D01*
X296750000Y-103250000D02*
X296750000Y-104000000D01*
X296750000Y-104000000D02*
X301050000Y-104000000D01*
X301050000Y-104000000D02*
X301050000Y-103250000D01*
X301050000Y-103250000D02*
X301400000Y-103250000D01*
X301400000Y-103250000D02*
X301400000Y-103750000D01*
X301400000Y-103750000D02*
X302400000Y-104000000D01*
X302400000Y-104000000D02*
X302400000Y-101000000D01*
X302400000Y-101000000D02*
X301400000Y-101250000D01*
X301400000Y-101250000D02*
X301400000Y-101750000D01*
X301400000Y-101750000D02*
X301050000Y-101750000D01*
X301050000Y-101750000D02*
X301050000Y-101000000D01*
X301050000Y-101000000D02*
X296750000Y-101000000D01*
X296750000Y-101000000D02*
X296750000Y-101750000D01*
X302500000Y-108950000D02*
X303750000Y-108950000D01*
X303750000Y-108950000D02*
X303750000Y-106950000D01*
X296750155Y-105250353D02*
G75*
G02*
X296750000Y-106750000I-1700155J-749647D01*
G01*
X296750155Y-101750353D02*
G75*
G02*
X296750000Y-103250000I-1700155J-749647D01*
G01*
%TO.C,R5*%
X83527064Y-102360000D02*
X80472936Y-102360000D01*
X83527064Y-99640000D02*
X80472936Y-99640000D01*
%TO.C,R113*%
X80472936Y-108360000D02*
X83527064Y-108360000D01*
X80472936Y-105640000D02*
X83527064Y-105640000D01*
%TO.C,R114*%
X83527064Y-114360000D02*
X80472936Y-114360000D01*
X83527064Y-111640000D02*
X80472936Y-111640000D01*
%TO.C,R115*%
X80472936Y-120360000D02*
X83527064Y-120360000D01*
X80472936Y-117640000D02*
X83527064Y-117640000D01*
%TO.C,R116*%
X83527064Y-154360000D02*
X80472936Y-154360000D01*
X83527064Y-151640000D02*
X80472936Y-151640000D01*
%TO.C,R117*%
X80472936Y-160360000D02*
X83527064Y-160360000D01*
X80472936Y-157640000D02*
X83527064Y-157640000D01*
%TO.C,R118*%
X83527064Y-166360000D02*
X80472936Y-166360000D01*
X83527064Y-163640000D02*
X80472936Y-163640000D01*
%TO.C,R119*%
X80472936Y-172360000D02*
X83527064Y-172360000D01*
X80472936Y-169640000D02*
X83527064Y-169640000D01*
%TO.C,J5*%
X85330000Y-96370000D02*
X82670000Y-96370000D01*
X85330000Y-93770000D02*
X85330000Y-96370000D01*
X82670000Y-93770000D02*
X82670000Y-96370000D01*
X85330000Y-93770000D02*
X82670000Y-93770000D01*
X85330000Y-92500000D02*
X85330000Y-91170000D01*
X85330000Y-91170000D02*
X84000000Y-91170000D01*
%TO.C,TH1*%
X178765000Y-87772936D02*
X178765000Y-88227064D01*
X180235000Y-87772936D02*
X180235000Y-88227064D01*
%TO.C,J3*%
X303360000Y-101560000D02*
X295890000Y-101560000D01*
X295890000Y-101560000D02*
X295890000Y-92940000D01*
X295890000Y-92940000D02*
X303360000Y-92940000D01*
X303360000Y-92940000D02*
X303360000Y-101560000D01*
X296750000Y-99750000D02*
X296750000Y-100500000D01*
X296750000Y-100500000D02*
X301050000Y-100500000D01*
X301050000Y-100500000D02*
X301050000Y-99750000D01*
X301050000Y-99750000D02*
X301400000Y-99750000D01*
X301400000Y-99750000D02*
X301400000Y-100250000D01*
X301400000Y-100250000D02*
X302400000Y-100500000D01*
X302400000Y-100500000D02*
X302400000Y-97500000D01*
X302400000Y-97500000D02*
X301400000Y-97750000D01*
X301400000Y-97750000D02*
X301400000Y-98250000D01*
X301400000Y-98250000D02*
X301050000Y-98250000D01*
X301050000Y-98250000D02*
X301050000Y-97500000D01*
X301050000Y-97500000D02*
X296750000Y-97500000D01*
X296750000Y-97500000D02*
X296750000Y-98250000D01*
X296750000Y-96250000D02*
X296750000Y-97000000D01*
X296750000Y-97000000D02*
X301050000Y-97000000D01*
X301050000Y-97000000D02*
X301050000Y-96250000D01*
X301050000Y-96250000D02*
X301400000Y-96250000D01*
X301400000Y-96250000D02*
X301400000Y-96750000D01*
X301400000Y-96750000D02*
X302400000Y-97000000D01*
X302400000Y-97000000D02*
X302400000Y-94000000D01*
X302400000Y-94000000D02*
X301400000Y-94250000D01*
X301400000Y-94250000D02*
X301400000Y-94750000D01*
X301400000Y-94750000D02*
X301050000Y-94750000D01*
X301050000Y-94750000D02*
X301050000Y-94000000D01*
X301050000Y-94000000D02*
X296750000Y-94000000D01*
X296750000Y-94000000D02*
X296750000Y-94750000D01*
X302500000Y-101950000D02*
X303750000Y-101950000D01*
X303750000Y-101950000D02*
X303750000Y-99950000D01*
X296750155Y-98250353D02*
G75*
G02*
X296750000Y-99750000I-1700155J-749647D01*
G01*
X296750155Y-94750353D02*
G75*
G02*
X296750000Y-96250000I-1700155J-749647D01*
G01*
%TO.C,J4*%
X303750000Y-115950000D02*
X303750000Y-113950000D01*
X302500000Y-115950000D02*
X303750000Y-115950000D01*
X296750000Y-108000000D02*
X296750000Y-108750000D01*
X301050000Y-108000000D02*
X296750000Y-108000000D01*
X301050000Y-108750000D02*
X301050000Y-108000000D01*
X301400000Y-108750000D02*
X301050000Y-108750000D01*
X301400000Y-108250000D02*
X301400000Y-108750000D01*
X302400000Y-108000000D02*
X301400000Y-108250000D01*
X302400000Y-111000000D02*
X302400000Y-108000000D01*
X301400000Y-110750000D02*
X302400000Y-111000000D01*
X301400000Y-110250000D02*
X301400000Y-110750000D01*
X301050000Y-110250000D02*
X301400000Y-110250000D01*
X301050000Y-111000000D02*
X301050000Y-110250000D01*
X296750000Y-111000000D02*
X301050000Y-111000000D01*
X296750000Y-110250000D02*
X296750000Y-111000000D01*
X296750000Y-111500000D02*
X296750000Y-112250000D01*
X301050000Y-111500000D02*
X296750000Y-111500000D01*
X301050000Y-112250000D02*
X301050000Y-111500000D01*
X301400000Y-112250000D02*
X301050000Y-112250000D01*
X301400000Y-111750000D02*
X301400000Y-112250000D01*
X302400000Y-111500000D02*
X301400000Y-111750000D01*
X302400000Y-114500000D02*
X302400000Y-111500000D01*
X301400000Y-114250000D02*
X302400000Y-114500000D01*
X301400000Y-113750000D02*
X301400000Y-114250000D01*
X301050000Y-113750000D02*
X301400000Y-113750000D01*
X301050000Y-114500000D02*
X301050000Y-113750000D01*
X296750000Y-114500000D02*
X301050000Y-114500000D01*
X296750000Y-113750000D02*
X296750000Y-114500000D01*
X303360000Y-106940000D02*
X303360000Y-115560000D01*
X295890000Y-106940000D02*
X303360000Y-106940000D01*
X295890000Y-115560000D02*
X295890000Y-106940000D01*
X303360000Y-115560000D02*
X295890000Y-115560000D01*
X296750155Y-108750353D02*
G75*
G02*
X296750000Y-110250000I-1700155J-749647D01*
G01*
X296750155Y-112250353D02*
G75*
G02*
X296750000Y-113750000I-1700155J-749647D01*
G01*
%TO.C,R2*%
D11*
X92666666Y-115172380D02*
X93000000Y-114696190D01*
X93238095Y-115172380D02*
X93238095Y-114172380D01*
X92857142Y-114172380D01*
X92761904Y-114220000D01*
X92714285Y-114267619D01*
X92666666Y-114362857D01*
X92666666Y-114505714D01*
X92714285Y-114600952D01*
X92761904Y-114648571D01*
X92857142Y-114696190D01*
X93238095Y-114696190D01*
X92285714Y-114267619D02*
X92238095Y-114220000D01*
X92142857Y-114172380D01*
X91904761Y-114172380D01*
X91809523Y-114220000D01*
X91761904Y-114267619D01*
X91714285Y-114362857D01*
X91714285Y-114458095D01*
X91761904Y-114600952D01*
X92333333Y-115172380D01*
X91714285Y-115172380D01*
%TO.C,R6*%
X92672380Y-143833333D02*
X92196190Y-143500000D01*
X92672380Y-143261904D02*
X91672380Y-143261904D01*
X91672380Y-143642857D01*
X91720000Y-143738095D01*
X91767619Y-143785714D01*
X91862857Y-143833333D01*
X92005714Y-143833333D01*
X92100952Y-143785714D01*
X92148571Y-143738095D01*
X92196190Y-143642857D01*
X92196190Y-143261904D01*
X91672380Y-144690476D02*
X91672380Y-144500000D01*
X91720000Y-144404761D01*
X91767619Y-144357142D01*
X91910476Y-144261904D01*
X92100952Y-144214285D01*
X92481904Y-144214285D01*
X92577142Y-144261904D01*
X92624761Y-144309523D01*
X92672380Y-144404761D01*
X92672380Y-144595238D01*
X92624761Y-144690476D01*
X92577142Y-144738095D01*
X92481904Y-144785714D01*
X92243809Y-144785714D01*
X92148571Y-144738095D01*
X92100952Y-144690476D01*
X92053333Y-144595238D01*
X92053333Y-144404761D01*
X92100952Y-144309523D01*
X92148571Y-144261904D01*
X92243809Y-144214285D01*
%TO.C,R12*%
X107642857Y-126732380D02*
X107976190Y-126256190D01*
X108214285Y-126732380D02*
X108214285Y-125732380D01*
X107833333Y-125732380D01*
X107738095Y-125780000D01*
X107690476Y-125827619D01*
X107642857Y-125922857D01*
X107642857Y-126065714D01*
X107690476Y-126160952D01*
X107738095Y-126208571D01*
X107833333Y-126256190D01*
X108214285Y-126256190D01*
X106690476Y-126732380D02*
X107261904Y-126732380D01*
X106976190Y-126732380D02*
X106976190Y-125732380D01*
X107071428Y-125875238D01*
X107166666Y-125970476D01*
X107261904Y-126018095D01*
X106309523Y-125827619D02*
X106261904Y-125780000D01*
X106166666Y-125732380D01*
X105928571Y-125732380D01*
X105833333Y-125780000D01*
X105785714Y-125827619D01*
X105738095Y-125922857D01*
X105738095Y-126018095D01*
X105785714Y-126160952D01*
X106357142Y-126732380D01*
X105738095Y-126732380D01*
%TO.C,R20*%
X122642857Y-116172380D02*
X122976190Y-115696190D01*
X123214285Y-116172380D02*
X123214285Y-115172380D01*
X122833333Y-115172380D01*
X122738095Y-115220000D01*
X122690476Y-115267619D01*
X122642857Y-115362857D01*
X122642857Y-115505714D01*
X122690476Y-115600952D01*
X122738095Y-115648571D01*
X122833333Y-115696190D01*
X123214285Y-115696190D01*
X122261904Y-115267619D02*
X122214285Y-115220000D01*
X122119047Y-115172380D01*
X121880952Y-115172380D01*
X121785714Y-115220000D01*
X121738095Y-115267619D01*
X121690476Y-115362857D01*
X121690476Y-115458095D01*
X121738095Y-115600952D01*
X122309523Y-116172380D01*
X121690476Y-116172380D01*
X121071428Y-115172380D02*
X120976190Y-115172380D01*
X120880952Y-115220000D01*
X120833333Y-115267619D01*
X120785714Y-115362857D01*
X120738095Y-115553333D01*
X120738095Y-115791428D01*
X120785714Y-115981904D01*
X120833333Y-116077142D01*
X120880952Y-116124761D01*
X120976190Y-116172380D01*
X121071428Y-116172380D01*
X121166666Y-116124761D01*
X121214285Y-116077142D01*
X121261904Y-115981904D01*
X121309523Y-115791428D01*
X121309523Y-115553333D01*
X121261904Y-115362857D01*
X121214285Y-115267619D01*
X121166666Y-115220000D01*
X121071428Y-115172380D01*
%TO.C,R29*%
X137642857Y-116172380D02*
X137976190Y-115696190D01*
X138214285Y-116172380D02*
X138214285Y-115172380D01*
X137833333Y-115172380D01*
X137738095Y-115220000D01*
X137690476Y-115267619D01*
X137642857Y-115362857D01*
X137642857Y-115505714D01*
X137690476Y-115600952D01*
X137738095Y-115648571D01*
X137833333Y-115696190D01*
X138214285Y-115696190D01*
X137261904Y-115267619D02*
X137214285Y-115220000D01*
X137119047Y-115172380D01*
X136880952Y-115172380D01*
X136785714Y-115220000D01*
X136738095Y-115267619D01*
X136690476Y-115362857D01*
X136690476Y-115458095D01*
X136738095Y-115600952D01*
X137309523Y-116172380D01*
X136690476Y-116172380D01*
X136214285Y-116172380D02*
X136023809Y-116172380D01*
X135928571Y-116124761D01*
X135880952Y-116077142D01*
X135785714Y-115934285D01*
X135738095Y-115743809D01*
X135738095Y-115362857D01*
X135785714Y-115267619D01*
X135833333Y-115220000D01*
X135928571Y-115172380D01*
X136119047Y-115172380D01*
X136214285Y-115220000D01*
X136261904Y-115267619D01*
X136309523Y-115362857D01*
X136309523Y-115600952D01*
X136261904Y-115696190D01*
X136214285Y-115743809D01*
X136119047Y-115791428D01*
X135928571Y-115791428D01*
X135833333Y-115743809D01*
X135785714Y-115696190D01*
X135738095Y-115600952D01*
%TO.C,R40*%
X152642857Y-128172380D02*
X152976190Y-127696190D01*
X153214285Y-128172380D02*
X153214285Y-127172380D01*
X152833333Y-127172380D01*
X152738095Y-127220000D01*
X152690476Y-127267619D01*
X152642857Y-127362857D01*
X152642857Y-127505714D01*
X152690476Y-127600952D01*
X152738095Y-127648571D01*
X152833333Y-127696190D01*
X153214285Y-127696190D01*
X151785714Y-127505714D02*
X151785714Y-128172380D01*
X152023809Y-127124761D02*
X152261904Y-127839047D01*
X151642857Y-127839047D01*
X151071428Y-127172380D02*
X150976190Y-127172380D01*
X150880952Y-127220000D01*
X150833333Y-127267619D01*
X150785714Y-127362857D01*
X150738095Y-127553333D01*
X150738095Y-127791428D01*
X150785714Y-127981904D01*
X150833333Y-128077142D01*
X150880952Y-128124761D01*
X150976190Y-128172380D01*
X151071428Y-128172380D01*
X151166666Y-128124761D01*
X151214285Y-128077142D01*
X151261904Y-127981904D01*
X151309523Y-127791428D01*
X151309523Y-127553333D01*
X151261904Y-127362857D01*
X151214285Y-127267619D01*
X151166666Y-127220000D01*
X151071428Y-127172380D01*
%TO.C,R53*%
X167642857Y-152172380D02*
X167976190Y-151696190D01*
X168214285Y-152172380D02*
X168214285Y-151172380D01*
X167833333Y-151172380D01*
X167738095Y-151220000D01*
X167690476Y-151267619D01*
X167642857Y-151362857D01*
X167642857Y-151505714D01*
X167690476Y-151600952D01*
X167738095Y-151648571D01*
X167833333Y-151696190D01*
X168214285Y-151696190D01*
X166738095Y-151172380D02*
X167214285Y-151172380D01*
X167261904Y-151648571D01*
X167214285Y-151600952D01*
X167119047Y-151553333D01*
X166880952Y-151553333D01*
X166785714Y-151600952D01*
X166738095Y-151648571D01*
X166690476Y-151743809D01*
X166690476Y-151981904D01*
X166738095Y-152077142D01*
X166785714Y-152124761D01*
X166880952Y-152172380D01*
X167119047Y-152172380D01*
X167214285Y-152124761D01*
X167261904Y-152077142D01*
X166357142Y-151172380D02*
X165738095Y-151172380D01*
X166071428Y-151553333D01*
X165928571Y-151553333D01*
X165833333Y-151600952D01*
X165785714Y-151648571D01*
X165738095Y-151743809D01*
X165738095Y-151981904D01*
X165785714Y-152077142D01*
X165833333Y-152124761D01*
X165928571Y-152172380D01*
X166214285Y-152172380D01*
X166309523Y-152124761D01*
X166357142Y-152077142D01*
%TO.C,R67*%
X197642857Y-128172380D02*
X197976190Y-127696190D01*
X198214285Y-128172380D02*
X198214285Y-127172380D01*
X197833333Y-127172380D01*
X197738095Y-127220000D01*
X197690476Y-127267619D01*
X197642857Y-127362857D01*
X197642857Y-127505714D01*
X197690476Y-127600952D01*
X197738095Y-127648571D01*
X197833333Y-127696190D01*
X198214285Y-127696190D01*
X196785714Y-127172380D02*
X196976190Y-127172380D01*
X197071428Y-127220000D01*
X197119047Y-127267619D01*
X197214285Y-127410476D01*
X197261904Y-127600952D01*
X197261904Y-127981904D01*
X197214285Y-128077142D01*
X197166666Y-128124761D01*
X197071428Y-128172380D01*
X196880952Y-128172380D01*
X196785714Y-128124761D01*
X196738095Y-128077142D01*
X196690476Y-127981904D01*
X196690476Y-127743809D01*
X196738095Y-127648571D01*
X196785714Y-127600952D01*
X196880952Y-127553333D01*
X197071428Y-127553333D01*
X197166666Y-127600952D01*
X197214285Y-127648571D01*
X197261904Y-127743809D01*
X196357142Y-127172380D02*
X195690476Y-127172380D01*
X196119047Y-128172380D01*
%TO.C,R95*%
X242642857Y-138732380D02*
X242976190Y-138256190D01*
X243214285Y-138732380D02*
X243214285Y-137732380D01*
X242833333Y-137732380D01*
X242738095Y-137780000D01*
X242690476Y-137827619D01*
X242642857Y-137922857D01*
X242642857Y-138065714D01*
X242690476Y-138160952D01*
X242738095Y-138208571D01*
X242833333Y-138256190D01*
X243214285Y-138256190D01*
X242166666Y-138732380D02*
X241976190Y-138732380D01*
X241880952Y-138684761D01*
X241833333Y-138637142D01*
X241738095Y-138494285D01*
X241690476Y-138303809D01*
X241690476Y-137922857D01*
X241738095Y-137827619D01*
X241785714Y-137780000D01*
X241880952Y-137732380D01*
X242071428Y-137732380D01*
X242166666Y-137780000D01*
X242214285Y-137827619D01*
X242261904Y-137922857D01*
X242261904Y-138160952D01*
X242214285Y-138256190D01*
X242166666Y-138303809D01*
X242071428Y-138351428D01*
X241880952Y-138351428D01*
X241785714Y-138303809D01*
X241738095Y-138256190D01*
X241690476Y-138160952D01*
X240785714Y-137732380D02*
X241261904Y-137732380D01*
X241309523Y-138208571D01*
X241261904Y-138160952D01*
X241166666Y-138113333D01*
X240928571Y-138113333D01*
X240833333Y-138160952D01*
X240785714Y-138208571D01*
X240738095Y-138303809D01*
X240738095Y-138541904D01*
X240785714Y-138637142D01*
X240833333Y-138684761D01*
X240928571Y-138732380D01*
X241166666Y-138732380D01*
X241261904Y-138684761D01*
X241309523Y-138637142D01*
%TO.C,R1*%
X92666666Y-110202380D02*
X93000000Y-109726190D01*
X93238095Y-110202380D02*
X93238095Y-109202380D01*
X92857142Y-109202380D01*
X92761904Y-109250000D01*
X92714285Y-109297619D01*
X92666666Y-109392857D01*
X92666666Y-109535714D01*
X92714285Y-109630952D01*
X92761904Y-109678571D01*
X92857142Y-109726190D01*
X93238095Y-109726190D01*
X91714285Y-110202380D02*
X92285714Y-110202380D01*
X92000000Y-110202380D02*
X92000000Y-109202380D01*
X92095238Y-109345238D01*
X92190476Y-109440476D01*
X92285714Y-109488095D01*
%TO.C,R3*%
X92666666Y-120202380D02*
X93000000Y-119726190D01*
X93238095Y-120202380D02*
X93238095Y-119202380D01*
X92857142Y-119202380D01*
X92761904Y-119250000D01*
X92714285Y-119297619D01*
X92666666Y-119392857D01*
X92666666Y-119535714D01*
X92714285Y-119630952D01*
X92761904Y-119678571D01*
X92857142Y-119726190D01*
X93238095Y-119726190D01*
X92333333Y-119202380D02*
X91714285Y-119202380D01*
X92047619Y-119583333D01*
X91904761Y-119583333D01*
X91809523Y-119630952D01*
X91761904Y-119678571D01*
X91714285Y-119773809D01*
X91714285Y-120011904D01*
X91761904Y-120107142D01*
X91809523Y-120154761D01*
X91904761Y-120202380D01*
X92190476Y-120202380D01*
X92285714Y-120154761D01*
X92333333Y-120107142D01*
%TO.C,R4*%
X92672380Y-127833333D02*
X92196190Y-127500000D01*
X92672380Y-127261904D02*
X91672380Y-127261904D01*
X91672380Y-127642857D01*
X91720000Y-127738095D01*
X91767619Y-127785714D01*
X91862857Y-127833333D01*
X92005714Y-127833333D01*
X92100952Y-127785714D01*
X92148571Y-127738095D01*
X92196190Y-127642857D01*
X92196190Y-127261904D01*
X92005714Y-128690476D02*
X92672380Y-128690476D01*
X91624761Y-128452380D02*
X92339047Y-128214285D01*
X92339047Y-128833333D01*
%TO.C,R7*%
X92666666Y-152952380D02*
X93000000Y-152476190D01*
X93238095Y-152952380D02*
X93238095Y-151952380D01*
X92857142Y-151952380D01*
X92761904Y-152000000D01*
X92714285Y-152047619D01*
X92666666Y-152142857D01*
X92666666Y-152285714D01*
X92714285Y-152380952D01*
X92761904Y-152428571D01*
X92857142Y-152476190D01*
X93238095Y-152476190D01*
X92333333Y-151952380D02*
X91666666Y-151952380D01*
X92095238Y-152952380D01*
%TO.C,R8*%
X92666666Y-157732380D02*
X93000000Y-157256190D01*
X93238095Y-157732380D02*
X93238095Y-156732380D01*
X92857142Y-156732380D01*
X92761904Y-156780000D01*
X92714285Y-156827619D01*
X92666666Y-156922857D01*
X92666666Y-157065714D01*
X92714285Y-157160952D01*
X92761904Y-157208571D01*
X92857142Y-157256190D01*
X93238095Y-157256190D01*
X92095238Y-157160952D02*
X92190476Y-157113333D01*
X92238095Y-157065714D01*
X92285714Y-156970476D01*
X92285714Y-156922857D01*
X92238095Y-156827619D01*
X92190476Y-156780000D01*
X92095238Y-156732380D01*
X91904761Y-156732380D01*
X91809523Y-156780000D01*
X91761904Y-156827619D01*
X91714285Y-156922857D01*
X91714285Y-156970476D01*
X91761904Y-157065714D01*
X91809523Y-157113333D01*
X91904761Y-157160952D01*
X92095238Y-157160952D01*
X92190476Y-157208571D01*
X92238095Y-157256190D01*
X92285714Y-157351428D01*
X92285714Y-157541904D01*
X92238095Y-157637142D01*
X92190476Y-157684761D01*
X92095238Y-157732380D01*
X91904761Y-157732380D01*
X91809523Y-157684761D01*
X91761904Y-157637142D01*
X91714285Y-157541904D01*
X91714285Y-157351428D01*
X91761904Y-157256190D01*
X91809523Y-157208571D01*
X91904761Y-157160952D01*
%TO.C,R9*%
X92666666Y-162952380D02*
X93000000Y-162476190D01*
X93238095Y-162952380D02*
X93238095Y-161952380D01*
X92857142Y-161952380D01*
X92761904Y-162000000D01*
X92714285Y-162047619D01*
X92666666Y-162142857D01*
X92666666Y-162285714D01*
X92714285Y-162380952D01*
X92761904Y-162428571D01*
X92857142Y-162476190D01*
X93238095Y-162476190D01*
X92190476Y-162952380D02*
X92000000Y-162952380D01*
X91904761Y-162904761D01*
X91857142Y-162857142D01*
X91761904Y-162714285D01*
X91714285Y-162523809D01*
X91714285Y-162142857D01*
X91761904Y-162047619D01*
X91809523Y-162000000D01*
X91904761Y-161952380D01*
X92095238Y-161952380D01*
X92190476Y-162000000D01*
X92238095Y-162047619D01*
X92285714Y-162142857D01*
X92285714Y-162380952D01*
X92238095Y-162476190D01*
X92190476Y-162523809D01*
X92095238Y-162571428D01*
X91904761Y-162571428D01*
X91809523Y-162523809D01*
X91761904Y-162476190D01*
X91714285Y-162380952D01*
%TO.C,R10*%
X107642857Y-114732380D02*
X107976190Y-114256190D01*
X108214285Y-114732380D02*
X108214285Y-113732380D01*
X107833333Y-113732380D01*
X107738095Y-113780000D01*
X107690476Y-113827619D01*
X107642857Y-113922857D01*
X107642857Y-114065714D01*
X107690476Y-114160952D01*
X107738095Y-114208571D01*
X107833333Y-114256190D01*
X108214285Y-114256190D01*
X106690476Y-114732380D02*
X107261904Y-114732380D01*
X106976190Y-114732380D02*
X106976190Y-113732380D01*
X107071428Y-113875238D01*
X107166666Y-113970476D01*
X107261904Y-114018095D01*
X106071428Y-113732380D02*
X105976190Y-113732380D01*
X105880952Y-113780000D01*
X105833333Y-113827619D01*
X105785714Y-113922857D01*
X105738095Y-114113333D01*
X105738095Y-114351428D01*
X105785714Y-114541904D01*
X105833333Y-114637142D01*
X105880952Y-114684761D01*
X105976190Y-114732380D01*
X106071428Y-114732380D01*
X106166666Y-114684761D01*
X106214285Y-114637142D01*
X106261904Y-114541904D01*
X106309523Y-114351428D01*
X106309523Y-114113333D01*
X106261904Y-113922857D01*
X106214285Y-113827619D01*
X106166666Y-113780000D01*
X106071428Y-113732380D01*
%TO.C,R11*%
X107642857Y-116172380D02*
X107976190Y-115696190D01*
X108214285Y-116172380D02*
X108214285Y-115172380D01*
X107833333Y-115172380D01*
X107738095Y-115220000D01*
X107690476Y-115267619D01*
X107642857Y-115362857D01*
X107642857Y-115505714D01*
X107690476Y-115600952D01*
X107738095Y-115648571D01*
X107833333Y-115696190D01*
X108214285Y-115696190D01*
X106690476Y-116172380D02*
X107261904Y-116172380D01*
X106976190Y-116172380D02*
X106976190Y-115172380D01*
X107071428Y-115315238D01*
X107166666Y-115410476D01*
X107261904Y-115458095D01*
X105738095Y-116172380D02*
X106309523Y-116172380D01*
X106023809Y-116172380D02*
X106023809Y-115172380D01*
X106119047Y-115315238D01*
X106214285Y-115410476D01*
X106309523Y-115458095D01*
%TO.C,R13*%
X107642857Y-128172380D02*
X107976190Y-127696190D01*
X108214285Y-128172380D02*
X108214285Y-127172380D01*
X107833333Y-127172380D01*
X107738095Y-127220000D01*
X107690476Y-127267619D01*
X107642857Y-127362857D01*
X107642857Y-127505714D01*
X107690476Y-127600952D01*
X107738095Y-127648571D01*
X107833333Y-127696190D01*
X108214285Y-127696190D01*
X106690476Y-128172380D02*
X107261904Y-128172380D01*
X106976190Y-128172380D02*
X106976190Y-127172380D01*
X107071428Y-127315238D01*
X107166666Y-127410476D01*
X107261904Y-127458095D01*
X106357142Y-127172380D02*
X105738095Y-127172380D01*
X106071428Y-127553333D01*
X105928571Y-127553333D01*
X105833333Y-127600952D01*
X105785714Y-127648571D01*
X105738095Y-127743809D01*
X105738095Y-127981904D01*
X105785714Y-128077142D01*
X105833333Y-128124761D01*
X105928571Y-128172380D01*
X106214285Y-128172380D01*
X106309523Y-128124761D01*
X106357142Y-128077142D01*
%TO.C,R14*%
X107642857Y-138732380D02*
X107976190Y-138256190D01*
X108214285Y-138732380D02*
X108214285Y-137732380D01*
X107833333Y-137732380D01*
X107738095Y-137780000D01*
X107690476Y-137827619D01*
X107642857Y-137922857D01*
X107642857Y-138065714D01*
X107690476Y-138160952D01*
X107738095Y-138208571D01*
X107833333Y-138256190D01*
X108214285Y-138256190D01*
X106690476Y-138732380D02*
X107261904Y-138732380D01*
X106976190Y-138732380D02*
X106976190Y-137732380D01*
X107071428Y-137875238D01*
X107166666Y-137970476D01*
X107261904Y-138018095D01*
X105833333Y-138065714D02*
X105833333Y-138732380D01*
X106071428Y-137684761D02*
X106309523Y-138399047D01*
X105690476Y-138399047D01*
%TO.C,R15*%
X107642857Y-140172380D02*
X107976190Y-139696190D01*
X108214285Y-140172380D02*
X108214285Y-139172380D01*
X107833333Y-139172380D01*
X107738095Y-139220000D01*
X107690476Y-139267619D01*
X107642857Y-139362857D01*
X107642857Y-139505714D01*
X107690476Y-139600952D01*
X107738095Y-139648571D01*
X107833333Y-139696190D01*
X108214285Y-139696190D01*
X106690476Y-140172380D02*
X107261904Y-140172380D01*
X106976190Y-140172380D02*
X106976190Y-139172380D01*
X107071428Y-139315238D01*
X107166666Y-139410476D01*
X107261904Y-139458095D01*
X105785714Y-139172380D02*
X106261904Y-139172380D01*
X106309523Y-139648571D01*
X106261904Y-139600952D01*
X106166666Y-139553333D01*
X105928571Y-139553333D01*
X105833333Y-139600952D01*
X105785714Y-139648571D01*
X105738095Y-139743809D01*
X105738095Y-139981904D01*
X105785714Y-140077142D01*
X105833333Y-140124761D01*
X105928571Y-140172380D01*
X106166666Y-140172380D01*
X106261904Y-140124761D01*
X106309523Y-140077142D01*
%TO.C,R16*%
X107642857Y-150732380D02*
X107976190Y-150256190D01*
X108214285Y-150732380D02*
X108214285Y-149732380D01*
X107833333Y-149732380D01*
X107738095Y-149780000D01*
X107690476Y-149827619D01*
X107642857Y-149922857D01*
X107642857Y-150065714D01*
X107690476Y-150160952D01*
X107738095Y-150208571D01*
X107833333Y-150256190D01*
X108214285Y-150256190D01*
X106690476Y-150732380D02*
X107261904Y-150732380D01*
X106976190Y-150732380D02*
X106976190Y-149732380D01*
X107071428Y-149875238D01*
X107166666Y-149970476D01*
X107261904Y-150018095D01*
X105833333Y-149732380D02*
X106023809Y-149732380D01*
X106119047Y-149780000D01*
X106166666Y-149827619D01*
X106261904Y-149970476D01*
X106309523Y-150160952D01*
X106309523Y-150541904D01*
X106261904Y-150637142D01*
X106214285Y-150684761D01*
X106119047Y-150732380D01*
X105928571Y-150732380D01*
X105833333Y-150684761D01*
X105785714Y-150637142D01*
X105738095Y-150541904D01*
X105738095Y-150303809D01*
X105785714Y-150208571D01*
X105833333Y-150160952D01*
X105928571Y-150113333D01*
X106119047Y-150113333D01*
X106214285Y-150160952D01*
X106261904Y-150208571D01*
X106309523Y-150303809D01*
%TO.C,R17*%
X107642857Y-152172380D02*
X107976190Y-151696190D01*
X108214285Y-152172380D02*
X108214285Y-151172380D01*
X107833333Y-151172380D01*
X107738095Y-151220000D01*
X107690476Y-151267619D01*
X107642857Y-151362857D01*
X107642857Y-151505714D01*
X107690476Y-151600952D01*
X107738095Y-151648571D01*
X107833333Y-151696190D01*
X108214285Y-151696190D01*
X106690476Y-152172380D02*
X107261904Y-152172380D01*
X106976190Y-152172380D02*
X106976190Y-151172380D01*
X107071428Y-151315238D01*
X107166666Y-151410476D01*
X107261904Y-151458095D01*
X106357142Y-151172380D02*
X105690476Y-151172380D01*
X106119047Y-152172380D01*
%TO.C,R18*%
X107642857Y-162732380D02*
X107976190Y-162256190D01*
X108214285Y-162732380D02*
X108214285Y-161732380D01*
X107833333Y-161732380D01*
X107738095Y-161780000D01*
X107690476Y-161827619D01*
X107642857Y-161922857D01*
X107642857Y-162065714D01*
X107690476Y-162160952D01*
X107738095Y-162208571D01*
X107833333Y-162256190D01*
X108214285Y-162256190D01*
X106690476Y-162732380D02*
X107261904Y-162732380D01*
X106976190Y-162732380D02*
X106976190Y-161732380D01*
X107071428Y-161875238D01*
X107166666Y-161970476D01*
X107261904Y-162018095D01*
X106119047Y-162160952D02*
X106214285Y-162113333D01*
X106261904Y-162065714D01*
X106309523Y-161970476D01*
X106309523Y-161922857D01*
X106261904Y-161827619D01*
X106214285Y-161780000D01*
X106119047Y-161732380D01*
X105928571Y-161732380D01*
X105833333Y-161780000D01*
X105785714Y-161827619D01*
X105738095Y-161922857D01*
X105738095Y-161970476D01*
X105785714Y-162065714D01*
X105833333Y-162113333D01*
X105928571Y-162160952D01*
X106119047Y-162160952D01*
X106214285Y-162208571D01*
X106261904Y-162256190D01*
X106309523Y-162351428D01*
X106309523Y-162541904D01*
X106261904Y-162637142D01*
X106214285Y-162684761D01*
X106119047Y-162732380D01*
X105928571Y-162732380D01*
X105833333Y-162684761D01*
X105785714Y-162637142D01*
X105738095Y-162541904D01*
X105738095Y-162351428D01*
X105785714Y-162256190D01*
X105833333Y-162208571D01*
X105928571Y-162160952D01*
%TO.C,R19*%
X122642857Y-114732380D02*
X122976190Y-114256190D01*
X123214285Y-114732380D02*
X123214285Y-113732380D01*
X122833333Y-113732380D01*
X122738095Y-113780000D01*
X122690476Y-113827619D01*
X122642857Y-113922857D01*
X122642857Y-114065714D01*
X122690476Y-114160952D01*
X122738095Y-114208571D01*
X122833333Y-114256190D01*
X123214285Y-114256190D01*
X121690476Y-114732380D02*
X122261904Y-114732380D01*
X121976190Y-114732380D02*
X121976190Y-113732380D01*
X122071428Y-113875238D01*
X122166666Y-113970476D01*
X122261904Y-114018095D01*
X121214285Y-114732380D02*
X121023809Y-114732380D01*
X120928571Y-114684761D01*
X120880952Y-114637142D01*
X120785714Y-114494285D01*
X120738095Y-114303809D01*
X120738095Y-113922857D01*
X120785714Y-113827619D01*
X120833333Y-113780000D01*
X120928571Y-113732380D01*
X121119047Y-113732380D01*
X121214285Y-113780000D01*
X121261904Y-113827619D01*
X121309523Y-113922857D01*
X121309523Y-114160952D01*
X121261904Y-114256190D01*
X121214285Y-114303809D01*
X121119047Y-114351428D01*
X120928571Y-114351428D01*
X120833333Y-114303809D01*
X120785714Y-114256190D01*
X120738095Y-114160952D01*
%TO.C,R21*%
X122642857Y-126732380D02*
X122976190Y-126256190D01*
X123214285Y-126732380D02*
X123214285Y-125732380D01*
X122833333Y-125732380D01*
X122738095Y-125780000D01*
X122690476Y-125827619D01*
X122642857Y-125922857D01*
X122642857Y-126065714D01*
X122690476Y-126160952D01*
X122738095Y-126208571D01*
X122833333Y-126256190D01*
X123214285Y-126256190D01*
X122261904Y-125827619D02*
X122214285Y-125780000D01*
X122119047Y-125732380D01*
X121880952Y-125732380D01*
X121785714Y-125780000D01*
X121738095Y-125827619D01*
X121690476Y-125922857D01*
X121690476Y-126018095D01*
X121738095Y-126160952D01*
X122309523Y-126732380D01*
X121690476Y-126732380D01*
X120738095Y-126732380D02*
X121309523Y-126732380D01*
X121023809Y-126732380D02*
X121023809Y-125732380D01*
X121119047Y-125875238D01*
X121214285Y-125970476D01*
X121309523Y-126018095D01*
%TO.C,R22*%
X122642857Y-128172380D02*
X122976190Y-127696190D01*
X123214285Y-128172380D02*
X123214285Y-127172380D01*
X122833333Y-127172380D01*
X122738095Y-127220000D01*
X122690476Y-127267619D01*
X122642857Y-127362857D01*
X122642857Y-127505714D01*
X122690476Y-127600952D01*
X122738095Y-127648571D01*
X122833333Y-127696190D01*
X123214285Y-127696190D01*
X122261904Y-127267619D02*
X122214285Y-127220000D01*
X122119047Y-127172380D01*
X121880952Y-127172380D01*
X121785714Y-127220000D01*
X121738095Y-127267619D01*
X121690476Y-127362857D01*
X121690476Y-127458095D01*
X121738095Y-127600952D01*
X122309523Y-128172380D01*
X121690476Y-128172380D01*
X121309523Y-127267619D02*
X121261904Y-127220000D01*
X121166666Y-127172380D01*
X120928571Y-127172380D01*
X120833333Y-127220000D01*
X120785714Y-127267619D01*
X120738095Y-127362857D01*
X120738095Y-127458095D01*
X120785714Y-127600952D01*
X121357142Y-128172380D01*
X120738095Y-128172380D01*
%TO.C,R23*%
X122642857Y-138732380D02*
X122976190Y-138256190D01*
X123214285Y-138732380D02*
X123214285Y-137732380D01*
X122833333Y-137732380D01*
X122738095Y-137780000D01*
X122690476Y-137827619D01*
X122642857Y-137922857D01*
X122642857Y-138065714D01*
X122690476Y-138160952D01*
X122738095Y-138208571D01*
X122833333Y-138256190D01*
X123214285Y-138256190D01*
X122261904Y-137827619D02*
X122214285Y-137780000D01*
X122119047Y-137732380D01*
X121880952Y-137732380D01*
X121785714Y-137780000D01*
X121738095Y-137827619D01*
X121690476Y-137922857D01*
X121690476Y-138018095D01*
X121738095Y-138160952D01*
X122309523Y-138732380D01*
X121690476Y-138732380D01*
X121357142Y-137732380D02*
X120738095Y-137732380D01*
X121071428Y-138113333D01*
X120928571Y-138113333D01*
X120833333Y-138160952D01*
X120785714Y-138208571D01*
X120738095Y-138303809D01*
X120738095Y-138541904D01*
X120785714Y-138637142D01*
X120833333Y-138684761D01*
X120928571Y-138732380D01*
X121214285Y-138732380D01*
X121309523Y-138684761D01*
X121357142Y-138637142D01*
%TO.C,R24*%
X122642857Y-140172380D02*
X122976190Y-139696190D01*
X123214285Y-140172380D02*
X123214285Y-139172380D01*
X122833333Y-139172380D01*
X122738095Y-139220000D01*
X122690476Y-139267619D01*
X122642857Y-139362857D01*
X122642857Y-139505714D01*
X122690476Y-139600952D01*
X122738095Y-139648571D01*
X122833333Y-139696190D01*
X123214285Y-139696190D01*
X122261904Y-139267619D02*
X122214285Y-139220000D01*
X122119047Y-139172380D01*
X121880952Y-139172380D01*
X121785714Y-139220000D01*
X121738095Y-139267619D01*
X121690476Y-139362857D01*
X121690476Y-139458095D01*
X121738095Y-139600952D01*
X122309523Y-140172380D01*
X121690476Y-140172380D01*
X120833333Y-139505714D02*
X120833333Y-140172380D01*
X121071428Y-139124761D02*
X121309523Y-139839047D01*
X120690476Y-139839047D01*
%TO.C,R25*%
X122642857Y-150732380D02*
X122976190Y-150256190D01*
X123214285Y-150732380D02*
X123214285Y-149732380D01*
X122833333Y-149732380D01*
X122738095Y-149780000D01*
X122690476Y-149827619D01*
X122642857Y-149922857D01*
X122642857Y-150065714D01*
X122690476Y-150160952D01*
X122738095Y-150208571D01*
X122833333Y-150256190D01*
X123214285Y-150256190D01*
X122261904Y-149827619D02*
X122214285Y-149780000D01*
X122119047Y-149732380D01*
X121880952Y-149732380D01*
X121785714Y-149780000D01*
X121738095Y-149827619D01*
X121690476Y-149922857D01*
X121690476Y-150018095D01*
X121738095Y-150160952D01*
X122309523Y-150732380D01*
X121690476Y-150732380D01*
X120785714Y-149732380D02*
X121261904Y-149732380D01*
X121309523Y-150208571D01*
X121261904Y-150160952D01*
X121166666Y-150113333D01*
X120928571Y-150113333D01*
X120833333Y-150160952D01*
X120785714Y-150208571D01*
X120738095Y-150303809D01*
X120738095Y-150541904D01*
X120785714Y-150637142D01*
X120833333Y-150684761D01*
X120928571Y-150732380D01*
X121166666Y-150732380D01*
X121261904Y-150684761D01*
X121309523Y-150637142D01*
%TO.C,R26*%
X122642857Y-152172380D02*
X122976190Y-151696190D01*
X123214285Y-152172380D02*
X123214285Y-151172380D01*
X122833333Y-151172380D01*
X122738095Y-151220000D01*
X122690476Y-151267619D01*
X122642857Y-151362857D01*
X122642857Y-151505714D01*
X122690476Y-151600952D01*
X122738095Y-151648571D01*
X122833333Y-151696190D01*
X123214285Y-151696190D01*
X122261904Y-151267619D02*
X122214285Y-151220000D01*
X122119047Y-151172380D01*
X121880952Y-151172380D01*
X121785714Y-151220000D01*
X121738095Y-151267619D01*
X121690476Y-151362857D01*
X121690476Y-151458095D01*
X121738095Y-151600952D01*
X122309523Y-152172380D01*
X121690476Y-152172380D01*
X120833333Y-151172380D02*
X121023809Y-151172380D01*
X121119047Y-151220000D01*
X121166666Y-151267619D01*
X121261904Y-151410476D01*
X121309523Y-151600952D01*
X121309523Y-151981904D01*
X121261904Y-152077142D01*
X121214285Y-152124761D01*
X121119047Y-152172380D01*
X120928571Y-152172380D01*
X120833333Y-152124761D01*
X120785714Y-152077142D01*
X120738095Y-151981904D01*
X120738095Y-151743809D01*
X120785714Y-151648571D01*
X120833333Y-151600952D01*
X120928571Y-151553333D01*
X121119047Y-151553333D01*
X121214285Y-151600952D01*
X121261904Y-151648571D01*
X121309523Y-151743809D01*
%TO.C,R27*%
X122642857Y-162732380D02*
X122976190Y-162256190D01*
X123214285Y-162732380D02*
X123214285Y-161732380D01*
X122833333Y-161732380D01*
X122738095Y-161780000D01*
X122690476Y-161827619D01*
X122642857Y-161922857D01*
X122642857Y-162065714D01*
X122690476Y-162160952D01*
X122738095Y-162208571D01*
X122833333Y-162256190D01*
X123214285Y-162256190D01*
X122261904Y-161827619D02*
X122214285Y-161780000D01*
X122119047Y-161732380D01*
X121880952Y-161732380D01*
X121785714Y-161780000D01*
X121738095Y-161827619D01*
X121690476Y-161922857D01*
X121690476Y-162018095D01*
X121738095Y-162160952D01*
X122309523Y-162732380D01*
X121690476Y-162732380D01*
X121357142Y-161732380D02*
X120690476Y-161732380D01*
X121119047Y-162732380D01*
%TO.C,R28*%
X137642857Y-114732380D02*
X137976190Y-114256190D01*
X138214285Y-114732380D02*
X138214285Y-113732380D01*
X137833333Y-113732380D01*
X137738095Y-113780000D01*
X137690476Y-113827619D01*
X137642857Y-113922857D01*
X137642857Y-114065714D01*
X137690476Y-114160952D01*
X137738095Y-114208571D01*
X137833333Y-114256190D01*
X138214285Y-114256190D01*
X137261904Y-113827619D02*
X137214285Y-113780000D01*
X137119047Y-113732380D01*
X136880952Y-113732380D01*
X136785714Y-113780000D01*
X136738095Y-113827619D01*
X136690476Y-113922857D01*
X136690476Y-114018095D01*
X136738095Y-114160952D01*
X137309523Y-114732380D01*
X136690476Y-114732380D01*
X136119047Y-114160952D02*
X136214285Y-114113333D01*
X136261904Y-114065714D01*
X136309523Y-113970476D01*
X136309523Y-113922857D01*
X136261904Y-113827619D01*
X136214285Y-113780000D01*
X136119047Y-113732380D01*
X135928571Y-113732380D01*
X135833333Y-113780000D01*
X135785714Y-113827619D01*
X135738095Y-113922857D01*
X135738095Y-113970476D01*
X135785714Y-114065714D01*
X135833333Y-114113333D01*
X135928571Y-114160952D01*
X136119047Y-114160952D01*
X136214285Y-114208571D01*
X136261904Y-114256190D01*
X136309523Y-114351428D01*
X136309523Y-114541904D01*
X136261904Y-114637142D01*
X136214285Y-114684761D01*
X136119047Y-114732380D01*
X135928571Y-114732380D01*
X135833333Y-114684761D01*
X135785714Y-114637142D01*
X135738095Y-114541904D01*
X135738095Y-114351428D01*
X135785714Y-114256190D01*
X135833333Y-114208571D01*
X135928571Y-114160952D01*
%TO.C,R30*%
X137642857Y-126732380D02*
X137976190Y-126256190D01*
X138214285Y-126732380D02*
X138214285Y-125732380D01*
X137833333Y-125732380D01*
X137738095Y-125780000D01*
X137690476Y-125827619D01*
X137642857Y-125922857D01*
X137642857Y-126065714D01*
X137690476Y-126160952D01*
X137738095Y-126208571D01*
X137833333Y-126256190D01*
X138214285Y-126256190D01*
X137309523Y-125732380D02*
X136690476Y-125732380D01*
X137023809Y-126113333D01*
X136880952Y-126113333D01*
X136785714Y-126160952D01*
X136738095Y-126208571D01*
X136690476Y-126303809D01*
X136690476Y-126541904D01*
X136738095Y-126637142D01*
X136785714Y-126684761D01*
X136880952Y-126732380D01*
X137166666Y-126732380D01*
X137261904Y-126684761D01*
X137309523Y-126637142D01*
X136071428Y-125732380D02*
X135976190Y-125732380D01*
X135880952Y-125780000D01*
X135833333Y-125827619D01*
X135785714Y-125922857D01*
X135738095Y-126113333D01*
X135738095Y-126351428D01*
X135785714Y-126541904D01*
X135833333Y-126637142D01*
X135880952Y-126684761D01*
X135976190Y-126732380D01*
X136071428Y-126732380D01*
X136166666Y-126684761D01*
X136214285Y-126637142D01*
X136261904Y-126541904D01*
X136309523Y-126351428D01*
X136309523Y-126113333D01*
X136261904Y-125922857D01*
X136214285Y-125827619D01*
X136166666Y-125780000D01*
X136071428Y-125732380D01*
%TO.C,R31*%
X137642857Y-128172380D02*
X137976190Y-127696190D01*
X138214285Y-128172380D02*
X138214285Y-127172380D01*
X137833333Y-127172380D01*
X137738095Y-127220000D01*
X137690476Y-127267619D01*
X137642857Y-127362857D01*
X137642857Y-127505714D01*
X137690476Y-127600952D01*
X137738095Y-127648571D01*
X137833333Y-127696190D01*
X138214285Y-127696190D01*
X137309523Y-127172380D02*
X136690476Y-127172380D01*
X137023809Y-127553333D01*
X136880952Y-127553333D01*
X136785714Y-127600952D01*
X136738095Y-127648571D01*
X136690476Y-127743809D01*
X136690476Y-127981904D01*
X136738095Y-128077142D01*
X136785714Y-128124761D01*
X136880952Y-128172380D01*
X137166666Y-128172380D01*
X137261904Y-128124761D01*
X137309523Y-128077142D01*
X135738095Y-128172380D02*
X136309523Y-128172380D01*
X136023809Y-128172380D02*
X136023809Y-127172380D01*
X136119047Y-127315238D01*
X136214285Y-127410476D01*
X136309523Y-127458095D01*
%TO.C,R32*%
X137642857Y-138732380D02*
X137976190Y-138256190D01*
X138214285Y-138732380D02*
X138214285Y-137732380D01*
X137833333Y-137732380D01*
X137738095Y-137780000D01*
X137690476Y-137827619D01*
X137642857Y-137922857D01*
X137642857Y-138065714D01*
X137690476Y-138160952D01*
X137738095Y-138208571D01*
X137833333Y-138256190D01*
X138214285Y-138256190D01*
X137309523Y-137732380D02*
X136690476Y-137732380D01*
X137023809Y-138113333D01*
X136880952Y-138113333D01*
X136785714Y-138160952D01*
X136738095Y-138208571D01*
X136690476Y-138303809D01*
X136690476Y-138541904D01*
X136738095Y-138637142D01*
X136785714Y-138684761D01*
X136880952Y-138732380D01*
X137166666Y-138732380D01*
X137261904Y-138684761D01*
X137309523Y-138637142D01*
X136309523Y-137827619D02*
X136261904Y-137780000D01*
X136166666Y-137732380D01*
X135928571Y-137732380D01*
X135833333Y-137780000D01*
X135785714Y-137827619D01*
X135738095Y-137922857D01*
X135738095Y-138018095D01*
X135785714Y-138160952D01*
X136357142Y-138732380D01*
X135738095Y-138732380D01*
%TO.C,R33*%
X137642857Y-140172380D02*
X137976190Y-139696190D01*
X138214285Y-140172380D02*
X138214285Y-139172380D01*
X137833333Y-139172380D01*
X137738095Y-139220000D01*
X137690476Y-139267619D01*
X137642857Y-139362857D01*
X137642857Y-139505714D01*
X137690476Y-139600952D01*
X137738095Y-139648571D01*
X137833333Y-139696190D01*
X138214285Y-139696190D01*
X137309523Y-139172380D02*
X136690476Y-139172380D01*
X137023809Y-139553333D01*
X136880952Y-139553333D01*
X136785714Y-139600952D01*
X136738095Y-139648571D01*
X136690476Y-139743809D01*
X136690476Y-139981904D01*
X136738095Y-140077142D01*
X136785714Y-140124761D01*
X136880952Y-140172380D01*
X137166666Y-140172380D01*
X137261904Y-140124761D01*
X137309523Y-140077142D01*
X136357142Y-139172380D02*
X135738095Y-139172380D01*
X136071428Y-139553333D01*
X135928571Y-139553333D01*
X135833333Y-139600952D01*
X135785714Y-139648571D01*
X135738095Y-139743809D01*
X135738095Y-139981904D01*
X135785714Y-140077142D01*
X135833333Y-140124761D01*
X135928571Y-140172380D01*
X136214285Y-140172380D01*
X136309523Y-140124761D01*
X136357142Y-140077142D01*
%TO.C,R34*%
X137642857Y-150732380D02*
X137976190Y-150256190D01*
X138214285Y-150732380D02*
X138214285Y-149732380D01*
X137833333Y-149732380D01*
X137738095Y-149780000D01*
X137690476Y-149827619D01*
X137642857Y-149922857D01*
X137642857Y-150065714D01*
X137690476Y-150160952D01*
X137738095Y-150208571D01*
X137833333Y-150256190D01*
X138214285Y-150256190D01*
X137309523Y-149732380D02*
X136690476Y-149732380D01*
X137023809Y-150113333D01*
X136880952Y-150113333D01*
X136785714Y-150160952D01*
X136738095Y-150208571D01*
X136690476Y-150303809D01*
X136690476Y-150541904D01*
X136738095Y-150637142D01*
X136785714Y-150684761D01*
X136880952Y-150732380D01*
X137166666Y-150732380D01*
X137261904Y-150684761D01*
X137309523Y-150637142D01*
X135833333Y-150065714D02*
X135833333Y-150732380D01*
X136071428Y-149684761D02*
X136309523Y-150399047D01*
X135690476Y-150399047D01*
%TO.C,R35*%
X137642857Y-152172380D02*
X137976190Y-151696190D01*
X138214285Y-152172380D02*
X138214285Y-151172380D01*
X137833333Y-151172380D01*
X137738095Y-151220000D01*
X137690476Y-151267619D01*
X137642857Y-151362857D01*
X137642857Y-151505714D01*
X137690476Y-151600952D01*
X137738095Y-151648571D01*
X137833333Y-151696190D01*
X138214285Y-151696190D01*
X137309523Y-151172380D02*
X136690476Y-151172380D01*
X137023809Y-151553333D01*
X136880952Y-151553333D01*
X136785714Y-151600952D01*
X136738095Y-151648571D01*
X136690476Y-151743809D01*
X136690476Y-151981904D01*
X136738095Y-152077142D01*
X136785714Y-152124761D01*
X136880952Y-152172380D01*
X137166666Y-152172380D01*
X137261904Y-152124761D01*
X137309523Y-152077142D01*
X135785714Y-151172380D02*
X136261904Y-151172380D01*
X136309523Y-151648571D01*
X136261904Y-151600952D01*
X136166666Y-151553333D01*
X135928571Y-151553333D01*
X135833333Y-151600952D01*
X135785714Y-151648571D01*
X135738095Y-151743809D01*
X135738095Y-151981904D01*
X135785714Y-152077142D01*
X135833333Y-152124761D01*
X135928571Y-152172380D01*
X136166666Y-152172380D01*
X136261904Y-152124761D01*
X136309523Y-152077142D01*
%TO.C,R36*%
X137642857Y-162732380D02*
X137976190Y-162256190D01*
X138214285Y-162732380D02*
X138214285Y-161732380D01*
X137833333Y-161732380D01*
X137738095Y-161780000D01*
X137690476Y-161827619D01*
X137642857Y-161922857D01*
X137642857Y-162065714D01*
X137690476Y-162160952D01*
X137738095Y-162208571D01*
X137833333Y-162256190D01*
X138214285Y-162256190D01*
X137309523Y-161732380D02*
X136690476Y-161732380D01*
X137023809Y-162113333D01*
X136880952Y-162113333D01*
X136785714Y-162160952D01*
X136738095Y-162208571D01*
X136690476Y-162303809D01*
X136690476Y-162541904D01*
X136738095Y-162637142D01*
X136785714Y-162684761D01*
X136880952Y-162732380D01*
X137166666Y-162732380D01*
X137261904Y-162684761D01*
X137309523Y-162637142D01*
X135833333Y-161732380D02*
X136023809Y-161732380D01*
X136119047Y-161780000D01*
X136166666Y-161827619D01*
X136261904Y-161970476D01*
X136309523Y-162160952D01*
X136309523Y-162541904D01*
X136261904Y-162637142D01*
X136214285Y-162684761D01*
X136119047Y-162732380D01*
X135928571Y-162732380D01*
X135833333Y-162684761D01*
X135785714Y-162637142D01*
X135738095Y-162541904D01*
X135738095Y-162303809D01*
X135785714Y-162208571D01*
X135833333Y-162160952D01*
X135928571Y-162113333D01*
X136119047Y-162113333D01*
X136214285Y-162160952D01*
X136261904Y-162208571D01*
X136309523Y-162303809D01*
%TO.C,R37*%
X152642857Y-114732380D02*
X152976190Y-114256190D01*
X153214285Y-114732380D02*
X153214285Y-113732380D01*
X152833333Y-113732380D01*
X152738095Y-113780000D01*
X152690476Y-113827619D01*
X152642857Y-113922857D01*
X152642857Y-114065714D01*
X152690476Y-114160952D01*
X152738095Y-114208571D01*
X152833333Y-114256190D01*
X153214285Y-114256190D01*
X152309523Y-113732380D02*
X151690476Y-113732380D01*
X152023809Y-114113333D01*
X151880952Y-114113333D01*
X151785714Y-114160952D01*
X151738095Y-114208571D01*
X151690476Y-114303809D01*
X151690476Y-114541904D01*
X151738095Y-114637142D01*
X151785714Y-114684761D01*
X151880952Y-114732380D01*
X152166666Y-114732380D01*
X152261904Y-114684761D01*
X152309523Y-114637142D01*
X151357142Y-113732380D02*
X150690476Y-113732380D01*
X151119047Y-114732380D01*
%TO.C,R38*%
X152642857Y-116172380D02*
X152976190Y-115696190D01*
X153214285Y-116172380D02*
X153214285Y-115172380D01*
X152833333Y-115172380D01*
X152738095Y-115220000D01*
X152690476Y-115267619D01*
X152642857Y-115362857D01*
X152642857Y-115505714D01*
X152690476Y-115600952D01*
X152738095Y-115648571D01*
X152833333Y-115696190D01*
X153214285Y-115696190D01*
X152309523Y-115172380D02*
X151690476Y-115172380D01*
X152023809Y-115553333D01*
X151880952Y-115553333D01*
X151785714Y-115600952D01*
X151738095Y-115648571D01*
X151690476Y-115743809D01*
X151690476Y-115981904D01*
X151738095Y-116077142D01*
X151785714Y-116124761D01*
X151880952Y-116172380D01*
X152166666Y-116172380D01*
X152261904Y-116124761D01*
X152309523Y-116077142D01*
X151119047Y-115600952D02*
X151214285Y-115553333D01*
X151261904Y-115505714D01*
X151309523Y-115410476D01*
X151309523Y-115362857D01*
X151261904Y-115267619D01*
X151214285Y-115220000D01*
X151119047Y-115172380D01*
X150928571Y-115172380D01*
X150833333Y-115220000D01*
X150785714Y-115267619D01*
X150738095Y-115362857D01*
X150738095Y-115410476D01*
X150785714Y-115505714D01*
X150833333Y-115553333D01*
X150928571Y-115600952D01*
X151119047Y-115600952D01*
X151214285Y-115648571D01*
X151261904Y-115696190D01*
X151309523Y-115791428D01*
X151309523Y-115981904D01*
X151261904Y-116077142D01*
X151214285Y-116124761D01*
X151119047Y-116172380D01*
X150928571Y-116172380D01*
X150833333Y-116124761D01*
X150785714Y-116077142D01*
X150738095Y-115981904D01*
X150738095Y-115791428D01*
X150785714Y-115696190D01*
X150833333Y-115648571D01*
X150928571Y-115600952D01*
%TO.C,R39*%
X152642857Y-126732380D02*
X152976190Y-126256190D01*
X153214285Y-126732380D02*
X153214285Y-125732380D01*
X152833333Y-125732380D01*
X152738095Y-125780000D01*
X152690476Y-125827619D01*
X152642857Y-125922857D01*
X152642857Y-126065714D01*
X152690476Y-126160952D01*
X152738095Y-126208571D01*
X152833333Y-126256190D01*
X153214285Y-126256190D01*
X152309523Y-125732380D02*
X151690476Y-125732380D01*
X152023809Y-126113333D01*
X151880952Y-126113333D01*
X151785714Y-126160952D01*
X151738095Y-126208571D01*
X151690476Y-126303809D01*
X151690476Y-126541904D01*
X151738095Y-126637142D01*
X151785714Y-126684761D01*
X151880952Y-126732380D01*
X152166666Y-126732380D01*
X152261904Y-126684761D01*
X152309523Y-126637142D01*
X151214285Y-126732380D02*
X151023809Y-126732380D01*
X150928571Y-126684761D01*
X150880952Y-126637142D01*
X150785714Y-126494285D01*
X150738095Y-126303809D01*
X150738095Y-125922857D01*
X150785714Y-125827619D01*
X150833333Y-125780000D01*
X150928571Y-125732380D01*
X151119047Y-125732380D01*
X151214285Y-125780000D01*
X151261904Y-125827619D01*
X151309523Y-125922857D01*
X151309523Y-126160952D01*
X151261904Y-126256190D01*
X151214285Y-126303809D01*
X151119047Y-126351428D01*
X150928571Y-126351428D01*
X150833333Y-126303809D01*
X150785714Y-126256190D01*
X150738095Y-126160952D01*
%TO.C,R41*%
X152642857Y-138732380D02*
X152976190Y-138256190D01*
X153214285Y-138732380D02*
X153214285Y-137732380D01*
X152833333Y-137732380D01*
X152738095Y-137780000D01*
X152690476Y-137827619D01*
X152642857Y-137922857D01*
X152642857Y-138065714D01*
X152690476Y-138160952D01*
X152738095Y-138208571D01*
X152833333Y-138256190D01*
X153214285Y-138256190D01*
X151785714Y-138065714D02*
X151785714Y-138732380D01*
X152023809Y-137684761D02*
X152261904Y-138399047D01*
X151642857Y-138399047D01*
X150738095Y-138732380D02*
X151309523Y-138732380D01*
X151023809Y-138732380D02*
X151023809Y-137732380D01*
X151119047Y-137875238D01*
X151214285Y-137970476D01*
X151309523Y-138018095D01*
%TO.C,R42*%
X152642857Y-140172380D02*
X152976190Y-139696190D01*
X153214285Y-140172380D02*
X153214285Y-139172380D01*
X152833333Y-139172380D01*
X152738095Y-139220000D01*
X152690476Y-139267619D01*
X152642857Y-139362857D01*
X152642857Y-139505714D01*
X152690476Y-139600952D01*
X152738095Y-139648571D01*
X152833333Y-139696190D01*
X153214285Y-139696190D01*
X151785714Y-139505714D02*
X151785714Y-140172380D01*
X152023809Y-139124761D02*
X152261904Y-139839047D01*
X151642857Y-139839047D01*
X151309523Y-139267619D02*
X151261904Y-139220000D01*
X151166666Y-139172380D01*
X150928571Y-139172380D01*
X150833333Y-139220000D01*
X150785714Y-139267619D01*
X150738095Y-139362857D01*
X150738095Y-139458095D01*
X150785714Y-139600952D01*
X151357142Y-140172380D01*
X150738095Y-140172380D01*
%TO.C,R43*%
X152642857Y-150732380D02*
X152976190Y-150256190D01*
X153214285Y-150732380D02*
X153214285Y-149732380D01*
X152833333Y-149732380D01*
X152738095Y-149780000D01*
X152690476Y-149827619D01*
X152642857Y-149922857D01*
X152642857Y-150065714D01*
X152690476Y-150160952D01*
X152738095Y-150208571D01*
X152833333Y-150256190D01*
X153214285Y-150256190D01*
X151785714Y-150065714D02*
X151785714Y-150732380D01*
X152023809Y-149684761D02*
X152261904Y-150399047D01*
X151642857Y-150399047D01*
X151357142Y-149732380D02*
X150738095Y-149732380D01*
X151071428Y-150113333D01*
X150928571Y-150113333D01*
X150833333Y-150160952D01*
X150785714Y-150208571D01*
X150738095Y-150303809D01*
X150738095Y-150541904D01*
X150785714Y-150637142D01*
X150833333Y-150684761D01*
X150928571Y-150732380D01*
X151214285Y-150732380D01*
X151309523Y-150684761D01*
X151357142Y-150637142D01*
%TO.C,R44*%
X152642857Y-152172380D02*
X152976190Y-151696190D01*
X153214285Y-152172380D02*
X153214285Y-151172380D01*
X152833333Y-151172380D01*
X152738095Y-151220000D01*
X152690476Y-151267619D01*
X152642857Y-151362857D01*
X152642857Y-151505714D01*
X152690476Y-151600952D01*
X152738095Y-151648571D01*
X152833333Y-151696190D01*
X153214285Y-151696190D01*
X151785714Y-151505714D02*
X151785714Y-152172380D01*
X152023809Y-151124761D02*
X152261904Y-151839047D01*
X151642857Y-151839047D01*
X150833333Y-151505714D02*
X150833333Y-152172380D01*
X151071428Y-151124761D02*
X151309523Y-151839047D01*
X150690476Y-151839047D01*
%TO.C,R45*%
X152642857Y-162732380D02*
X152976190Y-162256190D01*
X153214285Y-162732380D02*
X153214285Y-161732380D01*
X152833333Y-161732380D01*
X152738095Y-161780000D01*
X152690476Y-161827619D01*
X152642857Y-161922857D01*
X152642857Y-162065714D01*
X152690476Y-162160952D01*
X152738095Y-162208571D01*
X152833333Y-162256190D01*
X153214285Y-162256190D01*
X151785714Y-162065714D02*
X151785714Y-162732380D01*
X152023809Y-161684761D02*
X152261904Y-162399047D01*
X151642857Y-162399047D01*
X150785714Y-161732380D02*
X151261904Y-161732380D01*
X151309523Y-162208571D01*
X151261904Y-162160952D01*
X151166666Y-162113333D01*
X150928571Y-162113333D01*
X150833333Y-162160952D01*
X150785714Y-162208571D01*
X150738095Y-162303809D01*
X150738095Y-162541904D01*
X150785714Y-162637142D01*
X150833333Y-162684761D01*
X150928571Y-162732380D01*
X151166666Y-162732380D01*
X151261904Y-162684761D01*
X151309523Y-162637142D01*
%TO.C,R46*%
X167642857Y-114732380D02*
X167976190Y-114256190D01*
X168214285Y-114732380D02*
X168214285Y-113732380D01*
X167833333Y-113732380D01*
X167738095Y-113780000D01*
X167690476Y-113827619D01*
X167642857Y-113922857D01*
X167642857Y-114065714D01*
X167690476Y-114160952D01*
X167738095Y-114208571D01*
X167833333Y-114256190D01*
X168214285Y-114256190D01*
X166785714Y-114065714D02*
X166785714Y-114732380D01*
X167023809Y-113684761D02*
X167261904Y-114399047D01*
X166642857Y-114399047D01*
X165833333Y-113732380D02*
X166023809Y-113732380D01*
X166119047Y-113780000D01*
X166166666Y-113827619D01*
X166261904Y-113970476D01*
X166309523Y-114160952D01*
X166309523Y-114541904D01*
X166261904Y-114637142D01*
X166214285Y-114684761D01*
X166119047Y-114732380D01*
X165928571Y-114732380D01*
X165833333Y-114684761D01*
X165785714Y-114637142D01*
X165738095Y-114541904D01*
X165738095Y-114303809D01*
X165785714Y-114208571D01*
X165833333Y-114160952D01*
X165928571Y-114113333D01*
X166119047Y-114113333D01*
X166214285Y-114160952D01*
X166261904Y-114208571D01*
X166309523Y-114303809D01*
%TO.C,R47*%
X167642857Y-116172380D02*
X167976190Y-115696190D01*
X168214285Y-116172380D02*
X168214285Y-115172380D01*
X167833333Y-115172380D01*
X167738095Y-115220000D01*
X167690476Y-115267619D01*
X167642857Y-115362857D01*
X167642857Y-115505714D01*
X167690476Y-115600952D01*
X167738095Y-115648571D01*
X167833333Y-115696190D01*
X168214285Y-115696190D01*
X166785714Y-115505714D02*
X166785714Y-116172380D01*
X167023809Y-115124761D02*
X167261904Y-115839047D01*
X166642857Y-115839047D01*
X166357142Y-115172380D02*
X165690476Y-115172380D01*
X166119047Y-116172380D01*
%TO.C,R48*%
X167642857Y-126732380D02*
X167976190Y-126256190D01*
X168214285Y-126732380D02*
X168214285Y-125732380D01*
X167833333Y-125732380D01*
X167738095Y-125780000D01*
X167690476Y-125827619D01*
X167642857Y-125922857D01*
X167642857Y-126065714D01*
X167690476Y-126160952D01*
X167738095Y-126208571D01*
X167833333Y-126256190D01*
X168214285Y-126256190D01*
X166785714Y-126065714D02*
X166785714Y-126732380D01*
X167023809Y-125684761D02*
X167261904Y-126399047D01*
X166642857Y-126399047D01*
X166119047Y-126160952D02*
X166214285Y-126113333D01*
X166261904Y-126065714D01*
X166309523Y-125970476D01*
X166309523Y-125922857D01*
X166261904Y-125827619D01*
X166214285Y-125780000D01*
X166119047Y-125732380D01*
X165928571Y-125732380D01*
X165833333Y-125780000D01*
X165785714Y-125827619D01*
X165738095Y-125922857D01*
X165738095Y-125970476D01*
X165785714Y-126065714D01*
X165833333Y-126113333D01*
X165928571Y-126160952D01*
X166119047Y-126160952D01*
X166214285Y-126208571D01*
X166261904Y-126256190D01*
X166309523Y-126351428D01*
X166309523Y-126541904D01*
X166261904Y-126637142D01*
X166214285Y-126684761D01*
X166119047Y-126732380D01*
X165928571Y-126732380D01*
X165833333Y-126684761D01*
X165785714Y-126637142D01*
X165738095Y-126541904D01*
X165738095Y-126351428D01*
X165785714Y-126256190D01*
X165833333Y-126208571D01*
X165928571Y-126160952D01*
%TO.C,R49*%
X167642857Y-128172380D02*
X167976190Y-127696190D01*
X168214285Y-128172380D02*
X168214285Y-127172380D01*
X167833333Y-127172380D01*
X167738095Y-127220000D01*
X167690476Y-127267619D01*
X167642857Y-127362857D01*
X167642857Y-127505714D01*
X167690476Y-127600952D01*
X167738095Y-127648571D01*
X167833333Y-127696190D01*
X168214285Y-127696190D01*
X166785714Y-127505714D02*
X166785714Y-128172380D01*
X167023809Y-127124761D02*
X167261904Y-127839047D01*
X166642857Y-127839047D01*
X166214285Y-128172380D02*
X166023809Y-128172380D01*
X165928571Y-128124761D01*
X165880952Y-128077142D01*
X165785714Y-127934285D01*
X165738095Y-127743809D01*
X165738095Y-127362857D01*
X165785714Y-127267619D01*
X165833333Y-127220000D01*
X165928571Y-127172380D01*
X166119047Y-127172380D01*
X166214285Y-127220000D01*
X166261904Y-127267619D01*
X166309523Y-127362857D01*
X166309523Y-127600952D01*
X166261904Y-127696190D01*
X166214285Y-127743809D01*
X166119047Y-127791428D01*
X165928571Y-127791428D01*
X165833333Y-127743809D01*
X165785714Y-127696190D01*
X165738095Y-127600952D01*
%TO.C,R50*%
X167642857Y-138732380D02*
X167976190Y-138256190D01*
X168214285Y-138732380D02*
X168214285Y-137732380D01*
X167833333Y-137732380D01*
X167738095Y-137780000D01*
X167690476Y-137827619D01*
X167642857Y-137922857D01*
X167642857Y-138065714D01*
X167690476Y-138160952D01*
X167738095Y-138208571D01*
X167833333Y-138256190D01*
X168214285Y-138256190D01*
X166738095Y-137732380D02*
X167214285Y-137732380D01*
X167261904Y-138208571D01*
X167214285Y-138160952D01*
X167119047Y-138113333D01*
X166880952Y-138113333D01*
X166785714Y-138160952D01*
X166738095Y-138208571D01*
X166690476Y-138303809D01*
X166690476Y-138541904D01*
X166738095Y-138637142D01*
X166785714Y-138684761D01*
X166880952Y-138732380D01*
X167119047Y-138732380D01*
X167214285Y-138684761D01*
X167261904Y-138637142D01*
X166071428Y-137732380D02*
X165976190Y-137732380D01*
X165880952Y-137780000D01*
X165833333Y-137827619D01*
X165785714Y-137922857D01*
X165738095Y-138113333D01*
X165738095Y-138351428D01*
X165785714Y-138541904D01*
X165833333Y-138637142D01*
X165880952Y-138684761D01*
X165976190Y-138732380D01*
X166071428Y-138732380D01*
X166166666Y-138684761D01*
X166214285Y-138637142D01*
X166261904Y-138541904D01*
X166309523Y-138351428D01*
X166309523Y-138113333D01*
X166261904Y-137922857D01*
X166214285Y-137827619D01*
X166166666Y-137780000D01*
X166071428Y-137732380D01*
%TO.C,R51*%
X167642857Y-140172380D02*
X167976190Y-139696190D01*
X168214285Y-140172380D02*
X168214285Y-139172380D01*
X167833333Y-139172380D01*
X167738095Y-139220000D01*
X167690476Y-139267619D01*
X167642857Y-139362857D01*
X167642857Y-139505714D01*
X167690476Y-139600952D01*
X167738095Y-139648571D01*
X167833333Y-139696190D01*
X168214285Y-139696190D01*
X166738095Y-139172380D02*
X167214285Y-139172380D01*
X167261904Y-139648571D01*
X167214285Y-139600952D01*
X167119047Y-139553333D01*
X166880952Y-139553333D01*
X166785714Y-139600952D01*
X166738095Y-139648571D01*
X166690476Y-139743809D01*
X166690476Y-139981904D01*
X166738095Y-140077142D01*
X166785714Y-140124761D01*
X166880952Y-140172380D01*
X167119047Y-140172380D01*
X167214285Y-140124761D01*
X167261904Y-140077142D01*
X165738095Y-140172380D02*
X166309523Y-140172380D01*
X166023809Y-140172380D02*
X166023809Y-139172380D01*
X166119047Y-139315238D01*
X166214285Y-139410476D01*
X166309523Y-139458095D01*
%TO.C,R52*%
X167642857Y-150732380D02*
X167976190Y-150256190D01*
X168214285Y-150732380D02*
X168214285Y-149732380D01*
X167833333Y-149732380D01*
X167738095Y-149780000D01*
X167690476Y-149827619D01*
X167642857Y-149922857D01*
X167642857Y-150065714D01*
X167690476Y-150160952D01*
X167738095Y-150208571D01*
X167833333Y-150256190D01*
X168214285Y-150256190D01*
X166738095Y-149732380D02*
X167214285Y-149732380D01*
X167261904Y-150208571D01*
X167214285Y-150160952D01*
X167119047Y-150113333D01*
X166880952Y-150113333D01*
X166785714Y-150160952D01*
X166738095Y-150208571D01*
X166690476Y-150303809D01*
X166690476Y-150541904D01*
X166738095Y-150637142D01*
X166785714Y-150684761D01*
X166880952Y-150732380D01*
X167119047Y-150732380D01*
X167214285Y-150684761D01*
X167261904Y-150637142D01*
X166309523Y-149827619D02*
X166261904Y-149780000D01*
X166166666Y-149732380D01*
X165928571Y-149732380D01*
X165833333Y-149780000D01*
X165785714Y-149827619D01*
X165738095Y-149922857D01*
X165738095Y-150018095D01*
X165785714Y-150160952D01*
X166357142Y-150732380D01*
X165738095Y-150732380D01*
%TO.C,R54*%
X167642857Y-162732380D02*
X167976190Y-162256190D01*
X168214285Y-162732380D02*
X168214285Y-161732380D01*
X167833333Y-161732380D01*
X167738095Y-161780000D01*
X167690476Y-161827619D01*
X167642857Y-161922857D01*
X167642857Y-162065714D01*
X167690476Y-162160952D01*
X167738095Y-162208571D01*
X167833333Y-162256190D01*
X168214285Y-162256190D01*
X166738095Y-161732380D02*
X167214285Y-161732380D01*
X167261904Y-162208571D01*
X167214285Y-162160952D01*
X167119047Y-162113333D01*
X166880952Y-162113333D01*
X166785714Y-162160952D01*
X166738095Y-162208571D01*
X166690476Y-162303809D01*
X166690476Y-162541904D01*
X166738095Y-162637142D01*
X166785714Y-162684761D01*
X166880952Y-162732380D01*
X167119047Y-162732380D01*
X167214285Y-162684761D01*
X167261904Y-162637142D01*
X165833333Y-162065714D02*
X165833333Y-162732380D01*
X166071428Y-161684761D02*
X166309523Y-162399047D01*
X165690476Y-162399047D01*
%TO.C,R55*%
X182642857Y-114732380D02*
X182976190Y-114256190D01*
X183214285Y-114732380D02*
X183214285Y-113732380D01*
X182833333Y-113732380D01*
X182738095Y-113780000D01*
X182690476Y-113827619D01*
X182642857Y-113922857D01*
X182642857Y-114065714D01*
X182690476Y-114160952D01*
X182738095Y-114208571D01*
X182833333Y-114256190D01*
X183214285Y-114256190D01*
X181738095Y-113732380D02*
X182214285Y-113732380D01*
X182261904Y-114208571D01*
X182214285Y-114160952D01*
X182119047Y-114113333D01*
X181880952Y-114113333D01*
X181785714Y-114160952D01*
X181738095Y-114208571D01*
X181690476Y-114303809D01*
X181690476Y-114541904D01*
X181738095Y-114637142D01*
X181785714Y-114684761D01*
X181880952Y-114732380D01*
X182119047Y-114732380D01*
X182214285Y-114684761D01*
X182261904Y-114637142D01*
X180785714Y-113732380D02*
X181261904Y-113732380D01*
X181309523Y-114208571D01*
X181261904Y-114160952D01*
X181166666Y-114113333D01*
X180928571Y-114113333D01*
X180833333Y-114160952D01*
X180785714Y-114208571D01*
X180738095Y-114303809D01*
X180738095Y-114541904D01*
X180785714Y-114637142D01*
X180833333Y-114684761D01*
X180928571Y-114732380D01*
X181166666Y-114732380D01*
X181261904Y-114684761D01*
X181309523Y-114637142D01*
%TO.C,R56*%
X182642857Y-116172380D02*
X182976190Y-115696190D01*
X183214285Y-116172380D02*
X183214285Y-115172380D01*
X182833333Y-115172380D01*
X182738095Y-115220000D01*
X182690476Y-115267619D01*
X182642857Y-115362857D01*
X182642857Y-115505714D01*
X182690476Y-115600952D01*
X182738095Y-115648571D01*
X182833333Y-115696190D01*
X183214285Y-115696190D01*
X181738095Y-115172380D02*
X182214285Y-115172380D01*
X182261904Y-115648571D01*
X182214285Y-115600952D01*
X182119047Y-115553333D01*
X181880952Y-115553333D01*
X181785714Y-115600952D01*
X181738095Y-115648571D01*
X181690476Y-115743809D01*
X181690476Y-115981904D01*
X181738095Y-116077142D01*
X181785714Y-116124761D01*
X181880952Y-116172380D01*
X182119047Y-116172380D01*
X182214285Y-116124761D01*
X182261904Y-116077142D01*
X180833333Y-115172380D02*
X181023809Y-115172380D01*
X181119047Y-115220000D01*
X181166666Y-115267619D01*
X181261904Y-115410476D01*
X181309523Y-115600952D01*
X181309523Y-115981904D01*
X181261904Y-116077142D01*
X181214285Y-116124761D01*
X181119047Y-116172380D01*
X180928571Y-116172380D01*
X180833333Y-116124761D01*
X180785714Y-116077142D01*
X180738095Y-115981904D01*
X180738095Y-115743809D01*
X180785714Y-115648571D01*
X180833333Y-115600952D01*
X180928571Y-115553333D01*
X181119047Y-115553333D01*
X181214285Y-115600952D01*
X181261904Y-115648571D01*
X181309523Y-115743809D01*
%TO.C,R57*%
X182642857Y-126732380D02*
X182976190Y-126256190D01*
X183214285Y-126732380D02*
X183214285Y-125732380D01*
X182833333Y-125732380D01*
X182738095Y-125780000D01*
X182690476Y-125827619D01*
X182642857Y-125922857D01*
X182642857Y-126065714D01*
X182690476Y-126160952D01*
X182738095Y-126208571D01*
X182833333Y-126256190D01*
X183214285Y-126256190D01*
X181738095Y-125732380D02*
X182214285Y-125732380D01*
X182261904Y-126208571D01*
X182214285Y-126160952D01*
X182119047Y-126113333D01*
X181880952Y-126113333D01*
X181785714Y-126160952D01*
X181738095Y-126208571D01*
X181690476Y-126303809D01*
X181690476Y-126541904D01*
X181738095Y-126637142D01*
X181785714Y-126684761D01*
X181880952Y-126732380D01*
X182119047Y-126732380D01*
X182214285Y-126684761D01*
X182261904Y-126637142D01*
X181357142Y-125732380D02*
X180690476Y-125732380D01*
X181119047Y-126732380D01*
%TO.C,R58*%
X182642857Y-128172380D02*
X182976190Y-127696190D01*
X183214285Y-128172380D02*
X183214285Y-127172380D01*
X182833333Y-127172380D01*
X182738095Y-127220000D01*
X182690476Y-127267619D01*
X182642857Y-127362857D01*
X182642857Y-127505714D01*
X182690476Y-127600952D01*
X182738095Y-127648571D01*
X182833333Y-127696190D01*
X183214285Y-127696190D01*
X181738095Y-127172380D02*
X182214285Y-127172380D01*
X182261904Y-127648571D01*
X182214285Y-127600952D01*
X182119047Y-127553333D01*
X181880952Y-127553333D01*
X181785714Y-127600952D01*
X181738095Y-127648571D01*
X181690476Y-127743809D01*
X181690476Y-127981904D01*
X181738095Y-128077142D01*
X181785714Y-128124761D01*
X181880952Y-128172380D01*
X182119047Y-128172380D01*
X182214285Y-128124761D01*
X182261904Y-128077142D01*
X181119047Y-127600952D02*
X181214285Y-127553333D01*
X181261904Y-127505714D01*
X181309523Y-127410476D01*
X181309523Y-127362857D01*
X181261904Y-127267619D01*
X181214285Y-127220000D01*
X181119047Y-127172380D01*
X180928571Y-127172380D01*
X180833333Y-127220000D01*
X180785714Y-127267619D01*
X180738095Y-127362857D01*
X180738095Y-127410476D01*
X180785714Y-127505714D01*
X180833333Y-127553333D01*
X180928571Y-127600952D01*
X181119047Y-127600952D01*
X181214285Y-127648571D01*
X181261904Y-127696190D01*
X181309523Y-127791428D01*
X181309523Y-127981904D01*
X181261904Y-128077142D01*
X181214285Y-128124761D01*
X181119047Y-128172380D01*
X180928571Y-128172380D01*
X180833333Y-128124761D01*
X180785714Y-128077142D01*
X180738095Y-127981904D01*
X180738095Y-127791428D01*
X180785714Y-127696190D01*
X180833333Y-127648571D01*
X180928571Y-127600952D01*
%TO.C,R59*%
X182642857Y-138732380D02*
X182976190Y-138256190D01*
X183214285Y-138732380D02*
X183214285Y-137732380D01*
X182833333Y-137732380D01*
X182738095Y-137780000D01*
X182690476Y-137827619D01*
X182642857Y-137922857D01*
X182642857Y-138065714D01*
X182690476Y-138160952D01*
X182738095Y-138208571D01*
X182833333Y-138256190D01*
X183214285Y-138256190D01*
X181738095Y-137732380D02*
X182214285Y-137732380D01*
X182261904Y-138208571D01*
X182214285Y-138160952D01*
X182119047Y-138113333D01*
X181880952Y-138113333D01*
X181785714Y-138160952D01*
X181738095Y-138208571D01*
X181690476Y-138303809D01*
X181690476Y-138541904D01*
X181738095Y-138637142D01*
X181785714Y-138684761D01*
X181880952Y-138732380D01*
X182119047Y-138732380D01*
X182214285Y-138684761D01*
X182261904Y-138637142D01*
X181214285Y-138732380D02*
X181023809Y-138732380D01*
X180928571Y-138684761D01*
X180880952Y-138637142D01*
X180785714Y-138494285D01*
X180738095Y-138303809D01*
X180738095Y-137922857D01*
X180785714Y-137827619D01*
X180833333Y-137780000D01*
X180928571Y-137732380D01*
X181119047Y-137732380D01*
X181214285Y-137780000D01*
X181261904Y-137827619D01*
X181309523Y-137922857D01*
X181309523Y-138160952D01*
X181261904Y-138256190D01*
X181214285Y-138303809D01*
X181119047Y-138351428D01*
X180928571Y-138351428D01*
X180833333Y-138303809D01*
X180785714Y-138256190D01*
X180738095Y-138160952D01*
%TO.C,R60*%
X182642857Y-140172380D02*
X182976190Y-139696190D01*
X183214285Y-140172380D02*
X183214285Y-139172380D01*
X182833333Y-139172380D01*
X182738095Y-139220000D01*
X182690476Y-139267619D01*
X182642857Y-139362857D01*
X182642857Y-139505714D01*
X182690476Y-139600952D01*
X182738095Y-139648571D01*
X182833333Y-139696190D01*
X183214285Y-139696190D01*
X181785714Y-139172380D02*
X181976190Y-139172380D01*
X182071428Y-139220000D01*
X182119047Y-139267619D01*
X182214285Y-139410476D01*
X182261904Y-139600952D01*
X182261904Y-139981904D01*
X182214285Y-140077142D01*
X182166666Y-140124761D01*
X182071428Y-140172380D01*
X181880952Y-140172380D01*
X181785714Y-140124761D01*
X181738095Y-140077142D01*
X181690476Y-139981904D01*
X181690476Y-139743809D01*
X181738095Y-139648571D01*
X181785714Y-139600952D01*
X181880952Y-139553333D01*
X182071428Y-139553333D01*
X182166666Y-139600952D01*
X182214285Y-139648571D01*
X182261904Y-139743809D01*
X181071428Y-139172380D02*
X180976190Y-139172380D01*
X180880952Y-139220000D01*
X180833333Y-139267619D01*
X180785714Y-139362857D01*
X180738095Y-139553333D01*
X180738095Y-139791428D01*
X180785714Y-139981904D01*
X180833333Y-140077142D01*
X180880952Y-140124761D01*
X180976190Y-140172380D01*
X181071428Y-140172380D01*
X181166666Y-140124761D01*
X181214285Y-140077142D01*
X181261904Y-139981904D01*
X181309523Y-139791428D01*
X181309523Y-139553333D01*
X181261904Y-139362857D01*
X181214285Y-139267619D01*
X181166666Y-139220000D01*
X181071428Y-139172380D01*
%TO.C,R61*%
X182642857Y-150732380D02*
X182976190Y-150256190D01*
X183214285Y-150732380D02*
X183214285Y-149732380D01*
X182833333Y-149732380D01*
X182738095Y-149780000D01*
X182690476Y-149827619D01*
X182642857Y-149922857D01*
X182642857Y-150065714D01*
X182690476Y-150160952D01*
X182738095Y-150208571D01*
X182833333Y-150256190D01*
X183214285Y-150256190D01*
X181785714Y-149732380D02*
X181976190Y-149732380D01*
X182071428Y-149780000D01*
X182119047Y-149827619D01*
X182214285Y-149970476D01*
X182261904Y-150160952D01*
X182261904Y-150541904D01*
X182214285Y-150637142D01*
X182166666Y-150684761D01*
X182071428Y-150732380D01*
X181880952Y-150732380D01*
X181785714Y-150684761D01*
X181738095Y-150637142D01*
X181690476Y-150541904D01*
X181690476Y-150303809D01*
X181738095Y-150208571D01*
X181785714Y-150160952D01*
X181880952Y-150113333D01*
X182071428Y-150113333D01*
X182166666Y-150160952D01*
X182214285Y-150208571D01*
X182261904Y-150303809D01*
X180738095Y-150732380D02*
X181309523Y-150732380D01*
X181023809Y-150732380D02*
X181023809Y-149732380D01*
X181119047Y-149875238D01*
X181214285Y-149970476D01*
X181309523Y-150018095D01*
%TO.C,R62*%
X182642857Y-152172380D02*
X182976190Y-151696190D01*
X183214285Y-152172380D02*
X183214285Y-151172380D01*
X182833333Y-151172380D01*
X182738095Y-151220000D01*
X182690476Y-151267619D01*
X182642857Y-151362857D01*
X182642857Y-151505714D01*
X182690476Y-151600952D01*
X182738095Y-151648571D01*
X182833333Y-151696190D01*
X183214285Y-151696190D01*
X181785714Y-151172380D02*
X181976190Y-151172380D01*
X182071428Y-151220000D01*
X182119047Y-151267619D01*
X182214285Y-151410476D01*
X182261904Y-151600952D01*
X182261904Y-151981904D01*
X182214285Y-152077142D01*
X182166666Y-152124761D01*
X182071428Y-152172380D01*
X181880952Y-152172380D01*
X181785714Y-152124761D01*
X181738095Y-152077142D01*
X181690476Y-151981904D01*
X181690476Y-151743809D01*
X181738095Y-151648571D01*
X181785714Y-151600952D01*
X181880952Y-151553333D01*
X182071428Y-151553333D01*
X182166666Y-151600952D01*
X182214285Y-151648571D01*
X182261904Y-151743809D01*
X181309523Y-151267619D02*
X181261904Y-151220000D01*
X181166666Y-151172380D01*
X180928571Y-151172380D01*
X180833333Y-151220000D01*
X180785714Y-151267619D01*
X180738095Y-151362857D01*
X180738095Y-151458095D01*
X180785714Y-151600952D01*
X181357142Y-152172380D01*
X180738095Y-152172380D01*
%TO.C,R63*%
X182642857Y-162732380D02*
X182976190Y-162256190D01*
X183214285Y-162732380D02*
X183214285Y-161732380D01*
X182833333Y-161732380D01*
X182738095Y-161780000D01*
X182690476Y-161827619D01*
X182642857Y-161922857D01*
X182642857Y-162065714D01*
X182690476Y-162160952D01*
X182738095Y-162208571D01*
X182833333Y-162256190D01*
X183214285Y-162256190D01*
X181785714Y-161732380D02*
X181976190Y-161732380D01*
X182071428Y-161780000D01*
X182119047Y-161827619D01*
X182214285Y-161970476D01*
X182261904Y-162160952D01*
X182261904Y-162541904D01*
X182214285Y-162637142D01*
X182166666Y-162684761D01*
X182071428Y-162732380D01*
X181880952Y-162732380D01*
X181785714Y-162684761D01*
X181738095Y-162637142D01*
X181690476Y-162541904D01*
X181690476Y-162303809D01*
X181738095Y-162208571D01*
X181785714Y-162160952D01*
X181880952Y-162113333D01*
X182071428Y-162113333D01*
X182166666Y-162160952D01*
X182214285Y-162208571D01*
X182261904Y-162303809D01*
X181357142Y-161732380D02*
X180738095Y-161732380D01*
X181071428Y-162113333D01*
X180928571Y-162113333D01*
X180833333Y-162160952D01*
X180785714Y-162208571D01*
X180738095Y-162303809D01*
X180738095Y-162541904D01*
X180785714Y-162637142D01*
X180833333Y-162684761D01*
X180928571Y-162732380D01*
X181214285Y-162732380D01*
X181309523Y-162684761D01*
X181357142Y-162637142D01*
%TO.C,R64*%
X197642857Y-114732380D02*
X197976190Y-114256190D01*
X198214285Y-114732380D02*
X198214285Y-113732380D01*
X197833333Y-113732380D01*
X197738095Y-113780000D01*
X197690476Y-113827619D01*
X197642857Y-113922857D01*
X197642857Y-114065714D01*
X197690476Y-114160952D01*
X197738095Y-114208571D01*
X197833333Y-114256190D01*
X198214285Y-114256190D01*
X196785714Y-113732380D02*
X196976190Y-113732380D01*
X197071428Y-113780000D01*
X197119047Y-113827619D01*
X197214285Y-113970476D01*
X197261904Y-114160952D01*
X197261904Y-114541904D01*
X197214285Y-114637142D01*
X197166666Y-114684761D01*
X197071428Y-114732380D01*
X196880952Y-114732380D01*
X196785714Y-114684761D01*
X196738095Y-114637142D01*
X196690476Y-114541904D01*
X196690476Y-114303809D01*
X196738095Y-114208571D01*
X196785714Y-114160952D01*
X196880952Y-114113333D01*
X197071428Y-114113333D01*
X197166666Y-114160952D01*
X197214285Y-114208571D01*
X197261904Y-114303809D01*
X195833333Y-114065714D02*
X195833333Y-114732380D01*
X196071428Y-113684761D02*
X196309523Y-114399047D01*
X195690476Y-114399047D01*
%TO.C,R65*%
X197642857Y-116172380D02*
X197976190Y-115696190D01*
X198214285Y-116172380D02*
X198214285Y-115172380D01*
X197833333Y-115172380D01*
X197738095Y-115220000D01*
X197690476Y-115267619D01*
X197642857Y-115362857D01*
X197642857Y-115505714D01*
X197690476Y-115600952D01*
X197738095Y-115648571D01*
X197833333Y-115696190D01*
X198214285Y-115696190D01*
X196785714Y-115172380D02*
X196976190Y-115172380D01*
X197071428Y-115220000D01*
X197119047Y-115267619D01*
X197214285Y-115410476D01*
X197261904Y-115600952D01*
X197261904Y-115981904D01*
X197214285Y-116077142D01*
X197166666Y-116124761D01*
X197071428Y-116172380D01*
X196880952Y-116172380D01*
X196785714Y-116124761D01*
X196738095Y-116077142D01*
X196690476Y-115981904D01*
X196690476Y-115743809D01*
X196738095Y-115648571D01*
X196785714Y-115600952D01*
X196880952Y-115553333D01*
X197071428Y-115553333D01*
X197166666Y-115600952D01*
X197214285Y-115648571D01*
X197261904Y-115743809D01*
X195785714Y-115172380D02*
X196261904Y-115172380D01*
X196309523Y-115648571D01*
X196261904Y-115600952D01*
X196166666Y-115553333D01*
X195928571Y-115553333D01*
X195833333Y-115600952D01*
X195785714Y-115648571D01*
X195738095Y-115743809D01*
X195738095Y-115981904D01*
X195785714Y-116077142D01*
X195833333Y-116124761D01*
X195928571Y-116172380D01*
X196166666Y-116172380D01*
X196261904Y-116124761D01*
X196309523Y-116077142D01*
%TO.C,R66*%
X197642857Y-126732380D02*
X197976190Y-126256190D01*
X198214285Y-126732380D02*
X198214285Y-125732380D01*
X197833333Y-125732380D01*
X197738095Y-125780000D01*
X197690476Y-125827619D01*
X197642857Y-125922857D01*
X197642857Y-126065714D01*
X197690476Y-126160952D01*
X197738095Y-126208571D01*
X197833333Y-126256190D01*
X198214285Y-126256190D01*
X196785714Y-125732380D02*
X196976190Y-125732380D01*
X197071428Y-125780000D01*
X197119047Y-125827619D01*
X197214285Y-125970476D01*
X197261904Y-126160952D01*
X197261904Y-126541904D01*
X197214285Y-126637142D01*
X197166666Y-126684761D01*
X197071428Y-126732380D01*
X196880952Y-126732380D01*
X196785714Y-126684761D01*
X196738095Y-126637142D01*
X196690476Y-126541904D01*
X196690476Y-126303809D01*
X196738095Y-126208571D01*
X196785714Y-126160952D01*
X196880952Y-126113333D01*
X197071428Y-126113333D01*
X197166666Y-126160952D01*
X197214285Y-126208571D01*
X197261904Y-126303809D01*
X195833333Y-125732380D02*
X196023809Y-125732380D01*
X196119047Y-125780000D01*
X196166666Y-125827619D01*
X196261904Y-125970476D01*
X196309523Y-126160952D01*
X196309523Y-126541904D01*
X196261904Y-126637142D01*
X196214285Y-126684761D01*
X196119047Y-126732380D01*
X195928571Y-126732380D01*
X195833333Y-126684761D01*
X195785714Y-126637142D01*
X195738095Y-126541904D01*
X195738095Y-126303809D01*
X195785714Y-126208571D01*
X195833333Y-126160952D01*
X195928571Y-126113333D01*
X196119047Y-126113333D01*
X196214285Y-126160952D01*
X196261904Y-126208571D01*
X196309523Y-126303809D01*
%TO.C,R68*%
X197642857Y-138732380D02*
X197976190Y-138256190D01*
X198214285Y-138732380D02*
X198214285Y-137732380D01*
X197833333Y-137732380D01*
X197738095Y-137780000D01*
X197690476Y-137827619D01*
X197642857Y-137922857D01*
X197642857Y-138065714D01*
X197690476Y-138160952D01*
X197738095Y-138208571D01*
X197833333Y-138256190D01*
X198214285Y-138256190D01*
X196785714Y-137732380D02*
X196976190Y-137732380D01*
X197071428Y-137780000D01*
X197119047Y-137827619D01*
X197214285Y-137970476D01*
X197261904Y-138160952D01*
X197261904Y-138541904D01*
X197214285Y-138637142D01*
X197166666Y-138684761D01*
X197071428Y-138732380D01*
X196880952Y-138732380D01*
X196785714Y-138684761D01*
X196738095Y-138637142D01*
X196690476Y-138541904D01*
X196690476Y-138303809D01*
X196738095Y-138208571D01*
X196785714Y-138160952D01*
X196880952Y-138113333D01*
X197071428Y-138113333D01*
X197166666Y-138160952D01*
X197214285Y-138208571D01*
X197261904Y-138303809D01*
X196119047Y-138160952D02*
X196214285Y-138113333D01*
X196261904Y-138065714D01*
X196309523Y-137970476D01*
X196309523Y-137922857D01*
X196261904Y-137827619D01*
X196214285Y-137780000D01*
X196119047Y-137732380D01*
X195928571Y-137732380D01*
X195833333Y-137780000D01*
X195785714Y-137827619D01*
X195738095Y-137922857D01*
X195738095Y-137970476D01*
X195785714Y-138065714D01*
X195833333Y-138113333D01*
X195928571Y-138160952D01*
X196119047Y-138160952D01*
X196214285Y-138208571D01*
X196261904Y-138256190D01*
X196309523Y-138351428D01*
X196309523Y-138541904D01*
X196261904Y-138637142D01*
X196214285Y-138684761D01*
X196119047Y-138732380D01*
X195928571Y-138732380D01*
X195833333Y-138684761D01*
X195785714Y-138637142D01*
X195738095Y-138541904D01*
X195738095Y-138351428D01*
X195785714Y-138256190D01*
X195833333Y-138208571D01*
X195928571Y-138160952D01*
%TO.C,R69*%
X197642857Y-140172380D02*
X197976190Y-139696190D01*
X198214285Y-140172380D02*
X198214285Y-139172380D01*
X197833333Y-139172380D01*
X197738095Y-139220000D01*
X197690476Y-139267619D01*
X197642857Y-139362857D01*
X197642857Y-139505714D01*
X197690476Y-139600952D01*
X197738095Y-139648571D01*
X197833333Y-139696190D01*
X198214285Y-139696190D01*
X196785714Y-139172380D02*
X196976190Y-139172380D01*
X197071428Y-139220000D01*
X197119047Y-139267619D01*
X197214285Y-139410476D01*
X197261904Y-139600952D01*
X197261904Y-139981904D01*
X197214285Y-140077142D01*
X197166666Y-140124761D01*
X197071428Y-140172380D01*
X196880952Y-140172380D01*
X196785714Y-140124761D01*
X196738095Y-140077142D01*
X196690476Y-139981904D01*
X196690476Y-139743809D01*
X196738095Y-139648571D01*
X196785714Y-139600952D01*
X196880952Y-139553333D01*
X197071428Y-139553333D01*
X197166666Y-139600952D01*
X197214285Y-139648571D01*
X197261904Y-139743809D01*
X196214285Y-140172380D02*
X196023809Y-140172380D01*
X195928571Y-140124761D01*
X195880952Y-140077142D01*
X195785714Y-139934285D01*
X195738095Y-139743809D01*
X195738095Y-139362857D01*
X195785714Y-139267619D01*
X195833333Y-139220000D01*
X195928571Y-139172380D01*
X196119047Y-139172380D01*
X196214285Y-139220000D01*
X196261904Y-139267619D01*
X196309523Y-139362857D01*
X196309523Y-139600952D01*
X196261904Y-139696190D01*
X196214285Y-139743809D01*
X196119047Y-139791428D01*
X195928571Y-139791428D01*
X195833333Y-139743809D01*
X195785714Y-139696190D01*
X195738095Y-139600952D01*
%TO.C,R70*%
X197642857Y-150732380D02*
X197976190Y-150256190D01*
X198214285Y-150732380D02*
X198214285Y-149732380D01*
X197833333Y-149732380D01*
X197738095Y-149780000D01*
X197690476Y-149827619D01*
X197642857Y-149922857D01*
X197642857Y-150065714D01*
X197690476Y-150160952D01*
X197738095Y-150208571D01*
X197833333Y-150256190D01*
X198214285Y-150256190D01*
X197309523Y-149732380D02*
X196642857Y-149732380D01*
X197071428Y-150732380D01*
X196071428Y-149732380D02*
X195976190Y-149732380D01*
X195880952Y-149780000D01*
X195833333Y-149827619D01*
X195785714Y-149922857D01*
X195738095Y-150113333D01*
X195738095Y-150351428D01*
X195785714Y-150541904D01*
X195833333Y-150637142D01*
X195880952Y-150684761D01*
X195976190Y-150732380D01*
X196071428Y-150732380D01*
X196166666Y-150684761D01*
X196214285Y-150637142D01*
X196261904Y-150541904D01*
X196309523Y-150351428D01*
X196309523Y-150113333D01*
X196261904Y-149922857D01*
X196214285Y-149827619D01*
X196166666Y-149780000D01*
X196071428Y-149732380D01*
%TO.C,R71*%
X197642857Y-152172380D02*
X197976190Y-151696190D01*
X198214285Y-152172380D02*
X198214285Y-151172380D01*
X197833333Y-151172380D01*
X197738095Y-151220000D01*
X197690476Y-151267619D01*
X197642857Y-151362857D01*
X197642857Y-151505714D01*
X197690476Y-151600952D01*
X197738095Y-151648571D01*
X197833333Y-151696190D01*
X198214285Y-151696190D01*
X197309523Y-151172380D02*
X196642857Y-151172380D01*
X197071428Y-152172380D01*
X195738095Y-152172380D02*
X196309523Y-152172380D01*
X196023809Y-152172380D02*
X196023809Y-151172380D01*
X196119047Y-151315238D01*
X196214285Y-151410476D01*
X196309523Y-151458095D01*
%TO.C,R72*%
X197642857Y-162732380D02*
X197976190Y-162256190D01*
X198214285Y-162732380D02*
X198214285Y-161732380D01*
X197833333Y-161732380D01*
X197738095Y-161780000D01*
X197690476Y-161827619D01*
X197642857Y-161922857D01*
X197642857Y-162065714D01*
X197690476Y-162160952D01*
X197738095Y-162208571D01*
X197833333Y-162256190D01*
X198214285Y-162256190D01*
X197309523Y-161732380D02*
X196642857Y-161732380D01*
X197071428Y-162732380D01*
X196309523Y-161827619D02*
X196261904Y-161780000D01*
X196166666Y-161732380D01*
X195928571Y-161732380D01*
X195833333Y-161780000D01*
X195785714Y-161827619D01*
X195738095Y-161922857D01*
X195738095Y-162018095D01*
X195785714Y-162160952D01*
X196357142Y-162732380D01*
X195738095Y-162732380D01*
%TO.C,R73*%
X212642857Y-114732380D02*
X212976190Y-114256190D01*
X213214285Y-114732380D02*
X213214285Y-113732380D01*
X212833333Y-113732380D01*
X212738095Y-113780000D01*
X212690476Y-113827619D01*
X212642857Y-113922857D01*
X212642857Y-114065714D01*
X212690476Y-114160952D01*
X212738095Y-114208571D01*
X212833333Y-114256190D01*
X213214285Y-114256190D01*
X212309523Y-113732380D02*
X211642857Y-113732380D01*
X212071428Y-114732380D01*
X211357142Y-113732380D02*
X210738095Y-113732380D01*
X211071428Y-114113333D01*
X210928571Y-114113333D01*
X210833333Y-114160952D01*
X210785714Y-114208571D01*
X210738095Y-114303809D01*
X210738095Y-114541904D01*
X210785714Y-114637142D01*
X210833333Y-114684761D01*
X210928571Y-114732380D01*
X211214285Y-114732380D01*
X211309523Y-114684761D01*
X211357142Y-114637142D01*
%TO.C,R74*%
X212642857Y-116172380D02*
X212976190Y-115696190D01*
X213214285Y-116172380D02*
X213214285Y-115172380D01*
X212833333Y-115172380D01*
X212738095Y-115220000D01*
X212690476Y-115267619D01*
X212642857Y-115362857D01*
X212642857Y-115505714D01*
X212690476Y-115600952D01*
X212738095Y-115648571D01*
X212833333Y-115696190D01*
X213214285Y-115696190D01*
X212309523Y-115172380D02*
X211642857Y-115172380D01*
X212071428Y-116172380D01*
X210833333Y-115505714D02*
X210833333Y-116172380D01*
X211071428Y-115124761D02*
X211309523Y-115839047D01*
X210690476Y-115839047D01*
%TO.C,R75*%
X212642857Y-126732380D02*
X212976190Y-126256190D01*
X213214285Y-126732380D02*
X213214285Y-125732380D01*
X212833333Y-125732380D01*
X212738095Y-125780000D01*
X212690476Y-125827619D01*
X212642857Y-125922857D01*
X212642857Y-126065714D01*
X212690476Y-126160952D01*
X212738095Y-126208571D01*
X212833333Y-126256190D01*
X213214285Y-126256190D01*
X212309523Y-125732380D02*
X211642857Y-125732380D01*
X212071428Y-126732380D01*
X210785714Y-125732380D02*
X211261904Y-125732380D01*
X211309523Y-126208571D01*
X211261904Y-126160952D01*
X211166666Y-126113333D01*
X210928571Y-126113333D01*
X210833333Y-126160952D01*
X210785714Y-126208571D01*
X210738095Y-126303809D01*
X210738095Y-126541904D01*
X210785714Y-126637142D01*
X210833333Y-126684761D01*
X210928571Y-126732380D01*
X211166666Y-126732380D01*
X211261904Y-126684761D01*
X211309523Y-126637142D01*
%TO.C,R76*%
X212642857Y-128172380D02*
X212976190Y-127696190D01*
X213214285Y-128172380D02*
X213214285Y-127172380D01*
X212833333Y-127172380D01*
X212738095Y-127220000D01*
X212690476Y-127267619D01*
X212642857Y-127362857D01*
X212642857Y-127505714D01*
X212690476Y-127600952D01*
X212738095Y-127648571D01*
X212833333Y-127696190D01*
X213214285Y-127696190D01*
X212309523Y-127172380D02*
X211642857Y-127172380D01*
X212071428Y-128172380D01*
X210833333Y-127172380D02*
X211023809Y-127172380D01*
X211119047Y-127220000D01*
X211166666Y-127267619D01*
X211261904Y-127410476D01*
X211309523Y-127600952D01*
X211309523Y-127981904D01*
X211261904Y-128077142D01*
X211214285Y-128124761D01*
X211119047Y-128172380D01*
X210928571Y-128172380D01*
X210833333Y-128124761D01*
X210785714Y-128077142D01*
X210738095Y-127981904D01*
X210738095Y-127743809D01*
X210785714Y-127648571D01*
X210833333Y-127600952D01*
X210928571Y-127553333D01*
X211119047Y-127553333D01*
X211214285Y-127600952D01*
X211261904Y-127648571D01*
X211309523Y-127743809D01*
%TO.C,R77*%
X212642857Y-138732380D02*
X212976190Y-138256190D01*
X213214285Y-138732380D02*
X213214285Y-137732380D01*
X212833333Y-137732380D01*
X212738095Y-137780000D01*
X212690476Y-137827619D01*
X212642857Y-137922857D01*
X212642857Y-138065714D01*
X212690476Y-138160952D01*
X212738095Y-138208571D01*
X212833333Y-138256190D01*
X213214285Y-138256190D01*
X212309523Y-137732380D02*
X211642857Y-137732380D01*
X212071428Y-138732380D01*
X211357142Y-137732380D02*
X210690476Y-137732380D01*
X211119047Y-138732380D01*
%TO.C,R78*%
X212642857Y-140172380D02*
X212976190Y-139696190D01*
X213214285Y-140172380D02*
X213214285Y-139172380D01*
X212833333Y-139172380D01*
X212738095Y-139220000D01*
X212690476Y-139267619D01*
X212642857Y-139362857D01*
X212642857Y-139505714D01*
X212690476Y-139600952D01*
X212738095Y-139648571D01*
X212833333Y-139696190D01*
X213214285Y-139696190D01*
X212309523Y-139172380D02*
X211642857Y-139172380D01*
X212071428Y-140172380D01*
X211119047Y-139600952D02*
X211214285Y-139553333D01*
X211261904Y-139505714D01*
X211309523Y-139410476D01*
X211309523Y-139362857D01*
X211261904Y-139267619D01*
X211214285Y-139220000D01*
X211119047Y-139172380D01*
X210928571Y-139172380D01*
X210833333Y-139220000D01*
X210785714Y-139267619D01*
X210738095Y-139362857D01*
X210738095Y-139410476D01*
X210785714Y-139505714D01*
X210833333Y-139553333D01*
X210928571Y-139600952D01*
X211119047Y-139600952D01*
X211214285Y-139648571D01*
X211261904Y-139696190D01*
X211309523Y-139791428D01*
X211309523Y-139981904D01*
X211261904Y-140077142D01*
X211214285Y-140124761D01*
X211119047Y-140172380D01*
X210928571Y-140172380D01*
X210833333Y-140124761D01*
X210785714Y-140077142D01*
X210738095Y-139981904D01*
X210738095Y-139791428D01*
X210785714Y-139696190D01*
X210833333Y-139648571D01*
X210928571Y-139600952D01*
%TO.C,R79*%
X212642857Y-150732380D02*
X212976190Y-150256190D01*
X213214285Y-150732380D02*
X213214285Y-149732380D01*
X212833333Y-149732380D01*
X212738095Y-149780000D01*
X212690476Y-149827619D01*
X212642857Y-149922857D01*
X212642857Y-150065714D01*
X212690476Y-150160952D01*
X212738095Y-150208571D01*
X212833333Y-150256190D01*
X213214285Y-150256190D01*
X212309523Y-149732380D02*
X211642857Y-149732380D01*
X212071428Y-150732380D01*
X211214285Y-150732380D02*
X211023809Y-150732380D01*
X210928571Y-150684761D01*
X210880952Y-150637142D01*
X210785714Y-150494285D01*
X210738095Y-150303809D01*
X210738095Y-149922857D01*
X210785714Y-149827619D01*
X210833333Y-149780000D01*
X210928571Y-149732380D01*
X211119047Y-149732380D01*
X211214285Y-149780000D01*
X211261904Y-149827619D01*
X211309523Y-149922857D01*
X211309523Y-150160952D01*
X211261904Y-150256190D01*
X211214285Y-150303809D01*
X211119047Y-150351428D01*
X210928571Y-150351428D01*
X210833333Y-150303809D01*
X210785714Y-150256190D01*
X210738095Y-150160952D01*
%TO.C,R80*%
X212642857Y-152172380D02*
X212976190Y-151696190D01*
X213214285Y-152172380D02*
X213214285Y-151172380D01*
X212833333Y-151172380D01*
X212738095Y-151220000D01*
X212690476Y-151267619D01*
X212642857Y-151362857D01*
X212642857Y-151505714D01*
X212690476Y-151600952D01*
X212738095Y-151648571D01*
X212833333Y-151696190D01*
X213214285Y-151696190D01*
X212071428Y-151600952D02*
X212166666Y-151553333D01*
X212214285Y-151505714D01*
X212261904Y-151410476D01*
X212261904Y-151362857D01*
X212214285Y-151267619D01*
X212166666Y-151220000D01*
X212071428Y-151172380D01*
X211880952Y-151172380D01*
X211785714Y-151220000D01*
X211738095Y-151267619D01*
X211690476Y-151362857D01*
X211690476Y-151410476D01*
X211738095Y-151505714D01*
X211785714Y-151553333D01*
X211880952Y-151600952D01*
X212071428Y-151600952D01*
X212166666Y-151648571D01*
X212214285Y-151696190D01*
X212261904Y-151791428D01*
X212261904Y-151981904D01*
X212214285Y-152077142D01*
X212166666Y-152124761D01*
X212071428Y-152172380D01*
X211880952Y-152172380D01*
X211785714Y-152124761D01*
X211738095Y-152077142D01*
X211690476Y-151981904D01*
X211690476Y-151791428D01*
X211738095Y-151696190D01*
X211785714Y-151648571D01*
X211880952Y-151600952D01*
X211071428Y-151172380D02*
X210976190Y-151172380D01*
X210880952Y-151220000D01*
X210833333Y-151267619D01*
X210785714Y-151362857D01*
X210738095Y-151553333D01*
X210738095Y-151791428D01*
X210785714Y-151981904D01*
X210833333Y-152077142D01*
X210880952Y-152124761D01*
X210976190Y-152172380D01*
X211071428Y-152172380D01*
X211166666Y-152124761D01*
X211214285Y-152077142D01*
X211261904Y-151981904D01*
X211309523Y-151791428D01*
X211309523Y-151553333D01*
X211261904Y-151362857D01*
X211214285Y-151267619D01*
X211166666Y-151220000D01*
X211071428Y-151172380D01*
%TO.C,R81*%
X212642857Y-162732380D02*
X212976190Y-162256190D01*
X213214285Y-162732380D02*
X213214285Y-161732380D01*
X212833333Y-161732380D01*
X212738095Y-161780000D01*
X212690476Y-161827619D01*
X212642857Y-161922857D01*
X212642857Y-162065714D01*
X212690476Y-162160952D01*
X212738095Y-162208571D01*
X212833333Y-162256190D01*
X213214285Y-162256190D01*
X212071428Y-162160952D02*
X212166666Y-162113333D01*
X212214285Y-162065714D01*
X212261904Y-161970476D01*
X212261904Y-161922857D01*
X212214285Y-161827619D01*
X212166666Y-161780000D01*
X212071428Y-161732380D01*
X211880952Y-161732380D01*
X211785714Y-161780000D01*
X211738095Y-161827619D01*
X211690476Y-161922857D01*
X211690476Y-161970476D01*
X211738095Y-162065714D01*
X211785714Y-162113333D01*
X211880952Y-162160952D01*
X212071428Y-162160952D01*
X212166666Y-162208571D01*
X212214285Y-162256190D01*
X212261904Y-162351428D01*
X212261904Y-162541904D01*
X212214285Y-162637142D01*
X212166666Y-162684761D01*
X212071428Y-162732380D01*
X211880952Y-162732380D01*
X211785714Y-162684761D01*
X211738095Y-162637142D01*
X211690476Y-162541904D01*
X211690476Y-162351428D01*
X211738095Y-162256190D01*
X211785714Y-162208571D01*
X211880952Y-162160952D01*
X210738095Y-162732380D02*
X211309523Y-162732380D01*
X211023809Y-162732380D02*
X211023809Y-161732380D01*
X211119047Y-161875238D01*
X211214285Y-161970476D01*
X211309523Y-162018095D01*
%TO.C,R82*%
X227642857Y-114732380D02*
X227976190Y-114256190D01*
X228214285Y-114732380D02*
X228214285Y-113732380D01*
X227833333Y-113732380D01*
X227738095Y-113780000D01*
X227690476Y-113827619D01*
X227642857Y-113922857D01*
X227642857Y-114065714D01*
X227690476Y-114160952D01*
X227738095Y-114208571D01*
X227833333Y-114256190D01*
X228214285Y-114256190D01*
X227071428Y-114160952D02*
X227166666Y-114113333D01*
X227214285Y-114065714D01*
X227261904Y-113970476D01*
X227261904Y-113922857D01*
X227214285Y-113827619D01*
X227166666Y-113780000D01*
X227071428Y-113732380D01*
X226880952Y-113732380D01*
X226785714Y-113780000D01*
X226738095Y-113827619D01*
X226690476Y-113922857D01*
X226690476Y-113970476D01*
X226738095Y-114065714D01*
X226785714Y-114113333D01*
X226880952Y-114160952D01*
X227071428Y-114160952D01*
X227166666Y-114208571D01*
X227214285Y-114256190D01*
X227261904Y-114351428D01*
X227261904Y-114541904D01*
X227214285Y-114637142D01*
X227166666Y-114684761D01*
X227071428Y-114732380D01*
X226880952Y-114732380D01*
X226785714Y-114684761D01*
X226738095Y-114637142D01*
X226690476Y-114541904D01*
X226690476Y-114351428D01*
X226738095Y-114256190D01*
X226785714Y-114208571D01*
X226880952Y-114160952D01*
X226309523Y-113827619D02*
X226261904Y-113780000D01*
X226166666Y-113732380D01*
X225928571Y-113732380D01*
X225833333Y-113780000D01*
X225785714Y-113827619D01*
X225738095Y-113922857D01*
X225738095Y-114018095D01*
X225785714Y-114160952D01*
X226357142Y-114732380D01*
X225738095Y-114732380D01*
%TO.C,R83*%
X227642857Y-116172380D02*
X227976190Y-115696190D01*
X228214285Y-116172380D02*
X228214285Y-115172380D01*
X227833333Y-115172380D01*
X227738095Y-115220000D01*
X227690476Y-115267619D01*
X227642857Y-115362857D01*
X227642857Y-115505714D01*
X227690476Y-115600952D01*
X227738095Y-115648571D01*
X227833333Y-115696190D01*
X228214285Y-115696190D01*
X227071428Y-115600952D02*
X227166666Y-115553333D01*
X227214285Y-115505714D01*
X227261904Y-115410476D01*
X227261904Y-115362857D01*
X227214285Y-115267619D01*
X227166666Y-115220000D01*
X227071428Y-115172380D01*
X226880952Y-115172380D01*
X226785714Y-115220000D01*
X226738095Y-115267619D01*
X226690476Y-115362857D01*
X226690476Y-115410476D01*
X226738095Y-115505714D01*
X226785714Y-115553333D01*
X226880952Y-115600952D01*
X227071428Y-115600952D01*
X227166666Y-115648571D01*
X227214285Y-115696190D01*
X227261904Y-115791428D01*
X227261904Y-115981904D01*
X227214285Y-116077142D01*
X227166666Y-116124761D01*
X227071428Y-116172380D01*
X226880952Y-116172380D01*
X226785714Y-116124761D01*
X226738095Y-116077142D01*
X226690476Y-115981904D01*
X226690476Y-115791428D01*
X226738095Y-115696190D01*
X226785714Y-115648571D01*
X226880952Y-115600952D01*
X226357142Y-115172380D02*
X225738095Y-115172380D01*
X226071428Y-115553333D01*
X225928571Y-115553333D01*
X225833333Y-115600952D01*
X225785714Y-115648571D01*
X225738095Y-115743809D01*
X225738095Y-115981904D01*
X225785714Y-116077142D01*
X225833333Y-116124761D01*
X225928571Y-116172380D01*
X226214285Y-116172380D01*
X226309523Y-116124761D01*
X226357142Y-116077142D01*
%TO.C,R84*%
X227642857Y-126732380D02*
X227976190Y-126256190D01*
X228214285Y-126732380D02*
X228214285Y-125732380D01*
X227833333Y-125732380D01*
X227738095Y-125780000D01*
X227690476Y-125827619D01*
X227642857Y-125922857D01*
X227642857Y-126065714D01*
X227690476Y-126160952D01*
X227738095Y-126208571D01*
X227833333Y-126256190D01*
X228214285Y-126256190D01*
X227071428Y-126160952D02*
X227166666Y-126113333D01*
X227214285Y-126065714D01*
X227261904Y-125970476D01*
X227261904Y-125922857D01*
X227214285Y-125827619D01*
X227166666Y-125780000D01*
X227071428Y-125732380D01*
X226880952Y-125732380D01*
X226785714Y-125780000D01*
X226738095Y-125827619D01*
X226690476Y-125922857D01*
X226690476Y-125970476D01*
X226738095Y-126065714D01*
X226785714Y-126113333D01*
X226880952Y-126160952D01*
X227071428Y-126160952D01*
X227166666Y-126208571D01*
X227214285Y-126256190D01*
X227261904Y-126351428D01*
X227261904Y-126541904D01*
X227214285Y-126637142D01*
X227166666Y-126684761D01*
X227071428Y-126732380D01*
X226880952Y-126732380D01*
X226785714Y-126684761D01*
X226738095Y-126637142D01*
X226690476Y-126541904D01*
X226690476Y-126351428D01*
X226738095Y-126256190D01*
X226785714Y-126208571D01*
X226880952Y-126160952D01*
X225833333Y-126065714D02*
X225833333Y-126732380D01*
X226071428Y-125684761D02*
X226309523Y-126399047D01*
X225690476Y-126399047D01*
%TO.C,R85*%
X227642857Y-128172380D02*
X227976190Y-127696190D01*
X228214285Y-128172380D02*
X228214285Y-127172380D01*
X227833333Y-127172380D01*
X227738095Y-127220000D01*
X227690476Y-127267619D01*
X227642857Y-127362857D01*
X227642857Y-127505714D01*
X227690476Y-127600952D01*
X227738095Y-127648571D01*
X227833333Y-127696190D01*
X228214285Y-127696190D01*
X227071428Y-127600952D02*
X227166666Y-127553333D01*
X227214285Y-127505714D01*
X227261904Y-127410476D01*
X227261904Y-127362857D01*
X227214285Y-127267619D01*
X227166666Y-127220000D01*
X227071428Y-127172380D01*
X226880952Y-127172380D01*
X226785714Y-127220000D01*
X226738095Y-127267619D01*
X226690476Y-127362857D01*
X226690476Y-127410476D01*
X226738095Y-127505714D01*
X226785714Y-127553333D01*
X226880952Y-127600952D01*
X227071428Y-127600952D01*
X227166666Y-127648571D01*
X227214285Y-127696190D01*
X227261904Y-127791428D01*
X227261904Y-127981904D01*
X227214285Y-128077142D01*
X227166666Y-128124761D01*
X227071428Y-128172380D01*
X226880952Y-128172380D01*
X226785714Y-128124761D01*
X226738095Y-128077142D01*
X226690476Y-127981904D01*
X226690476Y-127791428D01*
X226738095Y-127696190D01*
X226785714Y-127648571D01*
X226880952Y-127600952D01*
X225785714Y-127172380D02*
X226261904Y-127172380D01*
X226309523Y-127648571D01*
X226261904Y-127600952D01*
X226166666Y-127553333D01*
X225928571Y-127553333D01*
X225833333Y-127600952D01*
X225785714Y-127648571D01*
X225738095Y-127743809D01*
X225738095Y-127981904D01*
X225785714Y-128077142D01*
X225833333Y-128124761D01*
X225928571Y-128172380D01*
X226166666Y-128172380D01*
X226261904Y-128124761D01*
X226309523Y-128077142D01*
%TO.C,R86*%
X227642857Y-138732380D02*
X227976190Y-138256190D01*
X228214285Y-138732380D02*
X228214285Y-137732380D01*
X227833333Y-137732380D01*
X227738095Y-137780000D01*
X227690476Y-137827619D01*
X227642857Y-137922857D01*
X227642857Y-138065714D01*
X227690476Y-138160952D01*
X227738095Y-138208571D01*
X227833333Y-138256190D01*
X228214285Y-138256190D01*
X227071428Y-138160952D02*
X227166666Y-138113333D01*
X227214285Y-138065714D01*
X227261904Y-137970476D01*
X227261904Y-137922857D01*
X227214285Y-137827619D01*
X227166666Y-137780000D01*
X227071428Y-137732380D01*
X226880952Y-137732380D01*
X226785714Y-137780000D01*
X226738095Y-137827619D01*
X226690476Y-137922857D01*
X226690476Y-137970476D01*
X226738095Y-138065714D01*
X226785714Y-138113333D01*
X226880952Y-138160952D01*
X227071428Y-138160952D01*
X227166666Y-138208571D01*
X227214285Y-138256190D01*
X227261904Y-138351428D01*
X227261904Y-138541904D01*
X227214285Y-138637142D01*
X227166666Y-138684761D01*
X227071428Y-138732380D01*
X226880952Y-138732380D01*
X226785714Y-138684761D01*
X226738095Y-138637142D01*
X226690476Y-138541904D01*
X226690476Y-138351428D01*
X226738095Y-138256190D01*
X226785714Y-138208571D01*
X226880952Y-138160952D01*
X225833333Y-137732380D02*
X226023809Y-137732380D01*
X226119047Y-137780000D01*
X226166666Y-137827619D01*
X226261904Y-137970476D01*
X226309523Y-138160952D01*
X226309523Y-138541904D01*
X226261904Y-138637142D01*
X226214285Y-138684761D01*
X226119047Y-138732380D01*
X225928571Y-138732380D01*
X225833333Y-138684761D01*
X225785714Y-138637142D01*
X225738095Y-138541904D01*
X225738095Y-138303809D01*
X225785714Y-138208571D01*
X225833333Y-138160952D01*
X225928571Y-138113333D01*
X226119047Y-138113333D01*
X226214285Y-138160952D01*
X226261904Y-138208571D01*
X226309523Y-138303809D01*
%TO.C,R87*%
X227667858Y-140172380D02*
X228001191Y-139696190D01*
X228239286Y-140172380D02*
X228239286Y-139172380D01*
X227858334Y-139172380D01*
X227763096Y-139220000D01*
X227715477Y-139267619D01*
X227667858Y-139362857D01*
X227667858Y-139505714D01*
X227715477Y-139600952D01*
X227763096Y-139648571D01*
X227858334Y-139696190D01*
X228239286Y-139696190D01*
X227096429Y-139600952D02*
X227191667Y-139553333D01*
X227239286Y-139505714D01*
X227286905Y-139410476D01*
X227286905Y-139362857D01*
X227239286Y-139267619D01*
X227191667Y-139220000D01*
X227096429Y-139172380D01*
X226905953Y-139172380D01*
X226810715Y-139220000D01*
X226763096Y-139267619D01*
X226715477Y-139362857D01*
X226715477Y-139410476D01*
X226763096Y-139505714D01*
X226810715Y-139553333D01*
X226905953Y-139600952D01*
X227096429Y-139600952D01*
X227191667Y-139648571D01*
X227239286Y-139696190D01*
X227286905Y-139791428D01*
X227286905Y-139981904D01*
X227239286Y-140077142D01*
X227191667Y-140124761D01*
X227096429Y-140172380D01*
X226905953Y-140172380D01*
X226810715Y-140124761D01*
X226763096Y-140077142D01*
X226715477Y-139981904D01*
X226715477Y-139791428D01*
X226763096Y-139696190D01*
X226810715Y-139648571D01*
X226905953Y-139600952D01*
X226382143Y-139172380D02*
X225715477Y-139172380D01*
X226144048Y-140172380D01*
%TO.C,R88*%
X227642857Y-150732380D02*
X227976190Y-150256190D01*
X228214285Y-150732380D02*
X228214285Y-149732380D01*
X227833333Y-149732380D01*
X227738095Y-149780000D01*
X227690476Y-149827619D01*
X227642857Y-149922857D01*
X227642857Y-150065714D01*
X227690476Y-150160952D01*
X227738095Y-150208571D01*
X227833333Y-150256190D01*
X228214285Y-150256190D01*
X227071428Y-150160952D02*
X227166666Y-150113333D01*
X227214285Y-150065714D01*
X227261904Y-149970476D01*
X227261904Y-149922857D01*
X227214285Y-149827619D01*
X227166666Y-149780000D01*
X227071428Y-149732380D01*
X226880952Y-149732380D01*
X226785714Y-149780000D01*
X226738095Y-149827619D01*
X226690476Y-149922857D01*
X226690476Y-149970476D01*
X226738095Y-150065714D01*
X226785714Y-150113333D01*
X226880952Y-150160952D01*
X227071428Y-150160952D01*
X227166666Y-150208571D01*
X227214285Y-150256190D01*
X227261904Y-150351428D01*
X227261904Y-150541904D01*
X227214285Y-150637142D01*
X227166666Y-150684761D01*
X227071428Y-150732380D01*
X226880952Y-150732380D01*
X226785714Y-150684761D01*
X226738095Y-150637142D01*
X226690476Y-150541904D01*
X226690476Y-150351428D01*
X226738095Y-150256190D01*
X226785714Y-150208571D01*
X226880952Y-150160952D01*
X226119047Y-150160952D02*
X226214285Y-150113333D01*
X226261904Y-150065714D01*
X226309523Y-149970476D01*
X226309523Y-149922857D01*
X226261904Y-149827619D01*
X226214285Y-149780000D01*
X226119047Y-149732380D01*
X225928571Y-149732380D01*
X225833333Y-149780000D01*
X225785714Y-149827619D01*
X225738095Y-149922857D01*
X225738095Y-149970476D01*
X225785714Y-150065714D01*
X225833333Y-150113333D01*
X225928571Y-150160952D01*
X226119047Y-150160952D01*
X226214285Y-150208571D01*
X226261904Y-150256190D01*
X226309523Y-150351428D01*
X226309523Y-150541904D01*
X226261904Y-150637142D01*
X226214285Y-150684761D01*
X226119047Y-150732380D01*
X225928571Y-150732380D01*
X225833333Y-150684761D01*
X225785714Y-150637142D01*
X225738095Y-150541904D01*
X225738095Y-150351428D01*
X225785714Y-150256190D01*
X225833333Y-150208571D01*
X225928571Y-150160952D01*
%TO.C,R89*%
X227642857Y-152172380D02*
X227976190Y-151696190D01*
X228214285Y-152172380D02*
X228214285Y-151172380D01*
X227833333Y-151172380D01*
X227738095Y-151220000D01*
X227690476Y-151267619D01*
X227642857Y-151362857D01*
X227642857Y-151505714D01*
X227690476Y-151600952D01*
X227738095Y-151648571D01*
X227833333Y-151696190D01*
X228214285Y-151696190D01*
X227071428Y-151600952D02*
X227166666Y-151553333D01*
X227214285Y-151505714D01*
X227261904Y-151410476D01*
X227261904Y-151362857D01*
X227214285Y-151267619D01*
X227166666Y-151220000D01*
X227071428Y-151172380D01*
X226880952Y-151172380D01*
X226785714Y-151220000D01*
X226738095Y-151267619D01*
X226690476Y-151362857D01*
X226690476Y-151410476D01*
X226738095Y-151505714D01*
X226785714Y-151553333D01*
X226880952Y-151600952D01*
X227071428Y-151600952D01*
X227166666Y-151648571D01*
X227214285Y-151696190D01*
X227261904Y-151791428D01*
X227261904Y-151981904D01*
X227214285Y-152077142D01*
X227166666Y-152124761D01*
X227071428Y-152172380D01*
X226880952Y-152172380D01*
X226785714Y-152124761D01*
X226738095Y-152077142D01*
X226690476Y-151981904D01*
X226690476Y-151791428D01*
X226738095Y-151696190D01*
X226785714Y-151648571D01*
X226880952Y-151600952D01*
X226214285Y-152172380D02*
X226023809Y-152172380D01*
X225928571Y-152124761D01*
X225880952Y-152077142D01*
X225785714Y-151934285D01*
X225738095Y-151743809D01*
X225738095Y-151362857D01*
X225785714Y-151267619D01*
X225833333Y-151220000D01*
X225928571Y-151172380D01*
X226119047Y-151172380D01*
X226214285Y-151220000D01*
X226261904Y-151267619D01*
X226309523Y-151362857D01*
X226309523Y-151600952D01*
X226261904Y-151696190D01*
X226214285Y-151743809D01*
X226119047Y-151791428D01*
X225928571Y-151791428D01*
X225833333Y-151743809D01*
X225785714Y-151696190D01*
X225738095Y-151600952D01*
%TO.C,R90*%
X227642857Y-162732380D02*
X227976190Y-162256190D01*
X228214285Y-162732380D02*
X228214285Y-161732380D01*
X227833333Y-161732380D01*
X227738095Y-161780000D01*
X227690476Y-161827619D01*
X227642857Y-161922857D01*
X227642857Y-162065714D01*
X227690476Y-162160952D01*
X227738095Y-162208571D01*
X227833333Y-162256190D01*
X228214285Y-162256190D01*
X227166666Y-162732380D02*
X226976190Y-162732380D01*
X226880952Y-162684761D01*
X226833333Y-162637142D01*
X226738095Y-162494285D01*
X226690476Y-162303809D01*
X226690476Y-161922857D01*
X226738095Y-161827619D01*
X226785714Y-161780000D01*
X226880952Y-161732380D01*
X227071428Y-161732380D01*
X227166666Y-161780000D01*
X227214285Y-161827619D01*
X227261904Y-161922857D01*
X227261904Y-162160952D01*
X227214285Y-162256190D01*
X227166666Y-162303809D01*
X227071428Y-162351428D01*
X226880952Y-162351428D01*
X226785714Y-162303809D01*
X226738095Y-162256190D01*
X226690476Y-162160952D01*
X226071428Y-161732380D02*
X225976190Y-161732380D01*
X225880952Y-161780000D01*
X225833333Y-161827619D01*
X225785714Y-161922857D01*
X225738095Y-162113333D01*
X225738095Y-162351428D01*
X225785714Y-162541904D01*
X225833333Y-162637142D01*
X225880952Y-162684761D01*
X225976190Y-162732380D01*
X226071428Y-162732380D01*
X226166666Y-162684761D01*
X226214285Y-162637142D01*
X226261904Y-162541904D01*
X226309523Y-162351428D01*
X226309523Y-162113333D01*
X226261904Y-161922857D01*
X226214285Y-161827619D01*
X226166666Y-161780000D01*
X226071428Y-161732380D01*
%TO.C,R91*%
X242642857Y-114732380D02*
X242976190Y-114256190D01*
X243214285Y-114732380D02*
X243214285Y-113732380D01*
X242833333Y-113732380D01*
X242738095Y-113780000D01*
X242690476Y-113827619D01*
X242642857Y-113922857D01*
X242642857Y-114065714D01*
X242690476Y-114160952D01*
X242738095Y-114208571D01*
X242833333Y-114256190D01*
X243214285Y-114256190D01*
X242166666Y-114732380D02*
X241976190Y-114732380D01*
X241880952Y-114684761D01*
X241833333Y-114637142D01*
X241738095Y-114494285D01*
X241690476Y-114303809D01*
X241690476Y-113922857D01*
X241738095Y-113827619D01*
X241785714Y-113780000D01*
X241880952Y-113732380D01*
X242071428Y-113732380D01*
X242166666Y-113780000D01*
X242214285Y-113827619D01*
X242261904Y-113922857D01*
X242261904Y-114160952D01*
X242214285Y-114256190D01*
X242166666Y-114303809D01*
X242071428Y-114351428D01*
X241880952Y-114351428D01*
X241785714Y-114303809D01*
X241738095Y-114256190D01*
X241690476Y-114160952D01*
X240738095Y-114732380D02*
X241309523Y-114732380D01*
X241023809Y-114732380D02*
X241023809Y-113732380D01*
X241119047Y-113875238D01*
X241214285Y-113970476D01*
X241309523Y-114018095D01*
%TO.C,R92*%
X242642857Y-116172380D02*
X242976190Y-115696190D01*
X243214285Y-116172380D02*
X243214285Y-115172380D01*
X242833333Y-115172380D01*
X242738095Y-115220000D01*
X242690476Y-115267619D01*
X242642857Y-115362857D01*
X242642857Y-115505714D01*
X242690476Y-115600952D01*
X242738095Y-115648571D01*
X242833333Y-115696190D01*
X243214285Y-115696190D01*
X242166666Y-116172380D02*
X241976190Y-116172380D01*
X241880952Y-116124761D01*
X241833333Y-116077142D01*
X241738095Y-115934285D01*
X241690476Y-115743809D01*
X241690476Y-115362857D01*
X241738095Y-115267619D01*
X241785714Y-115220000D01*
X241880952Y-115172380D01*
X242071428Y-115172380D01*
X242166666Y-115220000D01*
X242214285Y-115267619D01*
X242261904Y-115362857D01*
X242261904Y-115600952D01*
X242214285Y-115696190D01*
X242166666Y-115743809D01*
X242071428Y-115791428D01*
X241880952Y-115791428D01*
X241785714Y-115743809D01*
X241738095Y-115696190D01*
X241690476Y-115600952D01*
X241309523Y-115267619D02*
X241261904Y-115220000D01*
X241166666Y-115172380D01*
X240928571Y-115172380D01*
X240833333Y-115220000D01*
X240785714Y-115267619D01*
X240738095Y-115362857D01*
X240738095Y-115458095D01*
X240785714Y-115600952D01*
X241357142Y-116172380D01*
X240738095Y-116172380D01*
%TO.C,R93*%
X242642857Y-126732380D02*
X242976190Y-126256190D01*
X243214285Y-126732380D02*
X243214285Y-125732380D01*
X242833333Y-125732380D01*
X242738095Y-125780000D01*
X242690476Y-125827619D01*
X242642857Y-125922857D01*
X242642857Y-126065714D01*
X242690476Y-126160952D01*
X242738095Y-126208571D01*
X242833333Y-126256190D01*
X243214285Y-126256190D01*
X242166666Y-126732380D02*
X241976190Y-126732380D01*
X241880952Y-126684761D01*
X241833333Y-126637142D01*
X241738095Y-126494285D01*
X241690476Y-126303809D01*
X241690476Y-125922857D01*
X241738095Y-125827619D01*
X241785714Y-125780000D01*
X241880952Y-125732380D01*
X242071428Y-125732380D01*
X242166666Y-125780000D01*
X242214285Y-125827619D01*
X242261904Y-125922857D01*
X242261904Y-126160952D01*
X242214285Y-126256190D01*
X242166666Y-126303809D01*
X242071428Y-126351428D01*
X241880952Y-126351428D01*
X241785714Y-126303809D01*
X241738095Y-126256190D01*
X241690476Y-126160952D01*
X241357142Y-125732380D02*
X240738095Y-125732380D01*
X241071428Y-126113333D01*
X240928571Y-126113333D01*
X240833333Y-126160952D01*
X240785714Y-126208571D01*
X240738095Y-126303809D01*
X240738095Y-126541904D01*
X240785714Y-126637142D01*
X240833333Y-126684761D01*
X240928571Y-126732380D01*
X241214285Y-126732380D01*
X241309523Y-126684761D01*
X241357142Y-126637142D01*
%TO.C,R94*%
X242642857Y-128172380D02*
X242976190Y-127696190D01*
X243214285Y-128172380D02*
X243214285Y-127172380D01*
X242833333Y-127172380D01*
X242738095Y-127220000D01*
X242690476Y-127267619D01*
X242642857Y-127362857D01*
X242642857Y-127505714D01*
X242690476Y-127600952D01*
X242738095Y-127648571D01*
X242833333Y-127696190D01*
X243214285Y-127696190D01*
X242166666Y-128172380D02*
X241976190Y-128172380D01*
X241880952Y-128124761D01*
X241833333Y-128077142D01*
X241738095Y-127934285D01*
X241690476Y-127743809D01*
X241690476Y-127362857D01*
X241738095Y-127267619D01*
X241785714Y-127220000D01*
X241880952Y-127172380D01*
X242071428Y-127172380D01*
X242166666Y-127220000D01*
X242214285Y-127267619D01*
X242261904Y-127362857D01*
X242261904Y-127600952D01*
X242214285Y-127696190D01*
X242166666Y-127743809D01*
X242071428Y-127791428D01*
X241880952Y-127791428D01*
X241785714Y-127743809D01*
X241738095Y-127696190D01*
X241690476Y-127600952D01*
X240833333Y-127505714D02*
X240833333Y-128172380D01*
X241071428Y-127124761D02*
X241309523Y-127839047D01*
X240690476Y-127839047D01*
%TO.C,R96*%
X242642857Y-140172380D02*
X242976190Y-139696190D01*
X243214285Y-140172380D02*
X243214285Y-139172380D01*
X242833333Y-139172380D01*
X242738095Y-139220000D01*
X242690476Y-139267619D01*
X242642857Y-139362857D01*
X242642857Y-139505714D01*
X242690476Y-139600952D01*
X242738095Y-139648571D01*
X242833333Y-139696190D01*
X243214285Y-139696190D01*
X242166666Y-140172380D02*
X241976190Y-140172380D01*
X241880952Y-140124761D01*
X241833333Y-140077142D01*
X241738095Y-139934285D01*
X241690476Y-139743809D01*
X241690476Y-139362857D01*
X241738095Y-139267619D01*
X241785714Y-139220000D01*
X241880952Y-139172380D01*
X242071428Y-139172380D01*
X242166666Y-139220000D01*
X242214285Y-139267619D01*
X242261904Y-139362857D01*
X242261904Y-139600952D01*
X242214285Y-139696190D01*
X242166666Y-139743809D01*
X242071428Y-139791428D01*
X241880952Y-139791428D01*
X241785714Y-139743809D01*
X241738095Y-139696190D01*
X241690476Y-139600952D01*
X240833333Y-139172380D02*
X241023809Y-139172380D01*
X241119047Y-139220000D01*
X241166666Y-139267619D01*
X241261904Y-139410476D01*
X241309523Y-139600952D01*
X241309523Y-139981904D01*
X241261904Y-140077142D01*
X241214285Y-140124761D01*
X241119047Y-140172380D01*
X240928571Y-140172380D01*
X240833333Y-140124761D01*
X240785714Y-140077142D01*
X240738095Y-139981904D01*
X240738095Y-139743809D01*
X240785714Y-139648571D01*
X240833333Y-139600952D01*
X240928571Y-139553333D01*
X241119047Y-139553333D01*
X241214285Y-139600952D01*
X241261904Y-139648571D01*
X241309523Y-139743809D01*
%TO.C,R97*%
X242642857Y-150732380D02*
X242976190Y-150256190D01*
X243214285Y-150732380D02*
X243214285Y-149732380D01*
X242833333Y-149732380D01*
X242738095Y-149780000D01*
X242690476Y-149827619D01*
X242642857Y-149922857D01*
X242642857Y-150065714D01*
X242690476Y-150160952D01*
X242738095Y-150208571D01*
X242833333Y-150256190D01*
X243214285Y-150256190D01*
X242166666Y-150732380D02*
X241976190Y-150732380D01*
X241880952Y-150684761D01*
X241833333Y-150637142D01*
X241738095Y-150494285D01*
X241690476Y-150303809D01*
X241690476Y-149922857D01*
X241738095Y-149827619D01*
X241785714Y-149780000D01*
X241880952Y-149732380D01*
X242071428Y-149732380D01*
X242166666Y-149780000D01*
X242214285Y-149827619D01*
X242261904Y-149922857D01*
X242261904Y-150160952D01*
X242214285Y-150256190D01*
X242166666Y-150303809D01*
X242071428Y-150351428D01*
X241880952Y-150351428D01*
X241785714Y-150303809D01*
X241738095Y-150256190D01*
X241690476Y-150160952D01*
X241357142Y-149732380D02*
X240690476Y-149732380D01*
X241119047Y-150732380D01*
%TO.C,R98*%
X242642857Y-152172380D02*
X242976190Y-151696190D01*
X243214285Y-152172380D02*
X243214285Y-151172380D01*
X242833333Y-151172380D01*
X242738095Y-151220000D01*
X242690476Y-151267619D01*
X242642857Y-151362857D01*
X242642857Y-151505714D01*
X242690476Y-151600952D01*
X242738095Y-151648571D01*
X242833333Y-151696190D01*
X243214285Y-151696190D01*
X242166666Y-152172380D02*
X241976190Y-152172380D01*
X241880952Y-152124761D01*
X241833333Y-152077142D01*
X241738095Y-151934285D01*
X241690476Y-151743809D01*
X241690476Y-151362857D01*
X241738095Y-151267619D01*
X241785714Y-151220000D01*
X241880952Y-151172380D01*
X242071428Y-151172380D01*
X242166666Y-151220000D01*
X242214285Y-151267619D01*
X242261904Y-151362857D01*
X242261904Y-151600952D01*
X242214285Y-151696190D01*
X242166666Y-151743809D01*
X242071428Y-151791428D01*
X241880952Y-151791428D01*
X241785714Y-151743809D01*
X241738095Y-151696190D01*
X241690476Y-151600952D01*
X241119047Y-151600952D02*
X241214285Y-151553333D01*
X241261904Y-151505714D01*
X241309523Y-151410476D01*
X241309523Y-151362857D01*
X241261904Y-151267619D01*
X241214285Y-151220000D01*
X241119047Y-151172380D01*
X240928571Y-151172380D01*
X240833333Y-151220000D01*
X240785714Y-151267619D01*
X240738095Y-151362857D01*
X240738095Y-151410476D01*
X240785714Y-151505714D01*
X240833333Y-151553333D01*
X240928571Y-151600952D01*
X241119047Y-151600952D01*
X241214285Y-151648571D01*
X241261904Y-151696190D01*
X241309523Y-151791428D01*
X241309523Y-151981904D01*
X241261904Y-152077142D01*
X241214285Y-152124761D01*
X241119047Y-152172380D01*
X240928571Y-152172380D01*
X240833333Y-152124761D01*
X240785714Y-152077142D01*
X240738095Y-151981904D01*
X240738095Y-151791428D01*
X240785714Y-151696190D01*
X240833333Y-151648571D01*
X240928571Y-151600952D01*
%TO.C,R99*%
X242642857Y-162732380D02*
X242976190Y-162256190D01*
X243214285Y-162732380D02*
X243214285Y-161732380D01*
X242833333Y-161732380D01*
X242738095Y-161780000D01*
X242690476Y-161827619D01*
X242642857Y-161922857D01*
X242642857Y-162065714D01*
X242690476Y-162160952D01*
X242738095Y-162208571D01*
X242833333Y-162256190D01*
X243214285Y-162256190D01*
X242166666Y-162732380D02*
X241976190Y-162732380D01*
X241880952Y-162684761D01*
X241833333Y-162637142D01*
X241738095Y-162494285D01*
X241690476Y-162303809D01*
X241690476Y-161922857D01*
X241738095Y-161827619D01*
X241785714Y-161780000D01*
X241880952Y-161732380D01*
X242071428Y-161732380D01*
X242166666Y-161780000D01*
X242214285Y-161827619D01*
X242261904Y-161922857D01*
X242261904Y-162160952D01*
X242214285Y-162256190D01*
X242166666Y-162303809D01*
X242071428Y-162351428D01*
X241880952Y-162351428D01*
X241785714Y-162303809D01*
X241738095Y-162256190D01*
X241690476Y-162160952D01*
X241214285Y-162732380D02*
X241023809Y-162732380D01*
X240928571Y-162684761D01*
X240880952Y-162637142D01*
X240785714Y-162494285D01*
X240738095Y-162303809D01*
X240738095Y-161922857D01*
X240785714Y-161827619D01*
X240833333Y-161780000D01*
X240928571Y-161732380D01*
X241119047Y-161732380D01*
X241214285Y-161780000D01*
X241261904Y-161827619D01*
X241309523Y-161922857D01*
X241309523Y-162160952D01*
X241261904Y-162256190D01*
X241214285Y-162303809D01*
X241119047Y-162351428D01*
X240928571Y-162351428D01*
X240833333Y-162303809D01*
X240785714Y-162256190D01*
X240738095Y-162160952D01*
%TO.C,R100*%
X258119047Y-110172380D02*
X258452380Y-109696190D01*
X258690476Y-110172380D02*
X258690476Y-109172380D01*
X258309523Y-109172380D01*
X258214285Y-109220000D01*
X258166666Y-109267619D01*
X258119047Y-109362857D01*
X258119047Y-109505714D01*
X258166666Y-109600952D01*
X258214285Y-109648571D01*
X258309523Y-109696190D01*
X258690476Y-109696190D01*
X257166666Y-110172380D02*
X257738095Y-110172380D01*
X257452380Y-110172380D02*
X257452380Y-109172380D01*
X257547619Y-109315238D01*
X257642857Y-109410476D01*
X257738095Y-109458095D01*
X256547619Y-109172380D02*
X256452380Y-109172380D01*
X256357142Y-109220000D01*
X256309523Y-109267619D01*
X256261904Y-109362857D01*
X256214285Y-109553333D01*
X256214285Y-109791428D01*
X256261904Y-109981904D01*
X256309523Y-110077142D01*
X256357142Y-110124761D01*
X256452380Y-110172380D01*
X256547619Y-110172380D01*
X256642857Y-110124761D01*
X256690476Y-110077142D01*
X256738095Y-109981904D01*
X256785714Y-109791428D01*
X256785714Y-109553333D01*
X256738095Y-109362857D01*
X256690476Y-109267619D01*
X256642857Y-109220000D01*
X256547619Y-109172380D01*
X255595238Y-109172380D02*
X255500000Y-109172380D01*
X255404761Y-109220000D01*
X255357142Y-109267619D01*
X255309523Y-109362857D01*
X255261904Y-109553333D01*
X255261904Y-109791428D01*
X255309523Y-109981904D01*
X255357142Y-110077142D01*
X255404761Y-110124761D01*
X255500000Y-110172380D01*
X255595238Y-110172380D01*
X255690476Y-110124761D01*
X255738095Y-110077142D01*
X255785714Y-109981904D01*
X255833333Y-109791428D01*
X255833333Y-109553333D01*
X255785714Y-109362857D01*
X255738095Y-109267619D01*
X255690476Y-109220000D01*
X255595238Y-109172380D01*
%TO.C,R101*%
X258119047Y-114952380D02*
X258452380Y-114476190D01*
X258690476Y-114952380D02*
X258690476Y-113952380D01*
X258309523Y-113952380D01*
X258214285Y-114000000D01*
X258166666Y-114047619D01*
X258119047Y-114142857D01*
X258119047Y-114285714D01*
X258166666Y-114380952D01*
X258214285Y-114428571D01*
X258309523Y-114476190D01*
X258690476Y-114476190D01*
X257166666Y-114952380D02*
X257738095Y-114952380D01*
X257452380Y-114952380D02*
X257452380Y-113952380D01*
X257547619Y-114095238D01*
X257642857Y-114190476D01*
X257738095Y-114238095D01*
X256547619Y-113952380D02*
X256452380Y-113952380D01*
X256357142Y-114000000D01*
X256309523Y-114047619D01*
X256261904Y-114142857D01*
X256214285Y-114333333D01*
X256214285Y-114571428D01*
X256261904Y-114761904D01*
X256309523Y-114857142D01*
X256357142Y-114904761D01*
X256452380Y-114952380D01*
X256547619Y-114952380D01*
X256642857Y-114904761D01*
X256690476Y-114857142D01*
X256738095Y-114761904D01*
X256785714Y-114571428D01*
X256785714Y-114333333D01*
X256738095Y-114142857D01*
X256690476Y-114047619D01*
X256642857Y-114000000D01*
X256547619Y-113952380D01*
X255261904Y-114952380D02*
X255833333Y-114952380D01*
X255547619Y-114952380D02*
X255547619Y-113952380D01*
X255642857Y-114095238D01*
X255738095Y-114190476D01*
X255833333Y-114238095D01*
%TO.C,R102*%
X258119047Y-120172380D02*
X258452380Y-119696190D01*
X258690476Y-120172380D02*
X258690476Y-119172380D01*
X258309523Y-119172380D01*
X258214285Y-119220000D01*
X258166666Y-119267619D01*
X258119047Y-119362857D01*
X258119047Y-119505714D01*
X258166666Y-119600952D01*
X258214285Y-119648571D01*
X258309523Y-119696190D01*
X258690476Y-119696190D01*
X257166666Y-120172380D02*
X257738095Y-120172380D01*
X257452380Y-120172380D02*
X257452380Y-119172380D01*
X257547619Y-119315238D01*
X257642857Y-119410476D01*
X257738095Y-119458095D01*
X256547619Y-119172380D02*
X256452380Y-119172380D01*
X256357142Y-119220000D01*
X256309523Y-119267619D01*
X256261904Y-119362857D01*
X256214285Y-119553333D01*
X256214285Y-119791428D01*
X256261904Y-119981904D01*
X256309523Y-120077142D01*
X256357142Y-120124761D01*
X256452380Y-120172380D01*
X256547619Y-120172380D01*
X256642857Y-120124761D01*
X256690476Y-120077142D01*
X256738095Y-119981904D01*
X256785714Y-119791428D01*
X256785714Y-119553333D01*
X256738095Y-119362857D01*
X256690476Y-119267619D01*
X256642857Y-119220000D01*
X256547619Y-119172380D01*
X255833333Y-119267619D02*
X255785714Y-119220000D01*
X255690476Y-119172380D01*
X255452380Y-119172380D01*
X255357142Y-119220000D01*
X255309523Y-119267619D01*
X255261904Y-119362857D01*
X255261904Y-119458095D01*
X255309523Y-119600952D01*
X255880952Y-120172380D01*
X255261904Y-120172380D01*
%TO.C,R103*%
X253599880Y-126880952D02*
X253123690Y-126547619D01*
X253599880Y-126309523D02*
X252599880Y-126309523D01*
X252599880Y-126690476D01*
X252647500Y-126785714D01*
X252695119Y-126833333D01*
X252790357Y-126880952D01*
X252933214Y-126880952D01*
X253028452Y-126833333D01*
X253076071Y-126785714D01*
X253123690Y-126690476D01*
X253123690Y-126309523D01*
X253599880Y-127833333D02*
X253599880Y-127261904D01*
X253599880Y-127547619D02*
X252599880Y-127547619D01*
X252742738Y-127452380D01*
X252837976Y-127357142D01*
X252885595Y-127261904D01*
X252599880Y-128452380D02*
X252599880Y-128547619D01*
X252647500Y-128642857D01*
X252695119Y-128690476D01*
X252790357Y-128738095D01*
X252980833Y-128785714D01*
X253218928Y-128785714D01*
X253409404Y-128738095D01*
X253504642Y-128690476D01*
X253552261Y-128642857D01*
X253599880Y-128547619D01*
X253599880Y-128452380D01*
X253552261Y-128357142D01*
X253504642Y-128309523D01*
X253409404Y-128261904D01*
X253218928Y-128214285D01*
X252980833Y-128214285D01*
X252790357Y-128261904D01*
X252695119Y-128309523D01*
X252647500Y-128357142D01*
X252599880Y-128452380D01*
X252599880Y-129119047D02*
X252599880Y-129738095D01*
X252980833Y-129404761D01*
X252980833Y-129547619D01*
X253028452Y-129642857D01*
X253076071Y-129690476D01*
X253171309Y-129738095D01*
X253409404Y-129738095D01*
X253504642Y-129690476D01*
X253552261Y-129642857D01*
X253599880Y-129547619D01*
X253599880Y-129261904D01*
X253552261Y-129166666D01*
X253504642Y-129119047D01*
%TO.C,R104*%
X253599880Y-134880952D02*
X253123690Y-134547619D01*
X253599880Y-134309523D02*
X252599880Y-134309523D01*
X252599880Y-134690476D01*
X252647500Y-134785714D01*
X252695119Y-134833333D01*
X252790357Y-134880952D01*
X252933214Y-134880952D01*
X253028452Y-134833333D01*
X253076071Y-134785714D01*
X253123690Y-134690476D01*
X253123690Y-134309523D01*
X253599880Y-135833333D02*
X253599880Y-135261904D01*
X253599880Y-135547619D02*
X252599880Y-135547619D01*
X252742738Y-135452380D01*
X252837976Y-135357142D01*
X252885595Y-135261904D01*
X252599880Y-136452380D02*
X252599880Y-136547619D01*
X252647500Y-136642857D01*
X252695119Y-136690476D01*
X252790357Y-136738095D01*
X252980833Y-136785714D01*
X253218928Y-136785714D01*
X253409404Y-136738095D01*
X253504642Y-136690476D01*
X253552261Y-136642857D01*
X253599880Y-136547619D01*
X253599880Y-136452380D01*
X253552261Y-136357142D01*
X253504642Y-136309523D01*
X253409404Y-136261904D01*
X253218928Y-136214285D01*
X252980833Y-136214285D01*
X252790357Y-136261904D01*
X252695119Y-136309523D01*
X252647500Y-136357142D01*
X252599880Y-136452380D01*
X252933214Y-137642857D02*
X253599880Y-137642857D01*
X252552261Y-137404761D02*
X253266547Y-137166666D01*
X253266547Y-137785714D01*
%TO.C,R105*%
X253599880Y-142880952D02*
X253123690Y-142547619D01*
X253599880Y-142309523D02*
X252599880Y-142309523D01*
X252599880Y-142690476D01*
X252647500Y-142785714D01*
X252695119Y-142833333D01*
X252790357Y-142880952D01*
X252933214Y-142880952D01*
X253028452Y-142833333D01*
X253076071Y-142785714D01*
X253123690Y-142690476D01*
X253123690Y-142309523D01*
X253599880Y-143833333D02*
X253599880Y-143261904D01*
X253599880Y-143547619D02*
X252599880Y-143547619D01*
X252742738Y-143452380D01*
X252837976Y-143357142D01*
X252885595Y-143261904D01*
X252599880Y-144452380D02*
X252599880Y-144547619D01*
X252647500Y-144642857D01*
X252695119Y-144690476D01*
X252790357Y-144738095D01*
X252980833Y-144785714D01*
X253218928Y-144785714D01*
X253409404Y-144738095D01*
X253504642Y-144690476D01*
X253552261Y-144642857D01*
X253599880Y-144547619D01*
X253599880Y-144452380D01*
X253552261Y-144357142D01*
X253504642Y-144309523D01*
X253409404Y-144261904D01*
X253218928Y-144214285D01*
X252980833Y-144214285D01*
X252790357Y-144261904D01*
X252695119Y-144309523D01*
X252647500Y-144357142D01*
X252599880Y-144452380D01*
X252599880Y-145690476D02*
X252599880Y-145214285D01*
X253076071Y-145166666D01*
X253028452Y-145214285D01*
X252980833Y-145309523D01*
X252980833Y-145547619D01*
X253028452Y-145642857D01*
X253076071Y-145690476D01*
X253171309Y-145738095D01*
X253409404Y-145738095D01*
X253504642Y-145690476D01*
X253552261Y-145642857D01*
X253599880Y-145547619D01*
X253599880Y-145309523D01*
X253552261Y-145214285D01*
X253504642Y-145166666D01*
%TO.C,R106*%
X258119047Y-152952380D02*
X258452380Y-152476190D01*
X258690476Y-152952380D02*
X258690476Y-151952380D01*
X258309523Y-151952380D01*
X258214285Y-152000000D01*
X258166666Y-152047619D01*
X258119047Y-152142857D01*
X258119047Y-152285714D01*
X258166666Y-152380952D01*
X258214285Y-152428571D01*
X258309523Y-152476190D01*
X258690476Y-152476190D01*
X257166666Y-152952380D02*
X257738095Y-152952380D01*
X257452380Y-152952380D02*
X257452380Y-151952380D01*
X257547619Y-152095238D01*
X257642857Y-152190476D01*
X257738095Y-152238095D01*
X256547619Y-151952380D02*
X256452380Y-151952380D01*
X256357142Y-152000000D01*
X256309523Y-152047619D01*
X256261904Y-152142857D01*
X256214285Y-152333333D01*
X256214285Y-152571428D01*
X256261904Y-152761904D01*
X256309523Y-152857142D01*
X256357142Y-152904761D01*
X256452380Y-152952380D01*
X256547619Y-152952380D01*
X256642857Y-152904761D01*
X256690476Y-152857142D01*
X256738095Y-152761904D01*
X256785714Y-152571428D01*
X256785714Y-152333333D01*
X256738095Y-152142857D01*
X256690476Y-152047619D01*
X256642857Y-152000000D01*
X256547619Y-151952380D01*
X255357142Y-151952380D02*
X255547619Y-151952380D01*
X255642857Y-152000000D01*
X255690476Y-152047619D01*
X255785714Y-152190476D01*
X255833333Y-152380952D01*
X255833333Y-152761904D01*
X255785714Y-152857142D01*
X255738095Y-152904761D01*
X255642857Y-152952380D01*
X255452380Y-152952380D01*
X255357142Y-152904761D01*
X255309523Y-152857142D01*
X255261904Y-152761904D01*
X255261904Y-152523809D01*
X255309523Y-152428571D01*
X255357142Y-152380952D01*
X255452380Y-152333333D01*
X255642857Y-152333333D01*
X255738095Y-152380952D01*
X255785714Y-152428571D01*
X255833333Y-152523809D01*
%TO.C,R107*%
X258119047Y-157952380D02*
X258452380Y-157476190D01*
X258690476Y-157952380D02*
X258690476Y-156952380D01*
X258309523Y-156952380D01*
X258214285Y-157000000D01*
X258166666Y-157047619D01*
X258119047Y-157142857D01*
X258119047Y-157285714D01*
X258166666Y-157380952D01*
X258214285Y-157428571D01*
X258309523Y-157476190D01*
X258690476Y-157476190D01*
X257166666Y-157952380D02*
X257738095Y-157952380D01*
X257452380Y-157952380D02*
X257452380Y-156952380D01*
X257547619Y-157095238D01*
X257642857Y-157190476D01*
X257738095Y-157238095D01*
X256547619Y-156952380D02*
X256452380Y-156952380D01*
X256357142Y-157000000D01*
X256309523Y-157047619D01*
X256261904Y-157142857D01*
X256214285Y-157333333D01*
X256214285Y-157571428D01*
X256261904Y-157761904D01*
X256309523Y-157857142D01*
X256357142Y-157904761D01*
X256452380Y-157952380D01*
X256547619Y-157952380D01*
X256642857Y-157904761D01*
X256690476Y-157857142D01*
X256738095Y-157761904D01*
X256785714Y-157571428D01*
X256785714Y-157333333D01*
X256738095Y-157142857D01*
X256690476Y-157047619D01*
X256642857Y-157000000D01*
X256547619Y-156952380D01*
X255880952Y-156952380D02*
X255214285Y-156952380D01*
X255642857Y-157952380D01*
%TO.C,R108*%
X258119047Y-162732380D02*
X258452380Y-162256190D01*
X258690476Y-162732380D02*
X258690476Y-161732380D01*
X258309523Y-161732380D01*
X258214285Y-161780000D01*
X258166666Y-161827619D01*
X258119047Y-161922857D01*
X258119047Y-162065714D01*
X258166666Y-162160952D01*
X258214285Y-162208571D01*
X258309523Y-162256190D01*
X258690476Y-162256190D01*
X257166666Y-162732380D02*
X257738095Y-162732380D01*
X257452380Y-162732380D02*
X257452380Y-161732380D01*
X257547619Y-161875238D01*
X257642857Y-161970476D01*
X257738095Y-162018095D01*
X256547619Y-161732380D02*
X256452380Y-161732380D01*
X256357142Y-161780000D01*
X256309523Y-161827619D01*
X256261904Y-161922857D01*
X256214285Y-162113333D01*
X256214285Y-162351428D01*
X256261904Y-162541904D01*
X256309523Y-162637142D01*
X256357142Y-162684761D01*
X256452380Y-162732380D01*
X256547619Y-162732380D01*
X256642857Y-162684761D01*
X256690476Y-162637142D01*
X256738095Y-162541904D01*
X256785714Y-162351428D01*
X256785714Y-162113333D01*
X256738095Y-161922857D01*
X256690476Y-161827619D01*
X256642857Y-161780000D01*
X256547619Y-161732380D01*
X255642857Y-162160952D02*
X255738095Y-162113333D01*
X255785714Y-162065714D01*
X255833333Y-161970476D01*
X255833333Y-161922857D01*
X255785714Y-161827619D01*
X255738095Y-161780000D01*
X255642857Y-161732380D01*
X255452380Y-161732380D01*
X255357142Y-161780000D01*
X255309523Y-161827619D01*
X255261904Y-161922857D01*
X255261904Y-161970476D01*
X255309523Y-162065714D01*
X255357142Y-162113333D01*
X255452380Y-162160952D01*
X255642857Y-162160952D01*
X255738095Y-162208571D01*
X255785714Y-162256190D01*
X255833333Y-162351428D01*
X255833333Y-162541904D01*
X255785714Y-162637142D01*
X255738095Y-162684761D01*
X255642857Y-162732380D01*
X255452380Y-162732380D01*
X255357142Y-162684761D01*
X255309523Y-162637142D01*
X255261904Y-162541904D01*
X255261904Y-162351428D01*
X255309523Y-162256190D01*
X255357142Y-162208571D01*
X255452380Y-162160952D01*
%TO.C,R109*%
X307369047Y-83702380D02*
X307702380Y-83226190D01*
X307940476Y-83702380D02*
X307940476Y-82702380D01*
X307559523Y-82702380D01*
X307464285Y-82750000D01*
X307416666Y-82797619D01*
X307369047Y-82892857D01*
X307369047Y-83035714D01*
X307416666Y-83130952D01*
X307464285Y-83178571D01*
X307559523Y-83226190D01*
X307940476Y-83226190D01*
X306416666Y-83702380D02*
X306988095Y-83702380D01*
X306702380Y-83702380D02*
X306702380Y-82702380D01*
X306797619Y-82845238D01*
X306892857Y-82940476D01*
X306988095Y-82988095D01*
X305797619Y-82702380D02*
X305702380Y-82702380D01*
X305607142Y-82750000D01*
X305559523Y-82797619D01*
X305511904Y-82892857D01*
X305464285Y-83083333D01*
X305464285Y-83321428D01*
X305511904Y-83511904D01*
X305559523Y-83607142D01*
X305607142Y-83654761D01*
X305702380Y-83702380D01*
X305797619Y-83702380D01*
X305892857Y-83654761D01*
X305940476Y-83607142D01*
X305988095Y-83511904D01*
X306035714Y-83321428D01*
X306035714Y-83083333D01*
X305988095Y-82892857D01*
X305940476Y-82797619D01*
X305892857Y-82750000D01*
X305797619Y-82702380D01*
X304988095Y-83702380D02*
X304797619Y-83702380D01*
X304702380Y-83654761D01*
X304654761Y-83607142D01*
X304559523Y-83464285D01*
X304511904Y-83273809D01*
X304511904Y-82892857D01*
X304559523Y-82797619D01*
X304607142Y-82750000D01*
X304702380Y-82702380D01*
X304892857Y-82702380D01*
X304988095Y-82750000D01*
X305035714Y-82797619D01*
X305083333Y-82892857D01*
X305083333Y-83130952D01*
X305035714Y-83226190D01*
X304988095Y-83273809D01*
X304892857Y-83321428D01*
X304702380Y-83321428D01*
X304607142Y-83273809D01*
X304559523Y-83226190D01*
X304511904Y-83130952D01*
%TO.C,R110*%
X307369047Y-81202380D02*
X307702380Y-80726190D01*
X307940476Y-81202380D02*
X307940476Y-80202380D01*
X307559523Y-80202380D01*
X307464285Y-80250000D01*
X307416666Y-80297619D01*
X307369047Y-80392857D01*
X307369047Y-80535714D01*
X307416666Y-80630952D01*
X307464285Y-80678571D01*
X307559523Y-80726190D01*
X307940476Y-80726190D01*
X306416666Y-81202380D02*
X306988095Y-81202380D01*
X306702380Y-81202380D02*
X306702380Y-80202380D01*
X306797619Y-80345238D01*
X306892857Y-80440476D01*
X306988095Y-80488095D01*
X305464285Y-81202380D02*
X306035714Y-81202380D01*
X305750000Y-81202380D02*
X305750000Y-80202380D01*
X305845238Y-80345238D01*
X305940476Y-80440476D01*
X306035714Y-80488095D01*
X304845238Y-80202380D02*
X304750000Y-80202380D01*
X304654761Y-80250000D01*
X304607142Y-80297619D01*
X304559523Y-80392857D01*
X304511904Y-80583333D01*
X304511904Y-80821428D01*
X304559523Y-81011904D01*
X304607142Y-81107142D01*
X304654761Y-81154761D01*
X304750000Y-81202380D01*
X304845238Y-81202380D01*
X304940476Y-81154761D01*
X304988095Y-81107142D01*
X305035714Y-81011904D01*
X305083333Y-80821428D01*
X305083333Y-80583333D01*
X305035714Y-80392857D01*
X304988095Y-80297619D01*
X304940476Y-80250000D01*
X304845238Y-80202380D01*
%TO.C,U1*%
X303261904Y-91452380D02*
X303261904Y-92261904D01*
X303214285Y-92357142D01*
X303166666Y-92404761D01*
X303071428Y-92452380D01*
X302880952Y-92452380D01*
X302785714Y-92404761D01*
X302738095Y-92357142D01*
X302690476Y-92261904D01*
X302690476Y-91452380D01*
X301690476Y-92452380D02*
X302261904Y-92452380D01*
X301976190Y-92452380D02*
X301976190Y-91452380D01*
X302071428Y-91595238D01*
X302166666Y-91690476D01*
X302261904Y-91738095D01*
%TO.C,D1*%
X302738095Y-85952380D02*
X302738095Y-84952380D01*
X302500000Y-84952380D01*
X302357142Y-85000000D01*
X302261904Y-85095238D01*
X302214285Y-85190476D01*
X302166666Y-85380952D01*
X302166666Y-85523809D01*
X302214285Y-85714285D01*
X302261904Y-85809523D01*
X302357142Y-85904761D01*
X302500000Y-85952380D01*
X302738095Y-85952380D01*
X301214285Y-85952380D02*
X301785714Y-85952380D01*
X301500000Y-85952380D02*
X301500000Y-84952380D01*
X301595238Y-85095238D01*
X301690476Y-85190476D01*
X301785714Y-85238095D01*
%TO.C,F1*%
X284428571Y-103416666D02*
X284428571Y-103083333D01*
X284952380Y-103083333D02*
X283952380Y-103083333D01*
X283952380Y-103559523D01*
X284952380Y-104464285D02*
X284952380Y-103892857D01*
X284952380Y-104178571D02*
X283952380Y-104178571D01*
X284095238Y-104083333D01*
X284190476Y-103988095D01*
X284238095Y-103892857D01*
%TO.C,Q1*%
X275595238Y-112547619D02*
X275690476Y-112500000D01*
X275785714Y-112404761D01*
X275928571Y-112261904D01*
X276023809Y-112214285D01*
X276119047Y-112214285D01*
X276071428Y-112452380D02*
X276166666Y-112404761D01*
X276261904Y-112309523D01*
X276309523Y-112119047D01*
X276309523Y-111785714D01*
X276261904Y-111595238D01*
X276166666Y-111500000D01*
X276071428Y-111452380D01*
X275880952Y-111452380D01*
X275785714Y-111500000D01*
X275690476Y-111595238D01*
X275642857Y-111785714D01*
X275642857Y-112119047D01*
X275690476Y-112309523D01*
X275785714Y-112404761D01*
X275880952Y-112452380D01*
X276071428Y-112452380D01*
X274690476Y-112452380D02*
X275261904Y-112452380D01*
X274976190Y-112452380D02*
X274976190Y-111452380D01*
X275071428Y-111595238D01*
X275166666Y-111690476D01*
X275261904Y-111738095D01*
%TO.C,R111*%
X293952380Y-87630952D02*
X293476190Y-87297619D01*
X293952380Y-87059523D02*
X292952380Y-87059523D01*
X292952380Y-87440476D01*
X293000000Y-87535714D01*
X293047619Y-87583333D01*
X293142857Y-87630952D01*
X293285714Y-87630952D01*
X293380952Y-87583333D01*
X293428571Y-87535714D01*
X293476190Y-87440476D01*
X293476190Y-87059523D01*
X293952380Y-88583333D02*
X293952380Y-88011904D01*
X293952380Y-88297619D02*
X292952380Y-88297619D01*
X293095238Y-88202380D01*
X293190476Y-88107142D01*
X293238095Y-88011904D01*
X293952380Y-89535714D02*
X293952380Y-88964285D01*
X293952380Y-89250000D02*
X292952380Y-89250000D01*
X293095238Y-89154761D01*
X293190476Y-89059523D01*
X293238095Y-88964285D01*
X293952380Y-90488095D02*
X293952380Y-89916666D01*
X293952380Y-90202380D02*
X292952380Y-90202380D01*
X293095238Y-90107142D01*
X293190476Y-90011904D01*
X293238095Y-89916666D01*
%TO.C,R112*%
X303119047Y-79452380D02*
X303452380Y-78976190D01*
X303690476Y-79452380D02*
X303690476Y-78452380D01*
X303309523Y-78452380D01*
X303214285Y-78500000D01*
X303166666Y-78547619D01*
X303119047Y-78642857D01*
X303119047Y-78785714D01*
X303166666Y-78880952D01*
X303214285Y-78928571D01*
X303309523Y-78976190D01*
X303690476Y-78976190D01*
X302166666Y-79452380D02*
X302738095Y-79452380D01*
X302452380Y-79452380D02*
X302452380Y-78452380D01*
X302547619Y-78595238D01*
X302642857Y-78690476D01*
X302738095Y-78738095D01*
X301214285Y-79452380D02*
X301785714Y-79452380D01*
X301500000Y-79452380D02*
X301500000Y-78452380D01*
X301595238Y-78595238D01*
X301690476Y-78690476D01*
X301785714Y-78738095D01*
X300833333Y-78547619D02*
X300785714Y-78500000D01*
X300690476Y-78452380D01*
X300452380Y-78452380D01*
X300357142Y-78500000D01*
X300309523Y-78547619D01*
X300261904Y-78642857D01*
X300261904Y-78738095D01*
X300309523Y-78880952D01*
X300880952Y-79452380D01*
X300261904Y-79452380D01*
%TO.C,J1*%
X305622380Y-92166666D02*
X306336666Y-92166666D01*
X306479523Y-92119047D01*
X306574761Y-92023809D01*
X306622380Y-91880952D01*
X306622380Y-91785714D01*
X306622380Y-93166666D02*
X306622380Y-92595238D01*
X306622380Y-92880952D02*
X305622380Y-92880952D01*
X305765238Y-92785714D01*
X305860476Y-92690476D01*
X305908095Y-92595238D01*
%TO.C,J2*%
X298083333Y-90202380D02*
X298083333Y-90916666D01*
X298130952Y-91059523D01*
X298226190Y-91154761D01*
X298369047Y-91202380D01*
X298464285Y-91202380D01*
X297654761Y-90297619D02*
X297607142Y-90250000D01*
X297511904Y-90202380D01*
X297273809Y-90202380D01*
X297178571Y-90250000D01*
X297130952Y-90297619D01*
X297083333Y-90392857D01*
X297083333Y-90488095D01*
X297130952Y-90630952D01*
X297702380Y-91202380D01*
X297083333Y-91202380D01*
%TO.C,R5*%
X82166666Y-99172380D02*
X82500000Y-98696190D01*
X82738095Y-99172380D02*
X82738095Y-98172380D01*
X82357142Y-98172380D01*
X82261904Y-98220000D01*
X82214285Y-98267619D01*
X82166666Y-98362857D01*
X82166666Y-98505714D01*
X82214285Y-98600952D01*
X82261904Y-98648571D01*
X82357142Y-98696190D01*
X82738095Y-98696190D01*
X81261904Y-98172380D02*
X81738095Y-98172380D01*
X81785714Y-98648571D01*
X81738095Y-98600952D01*
X81642857Y-98553333D01*
X81404761Y-98553333D01*
X81309523Y-98600952D01*
X81261904Y-98648571D01*
X81214285Y-98743809D01*
X81214285Y-98981904D01*
X81261904Y-99077142D01*
X81309523Y-99124761D01*
X81404761Y-99172380D01*
X81642857Y-99172380D01*
X81738095Y-99124761D01*
X81785714Y-99077142D01*
%TO.C,R113*%
X83119047Y-109732380D02*
X83452380Y-109256190D01*
X83690476Y-109732380D02*
X83690476Y-108732380D01*
X83309523Y-108732380D01*
X83214285Y-108780000D01*
X83166666Y-108827619D01*
X83119047Y-108922857D01*
X83119047Y-109065714D01*
X83166666Y-109160952D01*
X83214285Y-109208571D01*
X83309523Y-109256190D01*
X83690476Y-109256190D01*
X82166666Y-109732380D02*
X82738095Y-109732380D01*
X82452380Y-109732380D02*
X82452380Y-108732380D01*
X82547619Y-108875238D01*
X82642857Y-108970476D01*
X82738095Y-109018095D01*
X81214285Y-109732380D02*
X81785714Y-109732380D01*
X81500000Y-109732380D02*
X81500000Y-108732380D01*
X81595238Y-108875238D01*
X81690476Y-108970476D01*
X81785714Y-109018095D01*
X80880952Y-108732380D02*
X80261904Y-108732380D01*
X80595238Y-109113333D01*
X80452380Y-109113333D01*
X80357142Y-109160952D01*
X80309523Y-109208571D01*
X80261904Y-109303809D01*
X80261904Y-109541904D01*
X80309523Y-109637142D01*
X80357142Y-109684761D01*
X80452380Y-109732380D01*
X80738095Y-109732380D01*
X80833333Y-109684761D01*
X80880952Y-109637142D01*
%TO.C,R114*%
X83119047Y-111172380D02*
X83452380Y-110696190D01*
X83690476Y-111172380D02*
X83690476Y-110172380D01*
X83309523Y-110172380D01*
X83214285Y-110220000D01*
X83166666Y-110267619D01*
X83119047Y-110362857D01*
X83119047Y-110505714D01*
X83166666Y-110600952D01*
X83214285Y-110648571D01*
X83309523Y-110696190D01*
X83690476Y-110696190D01*
X82166666Y-111172380D02*
X82738095Y-111172380D01*
X82452380Y-111172380D02*
X82452380Y-110172380D01*
X82547619Y-110315238D01*
X82642857Y-110410476D01*
X82738095Y-110458095D01*
X81214285Y-111172380D02*
X81785714Y-111172380D01*
X81500000Y-111172380D02*
X81500000Y-110172380D01*
X81595238Y-110315238D01*
X81690476Y-110410476D01*
X81785714Y-110458095D01*
X80357142Y-110505714D02*
X80357142Y-111172380D01*
X80595238Y-110124761D02*
X80833333Y-110839047D01*
X80214285Y-110839047D01*
%TO.C,R115*%
X83119047Y-121732380D02*
X83452380Y-121256190D01*
X83690476Y-121732380D02*
X83690476Y-120732380D01*
X83309523Y-120732380D01*
X83214285Y-120780000D01*
X83166666Y-120827619D01*
X83119047Y-120922857D01*
X83119047Y-121065714D01*
X83166666Y-121160952D01*
X83214285Y-121208571D01*
X83309523Y-121256190D01*
X83690476Y-121256190D01*
X82166666Y-121732380D02*
X82738095Y-121732380D01*
X82452380Y-121732380D02*
X82452380Y-120732380D01*
X82547619Y-120875238D01*
X82642857Y-120970476D01*
X82738095Y-121018095D01*
X81214285Y-121732380D02*
X81785714Y-121732380D01*
X81500000Y-121732380D02*
X81500000Y-120732380D01*
X81595238Y-120875238D01*
X81690476Y-120970476D01*
X81785714Y-121018095D01*
X80309523Y-120732380D02*
X80785714Y-120732380D01*
X80833333Y-121208571D01*
X80785714Y-121160952D01*
X80690476Y-121113333D01*
X80452380Y-121113333D01*
X80357142Y-121160952D01*
X80309523Y-121208571D01*
X80261904Y-121303809D01*
X80261904Y-121541904D01*
X80309523Y-121637142D01*
X80357142Y-121684761D01*
X80452380Y-121732380D01*
X80690476Y-121732380D01*
X80785714Y-121684761D01*
X80833333Y-121637142D01*
%TO.C,R116*%
X83119047Y-151172380D02*
X83452380Y-150696190D01*
X83690476Y-151172380D02*
X83690476Y-150172380D01*
X83309523Y-150172380D01*
X83214285Y-150220000D01*
X83166666Y-150267619D01*
X83119047Y-150362857D01*
X83119047Y-150505714D01*
X83166666Y-150600952D01*
X83214285Y-150648571D01*
X83309523Y-150696190D01*
X83690476Y-150696190D01*
X82166666Y-151172380D02*
X82738095Y-151172380D01*
X82452380Y-151172380D02*
X82452380Y-150172380D01*
X82547619Y-150315238D01*
X82642857Y-150410476D01*
X82738095Y-150458095D01*
X81214285Y-151172380D02*
X81785714Y-151172380D01*
X81500000Y-151172380D02*
X81500000Y-150172380D01*
X81595238Y-150315238D01*
X81690476Y-150410476D01*
X81785714Y-150458095D01*
X80357142Y-150172380D02*
X80547619Y-150172380D01*
X80642857Y-150220000D01*
X80690476Y-150267619D01*
X80785714Y-150410476D01*
X80833333Y-150600952D01*
X80833333Y-150981904D01*
X80785714Y-151077142D01*
X80738095Y-151124761D01*
X80642857Y-151172380D01*
X80452380Y-151172380D01*
X80357142Y-151124761D01*
X80309523Y-151077142D01*
X80261904Y-150981904D01*
X80261904Y-150743809D01*
X80309523Y-150648571D01*
X80357142Y-150600952D01*
X80452380Y-150553333D01*
X80642857Y-150553333D01*
X80738095Y-150600952D01*
X80785714Y-150648571D01*
X80833333Y-150743809D01*
%TO.C,R117*%
X83119047Y-161732380D02*
X83452380Y-161256190D01*
X83690476Y-161732380D02*
X83690476Y-160732380D01*
X83309523Y-160732380D01*
X83214285Y-160780000D01*
X83166666Y-160827619D01*
X83119047Y-160922857D01*
X83119047Y-161065714D01*
X83166666Y-161160952D01*
X83214285Y-161208571D01*
X83309523Y-161256190D01*
X83690476Y-161256190D01*
X82166666Y-161732380D02*
X82738095Y-161732380D01*
X82452380Y-161732380D02*
X82452380Y-160732380D01*
X82547619Y-160875238D01*
X82642857Y-160970476D01*
X82738095Y-161018095D01*
X81214285Y-161732380D02*
X81785714Y-161732380D01*
X81500000Y-161732380D02*
X81500000Y-160732380D01*
X81595238Y-160875238D01*
X81690476Y-160970476D01*
X81785714Y-161018095D01*
X80880952Y-160732380D02*
X80214285Y-160732380D01*
X80642857Y-161732380D01*
%TO.C,R118*%
X83119047Y-163172380D02*
X83452380Y-162696190D01*
X83690476Y-163172380D02*
X83690476Y-162172380D01*
X83309523Y-162172380D01*
X83214285Y-162220000D01*
X83166666Y-162267619D01*
X83119047Y-162362857D01*
X83119047Y-162505714D01*
X83166666Y-162600952D01*
X83214285Y-162648571D01*
X83309523Y-162696190D01*
X83690476Y-162696190D01*
X82166666Y-163172380D02*
X82738095Y-163172380D01*
X82452380Y-163172380D02*
X82452380Y-162172380D01*
X82547619Y-162315238D01*
X82642857Y-162410476D01*
X82738095Y-162458095D01*
X81214285Y-163172380D02*
X81785714Y-163172380D01*
X81500000Y-163172380D02*
X81500000Y-162172380D01*
X81595238Y-162315238D01*
X81690476Y-162410476D01*
X81785714Y-162458095D01*
X80642857Y-162600952D02*
X80738095Y-162553333D01*
X80785714Y-162505714D01*
X80833333Y-162410476D01*
X80833333Y-162362857D01*
X80785714Y-162267619D01*
X80738095Y-162220000D01*
X80642857Y-162172380D01*
X80452380Y-162172380D01*
X80357142Y-162220000D01*
X80309523Y-162267619D01*
X80261904Y-162362857D01*
X80261904Y-162410476D01*
X80309523Y-162505714D01*
X80357142Y-162553333D01*
X80452380Y-162600952D01*
X80642857Y-162600952D01*
X80738095Y-162648571D01*
X80785714Y-162696190D01*
X80833333Y-162791428D01*
X80833333Y-162981904D01*
X80785714Y-163077142D01*
X80738095Y-163124761D01*
X80642857Y-163172380D01*
X80452380Y-163172380D01*
X80357142Y-163124761D01*
X80309523Y-163077142D01*
X80261904Y-162981904D01*
X80261904Y-162791428D01*
X80309523Y-162696190D01*
X80357142Y-162648571D01*
X80452380Y-162600952D01*
%TO.C,R119*%
X83119047Y-173732380D02*
X83452380Y-173256190D01*
X83690476Y-173732380D02*
X83690476Y-172732380D01*
X83309523Y-172732380D01*
X83214285Y-172780000D01*
X83166666Y-172827619D01*
X83119047Y-172922857D01*
X83119047Y-173065714D01*
X83166666Y-173160952D01*
X83214285Y-173208571D01*
X83309523Y-173256190D01*
X83690476Y-173256190D01*
X82166666Y-173732380D02*
X82738095Y-173732380D01*
X82452380Y-173732380D02*
X82452380Y-172732380D01*
X82547619Y-172875238D01*
X82642857Y-172970476D01*
X82738095Y-173018095D01*
X81214285Y-173732380D02*
X81785714Y-173732380D01*
X81500000Y-173732380D02*
X81500000Y-172732380D01*
X81595238Y-172875238D01*
X81690476Y-172970476D01*
X81785714Y-173018095D01*
X80738095Y-173732380D02*
X80547619Y-173732380D01*
X80452380Y-173684761D01*
X80404761Y-173637142D01*
X80309523Y-173494285D01*
X80261904Y-173303809D01*
X80261904Y-172922857D01*
X80309523Y-172827619D01*
X80357142Y-172780000D01*
X80452380Y-172732380D01*
X80642857Y-172732380D01*
X80738095Y-172780000D01*
X80785714Y-172827619D01*
X80833333Y-172922857D01*
X80833333Y-173160952D01*
X80785714Y-173256190D01*
X80738095Y-173303809D01*
X80642857Y-173351428D01*
X80452380Y-173351428D01*
X80357142Y-173303809D01*
X80309523Y-173256190D01*
X80261904Y-173160952D01*
%TO.C,J5*%
X84333333Y-89622380D02*
X84333333Y-90336666D01*
X84380952Y-90479523D01*
X84476190Y-90574761D01*
X84619047Y-90622380D01*
X84714285Y-90622380D01*
X83380952Y-89622380D02*
X83857142Y-89622380D01*
X83904761Y-90098571D01*
X83857142Y-90050952D01*
X83761904Y-90003333D01*
X83523809Y-90003333D01*
X83428571Y-90050952D01*
X83380952Y-90098571D01*
X83333333Y-90193809D01*
X83333333Y-90431904D01*
X83380952Y-90527142D01*
X83428571Y-90574761D01*
X83523809Y-90622380D01*
X83761904Y-90622380D01*
X83857142Y-90574761D01*
X83904761Y-90527142D01*
%TO.C,TH1*%
X177302380Y-86714285D02*
X177302380Y-87285714D01*
X178302380Y-87000000D02*
X177302380Y-87000000D01*
X178302380Y-87619047D02*
X177302380Y-87619047D01*
X177778571Y-87619047D02*
X177778571Y-88190476D01*
X178302380Y-88190476D02*
X177302380Y-88190476D01*
X178302380Y-89190476D02*
X178302380Y-88619047D01*
X178302380Y-88904761D02*
X177302380Y-88904761D01*
X177445238Y-88809523D01*
X177540476Y-88714285D01*
X177588095Y-88619047D01*
%TO.C,J3*%
X298083333Y-88702380D02*
X298083333Y-89416666D01*
X298130952Y-89559523D01*
X298226190Y-89654761D01*
X298369047Y-89702380D01*
X298464285Y-89702380D01*
X297702380Y-88702380D02*
X297083333Y-88702380D01*
X297416666Y-89083333D01*
X297273809Y-89083333D01*
X297178571Y-89130952D01*
X297130952Y-89178571D01*
X297083333Y-89273809D01*
X297083333Y-89511904D01*
X297130952Y-89607142D01*
X297178571Y-89654761D01*
X297273809Y-89702380D01*
X297559523Y-89702380D01*
X297654761Y-89654761D01*
X297702380Y-89607142D01*
%TO.C,J4*%
X298083333Y-91702380D02*
X298083333Y-92416666D01*
X298130952Y-92559523D01*
X298226190Y-92654761D01*
X298369047Y-92702380D01*
X298464285Y-92702380D01*
X297178571Y-92035714D02*
X297178571Y-92702380D01*
X297416666Y-91654761D02*
X297654761Y-92369047D01*
X297035714Y-92369047D01*
%TD*%
M02*
