%TF.GenerationSoftware,KiCad,Pcbnew,7.0.10*%
%TF.CreationDate,2024-01-31T18:16:45-05:00*%
%TF.ProjectId,FoMoCoFastCharger,466f4d6f-436f-4466-9173-744368617267,rev?*%
%TF.SameCoordinates,Original*%
%TF.FileFunction,Copper,L2,Bot*%
%TF.FilePolarity,Positive*%
%FSLAX46Y46*%
G04 Gerber Fmt 4.6, Leading zero omitted, Abs format (unit mm)*
G04 Created by KiCad (PCBNEW 7.0.10) date 2024-01-31 18:16:45*
%MOMM*%
%LPD*%
G01*
G04 APERTURE LIST*
G04 Aperture macros list*
%AMRoundRect*
0 Rectangle with rounded corners*
0 $1 Rounding radius*
0 $2 $3 $4 $5 $6 $7 $8 $9 X,Y pos of 4 corners*
0 Add a 4 corners polygon primitive as box body*
4,1,4,$2,$3,$4,$5,$6,$7,$8,$9,$2,$3,0*
0 Add four circle primitives for the rounded corners*
1,1,$1+$1,$2,$3*
1,1,$1+$1,$4,$5*
1,1,$1+$1,$6,$7*
1,1,$1+$1,$8,$9*
0 Add four rect primitives between the rounded corners*
20,1,$1+$1,$2,$3,$4,$5,0*
20,1,$1+$1,$4,$5,$6,$7,0*
20,1,$1+$1,$6,$7,$8,$9,0*
20,1,$1+$1,$8,$9,$2,$3,0*%
G04 Aperture macros list end*
%TA.AperFunction,ComponentPad*%
%ADD10R,1.700000X1.700000*%
%TD*%
%TA.AperFunction,ComponentPad*%
%ADD11O,1.700000X1.700000*%
%TD*%
%TA.AperFunction,SMDPad,CuDef*%
%ADD12RoundRect,0.250000X0.450000X-0.262500X0.450000X0.262500X-0.450000X0.262500X-0.450000X-0.262500X0*%
%TD*%
%TA.AperFunction,SMDPad,CuDef*%
%ADD13R,3.100000X1.600000*%
%TD*%
%TA.AperFunction,SMDPad,CuDef*%
%ADD14RoundRect,0.250000X0.475000X-0.250000X0.475000X0.250000X-0.475000X0.250000X-0.475000X-0.250000X0*%
%TD*%
%TA.AperFunction,SMDPad,CuDef*%
%ADD15RoundRect,0.150000X0.512500X0.150000X-0.512500X0.150000X-0.512500X-0.150000X0.512500X-0.150000X0*%
%TD*%
%TA.AperFunction,SMDPad,CuDef*%
%ADD16RoundRect,0.250000X-0.450000X0.262500X-0.450000X-0.262500X0.450000X-0.262500X0.450000X0.262500X0*%
%TD*%
%TA.AperFunction,SMDPad,CuDef*%
%ADD17RoundRect,0.250000X0.262500X0.450000X-0.262500X0.450000X-0.262500X-0.450000X0.262500X-0.450000X0*%
%TD*%
%TA.AperFunction,SMDPad,CuDef*%
%ADD18RoundRect,0.150000X-0.587500X-0.150000X0.587500X-0.150000X0.587500X0.150000X-0.587500X0.150000X0*%
%TD*%
%TA.AperFunction,Conductor*%
%ADD19C,1.000000*%
%TD*%
%TA.AperFunction,Conductor*%
%ADD20C,0.500000*%
%TD*%
%TA.AperFunction,Conductor*%
%ADD21C,0.250000*%
%TD*%
G04 APERTURE END LIST*
D10*
%TO.P,J3,1,Pin_1*%
%TO.N,GND*%
X67525000Y-100210000D03*
D11*
%TO.P,J3,2,Pin_2*%
%TO.N,/DC_OK*%
X67525000Y-102750000D03*
%TO.P,J3,3,Pin_3*%
%TO.N,+12V*%
X64985000Y-100210000D03*
%TO.P,J3,4,Pin_4*%
%TO.N,/DC_EN*%
X64985000Y-102750000D03*
%TD*%
D12*
%TO.P,TH1,1*%
%TO.N,/TEMPERATURE*%
X117500000Y-103912500D03*
%TO.P,TH1,2*%
%TO.N,GND*%
X117500000Y-102087500D03*
%TD*%
D13*
%TO.P,J2,1,Pin_1*%
%TO.N,+12V*%
X72055000Y-107520000D03*
%TO.P,J2,2,Pin_2*%
%TO.N,/DC_EN*%
X72055000Y-104980000D03*
%TO.P,J2,3*%
%TO.N,N/C*%
X80945000Y-104980000D03*
%TO.P,J2,4*%
X80945000Y-107520000D03*
%TD*%
D12*
%TO.P,R4,1*%
%TO.N,/GATE*%
X148000000Y-103912500D03*
%TO.P,R4,2*%
%TO.N,/COMP_OUT*%
X148000000Y-102087500D03*
%TD*%
%TO.P,R2,1*%
%TO.N,/2V4_REF*%
X137500000Y-103912500D03*
%TO.P,R2,2*%
%TO.N,/COMP_FEEDBACK*%
X137500000Y-102087500D03*
%TD*%
%TO.P,R3,1*%
%TO.N,/2V4_REF*%
X134000000Y-103912500D03*
%TO.P,R3,2*%
%TO.N,/COMP_FEEDBACK*%
X134000000Y-102087500D03*
%TD*%
D14*
%TO.P,C1,1*%
%TO.N,+5V*%
X124500000Y-103950000D03*
%TO.P,C1,2*%
%TO.N,GND*%
X124500000Y-102050000D03*
%TD*%
D12*
%TO.P,R6,1*%
%TO.N,+5V*%
X151500000Y-103912500D03*
%TO.P,R6,2*%
%TO.N,/GATE*%
X151500000Y-102087500D03*
%TD*%
D15*
%TO.P,U1,1*%
%TO.N,/COMP_OUT*%
X130275000Y-102050000D03*
%TO.P,U1,2,V-*%
%TO.N,GND*%
X130275000Y-103000000D03*
%TO.P,U1,3,+*%
%TO.N,/COMP_FEEDBACK*%
X130275000Y-103950000D03*
%TO.P,U1,4,-*%
%TO.N,/TEMPERATURE*%
X128000000Y-103950000D03*
%TO.P,U1,5,Vref*%
%TO.N,/2V4_REF*%
X128000000Y-103000000D03*
%TO.P,U1,6,V+*%
%TO.N,+5V*%
X128000000Y-102050000D03*
%TD*%
D16*
%TO.P,R9,1*%
%TO.N,+5V*%
X121000000Y-102087500D03*
%TO.P,R9,2*%
%TO.N,/TEMPERATURE*%
X121000000Y-103912500D03*
%TD*%
D13*
%TO.P,J4,1,Pin_1*%
%TO.N,+12V*%
X238000000Y-104520000D03*
%TO.P,J4,2,Pin_2*%
%TO.N,/FAN_NEG*%
X238000000Y-101980000D03*
%TO.P,J4,3*%
%TO.N,N/C*%
X246890000Y-101980000D03*
%TO.P,J4,4*%
X246890000Y-104520000D03*
%TD*%
D12*
%TO.P,R8,1*%
%TO.N,/COMP_FEEDBACK*%
X141000000Y-103912500D03*
%TO.P,R8,2*%
%TO.N,/COMP_OUT*%
X141000000Y-102087500D03*
%TD*%
%TO.P,R7,1*%
%TO.N,/COMP_FEEDBACK*%
X144500000Y-103912500D03*
%TO.P,R7,2*%
%TO.N,/COMP_OUT*%
X144500000Y-102087500D03*
%TD*%
%TO.P,R5,1*%
%TO.N,/GATE*%
X154812500Y-103912500D03*
%TO.P,R5,2*%
%TO.N,GND*%
X154812500Y-102087500D03*
%TD*%
D17*
%TO.P,R1,1*%
%TO.N,+5V*%
X106162500Y-105250000D03*
%TO.P,R1,2*%
%TO.N,/DC_OK*%
X104337500Y-105250000D03*
%TD*%
D13*
%TO.P,J1,1,Pin_1*%
%TO.N,+12V*%
X184110000Y-104520000D03*
%TO.P,J1,2,Pin_2*%
%TO.N,/FAN_NEG*%
X184110000Y-101980000D03*
%TO.P,J1,3*%
%TO.N,N/C*%
X193000000Y-101980000D03*
%TO.P,J1,4*%
X193000000Y-104520000D03*
%TD*%
D18*
%TO.P,Q1,1,G*%
%TO.N,/GATE*%
X158375000Y-103950000D03*
%TO.P,Q1,2,S*%
%TO.N,GND*%
X158375000Y-102050000D03*
%TO.P,Q1,3,D*%
%TO.N,/FAN_NEG*%
X160250000Y-103000000D03*
%TD*%
D19*
%TO.N,+12V*%
X78480000Y-108250000D02*
X83750000Y-108250000D01*
X220730000Y-104520000D02*
X238000000Y-104520000D01*
%TO.N,/FAN_NEG*%
X220480000Y-101980000D02*
X238000000Y-101980000D01*
D20*
%TO.N,+5V*%
X115500000Y-105500000D02*
X114250000Y-106750000D01*
X114250000Y-106750000D02*
X109750000Y-106750000D01*
X108250000Y-105250000D02*
X106162500Y-105250000D01*
X118500000Y-103000000D02*
X119412500Y-102087500D01*
X123600000Y-103750000D02*
X124400000Y-103750000D01*
X133250000Y-106500000D02*
X134000000Y-105750000D01*
X116500000Y-103000000D02*
X115750000Y-103750000D01*
X134000000Y-105750000D02*
X149662500Y-105750000D01*
D21*
X118500000Y-103000000D02*
X116500000Y-103000000D01*
D20*
X109750000Y-106750000D02*
X108250000Y-105250000D01*
X121837500Y-102087500D02*
X123700000Y-103950000D01*
X121000000Y-102087500D02*
X121837500Y-102087500D01*
X115750000Y-105500000D02*
X115500000Y-105500000D01*
X119412500Y-102087500D02*
X121000000Y-102087500D01*
X122500000Y-106500000D02*
X133250000Y-106500000D01*
X149662500Y-105750000D02*
X151500000Y-103912500D01*
X126700000Y-102050000D02*
X128000000Y-102050000D01*
X121162500Y-102250000D02*
X122000000Y-102250000D01*
X124500000Y-103950000D02*
X124800000Y-103950000D01*
X124500000Y-103950000D02*
X123700000Y-103950000D01*
X124800000Y-103950000D02*
X126700000Y-102050000D01*
X121500000Y-105500000D02*
X122500000Y-106500000D01*
X115750000Y-105500000D02*
X121500000Y-105500000D01*
X115750000Y-103750000D02*
X115750000Y-105500000D01*
%TO.N,GND*%
X117500000Y-100500000D02*
X117250000Y-100250000D01*
D21*
X129150000Y-102550000D02*
X129150000Y-101400000D01*
D19*
X117250000Y-100250000D02*
X124750000Y-100250000D01*
D21*
X130187500Y-102850000D02*
X129512500Y-102850000D01*
X129600000Y-103000000D02*
X129150000Y-102550000D01*
D19*
X152250000Y-99500000D02*
X129750000Y-99500000D01*
D20*
X124500000Y-100500000D02*
X124750000Y-100250000D01*
D19*
X154812500Y-102087500D02*
X154812500Y-102062500D01*
D20*
X129000000Y-100250000D02*
X128750000Y-100500000D01*
X124500000Y-102050000D02*
X124500000Y-100500000D01*
D21*
X129500000Y-101050000D02*
X129500000Y-100750000D01*
D19*
X129000000Y-100250000D02*
X129750000Y-99500000D01*
X115662500Y-100250000D02*
X117250000Y-100250000D01*
X68235000Y-99500000D02*
X114912500Y-99500000D01*
D20*
X117500000Y-102087500D02*
X117337500Y-102087500D01*
D19*
X154812500Y-102062500D02*
X152250000Y-99500000D01*
X67525000Y-100210000D02*
X68235000Y-99500000D01*
X114912500Y-99500000D02*
X115662500Y-100250000D01*
X124750000Y-100250000D02*
X129000000Y-100250000D01*
X154812500Y-102087500D02*
X158337500Y-102087500D01*
D21*
X129500000Y-100750000D02*
X129000000Y-100250000D01*
D19*
X158337500Y-102087500D02*
X158375000Y-102050000D01*
D20*
X117500000Y-102087500D02*
X117500000Y-100500000D01*
D21*
X129150000Y-101400000D02*
X128750000Y-101000000D01*
D20*
X128750000Y-100500000D02*
X128750000Y-101000000D01*
D21*
X129150000Y-101400000D02*
X129500000Y-101050000D01*
D20*
%TO.N,/GATE*%
X151500000Y-102087500D02*
X152337500Y-102087500D01*
X150662500Y-102087500D02*
X151500000Y-102087500D01*
X154850000Y-103950000D02*
X154812500Y-103912500D01*
X152337500Y-102087500D02*
X154162500Y-103912500D01*
X148000000Y-103912500D02*
X148837500Y-103912500D01*
X158375000Y-103950000D02*
X154850000Y-103950000D01*
X148837500Y-103912500D02*
X150662500Y-102087500D01*
X154162500Y-103912500D02*
X154812500Y-103912500D01*
D19*
%TO.N,/FAN_NEG*%
X184110000Y-101980000D02*
X162020000Y-101980000D01*
X211500000Y-102250000D02*
X214000000Y-99750000D01*
X214000000Y-99500000D02*
X218000000Y-99500000D01*
X190510000Y-101500000D02*
X195990000Y-101500000D01*
X240945000Y-102250000D02*
X247282500Y-102250000D01*
X161000000Y-103000000D02*
X162020000Y-101980000D01*
X247195000Y-100500000D02*
X247945000Y-101250000D01*
X190410000Y-101980000D02*
X190430000Y-102000000D01*
X246215000Y-99500000D02*
X247195000Y-100480000D01*
X160250000Y-103000000D02*
X161000000Y-103000000D01*
X190510000Y-100750000D02*
X195990000Y-100750000D01*
X241445000Y-101980000D02*
X247782500Y-101980000D01*
X238000000Y-101980000D02*
X241445000Y-101980000D01*
X184110000Y-101980000D02*
X190410000Y-101980000D01*
X244810000Y-101000000D02*
X247580000Y-101000000D01*
X190430000Y-102250000D02*
X211500000Y-102250000D01*
X220480000Y-101980000D02*
X218000000Y-99500000D01*
D20*
%TO.N,/DC_OK*%
X67040000Y-102750000D02*
X101837500Y-102750000D01*
X101837500Y-102750000D02*
X104337500Y-105250000D01*
%TO.N,/2V4_REF*%
X129650000Y-105250000D02*
X132456250Y-105250000D01*
D21*
X128150000Y-103150000D02*
X128850000Y-103150000D01*
D20*
X132456250Y-105250000D02*
X133793750Y-103912500D01*
X129150000Y-104750000D02*
X129650000Y-105250000D01*
D21*
X129150000Y-104750000D02*
X129150000Y-103450000D01*
D20*
X133793750Y-103912500D02*
X134000000Y-103912500D01*
D21*
X129150000Y-103450000D02*
X128700000Y-103000000D01*
D20*
X137500000Y-103912500D02*
X134000000Y-103912500D01*
%TO.N,/COMP_FEEDBACK*%
X139750000Y-103662500D02*
X138175000Y-102087500D01*
X140750000Y-103662500D02*
X139750000Y-103662500D01*
X134000000Y-102250000D02*
X133162500Y-102250000D01*
X138175000Y-102087500D02*
X137500000Y-102087500D01*
X133162500Y-102087500D02*
X131300000Y-103950000D01*
X133162500Y-102087500D02*
X134000000Y-102087500D01*
X137500000Y-102087500D02*
X134000000Y-102087500D01*
X141000000Y-103912500D02*
X140750000Y-103662500D01*
X131300000Y-103950000D02*
X130275000Y-103950000D01*
X144500000Y-103912500D02*
X141000000Y-103912500D01*
%TO.N,/COMP_OUT*%
X144500000Y-102087500D02*
X148000000Y-102087500D01*
X130950000Y-102050000D02*
X132250000Y-100750000D01*
X130275000Y-102050000D02*
X130950000Y-102050000D01*
X147812500Y-102087500D02*
X148337500Y-102087500D01*
X140925000Y-102087500D02*
X141000000Y-102087500D01*
X139587500Y-100750000D02*
X140925000Y-102087500D01*
X144500000Y-102087500D02*
X141000000Y-102087500D01*
X132250000Y-100750000D02*
X139587500Y-100750000D01*
X130325000Y-102000000D02*
X130275000Y-102050000D01*
%TO.N,/TEMPERATURE*%
X121912500Y-103912500D02*
X121000000Y-103912500D01*
X126000000Y-105250000D02*
X123250000Y-105250000D01*
X127300000Y-103950000D02*
X126000000Y-105250000D01*
X121000000Y-103912500D02*
X117500000Y-103912500D01*
X123250000Y-105250000D02*
X121912500Y-103912500D01*
X128000000Y-103950000D02*
X127300000Y-103950000D01*
D19*
%TO.N,+12V*%
X160000000Y-108000000D02*
X163480000Y-104520000D01*
X238000000Y-104520000D02*
X241445000Y-104520000D01*
X214250000Y-107000000D02*
X218250000Y-107000000D01*
X78615000Y-107250000D02*
X83885000Y-107250000D01*
X63540000Y-100210000D02*
X62250000Y-101500000D01*
X190500000Y-105000000D02*
X195770000Y-105000000D01*
X62250000Y-104500000D02*
X65750000Y-108000000D01*
X65750000Y-108000000D02*
X160000000Y-108000000D01*
X218250000Y-107000000D02*
X220730000Y-104520000D01*
X163480000Y-104520000D02*
X184110000Y-104520000D01*
X183920000Y-104250000D02*
X211580000Y-104250000D01*
X244695000Y-105500000D02*
X246695000Y-105500000D01*
X241445000Y-104520000D02*
X247782500Y-104520000D01*
X64500000Y-100210000D02*
X63540000Y-100210000D01*
X246195000Y-107000000D02*
X247925000Y-105270000D01*
X190500000Y-105750000D02*
X195770000Y-105750000D01*
X62250000Y-101500000D02*
X62250000Y-104500000D01*
X242750000Y-104250000D02*
X246195000Y-104250000D01*
X211770000Y-104520000D02*
X214250000Y-107000000D01*
%TO.N,/DC_EN*%
X83212500Y-104980000D02*
X87230000Y-104980000D01*
X72055000Y-104980000D02*
X83212500Y-104980000D01*
D20*
X66980000Y-104980000D02*
X64985000Y-102985000D01*
D19*
X78991250Y-105250000D02*
X83008750Y-105250000D01*
D20*
X64985000Y-102985000D02*
X64985000Y-102750000D01*
D19*
X78991250Y-104500000D02*
X83008750Y-104500000D01*
X72055000Y-104980000D02*
X66980000Y-104980000D01*
%TD*%
%TA.AperFunction,Conductor*%
%TO.N,/DC_EN*%
G36*
X67034991Y-104011617D02*
G01*
X67061337Y-104023903D01*
X67289592Y-104085063D01*
X67477918Y-104101539D01*
X67524999Y-104105659D01*
X67525000Y-104105659D01*
X67525001Y-104105659D01*
X67564234Y-104102226D01*
X67760408Y-104085063D01*
X67988663Y-104023903D01*
X68015008Y-104011617D01*
X68067413Y-104000000D01*
X78770758Y-104000000D01*
X78837797Y-104019685D01*
X78883552Y-104072489D01*
X78894231Y-104128806D01*
X78894500Y-104128806D01*
X78894500Y-104130225D01*
X78894580Y-104130647D01*
X78894501Y-104132116D01*
X78894500Y-104132127D01*
X78894500Y-104965617D01*
X78894501Y-105626000D01*
X78874816Y-105693039D01*
X78822013Y-105738794D01*
X78770501Y-105750000D01*
X66801362Y-105750000D01*
X66734323Y-105730315D01*
X66713681Y-105713681D01*
X66286319Y-105286319D01*
X66252834Y-105224996D01*
X66250000Y-105198638D01*
X66250000Y-104124000D01*
X66269685Y-104056961D01*
X66322489Y-104011206D01*
X66374000Y-104000000D01*
X66982587Y-104000000D01*
X67034991Y-104011617D01*
G37*
%TD.AperFunction*%
%TA.AperFunction,Conductor*%
G36*
X92267677Y-104019685D02*
G01*
X92313432Y-104072489D01*
X92323376Y-104141647D01*
X92294351Y-104205203D01*
X92288319Y-104211681D01*
X90786319Y-105713681D01*
X90724996Y-105747166D01*
X90698638Y-105750000D01*
X83119500Y-105750000D01*
X83052461Y-105730315D01*
X83006706Y-105677511D01*
X82995500Y-105626000D01*
X82995499Y-104132116D01*
X82995419Y-104130620D01*
X82995499Y-104130281D01*
X82995499Y-104128807D01*
X82995848Y-104128807D01*
X83011496Y-104062625D01*
X83061782Y-104014117D01*
X83119242Y-104000000D01*
X92200638Y-104000000D01*
X92267677Y-104019685D01*
G37*
%TD.AperFunction*%
%TD*%
%TA.AperFunction,Conductor*%
%TO.N,/FAN_NEG*%
G36*
X246515677Y-99019685D02*
G01*
X246536319Y-99036319D01*
X247967819Y-100467819D01*
X248001304Y-100529142D01*
X247996320Y-100598834D01*
X247954448Y-100654767D01*
X247888984Y-100679184D01*
X247880138Y-100679500D01*
X245292129Y-100679500D01*
X245292123Y-100679501D01*
X245232516Y-100685908D01*
X245097671Y-100736202D01*
X245097664Y-100736206D01*
X244982455Y-100822452D01*
X244982452Y-100822455D01*
X244896206Y-100937664D01*
X244896202Y-100937671D01*
X244845908Y-101072517D01*
X244839501Y-101132116D01*
X244839500Y-101132127D01*
X244839500Y-101882186D01*
X244839501Y-102626000D01*
X244819816Y-102693039D01*
X244767013Y-102738794D01*
X244715501Y-102750000D01*
X220051362Y-102750000D01*
X219984323Y-102730315D01*
X219963681Y-102713681D01*
X217250000Y-100000000D01*
X214500000Y-100000000D01*
X214499999Y-100000000D01*
X211786319Y-102713681D01*
X211724996Y-102747166D01*
X211698638Y-102750000D01*
X195174500Y-102750000D01*
X195107461Y-102730315D01*
X195061706Y-102677511D01*
X195050500Y-102626000D01*
X195050499Y-101132129D01*
X195050498Y-101132123D01*
X195050497Y-101132116D01*
X195044091Y-101072517D01*
X194993796Y-100937669D01*
X194993795Y-100937668D01*
X194993793Y-100937664D01*
X194907547Y-100822455D01*
X194907544Y-100822452D01*
X194792335Y-100736206D01*
X194792328Y-100736202D01*
X194657482Y-100685908D01*
X194657483Y-100685908D01*
X194597883Y-100679501D01*
X194597881Y-100679500D01*
X194597873Y-100679500D01*
X194597864Y-100679500D01*
X191402129Y-100679500D01*
X191402123Y-100679501D01*
X191342516Y-100685908D01*
X191207671Y-100736202D01*
X191207664Y-100736206D01*
X191092455Y-100822452D01*
X191092452Y-100822455D01*
X191006206Y-100937664D01*
X191006202Y-100937671D01*
X190955908Y-101072517D01*
X190949501Y-101132116D01*
X190949500Y-101132127D01*
X190949500Y-101882186D01*
X190949501Y-102626000D01*
X190929816Y-102693039D01*
X190877013Y-102738794D01*
X190825501Y-102750000D01*
X163249999Y-102750000D01*
X161786319Y-104213681D01*
X161724996Y-104247166D01*
X161698638Y-104250000D01*
X160551362Y-104250000D01*
X160484323Y-104230315D01*
X160463681Y-104213681D01*
X159536319Y-103286319D01*
X159502834Y-103224996D01*
X159500000Y-103198638D01*
X159500000Y-102801362D01*
X159519685Y-102734323D01*
X159536319Y-102713681D01*
X163213681Y-99036319D01*
X163275004Y-99002834D01*
X163301362Y-99000000D01*
X246448638Y-99000000D01*
X246515677Y-99019685D01*
G37*
%TD.AperFunction*%
%TD*%
%TA.AperFunction,Conductor*%
%TO.N,+12V*%
G36*
X190892539Y-103769685D02*
G01*
X190938294Y-103822489D01*
X190949500Y-103874000D01*
X190949500Y-105367870D01*
X190949501Y-105367876D01*
X190955908Y-105427483D01*
X191006202Y-105562328D01*
X191006206Y-105562335D01*
X191092452Y-105677544D01*
X191092455Y-105677547D01*
X191207664Y-105763793D01*
X191207671Y-105763797D01*
X191342517Y-105814091D01*
X191342516Y-105814091D01*
X191349444Y-105814835D01*
X191402127Y-105820500D01*
X194597872Y-105820499D01*
X194657483Y-105814091D01*
X194792331Y-105763796D01*
X194907546Y-105677546D01*
X194993796Y-105562331D01*
X195044091Y-105427483D01*
X195050500Y-105367873D01*
X195050499Y-103873999D01*
X195070184Y-103806961D01*
X195122987Y-103761206D01*
X195174499Y-103750000D01*
X211698638Y-103750000D01*
X211765677Y-103769685D01*
X211786319Y-103786319D01*
X214500000Y-106500000D01*
X217250000Y-106500000D01*
X219963681Y-103786319D01*
X220025004Y-103752834D01*
X220051362Y-103750000D01*
X244715500Y-103750000D01*
X244782539Y-103769685D01*
X244828294Y-103822489D01*
X244839500Y-103874000D01*
X244839500Y-105367870D01*
X244839501Y-105367876D01*
X244845908Y-105427483D01*
X244896202Y-105562328D01*
X244896206Y-105562335D01*
X244982452Y-105677544D01*
X244982455Y-105677547D01*
X245097664Y-105763793D01*
X245097671Y-105763797D01*
X245232517Y-105814091D01*
X245232516Y-105814091D01*
X245239444Y-105814835D01*
X245292127Y-105820500D01*
X247880137Y-105820499D01*
X247947176Y-105840184D01*
X247992931Y-105892987D01*
X248002875Y-105962146D01*
X247973850Y-106025702D01*
X247967818Y-106032180D01*
X245286319Y-108713681D01*
X245224996Y-108747166D01*
X245198638Y-108750000D01*
X133000000Y-108750000D01*
X133500000Y-108250000D01*
X133500000Y-107250000D01*
X133499999Y-107249999D01*
X133547111Y-107202888D01*
X133583335Y-107179816D01*
X133582663Y-107178478D01*
X133589113Y-107175238D01*
X133589117Y-107175237D01*
X133651837Y-107133984D01*
X133654732Y-107132140D01*
X133718656Y-107092712D01*
X133718662Y-107092705D01*
X133724325Y-107088229D01*
X133724362Y-107088277D01*
X133730204Y-107083518D01*
X133730164Y-107083471D01*
X133735686Y-107078835D01*
X133735696Y-107078830D01*
X133787187Y-107024251D01*
X133789632Y-107021734D01*
X134274548Y-106536819D01*
X134335871Y-106503334D01*
X134362229Y-106500500D01*
X149598795Y-106500500D01*
X149616765Y-106501809D01*
X149640523Y-106505289D01*
X149689869Y-106500971D01*
X149700676Y-106500500D01*
X149706204Y-106500500D01*
X149706209Y-106500500D01*
X149706213Y-106500499D01*
X149709807Y-106500290D01*
X149709816Y-106500460D01*
X149717707Y-106500000D01*
X150000000Y-106500000D01*
X150963681Y-105536319D01*
X151025004Y-105502834D01*
X151051362Y-105500000D01*
X161750000Y-105500000D01*
X163463681Y-103786319D01*
X163525004Y-103752834D01*
X163551362Y-103750000D01*
X190825500Y-103750000D01*
X190892539Y-103769685D01*
G37*
%TD.AperFunction*%
%TD*%
%TA.AperFunction,Conductor*%
%TO.N,GND*%
G36*
X158015677Y-98769685D02*
G01*
X158036319Y-98786319D01*
X159713681Y-100463681D01*
X159747166Y-100525004D01*
X159750000Y-100551362D01*
X159750000Y-101698638D01*
X159730315Y-101765677D01*
X159713681Y-101786319D01*
X158536319Y-102963681D01*
X158474996Y-102997166D01*
X158448638Y-103000000D01*
X155673443Y-103000000D01*
X155608347Y-102981539D01*
X155581840Y-102965189D01*
X155581835Y-102965187D01*
X155581834Y-102965186D01*
X155415297Y-102910001D01*
X155415295Y-102910000D01*
X155312510Y-102899500D01*
X154312499Y-102899500D01*
X154312473Y-102899502D01*
X154278901Y-102902931D01*
X154210209Y-102890160D01*
X154178622Y-102867254D01*
X152913229Y-101601861D01*
X152901449Y-101588230D01*
X152887110Y-101568970D01*
X152849151Y-101537119D01*
X152841186Y-101529818D01*
X152837280Y-101525911D01*
X152812943Y-101506668D01*
X152810147Y-101504390D01*
X152752714Y-101456198D01*
X152746680Y-101452229D01*
X152746712Y-101452180D01*
X152740353Y-101448128D01*
X152740322Y-101448179D01*
X152734176Y-101444388D01*
X152679435Y-101418861D01*
X152644161Y-101394161D01*
X152500000Y-101250000D01*
X152482538Y-101250000D01*
X152417442Y-101231539D01*
X152269340Y-101140189D01*
X152269335Y-101140187D01*
X152269334Y-101140186D01*
X152102797Y-101085001D01*
X152102795Y-101085000D01*
X152000010Y-101074500D01*
X150999998Y-101074500D01*
X150999980Y-101074501D01*
X150897203Y-101085000D01*
X150897200Y-101085001D01*
X150730668Y-101140185D01*
X150730659Y-101140189D01*
X150582558Y-101231539D01*
X150517462Y-101250000D01*
X148982538Y-101250000D01*
X148917442Y-101231539D01*
X148769340Y-101140189D01*
X148769335Y-101140187D01*
X148769334Y-101140186D01*
X148602797Y-101085001D01*
X148602795Y-101085000D01*
X148500010Y-101074500D01*
X147499998Y-101074500D01*
X147499980Y-101074501D01*
X147397203Y-101085000D01*
X147397200Y-101085001D01*
X147230668Y-101140185D01*
X147230659Y-101140189D01*
X147082558Y-101231539D01*
X147017462Y-101250000D01*
X145482538Y-101250000D01*
X145417442Y-101231539D01*
X145269340Y-101140189D01*
X145269335Y-101140187D01*
X145269334Y-101140186D01*
X145102797Y-101085001D01*
X145102795Y-101085000D01*
X145000010Y-101074500D01*
X143999998Y-101074500D01*
X143999980Y-101074501D01*
X143897203Y-101085000D01*
X143897200Y-101085001D01*
X143730668Y-101140185D01*
X143730659Y-101140189D01*
X143582558Y-101231539D01*
X143517462Y-101250000D01*
X141982538Y-101250000D01*
X141917442Y-101231539D01*
X141769340Y-101140189D01*
X141769335Y-101140187D01*
X141769334Y-101140186D01*
X141602797Y-101085001D01*
X141602795Y-101085000D01*
X141500016Y-101074500D01*
X141500009Y-101074500D01*
X141024729Y-101074500D01*
X140957690Y-101054815D01*
X140937048Y-101038181D01*
X140163229Y-100264361D01*
X140151449Y-100250730D01*
X140137110Y-100231470D01*
X140099151Y-100199619D01*
X140091186Y-100192318D01*
X140087280Y-100188411D01*
X140062943Y-100169168D01*
X140060147Y-100166890D01*
X140002714Y-100118698D01*
X139996680Y-100114729D01*
X139996712Y-100114680D01*
X139990353Y-100110628D01*
X139990322Y-100110679D01*
X139984180Y-100106891D01*
X139984178Y-100106890D01*
X139984177Y-100106889D01*
X139916188Y-100075184D01*
X139912947Y-100073615D01*
X139849206Y-100041604D01*
X139845933Y-100039960D01*
X139845931Y-100039959D01*
X139845930Y-100039959D01*
X139839145Y-100037489D01*
X139839165Y-100037433D01*
X139832049Y-100034959D01*
X139832031Y-100035015D01*
X139825174Y-100032743D01*
X139751710Y-100017573D01*
X139748193Y-100016793D01*
X139675218Y-99999499D01*
X139668047Y-99998661D01*
X139668053Y-99998601D01*
X139660555Y-99997835D01*
X139660550Y-99997895D01*
X139653360Y-99997265D01*
X139578370Y-99999448D01*
X139574763Y-99999500D01*
X132313705Y-99999500D01*
X132295735Y-99998191D01*
X132271972Y-99994710D01*
X132226826Y-99998661D01*
X132222630Y-99999028D01*
X132211824Y-99999500D01*
X132206284Y-99999500D01*
X132175501Y-100003098D01*
X132171916Y-100003464D01*
X132097199Y-100010001D01*
X132090132Y-100011460D01*
X132090120Y-100011404D01*
X132082763Y-100013035D01*
X132082777Y-100013092D01*
X132075740Y-100014760D01*
X132005231Y-100040421D01*
X132001854Y-100041595D01*
X131962848Y-100054521D01*
X131930668Y-100065185D01*
X131924126Y-100068236D01*
X131924101Y-100068183D01*
X131917308Y-100071471D01*
X131917334Y-100071523D01*
X131910880Y-100074764D01*
X131848221Y-100115975D01*
X131845181Y-100117912D01*
X131781348Y-100157285D01*
X131775683Y-100161765D01*
X131775647Y-100161719D01*
X131769798Y-100166484D01*
X131769835Y-100166528D01*
X131764310Y-100171164D01*
X131764304Y-100171169D01*
X131764304Y-100171170D01*
X131740733Y-100196153D01*
X131712832Y-100225726D01*
X131710320Y-100228311D01*
X130725451Y-101213181D01*
X130664128Y-101246666D01*
X130637770Y-101249500D01*
X130388705Y-101249500D01*
X130370735Y-101248191D01*
X130346972Y-101244710D01*
X130299843Y-101248834D01*
X130297630Y-101249028D01*
X130286824Y-101249500D01*
X129696800Y-101249500D01*
X129695307Y-101249618D01*
X129685578Y-101250000D01*
X128589422Y-101250000D01*
X128579693Y-101249618D01*
X128578199Y-101249500D01*
X128578194Y-101249500D01*
X127421806Y-101249500D01*
X127421800Y-101249500D01*
X127420307Y-101249618D01*
X127410578Y-101250000D01*
X126499998Y-101250000D01*
X126402885Y-101347112D01*
X126366665Y-101370192D01*
X126367334Y-101371523D01*
X126360880Y-101374764D01*
X126298221Y-101415975D01*
X126295181Y-101417912D01*
X126231348Y-101457285D01*
X126225683Y-101461765D01*
X126225647Y-101461719D01*
X126219798Y-101466484D01*
X126219835Y-101466528D01*
X126214310Y-101471164D01*
X126214304Y-101471169D01*
X126214304Y-101471170D01*
X126182962Y-101504390D01*
X126162832Y-101525726D01*
X126160320Y-101528311D01*
X124974950Y-102713681D01*
X124913627Y-102747166D01*
X124887269Y-102750000D01*
X123612729Y-102750000D01*
X123545690Y-102730315D01*
X123525048Y-102713681D01*
X123177408Y-102366041D01*
X122575729Y-101764361D01*
X122563949Y-101750730D01*
X122549610Y-101731470D01*
X122547586Y-101729772D01*
X122511665Y-101699630D01*
X122503690Y-101692322D01*
X122413229Y-101601861D01*
X122401449Y-101588230D01*
X122387110Y-101568970D01*
X122349151Y-101537119D01*
X122341186Y-101529818D01*
X122337280Y-101525911D01*
X122312943Y-101506668D01*
X122310147Y-101504390D01*
X122252714Y-101456198D01*
X122246680Y-101452229D01*
X122246712Y-101452180D01*
X122240353Y-101448128D01*
X122240322Y-101448179D01*
X122234180Y-101444391D01*
X122234178Y-101444390D01*
X122234177Y-101444389D01*
X122166188Y-101412684D01*
X122162947Y-101411115D01*
X122129188Y-101394161D01*
X122095933Y-101377460D01*
X122095931Y-101377459D01*
X122095930Y-101377459D01*
X122089145Y-101374989D01*
X122089165Y-101374933D01*
X122082043Y-101372457D01*
X122082025Y-101372514D01*
X122075305Y-101370287D01*
X122074664Y-101369891D01*
X122073704Y-101369558D01*
X122068626Y-101367190D01*
X122068996Y-101366395D01*
X122026631Y-101340263D01*
X121918657Y-101232289D01*
X121918656Y-101232288D01*
X121769334Y-101140186D01*
X121602797Y-101085001D01*
X121602795Y-101085000D01*
X121500010Y-101074500D01*
X120499998Y-101074500D01*
X120499980Y-101074501D01*
X120397203Y-101085000D01*
X120397200Y-101085001D01*
X120230668Y-101140185D01*
X120230663Y-101140187D01*
X120081342Y-101232289D01*
X120012951Y-101300681D01*
X119951628Y-101334166D01*
X119925270Y-101337000D01*
X119476205Y-101337000D01*
X119458235Y-101335691D01*
X119434472Y-101332210D01*
X119387343Y-101336334D01*
X119385130Y-101336528D01*
X119374324Y-101337000D01*
X119368784Y-101337000D01*
X119338001Y-101340598D01*
X119334416Y-101340964D01*
X119259699Y-101347501D01*
X119252632Y-101348960D01*
X119252620Y-101348904D01*
X119245263Y-101350535D01*
X119245277Y-101350592D01*
X119238240Y-101352260D01*
X119167731Y-101377921D01*
X119164354Y-101379095D01*
X119129469Y-101390656D01*
X119093168Y-101402685D01*
X119086626Y-101405736D01*
X119086601Y-101405683D01*
X119079808Y-101408971D01*
X119079834Y-101409023D01*
X119073380Y-101412264D01*
X119010721Y-101453475D01*
X119007681Y-101455412D01*
X118943848Y-101494785D01*
X118938183Y-101499265D01*
X118938147Y-101499219D01*
X118932298Y-101503984D01*
X118932335Y-101504028D01*
X118926810Y-101508664D01*
X118926804Y-101508669D01*
X118926804Y-101508670D01*
X118903233Y-101533653D01*
X118875332Y-101563226D01*
X118872820Y-101565811D01*
X118100451Y-102338181D01*
X118039128Y-102371666D01*
X118012770Y-102374500D01*
X116954246Y-102374500D01*
X116887207Y-102354815D01*
X116883135Y-102352083D01*
X116858612Y-102334912D01*
X116858609Y-102334910D01*
X116858604Y-102334908D01*
X116695570Y-102270138D01*
X116521977Y-102244711D01*
X116521972Y-102244710D01*
X116347203Y-102260001D01*
X116347201Y-102260002D01*
X116180670Y-102315183D01*
X116031342Y-102407289D01*
X115974951Y-102463681D01*
X115913628Y-102497166D01*
X115887270Y-102500000D01*
X115801362Y-102500000D01*
X115734323Y-102480315D01*
X115713681Y-102463681D01*
X113250000Y-100000000D01*
X110500000Y-100000000D01*
X110499999Y-100000000D01*
X108536319Y-101963681D01*
X108474996Y-101997166D01*
X108448638Y-102000000D01*
X101936722Y-102000000D01*
X101928137Y-101999500D01*
X101926845Y-101999500D01*
X101925131Y-101999324D01*
X101922334Y-101999162D01*
X101918054Y-101998662D01*
X101918060Y-101998602D01*
X101910555Y-101997835D01*
X101910550Y-101997895D01*
X101903360Y-101997265D01*
X101828370Y-101999448D01*
X101824763Y-101999500D01*
X68712701Y-101999500D01*
X68645662Y-101979815D01*
X68611126Y-101946623D01*
X68563494Y-101878597D01*
X68396402Y-101711506D01*
X68396395Y-101711501D01*
X68202834Y-101575967D01*
X68202830Y-101575965D01*
X68175511Y-101563226D01*
X67988663Y-101476097D01*
X67988659Y-101476096D01*
X67988655Y-101476094D01*
X67760413Y-101414938D01*
X67760403Y-101414936D01*
X67525001Y-101394341D01*
X67524999Y-101394341D01*
X67289591Y-101414937D01*
X67260426Y-101422751D01*
X67190576Y-101421086D01*
X67140656Y-101390656D01*
X66786319Y-101036319D01*
X66752834Y-100974996D01*
X66750000Y-100948638D01*
X66750000Y-99301362D01*
X66769685Y-99234323D01*
X66786319Y-99213681D01*
X67213681Y-98786319D01*
X67275004Y-98752834D01*
X67301362Y-98750000D01*
X157948638Y-98750000D01*
X158015677Y-98769685D01*
G37*
%TD.AperFunction*%
%TD*%
%TA.AperFunction,Conductor*%
%TO.N,+12V*%
G36*
X65515677Y-98769685D02*
G01*
X65536319Y-98786319D01*
X65963681Y-99213681D01*
X65997166Y-99275004D01*
X66000000Y-99301362D01*
X66000000Y-100698637D01*
X65980315Y-100765676D01*
X65963681Y-100786318D01*
X65361455Y-101388543D01*
X65300132Y-101422028D01*
X65241681Y-101420637D01*
X65220413Y-101414938D01*
X65220403Y-101414936D01*
X64985001Y-101394341D01*
X64984999Y-101394341D01*
X64749596Y-101414936D01*
X64749586Y-101414938D01*
X64521344Y-101476094D01*
X64521335Y-101476098D01*
X64307171Y-101575964D01*
X64307169Y-101575965D01*
X64113597Y-101711505D01*
X63946505Y-101878597D01*
X63810965Y-102072169D01*
X63810964Y-102072171D01*
X63711098Y-102286335D01*
X63711094Y-102286344D01*
X63649938Y-102514586D01*
X63649936Y-102514596D01*
X63629341Y-102749999D01*
X63629341Y-102750000D01*
X63649936Y-102985403D01*
X63649938Y-102985413D01*
X63711094Y-103213655D01*
X63711096Y-103213659D01*
X63711097Y-103213663D01*
X63767578Y-103334786D01*
X63810965Y-103427830D01*
X63810967Y-103427834D01*
X63946501Y-103621395D01*
X63946506Y-103621402D01*
X63963681Y-103638577D01*
X63997166Y-103699900D01*
X64000000Y-103726258D01*
X64000000Y-104250000D01*
X66500000Y-106750000D01*
X78770500Y-106750000D01*
X78837539Y-106769685D01*
X78883294Y-106822489D01*
X78894500Y-106874000D01*
X78894500Y-108367870D01*
X78894501Y-108367876D01*
X78900908Y-108427483D01*
X78951203Y-108562330D01*
X78953519Y-108566571D01*
X78968372Y-108634844D01*
X78943957Y-108700308D01*
X78888024Y-108742181D01*
X78844688Y-108750000D01*
X61801362Y-108750000D01*
X61734323Y-108730315D01*
X61713681Y-108713681D01*
X59786319Y-106786319D01*
X59752834Y-106724996D01*
X59750000Y-106698638D01*
X59750000Y-100801362D01*
X59769685Y-100734323D01*
X59786319Y-100713681D01*
X61713681Y-98786319D01*
X61775004Y-98752834D01*
X61801362Y-98750000D01*
X65448638Y-98750000D01*
X65515677Y-98769685D01*
G37*
%TD.AperFunction*%
%TA.AperFunction,Conductor*%
G36*
X100765677Y-104019685D02*
G01*
X100786319Y-104036319D01*
X103250000Y-106500000D01*
X107948638Y-106500000D01*
X108015677Y-106519685D01*
X108036319Y-106536319D01*
X109000000Y-107500000D01*
X109650778Y-107500000D01*
X109659363Y-107500500D01*
X109660661Y-107500500D01*
X109662382Y-107500675D01*
X109665166Y-107500838D01*
X109669446Y-107501338D01*
X109669439Y-107501396D01*
X109676946Y-107502163D01*
X109676952Y-107502104D01*
X109684141Y-107502733D01*
X109684143Y-107502732D01*
X109684144Y-107502733D01*
X109759111Y-107500552D01*
X109762717Y-107500500D01*
X114186295Y-107500500D01*
X114204265Y-107501809D01*
X114228023Y-107505289D01*
X114277369Y-107500971D01*
X114288176Y-107500500D01*
X114293704Y-107500500D01*
X114293709Y-107500500D01*
X114293713Y-107500499D01*
X114297307Y-107500290D01*
X114297316Y-107500460D01*
X114305207Y-107500000D01*
X114499999Y-107500000D01*
X114500000Y-107500000D01*
X114547113Y-107452886D01*
X114583335Y-107429816D01*
X114582663Y-107428478D01*
X114589113Y-107425238D01*
X114589117Y-107425237D01*
X114651837Y-107383984D01*
X114654732Y-107382140D01*
X114718656Y-107342712D01*
X114718662Y-107342705D01*
X114724325Y-107338229D01*
X114724363Y-107338277D01*
X114730200Y-107333522D01*
X114730161Y-107333475D01*
X114735691Y-107328833D01*
X114735696Y-107328830D01*
X114787184Y-107274254D01*
X114789631Y-107271735D01*
X115774548Y-106286819D01*
X115835871Y-106253334D01*
X115862229Y-106250500D01*
X121137770Y-106250500D01*
X121204809Y-106270185D01*
X121225451Y-106286819D01*
X121924269Y-106985637D01*
X121936049Y-106999268D01*
X121950389Y-107018530D01*
X121950392Y-107018532D01*
X121988336Y-107050371D01*
X121996312Y-107057680D01*
X122000218Y-107061586D01*
X122024543Y-107080820D01*
X122027304Y-107083069D01*
X122064302Y-107114114D01*
X122084789Y-107131305D01*
X122090818Y-107135270D01*
X122090785Y-107135319D01*
X122097143Y-107139369D01*
X122097175Y-107139319D01*
X122103317Y-107143107D01*
X122103319Y-107143108D01*
X122103323Y-107143111D01*
X122171315Y-107174816D01*
X122174560Y-107176388D01*
X122191338Y-107184814D01*
X122241567Y-107210040D01*
X122241569Y-107210040D01*
X122248361Y-107212513D01*
X122248340Y-107212570D01*
X122255455Y-107215043D01*
X122255475Y-107214986D01*
X122262323Y-107217254D01*
X122262328Y-107217257D01*
X122335852Y-107232437D01*
X122339286Y-107233199D01*
X122384563Y-107243931D01*
X122412274Y-107250499D01*
X122412275Y-107250499D01*
X122412279Y-107250500D01*
X122412283Y-107250500D01*
X122419452Y-107251338D01*
X122419444Y-107251397D01*
X122426945Y-107252164D01*
X122426951Y-107252105D01*
X122434140Y-107252734D01*
X122434144Y-107252733D01*
X122434145Y-107252734D01*
X122509131Y-107250552D01*
X122512738Y-107250500D01*
X133186295Y-107250500D01*
X133204265Y-107251809D01*
X133228023Y-107255289D01*
X133277369Y-107250971D01*
X133288176Y-107250500D01*
X133293704Y-107250500D01*
X133293709Y-107250500D01*
X133324556Y-107246893D01*
X133328030Y-107246539D01*
X133402797Y-107239999D01*
X133402805Y-107239996D01*
X133409590Y-107238596D01*
X133479226Y-107244314D01*
X133487972Y-107250000D01*
X133500000Y-107250000D01*
X133500000Y-108250000D01*
X133000000Y-108750000D01*
X83045312Y-108750000D01*
X82978273Y-108730315D01*
X82932518Y-108677511D01*
X82922574Y-108608353D01*
X82936481Y-108566571D01*
X82938793Y-108562333D01*
X82938796Y-108562331D01*
X82989091Y-108427483D01*
X82995500Y-108367873D01*
X82995499Y-106873999D01*
X83015184Y-106806961D01*
X83067987Y-106761206D01*
X83119499Y-106750000D01*
X90500000Y-106750000D01*
X93213681Y-104036319D01*
X93275004Y-104002834D01*
X93301362Y-104000000D01*
X100698638Y-104000000D01*
X100765677Y-104019685D01*
G37*
%TD.AperFunction*%
%TD*%
M02*
