%TF.GenerationSoftware,KiCad,Pcbnew,7.0.10*%
%TF.CreationDate,2024-01-31T18:16:45-05:00*%
%TF.ProjectId,FoMoCoFastCharger,466f4d6f-436f-4466-9173-744368617267,rev?*%
%TF.SameCoordinates,Original*%
%TF.FileFunction,Legend,Top*%
%TF.FilePolarity,Positive*%
%FSLAX46Y46*%
G04 Gerber Fmt 4.6, Leading zero omitted, Abs format (unit mm)*
G04 Created by KiCad (PCBNEW 7.0.10) date 2024-01-31 18:16:45*
%MOMM*%
%LPD*%
G01*
G04 APERTURE LIST*
%ADD10C,0.250000*%
%ADD11C,0.150000*%
%ADD12C,0.120000*%
G04 APERTURE END LIST*
D10*
X60435527Y-101016714D02*
X59749813Y-101016714D01*
X60092670Y-101016714D02*
X60092670Y-99216714D01*
X60092670Y-99216714D02*
X59978384Y-99473857D01*
X59978384Y-99473857D02*
X59864099Y-99645285D01*
X59864099Y-99645285D02*
X59749813Y-99731000D01*
X60892670Y-99388142D02*
X60949813Y-99302428D01*
X60949813Y-99302428D02*
X61064099Y-99216714D01*
X61064099Y-99216714D02*
X61349813Y-99216714D01*
X61349813Y-99216714D02*
X61464099Y-99302428D01*
X61464099Y-99302428D02*
X61521241Y-99388142D01*
X61521241Y-99388142D02*
X61578384Y-99559571D01*
X61578384Y-99559571D02*
X61578384Y-99731000D01*
X61578384Y-99731000D02*
X61521241Y-99988142D01*
X61521241Y-99988142D02*
X60835527Y-101016714D01*
X60835527Y-101016714D02*
X61578384Y-101016714D01*
X61921241Y-99216714D02*
X62321241Y-101016714D01*
X62321241Y-101016714D02*
X62721241Y-99216714D01*
X70328758Y-99154428D02*
X70214473Y-99068714D01*
X70214473Y-99068714D02*
X70043044Y-99068714D01*
X70043044Y-99068714D02*
X69871615Y-99154428D01*
X69871615Y-99154428D02*
X69757330Y-99325857D01*
X69757330Y-99325857D02*
X69700187Y-99497285D01*
X69700187Y-99497285D02*
X69643044Y-99840142D01*
X69643044Y-99840142D02*
X69643044Y-100097285D01*
X69643044Y-100097285D02*
X69700187Y-100440142D01*
X69700187Y-100440142D02*
X69757330Y-100611571D01*
X69757330Y-100611571D02*
X69871615Y-100783000D01*
X69871615Y-100783000D02*
X70043044Y-100868714D01*
X70043044Y-100868714D02*
X70157330Y-100868714D01*
X70157330Y-100868714D02*
X70328758Y-100783000D01*
X70328758Y-100783000D02*
X70385901Y-100697285D01*
X70385901Y-100697285D02*
X70385901Y-100097285D01*
X70385901Y-100097285D02*
X70157330Y-100097285D01*
X70900187Y-100868714D02*
X70900187Y-99068714D01*
X70900187Y-99068714D02*
X71585901Y-100868714D01*
X71585901Y-100868714D02*
X71585901Y-99068714D01*
X72157330Y-100868714D02*
X72157330Y-99068714D01*
X72157330Y-99068714D02*
X72443044Y-99068714D01*
X72443044Y-99068714D02*
X72614473Y-99154428D01*
X72614473Y-99154428D02*
X72728758Y-99325857D01*
X72728758Y-99325857D02*
X72785901Y-99497285D01*
X72785901Y-99497285D02*
X72843044Y-99840142D01*
X72843044Y-99840142D02*
X72843044Y-100097285D01*
X72843044Y-100097285D02*
X72785901Y-100440142D01*
X72785901Y-100440142D02*
X72728758Y-100611571D01*
X72728758Y-100611571D02*
X72614473Y-100783000D01*
X72614473Y-100783000D02*
X72443044Y-100868714D01*
X72443044Y-100868714D02*
X72157330Y-100868714D01*
X69700187Y-103766714D02*
X69700187Y-101966714D01*
X69700187Y-101966714D02*
X69985901Y-101966714D01*
X69985901Y-101966714D02*
X70157330Y-102052428D01*
X70157330Y-102052428D02*
X70271615Y-102223857D01*
X70271615Y-102223857D02*
X70328758Y-102395285D01*
X70328758Y-102395285D02*
X70385901Y-102738142D01*
X70385901Y-102738142D02*
X70385901Y-102995285D01*
X70385901Y-102995285D02*
X70328758Y-103338142D01*
X70328758Y-103338142D02*
X70271615Y-103509571D01*
X70271615Y-103509571D02*
X70157330Y-103681000D01*
X70157330Y-103681000D02*
X69985901Y-103766714D01*
X69985901Y-103766714D02*
X69700187Y-103766714D01*
X71585901Y-103595285D02*
X71528758Y-103681000D01*
X71528758Y-103681000D02*
X71357330Y-103766714D01*
X71357330Y-103766714D02*
X71243044Y-103766714D01*
X71243044Y-103766714D02*
X71071615Y-103681000D01*
X71071615Y-103681000D02*
X70957330Y-103509571D01*
X70957330Y-103509571D02*
X70900187Y-103338142D01*
X70900187Y-103338142D02*
X70843044Y-102995285D01*
X70843044Y-102995285D02*
X70843044Y-102738142D01*
X70843044Y-102738142D02*
X70900187Y-102395285D01*
X70900187Y-102395285D02*
X70957330Y-102223857D01*
X70957330Y-102223857D02*
X71071615Y-102052428D01*
X71071615Y-102052428D02*
X71243044Y-101966714D01*
X71243044Y-101966714D02*
X71357330Y-101966714D01*
X71357330Y-101966714D02*
X71528758Y-102052428D01*
X71528758Y-102052428D02*
X71585901Y-102138142D01*
X71814473Y-103938142D02*
X72728758Y-103938142D01*
X73243044Y-101966714D02*
X73471616Y-101966714D01*
X73471616Y-101966714D02*
X73585901Y-102052428D01*
X73585901Y-102052428D02*
X73700187Y-102223857D01*
X73700187Y-102223857D02*
X73757330Y-102566714D01*
X73757330Y-102566714D02*
X73757330Y-103166714D01*
X73757330Y-103166714D02*
X73700187Y-103509571D01*
X73700187Y-103509571D02*
X73585901Y-103681000D01*
X73585901Y-103681000D02*
X73471616Y-103766714D01*
X73471616Y-103766714D02*
X73243044Y-103766714D01*
X73243044Y-103766714D02*
X73128759Y-103681000D01*
X73128759Y-103681000D02*
X73014473Y-103509571D01*
X73014473Y-103509571D02*
X72957330Y-103166714D01*
X72957330Y-103166714D02*
X72957330Y-102566714D01*
X72957330Y-102566714D02*
X73014473Y-102223857D01*
X73014473Y-102223857D02*
X73128759Y-102052428D01*
X73128759Y-102052428D02*
X73243044Y-101966714D01*
X74271616Y-103766714D02*
X74271616Y-101966714D01*
X74957330Y-103766714D02*
X74443044Y-102738142D01*
X74957330Y-101966714D02*
X74271616Y-102995285D01*
X61052428Y-107928759D02*
X60966714Y-108043045D01*
X60966714Y-108043045D02*
X60966714Y-108214473D01*
X60966714Y-108214473D02*
X61052428Y-108385902D01*
X61052428Y-108385902D02*
X61223857Y-108500187D01*
X61223857Y-108500187D02*
X61395285Y-108557330D01*
X61395285Y-108557330D02*
X61738142Y-108614473D01*
X61738142Y-108614473D02*
X61995285Y-108614473D01*
X61995285Y-108614473D02*
X62338142Y-108557330D01*
X62338142Y-108557330D02*
X62509571Y-108500187D01*
X62509571Y-108500187D02*
X62681000Y-108385902D01*
X62681000Y-108385902D02*
X62766714Y-108214473D01*
X62766714Y-108214473D02*
X62766714Y-108100187D01*
X62766714Y-108100187D02*
X62681000Y-107928759D01*
X62681000Y-107928759D02*
X62595285Y-107871616D01*
X62595285Y-107871616D02*
X61995285Y-107871616D01*
X61995285Y-107871616D02*
X61995285Y-108100187D01*
X62766714Y-106671616D02*
X61909571Y-107071616D01*
X62766714Y-107357330D02*
X60966714Y-107357330D01*
X60966714Y-107357330D02*
X60966714Y-106900187D01*
X60966714Y-106900187D02*
X61052428Y-106785902D01*
X61052428Y-106785902D02*
X61138142Y-106728759D01*
X61138142Y-106728759D02*
X61309571Y-106671616D01*
X61309571Y-106671616D02*
X61566714Y-106671616D01*
X61566714Y-106671616D02*
X61738142Y-106728759D01*
X61738142Y-106728759D02*
X61823857Y-106785902D01*
X61823857Y-106785902D02*
X61909571Y-106900187D01*
X61909571Y-106900187D02*
X61909571Y-107357330D01*
X62766714Y-106157330D02*
X60966714Y-106157330D01*
X62766714Y-105585901D02*
X60966714Y-105585901D01*
X60966714Y-105585901D02*
X60966714Y-105300187D01*
X60966714Y-105300187D02*
X61052428Y-105128758D01*
X61052428Y-105128758D02*
X61223857Y-105014473D01*
X61223857Y-105014473D02*
X61395285Y-104957330D01*
X61395285Y-104957330D02*
X61738142Y-104900187D01*
X61738142Y-104900187D02*
X61995285Y-104900187D01*
X61995285Y-104900187D02*
X62338142Y-104957330D01*
X62338142Y-104957330D02*
X62509571Y-105014473D01*
X62509571Y-105014473D02*
X62681000Y-105128758D01*
X62681000Y-105128758D02*
X62766714Y-105300187D01*
X62766714Y-105300187D02*
X62766714Y-105585901D01*
X62938142Y-104671616D02*
X62938142Y-103757330D01*
X61823857Y-103471615D02*
X61823857Y-103071615D01*
X62766714Y-102900187D02*
X62766714Y-103471615D01*
X62766714Y-103471615D02*
X60966714Y-103471615D01*
X60966714Y-103471615D02*
X60966714Y-102900187D01*
X62766714Y-102385901D02*
X60966714Y-102385901D01*
X60966714Y-102385901D02*
X62766714Y-101700187D01*
X62766714Y-101700187D02*
X60966714Y-101700187D01*
D11*
X65916666Y-104954819D02*
X65916666Y-105669104D01*
X65916666Y-105669104D02*
X65869047Y-105811961D01*
X65869047Y-105811961D02*
X65773809Y-105907200D01*
X65773809Y-105907200D02*
X65630952Y-105954819D01*
X65630952Y-105954819D02*
X65535714Y-105954819D01*
X66297619Y-104954819D02*
X66916666Y-104954819D01*
X66916666Y-104954819D02*
X66583333Y-105335771D01*
X66583333Y-105335771D02*
X66726190Y-105335771D01*
X66726190Y-105335771D02*
X66821428Y-105383390D01*
X66821428Y-105383390D02*
X66869047Y-105431009D01*
X66869047Y-105431009D02*
X66916666Y-105526247D01*
X66916666Y-105526247D02*
X66916666Y-105764342D01*
X66916666Y-105764342D02*
X66869047Y-105859580D01*
X66869047Y-105859580D02*
X66821428Y-105907200D01*
X66821428Y-105907200D02*
X66726190Y-105954819D01*
X66726190Y-105954819D02*
X66440476Y-105954819D01*
X66440476Y-105954819D02*
X66345238Y-105907200D01*
X66345238Y-105907200D02*
X66297619Y-105859580D01*
D12*
%TO.C,J3*%
X68855000Y-98880000D02*
X68855000Y-100210000D01*
X67525000Y-98880000D02*
X68855000Y-98880000D01*
X66255000Y-98880000D02*
X63655000Y-98880000D01*
X66255000Y-98880000D02*
X66255000Y-101480000D01*
X63655000Y-98880000D02*
X63655000Y-104080000D01*
X68855000Y-101480000D02*
X68855000Y-104080000D01*
X66255000Y-101480000D02*
X68855000Y-101480000D01*
X68855000Y-104080000D02*
X63655000Y-104080000D01*
%TD*%
M02*
