%TF.GenerationSoftware,KiCad,Pcbnew,7.0.10*%
%TF.CreationDate,2024-01-31T18:16:45-05:00*%
%TF.ProjectId,FoMoCoFastCharger,466f4d6f-436f-4466-9173-744368617267,rev?*%
%TF.SameCoordinates,Original*%
%TF.FileFunction,Legend,Bot*%
%TF.FilePolarity,Positive*%
%FSLAX46Y46*%
G04 Gerber Fmt 4.6, Leading zero omitted, Abs format (unit mm)*
G04 Created by KiCad (PCBNEW 7.0.10) date 2024-01-31 18:16:45*
%MOMM*%
%LPD*%
G01*
G04 APERTURE LIST*
%ADD10C,1.000000*%
%ADD11C,0.500000*%
%ADD12C,0.150000*%
%ADD13C,0.250000*%
%ADD14C,0.120000*%
%ADD15C,0.010000*%
G04 APERTURE END LIST*
D10*
X170250000Y-104500000D02*
X175250000Y-104500000D01*
X170250000Y-102000000D02*
X175250000Y-102000000D01*
D11*
X175750000Y-102000000D02*
X180750000Y-102000000D01*
D12*
X175750000Y-105750000D02*
X175750000Y-106750000D01*
X180750000Y-106250000D02*
X175750000Y-106250000D01*
X180750000Y-105750000D02*
X180750000Y-106750000D01*
D11*
X175750000Y-104500000D02*
X180750000Y-104500000D01*
D13*
X72157330Y-98941380D02*
X72271616Y-98865190D01*
X72271616Y-98865190D02*
X72443044Y-98865190D01*
X72443044Y-98865190D02*
X72614473Y-98941380D01*
X72614473Y-98941380D02*
X72728758Y-99093761D01*
X72728758Y-99093761D02*
X72785901Y-99246142D01*
X72785901Y-99246142D02*
X72843044Y-99550904D01*
X72843044Y-99550904D02*
X72843044Y-99779476D01*
X72843044Y-99779476D02*
X72785901Y-100084238D01*
X72785901Y-100084238D02*
X72728758Y-100236619D01*
X72728758Y-100236619D02*
X72614473Y-100389000D01*
X72614473Y-100389000D02*
X72443044Y-100465190D01*
X72443044Y-100465190D02*
X72328758Y-100465190D01*
X72328758Y-100465190D02*
X72157330Y-100389000D01*
X72157330Y-100389000D02*
X72100187Y-100312809D01*
X72100187Y-100312809D02*
X72100187Y-99779476D01*
X72100187Y-99779476D02*
X72328758Y-99779476D01*
X71585901Y-100465190D02*
X71585901Y-98865190D01*
X71585901Y-98865190D02*
X70900187Y-100465190D01*
X70900187Y-100465190D02*
X70900187Y-98865190D01*
X70328758Y-100465190D02*
X70328758Y-98865190D01*
X70328758Y-98865190D02*
X70043044Y-98865190D01*
X70043044Y-98865190D02*
X69871615Y-98941380D01*
X69871615Y-98941380D02*
X69757330Y-99093761D01*
X69757330Y-99093761D02*
X69700187Y-99246142D01*
X69700187Y-99246142D02*
X69643044Y-99550904D01*
X69643044Y-99550904D02*
X69643044Y-99779476D01*
X69643044Y-99779476D02*
X69700187Y-100084238D01*
X69700187Y-100084238D02*
X69757330Y-100236619D01*
X69757330Y-100236619D02*
X69871615Y-100389000D01*
X69871615Y-100389000D02*
X70043044Y-100465190D01*
X70043044Y-100465190D02*
X70328758Y-100465190D01*
X74900187Y-103041190D02*
X74900187Y-101441190D01*
X74900187Y-101441190D02*
X74614473Y-101441190D01*
X74614473Y-101441190D02*
X74443044Y-101517380D01*
X74443044Y-101517380D02*
X74328759Y-101669761D01*
X74328759Y-101669761D02*
X74271616Y-101822142D01*
X74271616Y-101822142D02*
X74214473Y-102126904D01*
X74214473Y-102126904D02*
X74214473Y-102355476D01*
X74214473Y-102355476D02*
X74271616Y-102660238D01*
X74271616Y-102660238D02*
X74328759Y-102812619D01*
X74328759Y-102812619D02*
X74443044Y-102965000D01*
X74443044Y-102965000D02*
X74614473Y-103041190D01*
X74614473Y-103041190D02*
X74900187Y-103041190D01*
X73014473Y-102888809D02*
X73071616Y-102965000D01*
X73071616Y-102965000D02*
X73243044Y-103041190D01*
X73243044Y-103041190D02*
X73357330Y-103041190D01*
X73357330Y-103041190D02*
X73528759Y-102965000D01*
X73528759Y-102965000D02*
X73643044Y-102812619D01*
X73643044Y-102812619D02*
X73700187Y-102660238D01*
X73700187Y-102660238D02*
X73757330Y-102355476D01*
X73757330Y-102355476D02*
X73757330Y-102126904D01*
X73757330Y-102126904D02*
X73700187Y-101822142D01*
X73700187Y-101822142D02*
X73643044Y-101669761D01*
X73643044Y-101669761D02*
X73528759Y-101517380D01*
X73528759Y-101517380D02*
X73357330Y-101441190D01*
X73357330Y-101441190D02*
X73243044Y-101441190D01*
X73243044Y-101441190D02*
X73071616Y-101517380D01*
X73071616Y-101517380D02*
X73014473Y-101593571D01*
X72785902Y-103193571D02*
X71871616Y-103193571D01*
X71357330Y-101441190D02*
X71128758Y-101441190D01*
X71128758Y-101441190D02*
X71014473Y-101517380D01*
X71014473Y-101517380D02*
X70900187Y-101669761D01*
X70900187Y-101669761D02*
X70843044Y-101974523D01*
X70843044Y-101974523D02*
X70843044Y-102507857D01*
X70843044Y-102507857D02*
X70900187Y-102812619D01*
X70900187Y-102812619D02*
X71014473Y-102965000D01*
X71014473Y-102965000D02*
X71128758Y-103041190D01*
X71128758Y-103041190D02*
X71357330Y-103041190D01*
X71357330Y-103041190D02*
X71471616Y-102965000D01*
X71471616Y-102965000D02*
X71585901Y-102812619D01*
X71585901Y-102812619D02*
X71643044Y-102507857D01*
X71643044Y-102507857D02*
X71643044Y-101974523D01*
X71643044Y-101974523D02*
X71585901Y-101669761D01*
X71585901Y-101669761D02*
X71471616Y-101517380D01*
X71471616Y-101517380D02*
X71357330Y-101441190D01*
X70328758Y-103041190D02*
X70328758Y-101441190D01*
X69643044Y-103041190D02*
X70157330Y-102126904D01*
X69643044Y-101441190D02*
X70328758Y-102355476D01*
X236164472Y-101989904D02*
X236564472Y-101989904D01*
X236564472Y-102801809D02*
X236564472Y-101251809D01*
X236564472Y-101251809D02*
X235993044Y-101251809D01*
X235593044Y-102358952D02*
X235021616Y-102358952D01*
X235707330Y-102801809D02*
X235307330Y-101251809D01*
X235307330Y-101251809D02*
X234907330Y-102801809D01*
X234507330Y-102801809D02*
X234507330Y-101251809D01*
X234507330Y-101251809D02*
X233821616Y-102801809D01*
X233821616Y-102801809D02*
X233821616Y-101251809D01*
X233250187Y-102211333D02*
X232335902Y-102211333D01*
X230507330Y-103392285D02*
X230564473Y-103318476D01*
X230564473Y-103318476D02*
X230678759Y-103097047D01*
X230678759Y-103097047D02*
X230735902Y-102949428D01*
X230735902Y-102949428D02*
X230793044Y-102728000D01*
X230793044Y-102728000D02*
X230850187Y-102358952D01*
X230850187Y-102358952D02*
X230850187Y-102063714D01*
X230850187Y-102063714D02*
X230793044Y-101694666D01*
X230793044Y-101694666D02*
X230735902Y-101473238D01*
X230735902Y-101473238D02*
X230678759Y-101325619D01*
X230678759Y-101325619D02*
X230564473Y-101104190D01*
X230564473Y-101104190D02*
X230507330Y-101030380D01*
X229650187Y-101989904D02*
X229478759Y-102063714D01*
X229478759Y-102063714D02*
X229421616Y-102137523D01*
X229421616Y-102137523D02*
X229364473Y-102285142D01*
X229364473Y-102285142D02*
X229364473Y-102506571D01*
X229364473Y-102506571D02*
X229421616Y-102654190D01*
X229421616Y-102654190D02*
X229478759Y-102728000D01*
X229478759Y-102728000D02*
X229593044Y-102801809D01*
X229593044Y-102801809D02*
X230050187Y-102801809D01*
X230050187Y-102801809D02*
X230050187Y-101251809D01*
X230050187Y-101251809D02*
X229650187Y-101251809D01*
X229650187Y-101251809D02*
X229535902Y-101325619D01*
X229535902Y-101325619D02*
X229478759Y-101399428D01*
X229478759Y-101399428D02*
X229421616Y-101547047D01*
X229421616Y-101547047D02*
X229421616Y-101694666D01*
X229421616Y-101694666D02*
X229478759Y-101842285D01*
X229478759Y-101842285D02*
X229535902Y-101916095D01*
X229535902Y-101916095D02*
X229650187Y-101989904D01*
X229650187Y-101989904D02*
X230050187Y-101989904D01*
X228278759Y-102801809D02*
X228850187Y-102801809D01*
X228850187Y-102801809D02*
X228850187Y-101251809D01*
X227878758Y-102801809D02*
X227878758Y-101251809D01*
X227193044Y-102801809D02*
X227707330Y-101916095D01*
X227193044Y-101251809D02*
X227878758Y-102137523D01*
X226793044Y-103392285D02*
X226735901Y-103318476D01*
X226735901Y-103318476D02*
X226621615Y-103097047D01*
X226621615Y-103097047D02*
X226564473Y-102949428D01*
X226564473Y-102949428D02*
X226507330Y-102728000D01*
X226507330Y-102728000D02*
X226450187Y-102358952D01*
X226450187Y-102358952D02*
X226450187Y-102063714D01*
X226450187Y-102063714D02*
X226507330Y-101694666D01*
X226507330Y-101694666D02*
X226564473Y-101473238D01*
X226564473Y-101473238D02*
X226621615Y-101325619D01*
X226621615Y-101325619D02*
X226735901Y-101104190D01*
X226735901Y-101104190D02*
X226793044Y-101030380D01*
X236278757Y-104485404D02*
X236678757Y-104485404D01*
X236678757Y-105297309D02*
X236678757Y-103747309D01*
X236678757Y-103747309D02*
X236107329Y-103747309D01*
X235707329Y-104854452D02*
X235135901Y-104854452D01*
X235821615Y-105297309D02*
X235421615Y-103747309D01*
X235421615Y-103747309D02*
X235021615Y-105297309D01*
X234621615Y-105297309D02*
X234621615Y-103747309D01*
X234621615Y-103747309D02*
X233935901Y-105297309D01*
X233935901Y-105297309D02*
X233935901Y-103747309D01*
X233364472Y-104706833D02*
X232450187Y-104706833D01*
X232907329Y-105297309D02*
X232907329Y-104116357D01*
X230621615Y-105887785D02*
X230678758Y-105813976D01*
X230678758Y-105813976D02*
X230793044Y-105592547D01*
X230793044Y-105592547D02*
X230850187Y-105444928D01*
X230850187Y-105444928D02*
X230907329Y-105223500D01*
X230907329Y-105223500D02*
X230964472Y-104854452D01*
X230964472Y-104854452D02*
X230964472Y-104559214D01*
X230964472Y-104559214D02*
X230907329Y-104190166D01*
X230907329Y-104190166D02*
X230850187Y-103968738D01*
X230850187Y-103968738D02*
X230793044Y-103821119D01*
X230793044Y-103821119D02*
X230678758Y-103599690D01*
X230678758Y-103599690D02*
X230621615Y-103525880D01*
X229478758Y-105297309D02*
X229878758Y-104559214D01*
X230164472Y-105297309D02*
X230164472Y-103747309D01*
X230164472Y-103747309D02*
X229707329Y-103747309D01*
X229707329Y-103747309D02*
X229593044Y-103821119D01*
X229593044Y-103821119D02*
X229535901Y-103894928D01*
X229535901Y-103894928D02*
X229478758Y-104042547D01*
X229478758Y-104042547D02*
X229478758Y-104263976D01*
X229478758Y-104263976D02*
X229535901Y-104411595D01*
X229535901Y-104411595D02*
X229593044Y-104485404D01*
X229593044Y-104485404D02*
X229707329Y-104559214D01*
X229707329Y-104559214D02*
X230164472Y-104559214D01*
X228964472Y-104485404D02*
X228564472Y-104485404D01*
X228393044Y-105297309D02*
X228964472Y-105297309D01*
X228964472Y-105297309D02*
X228964472Y-103747309D01*
X228964472Y-103747309D02*
X228393044Y-103747309D01*
X227878758Y-105297309D02*
X227878758Y-103747309D01*
X227878758Y-103747309D02*
X227593044Y-103747309D01*
X227593044Y-103747309D02*
X227421615Y-103821119D01*
X227421615Y-103821119D02*
X227307330Y-103968738D01*
X227307330Y-103968738D02*
X227250187Y-104116357D01*
X227250187Y-104116357D02*
X227193044Y-104411595D01*
X227193044Y-104411595D02*
X227193044Y-104633023D01*
X227193044Y-104633023D02*
X227250187Y-104928261D01*
X227250187Y-104928261D02*
X227307330Y-105075880D01*
X227307330Y-105075880D02*
X227421615Y-105223500D01*
X227421615Y-105223500D02*
X227593044Y-105297309D01*
X227593044Y-105297309D02*
X227878758Y-105297309D01*
X226793044Y-105887785D02*
X226735901Y-105813976D01*
X226735901Y-105813976D02*
X226621615Y-105592547D01*
X226621615Y-105592547D02*
X226564473Y-105444928D01*
X226564473Y-105444928D02*
X226507330Y-105223500D01*
X226507330Y-105223500D02*
X226450187Y-104854452D01*
X226450187Y-104854452D02*
X226450187Y-104559214D01*
X226450187Y-104559214D02*
X226507330Y-104190166D01*
X226507330Y-104190166D02*
X226564473Y-103968738D01*
X226564473Y-103968738D02*
X226621615Y-103821119D01*
X226621615Y-103821119D02*
X226735901Y-103599690D01*
X226735901Y-103599690D02*
X226793044Y-103525880D01*
X62064472Y-101016714D02*
X62750186Y-101016714D01*
X62407329Y-101016714D02*
X62407329Y-99216714D01*
X62407329Y-99216714D02*
X62521615Y-99473857D01*
X62521615Y-99473857D02*
X62635900Y-99645285D01*
X62635900Y-99645285D02*
X62750186Y-99731000D01*
X61607329Y-99388142D02*
X61550186Y-99302428D01*
X61550186Y-99302428D02*
X61435901Y-99216714D01*
X61435901Y-99216714D02*
X61150186Y-99216714D01*
X61150186Y-99216714D02*
X61035901Y-99302428D01*
X61035901Y-99302428D02*
X60978758Y-99388142D01*
X60978758Y-99388142D02*
X60921615Y-99559571D01*
X60921615Y-99559571D02*
X60921615Y-99731000D01*
X60921615Y-99731000D02*
X60978758Y-99988142D01*
X60978758Y-99988142D02*
X61664472Y-101016714D01*
X61664472Y-101016714D02*
X60921615Y-101016714D01*
X60578758Y-99216714D02*
X60178758Y-101016714D01*
X60178758Y-101016714D02*
X59778758Y-99216714D01*
X205664472Y-101739904D02*
X206064472Y-101739904D01*
X206064472Y-102551809D02*
X206064472Y-101001809D01*
X206064472Y-101001809D02*
X205493044Y-101001809D01*
X205093044Y-102108952D02*
X204521616Y-102108952D01*
X205207330Y-102551809D02*
X204807330Y-101001809D01*
X204807330Y-101001809D02*
X204407330Y-102551809D01*
X204007330Y-102551809D02*
X204007330Y-101001809D01*
X204007330Y-101001809D02*
X203321616Y-102551809D01*
X203321616Y-102551809D02*
X203321616Y-101001809D01*
X202750187Y-101961333D02*
X201835902Y-101961333D01*
X200007330Y-103142285D02*
X200064473Y-103068476D01*
X200064473Y-103068476D02*
X200178759Y-102847047D01*
X200178759Y-102847047D02*
X200235902Y-102699428D01*
X200235902Y-102699428D02*
X200293044Y-102478000D01*
X200293044Y-102478000D02*
X200350187Y-102108952D01*
X200350187Y-102108952D02*
X200350187Y-101813714D01*
X200350187Y-101813714D02*
X200293044Y-101444666D01*
X200293044Y-101444666D02*
X200235902Y-101223238D01*
X200235902Y-101223238D02*
X200178759Y-101075619D01*
X200178759Y-101075619D02*
X200064473Y-100854190D01*
X200064473Y-100854190D02*
X200007330Y-100780380D01*
X199150187Y-101739904D02*
X198978759Y-101813714D01*
X198978759Y-101813714D02*
X198921616Y-101887523D01*
X198921616Y-101887523D02*
X198864473Y-102035142D01*
X198864473Y-102035142D02*
X198864473Y-102256571D01*
X198864473Y-102256571D02*
X198921616Y-102404190D01*
X198921616Y-102404190D02*
X198978759Y-102478000D01*
X198978759Y-102478000D02*
X199093044Y-102551809D01*
X199093044Y-102551809D02*
X199550187Y-102551809D01*
X199550187Y-102551809D02*
X199550187Y-101001809D01*
X199550187Y-101001809D02*
X199150187Y-101001809D01*
X199150187Y-101001809D02*
X199035902Y-101075619D01*
X199035902Y-101075619D02*
X198978759Y-101149428D01*
X198978759Y-101149428D02*
X198921616Y-101297047D01*
X198921616Y-101297047D02*
X198921616Y-101444666D01*
X198921616Y-101444666D02*
X198978759Y-101592285D01*
X198978759Y-101592285D02*
X199035902Y-101666095D01*
X199035902Y-101666095D02*
X199150187Y-101739904D01*
X199150187Y-101739904D02*
X199550187Y-101739904D01*
X197778759Y-102551809D02*
X198350187Y-102551809D01*
X198350187Y-102551809D02*
X198350187Y-101001809D01*
X197378758Y-102551809D02*
X197378758Y-101001809D01*
X196693044Y-102551809D02*
X197207330Y-101666095D01*
X196693044Y-101001809D02*
X197378758Y-101887523D01*
X196293044Y-103142285D02*
X196235901Y-103068476D01*
X196235901Y-103068476D02*
X196121615Y-102847047D01*
X196121615Y-102847047D02*
X196064473Y-102699428D01*
X196064473Y-102699428D02*
X196007330Y-102478000D01*
X196007330Y-102478000D02*
X195950187Y-102108952D01*
X195950187Y-102108952D02*
X195950187Y-101813714D01*
X195950187Y-101813714D02*
X196007330Y-101444666D01*
X196007330Y-101444666D02*
X196064473Y-101223238D01*
X196064473Y-101223238D02*
X196121615Y-101075619D01*
X196121615Y-101075619D02*
X196235901Y-100854190D01*
X196235901Y-100854190D02*
X196293044Y-100780380D01*
X205778757Y-104235404D02*
X206178757Y-104235404D01*
X206178757Y-105047309D02*
X206178757Y-103497309D01*
X206178757Y-103497309D02*
X205607329Y-103497309D01*
X205207329Y-104604452D02*
X204635901Y-104604452D01*
X205321615Y-105047309D02*
X204921615Y-103497309D01*
X204921615Y-103497309D02*
X204521615Y-105047309D01*
X204121615Y-105047309D02*
X204121615Y-103497309D01*
X204121615Y-103497309D02*
X203435901Y-105047309D01*
X203435901Y-105047309D02*
X203435901Y-103497309D01*
X202864472Y-104456833D02*
X201950187Y-104456833D01*
X202407329Y-105047309D02*
X202407329Y-103866357D01*
X200121615Y-105637785D02*
X200178758Y-105563976D01*
X200178758Y-105563976D02*
X200293044Y-105342547D01*
X200293044Y-105342547D02*
X200350187Y-105194928D01*
X200350187Y-105194928D02*
X200407329Y-104973500D01*
X200407329Y-104973500D02*
X200464472Y-104604452D01*
X200464472Y-104604452D02*
X200464472Y-104309214D01*
X200464472Y-104309214D02*
X200407329Y-103940166D01*
X200407329Y-103940166D02*
X200350187Y-103718738D01*
X200350187Y-103718738D02*
X200293044Y-103571119D01*
X200293044Y-103571119D02*
X200178758Y-103349690D01*
X200178758Y-103349690D02*
X200121615Y-103275880D01*
X198978758Y-105047309D02*
X199378758Y-104309214D01*
X199664472Y-105047309D02*
X199664472Y-103497309D01*
X199664472Y-103497309D02*
X199207329Y-103497309D01*
X199207329Y-103497309D02*
X199093044Y-103571119D01*
X199093044Y-103571119D02*
X199035901Y-103644928D01*
X199035901Y-103644928D02*
X198978758Y-103792547D01*
X198978758Y-103792547D02*
X198978758Y-104013976D01*
X198978758Y-104013976D02*
X199035901Y-104161595D01*
X199035901Y-104161595D02*
X199093044Y-104235404D01*
X199093044Y-104235404D02*
X199207329Y-104309214D01*
X199207329Y-104309214D02*
X199664472Y-104309214D01*
X198464472Y-104235404D02*
X198064472Y-104235404D01*
X197893044Y-105047309D02*
X198464472Y-105047309D01*
X198464472Y-105047309D02*
X198464472Y-103497309D01*
X198464472Y-103497309D02*
X197893044Y-103497309D01*
X197378758Y-105047309D02*
X197378758Y-103497309D01*
X197378758Y-103497309D02*
X197093044Y-103497309D01*
X197093044Y-103497309D02*
X196921615Y-103571119D01*
X196921615Y-103571119D02*
X196807330Y-103718738D01*
X196807330Y-103718738D02*
X196750187Y-103866357D01*
X196750187Y-103866357D02*
X196693044Y-104161595D01*
X196693044Y-104161595D02*
X196693044Y-104383023D01*
X196693044Y-104383023D02*
X196750187Y-104678261D01*
X196750187Y-104678261D02*
X196807330Y-104825880D01*
X196807330Y-104825880D02*
X196921615Y-104973500D01*
X196921615Y-104973500D02*
X197093044Y-105047309D01*
X197093044Y-105047309D02*
X197378758Y-105047309D01*
X196293044Y-105637785D02*
X196235901Y-105563976D01*
X196235901Y-105563976D02*
X196121615Y-105342547D01*
X196121615Y-105342547D02*
X196064473Y-105194928D01*
X196064473Y-105194928D02*
X196007330Y-104973500D01*
X196007330Y-104973500D02*
X195950187Y-104604452D01*
X195950187Y-104604452D02*
X195950187Y-104309214D01*
X195950187Y-104309214D02*
X196007330Y-103940166D01*
X196007330Y-103940166D02*
X196064473Y-103718738D01*
X196064473Y-103718738D02*
X196121615Y-103571119D01*
X196121615Y-103571119D02*
X196235901Y-103349690D01*
X196235901Y-103349690D02*
X196293044Y-103275880D01*
D12*
X156913220Y-108119819D02*
X156913220Y-107119819D01*
X156913220Y-107119819D02*
X156675125Y-107119819D01*
X156675125Y-107119819D02*
X156532268Y-107167438D01*
X156532268Y-107167438D02*
X156437030Y-107262676D01*
X156437030Y-107262676D02*
X156389411Y-107357914D01*
X156389411Y-107357914D02*
X156341792Y-107548390D01*
X156341792Y-107548390D02*
X156341792Y-107691247D01*
X156341792Y-107691247D02*
X156389411Y-107881723D01*
X156389411Y-107881723D02*
X156437030Y-107976961D01*
X156437030Y-107976961D02*
X156532268Y-108072200D01*
X156532268Y-108072200D02*
X156675125Y-108119819D01*
X156675125Y-108119819D02*
X156913220Y-108119819D01*
X155913220Y-107596009D02*
X155579887Y-107596009D01*
X155437030Y-108119819D02*
X155913220Y-108119819D01*
X155913220Y-108119819D02*
X155913220Y-107119819D01*
X155913220Y-107119819D02*
X155437030Y-107119819D01*
X155056077Y-108072200D02*
X154913220Y-108119819D01*
X154913220Y-108119819D02*
X154675125Y-108119819D01*
X154675125Y-108119819D02*
X154579887Y-108072200D01*
X154579887Y-108072200D02*
X154532268Y-108024580D01*
X154532268Y-108024580D02*
X154484649Y-107929342D01*
X154484649Y-107929342D02*
X154484649Y-107834104D01*
X154484649Y-107834104D02*
X154532268Y-107738866D01*
X154532268Y-107738866D02*
X154579887Y-107691247D01*
X154579887Y-107691247D02*
X154675125Y-107643628D01*
X154675125Y-107643628D02*
X154865601Y-107596009D01*
X154865601Y-107596009D02*
X154960839Y-107548390D01*
X154960839Y-107548390D02*
X155008458Y-107500771D01*
X155008458Y-107500771D02*
X155056077Y-107405533D01*
X155056077Y-107405533D02*
X155056077Y-107310295D01*
X155056077Y-107310295D02*
X155008458Y-107215057D01*
X155008458Y-107215057D02*
X154960839Y-107167438D01*
X154960839Y-107167438D02*
X154865601Y-107119819D01*
X154865601Y-107119819D02*
X154627506Y-107119819D01*
X154627506Y-107119819D02*
X154484649Y-107167438D01*
X154056077Y-108119819D02*
X154056077Y-107119819D01*
X153056078Y-107167438D02*
X153151316Y-107119819D01*
X153151316Y-107119819D02*
X153294173Y-107119819D01*
X153294173Y-107119819D02*
X153437030Y-107167438D01*
X153437030Y-107167438D02*
X153532268Y-107262676D01*
X153532268Y-107262676D02*
X153579887Y-107357914D01*
X153579887Y-107357914D02*
X153627506Y-107548390D01*
X153627506Y-107548390D02*
X153627506Y-107691247D01*
X153627506Y-107691247D02*
X153579887Y-107881723D01*
X153579887Y-107881723D02*
X153532268Y-107976961D01*
X153532268Y-107976961D02*
X153437030Y-108072200D01*
X153437030Y-108072200D02*
X153294173Y-108119819D01*
X153294173Y-108119819D02*
X153198935Y-108119819D01*
X153198935Y-108119819D02*
X153056078Y-108072200D01*
X153056078Y-108072200D02*
X153008459Y-108024580D01*
X153008459Y-108024580D02*
X153008459Y-107691247D01*
X153008459Y-107691247D02*
X153198935Y-107691247D01*
X152579887Y-108119819D02*
X152579887Y-107119819D01*
X152579887Y-107119819D02*
X152008459Y-108119819D01*
X152008459Y-108119819D02*
X152008459Y-107119819D01*
X151532268Y-107596009D02*
X151198935Y-107596009D01*
X151056078Y-108119819D02*
X151532268Y-108119819D01*
X151532268Y-108119819D02*
X151532268Y-107119819D01*
X151532268Y-107119819D02*
X151056078Y-107119819D01*
X150627506Y-108119819D02*
X150627506Y-107119819D01*
X150627506Y-107119819D02*
X150389411Y-107119819D01*
X150389411Y-107119819D02*
X150246554Y-107167438D01*
X150246554Y-107167438D02*
X150151316Y-107262676D01*
X150151316Y-107262676D02*
X150103697Y-107357914D01*
X150103697Y-107357914D02*
X150056078Y-107548390D01*
X150056078Y-107548390D02*
X150056078Y-107691247D01*
X150056078Y-107691247D02*
X150103697Y-107881723D01*
X150103697Y-107881723D02*
X150151316Y-107976961D01*
X150151316Y-107976961D02*
X150246554Y-108072200D01*
X150246554Y-108072200D02*
X150389411Y-108119819D01*
X150389411Y-108119819D02*
X150627506Y-108119819D01*
X148532268Y-107596009D02*
X148389411Y-107643628D01*
X148389411Y-107643628D02*
X148341792Y-107691247D01*
X148341792Y-107691247D02*
X148294173Y-107786485D01*
X148294173Y-107786485D02*
X148294173Y-107929342D01*
X148294173Y-107929342D02*
X148341792Y-108024580D01*
X148341792Y-108024580D02*
X148389411Y-108072200D01*
X148389411Y-108072200D02*
X148484649Y-108119819D01*
X148484649Y-108119819D02*
X148865601Y-108119819D01*
X148865601Y-108119819D02*
X148865601Y-107119819D01*
X148865601Y-107119819D02*
X148532268Y-107119819D01*
X148532268Y-107119819D02*
X148437030Y-107167438D01*
X148437030Y-107167438D02*
X148389411Y-107215057D01*
X148389411Y-107215057D02*
X148341792Y-107310295D01*
X148341792Y-107310295D02*
X148341792Y-107405533D01*
X148341792Y-107405533D02*
X148389411Y-107500771D01*
X148389411Y-107500771D02*
X148437030Y-107548390D01*
X148437030Y-107548390D02*
X148532268Y-107596009D01*
X148532268Y-107596009D02*
X148865601Y-107596009D01*
X147675125Y-107643628D02*
X147675125Y-108119819D01*
X148008458Y-107119819D02*
X147675125Y-107643628D01*
X147675125Y-107643628D02*
X147341792Y-107119819D01*
X146246553Y-108119819D02*
X146246553Y-107119819D01*
X145770363Y-108119819D02*
X145770363Y-107119819D01*
X145770363Y-107119819D02*
X145198935Y-108119819D01*
X145198935Y-108119819D02*
X145198935Y-107119819D01*
X144770363Y-108072200D02*
X144627506Y-108119819D01*
X144627506Y-108119819D02*
X144389411Y-108119819D01*
X144389411Y-108119819D02*
X144294173Y-108072200D01*
X144294173Y-108072200D02*
X144246554Y-108024580D01*
X144246554Y-108024580D02*
X144198935Y-107929342D01*
X144198935Y-107929342D02*
X144198935Y-107834104D01*
X144198935Y-107834104D02*
X144246554Y-107738866D01*
X144246554Y-107738866D02*
X144294173Y-107691247D01*
X144294173Y-107691247D02*
X144389411Y-107643628D01*
X144389411Y-107643628D02*
X144579887Y-107596009D01*
X144579887Y-107596009D02*
X144675125Y-107548390D01*
X144675125Y-107548390D02*
X144722744Y-107500771D01*
X144722744Y-107500771D02*
X144770363Y-107405533D01*
X144770363Y-107405533D02*
X144770363Y-107310295D01*
X144770363Y-107310295D02*
X144722744Y-107215057D01*
X144722744Y-107215057D02*
X144675125Y-107167438D01*
X144675125Y-107167438D02*
X144579887Y-107119819D01*
X144579887Y-107119819D02*
X144341792Y-107119819D01*
X144341792Y-107119819D02*
X144198935Y-107167438D01*
X143770363Y-108119819D02*
X143770363Y-107119819D01*
X142770364Y-107167438D02*
X142865602Y-107119819D01*
X142865602Y-107119819D02*
X143008459Y-107119819D01*
X143008459Y-107119819D02*
X143151316Y-107167438D01*
X143151316Y-107167438D02*
X143246554Y-107262676D01*
X143246554Y-107262676D02*
X143294173Y-107357914D01*
X143294173Y-107357914D02*
X143341792Y-107548390D01*
X143341792Y-107548390D02*
X143341792Y-107691247D01*
X143341792Y-107691247D02*
X143294173Y-107881723D01*
X143294173Y-107881723D02*
X143246554Y-107976961D01*
X143246554Y-107976961D02*
X143151316Y-108072200D01*
X143151316Y-108072200D02*
X143008459Y-108119819D01*
X143008459Y-108119819D02*
X142913221Y-108119819D01*
X142913221Y-108119819D02*
X142770364Y-108072200D01*
X142770364Y-108072200D02*
X142722745Y-108024580D01*
X142722745Y-108024580D02*
X142722745Y-107691247D01*
X142722745Y-107691247D02*
X142913221Y-107691247D01*
X142294173Y-108119819D02*
X142294173Y-107119819D01*
X142294173Y-107596009D02*
X141722745Y-107596009D01*
X141722745Y-108119819D02*
X141722745Y-107119819D01*
X141389411Y-107119819D02*
X140817983Y-107119819D01*
X141103697Y-108119819D02*
X141103697Y-107119819D01*
X139913221Y-108024580D02*
X139960840Y-108072200D01*
X139960840Y-108072200D02*
X140103697Y-108119819D01*
X140103697Y-108119819D02*
X140198935Y-108119819D01*
X140198935Y-108119819D02*
X140341792Y-108072200D01*
X140341792Y-108072200D02*
X140437030Y-107976961D01*
X140437030Y-107976961D02*
X140484649Y-107881723D01*
X140484649Y-107881723D02*
X140532268Y-107691247D01*
X140532268Y-107691247D02*
X140532268Y-107548390D01*
X140532268Y-107548390D02*
X140484649Y-107357914D01*
X140484649Y-107357914D02*
X140437030Y-107262676D01*
X140437030Y-107262676D02*
X140341792Y-107167438D01*
X140341792Y-107167438D02*
X140198935Y-107119819D01*
X140198935Y-107119819D02*
X140103697Y-107119819D01*
X140103697Y-107119819D02*
X139960840Y-107167438D01*
X139960840Y-107167438D02*
X139913221Y-107215057D01*
X139484649Y-107596009D02*
X139151316Y-107596009D01*
X139008459Y-108119819D02*
X139484649Y-108119819D01*
X139484649Y-108119819D02*
X139484649Y-107119819D01*
X139484649Y-107119819D02*
X139008459Y-107119819D01*
X138579887Y-108119819D02*
X138579887Y-107119819D01*
X138579887Y-107119819D02*
X138008459Y-108119819D01*
X138008459Y-108119819D02*
X138008459Y-107119819D01*
X137675125Y-107119819D02*
X137103697Y-107119819D01*
X137389411Y-108119819D02*
X137389411Y-107119819D01*
X136198935Y-108119819D02*
X136532268Y-107643628D01*
X136770363Y-108119819D02*
X136770363Y-107119819D01*
X136770363Y-107119819D02*
X136389411Y-107119819D01*
X136389411Y-107119819D02*
X136294173Y-107167438D01*
X136294173Y-107167438D02*
X136246554Y-107215057D01*
X136246554Y-107215057D02*
X136198935Y-107310295D01*
X136198935Y-107310295D02*
X136198935Y-107453152D01*
X136198935Y-107453152D02*
X136246554Y-107548390D01*
X136246554Y-107548390D02*
X136294173Y-107596009D01*
X136294173Y-107596009D02*
X136389411Y-107643628D01*
X136389411Y-107643628D02*
X136770363Y-107643628D01*
X135817982Y-107834104D02*
X135341792Y-107834104D01*
X135913220Y-108119819D02*
X135579887Y-107119819D01*
X135579887Y-107119819D02*
X135246554Y-108119819D01*
X134437030Y-108119819D02*
X134913220Y-108119819D01*
X134913220Y-108119819D02*
X134913220Y-107119819D01*
X134103696Y-108024580D02*
X134056077Y-108072200D01*
X134056077Y-108072200D02*
X134103696Y-108119819D01*
X134103696Y-108119819D02*
X134151315Y-108072200D01*
X134151315Y-108072200D02*
X134103696Y-108024580D01*
X134103696Y-108024580D02*
X134103696Y-108119819D01*
X133627506Y-108119819D02*
X133627506Y-107119819D01*
X133627506Y-107119819D02*
X133056078Y-108119819D01*
X133056078Y-108119819D02*
X133056078Y-107119819D01*
X132579887Y-107596009D02*
X132246554Y-107596009D01*
X132103697Y-108119819D02*
X132579887Y-108119819D01*
X132579887Y-108119819D02*
X132579887Y-107119819D01*
X132579887Y-107119819D02*
X132103697Y-107119819D01*
X131817982Y-107119819D02*
X131246554Y-107119819D01*
X131532268Y-108119819D02*
X131532268Y-107119819D01*
X130151315Y-107119819D02*
X130151315Y-107929342D01*
X130151315Y-107929342D02*
X130103696Y-108024580D01*
X130103696Y-108024580D02*
X130056077Y-108072200D01*
X130056077Y-108072200D02*
X129960839Y-108119819D01*
X129960839Y-108119819D02*
X129770363Y-108119819D01*
X129770363Y-108119819D02*
X129675125Y-108072200D01*
X129675125Y-108072200D02*
X129627506Y-108024580D01*
X129627506Y-108024580D02*
X129579887Y-107929342D01*
X129579887Y-107929342D02*
X129579887Y-107119819D01*
X129151315Y-108072200D02*
X129008458Y-108119819D01*
X129008458Y-108119819D02*
X128770363Y-108119819D01*
X128770363Y-108119819D02*
X128675125Y-108072200D01*
X128675125Y-108072200D02*
X128627506Y-108024580D01*
X128627506Y-108024580D02*
X128579887Y-107929342D01*
X128579887Y-107929342D02*
X128579887Y-107834104D01*
X128579887Y-107834104D02*
X128627506Y-107738866D01*
X128627506Y-107738866D02*
X128675125Y-107691247D01*
X128675125Y-107691247D02*
X128770363Y-107643628D01*
X128770363Y-107643628D02*
X128960839Y-107596009D01*
X128960839Y-107596009D02*
X129056077Y-107548390D01*
X129056077Y-107548390D02*
X129103696Y-107500771D01*
X129103696Y-107500771D02*
X129151315Y-107405533D01*
X129151315Y-107405533D02*
X129151315Y-107310295D01*
X129151315Y-107310295D02*
X129103696Y-107215057D01*
X129103696Y-107215057D02*
X129056077Y-107167438D01*
X129056077Y-107167438D02*
X128960839Y-107119819D01*
X128960839Y-107119819D02*
X128722744Y-107119819D01*
X128722744Y-107119819D02*
X128579887Y-107167438D01*
X128151315Y-107596009D02*
X127817982Y-107596009D01*
X127675125Y-108119819D02*
X128151315Y-108119819D01*
X128151315Y-108119819D02*
X128151315Y-107119819D01*
X128151315Y-107119819D02*
X127675125Y-107119819D01*
X126675125Y-108119819D02*
X127008458Y-107643628D01*
X127246553Y-108119819D02*
X127246553Y-107119819D01*
X127246553Y-107119819D02*
X126865601Y-107119819D01*
X126865601Y-107119819D02*
X126770363Y-107167438D01*
X126770363Y-107167438D02*
X126722744Y-107215057D01*
X126722744Y-107215057D02*
X126675125Y-107310295D01*
X126675125Y-107310295D02*
X126675125Y-107453152D01*
X126675125Y-107453152D02*
X126722744Y-107548390D01*
X126722744Y-107548390D02*
X126770363Y-107596009D01*
X126770363Y-107596009D02*
X126865601Y-107643628D01*
X126865601Y-107643628D02*
X127246553Y-107643628D01*
X125437029Y-107119819D02*
X125532267Y-107310295D01*
X125008458Y-108119819D02*
X125008458Y-107453152D01*
X125008458Y-107548390D02*
X124960839Y-107500771D01*
X124960839Y-107500771D02*
X124865601Y-107453152D01*
X124865601Y-107453152D02*
X124722744Y-107453152D01*
X124722744Y-107453152D02*
X124627506Y-107500771D01*
X124627506Y-107500771D02*
X124579887Y-107596009D01*
X124579887Y-107596009D02*
X124579887Y-108119819D01*
X124579887Y-107596009D02*
X124532268Y-107500771D01*
X124532268Y-107500771D02*
X124437030Y-107453152D01*
X124437030Y-107453152D02*
X124294173Y-107453152D01*
X124294173Y-107453152D02*
X124198934Y-107500771D01*
X124198934Y-107500771D02*
X124151315Y-107596009D01*
X124151315Y-107596009D02*
X124151315Y-108119819D01*
X123246554Y-107453152D02*
X123246554Y-108119819D01*
X123675125Y-107453152D02*
X123675125Y-107976961D01*
X123675125Y-107976961D02*
X123627506Y-108072200D01*
X123627506Y-108072200D02*
X123532268Y-108119819D01*
X123532268Y-108119819D02*
X123389411Y-108119819D01*
X123389411Y-108119819D02*
X123294173Y-108072200D01*
X123294173Y-108072200D02*
X123246554Y-108024580D01*
X122341792Y-108119819D02*
X122341792Y-107119819D01*
X122341792Y-108072200D02*
X122437030Y-108119819D01*
X122437030Y-108119819D02*
X122627506Y-108119819D01*
X122627506Y-108119819D02*
X122722744Y-108072200D01*
X122722744Y-108072200D02*
X122770363Y-108024580D01*
X122770363Y-108024580D02*
X122817982Y-107929342D01*
X122817982Y-107929342D02*
X122817982Y-107643628D01*
X122817982Y-107643628D02*
X122770363Y-107548390D01*
X122770363Y-107548390D02*
X122722744Y-107500771D01*
X122722744Y-107500771D02*
X122627506Y-107453152D01*
X122627506Y-107453152D02*
X122437030Y-107453152D01*
X122437030Y-107453152D02*
X122341792Y-107500771D01*
X121437030Y-108119819D02*
X121437030Y-107119819D01*
X121437030Y-108072200D02*
X121532268Y-108119819D01*
X121532268Y-108119819D02*
X121722744Y-108119819D01*
X121722744Y-108119819D02*
X121817982Y-108072200D01*
X121817982Y-108072200D02*
X121865601Y-108024580D01*
X121865601Y-108024580D02*
X121913220Y-107929342D01*
X121913220Y-107929342D02*
X121913220Y-107643628D01*
X121913220Y-107643628D02*
X121865601Y-107548390D01*
X121865601Y-107548390D02*
X121817982Y-107500771D01*
X121817982Y-107500771D02*
X121722744Y-107453152D01*
X121722744Y-107453152D02*
X121532268Y-107453152D01*
X121532268Y-107453152D02*
X121437030Y-107500771D01*
X120579887Y-108072200D02*
X120675125Y-108119819D01*
X120675125Y-108119819D02*
X120865601Y-108119819D01*
X120865601Y-108119819D02*
X120960839Y-108072200D01*
X120960839Y-108072200D02*
X121008458Y-107976961D01*
X121008458Y-107976961D02*
X121008458Y-107596009D01*
X121008458Y-107596009D02*
X120960839Y-107500771D01*
X120960839Y-107500771D02*
X120865601Y-107453152D01*
X120865601Y-107453152D02*
X120675125Y-107453152D01*
X120675125Y-107453152D02*
X120579887Y-107500771D01*
X120579887Y-107500771D02*
X120532268Y-107596009D01*
X120532268Y-107596009D02*
X120532268Y-107691247D01*
X120532268Y-107691247D02*
X121008458Y-107786485D01*
X120103696Y-108119819D02*
X120103696Y-107453152D01*
X120103696Y-107643628D02*
X120056077Y-107548390D01*
X120056077Y-107548390D02*
X120008458Y-107500771D01*
X120008458Y-107500771D02*
X119913220Y-107453152D01*
X119913220Y-107453152D02*
X119817982Y-107453152D01*
X119437029Y-107119819D02*
X119532267Y-107310295D01*
X156913220Y-99369819D02*
X156913220Y-100179342D01*
X156913220Y-100179342D02*
X156865601Y-100274580D01*
X156865601Y-100274580D02*
X156817982Y-100322200D01*
X156817982Y-100322200D02*
X156722744Y-100369819D01*
X156722744Y-100369819D02*
X156532268Y-100369819D01*
X156532268Y-100369819D02*
X156437030Y-100322200D01*
X156437030Y-100322200D02*
X156389411Y-100274580D01*
X156389411Y-100274580D02*
X156341792Y-100179342D01*
X156341792Y-100179342D02*
X156341792Y-99369819D01*
X155865601Y-100369819D02*
X155865601Y-99369819D01*
X155865601Y-99846009D02*
X155294173Y-99846009D01*
X155294173Y-100369819D02*
X155294173Y-99369819D01*
X154817982Y-100369819D02*
X154817982Y-99369819D01*
X154817982Y-99369819D02*
X154437030Y-99369819D01*
X154437030Y-99369819D02*
X154341792Y-99417438D01*
X154341792Y-99417438D02*
X154294173Y-99465057D01*
X154294173Y-99465057D02*
X154246554Y-99560295D01*
X154246554Y-99560295D02*
X154246554Y-99703152D01*
X154246554Y-99703152D02*
X154294173Y-99798390D01*
X154294173Y-99798390D02*
X154341792Y-99846009D01*
X154341792Y-99846009D02*
X154437030Y-99893628D01*
X154437030Y-99893628D02*
X154817982Y-99893628D01*
X153817982Y-99988866D02*
X153056078Y-99988866D01*
X152056078Y-100369819D02*
X152627506Y-100369819D01*
X152341792Y-100369819D02*
X152341792Y-99369819D01*
X152341792Y-99369819D02*
X152437030Y-99512676D01*
X152437030Y-99512676D02*
X152532268Y-99607914D01*
X152532268Y-99607914D02*
X152627506Y-99655533D01*
X151151316Y-99369819D02*
X151627506Y-99369819D01*
X151627506Y-99369819D02*
X151675125Y-99846009D01*
X151675125Y-99846009D02*
X151627506Y-99798390D01*
X151627506Y-99798390D02*
X151532268Y-99750771D01*
X151532268Y-99750771D02*
X151294173Y-99750771D01*
X151294173Y-99750771D02*
X151198935Y-99798390D01*
X151198935Y-99798390D02*
X151151316Y-99846009D01*
X151151316Y-99846009D02*
X151103697Y-99941247D01*
X151103697Y-99941247D02*
X151103697Y-100179342D01*
X151103697Y-100179342D02*
X151151316Y-100274580D01*
X151151316Y-100274580D02*
X151198935Y-100322200D01*
X151198935Y-100322200D02*
X151294173Y-100369819D01*
X151294173Y-100369819D02*
X151532268Y-100369819D01*
X151532268Y-100369819D02*
X151627506Y-100322200D01*
X151627506Y-100322200D02*
X151675125Y-100274580D01*
X150484649Y-99369819D02*
X150389411Y-99369819D01*
X150389411Y-99369819D02*
X150294173Y-99417438D01*
X150294173Y-99417438D02*
X150246554Y-99465057D01*
X150246554Y-99465057D02*
X150198935Y-99560295D01*
X150198935Y-99560295D02*
X150151316Y-99750771D01*
X150151316Y-99750771D02*
X150151316Y-99988866D01*
X150151316Y-99988866D02*
X150198935Y-100179342D01*
X150198935Y-100179342D02*
X150246554Y-100274580D01*
X150246554Y-100274580D02*
X150294173Y-100322200D01*
X150294173Y-100322200D02*
X150389411Y-100369819D01*
X150389411Y-100369819D02*
X150484649Y-100369819D01*
X150484649Y-100369819D02*
X150579887Y-100322200D01*
X150579887Y-100322200D02*
X150627506Y-100274580D01*
X150627506Y-100274580D02*
X150675125Y-100179342D01*
X150675125Y-100179342D02*
X150722744Y-99988866D01*
X150722744Y-99988866D02*
X150722744Y-99750771D01*
X150722744Y-99750771D02*
X150675125Y-99560295D01*
X150675125Y-99560295D02*
X150627506Y-99465057D01*
X150627506Y-99465057D02*
X150579887Y-99417438D01*
X150579887Y-99417438D02*
X150484649Y-99369819D01*
X149532268Y-99369819D02*
X149437030Y-99369819D01*
X149437030Y-99369819D02*
X149341792Y-99417438D01*
X149341792Y-99417438D02*
X149294173Y-99465057D01*
X149294173Y-99465057D02*
X149246554Y-99560295D01*
X149246554Y-99560295D02*
X149198935Y-99750771D01*
X149198935Y-99750771D02*
X149198935Y-99988866D01*
X149198935Y-99988866D02*
X149246554Y-100179342D01*
X149246554Y-100179342D02*
X149294173Y-100274580D01*
X149294173Y-100274580D02*
X149341792Y-100322200D01*
X149341792Y-100322200D02*
X149437030Y-100369819D01*
X149437030Y-100369819D02*
X149532268Y-100369819D01*
X149532268Y-100369819D02*
X149627506Y-100322200D01*
X149627506Y-100322200D02*
X149675125Y-100274580D01*
X149675125Y-100274580D02*
X149722744Y-100179342D01*
X149722744Y-100179342D02*
X149770363Y-99988866D01*
X149770363Y-99988866D02*
X149770363Y-99750771D01*
X149770363Y-99750771D02*
X149722744Y-99560295D01*
X149722744Y-99560295D02*
X149675125Y-99465057D01*
X149675125Y-99465057D02*
X149627506Y-99417438D01*
X149627506Y-99417438D02*
X149532268Y-99369819D01*
X148770363Y-99988866D02*
X148008459Y-99988866D01*
X147579887Y-99465057D02*
X147532268Y-99417438D01*
X147532268Y-99417438D02*
X147437030Y-99369819D01*
X147437030Y-99369819D02*
X147198935Y-99369819D01*
X147198935Y-99369819D02*
X147103697Y-99417438D01*
X147103697Y-99417438D02*
X147056078Y-99465057D01*
X147056078Y-99465057D02*
X147008459Y-99560295D01*
X147008459Y-99560295D02*
X147008459Y-99655533D01*
X147008459Y-99655533D02*
X147056078Y-99798390D01*
X147056078Y-99798390D02*
X147627506Y-100369819D01*
X147627506Y-100369819D02*
X147008459Y-100369819D01*
X146675125Y-99369819D02*
X146056078Y-99369819D01*
X146056078Y-99369819D02*
X146389411Y-99750771D01*
X146389411Y-99750771D02*
X146246554Y-99750771D01*
X146246554Y-99750771D02*
X146151316Y-99798390D01*
X146151316Y-99798390D02*
X146103697Y-99846009D01*
X146103697Y-99846009D02*
X146056078Y-99941247D01*
X146056078Y-99941247D02*
X146056078Y-100179342D01*
X146056078Y-100179342D02*
X146103697Y-100274580D01*
X146103697Y-100274580D02*
X146151316Y-100322200D01*
X146151316Y-100322200D02*
X146246554Y-100369819D01*
X146246554Y-100369819D02*
X146532268Y-100369819D01*
X146532268Y-100369819D02*
X146627506Y-100322200D01*
X146627506Y-100322200D02*
X146675125Y-100274580D01*
X145437030Y-99369819D02*
X145341792Y-99369819D01*
X145341792Y-99369819D02*
X145246554Y-99417438D01*
X145246554Y-99417438D02*
X145198935Y-99465057D01*
X145198935Y-99465057D02*
X145151316Y-99560295D01*
X145151316Y-99560295D02*
X145103697Y-99750771D01*
X145103697Y-99750771D02*
X145103697Y-99988866D01*
X145103697Y-99988866D02*
X145151316Y-100179342D01*
X145151316Y-100179342D02*
X145198935Y-100274580D01*
X145198935Y-100274580D02*
X145246554Y-100322200D01*
X145246554Y-100322200D02*
X145341792Y-100369819D01*
X145341792Y-100369819D02*
X145437030Y-100369819D01*
X145437030Y-100369819D02*
X145532268Y-100322200D01*
X145532268Y-100322200D02*
X145579887Y-100274580D01*
X145579887Y-100274580D02*
X145627506Y-100179342D01*
X145627506Y-100179342D02*
X145675125Y-99988866D01*
X145675125Y-99988866D02*
X145675125Y-99750771D01*
X145675125Y-99750771D02*
X145627506Y-99560295D01*
X145627506Y-99560295D02*
X145579887Y-99465057D01*
X145579887Y-99465057D02*
X145532268Y-99417438D01*
X145532268Y-99417438D02*
X145437030Y-99369819D01*
X143389411Y-99417438D02*
X143484649Y-99369819D01*
X143484649Y-99369819D02*
X143627506Y-99369819D01*
X143627506Y-99369819D02*
X143770363Y-99417438D01*
X143770363Y-99417438D02*
X143865601Y-99512676D01*
X143865601Y-99512676D02*
X143913220Y-99607914D01*
X143913220Y-99607914D02*
X143960839Y-99798390D01*
X143960839Y-99798390D02*
X143960839Y-99941247D01*
X143960839Y-99941247D02*
X143913220Y-100131723D01*
X143913220Y-100131723D02*
X143865601Y-100226961D01*
X143865601Y-100226961D02*
X143770363Y-100322200D01*
X143770363Y-100322200D02*
X143627506Y-100369819D01*
X143627506Y-100369819D02*
X143532268Y-100369819D01*
X143532268Y-100369819D02*
X143389411Y-100322200D01*
X143389411Y-100322200D02*
X143341792Y-100274580D01*
X143341792Y-100274580D02*
X143341792Y-99941247D01*
X143341792Y-99941247D02*
X143532268Y-99941247D01*
X142341792Y-100369819D02*
X142675125Y-99893628D01*
X142913220Y-100369819D02*
X142913220Y-99369819D01*
X142913220Y-99369819D02*
X142532268Y-99369819D01*
X142532268Y-99369819D02*
X142437030Y-99417438D01*
X142437030Y-99417438D02*
X142389411Y-99465057D01*
X142389411Y-99465057D02*
X142341792Y-99560295D01*
X142341792Y-99560295D02*
X142341792Y-99703152D01*
X142341792Y-99703152D02*
X142389411Y-99798390D01*
X142389411Y-99798390D02*
X142437030Y-99846009D01*
X142437030Y-99846009D02*
X142532268Y-99893628D01*
X142532268Y-99893628D02*
X142913220Y-99893628D01*
X141913220Y-100369819D02*
X141913220Y-99369819D01*
X141437030Y-100369819D02*
X141437030Y-99369819D01*
X141437030Y-99369819D02*
X141198935Y-99369819D01*
X141198935Y-99369819D02*
X141056078Y-99417438D01*
X141056078Y-99417438D02*
X140960840Y-99512676D01*
X140960840Y-99512676D02*
X140913221Y-99607914D01*
X140913221Y-99607914D02*
X140865602Y-99798390D01*
X140865602Y-99798390D02*
X140865602Y-99941247D01*
X140865602Y-99941247D02*
X140913221Y-100131723D01*
X140913221Y-100131723D02*
X140960840Y-100226961D01*
X140960840Y-100226961D02*
X141056078Y-100322200D01*
X141056078Y-100322200D02*
X141198935Y-100369819D01*
X141198935Y-100369819D02*
X141437030Y-100369819D01*
X139103697Y-100274580D02*
X139151316Y-100322200D01*
X139151316Y-100322200D02*
X139294173Y-100369819D01*
X139294173Y-100369819D02*
X139389411Y-100369819D01*
X139389411Y-100369819D02*
X139532268Y-100322200D01*
X139532268Y-100322200D02*
X139627506Y-100226961D01*
X139627506Y-100226961D02*
X139675125Y-100131723D01*
X139675125Y-100131723D02*
X139722744Y-99941247D01*
X139722744Y-99941247D02*
X139722744Y-99798390D01*
X139722744Y-99798390D02*
X139675125Y-99607914D01*
X139675125Y-99607914D02*
X139627506Y-99512676D01*
X139627506Y-99512676D02*
X139532268Y-99417438D01*
X139532268Y-99417438D02*
X139389411Y-99369819D01*
X139389411Y-99369819D02*
X139294173Y-99369819D01*
X139294173Y-99369819D02*
X139151316Y-99417438D01*
X139151316Y-99417438D02*
X139103697Y-99465057D01*
X138675125Y-100369819D02*
X138675125Y-99369819D01*
X138675125Y-99846009D02*
X138103697Y-99846009D01*
X138103697Y-100369819D02*
X138103697Y-99369819D01*
X137675125Y-100084104D02*
X137198935Y-100084104D01*
X137770363Y-100369819D02*
X137437030Y-99369819D01*
X137437030Y-99369819D02*
X137103697Y-100369819D01*
X136198935Y-100369819D02*
X136532268Y-99893628D01*
X136770363Y-100369819D02*
X136770363Y-99369819D01*
X136770363Y-99369819D02*
X136389411Y-99369819D01*
X136389411Y-99369819D02*
X136294173Y-99417438D01*
X136294173Y-99417438D02*
X136246554Y-99465057D01*
X136246554Y-99465057D02*
X136198935Y-99560295D01*
X136198935Y-99560295D02*
X136198935Y-99703152D01*
X136198935Y-99703152D02*
X136246554Y-99798390D01*
X136246554Y-99798390D02*
X136294173Y-99846009D01*
X136294173Y-99846009D02*
X136389411Y-99893628D01*
X136389411Y-99893628D02*
X136770363Y-99893628D01*
X135246554Y-99417438D02*
X135341792Y-99369819D01*
X135341792Y-99369819D02*
X135484649Y-99369819D01*
X135484649Y-99369819D02*
X135627506Y-99417438D01*
X135627506Y-99417438D02*
X135722744Y-99512676D01*
X135722744Y-99512676D02*
X135770363Y-99607914D01*
X135770363Y-99607914D02*
X135817982Y-99798390D01*
X135817982Y-99798390D02*
X135817982Y-99941247D01*
X135817982Y-99941247D02*
X135770363Y-100131723D01*
X135770363Y-100131723D02*
X135722744Y-100226961D01*
X135722744Y-100226961D02*
X135627506Y-100322200D01*
X135627506Y-100322200D02*
X135484649Y-100369819D01*
X135484649Y-100369819D02*
X135389411Y-100369819D01*
X135389411Y-100369819D02*
X135246554Y-100322200D01*
X135246554Y-100322200D02*
X135198935Y-100274580D01*
X135198935Y-100274580D02*
X135198935Y-99941247D01*
X135198935Y-99941247D02*
X135389411Y-99941247D01*
X134770363Y-99846009D02*
X134437030Y-99846009D01*
X134294173Y-100369819D02*
X134770363Y-100369819D01*
X134770363Y-100369819D02*
X134770363Y-99369819D01*
X134770363Y-99369819D02*
X134294173Y-99369819D01*
X133294173Y-100369819D02*
X133627506Y-99893628D01*
X133865601Y-100369819D02*
X133865601Y-99369819D01*
X133865601Y-99369819D02*
X133484649Y-99369819D01*
X133484649Y-99369819D02*
X133389411Y-99417438D01*
X133389411Y-99417438D02*
X133341792Y-99465057D01*
X133341792Y-99465057D02*
X133294173Y-99560295D01*
X133294173Y-99560295D02*
X133294173Y-99703152D01*
X133294173Y-99703152D02*
X133341792Y-99798390D01*
X133341792Y-99798390D02*
X133389411Y-99846009D01*
X133389411Y-99846009D02*
X133484649Y-99893628D01*
X133484649Y-99893628D02*
X133865601Y-99893628D01*
X131770363Y-99846009D02*
X132103696Y-99846009D01*
X132103696Y-100369819D02*
X132103696Y-99369819D01*
X132103696Y-99369819D02*
X131627506Y-99369819D01*
X131294172Y-100084104D02*
X130817982Y-100084104D01*
X131389410Y-100369819D02*
X131056077Y-99369819D01*
X131056077Y-99369819D02*
X130722744Y-100369819D01*
X130389410Y-100369819D02*
X130389410Y-99369819D01*
X130389410Y-99369819D02*
X129817982Y-100369819D01*
X129817982Y-100369819D02*
X129817982Y-99369819D01*
X128008458Y-100274580D02*
X128056077Y-100322200D01*
X128056077Y-100322200D02*
X128198934Y-100369819D01*
X128198934Y-100369819D02*
X128294172Y-100369819D01*
X128294172Y-100369819D02*
X128437029Y-100322200D01*
X128437029Y-100322200D02*
X128532267Y-100226961D01*
X128532267Y-100226961D02*
X128579886Y-100131723D01*
X128579886Y-100131723D02*
X128627505Y-99941247D01*
X128627505Y-99941247D02*
X128627505Y-99798390D01*
X128627505Y-99798390D02*
X128579886Y-99607914D01*
X128579886Y-99607914D02*
X128532267Y-99512676D01*
X128532267Y-99512676D02*
X128437029Y-99417438D01*
X128437029Y-99417438D02*
X128294172Y-99369819D01*
X128294172Y-99369819D02*
X128198934Y-99369819D01*
X128198934Y-99369819D02*
X128056077Y-99417438D01*
X128056077Y-99417438D02*
X128008458Y-99465057D01*
X127389410Y-99369819D02*
X127198934Y-99369819D01*
X127198934Y-99369819D02*
X127103696Y-99417438D01*
X127103696Y-99417438D02*
X127008458Y-99512676D01*
X127008458Y-99512676D02*
X126960839Y-99703152D01*
X126960839Y-99703152D02*
X126960839Y-100036485D01*
X126960839Y-100036485D02*
X127008458Y-100226961D01*
X127008458Y-100226961D02*
X127103696Y-100322200D01*
X127103696Y-100322200D02*
X127198934Y-100369819D01*
X127198934Y-100369819D02*
X127389410Y-100369819D01*
X127389410Y-100369819D02*
X127484648Y-100322200D01*
X127484648Y-100322200D02*
X127579886Y-100226961D01*
X127579886Y-100226961D02*
X127627505Y-100036485D01*
X127627505Y-100036485D02*
X127627505Y-99703152D01*
X127627505Y-99703152D02*
X127579886Y-99512676D01*
X127579886Y-99512676D02*
X127484648Y-99417438D01*
X127484648Y-99417438D02*
X127389410Y-99369819D01*
X126532267Y-100369819D02*
X126532267Y-99369819D01*
X126532267Y-99369819D02*
X125960839Y-100369819D01*
X125960839Y-100369819D02*
X125960839Y-99369819D01*
X125627505Y-99369819D02*
X125056077Y-99369819D01*
X125341791Y-100369819D02*
X125341791Y-99369819D01*
X124151315Y-100369819D02*
X124484648Y-99893628D01*
X124722743Y-100369819D02*
X124722743Y-99369819D01*
X124722743Y-99369819D02*
X124341791Y-99369819D01*
X124341791Y-99369819D02*
X124246553Y-99417438D01*
X124246553Y-99417438D02*
X124198934Y-99465057D01*
X124198934Y-99465057D02*
X124151315Y-99560295D01*
X124151315Y-99560295D02*
X124151315Y-99703152D01*
X124151315Y-99703152D02*
X124198934Y-99798390D01*
X124198934Y-99798390D02*
X124246553Y-99846009D01*
X124246553Y-99846009D02*
X124341791Y-99893628D01*
X124341791Y-99893628D02*
X124722743Y-99893628D01*
X123532267Y-99369819D02*
X123341791Y-99369819D01*
X123341791Y-99369819D02*
X123246553Y-99417438D01*
X123246553Y-99417438D02*
X123151315Y-99512676D01*
X123151315Y-99512676D02*
X123103696Y-99703152D01*
X123103696Y-99703152D02*
X123103696Y-100036485D01*
X123103696Y-100036485D02*
X123151315Y-100226961D01*
X123151315Y-100226961D02*
X123246553Y-100322200D01*
X123246553Y-100322200D02*
X123341791Y-100369819D01*
X123341791Y-100369819D02*
X123532267Y-100369819D01*
X123532267Y-100369819D02*
X123627505Y-100322200D01*
X123627505Y-100322200D02*
X123722743Y-100226961D01*
X123722743Y-100226961D02*
X123770362Y-100036485D01*
X123770362Y-100036485D02*
X123770362Y-99703152D01*
X123770362Y-99703152D02*
X123722743Y-99512676D01*
X123722743Y-99512676D02*
X123627505Y-99417438D01*
X123627505Y-99417438D02*
X123532267Y-99369819D01*
X122198934Y-100369819D02*
X122675124Y-100369819D01*
X122675124Y-100369819D02*
X122675124Y-99369819D01*
X120770362Y-99846009D02*
X120627505Y-99893628D01*
X120627505Y-99893628D02*
X120579886Y-99941247D01*
X120579886Y-99941247D02*
X120532267Y-100036485D01*
X120532267Y-100036485D02*
X120532267Y-100179342D01*
X120532267Y-100179342D02*
X120579886Y-100274580D01*
X120579886Y-100274580D02*
X120627505Y-100322200D01*
X120627505Y-100322200D02*
X120722743Y-100369819D01*
X120722743Y-100369819D02*
X121103695Y-100369819D01*
X121103695Y-100369819D02*
X121103695Y-99369819D01*
X121103695Y-99369819D02*
X120770362Y-99369819D01*
X120770362Y-99369819D02*
X120675124Y-99417438D01*
X120675124Y-99417438D02*
X120627505Y-99465057D01*
X120627505Y-99465057D02*
X120579886Y-99560295D01*
X120579886Y-99560295D02*
X120579886Y-99655533D01*
X120579886Y-99655533D02*
X120627505Y-99750771D01*
X120627505Y-99750771D02*
X120675124Y-99798390D01*
X120675124Y-99798390D02*
X120770362Y-99846009D01*
X120770362Y-99846009D02*
X121103695Y-99846009D01*
X119913219Y-99369819D02*
X119722743Y-99369819D01*
X119722743Y-99369819D02*
X119627505Y-99417438D01*
X119627505Y-99417438D02*
X119532267Y-99512676D01*
X119532267Y-99512676D02*
X119484648Y-99703152D01*
X119484648Y-99703152D02*
X119484648Y-100036485D01*
X119484648Y-100036485D02*
X119532267Y-100226961D01*
X119532267Y-100226961D02*
X119627505Y-100322200D01*
X119627505Y-100322200D02*
X119722743Y-100369819D01*
X119722743Y-100369819D02*
X119913219Y-100369819D01*
X119913219Y-100369819D02*
X120008457Y-100322200D01*
X120008457Y-100322200D02*
X120103695Y-100226961D01*
X120103695Y-100226961D02*
X120151314Y-100036485D01*
X120151314Y-100036485D02*
X120151314Y-99703152D01*
X120151314Y-99703152D02*
X120103695Y-99512676D01*
X120103695Y-99512676D02*
X120008457Y-99417438D01*
X120008457Y-99417438D02*
X119913219Y-99369819D01*
X119103695Y-100084104D02*
X118627505Y-100084104D01*
X119198933Y-100369819D02*
X118865600Y-99369819D01*
X118865600Y-99369819D02*
X118532267Y-100369819D01*
X117627505Y-100369819D02*
X117960838Y-99893628D01*
X118198933Y-100369819D02*
X118198933Y-99369819D01*
X118198933Y-99369819D02*
X117817981Y-99369819D01*
X117817981Y-99369819D02*
X117722743Y-99417438D01*
X117722743Y-99417438D02*
X117675124Y-99465057D01*
X117675124Y-99465057D02*
X117627505Y-99560295D01*
X117627505Y-99560295D02*
X117627505Y-99703152D01*
X117627505Y-99703152D02*
X117675124Y-99798390D01*
X117675124Y-99798390D02*
X117722743Y-99846009D01*
X117722743Y-99846009D02*
X117817981Y-99893628D01*
X117817981Y-99893628D02*
X118198933Y-99893628D01*
X117198933Y-100369819D02*
X117198933Y-99369819D01*
X117198933Y-99369819D02*
X116960838Y-99369819D01*
X116960838Y-99369819D02*
X116817981Y-99417438D01*
X116817981Y-99417438D02*
X116722743Y-99512676D01*
X116722743Y-99512676D02*
X116675124Y-99607914D01*
X116675124Y-99607914D02*
X116627505Y-99798390D01*
X116627505Y-99798390D02*
X116627505Y-99941247D01*
X116627505Y-99941247D02*
X116675124Y-100131723D01*
X116675124Y-100131723D02*
X116722743Y-100226961D01*
X116722743Y-100226961D02*
X116817981Y-100322200D01*
X116817981Y-100322200D02*
X116960838Y-100369819D01*
X116960838Y-100369819D02*
X117198933Y-100369819D01*
D13*
X62697571Y-107928759D02*
X62783285Y-108043045D01*
X62783285Y-108043045D02*
X62783285Y-108214473D01*
X62783285Y-108214473D02*
X62697571Y-108385902D01*
X62697571Y-108385902D02*
X62526142Y-108500187D01*
X62526142Y-108500187D02*
X62354714Y-108557330D01*
X62354714Y-108557330D02*
X62011857Y-108614473D01*
X62011857Y-108614473D02*
X61754714Y-108614473D01*
X61754714Y-108614473D02*
X61411857Y-108557330D01*
X61411857Y-108557330D02*
X61240428Y-108500187D01*
X61240428Y-108500187D02*
X61069000Y-108385902D01*
X61069000Y-108385902D02*
X60983285Y-108214473D01*
X60983285Y-108214473D02*
X60983285Y-108100187D01*
X60983285Y-108100187D02*
X61069000Y-107928759D01*
X61069000Y-107928759D02*
X61154714Y-107871616D01*
X61154714Y-107871616D02*
X61754714Y-107871616D01*
X61754714Y-107871616D02*
X61754714Y-108100187D01*
X60983285Y-106671616D02*
X61840428Y-107071616D01*
X60983285Y-107357330D02*
X62783285Y-107357330D01*
X62783285Y-107357330D02*
X62783285Y-106900187D01*
X62783285Y-106900187D02*
X62697571Y-106785902D01*
X62697571Y-106785902D02*
X62611857Y-106728759D01*
X62611857Y-106728759D02*
X62440428Y-106671616D01*
X62440428Y-106671616D02*
X62183285Y-106671616D01*
X62183285Y-106671616D02*
X62011857Y-106728759D01*
X62011857Y-106728759D02*
X61926142Y-106785902D01*
X61926142Y-106785902D02*
X61840428Y-106900187D01*
X61840428Y-106900187D02*
X61840428Y-107357330D01*
X60983285Y-106157330D02*
X62783285Y-106157330D01*
X60983285Y-105585901D02*
X62783285Y-105585901D01*
X62783285Y-105585901D02*
X62783285Y-105300187D01*
X62783285Y-105300187D02*
X62697571Y-105128758D01*
X62697571Y-105128758D02*
X62526142Y-105014473D01*
X62526142Y-105014473D02*
X62354714Y-104957330D01*
X62354714Y-104957330D02*
X62011857Y-104900187D01*
X62011857Y-104900187D02*
X61754714Y-104900187D01*
X61754714Y-104900187D02*
X61411857Y-104957330D01*
X61411857Y-104957330D02*
X61240428Y-105014473D01*
X61240428Y-105014473D02*
X61069000Y-105128758D01*
X61069000Y-105128758D02*
X60983285Y-105300187D01*
X60983285Y-105300187D02*
X60983285Y-105585901D01*
X60811857Y-104671616D02*
X60811857Y-103757330D01*
X61926142Y-103471615D02*
X61926142Y-103071615D01*
X60983285Y-102900187D02*
X60983285Y-103471615D01*
X60983285Y-103471615D02*
X62783285Y-103471615D01*
X62783285Y-103471615D02*
X62783285Y-102900187D01*
X60983285Y-102385901D02*
X62783285Y-102385901D01*
X62783285Y-102385901D02*
X60983285Y-101700187D01*
X60983285Y-101700187D02*
X62783285Y-101700187D01*
X95564474Y-104075619D02*
X95678760Y-104001809D01*
X95678760Y-104001809D02*
X95850188Y-104001809D01*
X95850188Y-104001809D02*
X96021617Y-104075619D01*
X96021617Y-104075619D02*
X96135902Y-104223238D01*
X96135902Y-104223238D02*
X96193045Y-104370857D01*
X96193045Y-104370857D02*
X96250188Y-104666095D01*
X96250188Y-104666095D02*
X96250188Y-104887523D01*
X96250188Y-104887523D02*
X96193045Y-105182761D01*
X96193045Y-105182761D02*
X96135902Y-105330380D01*
X96135902Y-105330380D02*
X96021617Y-105478000D01*
X96021617Y-105478000D02*
X95850188Y-105551809D01*
X95850188Y-105551809D02*
X95735902Y-105551809D01*
X95735902Y-105551809D02*
X95564474Y-105478000D01*
X95564474Y-105478000D02*
X95507331Y-105404190D01*
X95507331Y-105404190D02*
X95507331Y-104887523D01*
X95507331Y-104887523D02*
X95735902Y-104887523D01*
X94307331Y-105551809D02*
X94707331Y-104813714D01*
X94993045Y-105551809D02*
X94993045Y-104001809D01*
X94993045Y-104001809D02*
X94535902Y-104001809D01*
X94535902Y-104001809D02*
X94421617Y-104075619D01*
X94421617Y-104075619D02*
X94364474Y-104149428D01*
X94364474Y-104149428D02*
X94307331Y-104297047D01*
X94307331Y-104297047D02*
X94307331Y-104518476D01*
X94307331Y-104518476D02*
X94364474Y-104666095D01*
X94364474Y-104666095D02*
X94421617Y-104739904D01*
X94421617Y-104739904D02*
X94535902Y-104813714D01*
X94535902Y-104813714D02*
X94993045Y-104813714D01*
X93793045Y-105551809D02*
X93793045Y-104001809D01*
X93221616Y-105551809D02*
X93221616Y-104001809D01*
X93221616Y-104001809D02*
X92935902Y-104001809D01*
X92935902Y-104001809D02*
X92764473Y-104075619D01*
X92764473Y-104075619D02*
X92650188Y-104223238D01*
X92650188Y-104223238D02*
X92593045Y-104370857D01*
X92593045Y-104370857D02*
X92535902Y-104666095D01*
X92535902Y-104666095D02*
X92535902Y-104887523D01*
X92535902Y-104887523D02*
X92593045Y-105182761D01*
X92593045Y-105182761D02*
X92650188Y-105330380D01*
X92650188Y-105330380D02*
X92764473Y-105478000D01*
X92764473Y-105478000D02*
X92935902Y-105551809D01*
X92935902Y-105551809D02*
X93221616Y-105551809D01*
X92307331Y-105699428D02*
X91393045Y-105699428D01*
X91107330Y-104739904D02*
X90707330Y-104739904D01*
X90535902Y-105551809D02*
X91107330Y-105551809D01*
X91107330Y-105551809D02*
X91107330Y-104001809D01*
X91107330Y-104001809D02*
X90535902Y-104001809D01*
X90021616Y-105551809D02*
X90021616Y-104001809D01*
X90021616Y-104001809D02*
X89335902Y-105551809D01*
X89335902Y-105551809D02*
X89335902Y-104001809D01*
X87507330Y-106142285D02*
X87564473Y-106068476D01*
X87564473Y-106068476D02*
X87678759Y-105847047D01*
X87678759Y-105847047D02*
X87735902Y-105699428D01*
X87735902Y-105699428D02*
X87793044Y-105478000D01*
X87793044Y-105478000D02*
X87850187Y-105108952D01*
X87850187Y-105108952D02*
X87850187Y-104813714D01*
X87850187Y-104813714D02*
X87793044Y-104444666D01*
X87793044Y-104444666D02*
X87735902Y-104223238D01*
X87735902Y-104223238D02*
X87678759Y-104075619D01*
X87678759Y-104075619D02*
X87564473Y-103854190D01*
X87564473Y-103854190D02*
X87507330Y-103780380D01*
X86650187Y-104739904D02*
X86478759Y-104813714D01*
X86478759Y-104813714D02*
X86421616Y-104887523D01*
X86421616Y-104887523D02*
X86364473Y-105035142D01*
X86364473Y-105035142D02*
X86364473Y-105256571D01*
X86364473Y-105256571D02*
X86421616Y-105404190D01*
X86421616Y-105404190D02*
X86478759Y-105478000D01*
X86478759Y-105478000D02*
X86593044Y-105551809D01*
X86593044Y-105551809D02*
X87050187Y-105551809D01*
X87050187Y-105551809D02*
X87050187Y-104001809D01*
X87050187Y-104001809D02*
X86650187Y-104001809D01*
X86650187Y-104001809D02*
X86535902Y-104075619D01*
X86535902Y-104075619D02*
X86478759Y-104149428D01*
X86478759Y-104149428D02*
X86421616Y-104297047D01*
X86421616Y-104297047D02*
X86421616Y-104444666D01*
X86421616Y-104444666D02*
X86478759Y-104592285D01*
X86478759Y-104592285D02*
X86535902Y-104666095D01*
X86535902Y-104666095D02*
X86650187Y-104739904D01*
X86650187Y-104739904D02*
X87050187Y-104739904D01*
X85278759Y-105551809D02*
X85850187Y-105551809D01*
X85850187Y-105551809D02*
X85850187Y-104001809D01*
X84878758Y-105551809D02*
X84878758Y-104001809D01*
X84193044Y-105551809D02*
X84707330Y-104666095D01*
X84193044Y-104001809D02*
X84878758Y-104887523D01*
X83793044Y-106142285D02*
X83735901Y-106068476D01*
X83735901Y-106068476D02*
X83621615Y-105847047D01*
X83621615Y-105847047D02*
X83564473Y-105699428D01*
X83564473Y-105699428D02*
X83507330Y-105478000D01*
X83507330Y-105478000D02*
X83450187Y-105108952D01*
X83450187Y-105108952D02*
X83450187Y-104813714D01*
X83450187Y-104813714D02*
X83507330Y-104444666D01*
X83507330Y-104444666D02*
X83564473Y-104223238D01*
X83564473Y-104223238D02*
X83621615Y-104075619D01*
X83621615Y-104075619D02*
X83735901Y-103854190D01*
X83735901Y-103854190D02*
X83793044Y-103780380D01*
X93735901Y-107456833D02*
X92821616Y-107456833D01*
X93278758Y-108047309D02*
X93278758Y-106866357D01*
X91621616Y-108047309D02*
X92307330Y-108047309D01*
X91964473Y-108047309D02*
X91964473Y-106497309D01*
X91964473Y-106497309D02*
X92078759Y-106718738D01*
X92078759Y-106718738D02*
X92193044Y-106866357D01*
X92193044Y-106866357D02*
X92307330Y-106940166D01*
X91164473Y-106644928D02*
X91107330Y-106571119D01*
X91107330Y-106571119D02*
X90993045Y-106497309D01*
X90993045Y-106497309D02*
X90707330Y-106497309D01*
X90707330Y-106497309D02*
X90593045Y-106571119D01*
X90593045Y-106571119D02*
X90535902Y-106644928D01*
X90535902Y-106644928D02*
X90478759Y-106792547D01*
X90478759Y-106792547D02*
X90478759Y-106940166D01*
X90478759Y-106940166D02*
X90535902Y-107161595D01*
X90535902Y-107161595D02*
X91221616Y-108047309D01*
X91221616Y-108047309D02*
X90478759Y-108047309D01*
X90135902Y-106497309D02*
X89735902Y-108047309D01*
X89735902Y-108047309D02*
X89335902Y-106497309D01*
X87678759Y-108637785D02*
X87735902Y-108563976D01*
X87735902Y-108563976D02*
X87850188Y-108342547D01*
X87850188Y-108342547D02*
X87907331Y-108194928D01*
X87907331Y-108194928D02*
X87964473Y-107973500D01*
X87964473Y-107973500D02*
X88021616Y-107604452D01*
X88021616Y-107604452D02*
X88021616Y-107309214D01*
X88021616Y-107309214D02*
X87964473Y-106940166D01*
X87964473Y-106940166D02*
X87907331Y-106718738D01*
X87907331Y-106718738D02*
X87850188Y-106571119D01*
X87850188Y-106571119D02*
X87735902Y-106349690D01*
X87735902Y-106349690D02*
X87678759Y-106275880D01*
X87335902Y-106497309D02*
X87050188Y-108047309D01*
X87050188Y-108047309D02*
X86821616Y-106940166D01*
X86821616Y-106940166D02*
X86593045Y-108047309D01*
X86593045Y-108047309D02*
X86307331Y-106497309D01*
X85850187Y-108047309D02*
X85850187Y-106497309D01*
X85850187Y-107235404D02*
X85164473Y-107235404D01*
X85164473Y-108047309D02*
X85164473Y-106497309D01*
X84764473Y-106497309D02*
X84078759Y-106497309D01*
X84421616Y-108047309D02*
X84421616Y-106497309D01*
X83793044Y-108637785D02*
X83735901Y-108563976D01*
X83735901Y-108563976D02*
X83621615Y-108342547D01*
X83621615Y-108342547D02*
X83564473Y-108194928D01*
X83564473Y-108194928D02*
X83507330Y-107973500D01*
X83507330Y-107973500D02*
X83450187Y-107604452D01*
X83450187Y-107604452D02*
X83450187Y-107309214D01*
X83450187Y-107309214D02*
X83507330Y-106940166D01*
X83507330Y-106940166D02*
X83564473Y-106718738D01*
X83564473Y-106718738D02*
X83621615Y-106571119D01*
X83621615Y-106571119D02*
X83735901Y-106349690D01*
X83735901Y-106349690D02*
X83793044Y-106275880D01*
D12*
X179187030Y-107119819D02*
X179663220Y-107119819D01*
X179663220Y-107119819D02*
X179710839Y-107596009D01*
X179710839Y-107596009D02*
X179663220Y-107548390D01*
X179663220Y-107548390D02*
X179567982Y-107500771D01*
X179567982Y-107500771D02*
X179329887Y-107500771D01*
X179329887Y-107500771D02*
X179234649Y-107548390D01*
X179234649Y-107548390D02*
X179187030Y-107596009D01*
X179187030Y-107596009D02*
X179139411Y-107691247D01*
X179139411Y-107691247D02*
X179139411Y-107929342D01*
X179139411Y-107929342D02*
X179187030Y-108024580D01*
X179187030Y-108024580D02*
X179234649Y-108072200D01*
X179234649Y-108072200D02*
X179329887Y-108119819D01*
X179329887Y-108119819D02*
X179567982Y-108119819D01*
X179567982Y-108119819D02*
X179663220Y-108072200D01*
X179663220Y-108072200D02*
X179710839Y-108024580D01*
X178710839Y-108119819D02*
X178710839Y-107453152D01*
X178710839Y-107548390D02*
X178663220Y-107500771D01*
X178663220Y-107500771D02*
X178567982Y-107453152D01*
X178567982Y-107453152D02*
X178425125Y-107453152D01*
X178425125Y-107453152D02*
X178329887Y-107500771D01*
X178329887Y-107500771D02*
X178282268Y-107596009D01*
X178282268Y-107596009D02*
X178282268Y-108119819D01*
X178282268Y-107596009D02*
X178234649Y-107500771D01*
X178234649Y-107500771D02*
X178139411Y-107453152D01*
X178139411Y-107453152D02*
X177996554Y-107453152D01*
X177996554Y-107453152D02*
X177901315Y-107500771D01*
X177901315Y-107500771D02*
X177853696Y-107596009D01*
X177853696Y-107596009D02*
X177853696Y-108119819D01*
X177377506Y-108119819D02*
X177377506Y-107453152D01*
X177377506Y-107548390D02*
X177329887Y-107500771D01*
X177329887Y-107500771D02*
X177234649Y-107453152D01*
X177234649Y-107453152D02*
X177091792Y-107453152D01*
X177091792Y-107453152D02*
X176996554Y-107500771D01*
X176996554Y-107500771D02*
X176948935Y-107596009D01*
X176948935Y-107596009D02*
X176948935Y-108119819D01*
X176948935Y-107596009D02*
X176901316Y-107500771D01*
X176901316Y-107500771D02*
X176806078Y-107453152D01*
X176806078Y-107453152D02*
X176663221Y-107453152D01*
X176663221Y-107453152D02*
X176567982Y-107500771D01*
X176567982Y-107500771D02*
X176520363Y-107596009D01*
X176520363Y-107596009D02*
X176520363Y-108119819D01*
X118604819Y-101714286D02*
X118604819Y-102285714D01*
X119604819Y-102000000D02*
X118604819Y-102000000D01*
X119604819Y-102619048D02*
X118604819Y-102619048D01*
X119081009Y-102619048D02*
X119081009Y-103190476D01*
X119604819Y-103190476D02*
X118604819Y-103190476D01*
X119604819Y-104190476D02*
X119604819Y-103619048D01*
X119604819Y-103904762D02*
X118604819Y-103904762D01*
X118604819Y-103904762D02*
X118747676Y-103809524D01*
X118747676Y-103809524D02*
X118842914Y-103714286D01*
X118842914Y-103714286D02*
X118890533Y-103619048D01*
X78583333Y-101954819D02*
X78583333Y-102669104D01*
X78583333Y-102669104D02*
X78630952Y-102811961D01*
X78630952Y-102811961D02*
X78726190Y-102907200D01*
X78726190Y-102907200D02*
X78869047Y-102954819D01*
X78869047Y-102954819D02*
X78964285Y-102954819D01*
X78154761Y-102050057D02*
X78107142Y-102002438D01*
X78107142Y-102002438D02*
X78011904Y-101954819D01*
X78011904Y-101954819D02*
X77773809Y-101954819D01*
X77773809Y-101954819D02*
X77678571Y-102002438D01*
X77678571Y-102002438D02*
X77630952Y-102050057D01*
X77630952Y-102050057D02*
X77583333Y-102145295D01*
X77583333Y-102145295D02*
X77583333Y-102240533D01*
X77583333Y-102240533D02*
X77630952Y-102383390D01*
X77630952Y-102383390D02*
X78202380Y-102954819D01*
X78202380Y-102954819D02*
X77583333Y-102954819D01*
X150204819Y-102833333D02*
X149728628Y-102500000D01*
X150204819Y-102261905D02*
X149204819Y-102261905D01*
X149204819Y-102261905D02*
X149204819Y-102642857D01*
X149204819Y-102642857D02*
X149252438Y-102738095D01*
X149252438Y-102738095D02*
X149300057Y-102785714D01*
X149300057Y-102785714D02*
X149395295Y-102833333D01*
X149395295Y-102833333D02*
X149538152Y-102833333D01*
X149538152Y-102833333D02*
X149633390Y-102785714D01*
X149633390Y-102785714D02*
X149681009Y-102738095D01*
X149681009Y-102738095D02*
X149728628Y-102642857D01*
X149728628Y-102642857D02*
X149728628Y-102261905D01*
X149538152Y-103690476D02*
X150204819Y-103690476D01*
X149157200Y-103452381D02*
X149871485Y-103214286D01*
X149871485Y-103214286D02*
X149871485Y-103833333D01*
X139604819Y-102833333D02*
X139128628Y-102500000D01*
X139604819Y-102261905D02*
X138604819Y-102261905D01*
X138604819Y-102261905D02*
X138604819Y-102642857D01*
X138604819Y-102642857D02*
X138652438Y-102738095D01*
X138652438Y-102738095D02*
X138700057Y-102785714D01*
X138700057Y-102785714D02*
X138795295Y-102833333D01*
X138795295Y-102833333D02*
X138938152Y-102833333D01*
X138938152Y-102833333D02*
X139033390Y-102785714D01*
X139033390Y-102785714D02*
X139081009Y-102738095D01*
X139081009Y-102738095D02*
X139128628Y-102642857D01*
X139128628Y-102642857D02*
X139128628Y-102261905D01*
X138700057Y-103214286D02*
X138652438Y-103261905D01*
X138652438Y-103261905D02*
X138604819Y-103357143D01*
X138604819Y-103357143D02*
X138604819Y-103595238D01*
X138604819Y-103595238D02*
X138652438Y-103690476D01*
X138652438Y-103690476D02*
X138700057Y-103738095D01*
X138700057Y-103738095D02*
X138795295Y-103785714D01*
X138795295Y-103785714D02*
X138890533Y-103785714D01*
X138890533Y-103785714D02*
X139033390Y-103738095D01*
X139033390Y-103738095D02*
X139604819Y-103166667D01*
X139604819Y-103166667D02*
X139604819Y-103785714D01*
X136104819Y-102833333D02*
X135628628Y-102500000D01*
X136104819Y-102261905D02*
X135104819Y-102261905D01*
X135104819Y-102261905D02*
X135104819Y-102642857D01*
X135104819Y-102642857D02*
X135152438Y-102738095D01*
X135152438Y-102738095D02*
X135200057Y-102785714D01*
X135200057Y-102785714D02*
X135295295Y-102833333D01*
X135295295Y-102833333D02*
X135438152Y-102833333D01*
X135438152Y-102833333D02*
X135533390Y-102785714D01*
X135533390Y-102785714D02*
X135581009Y-102738095D01*
X135581009Y-102738095D02*
X135628628Y-102642857D01*
X135628628Y-102642857D02*
X135628628Y-102261905D01*
X135104819Y-103166667D02*
X135104819Y-103785714D01*
X135104819Y-103785714D02*
X135485771Y-103452381D01*
X135485771Y-103452381D02*
X135485771Y-103595238D01*
X135485771Y-103595238D02*
X135533390Y-103690476D01*
X135533390Y-103690476D02*
X135581009Y-103738095D01*
X135581009Y-103738095D02*
X135676247Y-103785714D01*
X135676247Y-103785714D02*
X135914342Y-103785714D01*
X135914342Y-103785714D02*
X136009580Y-103738095D01*
X136009580Y-103738095D02*
X136057200Y-103690476D01*
X136057200Y-103690476D02*
X136104819Y-103595238D01*
X136104819Y-103595238D02*
X136104819Y-103309524D01*
X136104819Y-103309524D02*
X136057200Y-103214286D01*
X136057200Y-103214286D02*
X136009580Y-103166667D01*
X126539580Y-102833333D02*
X126587200Y-102785714D01*
X126587200Y-102785714D02*
X126634819Y-102642857D01*
X126634819Y-102642857D02*
X126634819Y-102547619D01*
X126634819Y-102547619D02*
X126587200Y-102404762D01*
X126587200Y-102404762D02*
X126491961Y-102309524D01*
X126491961Y-102309524D02*
X126396723Y-102261905D01*
X126396723Y-102261905D02*
X126206247Y-102214286D01*
X126206247Y-102214286D02*
X126063390Y-102214286D01*
X126063390Y-102214286D02*
X125872914Y-102261905D01*
X125872914Y-102261905D02*
X125777676Y-102309524D01*
X125777676Y-102309524D02*
X125682438Y-102404762D01*
X125682438Y-102404762D02*
X125634819Y-102547619D01*
X125634819Y-102547619D02*
X125634819Y-102642857D01*
X125634819Y-102642857D02*
X125682438Y-102785714D01*
X125682438Y-102785714D02*
X125730057Y-102833333D01*
X126634819Y-103785714D02*
X126634819Y-103214286D01*
X126634819Y-103500000D02*
X125634819Y-103500000D01*
X125634819Y-103500000D02*
X125777676Y-103404762D01*
X125777676Y-103404762D02*
X125872914Y-103309524D01*
X125872914Y-103309524D02*
X125920533Y-103214286D01*
X153604819Y-102833333D02*
X153128628Y-102500000D01*
X153604819Y-102261905D02*
X152604819Y-102261905D01*
X152604819Y-102261905D02*
X152604819Y-102642857D01*
X152604819Y-102642857D02*
X152652438Y-102738095D01*
X152652438Y-102738095D02*
X152700057Y-102785714D01*
X152700057Y-102785714D02*
X152795295Y-102833333D01*
X152795295Y-102833333D02*
X152938152Y-102833333D01*
X152938152Y-102833333D02*
X153033390Y-102785714D01*
X153033390Y-102785714D02*
X153081009Y-102738095D01*
X153081009Y-102738095D02*
X153128628Y-102642857D01*
X153128628Y-102642857D02*
X153128628Y-102261905D01*
X152604819Y-103690476D02*
X152604819Y-103500000D01*
X152604819Y-103500000D02*
X152652438Y-103404762D01*
X152652438Y-103404762D02*
X152700057Y-103357143D01*
X152700057Y-103357143D02*
X152842914Y-103261905D01*
X152842914Y-103261905D02*
X153033390Y-103214286D01*
X153033390Y-103214286D02*
X153414342Y-103214286D01*
X153414342Y-103214286D02*
X153509580Y-103261905D01*
X153509580Y-103261905D02*
X153557200Y-103309524D01*
X153557200Y-103309524D02*
X153604819Y-103404762D01*
X153604819Y-103404762D02*
X153604819Y-103595238D01*
X153604819Y-103595238D02*
X153557200Y-103690476D01*
X153557200Y-103690476D02*
X153509580Y-103738095D01*
X153509580Y-103738095D02*
X153414342Y-103785714D01*
X153414342Y-103785714D02*
X153176247Y-103785714D01*
X153176247Y-103785714D02*
X153081009Y-103738095D01*
X153081009Y-103738095D02*
X153033390Y-103690476D01*
X153033390Y-103690476D02*
X152985771Y-103595238D01*
X152985771Y-103595238D02*
X152985771Y-103404762D01*
X152985771Y-103404762D02*
X153033390Y-103309524D01*
X153033390Y-103309524D02*
X153081009Y-103261905D01*
X153081009Y-103261905D02*
X153176247Y-103214286D01*
X131454819Y-102238095D02*
X132264342Y-102238095D01*
X132264342Y-102238095D02*
X132359580Y-102285714D01*
X132359580Y-102285714D02*
X132407200Y-102333333D01*
X132407200Y-102333333D02*
X132454819Y-102428571D01*
X132454819Y-102428571D02*
X132454819Y-102619047D01*
X132454819Y-102619047D02*
X132407200Y-102714285D01*
X132407200Y-102714285D02*
X132359580Y-102761904D01*
X132359580Y-102761904D02*
X132264342Y-102809523D01*
X132264342Y-102809523D02*
X131454819Y-102809523D01*
X132454819Y-103809523D02*
X132454819Y-103238095D01*
X132454819Y-103523809D02*
X131454819Y-103523809D01*
X131454819Y-103523809D02*
X131597676Y-103428571D01*
X131597676Y-103428571D02*
X131692914Y-103333333D01*
X131692914Y-103333333D02*
X131740533Y-103238095D01*
X123204819Y-102833333D02*
X122728628Y-102500000D01*
X123204819Y-102261905D02*
X122204819Y-102261905D01*
X122204819Y-102261905D02*
X122204819Y-102642857D01*
X122204819Y-102642857D02*
X122252438Y-102738095D01*
X122252438Y-102738095D02*
X122300057Y-102785714D01*
X122300057Y-102785714D02*
X122395295Y-102833333D01*
X122395295Y-102833333D02*
X122538152Y-102833333D01*
X122538152Y-102833333D02*
X122633390Y-102785714D01*
X122633390Y-102785714D02*
X122681009Y-102738095D01*
X122681009Y-102738095D02*
X122728628Y-102642857D01*
X122728628Y-102642857D02*
X122728628Y-102261905D01*
X123204819Y-103309524D02*
X123204819Y-103500000D01*
X123204819Y-103500000D02*
X123157200Y-103595238D01*
X123157200Y-103595238D02*
X123109580Y-103642857D01*
X123109580Y-103642857D02*
X122966723Y-103738095D01*
X122966723Y-103738095D02*
X122776247Y-103785714D01*
X122776247Y-103785714D02*
X122395295Y-103785714D01*
X122395295Y-103785714D02*
X122300057Y-103738095D01*
X122300057Y-103738095D02*
X122252438Y-103690476D01*
X122252438Y-103690476D02*
X122204819Y-103595238D01*
X122204819Y-103595238D02*
X122204819Y-103404762D01*
X122204819Y-103404762D02*
X122252438Y-103309524D01*
X122252438Y-103309524D02*
X122300057Y-103261905D01*
X122300057Y-103261905D02*
X122395295Y-103214286D01*
X122395295Y-103214286D02*
X122633390Y-103214286D01*
X122633390Y-103214286D02*
X122728628Y-103261905D01*
X122728628Y-103261905D02*
X122776247Y-103309524D01*
X122776247Y-103309524D02*
X122823866Y-103404762D01*
X122823866Y-103404762D02*
X122823866Y-103595238D01*
X122823866Y-103595238D02*
X122776247Y-103690476D01*
X122776247Y-103690476D02*
X122728628Y-103738095D01*
X122728628Y-103738095D02*
X122633390Y-103785714D01*
X242778333Y-106454819D02*
X242778333Y-107169104D01*
X242778333Y-107169104D02*
X242825952Y-107311961D01*
X242825952Y-107311961D02*
X242921190Y-107407200D01*
X242921190Y-107407200D02*
X243064047Y-107454819D01*
X243064047Y-107454819D02*
X243159285Y-107454819D01*
X241873571Y-106788152D02*
X241873571Y-107454819D01*
X242111666Y-106407200D02*
X242349761Y-107121485D01*
X242349761Y-107121485D02*
X241730714Y-107121485D01*
X143104819Y-102833333D02*
X142628628Y-102500000D01*
X143104819Y-102261905D02*
X142104819Y-102261905D01*
X142104819Y-102261905D02*
X142104819Y-102642857D01*
X142104819Y-102642857D02*
X142152438Y-102738095D01*
X142152438Y-102738095D02*
X142200057Y-102785714D01*
X142200057Y-102785714D02*
X142295295Y-102833333D01*
X142295295Y-102833333D02*
X142438152Y-102833333D01*
X142438152Y-102833333D02*
X142533390Y-102785714D01*
X142533390Y-102785714D02*
X142581009Y-102738095D01*
X142581009Y-102738095D02*
X142628628Y-102642857D01*
X142628628Y-102642857D02*
X142628628Y-102261905D01*
X142533390Y-103404762D02*
X142485771Y-103309524D01*
X142485771Y-103309524D02*
X142438152Y-103261905D01*
X142438152Y-103261905D02*
X142342914Y-103214286D01*
X142342914Y-103214286D02*
X142295295Y-103214286D01*
X142295295Y-103214286D02*
X142200057Y-103261905D01*
X142200057Y-103261905D02*
X142152438Y-103309524D01*
X142152438Y-103309524D02*
X142104819Y-103404762D01*
X142104819Y-103404762D02*
X142104819Y-103595238D01*
X142104819Y-103595238D02*
X142152438Y-103690476D01*
X142152438Y-103690476D02*
X142200057Y-103738095D01*
X142200057Y-103738095D02*
X142295295Y-103785714D01*
X142295295Y-103785714D02*
X142342914Y-103785714D01*
X142342914Y-103785714D02*
X142438152Y-103738095D01*
X142438152Y-103738095D02*
X142485771Y-103690476D01*
X142485771Y-103690476D02*
X142533390Y-103595238D01*
X142533390Y-103595238D02*
X142533390Y-103404762D01*
X142533390Y-103404762D02*
X142581009Y-103309524D01*
X142581009Y-103309524D02*
X142628628Y-103261905D01*
X142628628Y-103261905D02*
X142723866Y-103214286D01*
X142723866Y-103214286D02*
X142914342Y-103214286D01*
X142914342Y-103214286D02*
X143009580Y-103261905D01*
X143009580Y-103261905D02*
X143057200Y-103309524D01*
X143057200Y-103309524D02*
X143104819Y-103404762D01*
X143104819Y-103404762D02*
X143104819Y-103595238D01*
X143104819Y-103595238D02*
X143057200Y-103690476D01*
X143057200Y-103690476D02*
X143009580Y-103738095D01*
X143009580Y-103738095D02*
X142914342Y-103785714D01*
X142914342Y-103785714D02*
X142723866Y-103785714D01*
X142723866Y-103785714D02*
X142628628Y-103738095D01*
X142628628Y-103738095D02*
X142581009Y-103690476D01*
X142581009Y-103690476D02*
X142533390Y-103595238D01*
X146604819Y-102833333D02*
X146128628Y-102500000D01*
X146604819Y-102261905D02*
X145604819Y-102261905D01*
X145604819Y-102261905D02*
X145604819Y-102642857D01*
X145604819Y-102642857D02*
X145652438Y-102738095D01*
X145652438Y-102738095D02*
X145700057Y-102785714D01*
X145700057Y-102785714D02*
X145795295Y-102833333D01*
X145795295Y-102833333D02*
X145938152Y-102833333D01*
X145938152Y-102833333D02*
X146033390Y-102785714D01*
X146033390Y-102785714D02*
X146081009Y-102738095D01*
X146081009Y-102738095D02*
X146128628Y-102642857D01*
X146128628Y-102642857D02*
X146128628Y-102261905D01*
X145604819Y-103166667D02*
X145604819Y-103833333D01*
X145604819Y-103833333D02*
X146604819Y-103404762D01*
X157017319Y-102833333D02*
X156541128Y-102500000D01*
X157017319Y-102261905D02*
X156017319Y-102261905D01*
X156017319Y-102261905D02*
X156017319Y-102642857D01*
X156017319Y-102642857D02*
X156064938Y-102738095D01*
X156064938Y-102738095D02*
X156112557Y-102785714D01*
X156112557Y-102785714D02*
X156207795Y-102833333D01*
X156207795Y-102833333D02*
X156350652Y-102833333D01*
X156350652Y-102833333D02*
X156445890Y-102785714D01*
X156445890Y-102785714D02*
X156493509Y-102738095D01*
X156493509Y-102738095D02*
X156541128Y-102642857D01*
X156541128Y-102642857D02*
X156541128Y-102261905D01*
X156017319Y-103738095D02*
X156017319Y-103261905D01*
X156017319Y-103261905D02*
X156493509Y-103214286D01*
X156493509Y-103214286D02*
X156445890Y-103261905D01*
X156445890Y-103261905D02*
X156398271Y-103357143D01*
X156398271Y-103357143D02*
X156398271Y-103595238D01*
X156398271Y-103595238D02*
X156445890Y-103690476D01*
X156445890Y-103690476D02*
X156493509Y-103738095D01*
X156493509Y-103738095D02*
X156588747Y-103785714D01*
X156588747Y-103785714D02*
X156826842Y-103785714D01*
X156826842Y-103785714D02*
X156922080Y-103738095D01*
X156922080Y-103738095D02*
X156969700Y-103690476D01*
X156969700Y-103690476D02*
X157017319Y-103595238D01*
X157017319Y-103595238D02*
X157017319Y-103357143D01*
X157017319Y-103357143D02*
X156969700Y-103261905D01*
X156969700Y-103261905D02*
X156922080Y-103214286D01*
X105416666Y-104054819D02*
X105749999Y-103578628D01*
X105988094Y-104054819D02*
X105988094Y-103054819D01*
X105988094Y-103054819D02*
X105607142Y-103054819D01*
X105607142Y-103054819D02*
X105511904Y-103102438D01*
X105511904Y-103102438D02*
X105464285Y-103150057D01*
X105464285Y-103150057D02*
X105416666Y-103245295D01*
X105416666Y-103245295D02*
X105416666Y-103388152D01*
X105416666Y-103388152D02*
X105464285Y-103483390D01*
X105464285Y-103483390D02*
X105511904Y-103531009D01*
X105511904Y-103531009D02*
X105607142Y-103578628D01*
X105607142Y-103578628D02*
X105988094Y-103578628D01*
X104464285Y-104054819D02*
X105035713Y-104054819D01*
X104749999Y-104054819D02*
X104749999Y-103054819D01*
X104749999Y-103054819D02*
X104845237Y-103197676D01*
X104845237Y-103197676D02*
X104940475Y-103292914D01*
X104940475Y-103292914D02*
X105035713Y-103340533D01*
X188833333Y-106454819D02*
X188833333Y-107169104D01*
X188833333Y-107169104D02*
X188880952Y-107311961D01*
X188880952Y-107311961D02*
X188976190Y-107407200D01*
X188976190Y-107407200D02*
X189119047Y-107454819D01*
X189119047Y-107454819D02*
X189214285Y-107454819D01*
X187833333Y-107454819D02*
X188404761Y-107454819D01*
X188119047Y-107454819D02*
X188119047Y-106454819D01*
X188119047Y-106454819D02*
X188214285Y-106597676D01*
X188214285Y-106597676D02*
X188309523Y-106692914D01*
X188309523Y-106692914D02*
X188404761Y-106740533D01*
X162550057Y-102904761D02*
X162502438Y-102809523D01*
X162502438Y-102809523D02*
X162407200Y-102714285D01*
X162407200Y-102714285D02*
X162264342Y-102571428D01*
X162264342Y-102571428D02*
X162216723Y-102476190D01*
X162216723Y-102476190D02*
X162216723Y-102380952D01*
X162454819Y-102428571D02*
X162407200Y-102333333D01*
X162407200Y-102333333D02*
X162311961Y-102238095D01*
X162311961Y-102238095D02*
X162121485Y-102190476D01*
X162121485Y-102190476D02*
X161788152Y-102190476D01*
X161788152Y-102190476D02*
X161597676Y-102238095D01*
X161597676Y-102238095D02*
X161502438Y-102333333D01*
X161502438Y-102333333D02*
X161454819Y-102428571D01*
X161454819Y-102428571D02*
X161454819Y-102619047D01*
X161454819Y-102619047D02*
X161502438Y-102714285D01*
X161502438Y-102714285D02*
X161597676Y-102809523D01*
X161597676Y-102809523D02*
X161788152Y-102857142D01*
X161788152Y-102857142D02*
X162121485Y-102857142D01*
X162121485Y-102857142D02*
X162311961Y-102809523D01*
X162311961Y-102809523D02*
X162407200Y-102714285D01*
X162407200Y-102714285D02*
X162454819Y-102619047D01*
X162454819Y-102619047D02*
X162454819Y-102428571D01*
X162454819Y-103809523D02*
X162454819Y-103238095D01*
X162454819Y-103523809D02*
X161454819Y-103523809D01*
X161454819Y-103523809D02*
X161597676Y-103428571D01*
X161597676Y-103428571D02*
X161692914Y-103333333D01*
X161692914Y-103333333D02*
X161740533Y-103238095D01*
D14*
%TO.C,TH1*%
X116765000Y-103227064D02*
X116765000Y-102772936D01*
X118235000Y-103227064D02*
X118235000Y-102772936D01*
%TO.C,J2*%
X70265000Y-103590000D02*
X82735000Y-103590000D01*
X70265000Y-108910000D02*
X70265000Y-103590000D01*
X73965000Y-103650000D02*
X79035000Y-103650000D01*
X73965000Y-108850000D02*
X73965000Y-103650000D01*
X75500000Y-108850000D02*
X73965000Y-108850000D01*
X79035000Y-103650000D02*
X79035000Y-108850000D01*
X79035000Y-108850000D02*
X77500000Y-108850000D01*
X82735000Y-103590000D02*
X82735000Y-108910000D01*
X82735000Y-108910000D02*
X70265000Y-108910000D01*
X77500000Y-108850000D02*
G75*
G03*
X75500000Y-108850000I-1000000J0D01*
G01*
%TO.C,R4*%
X147265000Y-103227064D02*
X147265000Y-102772936D01*
X148735000Y-103227064D02*
X148735000Y-102772936D01*
%TO.C,R2*%
X136765000Y-103227064D02*
X136765000Y-102772936D01*
X138235000Y-103227064D02*
X138235000Y-102772936D01*
%TO.C,R3*%
X133265000Y-103227064D02*
X133265000Y-102772936D01*
X134735000Y-103227064D02*
X134735000Y-102772936D01*
%TO.C,C1*%
X123765000Y-103261252D02*
X123765000Y-102738748D01*
X125235000Y-103261252D02*
X125235000Y-102738748D01*
%TO.C,R6*%
X150765000Y-103227064D02*
X150765000Y-102772936D01*
X152235000Y-103227064D02*
X152235000Y-102772936D01*
%TO.C,U1*%
X129137500Y-104560000D02*
X129937500Y-104560000D01*
X129137500Y-104560000D02*
X128337500Y-104560000D01*
X129137500Y-101440000D02*
X130937500Y-101440000D01*
X129137500Y-101440000D02*
X128337500Y-101440000D01*
%TO.C,R9*%
X121735000Y-102772936D02*
X121735000Y-103227064D01*
X120265000Y-102772936D02*
X120265000Y-103227064D01*
%TO.C,J4*%
X236210000Y-100590000D02*
X248680000Y-100590000D01*
X236210000Y-105910000D02*
X236210000Y-100590000D01*
X239910000Y-100650000D02*
X244980000Y-100650000D01*
X239910000Y-105850000D02*
X239910000Y-100650000D01*
X241445000Y-105850000D02*
X239910000Y-105850000D01*
X244980000Y-100650000D02*
X244980000Y-105850000D01*
X244980000Y-105850000D02*
X243445000Y-105850000D01*
X248680000Y-100590000D02*
X248680000Y-105910000D01*
X248680000Y-105910000D02*
X236210000Y-105910000D01*
X243445000Y-105850000D02*
G75*
G03*
X241445000Y-105850000I-1000000J0D01*
G01*
%TO.C,R8*%
X140265000Y-103227064D02*
X140265000Y-102772936D01*
X141735000Y-103227064D02*
X141735000Y-102772936D01*
%TO.C,R7*%
X143765000Y-103227064D02*
X143765000Y-102772936D01*
X145235000Y-103227064D02*
X145235000Y-102772936D01*
%TO.C,REF\u002A\u002A*%
D15*
X212611501Y-106626476D02*
X212692167Y-106656440D01*
X212725714Y-106678954D01*
X212759687Y-106711212D01*
X212783919Y-106752246D01*
X212800001Y-106808108D01*
X212809521Y-106884851D01*
X212814068Y-106988525D01*
X212815231Y-107125184D01*
X212815003Y-107195805D01*
X212813860Y-107292308D01*
X212811919Y-107369323D01*
X212809365Y-107420319D01*
X212806381Y-107438769D01*
X212786962Y-107432667D01*
X212747766Y-107416095D01*
X212746589Y-107415558D01*
X212726235Y-107404903D01*
X212712546Y-107390282D01*
X212704199Y-107364673D01*
X212699874Y-107321054D01*
X212698248Y-107252403D01*
X212698000Y-107151698D01*
X212697500Y-107087813D01*
X212692164Y-106967751D01*
X212679945Y-106879809D01*
X212659552Y-106819375D01*
X212629695Y-106781836D01*
X212589082Y-106762581D01*
X212583448Y-106761239D01*
X212507378Y-106760191D01*
X212448052Y-106794271D01*
X212407077Y-106862598D01*
X212399770Y-106882351D01*
X212383114Y-106926066D01*
X212374679Y-106946155D01*
X212357356Y-106943387D01*
X212319525Y-106928365D01*
X212284240Y-106903556D01*
X212268154Y-106856670D01*
X212272952Y-106823087D01*
X212302431Y-106754967D01*
X212350098Y-106691134D01*
X212405839Y-106646988D01*
X212429193Y-106636782D01*
X212517619Y-106619718D01*
X212611501Y-106626476D01*
G36*
X212611501Y-106626476D02*
G01*
X212692167Y-106656440D01*
X212725714Y-106678954D01*
X212759687Y-106711212D01*
X212783919Y-106752246D01*
X212800001Y-106808108D01*
X212809521Y-106884851D01*
X212814068Y-106988525D01*
X212815231Y-107125184D01*
X212815003Y-107195805D01*
X212813860Y-107292308D01*
X212811919Y-107369323D01*
X212809365Y-107420319D01*
X212806381Y-107438769D01*
X212786962Y-107432667D01*
X212747766Y-107416095D01*
X212746589Y-107415558D01*
X212726235Y-107404903D01*
X212712546Y-107390282D01*
X212704199Y-107364673D01*
X212699874Y-107321054D01*
X212698248Y-107252403D01*
X212698000Y-107151698D01*
X212697500Y-107087813D01*
X212692164Y-106967751D01*
X212679945Y-106879809D01*
X212659552Y-106819375D01*
X212629695Y-106781836D01*
X212589082Y-106762581D01*
X212583448Y-106761239D01*
X212507378Y-106760191D01*
X212448052Y-106794271D01*
X212407077Y-106862598D01*
X212399770Y-106882351D01*
X212383114Y-106926066D01*
X212374679Y-106946155D01*
X212357356Y-106943387D01*
X212319525Y-106928365D01*
X212284240Y-106903556D01*
X212268154Y-106856670D01*
X212272952Y-106823087D01*
X212302431Y-106754967D01*
X212350098Y-106691134D01*
X212405839Y-106646988D01*
X212429193Y-106636782D01*
X212517619Y-106619718D01*
X212611501Y-106626476D01*
G37*
X217926372Y-106581684D02*
X218017629Y-106624569D01*
X218092416Y-106698729D01*
X218107917Y-106721944D01*
X218120774Y-106748256D01*
X218129893Y-106781420D01*
X218136102Y-106827881D01*
X218140233Y-106894082D01*
X218143116Y-106986468D01*
X218145579Y-107111485D01*
X218151697Y-107458278D01*
X218100303Y-107438738D01*
X218053246Y-107420787D01*
X218018015Y-107403511D01*
X217995017Y-107381242D01*
X217981655Y-107347165D01*
X217975328Y-107294463D01*
X217973437Y-107216323D01*
X217973385Y-107105928D01*
X217973117Y-107017935D01*
X217971521Y-106933502D01*
X217967712Y-106875834D01*
X217960820Y-106837988D01*
X217949975Y-106813024D01*
X217934308Y-106794000D01*
X217895792Y-106767153D01*
X217831091Y-106757034D01*
X217767081Y-106782606D01*
X217762856Y-106785880D01*
X217749689Y-106801007D01*
X217739975Y-106825268D01*
X217732903Y-106864650D01*
X217727656Y-106925141D01*
X217723421Y-107012729D01*
X217719385Y-107133402D01*
X217709615Y-107456515D01*
X217543539Y-107382065D01*
X217543539Y-107087062D01*
X217543883Y-107006919D01*
X217546847Y-106895431D01*
X217554351Y-106812421D01*
X217568190Y-106751199D01*
X217590155Y-106705075D01*
X217622039Y-106667358D01*
X217665633Y-106631358D01*
X217728336Y-106595089D01*
X217827117Y-106571412D01*
X217926372Y-106581684D01*
G36*
X217926372Y-106581684D02*
G01*
X218017629Y-106624569D01*
X218092416Y-106698729D01*
X218107917Y-106721944D01*
X218120774Y-106748256D01*
X218129893Y-106781420D01*
X218136102Y-106827881D01*
X218140233Y-106894082D01*
X218143116Y-106986468D01*
X218145579Y-107111485D01*
X218151697Y-107458278D01*
X218100303Y-107438738D01*
X218053246Y-107420787D01*
X218018015Y-107403511D01*
X217995017Y-107381242D01*
X217981655Y-107347165D01*
X217975328Y-107294463D01*
X217973437Y-107216323D01*
X217973385Y-107105928D01*
X217973117Y-107017935D01*
X217971521Y-106933502D01*
X217967712Y-106875834D01*
X217960820Y-106837988D01*
X217949975Y-106813024D01*
X217934308Y-106794000D01*
X217895792Y-106767153D01*
X217831091Y-106757034D01*
X217767081Y-106782606D01*
X217762856Y-106785880D01*
X217749689Y-106801007D01*
X217739975Y-106825268D01*
X217732903Y-106864650D01*
X217727656Y-106925141D01*
X217723421Y-107012729D01*
X217719385Y-107133402D01*
X217709615Y-107456515D01*
X217543539Y-107382065D01*
X217543539Y-107087062D01*
X217543883Y-107006919D01*
X217546847Y-106895431D01*
X217554351Y-106812421D01*
X217568190Y-106751199D01*
X217590155Y-106705075D01*
X217622039Y-106667358D01*
X217665633Y-106631358D01*
X217728336Y-106595089D01*
X217827117Y-106571412D01*
X217926372Y-106581684D01*
G37*
X215471892Y-106647167D02*
X215478060Y-106650581D01*
X215528447Y-106689692D01*
X215573498Y-106739975D01*
X215581355Y-106751339D01*
X215596376Y-106777860D01*
X215607107Y-106809336D01*
X215614486Y-106852591D01*
X215619452Y-106914449D01*
X215622942Y-107001733D01*
X215625893Y-107121269D01*
X215626311Y-107141478D01*
X215627654Y-107272499D01*
X215625761Y-107365296D01*
X215620605Y-107420507D01*
X215612158Y-107438769D01*
X215586594Y-107433301D01*
X215543166Y-107416733D01*
X215532940Y-107411888D01*
X215516967Y-107400920D01*
X215505954Y-107382890D01*
X215498750Y-107351396D01*
X215494208Y-107300036D01*
X215491180Y-107222410D01*
X215488516Y-107112115D01*
X215487785Y-107079875D01*
X215484965Y-106978050D01*
X215481304Y-106906788D01*
X215475694Y-106859332D01*
X215467029Y-106828925D01*
X215454202Y-106808810D01*
X215436105Y-106792229D01*
X215382525Y-106763161D01*
X215316612Y-106757564D01*
X215257635Y-106779807D01*
X215215203Y-106825859D01*
X215198923Y-106891692D01*
X215198470Y-106909587D01*
X215189578Y-106941982D01*
X215163325Y-106946925D01*
X215111919Y-106927633D01*
X215100013Y-106921446D01*
X215067835Y-106885058D01*
X215067198Y-106830954D01*
X215097856Y-106756128D01*
X215125978Y-106715350D01*
X215197883Y-106657421D01*
X215286638Y-106624670D01*
X215381542Y-106620212D01*
X215471892Y-106647167D01*
G36*
X215471892Y-106647167D02*
G01*
X215478060Y-106650581D01*
X215528447Y-106689692D01*
X215573498Y-106739975D01*
X215581355Y-106751339D01*
X215596376Y-106777860D01*
X215607107Y-106809336D01*
X215614486Y-106852591D01*
X215619452Y-106914449D01*
X215622942Y-107001733D01*
X215625893Y-107121269D01*
X215626311Y-107141478D01*
X215627654Y-107272499D01*
X215625761Y-107365296D01*
X215620605Y-107420507D01*
X215612158Y-107438769D01*
X215586594Y-107433301D01*
X215543166Y-107416733D01*
X215532940Y-107411888D01*
X215516967Y-107400920D01*
X215505954Y-107382890D01*
X215498750Y-107351396D01*
X215494208Y-107300036D01*
X215491180Y-107222410D01*
X215488516Y-107112115D01*
X215487785Y-107079875D01*
X215484965Y-106978050D01*
X215481304Y-106906788D01*
X215475694Y-106859332D01*
X215467029Y-106828925D01*
X215454202Y-106808810D01*
X215436105Y-106792229D01*
X215382525Y-106763161D01*
X215316612Y-106757564D01*
X215257635Y-106779807D01*
X215215203Y-106825859D01*
X215198923Y-106891692D01*
X215198470Y-106909587D01*
X215189578Y-106941982D01*
X215163325Y-106946925D01*
X215111919Y-106927633D01*
X215100013Y-106921446D01*
X215067835Y-106885058D01*
X215067198Y-106830954D01*
X215097856Y-106756128D01*
X215125978Y-106715350D01*
X215197883Y-106657421D01*
X215286638Y-106624670D01*
X215381542Y-106620212D01*
X215471892Y-106647167D01*
G37*
X216976923Y-106381806D02*
X216976923Y-106916455D01*
X216976660Y-107055094D01*
X216975958Y-107179805D01*
X216974883Y-107285557D01*
X216973500Y-107367322D01*
X216971874Y-107420069D01*
X216970070Y-107438769D01*
X216969364Y-107438706D01*
X216945387Y-107431912D01*
X216901685Y-107417320D01*
X216840154Y-107395870D01*
X216840154Y-107120617D01*
X216839763Y-107012466D01*
X216837946Y-106934026D01*
X216833767Y-106880647D01*
X216826286Y-106845256D01*
X216814567Y-106820779D01*
X216797671Y-106800144D01*
X216786152Y-106789170D01*
X216723864Y-106758775D01*
X216655211Y-106761466D01*
X216592298Y-106797406D01*
X216583139Y-106806325D01*
X216568471Y-106824844D01*
X216558433Y-106849326D01*
X216552151Y-106886393D01*
X216548748Y-106942667D01*
X216547349Y-107024771D01*
X216547077Y-107139329D01*
X216546947Y-107197430D01*
X216546099Y-107292993D01*
X216544594Y-107369526D01*
X216542585Y-107420345D01*
X216540223Y-107438769D01*
X216539518Y-107438706D01*
X216515541Y-107431912D01*
X216471839Y-107417320D01*
X216410308Y-107395870D01*
X216410338Y-107119358D01*
X216410384Y-107094742D01*
X216412970Y-106966419D01*
X216420913Y-106869384D01*
X216436155Y-106797057D01*
X216460636Y-106742855D01*
X216496298Y-106700198D01*
X216545082Y-106662505D01*
X216592661Y-106638910D01*
X216668732Y-106620672D01*
X216743556Y-106619636D01*
X216801077Y-106637378D01*
X216805402Y-106639829D01*
X216818738Y-106639566D01*
X216827851Y-106619039D01*
X216834428Y-106571980D01*
X216840154Y-106492120D01*
X216849923Y-106328236D01*
X216976923Y-106381806D01*
G36*
X216976923Y-106381806D02*
G01*
X216976923Y-106916455D01*
X216976660Y-107055094D01*
X216975958Y-107179805D01*
X216974883Y-107285557D01*
X216973500Y-107367322D01*
X216971874Y-107420069D01*
X216970070Y-107438769D01*
X216969364Y-107438706D01*
X216945387Y-107431912D01*
X216901685Y-107417320D01*
X216840154Y-107395870D01*
X216840154Y-107120617D01*
X216839763Y-107012466D01*
X216837946Y-106934026D01*
X216833767Y-106880647D01*
X216826286Y-106845256D01*
X216814567Y-106820779D01*
X216797671Y-106800144D01*
X216786152Y-106789170D01*
X216723864Y-106758775D01*
X216655211Y-106761466D01*
X216592298Y-106797406D01*
X216583139Y-106806325D01*
X216568471Y-106824844D01*
X216558433Y-106849326D01*
X216552151Y-106886393D01*
X216548748Y-106942667D01*
X216547349Y-107024771D01*
X216547077Y-107139329D01*
X216546947Y-107197430D01*
X216546099Y-107292993D01*
X216544594Y-107369526D01*
X216542585Y-107420345D01*
X216540223Y-107438769D01*
X216539518Y-107438706D01*
X216515541Y-107431912D01*
X216471839Y-107417320D01*
X216410308Y-107395870D01*
X216410338Y-107119358D01*
X216410384Y-107094742D01*
X216412970Y-106966419D01*
X216420913Y-106869384D01*
X216436155Y-106797057D01*
X216460636Y-106742855D01*
X216496298Y-106700198D01*
X216545082Y-106662505D01*
X216592661Y-106638910D01*
X216668732Y-106620672D01*
X216743556Y-106619636D01*
X216801077Y-106637378D01*
X216805402Y-106639829D01*
X216818738Y-106639566D01*
X216827851Y-106619039D01*
X216834428Y-106571980D01*
X216840154Y-106492120D01*
X216849923Y-106328236D01*
X216976923Y-106381806D01*
G37*
X214187998Y-106624034D02*
X214230850Y-106640829D01*
X214280615Y-106663503D01*
X214280615Y-107318533D01*
X214218785Y-107380363D01*
X214204662Y-107394228D01*
X214165536Y-107425046D01*
X214126078Y-107435028D01*
X214067362Y-107430433D01*
X214043456Y-107427462D01*
X213981801Y-107421176D01*
X213938692Y-107418672D01*
X213925905Y-107419055D01*
X213873446Y-107423200D01*
X213810022Y-107430433D01*
X213789730Y-107432918D01*
X213738610Y-107433895D01*
X213701207Y-107418462D01*
X213658599Y-107380363D01*
X213596769Y-107318533D01*
X213596769Y-106968343D01*
X213597251Y-106864857D01*
X213598753Y-106766192D01*
X213601089Y-106688068D01*
X213604071Y-106636662D01*
X213607509Y-106618154D01*
X213608230Y-106618204D01*
X213633203Y-106627413D01*
X213675399Y-106647707D01*
X213732549Y-106677261D01*
X213737928Y-106984746D01*
X213743308Y-107292231D01*
X213860539Y-107292231D01*
X213865885Y-106955192D01*
X213867579Y-106863574D01*
X213870005Y-106765649D01*
X213872634Y-106687906D01*
X213875246Y-106636642D01*
X213877623Y-106618154D01*
X213878306Y-106618219D01*
X213901996Y-106625020D01*
X213945546Y-106639604D01*
X214007077Y-106661054D01*
X214007376Y-106957104D01*
X214007676Y-107008532D01*
X214009754Y-107108466D01*
X214013470Y-107191925D01*
X214018430Y-107251377D01*
X214024240Y-107279287D01*
X214045024Y-107294214D01*
X214087440Y-107298825D01*
X214134077Y-107292231D01*
X214139423Y-106955192D01*
X214141336Y-106869546D01*
X214145303Y-106768172D01*
X214150491Y-106688655D01*
X214156499Y-106636736D01*
X214162927Y-106618154D01*
X214187998Y-106624034D01*
G36*
X214187998Y-106624034D02*
G01*
X214230850Y-106640829D01*
X214280615Y-106663503D01*
X214280615Y-107318533D01*
X214218785Y-107380363D01*
X214204662Y-107394228D01*
X214165536Y-107425046D01*
X214126078Y-107435028D01*
X214067362Y-107430433D01*
X214043456Y-107427462D01*
X213981801Y-107421176D01*
X213938692Y-107418672D01*
X213925905Y-107419055D01*
X213873446Y-107423200D01*
X213810022Y-107430433D01*
X213789730Y-107432918D01*
X213738610Y-107433895D01*
X213701207Y-107418462D01*
X213658599Y-107380363D01*
X213596769Y-107318533D01*
X213596769Y-106968343D01*
X213597251Y-106864857D01*
X213598753Y-106766192D01*
X213601089Y-106688068D01*
X213604071Y-106636662D01*
X213607509Y-106618154D01*
X213608230Y-106618204D01*
X213633203Y-106627413D01*
X213675399Y-106647707D01*
X213732549Y-106677261D01*
X213737928Y-106984746D01*
X213743308Y-107292231D01*
X213860539Y-107292231D01*
X213865885Y-106955192D01*
X213867579Y-106863574D01*
X213870005Y-106765649D01*
X213872634Y-106687906D01*
X213875246Y-106636642D01*
X213877623Y-106618154D01*
X213878306Y-106618219D01*
X213901996Y-106625020D01*
X213945546Y-106639604D01*
X214007077Y-106661054D01*
X214007376Y-106957104D01*
X214007676Y-107008532D01*
X214009754Y-107108466D01*
X214013470Y-107191925D01*
X214018430Y-107251377D01*
X214024240Y-107279287D01*
X214045024Y-107294214D01*
X214087440Y-107298825D01*
X214134077Y-107292231D01*
X214139423Y-106955192D01*
X214141336Y-106869546D01*
X214145303Y-106768172D01*
X214150491Y-106688655D01*
X214156499Y-106636736D01*
X214162927Y-106618154D01*
X214187998Y-106624034D01*
G37*
X220396154Y-107008923D02*
X220396135Y-107030105D01*
X220395076Y-107124584D01*
X220391436Y-107190414D01*
X220383892Y-107236394D01*
X220371122Y-107271321D01*
X220351803Y-107303995D01*
X220347050Y-107310775D01*
X220296759Y-107364231D01*
X220239457Y-107404547D01*
X220210032Y-107417629D01*
X220104299Y-107439450D01*
X219999734Y-107425336D01*
X219903368Y-107377105D01*
X219822235Y-107296579D01*
X219815385Y-107285791D01*
X219793097Y-107223153D01*
X219778079Y-107135935D01*
X219770792Y-107035210D01*
X219771611Y-106942037D01*
X219968796Y-106942037D01*
X219970349Y-107071114D01*
X219970974Y-107079420D01*
X219980077Y-107150643D01*
X219996288Y-107195809D01*
X220023660Y-107226752D01*
X220069553Y-107255737D01*
X220114942Y-107257261D01*
X220161692Y-107223846D01*
X220169824Y-107215053D01*
X220185754Y-107188741D01*
X220195159Y-107150520D01*
X220199632Y-107091349D01*
X220200769Y-107002182D01*
X220198822Y-106918664D01*
X220189105Y-106839095D01*
X220169047Y-106788808D01*
X220136240Y-106762513D01*
X220088280Y-106754923D01*
X220070016Y-106756432D01*
X220018848Y-106784107D01*
X219985035Y-106846172D01*
X219968796Y-106942037D01*
X219771611Y-106942037D01*
X219771699Y-106932052D01*
X219781262Y-106837533D01*
X219799943Y-106762727D01*
X219823951Y-106712905D01*
X219891536Y-106635409D01*
X219983114Y-106587256D01*
X220095213Y-106570703D01*
X220125151Y-106571599D01*
X220213315Y-106589929D01*
X220285733Y-106636104D01*
X220352192Y-106715648D01*
X220356147Y-106721548D01*
X220374040Y-106753288D01*
X220385678Y-106789163D01*
X220392371Y-106837906D01*
X220395426Y-106908249D01*
X220396106Y-107002182D01*
X220396154Y-107008923D01*
G36*
X220396154Y-107008923D02*
G01*
X220396135Y-107030105D01*
X220395076Y-107124584D01*
X220391436Y-107190414D01*
X220383892Y-107236394D01*
X220371122Y-107271321D01*
X220351803Y-107303995D01*
X220347050Y-107310775D01*
X220296759Y-107364231D01*
X220239457Y-107404547D01*
X220210032Y-107417629D01*
X220104299Y-107439450D01*
X219999734Y-107425336D01*
X219903368Y-107377105D01*
X219822235Y-107296579D01*
X219815385Y-107285791D01*
X219793097Y-107223153D01*
X219778079Y-107135935D01*
X219770792Y-107035210D01*
X219771611Y-106942037D01*
X219968796Y-106942037D01*
X219970349Y-107071114D01*
X219970974Y-107079420D01*
X219980077Y-107150643D01*
X219996288Y-107195809D01*
X220023660Y-107226752D01*
X220069553Y-107255737D01*
X220114942Y-107257261D01*
X220161692Y-107223846D01*
X220169824Y-107215053D01*
X220185754Y-107188741D01*
X220195159Y-107150520D01*
X220199632Y-107091349D01*
X220200769Y-107002182D01*
X220198822Y-106918664D01*
X220189105Y-106839095D01*
X220169047Y-106788808D01*
X220136240Y-106762513D01*
X220088280Y-106754923D01*
X220070016Y-106756432D01*
X220018848Y-106784107D01*
X219985035Y-106846172D01*
X219968796Y-106942037D01*
X219771611Y-106942037D01*
X219771699Y-106932052D01*
X219781262Y-106837533D01*
X219799943Y-106762727D01*
X219823951Y-106712905D01*
X219891536Y-106635409D01*
X219983114Y-106587256D01*
X220095213Y-106570703D01*
X220125151Y-106571599D01*
X220213315Y-106589929D01*
X220285733Y-106636104D01*
X220352192Y-106715648D01*
X220356147Y-106721548D01*
X220374040Y-106753288D01*
X220385678Y-106789163D01*
X220392371Y-106837906D01*
X220395426Y-106908249D01*
X220396106Y-107002182D01*
X220396154Y-107008923D01*
G37*
X212150794Y-107032376D02*
X212150413Y-107084449D01*
X212145641Y-107187047D01*
X212133150Y-107262126D01*
X212110121Y-107317748D01*
X212073732Y-107361975D01*
X212021162Y-107402869D01*
X211987714Y-107421466D01*
X211934098Y-107433991D01*
X211858780Y-107433003D01*
X211816672Y-107429035D01*
X211765879Y-107416920D01*
X211725280Y-107390585D01*
X211678049Y-107341514D01*
X211671738Y-107334346D01*
X211629277Y-107279189D01*
X211609018Y-107231150D01*
X211603846Y-107174184D01*
X211603846Y-107090471D01*
X211662346Y-107112552D01*
X211704994Y-107138364D01*
X211742064Y-107198928D01*
X211749803Y-107218320D01*
X211793074Y-107273235D01*
X211851976Y-107300879D01*
X211916111Y-107298393D01*
X211975077Y-107262923D01*
X211995342Y-107240805D01*
X212013720Y-107207436D01*
X212007971Y-107177117D01*
X211974887Y-107145913D01*
X211911261Y-107109887D01*
X211813885Y-107065103D01*
X211613615Y-106977445D01*
X211608301Y-106890607D01*
X211610299Y-106835296D01*
X211740783Y-106835296D01*
X211750688Y-106869538D01*
X211795756Y-106906096D01*
X211877557Y-106947692D01*
X211891092Y-106953718D01*
X211955818Y-106981753D01*
X212004247Y-107001472D01*
X212026751Y-107008923D01*
X212030161Y-107003438D01*
X212031529Y-106969948D01*
X212026651Y-106916116D01*
X212014364Y-106863473D01*
X211976041Y-106797151D01*
X211920720Y-106759780D01*
X211854640Y-106754721D01*
X211784040Y-106785339D01*
X211764474Y-106800648D01*
X211740783Y-106835296D01*
X211610299Y-106835296D01*
X211610647Y-106825663D01*
X211640186Y-106743590D01*
X211677472Y-106698361D01*
X211754776Y-106647838D01*
X211846478Y-106622316D01*
X211941274Y-106624336D01*
X212027859Y-106656440D01*
X212046920Y-106668767D01*
X212090640Y-106706912D01*
X212120540Y-106755167D01*
X212138968Y-106820710D01*
X212148270Y-106910720D01*
X212149499Y-106969948D01*
X212150794Y-107032376D01*
G36*
X212150794Y-107032376D02*
G01*
X212150413Y-107084449D01*
X212145641Y-107187047D01*
X212133150Y-107262126D01*
X212110121Y-107317748D01*
X212073732Y-107361975D01*
X212021162Y-107402869D01*
X211987714Y-107421466D01*
X211934098Y-107433991D01*
X211858780Y-107433003D01*
X211816672Y-107429035D01*
X211765879Y-107416920D01*
X211725280Y-107390585D01*
X211678049Y-107341514D01*
X211671738Y-107334346D01*
X211629277Y-107279189D01*
X211609018Y-107231150D01*
X211603846Y-107174184D01*
X211603846Y-107090471D01*
X211662346Y-107112552D01*
X211704994Y-107138364D01*
X211742064Y-107198928D01*
X211749803Y-107218320D01*
X211793074Y-107273235D01*
X211851976Y-107300879D01*
X211916111Y-107298393D01*
X211975077Y-107262923D01*
X211995342Y-107240805D01*
X212013720Y-107207436D01*
X212007971Y-107177117D01*
X211974887Y-107145913D01*
X211911261Y-107109887D01*
X211813885Y-107065103D01*
X211613615Y-106977445D01*
X211608301Y-106890607D01*
X211610299Y-106835296D01*
X211740783Y-106835296D01*
X211750688Y-106869538D01*
X211795756Y-106906096D01*
X211877557Y-106947692D01*
X211891092Y-106953718D01*
X211955818Y-106981753D01*
X212004247Y-107001472D01*
X212026751Y-107008923D01*
X212030161Y-107003438D01*
X212031529Y-106969948D01*
X212026651Y-106916116D01*
X212014364Y-106863473D01*
X211976041Y-106797151D01*
X211920720Y-106759780D01*
X211854640Y-106754721D01*
X211784040Y-106785339D01*
X211764474Y-106800648D01*
X211740783Y-106835296D01*
X211610299Y-106835296D01*
X211610647Y-106825663D01*
X211640186Y-106743590D01*
X211677472Y-106698361D01*
X211754776Y-106647838D01*
X211846478Y-106622316D01*
X211941274Y-106624336D01*
X212027859Y-106656440D01*
X212046920Y-106668767D01*
X212090640Y-106706912D01*
X212120540Y-106755167D01*
X212138968Y-106820710D01*
X212148270Y-106910720D01*
X212149499Y-106969948D01*
X212150794Y-107032376D01*
G37*
X214964401Y-107028462D02*
X214962839Y-107104652D01*
X214951810Y-107208507D01*
X214927814Y-107286333D01*
X214888043Y-107345760D01*
X214829688Y-107394418D01*
X214774100Y-107422546D01*
X214680751Y-107438199D01*
X214587530Y-107421084D01*
X214503272Y-107373388D01*
X214436818Y-107297294D01*
X214428793Y-107283262D01*
X214418196Y-107258679D01*
X214410335Y-107227309D01*
X214404807Y-107183769D01*
X214401206Y-107122678D01*
X214399128Y-107038655D01*
X214399064Y-107031200D01*
X214534615Y-107031200D01*
X214535077Y-107102316D01*
X214537999Y-107166641D01*
X214545221Y-107208166D01*
X214558561Y-107236067D01*
X214579836Y-107259517D01*
X214584821Y-107264025D01*
X214648863Y-107297295D01*
X214716625Y-107293890D01*
X214779734Y-107254042D01*
X214798526Y-107233398D01*
X214814254Y-107206029D01*
X214823039Y-107168192D01*
X214826859Y-107110355D01*
X214827692Y-107022986D01*
X214827281Y-106956319D01*
X214824434Y-106891245D01*
X214817256Y-106849251D01*
X214803889Y-106821063D01*
X214782472Y-106797406D01*
X214769890Y-106786753D01*
X214704699Y-106758057D01*
X214636400Y-106762575D01*
X214577098Y-106800144D01*
X214564333Y-106815040D01*
X214548764Y-106843089D01*
X214539762Y-106882258D01*
X214535617Y-106941858D01*
X214534615Y-107031200D01*
X214399064Y-107031200D01*
X214398167Y-106926320D01*
X214397919Y-106780289D01*
X214397846Y-106326963D01*
X214461346Y-106353564D01*
X214478136Y-106360845D01*
X214504859Y-106377287D01*
X214520156Y-106402187D01*
X214528563Y-106445732D01*
X214534615Y-106518106D01*
X214540144Y-106583089D01*
X214547450Y-106625750D01*
X214557918Y-106641670D01*
X214573692Y-106637400D01*
X214613890Y-106622397D01*
X214685728Y-106618678D01*
X214763010Y-106632572D01*
X214829688Y-106662505D01*
X214866371Y-106690211D01*
X214913472Y-106744269D01*
X214943638Y-106813577D01*
X214959678Y-106905765D01*
X214964191Y-107022986D01*
X214964401Y-107028462D01*
G36*
X214964401Y-107028462D02*
G01*
X214962839Y-107104652D01*
X214951810Y-107208507D01*
X214927814Y-107286333D01*
X214888043Y-107345760D01*
X214829688Y-107394418D01*
X214774100Y-107422546D01*
X214680751Y-107438199D01*
X214587530Y-107421084D01*
X214503272Y-107373388D01*
X214436818Y-107297294D01*
X214428793Y-107283262D01*
X214418196Y-107258679D01*
X214410335Y-107227309D01*
X214404807Y-107183769D01*
X214401206Y-107122678D01*
X214399128Y-107038655D01*
X214399064Y-107031200D01*
X214534615Y-107031200D01*
X214535077Y-107102316D01*
X214537999Y-107166641D01*
X214545221Y-107208166D01*
X214558561Y-107236067D01*
X214579836Y-107259517D01*
X214584821Y-107264025D01*
X214648863Y-107297295D01*
X214716625Y-107293890D01*
X214779734Y-107254042D01*
X214798526Y-107233398D01*
X214814254Y-107206029D01*
X214823039Y-107168192D01*
X214826859Y-107110355D01*
X214827692Y-107022986D01*
X214827281Y-106956319D01*
X214824434Y-106891245D01*
X214817256Y-106849251D01*
X214803889Y-106821063D01*
X214782472Y-106797406D01*
X214769890Y-106786753D01*
X214704699Y-106758057D01*
X214636400Y-106762575D01*
X214577098Y-106800144D01*
X214564333Y-106815040D01*
X214548764Y-106843089D01*
X214539762Y-106882258D01*
X214535617Y-106941858D01*
X214534615Y-107031200D01*
X214399064Y-107031200D01*
X214398167Y-106926320D01*
X214397919Y-106780289D01*
X214397846Y-106326963D01*
X214461346Y-106353564D01*
X214478136Y-106360845D01*
X214504859Y-106377287D01*
X214520156Y-106402187D01*
X214528563Y-106445732D01*
X214534615Y-106518106D01*
X214540144Y-106583089D01*
X214547450Y-106625750D01*
X214557918Y-106641670D01*
X214573692Y-106637400D01*
X214613890Y-106622397D01*
X214685728Y-106618678D01*
X214763010Y-106632572D01*
X214829688Y-106662505D01*
X214866371Y-106690211D01*
X214913472Y-106744269D01*
X214943638Y-106813577D01*
X214959678Y-106905765D01*
X214964191Y-107022986D01*
X214964401Y-107028462D01*
G37*
X218910787Y-106953536D02*
X218904574Y-107101643D01*
X218901066Y-107133021D01*
X218874927Y-107244705D01*
X218827694Y-107329642D01*
X218755862Y-107394741D01*
X218751802Y-107397428D01*
X218660487Y-107435634D01*
X218565144Y-107439034D01*
X218473274Y-107409939D01*
X218392379Y-107350660D01*
X218329962Y-107263510D01*
X218328914Y-107261409D01*
X218308173Y-107207289D01*
X218292980Y-107145781D01*
X218284921Y-107088039D01*
X218285582Y-107045215D01*
X218296548Y-107028462D01*
X218306290Y-107029480D01*
X218352877Y-107048009D01*
X218405682Y-107082081D01*
X218450603Y-107121522D01*
X218473535Y-107156155D01*
X218497373Y-107203133D01*
X218546230Y-107245862D01*
X218602963Y-107262923D01*
X218623758Y-107257990D01*
X218664804Y-107233157D01*
X218700557Y-107198685D01*
X218715846Y-107167411D01*
X218715842Y-107167295D01*
X218698495Y-107152933D01*
X218652247Y-107127025D01*
X218584067Y-107093210D01*
X218500923Y-107055129D01*
X218500466Y-107054927D01*
X218410138Y-107014709D01*
X218349592Y-106985733D01*
X218312888Y-106963474D01*
X218294086Y-106943407D01*
X218287246Y-106921009D01*
X218286429Y-106891756D01*
X218292113Y-106836363D01*
X218485000Y-106836363D01*
X218504911Y-106853777D01*
X218554521Y-106879872D01*
X218555976Y-106880610D01*
X218614506Y-106908483D01*
X218666868Y-106930719D01*
X218700086Y-106940126D01*
X218713410Y-106927552D01*
X218715846Y-106884468D01*
X218705724Y-106830847D01*
X218670631Y-106782119D01*
X218619823Y-106756856D01*
X218563181Y-106759406D01*
X218510584Y-106794120D01*
X218489910Y-106818107D01*
X218485000Y-106836363D01*
X218292113Y-106836363D01*
X218293622Y-106821654D01*
X218329184Y-106726412D01*
X218388714Y-106651567D01*
X218465746Y-106599745D01*
X218553815Y-106573573D01*
X218646454Y-106575676D01*
X218737198Y-106608681D01*
X218819579Y-106675215D01*
X218865222Y-106741055D01*
X218898008Y-106835036D01*
X218903339Y-106884468D01*
X218910787Y-106953536D01*
G36*
X218910787Y-106953536D02*
G01*
X218904574Y-107101643D01*
X218901066Y-107133021D01*
X218874927Y-107244705D01*
X218827694Y-107329642D01*
X218755862Y-107394741D01*
X218751802Y-107397428D01*
X218660487Y-107435634D01*
X218565144Y-107439034D01*
X218473274Y-107409939D01*
X218392379Y-107350660D01*
X218329962Y-107263510D01*
X218328914Y-107261409D01*
X218308173Y-107207289D01*
X218292980Y-107145781D01*
X218284921Y-107088039D01*
X218285582Y-107045215D01*
X218296548Y-107028462D01*
X218306290Y-107029480D01*
X218352877Y-107048009D01*
X218405682Y-107082081D01*
X218450603Y-107121522D01*
X218473535Y-107156155D01*
X218497373Y-107203133D01*
X218546230Y-107245862D01*
X218602963Y-107262923D01*
X218623758Y-107257990D01*
X218664804Y-107233157D01*
X218700557Y-107198685D01*
X218715846Y-107167411D01*
X218715842Y-107167295D01*
X218698495Y-107152933D01*
X218652247Y-107127025D01*
X218584067Y-107093210D01*
X218500923Y-107055129D01*
X218500466Y-107054927D01*
X218410138Y-107014709D01*
X218349592Y-106985733D01*
X218312888Y-106963474D01*
X218294086Y-106943407D01*
X218287246Y-106921009D01*
X218286429Y-106891756D01*
X218292113Y-106836363D01*
X218485000Y-106836363D01*
X218504911Y-106853777D01*
X218554521Y-106879872D01*
X218555976Y-106880610D01*
X218614506Y-106908483D01*
X218666868Y-106930719D01*
X218700086Y-106940126D01*
X218713410Y-106927552D01*
X218715846Y-106884468D01*
X218705724Y-106830847D01*
X218670631Y-106782119D01*
X218619823Y-106756856D01*
X218563181Y-106759406D01*
X218510584Y-106794120D01*
X218489910Y-106818107D01*
X218485000Y-106836363D01*
X218292113Y-106836363D01*
X218293622Y-106821654D01*
X218329184Y-106726412D01*
X218388714Y-106651567D01*
X218465746Y-106599745D01*
X218553815Y-106573573D01*
X218646454Y-106575676D01*
X218737198Y-106608681D01*
X218819579Y-106675215D01*
X218865222Y-106741055D01*
X218898008Y-106835036D01*
X218903339Y-106884468D01*
X218910787Y-106953536D01*
G37*
X216120458Y-106639228D02*
X216187622Y-106678389D01*
X216217169Y-106708902D01*
X216273948Y-106800110D01*
X216293077Y-106899548D01*
X216293077Y-106967960D01*
X216230191Y-106941518D01*
X216186700Y-106914837D01*
X216152426Y-106859446D01*
X216148907Y-106848024D01*
X216111028Y-106789838D01*
X216053936Y-106758407D01*
X215988383Y-106757058D01*
X215925117Y-106789116D01*
X215915672Y-106797383D01*
X215884087Y-106833311D01*
X215878871Y-106864635D01*
X215902765Y-106895391D01*
X215958510Y-106929617D01*
X216048846Y-106971350D01*
X216054956Y-106973993D01*
X216155241Y-107020755D01*
X216223735Y-107062181D01*
X216265899Y-107103542D01*
X216287193Y-107150111D01*
X216293077Y-107207160D01*
X216285366Y-107270408D01*
X216246430Y-107351364D01*
X216177932Y-107409522D01*
X216128388Y-107426983D01*
X216058469Y-107436537D01*
X215990575Y-107434496D01*
X215942093Y-107420082D01*
X215936943Y-107416493D01*
X215923267Y-107391416D01*
X215932757Y-107347218D01*
X215949246Y-107312527D01*
X215975687Y-107298084D01*
X216025834Y-107298803D01*
X216095453Y-107294660D01*
X216140943Y-107266054D01*
X216156308Y-107213104D01*
X216156294Y-107211582D01*
X216146983Y-107180845D01*
X216115311Y-107152643D01*
X216053731Y-107120136D01*
X215969986Y-107080998D01*
X215914518Y-107059706D01*
X215882497Y-107061079D01*
X215867534Y-107089203D01*
X215863242Y-107148170D01*
X215863231Y-107242068D01*
X215862752Y-107300031D01*
X215860556Y-107371612D01*
X215856986Y-107420606D01*
X215852491Y-107438769D01*
X215851290Y-107438646D01*
X215825319Y-107428802D01*
X215782305Y-107408028D01*
X215722859Y-107377287D01*
X215729923Y-107100298D01*
X215730414Y-107081928D01*
X215736025Y-106952992D01*
X215745938Y-106855814D01*
X215762175Y-106783925D01*
X215786759Y-106730852D01*
X215821715Y-106690127D01*
X215869064Y-106655279D01*
X215869940Y-106654733D01*
X215946499Y-106626303D01*
X216035044Y-106621500D01*
X216120458Y-106639228D01*
G36*
X216120458Y-106639228D02*
G01*
X216187622Y-106678389D01*
X216217169Y-106708902D01*
X216273948Y-106800110D01*
X216293077Y-106899548D01*
X216293077Y-106967960D01*
X216230191Y-106941518D01*
X216186700Y-106914837D01*
X216152426Y-106859446D01*
X216148907Y-106848024D01*
X216111028Y-106789838D01*
X216053936Y-106758407D01*
X215988383Y-106757058D01*
X215925117Y-106789116D01*
X215915672Y-106797383D01*
X215884087Y-106833311D01*
X215878871Y-106864635D01*
X215902765Y-106895391D01*
X215958510Y-106929617D01*
X216048846Y-106971350D01*
X216054956Y-106973993D01*
X216155241Y-107020755D01*
X216223735Y-107062181D01*
X216265899Y-107103542D01*
X216287193Y-107150111D01*
X216293077Y-107207160D01*
X216285366Y-107270408D01*
X216246430Y-107351364D01*
X216177932Y-107409522D01*
X216128388Y-107426983D01*
X216058469Y-107436537D01*
X215990575Y-107434496D01*
X215942093Y-107420082D01*
X215936943Y-107416493D01*
X215923267Y-107391416D01*
X215932757Y-107347218D01*
X215949246Y-107312527D01*
X215975687Y-107298084D01*
X216025834Y-107298803D01*
X216095453Y-107294660D01*
X216140943Y-107266054D01*
X216156308Y-107213104D01*
X216156294Y-107211582D01*
X216146983Y-107180845D01*
X216115311Y-107152643D01*
X216053731Y-107120136D01*
X215969986Y-107080998D01*
X215914518Y-107059706D01*
X215882497Y-107061079D01*
X215867534Y-107089203D01*
X215863242Y-107148170D01*
X215863231Y-107242068D01*
X215862752Y-107300031D01*
X215860556Y-107371612D01*
X215856986Y-107420606D01*
X215852491Y-107438769D01*
X215851290Y-107438646D01*
X215825319Y-107428802D01*
X215782305Y-107408028D01*
X215722859Y-107377287D01*
X215729923Y-107100298D01*
X215730414Y-107081928D01*
X215736025Y-106952992D01*
X215745938Y-106855814D01*
X215762175Y-106783925D01*
X215786759Y-106730852D01*
X215821715Y-106690127D01*
X215869064Y-106655279D01*
X215869940Y-106654733D01*
X215946499Y-106626303D01*
X216035044Y-106621500D01*
X216120458Y-106639228D01*
G37*
X219647828Y-107098205D02*
X219649763Y-107248269D01*
X219650300Y-107291802D01*
X219652019Y-107437344D01*
X219652365Y-107548711D01*
X219650277Y-107629804D01*
X219644698Y-107684522D01*
X219634567Y-107716761D01*
X219618826Y-107730422D01*
X219596417Y-107729403D01*
X219566280Y-107717603D01*
X219527355Y-107698920D01*
X219519038Y-107694933D01*
X219484402Y-107675419D01*
X219466314Y-107652202D01*
X219459392Y-107613492D01*
X219458256Y-107547497D01*
X219458205Y-107429000D01*
X219336141Y-107429000D01*
X219261055Y-107425712D01*
X219202015Y-107412377D01*
X219152986Y-107385423D01*
X219149330Y-107382788D01*
X219099581Y-107338286D01*
X219064959Y-107284523D01*
X219043123Y-107214154D01*
X219031737Y-107119830D01*
X219028959Y-107013271D01*
X219223846Y-107013271D01*
X219223880Y-107031131D01*
X219225735Y-107111748D01*
X219231693Y-107164447D01*
X219243506Y-107198668D01*
X219262923Y-107223846D01*
X219264133Y-107225049D01*
X219311858Y-107257628D01*
X219358110Y-107254417D01*
X219410350Y-107214965D01*
X219423128Y-107201482D01*
X219441949Y-107173837D01*
X219452562Y-107137880D01*
X219457252Y-107083364D01*
X219458308Y-107000042D01*
X219457394Y-106949598D01*
X219447477Y-106857857D01*
X219424842Y-106797752D01*
X219387238Y-106764900D01*
X219332416Y-106754923D01*
X219309317Y-106757050D01*
X219269350Y-106778147D01*
X219242926Y-106825161D01*
X219228330Y-106902175D01*
X219223846Y-107013271D01*
X219028959Y-107013271D01*
X219028462Y-106994206D01*
X219029187Y-106902536D01*
X219032490Y-106833098D01*
X219039828Y-106784945D01*
X219052655Y-106748866D01*
X219072423Y-106715648D01*
X219090569Y-106690261D01*
X219156461Y-106621727D01*
X219231114Y-106584505D01*
X219324904Y-106572722D01*
X219432240Y-106584467D01*
X219525031Y-106626595D01*
X219598421Y-106700898D01*
X219603954Y-106708764D01*
X219616857Y-106729668D01*
X219626742Y-106753555D01*
X219634093Y-106785582D01*
X219639394Y-106830905D01*
X219643127Y-106894679D01*
X219645778Y-106982060D01*
X219646096Y-107000042D01*
X219647828Y-107098205D01*
G36*
X219647828Y-107098205D02*
G01*
X219649763Y-107248269D01*
X219650300Y-107291802D01*
X219652019Y-107437344D01*
X219652365Y-107548711D01*
X219650277Y-107629804D01*
X219644698Y-107684522D01*
X219634567Y-107716761D01*
X219618826Y-107730422D01*
X219596417Y-107729403D01*
X219566280Y-107717603D01*
X219527355Y-107698920D01*
X219519038Y-107694933D01*
X219484402Y-107675419D01*
X219466314Y-107652202D01*
X219459392Y-107613492D01*
X219458256Y-107547497D01*
X219458205Y-107429000D01*
X219336141Y-107429000D01*
X219261055Y-107425712D01*
X219202015Y-107412377D01*
X219152986Y-107385423D01*
X219149330Y-107382788D01*
X219099581Y-107338286D01*
X219064959Y-107284523D01*
X219043123Y-107214154D01*
X219031737Y-107119830D01*
X219028959Y-107013271D01*
X219223846Y-107013271D01*
X219223880Y-107031131D01*
X219225735Y-107111748D01*
X219231693Y-107164447D01*
X219243506Y-107198668D01*
X219262923Y-107223846D01*
X219264133Y-107225049D01*
X219311858Y-107257628D01*
X219358110Y-107254417D01*
X219410350Y-107214965D01*
X219423128Y-107201482D01*
X219441949Y-107173837D01*
X219452562Y-107137880D01*
X219457252Y-107083364D01*
X219458308Y-107000042D01*
X219457394Y-106949598D01*
X219447477Y-106857857D01*
X219424842Y-106797752D01*
X219387238Y-106764900D01*
X219332416Y-106754923D01*
X219309317Y-106757050D01*
X219269350Y-106778147D01*
X219242926Y-106825161D01*
X219228330Y-106902175D01*
X219223846Y-107013271D01*
X219028959Y-107013271D01*
X219028462Y-106994206D01*
X219029187Y-106902536D01*
X219032490Y-106833098D01*
X219039828Y-106784945D01*
X219052655Y-106748866D01*
X219072423Y-106715648D01*
X219090569Y-106690261D01*
X219156461Y-106621727D01*
X219231114Y-106584505D01*
X219324904Y-106572722D01*
X219432240Y-106584467D01*
X219525031Y-106626595D01*
X219598421Y-106700898D01*
X219603954Y-106708764D01*
X219616857Y-106729668D01*
X219626742Y-106753555D01*
X219634093Y-106785582D01*
X219639394Y-106830905D01*
X219643127Y-106894679D01*
X219645778Y-106982060D01*
X219646096Y-107000042D01*
X219647828Y-107098205D01*
G37*
X213263936Y-106619911D02*
X213305807Y-106630547D01*
X213344791Y-106657062D01*
X213394965Y-106706420D01*
X213427232Y-106741279D01*
X213460844Y-106786534D01*
X213476003Y-106828951D01*
X213479539Y-106882768D01*
X213479539Y-106970850D01*
X213419470Y-106939787D01*
X213371867Y-106901936D01*
X213339261Y-106850950D01*
X213333661Y-106837088D01*
X213290992Y-106783358D01*
X213231707Y-106756417D01*
X213167061Y-106759039D01*
X213108308Y-106794000D01*
X213083450Y-106822394D01*
X213068970Y-106858718D01*
X213084470Y-106891046D01*
X213132667Y-106923565D01*
X213216274Y-106960461D01*
X213228962Y-106965557D01*
X213305078Y-106998907D01*
X213370396Y-107031793D01*
X213411953Y-107057769D01*
X213453576Y-107104167D01*
X213481247Y-107178211D01*
X213478310Y-107257670D01*
X213445571Y-107332868D01*
X213383841Y-107394131D01*
X213333858Y-107420210D01*
X213237303Y-107438470D01*
X213183647Y-107436007D01*
X213133976Y-107422687D01*
X213114919Y-107394739D01*
X213122045Y-107348710D01*
X213124118Y-107342624D01*
X213140556Y-107310349D01*
X213167926Y-107298133D01*
X213220068Y-107298950D01*
X213256884Y-107300061D01*
X213299961Y-107290528D01*
X213329475Y-107262026D01*
X213346286Y-107226935D01*
X213348161Y-107190175D01*
X213348074Y-107189961D01*
X213326279Y-107170098D01*
X213279632Y-107141192D01*
X213219278Y-107108886D01*
X213156360Y-107078823D01*
X213102023Y-107056646D01*
X213067410Y-107048000D01*
X213062260Y-107056467D01*
X213055778Y-107096309D01*
X213051339Y-107161371D01*
X213049692Y-107243385D01*
X213049309Y-107300153D01*
X213047505Y-107371648D01*
X213044558Y-107420610D01*
X213040843Y-107438769D01*
X213021424Y-107432667D01*
X212982227Y-107416095D01*
X212932462Y-107393420D01*
X212932462Y-107102509D01*
X212932780Y-107027940D01*
X212935789Y-106914701D01*
X212943454Y-106830692D01*
X212957562Y-106769520D01*
X212979899Y-106724795D01*
X213012253Y-106690124D01*
X213056410Y-106659117D01*
X213112667Y-106633528D01*
X213216540Y-106618154D01*
X213263936Y-106619911D01*
G36*
X213263936Y-106619911D02*
G01*
X213305807Y-106630547D01*
X213344791Y-106657062D01*
X213394965Y-106706420D01*
X213427232Y-106741279D01*
X213460844Y-106786534D01*
X213476003Y-106828951D01*
X213479539Y-106882768D01*
X213479539Y-106970850D01*
X213419470Y-106939787D01*
X213371867Y-106901936D01*
X213339261Y-106850950D01*
X213333661Y-106837088D01*
X213290992Y-106783358D01*
X213231707Y-106756417D01*
X213167061Y-106759039D01*
X213108308Y-106794000D01*
X213083450Y-106822394D01*
X213068970Y-106858718D01*
X213084470Y-106891046D01*
X213132667Y-106923565D01*
X213216274Y-106960461D01*
X213228962Y-106965557D01*
X213305078Y-106998907D01*
X213370396Y-107031793D01*
X213411953Y-107057769D01*
X213453576Y-107104167D01*
X213481247Y-107178211D01*
X213478310Y-107257670D01*
X213445571Y-107332868D01*
X213383841Y-107394131D01*
X213333858Y-107420210D01*
X213237303Y-107438470D01*
X213183647Y-107436007D01*
X213133976Y-107422687D01*
X213114919Y-107394739D01*
X213122045Y-107348710D01*
X213124118Y-107342624D01*
X213140556Y-107310349D01*
X213167926Y-107298133D01*
X213220068Y-107298950D01*
X213256884Y-107300061D01*
X213299961Y-107290528D01*
X213329475Y-107262026D01*
X213346286Y-107226935D01*
X213348161Y-107190175D01*
X213348074Y-107189961D01*
X213326279Y-107170098D01*
X213279632Y-107141192D01*
X213219278Y-107108886D01*
X213156360Y-107078823D01*
X213102023Y-107056646D01*
X213067410Y-107048000D01*
X213062260Y-107056467D01*
X213055778Y-107096309D01*
X213051339Y-107161371D01*
X213049692Y-107243385D01*
X213049309Y-107300153D01*
X213047505Y-107371648D01*
X213044558Y-107420610D01*
X213040843Y-107438769D01*
X213021424Y-107432667D01*
X212982227Y-107416095D01*
X212932462Y-107393420D01*
X212932462Y-107102509D01*
X212932780Y-107027940D01*
X212935789Y-106914701D01*
X212943454Y-106830692D01*
X212957562Y-106769520D01*
X212979899Y-106724795D01*
X213012253Y-106690124D01*
X213056410Y-106659117D01*
X213112667Y-106633528D01*
X213216540Y-106618154D01*
X213263936Y-106619911D01*
G37*
X216017575Y-100287693D02*
X216153371Y-100287807D01*
X216255576Y-100288472D01*
X216329122Y-100290182D01*
X216378942Y-100293429D01*
X216409967Y-100298706D01*
X216427129Y-100306507D01*
X216435361Y-100317325D01*
X216439594Y-100331654D01*
X216439716Y-100332168D01*
X216446672Y-100365851D01*
X216459320Y-100430917D01*
X216476360Y-100520542D01*
X216496496Y-100627904D01*
X216518429Y-100746178D01*
X216520218Y-100755856D01*
X216542083Y-100870650D01*
X216562430Y-100971480D01*
X216579934Y-101052217D01*
X216593271Y-101106734D01*
X216601116Y-101128901D01*
X216601158Y-101128936D01*
X216625884Y-101141200D01*
X216676631Y-101161576D01*
X216742462Y-101185674D01*
X216746169Y-101186983D01*
X216830331Y-101218791D01*
X216928230Y-101258685D01*
X217019435Y-101298353D01*
X217169407Y-101366420D01*
X217501499Y-101139639D01*
X217524889Y-101123688D01*
X217625080Y-101055890D01*
X217714480Y-100996208D01*
X217787745Y-100948156D01*
X217839527Y-100915250D01*
X217864480Y-100901004D01*
X217881577Y-100904270D01*
X217920395Y-100929571D01*
X217980385Y-100979675D01*
X218063210Y-101055989D01*
X218170535Y-101159922D01*
X218180139Y-101169382D01*
X218265302Y-101254145D01*
X218340949Y-101330937D01*
X218402449Y-101394947D01*
X218445173Y-101441361D01*
X218464489Y-101465369D01*
X218464552Y-101465485D01*
X218467006Y-101483763D01*
X218457956Y-101513411D01*
X218435119Y-101558486D01*
X218396213Y-101623044D01*
X218338954Y-101711140D01*
X218261059Y-101826830D01*
X218247785Y-101846357D01*
X218180652Y-101945278D01*
X218121410Y-102032848D01*
X218073588Y-102103831D01*
X218040715Y-102152991D01*
X218026318Y-102175095D01*
X218025232Y-102179777D01*
X218032044Y-102214710D01*
X218052450Y-102271753D01*
X218083123Y-102341172D01*
X218124808Y-102431959D01*
X218171352Y-102539686D01*
X218210877Y-102637192D01*
X218220676Y-102662430D01*
X218246340Y-102726870D01*
X218265193Y-102771763D01*
X218273710Y-102788616D01*
X218283111Y-102789875D01*
X218325363Y-102797159D01*
X218394521Y-102809739D01*
X218483387Y-102826246D01*
X218584768Y-102845312D01*
X218691467Y-102865569D01*
X218796288Y-102885647D01*
X218892036Y-102904179D01*
X218971516Y-102919795D01*
X219027530Y-102931127D01*
X219052885Y-102936807D01*
X219057088Y-102938408D01*
X219067334Y-102947045D01*
X219074957Y-102965433D01*
X219080338Y-102998460D01*
X219083859Y-103051013D01*
X219085901Y-103127979D01*
X219086847Y-103234246D01*
X219087077Y-103374701D01*
X219087077Y-103801845D01*
X218984500Y-103822091D01*
X218972092Y-103824518D01*
X218906199Y-103837088D01*
X218815084Y-103854170D01*
X218709104Y-103873829D01*
X218598615Y-103894132D01*
X218555105Y-103902299D01*
X218457882Y-103922167D01*
X218376858Y-103940954D01*
X218319477Y-103956859D01*
X218293187Y-103968079D01*
X218281273Y-103986411D01*
X218259583Y-104034916D01*
X218237395Y-104097692D01*
X218229585Y-104121200D01*
X218200835Y-104198366D01*
X218163752Y-104289694D01*
X218124375Y-104380093D01*
X218103315Y-104427310D01*
X218073311Y-104497837D01*
X218052692Y-104550655D01*
X218045026Y-104576912D01*
X218045452Y-104578894D01*
X218059993Y-104606751D01*
X218092783Y-104660510D01*
X218140493Y-104734963D01*
X218199798Y-104824897D01*
X218267369Y-104925104D01*
X218489713Y-105251416D01*
X218197601Y-105544016D01*
X218169349Y-105572171D01*
X218082961Y-105656449D01*
X218005756Y-105729128D01*
X217942258Y-105786112D01*
X217896990Y-105823307D01*
X217874474Y-105836616D01*
X217850023Y-105826490D01*
X217798819Y-105797421D01*
X217726747Y-105752896D01*
X217639460Y-105696411D01*
X217542612Y-105631462D01*
X217447486Y-105567314D01*
X217361669Y-105510827D01*
X217291652Y-105466184D01*
X217242876Y-105436855D01*
X217220783Y-105426308D01*
X217219488Y-105426404D01*
X217190139Y-105436802D01*
X217138093Y-105461012D01*
X217073708Y-105494249D01*
X217073032Y-105494613D01*
X216987521Y-105537441D01*
X216928926Y-105558365D01*
X216892571Y-105558423D01*
X216873775Y-105538654D01*
X216865819Y-105519195D01*
X216844347Y-105467080D01*
X216811273Y-105386964D01*
X216768356Y-105283107D01*
X216717356Y-105159767D01*
X216660033Y-105021201D01*
X216598146Y-104871670D01*
X216542052Y-104735636D01*
X216484977Y-104596050D01*
X216434479Y-104471315D01*
X216392254Y-104365672D01*
X216359995Y-104283365D01*
X216339397Y-104228635D01*
X216332154Y-104205726D01*
X216345986Y-104184718D01*
X216384412Y-104149642D01*
X216438807Y-104108887D01*
X216569395Y-104002267D01*
X216686260Y-103866025D01*
X216771780Y-103716118D01*
X216825431Y-103556971D01*
X216846684Y-103393012D01*
X216835014Y-103228667D01*
X216789894Y-103068361D01*
X216710797Y-102916520D01*
X216597197Y-102777572D01*
X216537965Y-102723460D01*
X216396054Y-102627782D01*
X216244206Y-102565405D01*
X216086861Y-102534844D01*
X215928456Y-102534615D01*
X215773429Y-102563232D01*
X215626220Y-102619210D01*
X215491266Y-102701064D01*
X215373005Y-102807309D01*
X215275877Y-102936459D01*
X215204318Y-103087031D01*
X215162769Y-103257539D01*
X215155143Y-103339722D01*
X215165634Y-103517775D01*
X215212882Y-103686704D01*
X215295489Y-103843522D01*
X215412059Y-103985245D01*
X215561193Y-104108887D01*
X215613561Y-104147982D01*
X215652832Y-104183443D01*
X215667846Y-104205692D01*
X215661859Y-104225088D01*
X215642432Y-104277059D01*
X215611194Y-104357002D01*
X215569839Y-104460673D01*
X215520061Y-104583832D01*
X215463553Y-104722234D01*
X215402009Y-104871637D01*
X215346008Y-105007020D01*
X215288184Y-105146852D01*
X215236500Y-105271872D01*
X215192718Y-105377822D01*
X215158597Y-105460441D01*
X215135898Y-105515472D01*
X215126380Y-105538654D01*
X215126269Y-105538928D01*
X215107228Y-105558503D01*
X215070694Y-105558279D01*
X215011954Y-105537210D01*
X214926292Y-105494249D01*
X214919549Y-105490631D01*
X214855938Y-105458087D01*
X214805707Y-105435050D01*
X214779218Y-105426308D01*
X214757506Y-105436639D01*
X214708984Y-105465788D01*
X214639163Y-105510287D01*
X214553484Y-105566668D01*
X214457388Y-105631462D01*
X214362706Y-105694984D01*
X214275132Y-105751705D01*
X214202642Y-105796547D01*
X214150889Y-105826016D01*
X214125526Y-105836616D01*
X214121206Y-105835270D01*
X214091092Y-105814056D01*
X214039640Y-105770237D01*
X213971375Y-105707909D01*
X213890820Y-105631170D01*
X213802500Y-105544116D01*
X213510488Y-105251617D01*
X213965360Y-104582525D01*
X213896208Y-104432916D01*
X213896003Y-104432473D01*
X213854477Y-104337101D01*
X213812044Y-104230896D01*
X213777858Y-104136769D01*
X213772684Y-104121588D01*
X213746601Y-104051109D01*
X213723081Y-103996342D01*
X213706677Y-103968079D01*
X213699996Y-103964088D01*
X213659892Y-103950697D01*
X213591795Y-103933373D01*
X213503145Y-103913917D01*
X213401385Y-103894132D01*
X213370904Y-103888551D01*
X213260628Y-103868233D01*
X213157731Y-103849095D01*
X213072569Y-103833070D01*
X213015500Y-103822091D01*
X212912923Y-103801845D01*
X212912923Y-103374701D01*
X212912946Y-103322180D01*
X212913379Y-103194047D01*
X212914659Y-103098420D01*
X212917168Y-103030411D01*
X212921286Y-102985133D01*
X212927395Y-102957697D01*
X212935878Y-102943218D01*
X212947115Y-102936807D01*
X212957994Y-102934209D01*
X213002347Y-102925022D01*
X213073106Y-102910991D01*
X213163074Y-102893486D01*
X213265056Y-102873874D01*
X213371857Y-102853525D01*
X213476281Y-102833807D01*
X213571132Y-102816089D01*
X213649214Y-102801738D01*
X213703332Y-102792124D01*
X213726291Y-102788616D01*
X213727842Y-102786497D01*
X213740325Y-102759006D01*
X213761927Y-102706406D01*
X213789123Y-102637192D01*
X213826866Y-102543937D01*
X213873328Y-102436159D01*
X213916878Y-102341172D01*
X213926858Y-102319851D01*
X213954862Y-102253086D01*
X213971641Y-102201590D01*
X213973854Y-102175095D01*
X213972713Y-102173218D01*
X213954584Y-102145565D01*
X213918644Y-102091849D01*
X213868418Y-102017303D01*
X213807430Y-101927162D01*
X213739205Y-101826657D01*
X213662330Y-101712470D01*
X213604663Y-101623770D01*
X213565426Y-101558721D01*
X213542350Y-101513295D01*
X213533166Y-101483463D01*
X213535604Y-101465195D01*
X213536424Y-101463825D01*
X213558477Y-101437205D01*
X213603436Y-101388697D01*
X213666673Y-101323108D01*
X213743559Y-101245247D01*
X213829465Y-101159922D01*
X213918579Y-101073334D01*
X214005872Y-100991947D01*
X214070018Y-100937035D01*
X214112679Y-100907190D01*
X214135521Y-100901004D01*
X214138505Y-100902394D01*
X214169936Y-100921127D01*
X214226997Y-100957733D01*
X214304343Y-101008697D01*
X214396626Y-101070504D01*
X214498502Y-101139639D01*
X214830593Y-101366420D01*
X214980566Y-101298353D01*
X214984923Y-101296381D01*
X215077000Y-101256491D01*
X215174683Y-101216818D01*
X215257539Y-101185674D01*
X215257905Y-101185545D01*
X215323685Y-101161456D01*
X215374323Y-101141110D01*
X215398884Y-101128901D01*
X215399282Y-101128458D01*
X215407619Y-101103456D01*
X215421341Y-101046598D01*
X215439123Y-100964014D01*
X215459641Y-100861831D01*
X215481571Y-100746178D01*
X215482336Y-100742033D01*
X215504229Y-100624019D01*
X215524281Y-100517151D01*
X215541192Y-100428252D01*
X215553667Y-100364145D01*
X215560406Y-100331654D01*
X215560837Y-100329853D01*
X215565273Y-100315944D01*
X215574263Y-100305489D01*
X215592737Y-100297996D01*
X215625628Y-100292972D01*
X215677868Y-100289922D01*
X215754388Y-100288355D01*
X215860122Y-100287776D01*
X216000000Y-100287692D01*
X216017575Y-100287693D01*
G36*
X216017575Y-100287693D02*
G01*
X216153371Y-100287807D01*
X216255576Y-100288472D01*
X216329122Y-100290182D01*
X216378942Y-100293429D01*
X216409967Y-100298706D01*
X216427129Y-100306507D01*
X216435361Y-100317325D01*
X216439594Y-100331654D01*
X216439716Y-100332168D01*
X216446672Y-100365851D01*
X216459320Y-100430917D01*
X216476360Y-100520542D01*
X216496496Y-100627904D01*
X216518429Y-100746178D01*
X216520218Y-100755856D01*
X216542083Y-100870650D01*
X216562430Y-100971480D01*
X216579934Y-101052217D01*
X216593271Y-101106734D01*
X216601116Y-101128901D01*
X216601158Y-101128936D01*
X216625884Y-101141200D01*
X216676631Y-101161576D01*
X216742462Y-101185674D01*
X216746169Y-101186983D01*
X216830331Y-101218791D01*
X216928230Y-101258685D01*
X217019435Y-101298353D01*
X217169407Y-101366420D01*
X217501499Y-101139639D01*
X217524889Y-101123688D01*
X217625080Y-101055890D01*
X217714480Y-100996208D01*
X217787745Y-100948156D01*
X217839527Y-100915250D01*
X217864480Y-100901004D01*
X217881577Y-100904270D01*
X217920395Y-100929571D01*
X217980385Y-100979675D01*
X218063210Y-101055989D01*
X218170535Y-101159922D01*
X218180139Y-101169382D01*
X218265302Y-101254145D01*
X218340949Y-101330937D01*
X218402449Y-101394947D01*
X218445173Y-101441361D01*
X218464489Y-101465369D01*
X218464552Y-101465485D01*
X218467006Y-101483763D01*
X218457956Y-101513411D01*
X218435119Y-101558486D01*
X218396213Y-101623044D01*
X218338954Y-101711140D01*
X218261059Y-101826830D01*
X218247785Y-101846357D01*
X218180652Y-101945278D01*
X218121410Y-102032848D01*
X218073588Y-102103831D01*
X218040715Y-102152991D01*
X218026318Y-102175095D01*
X218025232Y-102179777D01*
X218032044Y-102214710D01*
X218052450Y-102271753D01*
X218083123Y-102341172D01*
X218124808Y-102431959D01*
X218171352Y-102539686D01*
X218210877Y-102637192D01*
X218220676Y-102662430D01*
X218246340Y-102726870D01*
X218265193Y-102771763D01*
X218273710Y-102788616D01*
X218283111Y-102789875D01*
X218325363Y-102797159D01*
X218394521Y-102809739D01*
X218483387Y-102826246D01*
X218584768Y-102845312D01*
X218691467Y-102865569D01*
X218796288Y-102885647D01*
X218892036Y-102904179D01*
X218971516Y-102919795D01*
X219027530Y-102931127D01*
X219052885Y-102936807D01*
X219057088Y-102938408D01*
X219067334Y-102947045D01*
X219074957Y-102965433D01*
X219080338Y-102998460D01*
X219083859Y-103051013D01*
X219085901Y-103127979D01*
X219086847Y-103234246D01*
X219087077Y-103374701D01*
X219087077Y-103801845D01*
X218984500Y-103822091D01*
X218972092Y-103824518D01*
X218906199Y-103837088D01*
X218815084Y-103854170D01*
X218709104Y-103873829D01*
X218598615Y-103894132D01*
X218555105Y-103902299D01*
X218457882Y-103922167D01*
X218376858Y-103940954D01*
X218319477Y-103956859D01*
X218293187Y-103968079D01*
X218281273Y-103986411D01*
X218259583Y-104034916D01*
X218237395Y-104097692D01*
X218229585Y-104121200D01*
X218200835Y-104198366D01*
X218163752Y-104289694D01*
X218124375Y-104380093D01*
X218103315Y-104427310D01*
X218073311Y-104497837D01*
X218052692Y-104550655D01*
X218045026Y-104576912D01*
X218045452Y-104578894D01*
X218059993Y-104606751D01*
X218092783Y-104660510D01*
X218140493Y-104734963D01*
X218199798Y-104824897D01*
X218267369Y-104925104D01*
X218489713Y-105251416D01*
X218197601Y-105544016D01*
X218169349Y-105572171D01*
X218082961Y-105656449D01*
X218005756Y-105729128D01*
X217942258Y-105786112D01*
X217896990Y-105823307D01*
X217874474Y-105836616D01*
X217850023Y-105826490D01*
X217798819Y-105797421D01*
X217726747Y-105752896D01*
X217639460Y-105696411D01*
X217542612Y-105631462D01*
X217447486Y-105567314D01*
X217361669Y-105510827D01*
X217291652Y-105466184D01*
X217242876Y-105436855D01*
X217220783Y-105426308D01*
X217219488Y-105426404D01*
X217190139Y-105436802D01*
X217138093Y-105461012D01*
X217073708Y-105494249D01*
X217073032Y-105494613D01*
X216987521Y-105537441D01*
X216928926Y-105558365D01*
X216892571Y-105558423D01*
X216873775Y-105538654D01*
X216865819Y-105519195D01*
X216844347Y-105467080D01*
X216811273Y-105386964D01*
X216768356Y-105283107D01*
X216717356Y-105159767D01*
X216660033Y-105021201D01*
X216598146Y-104871670D01*
X216542052Y-104735636D01*
X216484977Y-104596050D01*
X216434479Y-104471315D01*
X216392254Y-104365672D01*
X216359995Y-104283365D01*
X216339397Y-104228635D01*
X216332154Y-104205726D01*
X216345986Y-104184718D01*
X216384412Y-104149642D01*
X216438807Y-104108887D01*
X216569395Y-104002267D01*
X216686260Y-103866025D01*
X216771780Y-103716118D01*
X216825431Y-103556971D01*
X216846684Y-103393012D01*
X216835014Y-103228667D01*
X216789894Y-103068361D01*
X216710797Y-102916520D01*
X216597197Y-102777572D01*
X216537965Y-102723460D01*
X216396054Y-102627782D01*
X216244206Y-102565405D01*
X216086861Y-102534844D01*
X215928456Y-102534615D01*
X215773429Y-102563232D01*
X215626220Y-102619210D01*
X215491266Y-102701064D01*
X215373005Y-102807309D01*
X215275877Y-102936459D01*
X215204318Y-103087031D01*
X215162769Y-103257539D01*
X215155143Y-103339722D01*
X215165634Y-103517775D01*
X215212882Y-103686704D01*
X215295489Y-103843522D01*
X215412059Y-103985245D01*
X215561193Y-104108887D01*
X215613561Y-104147982D01*
X215652832Y-104183443D01*
X215667846Y-104205692D01*
X215661859Y-104225088D01*
X215642432Y-104277059D01*
X215611194Y-104357002D01*
X215569839Y-104460673D01*
X215520061Y-104583832D01*
X215463553Y-104722234D01*
X215402009Y-104871637D01*
X215346008Y-105007020D01*
X215288184Y-105146852D01*
X215236500Y-105271872D01*
X215192718Y-105377822D01*
X215158597Y-105460441D01*
X215135898Y-105515472D01*
X215126380Y-105538654D01*
X215126269Y-105538928D01*
X215107228Y-105558503D01*
X215070694Y-105558279D01*
X215011954Y-105537210D01*
X214926292Y-105494249D01*
X214919549Y-105490631D01*
X214855938Y-105458087D01*
X214805707Y-105435050D01*
X214779218Y-105426308D01*
X214757506Y-105436639D01*
X214708984Y-105465788D01*
X214639163Y-105510287D01*
X214553484Y-105566668D01*
X214457388Y-105631462D01*
X214362706Y-105694984D01*
X214275132Y-105751705D01*
X214202642Y-105796547D01*
X214150889Y-105826016D01*
X214125526Y-105836616D01*
X214121206Y-105835270D01*
X214091092Y-105814056D01*
X214039640Y-105770237D01*
X213971375Y-105707909D01*
X213890820Y-105631170D01*
X213802500Y-105544116D01*
X213510488Y-105251617D01*
X213965360Y-104582525D01*
X213896208Y-104432916D01*
X213896003Y-104432473D01*
X213854477Y-104337101D01*
X213812044Y-104230896D01*
X213777858Y-104136769D01*
X213772684Y-104121588D01*
X213746601Y-104051109D01*
X213723081Y-103996342D01*
X213706677Y-103968079D01*
X213699996Y-103964088D01*
X213659892Y-103950697D01*
X213591795Y-103933373D01*
X213503145Y-103913917D01*
X213401385Y-103894132D01*
X213370904Y-103888551D01*
X213260628Y-103868233D01*
X213157731Y-103849095D01*
X213072569Y-103833070D01*
X213015500Y-103822091D01*
X212912923Y-103801845D01*
X212912923Y-103374701D01*
X212912946Y-103322180D01*
X212913379Y-103194047D01*
X212914659Y-103098420D01*
X212917168Y-103030411D01*
X212921286Y-102985133D01*
X212927395Y-102957697D01*
X212935878Y-102943218D01*
X212947115Y-102936807D01*
X212957994Y-102934209D01*
X213002347Y-102925022D01*
X213073106Y-102910991D01*
X213163074Y-102893486D01*
X213265056Y-102873874D01*
X213371857Y-102853525D01*
X213476281Y-102833807D01*
X213571132Y-102816089D01*
X213649214Y-102801738D01*
X213703332Y-102792124D01*
X213726291Y-102788616D01*
X213727842Y-102786497D01*
X213740325Y-102759006D01*
X213761927Y-102706406D01*
X213789123Y-102637192D01*
X213826866Y-102543937D01*
X213873328Y-102436159D01*
X213916878Y-102341172D01*
X213926858Y-102319851D01*
X213954862Y-102253086D01*
X213971641Y-102201590D01*
X213973854Y-102175095D01*
X213972713Y-102173218D01*
X213954584Y-102145565D01*
X213918644Y-102091849D01*
X213868418Y-102017303D01*
X213807430Y-101927162D01*
X213739205Y-101826657D01*
X213662330Y-101712470D01*
X213604663Y-101623770D01*
X213565426Y-101558721D01*
X213542350Y-101513295D01*
X213533166Y-101483463D01*
X213535604Y-101465195D01*
X213536424Y-101463825D01*
X213558477Y-101437205D01*
X213603436Y-101388697D01*
X213666673Y-101323108D01*
X213743559Y-101245247D01*
X213829465Y-101159922D01*
X213918579Y-101073334D01*
X214005872Y-100991947D01*
X214070018Y-100937035D01*
X214112679Y-100907190D01*
X214135521Y-100901004D01*
X214138505Y-100902394D01*
X214169936Y-100921127D01*
X214226997Y-100957733D01*
X214304343Y-101008697D01*
X214396626Y-101070504D01*
X214498502Y-101139639D01*
X214830593Y-101366420D01*
X214980566Y-101298353D01*
X214984923Y-101296381D01*
X215077000Y-101256491D01*
X215174683Y-101216818D01*
X215257539Y-101185674D01*
X215257905Y-101185545D01*
X215323685Y-101161456D01*
X215374323Y-101141110D01*
X215398884Y-101128901D01*
X215399282Y-101128458D01*
X215407619Y-101103456D01*
X215421341Y-101046598D01*
X215439123Y-100964014D01*
X215459641Y-100861831D01*
X215481571Y-100746178D01*
X215482336Y-100742033D01*
X215504229Y-100624019D01*
X215524281Y-100517151D01*
X215541192Y-100428252D01*
X215553667Y-100364145D01*
X215560406Y-100331654D01*
X215560837Y-100329853D01*
X215565273Y-100315944D01*
X215574263Y-100305489D01*
X215592737Y-100297996D01*
X215625628Y-100292972D01*
X215677868Y-100289922D01*
X215754388Y-100288355D01*
X215860122Y-100287776D01*
X216000000Y-100287692D01*
X216017575Y-100287693D01*
G37*
D14*
%TO.C,R5*%
X154077500Y-103227064D02*
X154077500Y-102772936D01*
X155547500Y-103227064D02*
X155547500Y-102772936D01*
%TO.C,R1*%
X105477064Y-105985000D02*
X105022936Y-105985000D01*
X105477064Y-104515000D02*
X105022936Y-104515000D01*
%TO.C,J1*%
X182320000Y-100590000D02*
X194790000Y-100590000D01*
X182320000Y-105910000D02*
X182320000Y-100590000D01*
X186020000Y-100650000D02*
X191090000Y-100650000D01*
X186020000Y-105850000D02*
X186020000Y-100650000D01*
X187555000Y-105850000D02*
X186020000Y-105850000D01*
X191090000Y-100650000D02*
X191090000Y-105850000D01*
X191090000Y-105850000D02*
X189555000Y-105850000D01*
X194790000Y-100590000D02*
X194790000Y-105910000D01*
X194790000Y-105910000D02*
X182320000Y-105910000D01*
X189555000Y-105850000D02*
G75*
G03*
X187555000Y-105850000I-1000000J0D01*
G01*
%TO.C,Q1*%
X159312500Y-101440000D02*
X158662500Y-101440000D01*
X159312500Y-101440000D02*
X159962500Y-101440000D01*
X159312500Y-104560000D02*
X157637500Y-104560000D01*
X159312500Y-104560000D02*
X159962500Y-104560000D01*
%TD*%
M02*
