%TF.GenerationSoftware,KiCad,Pcbnew,7.0.10*%
%TF.CreationDate,2024-01-31T18:16:45-05:00*%
%TF.ProjectId,FoMoCoFastCharger,466f4d6f-436f-4466-9173-744368617267,rev?*%
%TF.SameCoordinates,Original*%
%TF.FileFunction,Soldermask,Bot*%
%TF.FilePolarity,Negative*%
%FSLAX46Y46*%
G04 Gerber Fmt 4.6, Leading zero omitted, Abs format (unit mm)*
G04 Created by KiCad (PCBNEW 7.0.10) date 2024-01-31 18:16:45*
%MOMM*%
%LPD*%
G01*
G04 APERTURE LIST*
G04 Aperture macros list*
%AMRoundRect*
0 Rectangle with rounded corners*
0 $1 Rounding radius*
0 $2 $3 $4 $5 $6 $7 $8 $9 X,Y pos of 4 corners*
0 Add a 4 corners polygon primitive as box body*
4,1,4,$2,$3,$4,$5,$6,$7,$8,$9,$2,$3,0*
0 Add four circle primitives for the rounded corners*
1,1,$1+$1,$2,$3*
1,1,$1+$1,$4,$5*
1,1,$1+$1,$6,$7*
1,1,$1+$1,$8,$9*
0 Add four rect primitives between the rounded corners*
20,1,$1+$1,$2,$3,$4,$5,0*
20,1,$1+$1,$4,$5,$6,$7,0*
20,1,$1+$1,$6,$7,$8,$9,0*
20,1,$1+$1,$8,$9,$2,$3,0*%
G04 Aperture macros list end*
%ADD10R,1.700000X1.700000*%
%ADD11O,1.700000X1.700000*%
%ADD12RoundRect,0.250000X0.450000X-0.262500X0.450000X0.262500X-0.450000X0.262500X-0.450000X-0.262500X0*%
%ADD13R,3.100000X1.600000*%
%ADD14RoundRect,0.250000X0.475000X-0.250000X0.475000X0.250000X-0.475000X0.250000X-0.475000X-0.250000X0*%
%ADD15RoundRect,0.150000X0.512500X0.150000X-0.512500X0.150000X-0.512500X-0.150000X0.512500X-0.150000X0*%
%ADD16RoundRect,0.250000X-0.450000X0.262500X-0.450000X-0.262500X0.450000X-0.262500X0.450000X0.262500X0*%
%ADD17RoundRect,0.250000X0.262500X0.450000X-0.262500X0.450000X-0.262500X-0.450000X0.262500X-0.450000X0*%
%ADD18RoundRect,0.150000X-0.587500X-0.150000X0.587500X-0.150000X0.587500X0.150000X-0.587500X0.150000X0*%
G04 APERTURE END LIST*
D10*
%TO.C,J3*%
X67525000Y-100210000D03*
D11*
X67525000Y-102750000D03*
X64985000Y-100210000D03*
X64985000Y-102750000D03*
%TD*%
D12*
%TO.C,TH1*%
X117500000Y-103912500D03*
X117500000Y-102087500D03*
%TD*%
D13*
%TO.C,J2*%
X72055000Y-107520000D03*
X72055000Y-104980000D03*
X80945000Y-104980000D03*
X80945000Y-107520000D03*
%TD*%
D12*
%TO.C,R4*%
X148000000Y-103912500D03*
X148000000Y-102087500D03*
%TD*%
%TO.C,R2*%
X137500000Y-103912500D03*
X137500000Y-102087500D03*
%TD*%
%TO.C,R3*%
X134000000Y-103912500D03*
X134000000Y-102087500D03*
%TD*%
D14*
%TO.C,C1*%
X124500000Y-103950000D03*
X124500000Y-102050000D03*
%TD*%
D12*
%TO.C,R6*%
X151500000Y-103912500D03*
X151500000Y-102087500D03*
%TD*%
D15*
%TO.C,U1*%
X130275000Y-102050000D03*
X130275000Y-103000000D03*
X130275000Y-103950000D03*
X128000000Y-103950000D03*
X128000000Y-103000000D03*
X128000000Y-102050000D03*
%TD*%
D16*
%TO.C,R9*%
X121000000Y-102087500D03*
X121000000Y-103912500D03*
%TD*%
D13*
%TO.C,J4*%
X238000000Y-104520000D03*
X238000000Y-101980000D03*
X246890000Y-101980000D03*
X246890000Y-104520000D03*
%TD*%
D12*
%TO.C,R8*%
X141000000Y-103912500D03*
X141000000Y-102087500D03*
%TD*%
%TO.C,R7*%
X144500000Y-103912500D03*
X144500000Y-102087500D03*
%TD*%
%TO.C,R5*%
X154812500Y-103912500D03*
X154812500Y-102087500D03*
%TD*%
D17*
%TO.C,R1*%
X106162500Y-105250000D03*
X104337500Y-105250000D03*
%TD*%
D13*
%TO.C,J1*%
X184110000Y-104520000D03*
X184110000Y-101980000D03*
X193000000Y-101980000D03*
X193000000Y-104520000D03*
%TD*%
D18*
%TO.C,Q1*%
X158375000Y-103950000D03*
X158375000Y-102050000D03*
X160250000Y-103000000D03*
%TD*%
M02*
