<?xml version="1.0" encoding="UTF-8"?>
<svg xmlns="http://www.w3.org/2000/svg" width="800.000" height="600.000" viewBox="0.0 0.0 800.000 600.000" version="1.1">
  <title>Produce by Acme CAD Converter</title>
  <desc>Produce by Acme CAD Converter</desc>
<polyline points="655.06,240.87 655.24,239.63 655.79,238.5 656.64,237.58 657.73,236.95 658.95,236.67 660.2,236.77 661.37,237.23 662.35,238.01 663.05,239.04 663.42,240.24 663.42,241.5 663.05,242.7 662.35,243.73 661.37,244.51 660.2,244.97 658.95,245.07 657.73,244.79 656.64,244.16 655.79,243.24 655.24,242.11 655.06,240.87" style="fill:none;stroke:black;stroke-width:0.5"/>
<polyline points="655.06,317.42 655.24,316.18 655.79,315.05 656.64,314.13 657.73,313.51 658.95,313.23 660.2,313.32 661.37,313.78 662.35,314.56 663.05,315.6 663.42,316.79 663.42,318.05 663.05,319.25 662.35,320.28 661.37,321.07 660.2,321.52 658.95,321.62 657.73,321.34 656.64,320.71 655.79,319.79 655.24,318.66 655.06,317.42" style="fill:none;stroke:black;stroke-width:0.5"/>
<polyline points="603.9,189.71 604.08,188.47 604.63,187.34 605.48,186.42 606.57,185.79 607.79,185.51 609.04,185.61 610.21,186.07 611.19,186.85 611.89,187.88 612.26,189.08 612.26,190.34 611.89,191.54 611.19,192.57 610.21,193.35 609.04,193.81 607.79,193.91 606.57,193.63 605.48,193 604.63,192.08 604.08,190.95 603.9,189.71" style="fill:none;stroke:black;stroke-width:0.5"/>
<polyline points="86.48,466.29 86.66,465.05 87.21,463.92 88.06,463 89.15,462.38 90.37,462.1 91.62,462.19 92.79,462.65 93.77,463.43 94.47,464.47 94.84,465.67 94.84,466.92 94.47,468.12 93.77,469.15 92.79,469.94 91.62,470.39 90.37,470.49 89.15,470.21 88.06,469.58 87.21,468.66 86.66,467.53 86.48,466.29" style="fill:none;stroke:black;stroke-width:0.5"/>
<polyline points="610.85,376.62 611.04,375.38 611.58,374.25 612.43,373.33 613.52,372.7 614.74,372.42 615.99,372.52 617.16,372.98 618.14,373.76 618.85,374.79 619.22,375.99 619.22,377.25 618.85,378.44 618.14,379.48 617.16,380.26 615.99,380.72 614.74,380.81 613.52,380.54 612.43,379.91 611.58,378.99 611.04,377.86 610.85,376.62" style="fill:none;stroke:black;stroke-width:0.5"/>
<polyline points="102.47,317.42 102.65,316.18 103.2,315.05 104.05,314.13 105.14,313.51 106.36,313.23 107.61,313.32 108.78,313.78 109.76,314.56 110.46,315.6 110.83,316.79 110.83,318.05 110.46,319.25 109.76,320.28 108.78,321.07 107.61,321.52 106.36,321.62 105.14,321.34 104.05,320.71 103.2,319.79 102.65,318.66 102.47,317.42" style="fill:none;stroke:black;stroke-width:0.5"/>
<polyline points="102.47,240.87 102.65,239.63 103.2,238.5 104.05,237.58 105.14,236.95 106.36,236.67 107.61,236.77 108.78,237.23 109.76,238.01 110.46,239.04 110.83,240.24 110.83,241.5 110.46,242.7 109.76,243.73 108.78,244.51 107.61,244.97 106.36,245.07 105.14,244.79 104.05,244.16 103.2,243.24 102.65,242.11 102.47,240.87" style="fill:none;stroke:black;stroke-width:0.5"/>
<polyline points="146.67,376.62 146.86,375.38 147.4,374.25 148.26,373.33 149.34,372.7 150.57,372.42 151.82,372.52 152.98,372.98 153.96,373.76 154.67,374.79 155.04,375.99 155.04,377.25 154.67,378.44 153.96,379.48 152.98,380.26 151.82,380.72 150.57,380.81 149.34,380.54 148.26,379.91 147.4,378.99 146.86,377.86 146.67,376.62" style="fill:none;stroke:black;stroke-width:0.5"/>
<polyline points="675.77,466.29 675.96,465.05 676.5,463.92 677.35,463 678.44,462.38 679.66,462.1 680.91,462.19 682.08,462.65 683.06,463.43 683.77,464.47 684.14,465.67 684.14,466.92 683.77,468.12 683.06,469.15 682.08,469.94 680.91,470.39 679.66,470.49 678.44,470.21 677.35,469.58 676.5,468.66 675.96,467.53 675.77,466.29" style="fill:none;stroke:black;stroke-width:0.5"/>
<polyline points="153.63,189.71 153.81,188.47 154.36,187.34 155.21,186.42 156.3,185.79 157.52,185.51 158.77,185.61 159.94,186.07 160.92,186.85 161.62,187.88 161.99,189.08 161.99,190.34 161.62,191.54 160.92,192.57 159.94,193.35 158.77,193.81 157.52,193.91 156.3,193.63 155.21,193 154.36,192.08 153.81,190.95 153.63,189.71" style="fill:none;stroke:black;stroke-width:0.5"/>
<polyline points="99.82,379.55 101.85,379.36 103.81,378.8 105.64,377.89 107.27,376.66 108.65,375.15 109.72,373.42 110.46,371.51 110.83,369.51 110.83,367.46 110.46,365.46 109.72,363.55 108.65,361.82 107.27,360.31 105.64,359.08 103.81,358.17 101.85,357.61 99.82,357.42" style="fill:none;stroke:black;stroke-width:0.5"/>
<polyline points="666.12,357.42 664.09,357.61 662.12,358.17 660.29,359.08 658.67,360.31 657.29,361.82 656.22,363.55 655.48,365.46 655.1,367.46 655.1,369.51 655.48,371.51 656.22,373.42 657.29,375.15 658.67,376.66 660.29,377.89 662.12,378.8 664.09,379.36 666.12,379.55" style="fill:none;stroke:black;stroke-width:0.5"/>
<polyline points="99.82,379.55 60.68,379.55" style="fill:none;stroke:black;stroke-width:0.5"/>
<polyline points="666.12,379.55 709.98,379.55" style="fill:none;stroke:black;stroke-width:0.5"/>
<polyline points="50.68,475.53 50.68,389.55" style="fill:none;stroke:black;stroke-width:0.5"/>
<polyline points="719.98,389.55 719.98,475.53" style="fill:none;stroke:black;stroke-width:0.5"/>
<polyline points="575.09,140.92 575.26,142.21 575.76,143.42 576.56,144.45 577.59,145.25 578.8,145.75 580.09,145.92" style="fill:none;stroke:black;stroke-width:0.5"/>
<polyline points="617.34,145.92 618.63,145.75 619.84,145.25 620.87,144.45 621.67,143.42 622.17,142.21 622.34,140.92" style="fill:none;stroke:black;stroke-width:0.5"/>
<polyline points="575.09,111.94 574.92,110.65 574.42,109.44 573.63,108.41 572.59,107.61 571.39,107.11 570.09,106.94" style="fill:none;stroke:black;stroke-width:0.5"/>
<polyline points="556.75,106.94 555.45,107.11 554.25,107.61 553.21,108.41 552.42,109.44 551.92,110.65 551.75,111.94" style="fill:none;stroke:black;stroke-width:0.5"/>
<polyline points="546.75,133.44 548.04,133.27 549.25,132.77 550.28,131.97 551.08,130.94 551.58,129.73 551.75,128.44" style="fill:none;stroke:black;stroke-width:0.5"/>
<polyline points="501.12,133.44 499.82,133.61 498.62,134.11 497.58,134.9 496.79,135.94 496.29,137.14 496.12,138.44" style="fill:none;stroke:black;stroke-width:0.5"/>
<polyline points="491.12,149.18 492.41,149.01 493.62,148.51 494.65,147.72 495.45,146.68 495.95,145.48 496.12,144.18" style="fill:none;stroke:black;stroke-width:0.5"/>
<polyline points="475.92,149.18 474.63,149.35 473.42,149.85 472.39,150.65 471.59,151.68 471.09,152.89 470.92,154.18" style="fill:none;stroke:black;stroke-width:0.5"/>
<polyline points="656.14,111.94 655.97,110.65 655.48,109.44 654.68,108.41 653.64,107.61 652.44,107.11 651.14,106.94" style="fill:none;stroke:black;stroke-width:0.5"/>
<polyline points="627.34,106.94 626.04,107.11 624.84,107.61 623.8,108.41 623.01,109.44 622.51,110.65 622.34,111.94" style="fill:none;stroke:black;stroke-width:0.5"/>
<polyline points="305.02,132.53 304.84,131.24 304.35,130.03 303.55,128.99 302.52,128.2 301.31,127.7 300.02,127.53" style="fill:none;stroke:black;stroke-width:0.5"/>
<polyline points="300.02,154.85 301.31,154.68 302.52,154.18 303.55,153.39 304.35,152.35 304.84,151.15 305.02,149.85" style="fill:none;stroke:black;stroke-width:0.5"/>
<polyline points="246.47,149.85 246.64,151.15 247.14,152.35 247.94,153.39 248.97,154.18 250.18,154.68 251.47,154.85" style="fill:none;stroke:black;stroke-width:0.5"/>
<polyline points="251.47,127.53 250.18,127.7 248.97,128.2 247.94,128.99 247.14,130.03 246.64,131.24 246.47,132.53" style="fill:none;stroke:black;stroke-width:0.5"/>
<polyline points="617.34,145.92 580.09,145.92" style="fill:none;stroke:black;stroke-width:0.5"/>
<polyline points="622.34,111.94 622.34,140.92" style="fill:none;stroke:black;stroke-width:0.5"/>
<polyline points="551.75,111.94 551.75,128.44" style="fill:none;stroke:black;stroke-width:0.5"/>
<polyline points="546.75,133.44 501.12,133.44" style="fill:none;stroke:black;stroke-width:0.5"/>
<polyline points="496.12,138.44 496.12,144.18" style="fill:none;stroke:black;stroke-width:0.5"/>
<polyline points="491.12,149.18 475.92,149.18" style="fill:none;stroke:black;stroke-width:0.5"/>
<polyline points="470.92,154.18 470.92,161.9" style="fill:none;stroke:black;stroke-width:0.5"/>
<polyline points="460.92,171.9 331.79,171.9" style="fill:none;stroke:black;stroke-width:0.5"/>
<polyline points="321.79,161.9 321.79,116.94" style="fill:none;stroke:black;stroke-width:0.5"/>
<polyline points="115.25,116.94 115.25,179.58" style="fill:none;stroke:black;stroke-width:0.5"/>
<polyline points="575.09,140.92 575.09,111.94" style="fill:none;stroke:black;stroke-width:0.5"/>
<polyline points="251.47,127.53 300.02,127.53" style="fill:none;stroke:black;stroke-width:0.5"/>
<polyline points="305.02,132.53 305.02,149.85" style="fill:none;stroke:black;stroke-width:0.5"/>
<polyline points="300.02,154.85 251.47,154.85" style="fill:none;stroke:black;stroke-width:0.5"/>
<polyline points="246.47,149.85 246.47,132.53" style="fill:none;stroke:black;stroke-width:0.5"/>
<polyline points="556.75,106.94 570.09,106.94" style="fill:none;stroke:black;stroke-width:0.5"/>
<polyline points="125.25,106.94 311.79,106.94" style="fill:none;stroke:black;stroke-width:0.5"/>
<polyline points="627.34,106.94 651.14,106.94" style="fill:none;stroke:black;stroke-width:0.5"/>
<polyline points="367.93,266.97 368.12,265.86 368.68,264.89 369.54,264.17 370.6,263.79 371.72,263.79 372.77,264.17 373.63,264.89 374.19,265.86 374.39,266.97 374.19,268.07 373.63,269.04 372.77,269.76 371.72,270.15 370.6,270.15 369.54,269.76 368.68,269.04 368.12,268.07 367.93,266.97" style="fill:none;stroke:black;stroke-width:0.5"/>
<polyline points="593.2,322.46 593.4,320.51 593.97,318.63 594.89,316.91 596.13,315.39 597.65,314.15 599.38,313.22 601.25,312.65 603.2,312.46 605.15,312.65 607.03,313.22 608.76,314.15 610.28,315.39 611.52,316.91 612.44,318.63 613.01,320.51 613.2,322.46 613.01,324.41 612.44,326.29 611.52,328.02 610.28,329.53 608.76,330.78 607.03,331.7 605.15,332.27 603.2,332.46 601.25,332.27 599.38,331.7 597.65,330.78 596.13,329.53 594.89,328.02 593.97,326.29 593.4,324.41 593.2,322.46" style="fill:none;stroke:black;stroke-width:0.5"/>
<polyline points="593.2,240.57 593.4,238.62 593.97,236.75 594.89,235.02 596.13,233.5 597.65,232.26 599.38,231.33 601.25,230.76 603.2,230.57 605.15,230.76 607.03,231.33 608.76,232.26 610.28,233.5 611.52,235.02 612.44,236.75 613.01,238.62 613.2,240.57 613.01,242.52 612.44,244.4 611.52,246.13 610.28,247.64 608.76,248.89 607.03,249.81 605.15,250.38 603.2,250.57 601.25,250.38 599.38,249.81 597.65,248.89 596.13,247.64 594.89,246.13 593.97,244.4 593.4,242.52 593.2,240.57" style="fill:none;stroke:black;stroke-width:0.5"/>
<polyline points="511.31,322.46 511.51,320.51 512.08,318.63 513,316.91 514.24,315.39 515.76,314.15 517.49,313.22 519.36,312.65 521.31,312.46 523.27,312.65 525.14,313.22 526.87,314.15 528.39,315.39 529.63,316.91 530.55,318.63 531.12,320.51 531.31,322.46 531.12,324.41 530.55,326.29 529.63,328.02 528.39,329.53 526.87,330.78 525.14,331.7 523.27,332.27 521.31,332.46 519.36,332.27 517.49,331.7 515.76,330.78 514.24,329.53 513,328.02 512.08,326.29 511.51,324.41 511.31,322.46" style="fill:none;stroke:black;stroke-width:0.5"/>
<polyline points="429.42,322.46 429.62,320.51 430.19,318.63 431.11,316.91 432.35,315.39 433.87,314.15 435.6,313.22 437.47,312.65 439.42,312.46 441.38,312.65 443.25,313.22 444.98,314.15 446.5,315.39 447.74,316.91 448.66,318.63 449.23,320.51 449.42,322.46 449.23,324.41 448.66,326.29 447.74,328.02 446.5,329.53 444.98,330.78 443.25,331.7 441.38,332.27 439.42,332.46 437.47,332.27 435.6,331.7 433.87,330.78 432.35,329.53 431.11,328.02 430.19,326.29 429.62,324.41 429.42,322.46" style="fill:none;stroke:black;stroke-width:0.5"/>
<polyline points="347.53,322.46 347.73,320.51 348.3,318.63 349.22,316.91 350.46,315.39 351.98,314.15 353.71,313.22 355.58,312.65 357.53,312.46 359.49,312.65 361.36,313.22 363.09,314.15 364.61,315.39 365.85,316.91 366.77,318.63 367.34,320.51 367.53,322.46 367.34,324.41 366.77,326.29 365.85,328.02 364.61,329.53 363.09,330.78 361.36,331.7 359.49,332.27 357.53,332.46 355.58,332.27 353.71,331.7 351.98,330.78 350.46,329.53 349.22,328.02 348.3,326.29 347.73,324.41 347.53,322.46" style="fill:none;stroke:black;stroke-width:0.5"/>
<polyline points="265.64,322.46 265.84,320.51 266.41,318.63 267.33,316.91 268.57,315.39 270.09,314.15 271.82,313.22 273.69,312.65 275.64,312.46 277.6,312.65 279.47,313.22 281.2,314.15 282.72,315.39 283.96,316.91 284.88,318.63 285.45,320.51 285.64,322.46 285.45,324.41 284.88,326.29 283.96,328.02 282.72,329.53 281.2,330.78 279.47,331.7 277.6,332.27 275.64,332.46 273.69,332.27 271.82,331.7 270.09,330.78 268.57,329.53 267.33,328.02 266.41,326.29 265.84,324.41 265.64,322.46" style="fill:none;stroke:black;stroke-width:0.5"/>
<polyline points="183.76,322.46 183.95,320.51 184.52,318.63 185.44,316.91 186.68,315.39 188.2,314.15 189.93,313.22 191.8,312.65 193.76,312.46 195.71,312.65 197.58,313.22 199.31,314.15 200.83,315.39 202.07,316.91 202.99,318.63 203.56,320.51 203.76,322.46 203.56,324.41 202.99,326.29 202.07,328.02 200.83,329.53 199.31,330.78 197.58,331.7 195.71,332.27 193.76,332.46 191.8,332.27 189.93,331.7 188.2,330.78 186.68,329.53 185.44,328.02 184.52,326.29 183.95,324.41 183.76,322.46" style="fill:none;stroke:black;stroke-width:0.5"/>
<polyline points="531.79,342.93 531.98,340.98 532.55,339.11 533.47,337.38 534.72,335.86 536.23,334.62 537.96,333.7 539.84,333.13 541.79,332.93 543.74,333.13 545.61,333.7 547.34,334.62 548.86,335.86 550.1,337.38 551.03,339.11 551.59,340.98 551.79,342.93 551.59,344.88 551.03,346.76 550.1,348.49 548.86,350.01 547.34,351.25 545.61,352.17 543.74,352.74 541.79,352.93 539.84,352.74 537.96,352.17 536.23,351.25 534.72,350.01 533.47,348.49 532.55,346.76 531.98,344.88 531.79,342.93" style="fill:none;stroke:black;stroke-width:0.5"/>
<polyline points="449.9,342.93 450.09,340.98 450.66,339.11 451.58,337.38 452.83,335.86 454.34,334.62 456.07,333.7 457.95,333.13 459.9,332.93 461.85,333.13 463.72,333.7 465.45,334.62 466.97,335.86 468.21,337.38 469.14,339.11 469.7,340.98 469.9,342.93 469.7,344.88 469.14,346.76 468.21,348.49 466.97,350.01 465.45,351.25 463.72,352.17 461.85,352.74 459.9,352.93 457.95,352.74 456.07,352.17 454.34,351.25 452.83,350.01 451.58,348.49 450.66,346.76 450.09,344.88 449.9,342.93" style="fill:none;stroke:black;stroke-width:0.5"/>
<polyline points="368.01,342.93 368.2,340.98 368.77,339.11 369.69,337.38 370.94,335.86 372.45,334.62 374.18,333.7 376.06,333.13 378.01,332.93 379.96,333.13 381.83,333.7 383.56,334.62 385.08,335.86 386.32,337.38 387.25,339.11 387.82,340.98 388.01,342.93 387.82,344.88 387.25,346.76 386.32,348.49 385.08,350.01 383.56,351.25 381.83,352.17 379.96,352.74 378.01,352.93 376.06,352.74 374.18,352.17 372.45,351.25 370.94,350.01 369.69,348.49 368.77,346.76 368.2,344.88 368.01,342.93" style="fill:none;stroke:black;stroke-width:0.5"/>
<polyline points="286.12,342.93 286.31,340.98 286.88,339.11 287.8,337.38 289.05,335.86 290.56,334.62 292.29,333.7 294.17,333.13 296.12,332.93 298.07,333.13 299.94,333.7 301.67,334.62 303.19,335.86 304.43,337.38 305.36,339.11 305.93,340.98 306.12,342.93 305.93,344.88 305.36,346.76 304.43,348.49 303.19,350.01 301.67,351.25 299.94,352.17 298.07,352.74 296.12,352.93 294.17,352.74 292.29,352.17 290.56,351.25 289.05,350.01 287.8,348.49 286.88,346.76 286.31,344.88 286.12,342.93" style="fill:none;stroke:black;stroke-width:0.5"/>
<polyline points="204.23,342.93 204.42,340.98 204.99,339.11 205.91,337.38 207.16,335.86 208.67,334.62 210.4,333.7 212.28,333.13 214.23,332.93 216.18,333.13 218.05,333.7 219.78,334.62 221.3,335.86 222.54,337.38 223.47,339.11 224.04,340.98 224.23,342.93 224.04,344.88 223.47,346.76 222.54,348.49 221.3,350.01 219.78,351.25 218.05,352.17 216.18,352.74 214.23,352.93 212.28,352.74 210.4,352.17 208.67,351.25 207.16,350.01 205.91,348.49 204.99,346.76 204.42,344.88 204.23,342.93" style="fill:none;stroke:black;stroke-width:0.5"/>
<polyline points="552.26,281.52 552.45,279.57 553.02,277.69 553.94,275.96 555.19,274.45 556.7,273.2 558.43,272.28 560.31,271.71 562.26,271.52 564.21,271.71 566.09,272.28 567.81,273.2 569.33,274.45 570.57,275.96 571.5,277.69 572.07,279.57 572.26,281.52 572.07,283.47 571.5,285.34 570.57,287.07 569.33,288.59 567.81,289.83 566.09,290.76 564.21,291.32 562.26,291.52 560.31,291.32 558.43,290.76 556.7,289.83 555.19,288.59 553.94,287.07 553.02,285.34 552.45,283.47 552.26,281.52" style="fill:none;stroke:black;stroke-width:0.5"/>
<polyline points="511.31,281.52 511.51,279.57 512.08,277.69 513,275.96 514.24,274.45 515.76,273.2 517.49,272.28 519.36,271.71 521.31,271.52 523.27,271.71 525.14,272.28 526.87,273.2 528.39,274.45 529.63,275.96 530.55,277.69 531.12,279.57 531.31,281.52 531.12,283.47 530.55,285.34 529.63,287.07 528.39,288.59 526.87,289.83 525.14,290.76 523.27,291.32 521.31,291.52 519.36,291.32 517.49,290.76 515.76,289.83 514.24,288.59 513,287.07 512.08,285.34 511.51,283.47 511.31,281.52" style="fill:none;stroke:black;stroke-width:0.5"/>
<polyline points="470.37,281.52 470.56,279.57 471.13,277.69 472.05,275.96 473.3,274.45 474.81,273.2 476.54,272.28 478.42,271.71 480.37,271.52 482.32,271.71 484.2,272.28 485.93,273.2 487.44,274.45 488.68,275.96 489.61,277.69 490.18,279.57 490.37,281.52 490.18,283.47 489.61,285.34 488.68,287.07 487.44,288.59 485.93,289.83 484.2,290.76 482.32,291.32 480.37,291.52 478.42,291.32 476.54,290.76 474.81,289.83 473.3,288.59 472.05,287.07 471.13,285.34 470.56,283.47 470.37,281.52" style="fill:none;stroke:black;stroke-width:0.5"/>
<polyline points="429.42,281.52 429.62,279.57 430.19,277.69 431.11,275.96 432.35,274.45 433.87,273.2 435.6,272.28 437.47,271.71 439.42,271.52 441.38,271.71 443.25,272.28 444.98,273.2 446.5,274.45 447.74,275.96 448.66,277.69 449.23,279.57 449.42,281.52 449.23,283.47 448.66,285.34 447.74,287.07 446.5,288.59 444.98,289.83 443.25,290.76 441.38,291.32 439.42,291.52 437.47,291.32 435.6,290.76 433.87,289.83 432.35,288.59 431.11,287.07 430.19,285.34 429.62,283.47 429.42,281.52" style="fill:none;stroke:black;stroke-width:0.5"/>
<polyline points="347.53,281.52 347.73,279.57 348.3,277.69 349.22,275.96 350.46,274.45 351.98,273.2 353.71,272.28 355.58,271.71 357.53,271.52 359.49,271.71 361.36,272.28 363.09,273.2 364.61,274.45 365.85,275.96 366.77,277.69 367.34,279.57 367.53,281.52 367.34,283.47 366.77,285.34 365.85,287.07 364.61,288.59 363.09,289.83 361.36,290.76 359.49,291.32 357.53,291.52 355.58,291.32 353.71,290.76 351.98,289.83 350.46,288.59 349.22,287.07 348.3,285.34 347.73,283.47 347.53,281.52" style="fill:none;stroke:black;stroke-width:0.5"/>
<polyline points="306.59,281.52 306.78,279.57 307.35,277.69 308.28,275.96 309.52,274.45 311.03,273.2 312.76,272.28 314.64,271.71 316.59,271.52 318.54,271.71 320.42,272.28 322.15,273.2 323.66,274.45 324.9,275.96 325.83,277.69 326.4,279.57 326.59,281.52 326.4,283.47 325.83,285.34 324.9,287.07 323.66,288.59 322.15,289.83 320.42,290.76 318.54,291.32 316.59,291.52 314.64,291.32 312.76,290.76 311.03,289.83 309.52,288.59 308.28,287.07 307.35,285.34 306.78,283.47 306.59,281.52" style="fill:none;stroke:black;stroke-width:0.5"/>
<polyline points="265.64,281.52 265.84,279.57 266.41,277.69 267.33,275.96 268.57,274.45 270.09,273.2 271.82,272.28 273.69,271.71 275.64,271.52 277.6,271.71 279.47,272.28 281.2,273.2 282.72,274.45 283.96,275.96 284.88,277.69 285.45,279.57 285.64,281.52 285.45,283.47 284.88,285.34 283.96,287.07 282.72,288.59 281.2,289.83 279.47,290.76 277.6,291.32 275.64,291.52 273.69,291.32 271.82,290.76 270.09,289.83 268.57,288.59 267.33,287.07 266.41,285.34 265.84,283.47 265.64,281.52" style="fill:none;stroke:black;stroke-width:0.5"/>
<polyline points="224.7,281.52 224.89,279.57 225.46,277.69 226.39,275.96 227.63,274.45 229.14,273.2 230.87,272.28 232.75,271.71 234.7,271.52 236.65,271.71 238.53,272.28 240.26,273.2 241.77,274.45 243.01,275.96 243.94,277.69 244.51,279.57 244.7,281.52 244.51,283.47 243.94,285.34 243.01,287.07 241.77,288.59 240.26,289.83 238.53,290.76 236.65,291.32 234.7,291.52 232.75,291.32 230.87,290.76 229.14,289.83 227.63,288.59 226.39,287.07 225.46,285.34 224.89,283.47 224.7,281.52" style="fill:none;stroke:black;stroke-width:0.5"/>
<polyline points="183.76,281.52 183.95,279.57 184.52,277.69 185.44,275.96 186.68,274.45 188.2,273.2 189.93,272.28 191.8,271.71 193.76,271.52 195.71,271.71 197.58,272.28 199.31,273.2 200.83,274.45 202.07,275.96 202.99,277.69 203.56,279.57 203.76,281.52 203.56,283.47 202.99,285.34 202.07,287.07 200.83,288.59 199.31,289.83 197.58,290.76 195.71,291.32 193.76,291.52 191.8,291.32 189.93,290.76 188.2,289.83 186.68,288.59 185.44,287.07 184.52,285.34 183.95,283.47 183.76,281.52" style="fill:none;stroke:black;stroke-width:0.5"/>
<polyline points="572.73,301.99 572.92,300.04 573.49,298.16 574.42,296.43 575.66,294.92 577.18,293.67 578.9,292.75 580.78,292.18 582.73,291.99 584.68,292.18 586.56,292.75 588.29,293.67 589.8,294.92 591.05,296.43 591.97,298.16 592.54,300.04 592.73,301.99 592.54,303.94 591.97,305.82 591.05,307.54 589.8,309.06 588.29,310.3 586.56,311.23 584.68,311.8 582.73,311.99 580.78,311.8 578.9,311.23 577.18,310.3 575.66,309.06 574.42,307.54 573.49,305.82 572.92,303.94 572.73,301.99" style="fill:none;stroke:black;stroke-width:0.5"/>
<polyline points="572.73,220.1 572.92,218.15 573.49,216.27 574.42,214.54 575.66,213.03 577.18,211.78 578.9,210.86 580.78,210.29 582.73,210.1 584.68,210.29 586.56,210.86 588.29,211.78 589.8,213.03 591.05,214.54 591.97,216.27 592.54,218.15 592.73,220.1 592.54,222.05 591.97,223.93 591.05,225.66 589.8,227.17 588.29,228.41 586.56,229.34 584.68,229.91 582.73,230.1 580.78,229.91 578.9,229.34 577.18,228.41 575.66,227.17 574.42,225.66 573.49,223.93 572.92,222.05 572.73,220.1" style="fill:none;stroke:black;stroke-width:0.5"/>
<polyline points="531.79,261.04 531.98,259.09 532.55,257.22 533.47,255.49 534.72,253.97 536.23,252.73 537.96,251.81 539.84,251.24 541.79,251.04 543.74,251.24 545.61,251.81 547.34,252.73 548.86,253.97 550.1,255.49 551.03,257.22 551.59,259.09 551.79,261.04 551.59,263 551.03,264.87 550.1,266.6 548.86,268.12 547.34,269.36 545.61,270.28 543.74,270.85 541.79,271.04 539.84,270.85 537.96,270.28 536.23,269.36 534.72,268.12 533.47,266.6 532.55,264.87 531.98,263 531.79,261.04" style="fill:none;stroke:black;stroke-width:0.5"/>
<polyline points="490.84,301.99 491.03,300.04 491.6,298.16 492.53,296.43 493.77,294.92 495.29,293.67 497.02,292.75 498.89,292.18 500.84,291.99 502.79,292.18 504.67,292.75 506.4,293.67 507.91,294.92 509.16,296.43 510.08,298.16 510.65,300.04 510.84,301.99 510.65,303.94 510.08,305.82 509.16,307.54 507.91,309.06 506.4,310.3 504.67,311.23 502.79,311.8 500.84,311.99 498.89,311.8 497.02,311.23 495.29,310.3 493.77,309.06 492.53,307.54 491.6,305.82 491.03,303.94 490.84,301.99" style="fill:none;stroke:black;stroke-width:0.5"/>
<polyline points="490.84,220.1 491.03,218.15 491.6,216.27 492.53,214.54 493.77,213.03 495.29,211.78 497.02,210.86 498.89,210.29 500.84,210.1 502.79,210.29 504.67,210.86 506.4,211.78 507.91,213.03 509.16,214.54 510.08,216.27 510.65,218.15 510.84,220.1 510.65,222.05 510.08,223.93 509.16,225.66 507.91,227.17 506.4,228.41 504.67,229.34 502.79,229.91 500.84,230.1 498.89,229.91 497.02,229.34 495.29,228.41 493.77,227.17 492.53,225.66 491.6,223.93 491.03,222.05 490.84,220.1" style="fill:none;stroke:black;stroke-width:0.5"/>
<polyline points="449.9,261.04 450.09,259.09 450.66,257.22 451.58,255.49 452.83,253.97 454.34,252.73 456.07,251.81 457.95,251.24 459.9,251.04 461.85,251.24 463.72,251.81 465.45,252.73 466.97,253.97 468.21,255.49 469.14,257.22 469.7,259.09 469.9,261.04 469.7,263 469.14,264.87 468.21,266.6 466.97,268.12 465.45,269.36 463.72,270.28 461.85,270.85 459.9,271.04 457.95,270.85 456.07,270.28 454.34,269.36 452.83,268.12 451.58,266.6 450.66,264.87 450.09,263 449.9,261.04" style="fill:none;stroke:black;stroke-width:0.5"/>
<polyline points="408.95,301.99 409.14,300.04 409.71,298.16 410.64,296.43 411.88,294.92 413.4,293.67 415.13,292.75 417,292.18 418.95,291.99 420.9,292.18 422.78,292.75 424.51,293.67 426.02,294.92 427.27,296.43 428.19,298.16 428.76,300.04 428.95,301.99 428.76,303.94 428.19,305.82 427.27,307.54 426.02,309.06 424.51,310.3 422.78,311.23 420.9,311.8 418.95,311.99 417,311.8 415.13,311.23 413.4,310.3 411.88,309.06 410.64,307.54 409.71,305.82 409.14,303.94 408.95,301.99" style="fill:none;stroke:black;stroke-width:0.5"/>
<polyline points="327.06,301.99 327.25,300.04 327.82,298.16 328.75,296.43 329.99,294.92 331.51,293.67 333.24,292.75 335.11,292.18 337.06,291.99 339.01,292.18 340.89,292.75 342.62,293.67 344.13,294.92 345.38,296.43 346.3,298.16 346.87,300.04 347.06,301.99 346.87,303.94 346.3,305.82 345.38,307.54 344.13,309.06 342.62,310.3 340.89,311.23 339.01,311.8 337.06,311.99 335.11,311.8 333.24,311.23 331.51,310.3 329.99,309.06 328.75,307.54 327.82,305.82 327.25,303.94 327.06,301.99" style="fill:none;stroke:black;stroke-width:0.5"/>
<polyline points="327.06,220.1 327.25,218.15 327.82,216.27 328.75,214.54 329.99,213.03 331.51,211.78 333.24,210.86 335.11,210.29 337.06,210.1 339.01,210.29 340.89,210.86 342.62,211.78 344.13,213.03 345.38,214.54 346.3,216.27 346.87,218.15 347.06,220.1 346.87,222.05 346.3,223.93 345.38,225.66 344.13,227.17 342.62,228.41 340.89,229.34 339.01,229.91 337.06,230.1 335.11,229.91 333.24,229.34 331.51,228.41 329.99,227.17 328.75,225.66 327.82,223.93 327.25,222.05 327.06,220.1" style="fill:none;stroke:black;stroke-width:0.5"/>
<polyline points="286.12,261.04 286.31,259.09 286.88,257.22 287.8,255.49 289.05,253.97 290.56,252.73 292.29,251.81 294.17,251.24 296.12,251.04 298.07,251.24 299.94,251.81 301.67,252.73 303.19,253.97 304.43,255.49 305.36,257.22 305.93,259.09 306.12,261.04 305.93,263 305.36,264.87 304.43,266.6 303.19,268.12 301.67,269.36 299.94,270.28 298.07,270.85 296.12,271.04 294.17,270.85 292.29,270.28 290.56,269.36 289.05,268.12 287.8,266.6 286.88,264.87 286.31,263 286.12,261.04" style="fill:none;stroke:black;stroke-width:0.5"/>
<polyline points="245.17,301.99 245.36,300.04 245.93,298.16 246.86,296.43 248.1,294.92 249.62,293.67 251.35,292.75 253.22,292.18 255.17,291.99 257.12,292.18 259,292.75 260.73,293.67 262.24,294.92 263.49,296.43 264.41,298.16 264.98,300.04 265.17,301.99 264.98,303.94 264.41,305.82 263.49,307.54 262.24,309.06 260.73,310.3 259,311.23 257.12,311.8 255.17,311.99 253.22,311.8 251.35,311.23 249.62,310.3 248.1,309.06 246.86,307.54 245.93,305.82 245.36,303.94 245.17,301.99" style="fill:none;stroke:black;stroke-width:0.5"/>
<polyline points="245.17,220.1 245.36,218.15 245.93,216.27 246.86,214.54 248.1,213.03 249.62,211.78 251.35,210.86 253.22,210.29 255.17,210.1 257.12,210.29 259,210.86 260.73,211.78 262.24,213.03 263.49,214.54 264.41,216.27 264.98,218.15 265.17,220.1 264.98,222.05 264.41,223.93 263.49,225.66 262.24,227.17 260.73,228.41 259,229.34 257.12,229.91 255.17,230.1 253.22,229.91 251.35,229.34 249.62,228.41 248.1,227.17 246.86,225.66 245.93,223.93 245.36,222.05 245.17,220.1" style="fill:none;stroke:black;stroke-width:0.5"/>
<polyline points="204.23,261.04 204.42,259.09 204.99,257.22 205.91,255.49 207.16,253.97 208.67,252.73 210.4,251.81 212.28,251.24 214.23,251.04 216.18,251.24 218.05,251.81 219.78,252.73 221.3,253.97 222.54,255.49 223.47,257.22 224.04,259.09 224.23,261.04 224.04,263 223.47,264.87 222.54,266.6 221.3,268.12 219.78,269.36 218.05,270.28 216.18,270.85 214.23,271.04 212.28,270.85 210.4,270.28 208.67,269.36 207.16,268.12 205.91,266.6 204.99,264.87 204.42,263 204.23,261.04" style="fill:none;stroke:black;stroke-width:0.5"/>
<polyline points="163.28,301.99 163.47,300.04 164.04,298.16 164.97,296.43 166.21,294.92 167.73,293.67 169.46,292.75 171.33,292.18 173.28,291.99 175.23,292.18 177.11,292.75 178.84,293.67 180.35,294.92 181.6,296.43 182.52,298.16 183.09,300.04 183.28,301.99 183.09,303.94 182.52,305.82 181.6,307.54 180.35,309.06 178.84,310.3 177.11,311.23 175.23,311.8 173.28,311.99 171.33,311.8 169.46,311.23 167.73,310.3 166.21,309.06 164.97,307.54 164.04,305.82 163.47,303.94 163.28,301.99" style="fill:none;stroke:black;stroke-width:0.5"/>
<polyline points="163.28,220.1 163.47,218.15 164.04,216.27 164.97,214.54 166.21,213.03 167.73,211.78 169.46,210.86 171.33,210.29 173.28,210.1 175.23,210.29 177.11,210.86 178.84,211.78 180.35,213.03 181.6,214.54 182.52,216.27 183.09,218.15 183.28,220.1 183.09,222.05 182.52,223.93 181.6,225.66 180.35,227.17 178.84,228.41 177.11,229.34 175.23,229.91 173.28,230.1 171.33,229.91 169.46,229.34 167.73,228.41 166.21,227.17 164.97,225.66 164.04,223.93 163.47,222.05 163.28,220.1" style="fill:none;stroke:black;stroke-width:0.5"/>
<polyline points="163.28,261.04 163.47,259.09 164.04,257.22 164.97,255.49 166.21,253.97 167.73,252.73 169.46,251.81 171.33,251.24 173.28,251.04 175.23,251.24 177.11,251.81 178.84,252.73 180.35,253.97 181.6,255.49 182.52,257.22 183.09,259.09 183.28,261.04 183.09,263 182.52,264.87 181.6,266.6 180.35,268.12 178.84,269.36 177.11,270.28 175.23,270.85 173.28,271.04 171.33,270.85 169.46,270.28 167.73,269.36 166.21,268.12 164.97,266.6 164.04,264.87 163.47,263 163.28,261.04" style="fill:none;stroke:black;stroke-width:0.5"/>
<polyline points="204.23,220.1 204.42,218.15 204.99,216.27 205.91,214.54 207.16,213.03 208.67,211.78 210.4,210.86 212.28,210.29 214.23,210.1 216.18,210.29 218.05,210.86 219.78,211.78 221.3,213.03 222.54,214.54 223.47,216.27 224.04,218.15 224.23,220.1 224.04,222.05 223.47,223.93 222.54,225.66 221.3,227.17 219.78,228.41 218.05,229.34 216.18,229.91 214.23,230.1 212.28,229.91 210.4,229.34 208.67,228.41 207.16,227.17 205.91,225.66 204.99,223.93 204.42,222.05 204.23,220.1" style="fill:none;stroke:black;stroke-width:0.5"/>
<polyline points="204.23,301.99 204.42,300.04 204.99,298.16 205.91,296.43 207.16,294.92 208.67,293.67 210.4,292.75 212.28,292.18 214.23,291.99 216.18,292.18 218.05,292.75 219.78,293.67 221.3,294.92 222.54,296.43 223.47,298.16 224.04,300.04 224.23,301.99 224.04,303.94 223.47,305.82 222.54,307.54 221.3,309.06 219.78,310.3 218.05,311.23 216.18,311.8 214.23,311.99 212.28,311.8 210.4,311.23 208.67,310.3 207.16,309.06 205.91,307.54 204.99,305.82 204.42,303.94 204.23,301.99" style="fill:none;stroke:black;stroke-width:0.5"/>
<polyline points="245.17,261.04 245.36,259.09 245.93,257.22 246.86,255.49 248.1,253.97 249.62,252.73 251.35,251.81 253.22,251.24 255.17,251.04 257.12,251.24 259,251.81 260.73,252.73 262.24,253.97 263.49,255.49 264.41,257.22 264.98,259.09 265.17,261.04 264.98,263 264.41,264.87 263.49,266.6 262.24,268.12 260.73,269.36 259,270.28 257.12,270.85 255.17,271.04 253.22,270.85 251.35,270.28 249.62,269.36 248.1,268.12 246.86,266.6 245.93,264.87 245.36,263 245.17,261.04" style="fill:none;stroke:black;stroke-width:0.5"/>
<polyline points="286.12,220.1 286.31,218.15 286.88,216.27 287.8,214.54 289.05,213.03 290.56,211.78 292.29,210.86 294.17,210.29 296.12,210.1 298.07,210.29 299.94,210.86 301.67,211.78 303.19,213.03 304.43,214.54 305.36,216.27 305.93,218.15 306.12,220.1 305.93,222.05 305.36,223.93 304.43,225.66 303.19,227.17 301.67,228.41 299.94,229.34 298.07,229.91 296.12,230.1 294.17,229.91 292.29,229.34 290.56,228.41 289.05,227.17 287.8,225.66 286.88,223.93 286.31,222.05 286.12,220.1" style="fill:none;stroke:black;stroke-width:0.5"/>
<polyline points="286.12,301.99 286.31,300.04 286.88,298.16 287.8,296.43 289.05,294.92 290.56,293.67 292.29,292.75 294.17,292.18 296.12,291.99 298.07,292.18 299.94,292.75 301.67,293.67 303.19,294.92 304.43,296.43 305.36,298.16 305.93,300.04 306.12,301.99 305.93,303.94 305.36,305.82 304.43,307.54 303.19,309.06 301.67,310.3 299.94,311.23 298.07,311.8 296.12,311.99 294.17,311.8 292.29,311.23 290.56,310.3 289.05,309.06 287.8,307.54 286.88,305.82 286.31,303.94 286.12,301.99" style="fill:none;stroke:black;stroke-width:0.5"/>
<polyline points="327.06,261.04 327.25,259.09 327.82,257.22 328.75,255.49 329.99,253.97 331.51,252.73 333.24,251.81 335.11,251.24 337.06,251.04 339.01,251.24 340.89,251.81 342.62,252.73 344.13,253.97 345.38,255.49 346.3,257.22 346.87,259.09 347.06,261.04 346.87,263 346.3,264.87 345.38,266.6 344.13,268.12 342.62,269.36 340.89,270.28 339.01,270.85 337.06,271.04 335.11,270.85 333.24,270.28 331.51,269.36 329.99,268.12 328.75,266.6 327.82,264.87 327.25,263 327.06,261.04" style="fill:none;stroke:black;stroke-width:0.5"/>
<polyline points="368.01,301.99 368.2,300.04 368.77,298.16 369.69,296.43 370.94,294.92 372.45,293.67 374.18,292.75 376.06,292.18 378.01,291.99 379.96,292.18 381.83,292.75 383.56,293.67 385.08,294.92 386.32,296.43 387.25,298.16 387.82,300.04 388.01,301.99 387.82,303.94 387.25,305.82 386.32,307.54 385.08,309.06 383.56,310.3 381.83,311.23 379.96,311.8 378.01,311.99 376.06,311.8 374.18,311.23 372.45,310.3 370.94,309.06 369.69,307.54 368.77,305.82 368.2,303.94 368.01,301.99" style="fill:none;stroke:black;stroke-width:0.5"/>
<polyline points="449.9,220.1 450.09,218.15 450.66,216.27 451.58,214.54 452.83,213.03 454.34,211.78 456.07,210.86 457.95,210.29 459.9,210.1 461.85,210.29 463.72,210.86 465.45,211.78 466.97,213.03 468.21,214.54 469.14,216.27 469.7,218.15 469.9,220.1 469.7,222.05 469.14,223.93 468.21,225.66 466.97,227.17 465.45,228.41 463.72,229.34 461.85,229.91 459.9,230.1 457.95,229.91 456.07,229.34 454.34,228.41 452.83,227.17 451.58,225.66 450.66,223.93 450.09,222.05 449.9,220.1" style="fill:none;stroke:black;stroke-width:0.5"/>
<polyline points="449.9,301.99 450.09,300.04 450.66,298.16 451.58,296.43 452.83,294.92 454.34,293.67 456.07,292.75 457.95,292.18 459.9,291.99 461.85,292.18 463.72,292.75 465.45,293.67 466.97,294.92 468.21,296.43 469.14,298.16 469.7,300.04 469.9,301.99 469.7,303.94 469.14,305.82 468.21,307.54 466.97,309.06 465.45,310.3 463.72,311.23 461.85,311.8 459.9,311.99 457.95,311.8 456.07,311.23 454.34,310.3 452.83,309.06 451.58,307.54 450.66,305.82 450.09,303.94 449.9,301.99" style="fill:none;stroke:black;stroke-width:0.5"/>
<polyline points="490.84,261.04 491.03,259.09 491.6,257.22 492.53,255.49 493.77,253.97 495.29,252.73 497.02,251.81 498.89,251.24 500.84,251.04 502.79,251.24 504.67,251.81 506.4,252.73 507.91,253.97 509.16,255.49 510.08,257.22 510.65,259.09 510.84,261.04 510.65,263 510.08,264.87 509.16,266.6 507.91,268.12 506.4,269.36 504.67,270.28 502.79,270.85 500.84,271.04 498.89,270.85 497.02,270.28 495.29,269.36 493.77,268.12 492.53,266.6 491.6,264.87 491.03,263 490.84,261.04" style="fill:none;stroke:black;stroke-width:0.5"/>
<polyline points="531.79,220.1 531.98,218.15 532.55,216.27 533.47,214.54 534.72,213.03 536.23,211.78 537.96,210.86 539.84,210.29 541.79,210.1 543.74,210.29 545.61,210.86 547.34,211.78 548.86,213.03 550.1,214.54 551.03,216.27 551.59,218.15 551.79,220.1 551.59,222.05 551.03,223.93 550.1,225.66 548.86,227.17 547.34,228.41 545.61,229.34 543.74,229.91 541.79,230.1 539.84,229.91 537.96,229.34 536.23,228.41 534.72,227.17 533.47,225.66 532.55,223.93 531.98,222.05 531.79,220.1" style="fill:none;stroke:black;stroke-width:0.5"/>
<polyline points="531.79,301.99 531.98,300.04 532.55,298.16 533.47,296.43 534.72,294.92 536.23,293.67 537.96,292.75 539.84,292.18 541.79,291.99 543.74,292.18 545.61,292.75 547.34,293.67 548.86,294.92 550.1,296.43 551.03,298.16 551.59,300.04 551.79,301.99 551.59,303.94 551.03,305.82 550.1,307.54 548.86,309.06 547.34,310.3 545.61,311.23 543.74,311.8 541.79,311.99 539.84,311.8 537.96,311.23 536.23,310.3 534.72,309.06 533.47,307.54 532.55,305.82 531.98,303.94 531.79,301.99" style="fill:none;stroke:black;stroke-width:0.5"/>
<polyline points="572.73,261.04 572.92,259.09 573.49,257.22 574.42,255.49 575.66,253.97 577.18,252.73 578.9,251.81 580.78,251.24 582.73,251.04 584.68,251.24 586.56,251.81 588.29,252.73 589.8,253.97 591.05,255.49 591.97,257.22 592.54,259.09 592.73,261.04 592.54,263 591.97,264.87 591.05,266.6 589.8,268.12 588.29,269.36 586.56,270.28 584.68,270.85 582.73,271.04 580.78,270.85 578.9,270.28 577.18,269.36 575.66,268.12 574.42,266.6 573.49,264.87 572.92,263 572.73,261.04" style="fill:none;stroke:black;stroke-width:0.5"/>
<polyline points="183.76,240.57 183.95,238.62 184.52,236.75 185.44,235.02 186.68,233.5 188.2,232.26 189.93,231.33 191.8,230.76 193.76,230.57 195.71,230.76 197.58,231.33 199.31,232.26 200.83,233.5 202.07,235.02 202.99,236.75 203.56,238.62 203.76,240.57 203.56,242.52 202.99,244.4 202.07,246.13 200.83,247.64 199.31,248.89 197.58,249.81 195.71,250.38 193.76,250.57 191.8,250.38 189.93,249.81 188.2,248.89 186.68,247.64 185.44,246.13 184.52,244.4 183.95,242.52 183.76,240.57" style="fill:none;stroke:black;stroke-width:0.5"/>
<polyline points="224.7,240.57 224.89,238.62 225.46,236.75 226.39,235.02 227.63,233.5 229.14,232.26 230.87,231.33 232.75,230.76 234.7,230.57 236.65,230.76 238.53,231.33 240.26,232.26 241.77,233.5 243.01,235.02 243.94,236.75 244.51,238.62 244.7,240.57 244.51,242.52 243.94,244.4 243.01,246.13 241.77,247.64 240.26,248.89 238.53,249.81 236.65,250.38 234.7,250.57 232.75,250.38 230.87,249.81 229.14,248.89 227.63,247.64 226.39,246.13 225.46,244.4 224.89,242.52 224.7,240.57" style="fill:none;stroke:black;stroke-width:0.5"/>
<polyline points="265.64,240.57 265.84,238.62 266.41,236.75 267.33,235.02 268.57,233.5 270.09,232.26 271.82,231.33 273.69,230.76 275.64,230.57 277.6,230.76 279.47,231.33 281.2,232.26 282.72,233.5 283.96,235.02 284.88,236.75 285.45,238.62 285.64,240.57 285.45,242.52 284.88,244.4 283.96,246.13 282.72,247.64 281.2,248.89 279.47,249.81 277.6,250.38 275.64,250.57 273.69,250.38 271.82,249.81 270.09,248.89 268.57,247.64 267.33,246.13 266.41,244.4 265.84,242.52 265.64,240.57" style="fill:none;stroke:black;stroke-width:0.5"/>
<polyline points="306.59,240.57 306.78,238.62 307.35,236.75 308.28,235.02 309.52,233.5 311.03,232.26 312.76,231.33 314.64,230.76 316.59,230.57 318.54,230.76 320.42,231.33 322.15,232.26 323.66,233.5 324.9,235.02 325.83,236.75 326.4,238.62 326.59,240.57 326.4,242.52 325.83,244.4 324.9,246.13 323.66,247.64 322.15,248.89 320.42,249.81 318.54,250.38 316.59,250.57 314.64,250.38 312.76,249.81 311.03,248.89 309.52,247.64 308.28,246.13 307.35,244.4 306.78,242.52 306.59,240.57" style="fill:none;stroke:black;stroke-width:0.5"/>
<polyline points="347.53,240.57 347.73,238.62 348.3,236.75 349.22,235.02 350.46,233.5 351.98,232.26 353.71,231.33 355.58,230.76 357.53,230.57 359.49,230.76 361.36,231.33 363.09,232.26 364.61,233.5 365.85,235.02 366.77,236.75 367.34,238.62 367.53,240.57 367.34,242.52 366.77,244.4 365.85,246.13 364.61,247.64 363.09,248.89 361.36,249.81 359.49,250.38 357.53,250.57 355.58,250.38 353.71,249.81 351.98,248.89 350.46,247.64 349.22,246.13 348.3,244.4 347.73,242.52 347.53,240.57" style="fill:none;stroke:black;stroke-width:0.5"/>
<polyline points="429.42,240.57 429.62,238.62 430.19,236.75 431.11,235.02 432.35,233.5 433.87,232.26 435.6,231.33 437.47,230.76 439.42,230.57 441.38,230.76 443.25,231.33 444.98,232.26 446.5,233.5 447.74,235.02 448.66,236.75 449.23,238.62 449.42,240.57 449.23,242.52 448.66,244.4 447.74,246.13 446.5,247.64 444.98,248.89 443.25,249.81 441.38,250.38 439.42,250.57 437.47,250.38 435.6,249.81 433.87,248.89 432.35,247.64 431.11,246.13 430.19,244.4 429.62,242.52 429.42,240.57" style="fill:none;stroke:black;stroke-width:0.5"/>
<polyline points="470.37,240.57 470.56,238.62 471.13,236.75 472.05,235.02 473.3,233.5 474.81,232.26 476.54,231.33 478.42,230.76 480.37,230.57 482.32,230.76 484.2,231.33 485.93,232.26 487.44,233.5 488.68,235.02 489.61,236.75 490.18,238.62 490.37,240.57 490.18,242.52 489.61,244.4 488.68,246.13 487.44,247.64 485.93,248.89 484.2,249.81 482.32,250.38 480.37,250.57 478.42,250.38 476.54,249.81 474.81,248.89 473.3,247.64 472.05,246.13 471.13,244.4 470.56,242.52 470.37,240.57" style="fill:none;stroke:black;stroke-width:0.5"/>
<polyline points="511.31,240.57 511.51,238.62 512.08,236.75 513,235.02 514.24,233.5 515.76,232.26 517.49,231.33 519.36,230.76 521.31,230.57 523.27,230.76 525.14,231.33 526.87,232.26 528.39,233.5 529.63,235.02 530.55,236.75 531.12,238.62 531.31,240.57 531.12,242.52 530.55,244.4 529.63,246.13 528.39,247.64 526.87,248.89 525.14,249.81 523.27,250.38 521.31,250.57 519.36,250.38 517.49,249.81 515.76,248.89 514.24,247.64 513,246.13 512.08,244.4 511.51,242.52 511.31,240.57" style="fill:none;stroke:black;stroke-width:0.5"/>
<polyline points="552.26,240.57 552.45,238.62 553.02,236.75 553.94,235.02 555.19,233.5 556.7,232.26 558.43,231.33 560.31,230.76 562.26,230.57 564.21,230.76 566.09,231.33 567.81,232.26 569.33,233.5 570.57,235.02 571.5,236.75 572.07,238.62 572.26,240.57 572.07,242.52 571.5,244.4 570.57,246.13 569.33,247.64 567.81,248.89 566.09,249.81 564.21,250.38 562.26,250.57 560.31,250.38 558.43,249.81 556.7,248.89 555.19,247.64 553.94,246.13 553.02,244.4 552.45,242.52 552.26,240.57" style="fill:none;stroke:black;stroke-width:0.5"/>
<polyline points="163.28,342.93 163.47,340.98 164.04,339.11 164.97,337.38 166.21,335.86 167.73,334.62 169.46,333.7 171.33,333.13 173.28,332.93 175.23,333.13 177.11,333.7 178.84,334.62 180.35,335.86 181.6,337.38 182.52,339.11 183.09,340.98 183.28,342.93 183.09,344.88 182.52,346.76 181.6,348.49 180.35,350.01 178.84,351.25 177.11,352.17 175.23,352.74 173.28,352.93 171.33,352.74 169.46,352.17 167.73,351.25 166.21,350.01 164.97,348.49 164.04,346.76 163.47,344.88 163.28,342.93" style="fill:none;stroke:black;stroke-width:0.5"/>
<polyline points="245.17,342.93 245.36,340.98 245.93,339.11 246.86,337.38 248.1,335.86 249.62,334.62 251.35,333.7 253.22,333.13 255.17,332.93 257.12,333.13 259,333.7 260.73,334.62 262.24,335.86 263.49,337.38 264.41,339.11 264.98,340.98 265.17,342.93 264.98,344.88 264.41,346.76 263.49,348.49 262.24,350.01 260.73,351.25 259,352.17 257.12,352.74 255.17,352.93 253.22,352.74 251.35,352.17 249.62,351.25 248.1,350.01 246.86,348.49 245.93,346.76 245.36,344.88 245.17,342.93" style="fill:none;stroke:black;stroke-width:0.5"/>
<polyline points="327.06,342.93 327.25,340.98 327.82,339.11 328.75,337.38 329.99,335.86 331.51,334.62 333.24,333.7 335.11,333.13 337.06,332.93 339.01,333.13 340.89,333.7 342.62,334.62 344.13,335.86 345.38,337.38 346.3,339.11 346.87,340.98 347.06,342.93 346.87,344.88 346.3,346.76 345.38,348.49 344.13,350.01 342.62,351.25 340.89,352.17 339.01,352.74 337.06,352.93 335.11,352.74 333.24,352.17 331.51,351.25 329.99,350.01 328.75,348.49 327.82,346.76 327.25,344.88 327.06,342.93" style="fill:none;stroke:black;stroke-width:0.5"/>
<polyline points="408.95,342.93 409.14,340.98 409.71,339.11 410.64,337.38 411.88,335.86 413.4,334.62 415.13,333.7 417,333.13 418.95,332.93 420.9,333.13 422.78,333.7 424.51,334.62 426.02,335.86 427.27,337.38 428.19,339.11 428.76,340.98 428.95,342.93 428.76,344.88 428.19,346.76 427.27,348.49 426.02,350.01 424.51,351.25 422.78,352.17 420.9,352.74 418.95,352.93 417,352.74 415.13,352.17 413.4,351.25 411.88,350.01 410.64,348.49 409.71,346.76 409.14,344.88 408.95,342.93" style="fill:none;stroke:black;stroke-width:0.5"/>
<polyline points="490.84,342.93 491.03,340.98 491.6,339.11 492.53,337.38 493.77,335.86 495.29,334.62 497.02,333.7 498.89,333.13 500.84,332.93 502.79,333.13 504.67,333.7 506.4,334.62 507.91,335.86 509.16,337.38 510.08,339.11 510.65,340.98 510.84,342.93 510.65,344.88 510.08,346.76 509.16,348.49 507.91,350.01 506.4,351.25 504.67,352.17 502.79,352.74 500.84,352.93 498.89,352.74 497.02,352.17 495.29,351.25 493.77,350.01 492.53,348.49 491.6,346.76 491.03,344.88 490.84,342.93" style="fill:none;stroke:black;stroke-width:0.5"/>
<polyline points="572.73,342.93 572.92,340.98 573.49,339.11 574.42,337.38 575.66,335.86 577.18,334.62 578.9,333.7 580.78,333.13 582.73,332.93 584.68,333.13 586.56,333.7 588.29,334.62 589.8,335.86 591.05,337.38 591.97,339.11 592.54,340.98 592.73,342.93 592.54,344.88 591.97,346.76 591.05,348.49 589.8,350.01 588.29,351.25 586.56,352.17 584.68,352.74 582.73,352.93 580.78,352.74 578.9,352.17 577.18,351.25 575.66,350.01 574.42,348.49 573.49,346.76 572.92,344.88 572.73,342.93" style="fill:none;stroke:black;stroke-width:0.5"/>
<polyline points="224.7,322.46 224.89,320.51 225.46,318.63 226.39,316.91 227.63,315.39 229.14,314.15 230.87,313.22 232.75,312.65 234.7,312.46 236.65,312.65 238.53,313.22 240.26,314.15 241.77,315.39 243.01,316.91 243.94,318.63 244.51,320.51 244.7,322.46 244.51,324.41 243.94,326.29 243.01,328.02 241.77,329.53 240.26,330.78 238.53,331.7 236.65,332.27 234.7,332.46 232.75,332.27 230.87,331.7 229.14,330.78 227.63,329.53 226.39,328.02 225.46,326.29 224.89,324.41 224.7,322.46" style="fill:none;stroke:black;stroke-width:0.5"/>
<polyline points="306.59,322.46 306.78,320.51 307.35,318.63 308.28,316.91 309.52,315.39 311.03,314.15 312.76,313.22 314.64,312.65 316.59,312.46 318.54,312.65 320.42,313.22 322.15,314.15 323.66,315.39 324.9,316.91 325.83,318.63 326.4,320.51 326.59,322.46 326.4,324.41 325.83,326.29 324.9,328.02 323.66,329.53 322.15,330.78 320.42,331.7 318.54,332.27 316.59,332.46 314.64,332.27 312.76,331.7 311.03,330.78 309.52,329.53 308.28,328.02 307.35,326.29 306.78,324.41 306.59,322.46" style="fill:none;stroke:black;stroke-width:0.5"/>
<polyline points="388.48,322.46 388.67,320.51 389.24,318.63 390.16,316.91 391.41,315.39 392.92,314.15 394.65,313.22 396.53,312.65 398.48,312.46 400.43,312.65 402.31,313.22 404.04,314.15 405.55,315.39 406.79,316.91 407.72,318.63 408.29,320.51 408.48,322.46 408.29,324.41 407.72,326.29 406.79,328.02 405.55,329.53 404.04,330.78 402.31,331.7 400.43,332.27 398.48,332.46 396.53,332.27 394.65,331.7 392.92,330.78 391.41,329.53 390.16,328.02 389.24,326.29 388.67,324.41 388.48,322.46" style="fill:none;stroke:black;stroke-width:0.5"/>
<polyline points="470.37,322.46 470.56,320.51 471.13,318.63 472.05,316.91 473.3,315.39 474.81,314.15 476.54,313.22 478.42,312.65 480.37,312.46 482.32,312.65 484.2,313.22 485.93,314.15 487.44,315.39 488.68,316.91 489.61,318.63 490.18,320.51 490.37,322.46 490.18,324.41 489.61,326.29 488.68,328.02 487.44,329.53 485.93,330.78 484.2,331.7 482.32,332.27 480.37,332.46 478.42,332.27 476.54,331.7 474.81,330.78 473.3,329.53 472.05,328.02 471.13,326.29 470.56,324.41 470.37,322.46" style="fill:none;stroke:black;stroke-width:0.5"/>
<polyline points="552.26,322.46 552.45,320.51 553.02,318.63 553.94,316.91 555.19,315.39 556.7,314.15 558.43,313.22 560.31,312.65 562.26,312.46 564.21,312.65 566.09,313.22 567.81,314.15 569.33,315.39 570.57,316.91 571.5,318.63 572.07,320.51 572.26,322.46 572.07,324.41 571.5,326.29 570.57,328.02 569.33,329.53 567.81,330.78 566.09,331.7 564.21,332.27 562.26,332.46 560.31,332.27 558.43,331.7 556.7,330.78 555.19,329.53 553.94,328.02 553.02,326.29 552.45,324.41 552.26,322.46" style="fill:none;stroke:black;stroke-width:0.5"/>
<polyline points="593.2,281.52 593.4,279.57 593.97,277.69 594.89,275.96 596.13,274.45 597.65,273.2 599.38,272.28 601.25,271.71 603.2,271.52 605.15,271.71 607.03,272.28 608.76,273.2 610.28,274.45 611.52,275.96 612.44,277.69 613.01,279.57 613.2,281.52 613.01,283.47 612.44,285.34 611.52,287.07 610.28,288.59 608.76,289.83 607.03,290.76 605.15,291.32 603.2,291.52 601.25,291.32 599.38,290.76 597.65,289.83 596.13,288.59 594.89,287.07 593.97,285.34 593.4,283.47 593.2,281.52" style="fill:none;stroke:black;stroke-width:0.5"/>
<polyline points="634.46,261.06 634.66,259.76 635.23,258.58 636.12,257.62 637.26,256.96 638.54,256.67 639.85,256.76 641.08,257.24 642.11,258.06 642.85,259.15 643.23,260.41 643.23,261.72 642.85,262.98 642.11,264.06 641.08,264.88 639.85,265.36 638.54,265.46 637.26,265.17 636.12,264.51 635.23,263.55 634.66,262.36 634.46,261.06" style="fill:none;stroke:black;stroke-width:0.5"/>
<polyline points="634.46,339.8 634.66,338.5 635.23,337.32 636.12,336.36 637.26,335.7 638.54,335.41 639.85,335.5 641.08,335.98 642.11,336.8 642.85,337.89 643.23,339.15 643.23,340.46 642.85,341.72 642.11,342.8 641.08,343.62 639.85,344.1 638.54,344.2 637.26,343.91 636.12,343.25 635.23,342.29 634.66,341.1 634.46,339.8" style="fill:none;stroke:black;stroke-width:0.5"/>
<polyline points="390.37,261.06 390.57,259.76 391.14,258.58 392.03,257.62 393.17,256.96 394.45,256.67 395.76,256.76 396.98,257.24 398.01,258.06 398.75,259.15 399.14,260.41 399.14,261.72 398.75,262.98 398.01,264.06 396.98,264.88 395.76,265.36 394.45,265.46 393.17,265.17 392.03,264.51 391.14,263.55 390.57,262.36 390.37,261.06" style="fill:none;stroke:black;stroke-width:0.5"/>
<polyline points="146.27,261.06 146.47,259.76 147.04,258.58 147.94,257.62 149.07,256.96 150.35,256.67 151.67,256.76 152.89,257.24 153.92,258.06 154.66,259.15 155.04,260.41 155.04,261.72 154.66,262.98 153.92,264.06 152.89,264.88 151.67,265.36 150.35,265.46 149.07,265.17 147.94,264.51 147.04,263.55 146.47,262.36 146.27,261.06" style="fill:none;stroke:black;stroke-width:0.5"/>
<polyline points="146.27,339.8 146.47,338.5 147.04,337.32 147.94,336.36 149.07,335.7 150.35,335.41 151.67,335.5 152.89,335.98 153.92,336.8 154.66,337.89 155.04,339.15 155.04,340.46 154.66,341.72 153.92,342.8 152.89,343.62 151.67,344.1 150.35,344.2 149.07,343.91 147.94,343.25 147.04,342.29 146.47,341.1 146.27,339.8" style="fill:none;stroke:black;stroke-width:0.5"/>
<polyline points="460.92,171.9 462.87,171.71 464.75,171.14 466.48,170.21 467.99,168.97 469.24,167.46 470.16,165.73 470.73,163.85 470.92,161.9" style="fill:none;stroke:black;stroke-width:0.5"/>
<polyline points="321.79,161.9 321.98,163.85 322.55,165.73 323.47,167.46 324.72,168.97 326.23,170.21 327.96,171.14 329.84,171.71 331.79,171.9" style="fill:none;stroke:black;stroke-width:0.5"/>
<polyline points="321.79,116.94 321.59,114.99 321.03,113.12 320.1,111.39 318.86,109.87 317.34,108.63 315.61,107.7 313.74,107.14 311.79,106.94" style="fill:none;stroke:black;stroke-width:0.5"/>
<polyline points="125.25,106.94 123.3,107.14 121.42,107.7 119.7,108.63 118.18,109.87 116.94,111.39 116.01,113.12 115.44,114.99 115.25,116.94" style="fill:none;stroke:black;stroke-width:0.5"/>
<polyline points="115.25,179.58 115.39,181.24 115.8,182.85 116.47,184.37" style="fill:none;stroke:black;stroke-width:0.5"/>
<polyline points="97.92,196.63 96.68,195.32 95.22,194.26 93.6,193.47 91.86,192.99 90.07,192.83" style="fill:none;stroke:black;stroke-width:0.5"/>
<polyline points="62.64,192.83 60.69,193.02 58.82,193.59 57.09,194.51 55.57,195.76 54.33,197.27 53.4,199 52.83,200.88 52.64,202.83" style="fill:none;stroke:black;stroke-width:0.5"/>
<polyline points="52.64,347.42 52.83,349.37 53.4,351.25 54.33,352.98 55.57,354.49 57.09,355.74 58.82,356.66 60.69,357.23 62.64,357.42" style="fill:none;stroke:black;stroke-width:0.5"/>
<polyline points="60.68,379.55 58.73,379.74 56.86,380.31 55.13,381.23 53.61,382.48 52.37,383.99 51.45,385.72 50.88,387.6 50.68,389.55" style="fill:none;stroke:black;stroke-width:0.5"/>
<polyline points="50.68,475.53 50.88,477.48 51.45,479.36 52.37,481.09 53.61,482.6 55.13,483.85 56.86,484.77 58.73,485.34 60.68,485.53" style="fill:none;stroke:black;stroke-width:0.5"/>
<polyline points="709.98,485.53 711.93,485.34 713.8,484.77 715.53,483.85 717.05,482.6 718.29,481.09 719.21,479.36 719.78,477.48 719.98,475.53" style="fill:none;stroke:black;stroke-width:0.5"/>
<polyline points="719.98,389.55 719.78,387.6 719.21,385.72 718.29,383.99 717.05,382.48 715.53,381.23 713.8,380.31 711.93,379.74 709.98,379.55" style="fill:none;stroke:black;stroke-width:0.5"/>
<polyline points="703.29,357.42 705.24,357.23 707.12,356.66 708.85,355.74 710.36,354.49 711.61,352.98 712.53,351.25 713.1,349.37 713.29,347.42" style="fill:none;stroke:black;stroke-width:0.5"/>
<polyline points="713.29,202.83 713.1,200.88 712.53,199 711.61,197.27 710.36,195.76 708.85,194.51 707.12,193.59 705.24,193.02 703.29,192.83" style="fill:none;stroke:black;stroke-width:0.5"/>
<polyline points="675.87,192.83 674.07,192.99 672.34,193.47 670.71,194.26 669.26,195.32 668.02,196.63" style="fill:none;stroke:black;stroke-width:0.5"/>
<polyline points="652.34,180.95 653.65,179.71 654.72,178.26 655.5,176.64 655.98,174.9 656.14,173.11" style="fill:none;stroke:black;stroke-width:0.5"/>
<polyline points="97.92,196.63 99.34,198.13 101.03,199.34 102.9,200.21 104.9,200.73 106.97,200.87 109.03,200.62 111,200 112.83,199.02 114.44,197.72 115.79,196.15 116.82,194.36 117.5,192.4 117.81,190.36 117.74,188.29 117.29,186.27 116.47,184.37" style="fill:none;stroke:black;stroke-width:0.5"/>
<polyline points="62.64,192.83 90.07,192.83" style="fill:none;stroke:black;stroke-width:0.5"/>
<polyline points="675.87,192.83 703.29,192.83" style="fill:none;stroke:black;stroke-width:0.5"/>
<polyline points="652.34,180.95 650.83,182.4 649.62,184.1 648.74,185.99 648.23,188.02 648.11,190.1 648.38,192.18 649.03,194.16 650.04,195.99 651.37,197.6 652.98,198.93 654.81,199.94 656.8,200.59 658.87,200.86 660.95,200.74 662.98,200.23 664.88,199.36 666.58,198.14 668.02,196.63" style="fill:none;stroke:black;stroke-width:0.5"/>
<polyline points="656.14,111.94 656.14,173.11" style="fill:none;stroke:black;stroke-width:0.5"/>
<polyline points="52.64,202.83 52.64,347.42" style="fill:none;stroke:black;stroke-width:0.5"/>
<polyline points="713.29,347.42 713.29,202.83" style="fill:none;stroke:black;stroke-width:0.5"/>
<polyline points="62.64,357.42 99.82,357.42" style="fill:none;stroke:black;stroke-width:0.5"/>
<polyline points="666.12,357.42 703.29,357.42" style="fill:none;stroke:black;stroke-width:0.5"/>
<polyline points="709.98,485.53 60.68,485.53" style="fill:none;stroke:black;stroke-width:0.5"/>
</svg>
