<?xml version="1.0" encoding="UTF-8"?>
<svg xmlns="http://www.w3.org/2000/svg" width="800.000" height="600.000" viewBox="0.0 0.0 800.000 600.000" version="1.1">
  <title>Produce by Acme CAD Converter</title>
  <desc>Produce by Acme CAD Converter</desc>
<polyline points="69.97,369.47 70.15,368.38 70.67,367.4 71.49,366.66 72.5,366.21 73.6,366.12 74.67,366.39 75.6,367 76.28,367.87 76.64,368.91 76.64,370.02 76.28,371.07 75.6,371.94 74.67,372.54 73.6,372.81 72.5,372.72 71.49,372.28 70.67,371.53 70.15,370.56 69.97,369.47" style="fill:none;stroke:black;stroke-width:0.5"/>
<polyline points="69.97,274.37 70.15,273.28 70.67,272.31 71.49,271.56 72.5,271.11 73.6,271.02 74.67,271.29 75.6,271.9 76.28,272.77 76.64,273.82 76.64,274.92 76.28,275.97 75.6,276.84 74.67,277.45 73.6,277.72 72.5,277.63 71.49,277.18 70.67,276.43 70.15,275.46 69.97,274.37" style="fill:none;stroke:black;stroke-width:0.5"/>
<polyline points="126.39,425.89 126.57,424.8 127.1,423.83 127.91,423.08 128.93,422.64 130.03,422.55 131.1,422.82 132.03,423.42 132.71,424.3 133.06,425.34 133.06,426.45 132.71,427.49 132.03,428.37 131.1,428.97 130.03,429.24 128.93,429.15 127.91,428.71 127.1,427.96 126.57,426.99 126.39,425.89" style="fill:none;stroke:black;stroke-width:0.5"/>
<polyline points="746.66,97.86 746.85,96.77 747.37,95.8 748.18,95.05 749.2,94.6 750.3,94.51 751.37,94.78 752.3,95.39 752.98,96.26 753.34,97.31 753.34,98.41 752.98,99.46 752.3,100.33 751.37,100.94 750.3,101.21 749.2,101.12 748.18,100.67 747.37,99.92 746.85,98.95 746.66,97.86" style="fill:none;stroke:black;stroke-width:0.5"/>
<polyline points="120.84,203.74 121.02,202.64 121.55,201.67 122.36,200.92 123.38,200.48 124.48,200.39 125.55,200.66 126.48,201.26 127.15,202.14 127.51,203.18 127.51,204.29 127.15,205.33 126.48,206.21 125.55,206.81 124.48,207.08 123.38,206.99 122.36,206.55 121.55,205.8 121.02,204.83 120.84,203.74" style="fill:none;stroke:black;stroke-width:0.5"/>
<polyline points="728.93,274.37 729.11,273.28 729.64,272.31 730.45,271.56 731.46,271.11 732.57,271.02 733.64,271.29 734.56,271.9 735.24,272.77 735.6,273.82 735.6,274.92 735.24,275.97 734.56,276.84 733.64,277.45 732.57,277.72 731.46,277.63 730.45,277.18 729.64,276.43 729.11,275.46 728.93,274.37" style="fill:none;stroke:black;stroke-width:0.5"/>
<polyline points="728.93,369.47 729.11,368.38 729.64,367.4 730.45,366.66 731.46,366.21 732.57,366.12 733.64,366.39 734.56,367 735.24,367.87 735.6,368.91 735.6,370.02 735.24,371.07 734.56,371.94 733.64,372.54 732.57,372.81 731.46,372.72 730.45,372.28 729.64,371.53 729.11,370.56 728.93,369.47" style="fill:none;stroke:black;stroke-width:0.5"/>
<polyline points="678.05,203.74 678.23,202.64 678.76,201.67 679.57,200.92 680.59,200.48 681.69,200.39 682.76,200.66 683.69,201.26 684.37,202.14 684.72,203.18 684.72,204.29 684.37,205.33 683.69,206.21 682.76,206.81 681.69,207.08 680.59,206.99 679.57,206.55 678.76,205.8 678.23,204.83 678.05,203.74" style="fill:none;stroke:black;stroke-width:0.5"/>
<polyline points="46.62,97.86 46.8,96.77 47.33,95.8 48.14,95.05 49.15,94.6 50.26,94.51 51.33,94.78 52.25,95.39 52.93,96.26 53.29,97.31 53.29,98.41 52.93,99.46 52.25,100.33 51.33,100.94 50.26,101.21 49.15,101.12 48.14,100.67 47.33,99.92 46.8,98.95 46.62,97.86" style="fill:none;stroke:black;stroke-width:0.5"/>
<polyline points="672.5,425.89 672.68,424.8 673.21,423.83 674.02,423.08 675.04,422.64 676.14,422.55 677.21,422.82 678.14,423.42 678.81,424.3 679.17,425.34 679.17,426.45 678.81,427.49 678.14,428.37 677.21,428.97 676.14,429.24 675.04,429.15 674.02,428.71 673.21,427.96 672.68,426.99 672.5,425.89" style="fill:none;stroke:black;stroke-width:0.5"/>
<polyline points="413,334.31 413.19,333.12 413.73,332.05 414.58,331.2 415.65,330.66 416.84,330.47 418.02,330.66 419.09,331.2 419.94,332.05 420.48,333.12 420.67,334.31 420.48,335.49 419.94,336.56 419.09,337.41 418.02,337.95 416.84,338.14 415.65,337.95 414.58,337.41 413.73,336.56 413.19,335.49 413,334.31" style="fill:none;stroke:black;stroke-width:0.5"/>
<polyline points="129.3,266.93 129.49,264.81 130.06,262.76 130.98,260.84 132.23,259.12 133.77,257.65 135.55,256.47 137.51,255.64 139.58,255.16 141.71,255.07 143.82,255.35 145.85,256.01 147.72,257.02 149.39,258.35 150.79,259.95 151.88,261.78 152.63,263.77 153.01,265.87 153.01,268 152.63,270.09 151.88,272.09 150.79,273.92 149.39,275.52 147.72,276.85 145.85,277.86 143.82,278.52 141.71,278.8 139.58,278.71 137.51,278.23 135.55,277.4 133.77,276.22 132.23,274.75 130.98,273.03 130.06,271.11 129.49,269.06 129.3,266.93" style="fill:none;stroke:black;stroke-width:0.5"/>
<polyline points="129.3,364.21 129.49,362.09 130.06,360.04 130.98,358.12 132.23,356.4 133.77,354.93 135.55,353.75 137.51,352.92 139.58,352.44 141.71,352.35 143.82,352.63 145.85,353.29 147.72,354.3 149.39,355.63 150.79,357.23 151.88,359.06 152.63,361.05 153.01,363.15 153.01,365.28 152.63,367.37 151.88,369.37 150.79,371.2 149.39,372.8 147.72,374.13 145.85,375.14 143.82,375.8 141.71,376.08 139.58,375.99 137.51,375.51 135.55,374.68 133.77,373.5 132.23,372.03 130.98,370.31 130.06,368.39 129.49,366.34 129.3,364.21" style="fill:none;stroke:black;stroke-width:0.5"/>
<polyline points="226.58,266.93 226.77,264.81 227.34,262.76 228.26,260.84 229.51,259.12 231.05,257.65 232.83,256.47 234.79,255.64 236.86,255.16 238.99,255.07 241.1,255.35 243.13,256.01 245,257.02 246.67,258.35 248.07,259.95 249.16,261.78 249.91,263.77 250.29,265.87 250.29,268 249.91,270.09 249.16,272.09 248.07,273.92 246.67,275.52 245,276.85 243.13,277.86 241.1,278.52 238.99,278.8 236.86,278.71 234.79,278.23 232.83,277.4 231.05,276.22 229.51,274.75 228.26,273.03 227.34,271.11 226.77,269.06 226.58,266.93" style="fill:none;stroke:black;stroke-width:0.5"/>
<polyline points="323.86,266.93 324.05,264.81 324.62,262.76 325.54,260.84 326.79,259.12 328.33,257.65 330.11,256.47 332.07,255.64 334.14,255.16 336.27,255.07 338.38,255.35 340.41,256.01 342.28,257.02 343.95,258.35 345.35,259.95 346.44,261.78 347.19,263.77 347.57,265.87 347.57,268 347.19,270.09 346.44,272.09 345.35,273.92 343.95,275.52 342.28,276.85 340.41,277.86 338.38,278.52 336.27,278.8 334.14,278.71 332.07,278.23 330.11,277.4 328.33,276.22 326.79,274.75 325.54,273.03 324.62,271.11 324.05,269.06 323.86,266.93" style="fill:none;stroke:black;stroke-width:0.5"/>
<polyline points="421.14,266.93 421.33,264.81 421.9,262.76 422.82,260.84 424.07,259.12 425.61,257.65 427.39,256.47 429.35,255.64 431.42,255.16 433.55,255.07 435.66,255.35 437.69,256.01 439.56,257.02 441.23,258.35 442.63,259.95 443.72,261.78 444.47,263.77 444.85,265.87 444.85,268 444.47,270.09 443.72,272.09 442.63,273.92 441.23,275.52 439.56,276.85 437.69,277.86 435.66,278.52 433.55,278.8 431.42,278.71 429.35,278.23 427.39,277.4 425.61,276.22 424.07,274.75 422.82,273.03 421.9,271.11 421.33,269.06 421.14,266.93" style="fill:none;stroke:black;stroke-width:0.5"/>
<polyline points="518.42,266.93 518.61,264.81 519.18,262.76 520.1,260.84 521.35,259.12 522.89,257.65 524.67,256.47 526.63,255.64 528.7,255.16 530.83,255.07 532.94,255.35 534.97,256.01 536.84,257.02 538.51,258.35 539.91,259.95 541,261.78 541.75,263.77 542.13,265.87 542.13,268 541.75,270.09 541,272.09 539.91,273.92 538.51,275.52 536.84,276.85 534.97,277.86 532.94,278.52 530.83,278.8 528.7,278.71 526.63,278.23 524.67,277.4 522.89,276.22 521.35,274.75 520.1,273.03 519.18,271.11 518.61,269.06 518.42,266.93" style="fill:none;stroke:black;stroke-width:0.5"/>
<polyline points="615.7,266.93 615.89,264.81 616.46,262.76 617.38,260.84 618.63,259.12 620.17,257.65 621.95,256.47 623.91,255.64 625.99,255.16 628.11,255.07 630.22,255.35 632.25,256.01 634.12,257.02 635.79,258.35 637.19,259.95 638.28,261.78 639.03,263.77 639.41,265.87 639.41,268 639.03,270.09 638.28,272.09 637.19,273.92 635.79,275.52 634.12,276.85 632.25,277.86 630.22,278.52 628.11,278.8 625.99,278.71 623.91,278.23 621.95,277.4 620.17,276.22 618.63,274.75 617.38,273.03 616.46,271.11 615.89,269.06 615.7,266.93" style="fill:none;stroke:black;stroke-width:0.5"/>
<polyline points="202.26,242.61 202.45,240.49 203.02,238.44 203.94,236.52 205.19,234.8 206.73,233.33 208.51,232.15 210.47,231.32 212.54,230.84 214.67,230.75 216.78,231.03 218.81,231.69 220.68,232.7 222.35,234.03 223.75,235.63 224.84,237.46 225.59,239.45 225.97,241.55 225.97,243.68 225.59,245.77 224.84,247.77 223.75,249.6 222.35,251.2 220.68,252.53 218.81,253.54 216.78,254.2 214.67,254.48 212.54,254.39 210.47,253.91 208.51,253.08 206.73,251.9 205.19,250.43 203.94,248.71 203.02,246.79 202.45,244.74 202.26,242.61" style="fill:none;stroke:black;stroke-width:0.5"/>
<polyline points="299.54,242.61 299.73,240.49 300.3,238.44 301.22,236.52 302.47,234.8 304.01,233.33 305.79,232.15 307.75,231.32 309.82,230.84 311.95,230.75 314.06,231.03 316.09,231.69 317.96,232.7 319.63,234.03 321.03,235.63 322.12,237.46 322.87,239.45 323.25,241.55 323.25,243.68 322.87,245.77 322.12,247.77 321.03,249.6 319.63,251.2 317.96,252.53 316.09,253.54 314.06,254.2 311.95,254.48 309.82,254.39 307.75,253.91 305.79,253.08 304.01,251.9 302.47,250.43 301.22,248.71 300.3,246.79 299.73,244.74 299.54,242.61" style="fill:none;stroke:black;stroke-width:0.5"/>
<polyline points="396.82,242.61 397.01,240.49 397.58,238.44 398.5,236.52 399.75,234.8 401.29,233.33 403.07,232.15 405.03,231.32 407.1,230.84 409.23,230.75 411.34,231.03 413.37,231.69 415.24,232.7 416.91,234.03 418.31,235.63 419.4,237.46 420.15,239.45 420.53,241.55 420.53,243.68 420.15,245.77 419.4,247.77 418.31,249.6 416.91,251.2 415.24,252.53 413.37,253.54 411.34,254.2 409.23,254.48 407.1,254.39 405.03,253.91 403.07,253.08 401.29,251.9 399.75,250.43 398.5,248.71 397.58,246.79 397.01,244.74 396.82,242.61" style="fill:none;stroke:black;stroke-width:0.5"/>
<polyline points="494.1,242.61 494.29,240.49 494.86,238.44 495.78,236.52 497.03,234.8 498.57,233.33 500.35,232.15 502.31,231.32 504.38,230.84 506.51,230.75 508.62,231.03 510.65,231.69 512.52,232.7 514.19,234.03 515.59,235.63 516.68,237.46 517.43,239.45 517.81,241.55 517.81,243.68 517.43,245.77 516.68,247.77 515.59,249.6 514.19,251.2 512.52,252.53 510.65,253.54 508.62,254.2 506.51,254.48 504.38,254.39 502.31,253.91 500.35,253.08 498.57,251.9 497.03,250.43 495.78,248.71 494.86,246.79 494.29,244.74 494.1,242.61" style="fill:none;stroke:black;stroke-width:0.5"/>
<polyline points="591.38,242.61 591.57,240.49 592.14,238.44 593.06,236.52 594.31,234.8 595.85,233.33 597.63,232.15 599.59,231.32 601.67,230.84 603.79,230.75 605.9,231.03 607.93,231.69 609.8,232.7 611.47,234.03 612.87,235.63 613.96,237.46 614.71,239.45 615.09,241.55 615.09,243.68 614.71,245.77 613.96,247.77 612.87,249.6 611.47,251.2 609.8,252.53 607.93,253.54 605.9,254.2 603.79,254.48 601.67,254.39 599.59,253.91 597.63,253.08 595.85,251.9 594.31,250.43 593.06,248.71 592.14,246.79 591.57,244.74 591.38,242.61" style="fill:none;stroke:black;stroke-width:0.5"/>
<polyline points="177.94,315.57 178.13,313.45 178.7,311.4 179.62,309.48 180.87,307.76 182.41,306.29 184.19,305.11 186.15,304.28 188.22,303.8 190.35,303.71 192.46,303.99 194.49,304.65 196.36,305.66 198.03,306.99 199.43,308.59 200.52,310.42 201.27,312.41 201.65,314.51 201.65,316.64 201.27,318.73 200.52,320.73 199.43,322.56 198.03,324.16 196.36,325.49 194.49,326.5 192.46,327.16 190.35,327.44 188.22,327.35 186.15,326.87 184.19,326.04 182.41,324.86 180.87,323.39 179.62,321.67 178.7,319.75 178.13,317.7 177.94,315.57" style="fill:none;stroke:black;stroke-width:0.5"/>
<polyline points="226.58,315.57 226.77,313.45 227.34,311.4 228.26,309.48 229.51,307.76 231.05,306.29 232.83,305.11 234.79,304.28 236.86,303.8 238.99,303.71 241.1,303.99 243.13,304.65 245,305.66 246.67,306.99 248.07,308.59 249.16,310.42 249.91,312.41 250.29,314.51 250.29,316.64 249.91,318.73 249.16,320.73 248.07,322.56 246.67,324.16 245,325.49 243.13,326.5 241.1,327.16 238.99,327.44 236.86,327.35 234.79,326.87 232.83,326.04 231.05,324.86 229.51,323.39 228.26,321.67 227.34,319.75 226.77,317.7 226.58,315.57" style="fill:none;stroke:black;stroke-width:0.5"/>
<polyline points="275.22,315.57 275.41,313.45 275.98,311.4 276.9,309.48 278.15,307.76 279.69,306.29 281.47,305.11 283.43,304.28 285.5,303.8 287.63,303.71 289.74,303.99 291.77,304.65 293.64,305.66 295.31,306.99 296.71,308.59 297.8,310.42 298.55,312.41 298.93,314.51 298.93,316.64 298.55,318.73 297.8,320.73 296.71,322.56 295.31,324.16 293.64,325.49 291.77,326.5 289.74,327.16 287.63,327.44 285.5,327.35 283.43,326.87 281.47,326.04 279.69,324.86 278.15,323.39 276.9,321.67 275.98,319.75 275.41,317.7 275.22,315.57" style="fill:none;stroke:black;stroke-width:0.5"/>
<polyline points="323.86,315.57 324.05,313.45 324.62,311.4 325.54,309.48 326.79,307.76 328.33,306.29 330.11,305.11 332.07,304.28 334.14,303.8 336.27,303.71 338.38,303.99 340.41,304.65 342.28,305.66 343.95,306.99 345.35,308.59 346.44,310.42 347.19,312.41 347.57,314.51 347.57,316.64 347.19,318.73 346.44,320.73 345.35,322.56 343.95,324.16 342.28,325.49 340.41,326.5 338.38,327.16 336.27,327.44 334.14,327.35 332.07,326.87 330.11,326.04 328.33,324.86 326.79,323.39 325.54,321.67 324.62,319.75 324.05,317.7 323.86,315.57" style="fill:none;stroke:black;stroke-width:0.5"/>
<polyline points="421.14,315.57 421.33,313.45 421.9,311.4 422.82,309.48 424.07,307.76 425.61,306.29 427.39,305.11 429.35,304.28 431.42,303.8 433.55,303.71 435.66,303.99 437.69,304.65 439.56,305.66 441.23,306.99 442.63,308.59 443.72,310.42 444.47,312.41 444.85,314.51 444.85,316.64 444.47,318.73 443.72,320.73 442.63,322.56 441.23,324.16 439.56,325.49 437.69,326.5 435.66,327.16 433.55,327.44 431.42,327.35 429.35,326.87 427.39,326.04 425.61,324.86 424.07,323.39 422.82,321.67 421.9,319.75 421.33,317.7 421.14,315.57" style="fill:none;stroke:black;stroke-width:0.5"/>
<polyline points="469.78,315.57 469.97,313.45 470.54,311.4 471.46,309.48 472.71,307.76 474.25,306.29 476.03,305.11 477.99,304.28 480.06,303.8 482.19,303.71 484.3,303.99 486.33,304.65 488.2,305.66 489.87,306.99 491.27,308.59 492.36,310.42 493.11,312.41 493.49,314.51 493.49,316.64 493.11,318.73 492.36,320.73 491.27,322.56 489.87,324.16 488.2,325.49 486.33,326.5 484.3,327.16 482.19,327.44 480.06,327.35 477.99,326.87 476.03,326.04 474.25,324.86 472.71,323.39 471.46,321.67 470.54,319.75 469.97,317.7 469.78,315.57" style="fill:none;stroke:black;stroke-width:0.5"/>
<polyline points="518.42,315.57 518.61,313.45 519.18,311.4 520.1,309.48 521.35,307.76 522.89,306.29 524.67,305.11 526.63,304.28 528.7,303.8 530.83,303.71 532.94,303.99 534.97,304.65 536.84,305.66 538.51,306.99 539.91,308.59 541,310.42 541.75,312.41 542.13,314.51 542.13,316.64 541.75,318.73 541,320.73 539.91,322.56 538.51,324.16 536.84,325.49 534.97,326.5 532.94,327.16 530.83,327.44 528.7,327.35 526.63,326.87 524.67,326.04 522.89,324.86 521.35,323.39 520.1,321.67 519.18,319.75 518.61,317.7 518.42,315.57" style="fill:none;stroke:black;stroke-width:0.5"/>
<polyline points="567.06,315.57 567.25,313.45 567.82,311.4 568.74,309.48 569.99,307.76 571.53,306.29 573.31,305.11 575.27,304.28 577.35,303.8 579.47,303.71 581.58,303.99 583.61,304.65 585.48,305.66 587.15,306.99 588.55,308.59 589.64,310.42 590.39,312.41 590.77,314.51 590.77,316.64 590.39,318.73 589.64,320.73 588.55,322.56 587.15,324.16 585.48,325.49 583.61,326.5 581.58,327.16 579.47,327.44 577.35,327.35 575.27,326.87 573.31,326.04 571.53,324.86 569.99,323.39 568.74,321.67 567.82,319.75 567.25,317.7 567.06,315.57" style="fill:none;stroke:black;stroke-width:0.5"/>
<polyline points="615.7,315.57 615.89,313.45 616.46,311.4 617.38,309.48 618.63,307.76 620.17,306.29 621.95,305.11 623.91,304.28 625.99,303.8 628.11,303.71 630.22,303.99 632.25,304.65 634.12,305.66 635.79,306.99 637.19,308.59 638.28,310.42 639.03,312.41 639.41,314.51 639.41,316.64 639.03,318.73 638.28,320.73 637.19,322.56 635.79,324.16 634.12,325.49 632.25,326.5 630.22,327.16 628.11,327.44 625.99,327.35 623.91,326.87 621.95,326.04 620.17,324.86 618.63,323.39 617.38,321.67 616.46,319.75 615.89,317.7 615.7,315.57" style="fill:none;stroke:black;stroke-width:0.5"/>
<polyline points="153.62,291.25 153.81,289.13 154.38,287.08 155.3,285.16 156.55,283.44 158.09,281.97 159.87,280.79 161.83,279.96 163.9,279.48 166.03,279.39 168.14,279.67 170.17,280.33 172.04,281.34 173.71,282.67 175.11,284.27 176.2,286.1 176.95,288.09 177.33,290.19 177.33,292.32 176.95,294.41 176.2,296.41 175.11,298.24 173.71,299.84 172.04,301.17 170.17,302.18 168.14,302.84 166.03,303.12 163.9,303.03 161.83,302.55 159.87,301.72 158.09,300.54 156.55,299.07 155.3,297.35 154.38,295.43 153.81,293.38 153.62,291.25" style="fill:none;stroke:black;stroke-width:0.5"/>
<polyline points="153.62,388.53 153.81,386.41 154.38,384.36 155.3,382.44 156.55,380.72 158.09,379.25 159.87,378.07 161.83,377.24 163.9,376.76 166.03,376.67 168.14,376.95 170.17,377.61 172.04,378.62 173.71,379.95 175.11,381.55 176.2,383.38 176.95,385.37 177.33,387.47 177.33,389.6 176.95,391.7 176.2,393.69 175.11,395.52 173.71,397.12 172.04,398.45 170.17,399.46 168.14,400.12 166.03,400.4 163.9,400.31 161.83,399.83 159.87,399 158.09,397.82 156.55,396.35 155.3,394.63 154.38,392.71 153.81,390.66 153.62,388.53" style="fill:none;stroke:black;stroke-width:0.5"/>
<polyline points="202.26,339.89 202.45,337.77 203.02,335.72 203.94,333.8 205.19,332.08 206.73,330.61 208.51,329.43 210.47,328.6 212.54,328.12 214.67,328.03 216.78,328.31 218.81,328.97 220.68,329.98 222.35,331.31 223.75,332.91 224.84,334.74 225.59,336.73 225.97,338.83 225.97,340.96 225.59,343.05 224.84,345.05 223.75,346.88 222.35,348.48 220.68,349.81 218.81,350.82 216.78,351.48 214.67,351.76 212.54,351.67 210.47,351.19 208.51,350.36 206.73,349.18 205.19,347.71 203.94,345.99 203.02,344.07 202.45,342.02 202.26,339.89" style="fill:none;stroke:black;stroke-width:0.5"/>
<polyline points="250.9,291.25 251.09,289.13 251.66,287.08 252.58,285.16 253.83,283.44 255.37,281.97 257.15,280.79 259.11,279.96 261.18,279.48 263.31,279.39 265.42,279.67 267.45,280.33 269.32,281.34 270.99,282.67 272.39,284.27 273.48,286.1 274.23,288.09 274.61,290.19 274.61,292.32 274.23,294.41 273.48,296.41 272.39,298.24 270.99,299.84 269.32,301.17 267.45,302.18 265.42,302.84 263.31,303.12 261.18,303.03 259.11,302.55 257.15,301.72 255.37,300.54 253.83,299.07 252.58,297.35 251.66,295.43 251.09,293.38 250.9,291.25" style="fill:none;stroke:black;stroke-width:0.5"/>
<polyline points="250.9,388.53 251.09,386.41 251.66,384.36 252.58,382.44 253.83,380.72 255.37,379.25 257.15,378.07 259.11,377.24 261.18,376.76 263.31,376.67 265.42,376.95 267.45,377.61 269.32,378.62 270.99,379.95 272.39,381.55 273.48,383.38 274.23,385.37 274.61,387.47 274.61,389.6 274.23,391.7 273.48,393.69 272.39,395.52 270.99,397.12 269.32,398.45 267.45,399.46 265.42,400.12 263.31,400.4 261.18,400.31 259.11,399.83 257.15,399 255.37,397.82 253.83,396.35 252.58,394.63 251.66,392.71 251.09,390.66 250.9,388.53" style="fill:none;stroke:black;stroke-width:0.5"/>
<polyline points="299.54,339.89 299.73,337.77 300.3,335.72 301.22,333.8 302.47,332.08 304.01,330.61 305.79,329.43 307.75,328.6 309.82,328.12 311.95,328.03 314.06,328.31 316.09,328.97 317.96,329.98 319.63,331.31 321.03,332.91 322.12,334.74 322.87,336.73 323.25,338.83 323.25,340.96 322.87,343.05 322.12,345.05 321.03,346.88 319.63,348.48 317.96,349.81 316.09,350.82 314.06,351.48 311.95,351.76 309.82,351.67 307.75,351.19 305.79,350.36 304.01,349.18 302.47,347.71 301.22,345.99 300.3,344.07 299.73,342.02 299.54,339.89" style="fill:none;stroke:black;stroke-width:0.5"/>
<polyline points="348.18,291.25 348.37,289.13 348.94,287.08 349.86,285.16 351.11,283.44 352.65,281.97 354.43,280.79 356.39,279.96 358.46,279.48 360.59,279.39 362.7,279.67 364.73,280.33 366.6,281.34 368.27,282.67 369.67,284.27 370.76,286.1 371.51,288.09 371.89,290.19 371.89,292.32 371.51,294.41 370.76,296.41 369.67,298.24 368.27,299.84 366.6,301.17 364.73,302.18 362.7,302.84 360.59,303.12 358.46,303.03 356.39,302.55 354.43,301.72 352.65,300.54 351.11,299.07 349.86,297.35 348.94,295.43 348.37,293.38 348.18,291.25" style="fill:none;stroke:black;stroke-width:0.5"/>
<polyline points="445.46,291.25 445.65,289.13 446.22,287.08 447.14,285.16 448.39,283.44 449.93,281.97 451.71,280.79 453.67,279.96 455.74,279.48 457.87,279.39 459.98,279.67 462.01,280.33 463.88,281.34 465.55,282.67 466.95,284.27 468.04,286.1 468.79,288.09 469.17,290.19 469.17,292.32 468.79,294.41 468.04,296.41 466.95,298.24 465.55,299.84 463.88,301.17 462.01,302.18 459.98,302.84 457.87,303.12 455.74,303.03 453.67,302.55 451.71,301.72 449.93,300.54 448.39,299.07 447.14,297.35 446.22,295.43 445.65,293.38 445.46,291.25" style="fill:none;stroke:black;stroke-width:0.5"/>
<polyline points="445.46,388.53 445.65,386.41 446.22,384.36 447.14,382.44 448.39,380.72 449.93,379.25 451.71,378.07 453.67,377.24 455.74,376.76 457.87,376.67 459.98,376.95 462.01,377.61 463.88,378.62 465.55,379.95 466.95,381.55 468.04,383.38 468.79,385.37 469.17,387.47 469.17,389.6 468.79,391.7 468.04,393.69 466.95,395.52 465.55,397.12 463.88,398.45 462.01,399.46 459.98,400.12 457.87,400.4 455.74,400.31 453.67,399.83 451.71,399 449.93,397.82 448.39,396.35 447.14,394.63 446.22,392.71 445.65,390.66 445.46,388.53" style="fill:none;stroke:black;stroke-width:0.5"/>
<polyline points="494.1,339.89 494.29,337.77 494.86,335.72 495.78,333.8 497.03,332.08 498.57,330.61 500.35,329.43 502.31,328.6 504.38,328.12 506.51,328.03 508.62,328.31 510.65,328.97 512.52,329.98 514.19,331.31 515.59,332.91 516.68,334.74 517.43,336.73 517.81,338.83 517.81,340.96 517.43,343.05 516.68,345.05 515.59,346.88 514.19,348.48 512.52,349.81 510.65,350.82 508.62,351.48 506.51,351.76 504.38,351.67 502.31,351.19 500.35,350.36 498.57,349.18 497.03,347.71 495.78,345.99 494.86,344.07 494.29,342.02 494.1,339.89" style="fill:none;stroke:black;stroke-width:0.5"/>
<polyline points="542.74,291.25 542.93,289.13 543.5,287.08 544.42,285.16 545.67,283.44 547.21,281.97 548.99,280.79 550.95,279.96 553.02,279.48 555.15,279.39 557.26,279.67 559.29,280.33 561.16,281.34 562.83,282.67 564.23,284.27 565.32,286.1 566.07,288.09 566.45,290.19 566.45,292.32 566.07,294.41 565.32,296.41 564.23,298.24 562.83,299.84 561.16,301.17 559.29,302.18 557.26,302.84 555.15,303.12 553.02,303.03 550.95,302.55 548.99,301.72 547.21,300.54 545.67,299.07 544.42,297.35 543.5,295.43 542.93,293.38 542.74,291.25" style="fill:none;stroke:black;stroke-width:0.5"/>
<polyline points="542.74,388.53 542.93,386.41 543.5,384.36 544.42,382.44 545.67,380.72 547.21,379.25 548.99,378.07 550.95,377.24 553.02,376.76 555.15,376.67 557.26,376.95 559.29,377.61 561.16,378.62 562.83,379.95 564.23,381.55 565.32,383.38 566.07,385.37 566.45,387.47 566.45,389.6 566.07,391.7 565.32,393.69 564.23,395.52 562.83,397.12 561.16,398.45 559.29,399.46 557.26,400.12 555.15,400.4 553.02,400.31 550.95,399.83 548.99,399 547.21,397.82 545.67,396.35 544.42,394.63 543.5,392.71 542.93,390.66 542.74,388.53" style="fill:none;stroke:black;stroke-width:0.5"/>
<polyline points="591.38,339.89 591.57,337.77 592.14,335.72 593.06,333.8 594.31,332.08 595.85,330.61 597.63,329.43 599.59,328.6 601.67,328.12 603.79,328.03 605.9,328.31 607.93,328.97 609.8,329.98 611.47,331.31 612.87,332.91 613.96,334.74 614.71,336.73 615.09,338.83 615.09,340.96 614.71,343.05 613.96,345.05 612.87,346.88 611.47,348.48 609.8,349.81 607.93,350.82 605.9,351.48 603.79,351.76 601.67,351.67 599.59,351.19 597.63,350.36 595.85,349.18 594.31,347.71 593.06,345.99 592.14,344.07 591.57,342.02 591.38,339.89" style="fill:none;stroke:black;stroke-width:0.5"/>
<polyline points="640.02,291.25 640.21,289.13 640.78,287.08 641.7,285.16 642.95,283.44 644.49,281.97 646.27,280.79 648.23,279.96 650.31,279.48 652.43,279.39 654.54,279.67 656.57,280.33 658.44,281.34 660.11,282.67 661.51,284.27 662.6,286.1 663.35,288.09 663.73,290.19 663.73,292.32 663.35,294.41 662.6,296.41 661.51,298.24 660.11,299.84 658.44,301.17 656.57,302.18 654.54,302.84 652.43,303.12 650.31,303.03 648.23,302.55 646.27,301.72 644.49,300.54 642.95,299.07 641.7,297.35 640.78,295.43 640.21,293.38 640.02,291.25" style="fill:none;stroke:black;stroke-width:0.5"/>
<polyline points="640.02,388.53 640.21,386.41 640.78,384.36 641.7,382.44 642.95,380.72 644.49,379.25 646.27,378.07 648.23,377.24 650.31,376.76 652.43,376.67 654.54,376.95 656.57,377.61 658.44,378.62 660.11,379.95 661.51,381.55 662.6,383.38 663.35,385.37 663.73,387.47 663.73,389.6 663.35,391.7 662.6,393.69 661.51,395.52 660.11,397.12 658.44,398.45 656.57,399.46 654.54,400.12 652.43,400.4 650.31,400.31 648.23,399.83 646.27,399 644.49,397.82 642.95,396.35 641.7,394.63 640.78,392.71 640.21,390.66 640.02,388.53" style="fill:none;stroke:black;stroke-width:0.5"/>
<polyline points="640.02,339.89 640.21,337.77 640.78,335.72 641.7,333.8 642.95,332.08 644.49,330.61 646.27,329.43 648.23,328.6 650.31,328.12 652.43,328.03 654.54,328.31 656.57,328.97 658.44,329.98 660.11,331.31 661.51,332.91 662.6,334.74 663.35,336.73 663.73,338.83 663.73,340.96 663.35,343.05 662.6,345.05 661.51,346.88 660.11,348.48 658.44,349.81 656.57,350.82 654.54,351.48 652.43,351.76 650.31,351.67 648.23,351.19 646.27,350.36 644.49,349.18 642.95,347.71 641.7,345.99 640.78,344.07 640.21,342.02 640.02,339.89" style="fill:none;stroke:black;stroke-width:0.5"/>
<polyline points="591.38,388.53 591.57,386.41 592.14,384.36 593.06,382.44 594.31,380.72 595.85,379.25 597.63,378.07 599.59,377.24 601.67,376.76 603.79,376.67 605.9,376.95 607.93,377.61 609.8,378.62 611.47,379.95 612.87,381.55 613.96,383.38 614.71,385.37 615.09,387.47 615.09,389.6 614.71,391.7 613.96,393.69 612.87,395.52 611.47,397.12 609.8,398.45 607.93,399.46 605.9,400.12 603.79,400.4 601.67,400.31 599.59,399.83 597.63,399 595.85,397.82 594.31,396.35 593.06,394.63 592.14,392.71 591.57,390.66 591.38,388.53" style="fill:none;stroke:black;stroke-width:0.5"/>
<polyline points="591.38,291.25 591.57,289.13 592.14,287.08 593.06,285.16 594.31,283.44 595.85,281.97 597.63,280.79 599.59,279.96 601.67,279.48 603.79,279.39 605.9,279.67 607.93,280.33 609.8,281.34 611.47,282.67 612.87,284.27 613.96,286.1 614.71,288.09 615.09,290.19 615.09,292.32 614.71,294.41 613.96,296.41 612.87,298.24 611.47,299.84 609.8,301.17 607.93,302.18 605.9,302.84 603.79,303.12 601.67,303.03 599.59,302.55 597.63,301.72 595.85,300.54 594.31,299.07 593.06,297.35 592.14,295.43 591.57,293.38 591.38,291.25" style="fill:none;stroke:black;stroke-width:0.5"/>
<polyline points="542.74,339.89 542.93,337.77 543.5,335.72 544.42,333.8 545.67,332.08 547.21,330.61 548.99,329.43 550.95,328.6 553.02,328.12 555.15,328.03 557.26,328.31 559.29,328.97 561.16,329.98 562.83,331.31 564.23,332.91 565.32,334.74 566.07,336.73 566.45,338.83 566.45,340.96 566.07,343.05 565.32,345.05 564.23,346.88 562.83,348.48 561.16,349.81 559.29,350.82 557.26,351.48 555.15,351.76 553.02,351.67 550.95,351.19 548.99,350.36 547.21,349.18 545.67,347.71 544.42,345.99 543.5,344.07 542.93,342.02 542.74,339.89" style="fill:none;stroke:black;stroke-width:0.5"/>
<polyline points="494.1,388.53 494.29,386.41 494.86,384.36 495.78,382.44 497.03,380.72 498.57,379.25 500.35,378.07 502.31,377.24 504.38,376.76 506.51,376.67 508.62,376.95 510.65,377.61 512.52,378.62 514.19,379.95 515.59,381.55 516.68,383.38 517.43,385.37 517.81,387.47 517.81,389.6 517.43,391.7 516.68,393.69 515.59,395.52 514.19,397.12 512.52,398.45 510.65,399.46 508.62,400.12 506.51,400.4 504.38,400.31 502.31,399.83 500.35,399 498.57,397.82 497.03,396.35 495.78,394.63 494.86,392.71 494.29,390.66 494.1,388.53" style="fill:none;stroke:black;stroke-width:0.5"/>
<polyline points="494.1,291.25 494.29,289.13 494.86,287.08 495.78,285.16 497.03,283.44 498.57,281.97 500.35,280.79 502.31,279.96 504.38,279.48 506.51,279.39 508.62,279.67 510.65,280.33 512.52,281.34 514.19,282.67 515.59,284.27 516.68,286.1 517.43,288.09 517.81,290.19 517.81,292.32 517.43,294.41 516.68,296.41 515.59,298.24 514.19,299.84 512.52,301.17 510.65,302.18 508.62,302.84 506.51,303.12 504.38,303.03 502.31,302.55 500.35,301.72 498.57,300.54 497.03,299.07 495.78,297.35 494.86,295.43 494.29,293.38 494.1,291.25" style="fill:none;stroke:black;stroke-width:0.5"/>
<polyline points="445.46,339.89 445.65,337.77 446.22,335.72 447.14,333.8 448.39,332.08 449.93,330.61 451.71,329.43 453.67,328.6 455.74,328.12 457.87,328.03 459.98,328.31 462.01,328.97 463.88,329.98 465.55,331.31 466.95,332.91 468.04,334.74 468.79,336.73 469.17,338.83 469.17,340.96 468.79,343.05 468.04,345.05 466.95,346.88 465.55,348.48 463.88,349.81 462.01,350.82 459.98,351.48 457.87,351.76 455.74,351.67 453.67,351.19 451.71,350.36 449.93,349.18 448.39,347.71 447.14,345.99 446.22,344.07 445.65,342.02 445.46,339.89" style="fill:none;stroke:black;stroke-width:0.5"/>
<polyline points="396.82,291.25 397.01,289.13 397.58,287.08 398.5,285.16 399.75,283.44 401.29,281.97 403.07,280.79 405.03,279.96 407.1,279.48 409.23,279.39 411.34,279.67 413.37,280.33 415.24,281.34 416.91,282.67 418.31,284.27 419.4,286.1 420.15,288.09 420.53,290.19 420.53,292.32 420.15,294.41 419.4,296.41 418.31,298.24 416.91,299.84 415.24,301.17 413.37,302.18 411.34,302.84 409.23,303.12 407.1,303.03 405.03,302.55 403.07,301.72 401.29,300.54 399.75,299.07 398.5,297.35 397.58,295.43 397.01,293.38 396.82,291.25" style="fill:none;stroke:black;stroke-width:0.5"/>
<polyline points="299.54,388.53 299.73,386.41 300.3,384.36 301.22,382.44 302.47,380.72 304.01,379.25 305.79,378.07 307.75,377.24 309.82,376.76 311.95,376.67 314.06,376.95 316.09,377.61 317.96,378.62 319.63,379.95 321.03,381.55 322.12,383.38 322.87,385.37 323.25,387.47 323.25,389.6 322.87,391.7 322.12,393.69 321.03,395.52 319.63,397.12 317.96,398.45 316.09,399.46 314.06,400.12 311.95,400.4 309.82,400.31 307.75,399.83 305.79,399 304.01,397.82 302.47,396.35 301.22,394.63 300.3,392.71 299.73,390.66 299.54,388.53" style="fill:none;stroke:black;stroke-width:0.5"/>
<polyline points="299.54,291.25 299.73,289.13 300.3,287.08 301.22,285.16 302.47,283.44 304.01,281.97 305.79,280.79 307.75,279.96 309.82,279.48 311.95,279.39 314.06,279.67 316.09,280.33 317.96,281.34 319.63,282.67 321.03,284.27 322.12,286.1 322.87,288.09 323.25,290.19 323.25,292.32 322.87,294.41 322.12,296.41 321.03,298.24 319.63,299.84 317.96,301.17 316.09,302.18 314.06,302.84 311.95,303.12 309.82,303.03 307.75,302.55 305.79,301.72 304.01,300.54 302.47,299.07 301.22,297.35 300.3,295.43 299.73,293.38 299.54,291.25" style="fill:none;stroke:black;stroke-width:0.5"/>
<polyline points="250.9,339.89 251.09,337.77 251.66,335.72 252.58,333.8 253.83,332.08 255.37,330.61 257.15,329.43 259.11,328.6 261.18,328.12 263.31,328.03 265.42,328.31 267.45,328.97 269.32,329.98 270.99,331.31 272.39,332.91 273.48,334.74 274.23,336.73 274.61,338.83 274.61,340.96 274.23,343.05 273.48,345.05 272.39,346.88 270.99,348.48 269.32,349.81 267.45,350.82 265.42,351.48 263.31,351.76 261.18,351.67 259.11,351.19 257.15,350.36 255.37,349.18 253.83,347.71 252.58,345.99 251.66,344.07 251.09,342.02 250.9,339.89" style="fill:none;stroke:black;stroke-width:0.5"/>
<polyline points="202.26,388.53 202.45,386.41 203.02,384.36 203.94,382.44 205.19,380.72 206.73,379.25 208.51,378.07 210.47,377.24 212.54,376.76 214.67,376.67 216.78,376.95 218.81,377.61 220.68,378.62 222.35,379.95 223.75,381.55 224.84,383.38 225.59,385.37 225.97,387.47 225.97,389.6 225.59,391.7 224.84,393.69 223.75,395.52 222.35,397.12 220.68,398.45 218.81,399.46 216.78,400.12 214.67,400.4 212.54,400.31 210.47,399.83 208.51,399 206.73,397.82 205.19,396.35 203.94,394.63 203.02,392.71 202.45,390.66 202.26,388.53" style="fill:none;stroke:black;stroke-width:0.5"/>
<polyline points="202.26,291.25 202.45,289.13 203.02,287.08 203.94,285.16 205.19,283.44 206.73,281.97 208.51,280.79 210.47,279.96 212.54,279.48 214.67,279.39 216.78,279.67 218.81,280.33 220.68,281.34 222.35,282.67 223.75,284.27 224.84,286.1 225.59,288.09 225.97,290.19 225.97,292.32 225.59,294.41 224.84,296.41 223.75,298.24 222.35,299.84 220.68,301.17 218.81,302.18 216.78,302.84 214.67,303.12 212.54,303.03 210.47,302.55 208.51,301.72 206.73,300.54 205.19,299.07 203.94,297.35 203.02,295.43 202.45,293.38 202.26,291.25" style="fill:none;stroke:black;stroke-width:0.5"/>
<polyline points="153.62,339.89 153.81,337.77 154.38,335.72 155.3,333.8 156.55,332.08 158.09,330.61 159.87,329.43 161.83,328.6 163.9,328.12 166.03,328.03 168.14,328.31 170.17,328.97 172.04,329.98 173.71,331.31 175.11,332.91 176.2,334.74 176.95,336.73 177.33,338.83 177.33,340.96 176.95,343.05 176.2,345.05 175.11,346.88 173.71,348.48 172.04,349.81 170.17,350.82 168.14,351.48 166.03,351.76 163.9,351.67 161.83,351.19 159.87,350.36 158.09,349.18 156.55,347.71 155.3,345.99 154.38,344.07 153.81,342.02 153.62,339.89" style="fill:none;stroke:black;stroke-width:0.5"/>
<polyline points="615.7,364.21 615.89,362.09 616.46,360.04 617.38,358.12 618.63,356.4 620.17,354.93 621.95,353.75 623.91,352.92 625.99,352.44 628.11,352.35 630.22,352.63 632.25,353.29 634.12,354.3 635.79,355.63 637.19,357.23 638.28,359.06 639.03,361.05 639.41,363.15 639.41,365.28 639.03,367.37 638.28,369.37 637.19,371.2 635.79,372.8 634.12,374.13 632.25,375.14 630.22,375.8 628.11,376.08 625.99,375.99 623.91,375.51 621.95,374.68 620.17,373.5 618.63,372.03 617.38,370.31 616.46,368.39 615.89,366.34 615.7,364.21" style="fill:none;stroke:black;stroke-width:0.5"/>
<polyline points="567.06,364.21 567.25,362.09 567.82,360.04 568.74,358.12 569.99,356.4 571.53,354.93 573.31,353.75 575.27,352.92 577.35,352.44 579.47,352.35 581.58,352.63 583.61,353.29 585.48,354.3 587.15,355.63 588.55,357.23 589.64,359.06 590.39,361.05 590.77,363.15 590.77,365.28 590.39,367.37 589.64,369.37 588.55,371.2 587.15,372.8 585.48,374.13 583.61,375.14 581.58,375.8 579.47,376.08 577.35,375.99 575.27,375.51 573.31,374.68 571.53,373.5 569.99,372.03 568.74,370.31 567.82,368.39 567.25,366.34 567.06,364.21" style="fill:none;stroke:black;stroke-width:0.5"/>
<polyline points="518.42,364.21 518.61,362.09 519.18,360.04 520.1,358.12 521.35,356.4 522.89,354.93 524.67,353.75 526.63,352.92 528.7,352.44 530.83,352.35 532.94,352.63 534.97,353.29 536.84,354.3 538.51,355.63 539.91,357.23 541,359.06 541.75,361.05 542.13,363.15 542.13,365.28 541.75,367.37 541,369.37 539.91,371.2 538.51,372.8 536.84,374.13 534.97,375.14 532.94,375.8 530.83,376.08 528.7,375.99 526.63,375.51 524.67,374.68 522.89,373.5 521.35,372.03 520.1,370.31 519.18,368.39 518.61,366.34 518.42,364.21" style="fill:none;stroke:black;stroke-width:0.5"/>
<polyline points="469.78,364.21 469.97,362.09 470.54,360.04 471.46,358.12 472.71,356.4 474.25,354.93 476.03,353.75 477.99,352.92 480.06,352.44 482.19,352.35 484.3,352.63 486.33,353.29 488.2,354.3 489.87,355.63 491.27,357.23 492.36,359.06 493.11,361.05 493.49,363.15 493.49,365.28 493.11,367.37 492.36,369.37 491.27,371.2 489.87,372.8 488.2,374.13 486.33,375.14 484.3,375.8 482.19,376.08 480.06,375.99 477.99,375.51 476.03,374.68 474.25,373.5 472.71,372.03 471.46,370.31 470.54,368.39 469.97,366.34 469.78,364.21" style="fill:none;stroke:black;stroke-width:0.5"/>
<polyline points="421.14,364.21 421.33,362.09 421.9,360.04 422.82,358.12 424.07,356.4 425.61,354.93 427.39,353.75 429.35,352.92 431.42,352.44 433.55,352.35 435.66,352.63 437.69,353.29 439.56,354.3 441.23,355.63 442.63,357.23 443.72,359.06 444.47,361.05 444.85,363.15 444.85,365.28 444.47,367.37 443.72,369.37 442.63,371.2 441.23,372.8 439.56,374.13 437.69,375.14 435.66,375.8 433.55,376.08 431.42,375.99 429.35,375.51 427.39,374.68 425.61,373.5 424.07,372.03 422.82,370.31 421.9,368.39 421.33,366.34 421.14,364.21" style="fill:none;stroke:black;stroke-width:0.5"/>
<polyline points="323.86,364.21 324.05,362.09 324.62,360.04 325.54,358.12 326.79,356.4 328.33,354.93 330.11,353.75 332.07,352.92 334.14,352.44 336.27,352.35 338.38,352.63 340.41,353.29 342.28,354.3 343.95,355.63 345.35,357.23 346.44,359.06 347.19,361.05 347.57,363.15 347.57,365.28 347.19,367.37 346.44,369.37 345.35,371.2 343.95,372.8 342.28,374.13 340.41,375.14 338.38,375.8 336.27,376.08 334.14,375.99 332.07,375.51 330.11,374.68 328.33,373.5 326.79,372.03 325.54,370.31 324.62,368.39 324.05,366.34 323.86,364.21" style="fill:none;stroke:black;stroke-width:0.5"/>
<polyline points="275.22,364.21 275.41,362.09 275.98,360.04 276.9,358.12 278.15,356.4 279.69,354.93 281.47,353.75 283.43,352.92 285.5,352.44 287.63,352.35 289.74,352.63 291.77,353.29 293.64,354.3 295.31,355.63 296.71,357.23 297.8,359.06 298.55,361.05 298.93,363.15 298.93,365.28 298.55,367.37 297.8,369.37 296.71,371.2 295.31,372.8 293.64,374.13 291.77,375.14 289.74,375.8 287.63,376.08 285.5,375.99 283.43,375.51 281.47,374.68 279.69,373.5 278.15,372.03 276.9,370.31 275.98,368.39 275.41,366.34 275.22,364.21" style="fill:none;stroke:black;stroke-width:0.5"/>
<polyline points="226.58,364.21 226.77,362.09 227.34,360.04 228.26,358.12 229.51,356.4 231.05,354.93 232.83,353.75 234.79,352.92 236.86,352.44 238.99,352.35 241.1,352.63 243.13,353.29 245,354.3 246.67,355.63 248.07,357.23 249.16,359.06 249.91,361.05 250.29,363.15 250.29,365.28 249.91,367.37 249.16,369.37 248.07,371.2 246.67,372.8 245,374.13 243.13,375.14 241.1,375.8 238.99,376.08 236.86,375.99 234.79,375.51 232.83,374.68 231.05,373.5 229.51,372.03 228.26,370.31 227.34,368.39 226.77,366.34 226.58,364.21" style="fill:none;stroke:black;stroke-width:0.5"/>
<polyline points="177.94,364.21 178.13,362.09 178.7,360.04 179.62,358.12 180.87,356.4 182.41,354.93 184.19,353.75 186.15,352.92 188.22,352.44 190.35,352.35 192.46,352.63 194.49,353.29 196.36,354.3 198.03,355.63 199.43,357.23 200.52,359.06 201.27,361.05 201.65,363.15 201.65,365.28 201.27,367.37 200.52,369.37 199.43,371.2 198.03,372.8 196.36,374.13 194.49,375.14 192.46,375.8 190.35,376.08 188.22,375.99 186.15,375.51 184.19,374.68 182.41,373.5 180.87,372.03 179.62,370.31 178.7,368.39 178.13,366.34 177.94,364.21" style="fill:none;stroke:black;stroke-width:0.5"/>
<polyline points="640.02,242.61 640.21,240.49 640.78,238.44 641.7,236.52 642.95,234.8 644.49,233.33 646.27,232.15 648.23,231.32 650.31,230.84 652.43,230.75 654.54,231.03 656.57,231.69 658.44,232.7 660.11,234.03 661.51,235.63 662.6,237.46 663.35,239.45 663.73,241.55 663.73,243.68 663.35,245.77 662.6,247.77 661.51,249.6 660.11,251.2 658.44,252.53 656.57,253.54 654.54,254.2 652.43,254.48 650.31,254.39 648.23,253.91 646.27,253.08 644.49,251.9 642.95,250.43 641.7,248.71 640.78,246.79 640.21,244.74 640.02,242.61" style="fill:none;stroke:black;stroke-width:0.5"/>
<polyline points="542.74,242.61 542.93,240.49 543.5,238.44 544.42,236.52 545.67,234.8 547.21,233.33 548.99,232.15 550.95,231.32 553.02,230.84 555.15,230.75 557.26,231.03 559.29,231.69 561.16,232.7 562.83,234.03 564.23,235.63 565.32,237.46 566.07,239.45 566.45,241.55 566.45,243.68 566.07,245.77 565.32,247.77 564.23,249.6 562.83,251.2 561.16,252.53 559.29,253.54 557.26,254.2 555.15,254.48 553.02,254.39 550.95,253.91 548.99,253.08 547.21,251.9 545.67,250.43 544.42,248.71 543.5,246.79 542.93,244.74 542.74,242.61" style="fill:none;stroke:black;stroke-width:0.5"/>
<polyline points="445.46,242.61 445.65,240.49 446.22,238.44 447.14,236.52 448.39,234.8 449.93,233.33 451.71,232.15 453.67,231.32 455.74,230.84 457.87,230.75 459.98,231.03 462.01,231.69 463.88,232.7 465.55,234.03 466.95,235.63 468.04,237.46 468.79,239.45 469.17,241.55 469.17,243.68 468.79,245.77 468.04,247.77 466.95,249.6 465.55,251.2 463.88,252.53 462.01,253.54 459.98,254.2 457.87,254.48 455.74,254.39 453.67,253.91 451.71,253.08 449.93,251.9 448.39,250.43 447.14,248.71 446.22,246.79 445.65,244.74 445.46,242.61" style="fill:none;stroke:black;stroke-width:0.5"/>
<polyline points="348.18,242.61 348.37,240.49 348.94,238.44 349.86,236.52 351.11,234.8 352.65,233.33 354.43,232.15 356.39,231.32 358.46,230.84 360.59,230.75 362.7,231.03 364.73,231.69 366.6,232.7 368.27,234.03 369.67,235.63 370.76,237.46 371.51,239.45 371.89,241.55 371.89,243.68 371.51,245.77 370.76,247.77 369.67,249.6 368.27,251.2 366.6,252.53 364.73,253.54 362.7,254.2 360.59,254.48 358.46,254.39 356.39,253.91 354.43,253.08 352.65,251.9 351.11,250.43 349.86,248.71 348.94,246.79 348.37,244.74 348.18,242.61" style="fill:none;stroke:black;stroke-width:0.5"/>
<polyline points="250.9,242.61 251.09,240.49 251.66,238.44 252.58,236.52 253.83,234.8 255.37,233.33 257.15,232.15 259.11,231.32 261.18,230.84 263.31,230.75 265.42,231.03 267.45,231.69 269.32,232.7 270.99,234.03 272.39,235.63 273.48,237.46 274.23,239.45 274.61,241.55 274.61,243.68 274.23,245.77 273.48,247.77 272.39,249.6 270.99,251.2 269.32,252.53 267.45,253.54 265.42,254.2 263.31,254.48 261.18,254.39 259.11,253.91 257.15,253.08 255.37,251.9 253.83,250.43 252.58,248.71 251.66,246.79 251.09,244.74 250.9,242.61" style="fill:none;stroke:black;stroke-width:0.5"/>
<polyline points="153.62,242.61 153.81,240.49 154.38,238.44 155.3,236.52 156.55,234.8 158.09,233.33 159.87,232.15 161.83,231.32 163.9,230.84 166.03,230.75 168.14,231.03 170.17,231.69 172.04,232.7 173.71,234.03 175.11,235.63 176.2,237.46 176.95,239.45 177.33,241.55 177.33,243.68 176.95,245.77 176.2,247.77 175.11,249.6 173.71,251.2 172.04,252.53 170.17,253.54 168.14,254.2 166.03,254.48 163.9,254.39 161.83,253.91 159.87,253.08 158.09,251.9 156.55,250.43 155.3,248.71 154.38,246.79 153.81,244.74 153.62,242.61" style="fill:none;stroke:black;stroke-width:0.5"/>
<polyline points="567.06,266.93 567.25,264.81 567.82,262.76 568.74,260.84 569.99,259.12 571.53,257.65 573.31,256.47 575.27,255.64 577.35,255.16 579.47,255.07 581.58,255.35 583.61,256.01 585.48,257.02 587.15,258.35 588.55,259.95 589.64,261.78 590.39,263.77 590.77,265.87 590.77,268 590.39,270.09 589.64,272.09 588.55,273.92 587.15,275.52 585.48,276.85 583.61,277.86 581.58,278.52 579.47,278.8 577.35,278.71 575.27,278.23 573.31,277.4 571.53,276.22 569.99,274.75 568.74,273.03 567.82,271.11 567.25,269.06 567.06,266.93" style="fill:none;stroke:black;stroke-width:0.5"/>
<polyline points="469.78,266.93 469.97,264.81 470.54,262.76 471.46,260.84 472.71,259.12 474.25,257.65 476.03,256.47 477.99,255.64 480.06,255.16 482.19,255.07 484.3,255.35 486.33,256.01 488.2,257.02 489.87,258.35 491.27,259.95 492.36,261.78 493.11,263.77 493.49,265.87 493.49,268 493.11,270.09 492.36,272.09 491.27,273.92 489.87,275.52 488.2,276.85 486.33,277.86 484.3,278.52 482.19,278.8 480.06,278.71 477.99,278.23 476.03,277.4 474.25,276.22 472.71,274.75 471.46,273.03 470.54,271.11 469.97,269.06 469.78,266.93" style="fill:none;stroke:black;stroke-width:0.5"/>
<polyline points="372.5,266.93 372.69,264.81 373.26,262.76 374.18,260.84 375.43,259.12 376.97,257.65 378.75,256.47 380.71,255.64 382.78,255.16 384.91,255.07 387.02,255.35 389.05,256.01 390.92,257.02 392.59,258.35 393.99,259.95 395.08,261.78 395.83,263.77 396.21,265.87 396.21,268 395.83,270.09 395.08,272.09 393.99,273.92 392.59,275.52 390.92,276.85 389.05,277.86 387.02,278.52 384.91,278.8 382.78,278.71 380.71,278.23 378.75,277.4 376.97,276.22 375.43,274.75 374.18,273.03 373.26,271.11 372.69,269.06 372.5,266.93" style="fill:none;stroke:black;stroke-width:0.5"/>
<polyline points="275.22,266.93 275.41,264.81 275.98,262.76 276.9,260.84 278.15,259.12 279.69,257.65 281.47,256.47 283.43,255.64 285.5,255.16 287.63,255.07 289.74,255.35 291.77,256.01 293.64,257.02 295.31,258.35 296.71,259.95 297.8,261.78 298.55,263.77 298.93,265.87 298.93,268 298.55,270.09 297.8,272.09 296.71,273.92 295.31,275.52 293.64,276.85 291.77,277.86 289.74,278.52 287.63,278.8 285.5,278.71 283.43,278.23 281.47,277.4 279.69,276.22 278.15,274.75 276.9,273.03 275.98,271.11 275.41,269.06 275.22,266.93" style="fill:none;stroke:black;stroke-width:0.5"/>
<polyline points="177.94,266.93 178.13,264.81 178.7,262.76 179.62,260.84 180.87,259.12 182.41,257.65 184.19,256.47 186.15,255.64 188.22,255.16 190.35,255.07 192.46,255.35 194.49,256.01 196.36,257.02 198.03,258.35 199.43,259.95 200.52,261.78 201.27,263.77 201.65,265.87 201.65,268 201.27,270.09 200.52,272.09 199.43,273.92 198.03,275.52 196.36,276.85 194.49,277.86 192.46,278.52 190.35,278.8 188.22,278.71 186.15,278.23 184.19,277.4 182.41,276.22 180.87,274.75 179.62,273.03 178.7,271.11 178.13,269.06 177.94,266.93" style="fill:none;stroke:black;stroke-width:0.5"/>
<polyline points="129.3,315.57 129.49,313.45 130.06,311.4 130.98,309.48 132.23,307.76 133.77,306.29 135.55,305.11 137.51,304.28 139.58,303.8 141.71,303.71 143.82,303.99 145.85,304.65 147.72,305.66 149.39,306.99 150.79,308.59 151.88,310.42 152.63,312.41 153.01,314.51 153.01,316.64 152.63,318.73 151.88,320.73 150.79,322.56 149.39,324.16 147.72,325.49 145.85,326.5 143.82,327.16 141.71,327.44 139.58,327.35 137.51,326.87 135.55,326.04 133.77,324.86 132.23,323.39 130.98,321.67 130.06,319.75 129.49,317.7 129.3,315.57" style="fill:none;stroke:black;stroke-width:0.5"/>
<polyline points="93.57,341.32 93.76,339.91 94.33,338.6 95.23,337.49 96.4,336.67 97.74,336.19 99.16,336.1 100.56,336.39 101.83,337.04 102.87,338.02 103.61,339.23 103.99,340.61 103.99,342.03 103.61,343.41 102.87,344.63 101.83,345.6 100.56,346.26 99.16,346.55 97.74,346.45 96.4,345.97 95.23,345.15 94.33,344.04 93.76,342.73 93.57,341.32" style="fill:none;stroke:black;stroke-width:0.5"/>
<polyline points="93.57,247.78 93.76,246.37 94.33,245.06 95.23,243.95 96.4,243.13 97.74,242.65 99.16,242.56 100.56,242.85 101.83,243.5 102.87,244.48 103.61,245.7 103.99,247.07 103.99,248.5 103.61,249.87 102.87,251.09 101.83,252.06 100.56,252.72 99.16,253.01 97.74,252.91 96.4,252.43 95.23,251.61 94.33,250.5 93.76,249.2 93.57,247.78" style="fill:none;stroke:black;stroke-width:0.5"/>
<polyline points="383.54,341.32 383.73,339.91 384.3,338.6 385.2,337.49 386.37,336.67 387.71,336.19 389.13,336.1 390.53,336.39 391.8,337.04 392.84,338.02 393.58,339.23 393.96,340.61 393.96,342.03 393.58,343.41 392.84,344.63 391.8,345.6 390.53,346.26 389.13,346.55 387.71,346.45 386.37,345.97 385.2,345.15 384.3,344.04 383.73,342.73 383.54,341.32" style="fill:none;stroke:black;stroke-width:0.5"/>
<polyline points="673.51,341.32 673.7,339.91 674.27,338.6 675.17,337.49 676.34,336.67 677.68,336.19 679.1,336.1 680.5,336.39 681.77,337.04 682.81,338.02 683.55,339.23 683.93,340.61 683.93,342.03 683.55,343.41 682.81,344.63 681.77,345.6 680.5,346.26 679.1,346.55 677.68,346.45 676.34,345.97 675.17,345.15 674.27,344.04 673.7,342.73 673.51,341.32" style="fill:none;stroke:black;stroke-width:0.5"/>
<polyline points="673.51,247.78 673.7,246.37 674.27,245.06 675.17,243.95 676.34,243.13 677.68,242.65 679.1,242.56 680.5,242.85 681.77,243.5 682.81,244.48 683.55,245.7 683.93,247.07 683.93,248.5 683.55,249.87 682.81,251.09 681.77,252.06 680.5,252.72 679.1,253.01 677.68,252.91 676.34,252.43 675.17,251.61 674.27,250.5 673.7,249.2 673.51,247.78" style="fill:none;stroke:black;stroke-width:0.5"/>
<polyline points="559.02,499.57 501.35,499.57" style="fill:none;stroke:black;stroke-width:0.5"/>
<polyline points="495.41,493.63 495.56,494.95 496,496.21 496.71,497.34 497.65,498.28 498.77,498.98 500.03,499.42 501.35,499.57" style="fill:none;stroke:black;stroke-width:0.5"/>
<polyline points="495.41,493.63 495.41,473.05" style="fill:none;stroke:black;stroke-width:0.5"/>
<polyline points="501.35,467.11 500.03,467.26 498.77,467.7 497.65,468.41 496.71,469.35 496,470.48 495.56,471.73 495.41,473.05" style="fill:none;stroke:black;stroke-width:0.5"/>
<polyline points="501.35,467.11 559.02,467.11" style="fill:none;stroke:black;stroke-width:0.5"/>
<polyline points="564.96,473.05 564.81,471.73 564.37,470.48 563.66,469.35 562.72,468.41 561.59,467.7 560.34,467.26 559.02,467.11" style="fill:none;stroke:black;stroke-width:0.5"/>
<polyline points="564.96,473.05 564.96,493.63" style="fill:none;stroke:black;stroke-width:0.5"/>
<polyline points="559.02,499.57 560.34,499.42 561.59,498.98 562.72,498.28 563.66,497.34 564.37,496.21 564.81,494.95 564.96,493.63" style="fill:none;stroke:black;stroke-width:0.5"/>
<polyline points="741.66,201.4 739.45,201.59 737.3,202.16 735.29,203.1 733.48,204.37 731.91,205.94 730.63,207.76 729.7,209.77 729.12,211.91 728.93,214.12 729.12,216.33 729.7,218.48 730.63,220.49 731.91,222.31 733.48,223.87 735.29,225.15 737.3,226.09 739.45,226.66 741.66,226.85" style="fill:none;stroke:black;stroke-width:0.5"/>
<polyline points="63.95,226.85 66.16,226.66 68.31,226.09 70.32,225.15 72.14,223.87 73.71,222.31 74.98,220.49 75.92,218.48 76.49,216.33 76.68,214.12 76.49,211.91 75.92,209.77 74.98,207.76 73.71,205.94 72.14,204.37 70.32,203.1 68.31,202.16 66.16,201.59 63.95,201.4" style="fill:none;stroke:black;stroke-width:0.5"/>
<polyline points="741.66,201.4 785.66,201.4" style="fill:none;stroke:black;stroke-width:0.5"/>
<polyline points="63.95,201.4 14.34,201.4" style="fill:none;stroke:black;stroke-width:0.5"/>
<polyline points="725.32,496.44 724.09,496.9 723,497.62 722.09,498.55 721.41,499.67 720.98,500.9 720.84,502.2" style="fill:none;stroke:black;stroke-width:0.5"/>
<polyline points="720.84,513.6 720.84,502.2" style="fill:none;stroke:black;stroke-width:0.5"/>
<polyline points="725.32,496.44 726.54,495.98 727.64,495.27 728.55,494.33 729.23,493.22 729.66,491.98 729.8,490.69" style="fill:none;stroke:black;stroke-width:0.5"/>
<polyline points="729.8,440.92 729.8,490.69" style="fill:none;stroke:black;stroke-width:0.5"/>
<polyline points="729.8,440.92 729.64,439.01 729.18,437.15 728.43,435.38 727.4,433.77 726.13,432.33" style="fill:none;stroke:black;stroke-width:0.5"/>
<polyline points="738.73,419.74 737.38,418.58 735.83,417.72 734.15,417.18 732.39,416.99 730.62,417.14 728.92,417.64 727.36,418.47 725.99,419.59 724.87,420.97 724.04,422.53 723.54,424.23 723.38,425.99 723.57,427.75 724.11,429.44 724.98,430.99 726.13,432.33" style="fill:none;stroke:black;stroke-width:0.5"/>
<polyline points="738.73,419.74 740.16,421.01 741.78,422.04 743.54,422.79 745.4,423.25 747.31,423.41" style="fill:none;stroke:black;stroke-width:0.5"/>
<polyline points="784.4,423.41 747.31,423.41" style="fill:none;stroke:black;stroke-width:0.5"/>
<polyline points="784.4,423.41 786.47,423.23 788.47,422.69 790.34,421.81 792.04,420.63 793.5,419.16 794.69,417.47 795.57,415.59 796.1,413.59 796.28,411.53" style="fill:none;stroke:black;stroke-width:0.5"/>
<polyline points="796.28,411.53 796.28,238.73" style="fill:none;stroke:black;stroke-width:0.5"/>
<polyline points="796.28,238.73 796.1,236.67 795.57,234.67 794.69,232.79 793.5,231.1 792.04,229.63 790.34,228.44 788.47,227.57 786.47,227.03 784.4,226.85" style="fill:none;stroke:black;stroke-width:0.5"/>
<polyline points="784.4,226.85 741.66,226.85" style="fill:none;stroke:black;stroke-width:0.5"/>
<polyline points="785.66,201.4 787.72,201.21 789.72,200.68 791.6,199.8 793.3,198.62 794.76,197.15 795.95,195.46 796.82,193.58 797.36,191.58 797.54,189.52" style="fill:none;stroke:black;stroke-width:0.5"/>
<polyline points="797.54,86.4 797.54,189.52" style="fill:none;stroke:black;stroke-width:0.5"/>
<polyline points="797.54,86.4 797.36,84.34 796.82,82.34 795.95,80.46 794.76,78.77 793.3,77.3 791.6,76.11 789.72,75.24 787.72,74.7 785.66,74.52" style="fill:none;stroke:black;stroke-width:0.5"/>
<polyline points="14.34,74.52 785.66,74.52" style="fill:none;stroke:black;stroke-width:0.5"/>
<polyline points="14.34,74.52 12.28,74.7 10.28,75.24 8.4,76.11 6.7,77.3 5.24,78.77 4.05,80.46 3.18,82.34 2.64,84.34 2.46,86.4" style="fill:none;stroke:black;stroke-width:0.5"/>
<polyline points="2.46,189.52 2.46,86.4" style="fill:none;stroke:black;stroke-width:0.5"/>
<polyline points="2.46,189.52 2.64,191.58 3.18,193.58 4.05,195.46 5.24,197.15 6.7,198.62 8.4,199.8 10.28,200.68 12.28,201.21 14.34,201.4" style="fill:none;stroke:black;stroke-width:0.5"/>
<polyline points="63.95,226.85 21.21,226.85" style="fill:none;stroke:black;stroke-width:0.5"/>
<polyline points="21.21,226.85 19.15,227.03 17.15,227.57 15.27,228.44 13.57,229.63 12.11,231.1 10.92,232.79 10.05,234.67 9.51,236.67 9.33,238.73" style="fill:none;stroke:black;stroke-width:0.5"/>
<polyline points="9.33,238.73 9.33,411.53" style="fill:none;stroke:black;stroke-width:0.5"/>
<polyline points="9.33,411.53 9.51,413.59 10.05,415.59 10.92,417.47 12.11,419.16 13.57,420.63 15.27,421.81 17.15,422.69 19.15,423.23 21.21,423.41" style="fill:none;stroke:black;stroke-width:0.5"/>
<polyline points="58.3,423.41 21.21,423.41" style="fill:none;stroke:black;stroke-width:0.5"/>
<polyline points="58.3,423.41 60.21,423.25 62.07,422.79 63.83,422.04 65.45,421.01 66.89,419.74" style="fill:none;stroke:black;stroke-width:0.5"/>
<polyline points="79.48,432.33 80.63,430.99 81.5,429.44 82.04,427.75 82.23,425.99 82.08,424.23 81.57,422.53 80.75,420.97 79.62,419.59 78.25,418.47 76.69,417.64 74.99,417.14 73.23,416.99 71.46,417.18 69.78,417.72 68.23,418.58 66.89,419.74" style="fill:none;stroke:black;stroke-width:0.5"/>
<polyline points="79.48,432.33 78.21,433.77 77.18,435.38 76.43,437.15 75.97,439.01 75.81,440.92" style="fill:none;stroke:black;stroke-width:0.5"/>
<polyline points="75.81,519.54 75.81,440.92" style="fill:none;stroke:black;stroke-width:0.5"/>
<polyline points="75.81,519.54 75.96,520.86 76.4,522.11 77.11,523.24 78.05,524.18 79.18,524.89 80.43,525.33 81.75,525.48" style="fill:none;stroke:black;stroke-width:0.5"/>
<polyline points="112.51,525.48 81.75,525.48" style="fill:none;stroke:black;stroke-width:0.5"/>
<polyline points="112.51,525.48 113.83,525.33 115.09,524.89 116.21,524.18 117.15,523.24 117.86,522.11 118.3,520.86 118.45,519.54" style="fill:none;stroke:black;stroke-width:0.5"/>
<polyline points="118.45,519.54 118.45,483.67" style="fill:none;stroke:black;stroke-width:0.5"/>
<polyline points="124.39,477.73 123.07,477.88 121.81,478.32 120.68,479.03 119.74,479.97 119.04,481.09 118.6,482.35 118.45,483.67" style="fill:none;stroke:black;stroke-width:0.5"/>
<polyline points="124.39,477.73 168.63,477.73" style="fill:none;stroke:black;stroke-width:0.5"/>
<polyline points="174.57,483.67 174.42,482.35 173.98,481.09 173.28,479.97 172.34,479.03 171.21,478.32 169.95,477.88 168.63,477.73" style="fill:none;stroke:black;stroke-width:0.5"/>
<polyline points="174.57,483.67 174.57,519.54" style="fill:none;stroke:black;stroke-width:0.5"/>
<polyline points="174.57,519.54 174.72,520.86 175.16,522.11 175.87,523.24 176.81,524.18 177.93,524.89 179.19,525.33 180.51,525.48" style="fill:none;stroke:black;stroke-width:0.5"/>
<polyline points="196.37,525.48 180.51,525.48" style="fill:none;stroke:black;stroke-width:0.5"/>
<polyline points="196.37,525.48 197.69,525.33 198.94,524.89 200.07,524.18 201.01,523.24 201.72,522.11 202.16,520.86 202.31,519.54" style="fill:none;stroke:black;stroke-width:0.5"/>
<polyline points="202.31,519.54 202.31,498.5" style="fill:none;stroke:black;stroke-width:0.5"/>
<polyline points="208.25,492.56 206.92,492.7 205.67,493.14 204.54,493.85 203.6,494.79 202.89,495.92 202.45,497.17 202.31,498.5" style="fill:none;stroke:black;stroke-width:0.5"/>
<polyline points="208.25,492.56 262.45,492.56" style="fill:none;stroke:black;stroke-width:0.5"/>
<polyline points="262.45,492.56 263.77,492.41 265.03,491.97 266.15,491.26 267.1,490.32 267.8,489.19 268.24,487.94 268.39,486.62" style="fill:none;stroke:black;stroke-width:0.5"/>
<polyline points="268.39,486.62 268.39,479.79" style="fill:none;stroke:black;stroke-width:0.5"/>
<polyline points="274.33,473.85 273.01,474 271.75,474.44 270.63,475.14 269.69,476.08 268.98,477.21 268.54,478.47 268.39,479.79" style="fill:none;stroke:black;stroke-width:0.5"/>
<polyline points="274.33,473.85 292.38,473.85" style="fill:none;stroke:black;stroke-width:0.5"/>
<polyline points="292.38,473.85 293.71,473.7 294.96,473.26 296.09,472.55 297.03,471.61 297.74,470.49 298.17,469.23 298.32,467.91" style="fill:none;stroke:black;stroke-width:0.5"/>
<polyline points="298.32,467.91 298.32,458.74" style="fill:none;stroke:black;stroke-width:0.5"/>
<polyline points="310.2,446.86 308.14,447.04 306.14,447.58 304.26,448.45 302.57,449.64 301.1,451.11 299.91,452.8 299.04,454.68 298.5,456.68 298.32,458.74" style="fill:none;stroke:black;stroke-width:0.5"/>
<polyline points="310.2,446.86 463.61,446.86" style="fill:none;stroke:black;stroke-width:0.5"/>
<polyline points="475.49,458.74 475.31,456.68 474.77,454.68 473.89,452.8 472.71,451.11 471.24,449.64 469.55,448.45 467.67,447.58 465.67,447.04 463.61,446.86" style="fill:none;stroke:black;stroke-width:0.5"/>
<polyline points="475.49,458.74 475.49,513.6" style="fill:none;stroke:black;stroke-width:0.5"/>
<polyline points="475.49,513.6 475.67,515.66 476.2,517.66 477.08,519.54 478.27,521.23 479.73,522.7 481.43,523.89 483.3,524.76 485.3,525.3 487.37,525.48" style="fill:none;stroke:black;stroke-width:0.5"/>
<polyline points="708.96,525.48 487.37,525.48" style="fill:none;stroke:black;stroke-width:0.5"/>
<polyline points="708.96,525.48 711.02,525.3 713.02,524.76 714.9,523.89 716.59,522.7 718.06,521.23 719.25,519.54 720.12,517.66 720.66,515.66 720.84,513.6" style="fill:none;stroke:black;stroke-width:0.5"/>
</svg>
