G04 #@! TF.GenerationSoftware,KiCad,Pcbnew,(5.1.9-0-10_14)*
G04 #@! TF.CreationDate,2023-05-20T00:30:08-04:00*
G04 #@! TF.ProjectId,LiBCM-Daughterboard,4c694243-4d2d-4446-9175-676874657262,A*
G04 #@! TF.SameCoordinates,Original*
G04 #@! TF.FileFunction,Copper,L1,Top*
G04 #@! TF.FilePolarity,Positive*
%FSLAX46Y46*%
G04 Gerber Fmt 4.6, Leading zero omitted, Abs format (unit mm)*
G04 Created by KiCad (PCBNEW (5.1.9-0-10_14)) date 2023-05-20 00:30:08*
%MOMM*%
%LPD*%
G01*
G04 APERTURE LIST*
G04 #@! TA.AperFunction,NonConductor*
%ADD10C,0.300000*%
G04 #@! TD*
G04 #@! TA.AperFunction,ComponentPad*
%ADD11C,3.000000*%
G04 #@! TD*
G04 #@! TA.AperFunction,SMDPad,CuDef*
%ADD12R,1.200000X2.200000*%
G04 #@! TD*
G04 #@! TA.AperFunction,SMDPad,CuDef*
%ADD13R,5.800000X6.400000*%
G04 #@! TD*
G04 #@! TA.AperFunction,ComponentPad*
%ADD14O,1.700000X1.700000*%
G04 #@! TD*
G04 #@! TA.AperFunction,ComponentPad*
%ADD15R,1.700000X1.700000*%
G04 #@! TD*
G04 #@! TA.AperFunction,SMDPad,CuDef*
%ADD16R,0.900000X0.800000*%
G04 #@! TD*
G04 #@! TA.AperFunction,ComponentPad*
%ADD17O,1.800000X3.600000*%
G04 #@! TD*
G04 #@! TA.AperFunction,SMDPad,CuDef*
%ADD18R,1.500000X1.780000*%
G04 #@! TD*
G04 #@! TA.AperFunction,ComponentPad*
%ADD19R,2.000000X2.000000*%
G04 #@! TD*
G04 #@! TA.AperFunction,ComponentPad*
%ADD20O,2.000000X2.000000*%
G04 #@! TD*
G04 #@! TA.AperFunction,SMDPad,CuDef*
%ADD21R,1.200000X0.900000*%
G04 #@! TD*
G04 #@! TA.AperFunction,ViaPad*
%ADD22C,0.600000*%
G04 #@! TD*
G04 #@! TA.AperFunction,Conductor*
%ADD23C,0.500000*%
G04 #@! TD*
G04 #@! TA.AperFunction,Conductor*
%ADD24C,1.000000*%
G04 #@! TD*
G04 #@! TA.AperFunction,Conductor*
%ADD25C,1.500000*%
G04 #@! TD*
G04 #@! TA.AperFunction,Conductor*
%ADD26C,0.254000*%
G04 #@! TD*
G04 #@! TA.AperFunction,Conductor*
%ADD27C,0.100000*%
G04 #@! TD*
G04 APERTURE END LIST*
D10*
X214750000Y-134428571D02*
X214250000Y-133714285D01*
X213892857Y-134428571D02*
X213892857Y-132928571D01*
X214464285Y-132928571D01*
X214607142Y-133000000D01*
X214678571Y-133071428D01*
X214750000Y-133214285D01*
X214750000Y-133428571D01*
X214678571Y-133571428D01*
X214607142Y-133642857D01*
X214464285Y-133714285D01*
X213892857Y-133714285D01*
X215964285Y-134357142D02*
X215821428Y-134428571D01*
X215535714Y-134428571D01*
X215392857Y-134357142D01*
X215321428Y-134214285D01*
X215321428Y-133642857D01*
X215392857Y-133500000D01*
X215535714Y-133428571D01*
X215821428Y-133428571D01*
X215964285Y-133500000D01*
X216035714Y-133642857D01*
X216035714Y-133785714D01*
X215321428Y-133928571D01*
X216535714Y-133428571D02*
X216892857Y-134428571D01*
X217250000Y-133428571D01*
X218321428Y-133642857D02*
X218535714Y-133714285D01*
X218607142Y-133785714D01*
X218678571Y-133928571D01*
X218678571Y-134142857D01*
X218607142Y-134285714D01*
X218535714Y-134357142D01*
X218392857Y-134428571D01*
X217821428Y-134428571D01*
X217821428Y-132928571D01*
X218321428Y-132928571D01*
X218464285Y-133000000D01*
X218535714Y-133071428D01*
X218607142Y-133214285D01*
X218607142Y-133357142D01*
X218535714Y-133500000D01*
X218464285Y-133571428D01*
X218321428Y-133642857D01*
X217821428Y-133642857D01*
D11*
G04 #@! TO.P,F1,1*
G04 #@! TO.N,/HVDC_POS_BATT*
X213500000Y-140750000D03*
G04 #@! TO.P,F1,2*
G04 #@! TO.N,/HVDC_POS_AUX*
X191000000Y-140750000D03*
G04 #@! TD*
D12*
G04 #@! TO.P,Q1,1*
G04 #@! TO.N,/Q1_GATE*
X186030000Y-129150000D03*
G04 #@! TO.P,Q1,3*
G04 #@! TO.N,GNDPWR*
X181470000Y-129150000D03*
D13*
G04 #@! TO.P,Q1,2*
G04 #@! TO.N,/HEAT_NEG*
X183750000Y-135450000D03*
G04 #@! TD*
D11*
G04 #@! TO.P,F2,2*
G04 #@! TO.N,/GRID_POS*
X204750000Y-152000000D03*
G04 #@! TO.P,F2,1*
G04 #@! TO.N,/GRID_POS_FUSED*
X227250000Y-152000000D03*
G04 #@! TD*
G04 #@! TO.P,C2,1*
G04 #@! TO.N,+5V*
G04 #@! TA.AperFunction,SMDPad,CuDef*
G36*
G01*
X106950000Y-142275000D02*
X106950000Y-143225000D01*
G75*
G02*
X106700000Y-143475000I-250000J0D01*
G01*
X106200000Y-143475000D01*
G75*
G02*
X105950000Y-143225000I0J250000D01*
G01*
X105950000Y-142275000D01*
G75*
G02*
X106200000Y-142025000I250000J0D01*
G01*
X106700000Y-142025000D01*
G75*
G02*
X106950000Y-142275000I0J-250000D01*
G01*
G37*
G04 #@! TD.AperFunction*
G04 #@! TO.P,C2,2*
G04 #@! TO.N,GND*
G04 #@! TA.AperFunction,SMDPad,CuDef*
G36*
G01*
X105050000Y-142275000D02*
X105050000Y-143225000D01*
G75*
G02*
X104800000Y-143475000I-250000J0D01*
G01*
X104300000Y-143475000D01*
G75*
G02*
X104050000Y-143225000I0J250000D01*
G01*
X104050000Y-142275000D01*
G75*
G02*
X104300000Y-142025000I250000J0D01*
G01*
X104800000Y-142025000D01*
G75*
G02*
X105050000Y-142275000I0J-250000D01*
G01*
G37*
G04 #@! TD.AperFunction*
G04 #@! TD*
G04 #@! TO.P,C3,1*
G04 #@! TO.N,+5V*
G04 #@! TA.AperFunction,SMDPad,CuDef*
G36*
G01*
X135300000Y-129225000D02*
X135300000Y-128275000D01*
G75*
G02*
X135550000Y-128025000I250000J0D01*
G01*
X136050000Y-128025000D01*
G75*
G02*
X136300000Y-128275000I0J-250000D01*
G01*
X136300000Y-129225000D01*
G75*
G02*
X136050000Y-129475000I-250000J0D01*
G01*
X135550000Y-129475000D01*
G75*
G02*
X135300000Y-129225000I0J250000D01*
G01*
G37*
G04 #@! TD.AperFunction*
G04 #@! TO.P,C3,2*
G04 #@! TO.N,GND*
G04 #@! TA.AperFunction,SMDPad,CuDef*
G36*
G01*
X137200000Y-129225000D02*
X137200000Y-128275000D01*
G75*
G02*
X137450000Y-128025000I250000J0D01*
G01*
X137950000Y-128025000D01*
G75*
G02*
X138200000Y-128275000I0J-250000D01*
G01*
X138200000Y-129225000D01*
G75*
G02*
X137950000Y-129475000I-250000J0D01*
G01*
X137450000Y-129475000D01*
G75*
G02*
X137200000Y-129225000I0J250000D01*
G01*
G37*
G04 #@! TD.AperFunction*
G04 #@! TD*
G04 #@! TO.P,C1,2*
G04 #@! TO.N,GND*
G04 #@! TA.AperFunction,SMDPad,CuDef*
G36*
G01*
X128800000Y-139025000D02*
X128800000Y-139975000D01*
G75*
G02*
X128550000Y-140225000I-250000J0D01*
G01*
X128050000Y-140225000D01*
G75*
G02*
X127800000Y-139975000I0J250000D01*
G01*
X127800000Y-139025000D01*
G75*
G02*
X128050000Y-138775000I250000J0D01*
G01*
X128550000Y-138775000D01*
G75*
G02*
X128800000Y-139025000I0J-250000D01*
G01*
G37*
G04 #@! TD.AperFunction*
G04 #@! TO.P,C1,1*
G04 #@! TO.N,/5V_MIMA*
G04 #@! TA.AperFunction,SMDPad,CuDef*
G36*
G01*
X130700000Y-139025000D02*
X130700000Y-139975000D01*
G75*
G02*
X130450000Y-140225000I-250000J0D01*
G01*
X129950000Y-140225000D01*
G75*
G02*
X129700000Y-139975000I0J250000D01*
G01*
X129700000Y-139025000D01*
G75*
G02*
X129950000Y-138775000I250000J0D01*
G01*
X130450000Y-138775000D01*
G75*
G02*
X130700000Y-139025000I0J-250000D01*
G01*
G37*
G04 #@! TD.AperFunction*
G04 #@! TD*
G04 #@! TO.P,C7,1*
G04 #@! TO.N,+5P*
G04 #@! TA.AperFunction,SMDPad,CuDef*
G36*
G01*
X166700000Y-149775000D02*
X166700000Y-150725000D01*
G75*
G02*
X166450000Y-150975000I-250000J0D01*
G01*
X165950000Y-150975000D01*
G75*
G02*
X165700000Y-150725000I0J250000D01*
G01*
X165700000Y-149775000D01*
G75*
G02*
X165950000Y-149525000I250000J0D01*
G01*
X166450000Y-149525000D01*
G75*
G02*
X166700000Y-149775000I0J-250000D01*
G01*
G37*
G04 #@! TD.AperFunction*
G04 #@! TO.P,C7,2*
G04 #@! TO.N,GNDPWR*
G04 #@! TA.AperFunction,SMDPad,CuDef*
G36*
G01*
X164800000Y-149775000D02*
X164800000Y-150725000D01*
G75*
G02*
X164550000Y-150975000I-250000J0D01*
G01*
X164050000Y-150975000D01*
G75*
G02*
X163800000Y-150725000I0J250000D01*
G01*
X163800000Y-149775000D01*
G75*
G02*
X164050000Y-149525000I250000J0D01*
G01*
X164550000Y-149525000D01*
G75*
G02*
X164800000Y-149775000I0J-250000D01*
G01*
G37*
G04 #@! TD.AperFunction*
G04 #@! TD*
D14*
G04 #@! TO.P,J3,7*
G04 #@! TO.N,/CAN_INT*
X116250000Y-128250000D03*
G04 #@! TO.P,J3,6*
G04 #@! TO.N,/SCK*
X118790000Y-128250000D03*
G04 #@! TO.P,J3,5*
G04 #@! TO.N,/MOSI*
X121330000Y-128250000D03*
G04 #@! TO.P,J3,4*
G04 #@! TO.N,/MISO*
X123870000Y-128250000D03*
G04 #@! TO.P,J3,3*
G04 #@! TO.N,/CAN_CS*
X126410000Y-128250000D03*
G04 #@! TO.P,J3,2*
G04 #@! TO.N,GND*
X128950000Y-128250000D03*
D15*
G04 #@! TO.P,J3,1*
G04 #@! TO.N,+5V*
X131490000Y-128250000D03*
G04 #@! TD*
G04 #@! TO.P,J4,1*
G04 #@! TO.N,+5V*
X130250000Y-132500000D03*
D14*
G04 #@! TO.P,J4,2*
G04 #@! TO.N,N/C*
X127710000Y-132500000D03*
G04 #@! TO.P,J4,3*
G04 #@! TO.N,GND*
X125170000Y-132500000D03*
G04 #@! TO.P,J4,4*
G04 #@! TO.N,/SCK*
X122630000Y-132500000D03*
G04 #@! TO.P,J4,5*
G04 #@! TO.N,/MISO*
X120090000Y-132500000D03*
G04 #@! TO.P,J4,6*
G04 #@! TO.N,/MOSI*
X117550000Y-132500000D03*
G04 #@! TO.P,J4,7*
G04 #@! TO.N,/FLASH_CS*
X115010000Y-132500000D03*
G04 #@! TD*
D15*
G04 #@! TO.P,J9,1*
G04 #@! TO.N,/HEATER_EN*
X159000000Y-152750000D03*
D14*
G04 #@! TO.P,J9,2*
G04 #@! TO.N,/GRID_VLIM||SWITCH*
X156460000Y-152750000D03*
G04 #@! TO.P,J9,3*
G04 #@! TO.N,/GRID_ILIM*
X153920000Y-152750000D03*
G04 #@! TO.P,J9,4*
G04 #@! TO.N,GND*
X151380000Y-152750000D03*
G04 #@! TD*
G04 #@! TO.P,R13,2*
G04 #@! TO.N,/VLIM_JOIN*
G04 #@! TA.AperFunction,SMDPad,CuDef*
G36*
G01*
X154549998Y-146650000D02*
X155450002Y-146650000D01*
G75*
G02*
X155700000Y-146899998I0J-249998D01*
G01*
X155700000Y-147425002D01*
G75*
G02*
X155450002Y-147675000I-249998J0D01*
G01*
X154549998Y-147675000D01*
G75*
G02*
X154300000Y-147425002I0J249998D01*
G01*
X154300000Y-146899998D01*
G75*
G02*
X154549998Y-146650000I249998J0D01*
G01*
G37*
G04 #@! TD.AperFunction*
G04 #@! TO.P,R13,1*
G04 #@! TO.N,+5V*
G04 #@! TA.AperFunction,SMDPad,CuDef*
G36*
G01*
X154549998Y-144825000D02*
X155450002Y-144825000D01*
G75*
G02*
X155700000Y-145074998I0J-249998D01*
G01*
X155700000Y-145600002D01*
G75*
G02*
X155450002Y-145850000I-249998J0D01*
G01*
X154549998Y-145850000D01*
G75*
G02*
X154300000Y-145600002I0J249998D01*
G01*
X154300000Y-145074998D01*
G75*
G02*
X154549998Y-144825000I249998J0D01*
G01*
G37*
G04 #@! TD.AperFunction*
G04 #@! TD*
G04 #@! TO.P,R11,1*
G04 #@! TO.N,/ILIM_DIV*
G04 #@! TA.AperFunction,SMDPad,CuDef*
G36*
G01*
X144049998Y-135575000D02*
X144950002Y-135575000D01*
G75*
G02*
X145200000Y-135824998I0J-249998D01*
G01*
X145200000Y-136350002D01*
G75*
G02*
X144950002Y-136600000I-249998J0D01*
G01*
X144049998Y-136600000D01*
G75*
G02*
X143800000Y-136350002I0J249998D01*
G01*
X143800000Y-135824998D01*
G75*
G02*
X144049998Y-135575000I249998J0D01*
G01*
G37*
G04 #@! TD.AperFunction*
G04 #@! TO.P,R11,2*
G04 #@! TO.N,/GRID_ILIM*
G04 #@! TA.AperFunction,SMDPad,CuDef*
G36*
G01*
X144049998Y-137400000D02*
X144950002Y-137400000D01*
G75*
G02*
X145200000Y-137649998I0J-249998D01*
G01*
X145200000Y-138175002D01*
G75*
G02*
X144950002Y-138425000I-249998J0D01*
G01*
X144049998Y-138425000D01*
G75*
G02*
X143800000Y-138175002I0J249998D01*
G01*
X143800000Y-137649998D01*
G75*
G02*
X144049998Y-137400000I249998J0D01*
G01*
G37*
G04 #@! TD.AperFunction*
G04 #@! TD*
G04 #@! TO.P,R8,1*
G04 #@! TO.N,/HEATER_EN*
G04 #@! TA.AperFunction,SMDPad,CuDef*
G36*
G01*
X152925000Y-131049998D02*
X152925000Y-131950002D01*
G75*
G02*
X152675002Y-132200000I-249998J0D01*
G01*
X152149998Y-132200000D01*
G75*
G02*
X151900000Y-131950002I0J249998D01*
G01*
X151900000Y-131049998D01*
G75*
G02*
X152149998Y-130800000I249998J0D01*
G01*
X152675002Y-130800000D01*
G75*
G02*
X152925000Y-131049998I0J-249998D01*
G01*
G37*
G04 #@! TD.AperFunction*
G04 #@! TO.P,R8,2*
G04 #@! TO.N,/LED_DIV*
G04 #@! TA.AperFunction,SMDPad,CuDef*
G36*
G01*
X151100000Y-131049998D02*
X151100000Y-131950002D01*
G75*
G02*
X150850002Y-132200000I-249998J0D01*
G01*
X150324998Y-132200000D01*
G75*
G02*
X150075000Y-131950002I0J249998D01*
G01*
X150075000Y-131049998D01*
G75*
G02*
X150324998Y-130800000I249998J0D01*
G01*
X150850002Y-130800000D01*
G75*
G02*
X151100000Y-131049998I0J-249998D01*
G01*
G37*
G04 #@! TD.AperFunction*
G04 #@! TD*
G04 #@! TO.P,R9,2*
G04 #@! TO.N,/LEDp*
G04 #@! TA.AperFunction,SMDPad,CuDef*
G36*
G01*
X154549998Y-128900000D02*
X155450002Y-128900000D01*
G75*
G02*
X155700000Y-129149998I0J-249998D01*
G01*
X155700000Y-129675002D01*
G75*
G02*
X155450002Y-129925000I-249998J0D01*
G01*
X154549998Y-129925000D01*
G75*
G02*
X154300000Y-129675002I0J249998D01*
G01*
X154300000Y-129149998D01*
G75*
G02*
X154549998Y-128900000I249998J0D01*
G01*
G37*
G04 #@! TD.AperFunction*
G04 #@! TO.P,R9,1*
G04 #@! TO.N,/LED_DIV*
G04 #@! TA.AperFunction,SMDPad,CuDef*
G36*
G01*
X154549998Y-127075000D02*
X155450002Y-127075000D01*
G75*
G02*
X155700000Y-127324998I0J-249998D01*
G01*
X155700000Y-127850002D01*
G75*
G02*
X155450002Y-128100000I-249998J0D01*
G01*
X154549998Y-128100000D01*
G75*
G02*
X154300000Y-127850002I0J249998D01*
G01*
X154300000Y-127324998D01*
G75*
G02*
X154549998Y-127075000I249998J0D01*
G01*
G37*
G04 #@! TD.AperFunction*
G04 #@! TD*
G04 #@! TO.P,R10,2*
G04 #@! TO.N,/LED_DIV*
G04 #@! TA.AperFunction,SMDPad,CuDef*
G36*
G01*
X151100000Y-128549998D02*
X151100000Y-129450002D01*
G75*
G02*
X150850002Y-129700000I-249998J0D01*
G01*
X150324998Y-129700000D01*
G75*
G02*
X150075000Y-129450002I0J249998D01*
G01*
X150075000Y-128549998D01*
G75*
G02*
X150324998Y-128300000I249998J0D01*
G01*
X150850002Y-128300000D01*
G75*
G02*
X151100000Y-128549998I0J-249998D01*
G01*
G37*
G04 #@! TD.AperFunction*
G04 #@! TO.P,R10,1*
G04 #@! TO.N,/HEATER_EN*
G04 #@! TA.AperFunction,SMDPad,CuDef*
G36*
G01*
X152925000Y-128549998D02*
X152925000Y-129450002D01*
G75*
G02*
X152675002Y-129700000I-249998J0D01*
G01*
X152149998Y-129700000D01*
G75*
G02*
X151900000Y-129450002I0J249998D01*
G01*
X151900000Y-128549998D01*
G75*
G02*
X152149998Y-128300000I249998J0D01*
G01*
X152675002Y-128300000D01*
G75*
G02*
X152925000Y-128549998I0J-249998D01*
G01*
G37*
G04 #@! TD.AperFunction*
G04 #@! TD*
G04 #@! TO.P,R15,1*
G04 #@! TO.N,/Q1_GATE*
G04 #@! TA.AperFunction,SMDPad,CuDef*
G36*
G01*
X171624997Y-127475000D02*
X172875003Y-127475000D01*
G75*
G02*
X173125000Y-127724997I0J-249997D01*
G01*
X173125000Y-128350003D01*
G75*
G02*
X172875003Y-128600000I-249997J0D01*
G01*
X171624997Y-128600000D01*
G75*
G02*
X171375000Y-128350003I0J249997D01*
G01*
X171375000Y-127724997D01*
G75*
G02*
X171624997Y-127475000I249997J0D01*
G01*
G37*
G04 #@! TD.AperFunction*
G04 #@! TO.P,R15,2*
G04 #@! TO.N,GNDPWR*
G04 #@! TA.AperFunction,SMDPad,CuDef*
G36*
G01*
X171624997Y-130400000D02*
X172875003Y-130400000D01*
G75*
G02*
X173125000Y-130649997I0J-249997D01*
G01*
X173125000Y-131275003D01*
G75*
G02*
X172875003Y-131525000I-249997J0D01*
G01*
X171624997Y-131525000D01*
G75*
G02*
X171375000Y-131275003I0J249997D01*
G01*
X171375000Y-130649997D01*
G75*
G02*
X171624997Y-130400000I249997J0D01*
G01*
G37*
G04 #@! TD.AperFunction*
G04 #@! TD*
G04 #@! TO.P,R16,2*
G04 #@! TO.N,/HVDC_DIV*
G04 #@! TA.AperFunction,SMDPad,CuDef*
G36*
G01*
X211299998Y-147400000D02*
X212200002Y-147400000D01*
G75*
G02*
X212450000Y-147649998I0J-249998D01*
G01*
X212450000Y-148175002D01*
G75*
G02*
X212200002Y-148425000I-249998J0D01*
G01*
X211299998Y-148425000D01*
G75*
G02*
X211050000Y-148175002I0J249998D01*
G01*
X211050000Y-147649998D01*
G75*
G02*
X211299998Y-147400000I249998J0D01*
G01*
G37*
G04 #@! TD.AperFunction*
G04 #@! TO.P,R16,1*
G04 #@! TO.N,/GRID_POS_FUSED*
G04 #@! TA.AperFunction,SMDPad,CuDef*
G36*
G01*
X211299998Y-145575000D02*
X212200002Y-145575000D01*
G75*
G02*
X212450000Y-145824998I0J-249998D01*
G01*
X212450000Y-146350002D01*
G75*
G02*
X212200002Y-146600000I-249998J0D01*
G01*
X211299998Y-146600000D01*
G75*
G02*
X211050000Y-146350002I0J249998D01*
G01*
X211050000Y-145824998D01*
G75*
G02*
X211299998Y-145575000I249998J0D01*
G01*
G37*
G04 #@! TD.AperFunction*
G04 #@! TD*
G04 #@! TO.P,R17,2*
G04 #@! TO.N,+5P*
G04 #@! TA.AperFunction,SMDPad,CuDef*
G36*
G01*
X208549998Y-153650000D02*
X209450002Y-153650000D01*
G75*
G02*
X209700000Y-153899998I0J-249998D01*
G01*
X209700000Y-154425002D01*
G75*
G02*
X209450002Y-154675000I-249998J0D01*
G01*
X208549998Y-154675000D01*
G75*
G02*
X208300000Y-154425002I0J249998D01*
G01*
X208300000Y-153899998D01*
G75*
G02*
X208549998Y-153650000I249998J0D01*
G01*
G37*
G04 #@! TD.AperFunction*
G04 #@! TO.P,R17,1*
G04 #@! TO.N,/HVDC_DIV*
G04 #@! TA.AperFunction,SMDPad,CuDef*
G36*
G01*
X208549998Y-151825000D02*
X209450002Y-151825000D01*
G75*
G02*
X209700000Y-152074998I0J-249998D01*
G01*
X209700000Y-152600002D01*
G75*
G02*
X209450002Y-152850000I-249998J0D01*
G01*
X208549998Y-152850000D01*
G75*
G02*
X208300000Y-152600002I0J249998D01*
G01*
X208300000Y-152074998D01*
G75*
G02*
X208549998Y-151825000I249998J0D01*
G01*
G37*
G04 #@! TD.AperFunction*
G04 #@! TD*
G04 #@! TO.P,R19,2*
G04 #@! TO.N,/HVDC_DIV*
G04 #@! TA.AperFunction,SMDPad,CuDef*
G36*
G01*
X206799998Y-147400000D02*
X207700002Y-147400000D01*
G75*
G02*
X207950000Y-147649998I0J-249998D01*
G01*
X207950000Y-148175002D01*
G75*
G02*
X207700002Y-148425000I-249998J0D01*
G01*
X206799998Y-148425000D01*
G75*
G02*
X206550000Y-148175002I0J249998D01*
G01*
X206550000Y-147649998D01*
G75*
G02*
X206799998Y-147400000I249998J0D01*
G01*
G37*
G04 #@! TD.AperFunction*
G04 #@! TO.P,R19,1*
G04 #@! TO.N,/GRID_POS_FUSED*
G04 #@! TA.AperFunction,SMDPad,CuDef*
G36*
G01*
X206799998Y-145575000D02*
X207700002Y-145575000D01*
G75*
G02*
X207950000Y-145824998I0J-249998D01*
G01*
X207950000Y-146350002D01*
G75*
G02*
X207700002Y-146600000I-249998J0D01*
G01*
X206799998Y-146600000D01*
G75*
G02*
X206550000Y-146350002I0J249998D01*
G01*
X206550000Y-145824998D01*
G75*
G02*
X206799998Y-145575000I249998J0D01*
G01*
G37*
G04 #@! TD.AperFunction*
G04 #@! TD*
G04 #@! TO.P,R20,2*
G04 #@! TO.N,+5P*
G04 #@! TA.AperFunction,SMDPad,CuDef*
G36*
G01*
X212049998Y-153650000D02*
X212950002Y-153650000D01*
G75*
G02*
X213200000Y-153899998I0J-249998D01*
G01*
X213200000Y-154425002D01*
G75*
G02*
X212950002Y-154675000I-249998J0D01*
G01*
X212049998Y-154675000D01*
G75*
G02*
X211800000Y-154425002I0J249998D01*
G01*
X211800000Y-153899998D01*
G75*
G02*
X212049998Y-153650000I249998J0D01*
G01*
G37*
G04 #@! TD.AperFunction*
G04 #@! TO.P,R20,1*
G04 #@! TO.N,/HVDC_DIV*
G04 #@! TA.AperFunction,SMDPad,CuDef*
G36*
G01*
X212049998Y-151825000D02*
X212950002Y-151825000D01*
G75*
G02*
X213200000Y-152074998I0J-249998D01*
G01*
X213200000Y-152600002D01*
G75*
G02*
X212950002Y-152850000I-249998J0D01*
G01*
X212049998Y-152850000D01*
G75*
G02*
X211800000Y-152600002I0J249998D01*
G01*
X211800000Y-152074998D01*
G75*
G02*
X212049998Y-151825000I249998J0D01*
G01*
G37*
G04 #@! TD.AperFunction*
G04 #@! TD*
D16*
G04 #@! TO.P,U2,3*
G04 #@! TO.N,N/C*
X163750000Y-154000000D03*
G04 #@! TO.P,U2,2*
G04 #@! TO.N,GNDPWR*
X165750000Y-153050000D03*
G04 #@! TO.P,U2,1*
G04 #@! TO.N,+5P*
X165750000Y-154950000D03*
G04 #@! TD*
G04 #@! TO.P,D1,2*
G04 #@! TO.N,/LEDp*
G04 #@! TA.AperFunction,SMDPad,CuDef*
G36*
G01*
X157293750Y-128950000D02*
X158206250Y-128950000D01*
G75*
G02*
X158450000Y-129193750I0J-243750D01*
G01*
X158450000Y-129681250D01*
G75*
G02*
X158206250Y-129925000I-243750J0D01*
G01*
X157293750Y-129925000D01*
G75*
G02*
X157050000Y-129681250I0J243750D01*
G01*
X157050000Y-129193750D01*
G75*
G02*
X157293750Y-128950000I243750J0D01*
G01*
G37*
G04 #@! TD.AperFunction*
G04 #@! TO.P,D1,1*
G04 #@! TO.N,/LEDn*
G04 #@! TA.AperFunction,SMDPad,CuDef*
G36*
G01*
X157293750Y-127075000D02*
X158206250Y-127075000D01*
G75*
G02*
X158450000Y-127318750I0J-243750D01*
G01*
X158450000Y-127806250D01*
G75*
G02*
X158206250Y-128050000I-243750J0D01*
G01*
X157293750Y-128050000D01*
G75*
G02*
X157050000Y-127806250I0J243750D01*
G01*
X157050000Y-127318750D01*
G75*
G02*
X157293750Y-127075000I243750J0D01*
G01*
G37*
G04 #@! TD.AperFunction*
G04 #@! TD*
G04 #@! TO.P,D2,1*
G04 #@! TO.N,/ILIM_LED2*
G04 #@! TA.AperFunction,SMDPad,CuDef*
G36*
G01*
X151956250Y-137175000D02*
X151043750Y-137175000D01*
G75*
G02*
X150800000Y-136931250I0J243750D01*
G01*
X150800000Y-136443750D01*
G75*
G02*
X151043750Y-136200000I243750J0D01*
G01*
X151956250Y-136200000D01*
G75*
G02*
X152200000Y-136443750I0J-243750D01*
G01*
X152200000Y-136931250D01*
G75*
G02*
X151956250Y-137175000I-243750J0D01*
G01*
G37*
G04 #@! TD.AperFunction*
G04 #@! TO.P,D2,2*
G04 #@! TO.N,/ILIM_LED*
G04 #@! TA.AperFunction,SMDPad,CuDef*
G36*
G01*
X151956250Y-135300000D02*
X151043750Y-135300000D01*
G75*
G02*
X150800000Y-135056250I0J243750D01*
G01*
X150800000Y-134568750D01*
G75*
G02*
X151043750Y-134325000I243750J0D01*
G01*
X151956250Y-134325000D01*
G75*
G02*
X152200000Y-134568750I0J-243750D01*
G01*
X152200000Y-135056250D01*
G75*
G02*
X151956250Y-135300000I-243750J0D01*
G01*
G37*
G04 #@! TD.AperFunction*
G04 #@! TD*
D15*
G04 #@! TO.P,J12,1*
G04 #@! TO.N,/SWITCH*
X148000000Y-141500000D03*
D14*
G04 #@! TO.P,J12,2*
G04 #@! TO.N,GND*
X145460000Y-141500000D03*
G04 #@! TD*
D15*
G04 #@! TO.P,J5,1*
G04 #@! TO.N,/MISO_MIMA*
X137250000Y-135000000D03*
D14*
G04 #@! TO.P,J5,2*
G04 #@! TO.N,/5V_MIMA*
X139790000Y-135000000D03*
G04 #@! TO.P,J5,3*
G04 #@! TO.N,/SCK_MIMA*
X137250000Y-137540000D03*
G04 #@! TO.P,J5,4*
G04 #@! TO.N,/MOSI_MIMA*
X139790000Y-137540000D03*
G04 #@! TO.P,J5,5*
G04 #@! TO.N,/CS_MIMA*
X137250000Y-140080000D03*
G04 #@! TO.P,J5,6*
G04 #@! TO.N,GND*
X139790000Y-140080000D03*
G04 #@! TD*
G04 #@! TO.P,J10,1*
G04 #@! TO.N,/HVDC_POS_BATT*
G04 #@! TA.AperFunction,ComponentPad*
G36*
G01*
X201150000Y-132450000D02*
X201150000Y-135550000D01*
G75*
G02*
X200900000Y-135800000I-250000J0D01*
G01*
X199600000Y-135800000D01*
G75*
G02*
X199350000Y-135550000I0J250000D01*
G01*
X199350000Y-132450000D01*
G75*
G02*
X199600000Y-132200000I250000J0D01*
G01*
X200900000Y-132200000D01*
G75*
G02*
X201150000Y-132450000I0J-250000D01*
G01*
G37*
G04 #@! TD.AperFunction*
D17*
G04 #@! TO.P,J10,2*
G04 #@! TO.N,GNDPWR*
X196750000Y-134000000D03*
G04 #@! TO.P,J10,3*
X193250000Y-134000000D03*
G04 #@! TO.P,J10,4*
G04 #@! TO.N,/HVDC_POS_AUX*
X189750000Y-134000000D03*
G04 #@! TD*
G04 #@! TO.P,J11,1*
G04 #@! TO.N,/HEAT_NEG*
G04 #@! TA.AperFunction,ComponentPad*
G36*
G01*
X172100000Y-149050000D02*
X172100000Y-145950000D01*
G75*
G02*
X172350000Y-145700000I250000J0D01*
G01*
X173650000Y-145700000D01*
G75*
G02*
X173900000Y-145950000I0J-250000D01*
G01*
X173900000Y-149050000D01*
G75*
G02*
X173650000Y-149300000I-250000J0D01*
G01*
X172350000Y-149300000D01*
G75*
G02*
X172100000Y-149050000I0J250000D01*
G01*
G37*
G04 #@! TD.AperFunction*
G04 #@! TO.P,J11,2*
X176500000Y-147500000D03*
G04 #@! TO.P,J11,3*
G04 #@! TO.N,/HVDC_POS_AUX*
X180000000Y-147500000D03*
G04 #@! TO.P,J11,4*
X183500000Y-147500000D03*
G04 #@! TD*
G04 #@! TO.P,R12,2*
G04 #@! TO.N,/VLIM_JOIN*
G04 #@! TA.AperFunction,SMDPad,CuDef*
G36*
G01*
X151049998Y-146150000D02*
X151950002Y-146150000D01*
G75*
G02*
X152200000Y-146399998I0J-249998D01*
G01*
X152200000Y-146925002D01*
G75*
G02*
X151950002Y-147175000I-249998J0D01*
G01*
X151049998Y-147175000D01*
G75*
G02*
X150800000Y-146925002I0J249998D01*
G01*
X150800000Y-146399998D01*
G75*
G02*
X151049998Y-146150000I249998J0D01*
G01*
G37*
G04 #@! TD.AperFunction*
G04 #@! TO.P,R12,1*
G04 #@! TO.N,/VLIM_LEDn*
G04 #@! TA.AperFunction,SMDPad,CuDef*
G36*
G01*
X151049998Y-144325000D02*
X151950002Y-144325000D01*
G75*
G02*
X152200000Y-144574998I0J-249998D01*
G01*
X152200000Y-145100002D01*
G75*
G02*
X151950002Y-145350000I-249998J0D01*
G01*
X151049998Y-145350000D01*
G75*
G02*
X150800000Y-145100002I0J249998D01*
G01*
X150800000Y-144574998D01*
G75*
G02*
X151049998Y-144325000I249998J0D01*
G01*
G37*
G04 #@! TD.AperFunction*
G04 #@! TD*
G04 #@! TO.P,R14,1*
G04 #@! TO.N,/ILIM_LED2*
G04 #@! TA.AperFunction,SMDPad,CuDef*
G36*
G01*
X148450002Y-138425000D02*
X147549998Y-138425000D01*
G75*
G02*
X147300000Y-138175002I0J249998D01*
G01*
X147300000Y-137649998D01*
G75*
G02*
X147549998Y-137400000I249998J0D01*
G01*
X148450002Y-137400000D01*
G75*
G02*
X148700000Y-137649998I0J-249998D01*
G01*
X148700000Y-138175002D01*
G75*
G02*
X148450002Y-138425000I-249998J0D01*
G01*
G37*
G04 #@! TD.AperFunction*
G04 #@! TO.P,R14,2*
G04 #@! TO.N,/ILIM_DIV*
G04 #@! TA.AperFunction,SMDPad,CuDef*
G36*
G01*
X148450002Y-136600000D02*
X147549998Y-136600000D01*
G75*
G02*
X147300000Y-136350002I0J249998D01*
G01*
X147300000Y-135824998D01*
G75*
G02*
X147549998Y-135575000I249998J0D01*
G01*
X148450002Y-135575000D01*
G75*
G02*
X148700000Y-135824998I0J-249998D01*
G01*
X148700000Y-136350002D01*
G75*
G02*
X148450002Y-136600000I-249998J0D01*
G01*
G37*
G04 #@! TD.AperFunction*
G04 #@! TD*
D18*
G04 #@! TO.P,U3,1*
G04 #@! TO.N,+5V*
X154985000Y-133480000D03*
G04 #@! TO.P,U3,3*
G04 #@! TO.N,/ILIM_ISO*
X164515000Y-136020000D03*
G04 #@! TO.P,U3,2*
G04 #@! TO.N,/ILIM_LED*
X154985000Y-136020000D03*
G04 #@! TO.P,U3,4*
G04 #@! TO.N,+5P*
X164515000Y-133480000D03*
G04 #@! TD*
D15*
G04 #@! TO.P,J8,1*
G04 #@! TO.N,/HEATER_EN*
X146500000Y-132500000D03*
D14*
G04 #@! TO.P,J8,2*
G04 #@! TO.N,GND*
X146500000Y-129960000D03*
G04 #@! TD*
D15*
G04 #@! TO.P,J7,1*
G04 #@! TO.N,+5V*
X142250000Y-153250000D03*
D14*
G04 #@! TO.P,J7,2*
G04 #@! TO.N,/MOSI*
X139710000Y-153250000D03*
G04 #@! TO.P,J7,3*
G04 #@! TO.N,/SCK*
X137170000Y-153250000D03*
G04 #@! TO.P,J7,4*
G04 #@! TO.N,/MISO*
X134630000Y-153250000D03*
G04 #@! TO.P,J7,5*
G04 #@! TO.N,/LiCONTROL_CS*
X132090000Y-153250000D03*
G04 #@! TO.P,J7,6*
G04 #@! TO.N,/FLASH_CS*
X129550000Y-153250000D03*
G04 #@! TO.P,J7,7*
G04 #@! TO.N,GND*
X127010000Y-153250000D03*
G04 #@! TO.P,J7,8*
X124470000Y-153250000D03*
G04 #@! TD*
D15*
G04 #@! TO.P,J6,1*
G04 #@! TO.N,GND*
X98880000Y-145750000D03*
D14*
G04 #@! TO.P,J6,2*
G04 #@! TO.N,/CAN_INT*
X101420000Y-145750000D03*
G04 #@! TO.P,J6,3*
G04 #@! TO.N,/CAN_CS*
X103960000Y-145750000D03*
G04 #@! TO.P,J6,4*
G04 #@! TO.N,+5V*
X106500000Y-145750000D03*
G04 #@! TD*
D19*
G04 #@! TO.P,D3,1*
G04 #@! TO.N,/HVDC_POS_BATT*
X228570000Y-143220000D03*
D20*
G04 #@! TO.P,D3,2*
G04 #@! TO.N,/GRID_POS_FUSED*
X228570000Y-148300000D03*
G04 #@! TD*
G04 #@! TO.P,C9,1*
G04 #@! TO.N,/MISO*
G04 #@! TA.AperFunction,SMDPad,CuDef*
G36*
G01*
X115800000Y-136725000D02*
X115800000Y-135775000D01*
G75*
G02*
X116050000Y-135525000I250000J0D01*
G01*
X116550000Y-135525000D01*
G75*
G02*
X116800000Y-135775000I0J-250000D01*
G01*
X116800000Y-136725000D01*
G75*
G02*
X116550000Y-136975000I-250000J0D01*
G01*
X116050000Y-136975000D01*
G75*
G02*
X115800000Y-136725000I0J250000D01*
G01*
G37*
G04 #@! TD.AperFunction*
G04 #@! TO.P,C9,2*
G04 #@! TO.N,GND*
G04 #@! TA.AperFunction,SMDPad,CuDef*
G36*
G01*
X117700000Y-136725000D02*
X117700000Y-135775000D01*
G75*
G02*
X117950000Y-135525000I250000J0D01*
G01*
X118450000Y-135525000D01*
G75*
G02*
X118700000Y-135775000I0J-250000D01*
G01*
X118700000Y-136725000D01*
G75*
G02*
X118450000Y-136975000I-250000J0D01*
G01*
X117950000Y-136975000D01*
G75*
G02*
X117700000Y-136725000I0J250000D01*
G01*
G37*
G04 #@! TD.AperFunction*
G04 #@! TD*
G04 #@! TO.P,C10,2*
G04 #@! TO.N,GND*
G04 #@! TA.AperFunction,SMDPad,CuDef*
G36*
G01*
X107300000Y-139275000D02*
X107300000Y-140225000D01*
G75*
G02*
X107050000Y-140475000I-250000J0D01*
G01*
X106550000Y-140475000D01*
G75*
G02*
X106300000Y-140225000I0J250000D01*
G01*
X106300000Y-139275000D01*
G75*
G02*
X106550000Y-139025000I250000J0D01*
G01*
X107050000Y-139025000D01*
G75*
G02*
X107300000Y-139275000I0J-250000D01*
G01*
G37*
G04 #@! TD.AperFunction*
G04 #@! TO.P,C10,1*
G04 #@! TO.N,/SCK*
G04 #@! TA.AperFunction,SMDPad,CuDef*
G36*
G01*
X109200000Y-139275000D02*
X109200000Y-140225000D01*
G75*
G02*
X108950000Y-140475000I-250000J0D01*
G01*
X108450000Y-140475000D01*
G75*
G02*
X108200000Y-140225000I0J250000D01*
G01*
X108200000Y-139275000D01*
G75*
G02*
X108450000Y-139025000I250000J0D01*
G01*
X108950000Y-139025000D01*
G75*
G02*
X109200000Y-139275000I0J-250000D01*
G01*
G37*
G04 #@! TD.AperFunction*
G04 #@! TD*
G04 #@! TO.P,C11,1*
G04 #@! TO.N,/MOSI*
G04 #@! TA.AperFunction,SMDPad,CuDef*
G36*
G01*
X132725000Y-147950000D02*
X131775000Y-147950000D01*
G75*
G02*
X131525000Y-147700000I0J250000D01*
G01*
X131525000Y-147200000D01*
G75*
G02*
X131775000Y-146950000I250000J0D01*
G01*
X132725000Y-146950000D01*
G75*
G02*
X132975000Y-147200000I0J-250000D01*
G01*
X132975000Y-147700000D01*
G75*
G02*
X132725000Y-147950000I-250000J0D01*
G01*
G37*
G04 #@! TD.AperFunction*
G04 #@! TO.P,C11,2*
G04 #@! TO.N,GND*
G04 #@! TA.AperFunction,SMDPad,CuDef*
G36*
G01*
X132725000Y-146050000D02*
X131775000Y-146050000D01*
G75*
G02*
X131525000Y-145800000I0J250000D01*
G01*
X131525000Y-145300000D01*
G75*
G02*
X131775000Y-145050000I250000J0D01*
G01*
X132725000Y-145050000D01*
G75*
G02*
X132975000Y-145300000I0J-250000D01*
G01*
X132975000Y-145800000D01*
G75*
G02*
X132725000Y-146050000I-250000J0D01*
G01*
G37*
G04 #@! TD.AperFunction*
G04 #@! TD*
D15*
G04 #@! TO.P,J2,1*
G04 #@! TO.N,+5V*
X106500000Y-149000000D03*
D14*
G04 #@! TO.P,J2,2*
G04 #@! TO.N,/CAN_CS*
X103960000Y-149000000D03*
G04 #@! TO.P,J2,3*
G04 #@! TO.N,/CAN_INT*
X101420000Y-149000000D03*
G04 #@! TO.P,J2,4*
G04 #@! TO.N,GND*
X98880000Y-149000000D03*
G04 #@! TD*
D21*
G04 #@! TO.P,D4,1*
G04 #@! TO.N,+5P*
X169000000Y-154900000D03*
G04 #@! TO.P,D4,2*
G04 #@! TO.N,GNDPWR*
X169000000Y-151600000D03*
G04 #@! TD*
G04 #@! TO.P,C4,2*
G04 #@! TO.N,GND*
G04 #@! TA.AperFunction,SMDPad,CuDef*
G36*
G01*
X148275000Y-152200000D02*
X149225000Y-152200000D01*
G75*
G02*
X149475000Y-152450000I0J-250000D01*
G01*
X149475000Y-152950000D01*
G75*
G02*
X149225000Y-153200000I-250000J0D01*
G01*
X148275000Y-153200000D01*
G75*
G02*
X148025000Y-152950000I0J250000D01*
G01*
X148025000Y-152450000D01*
G75*
G02*
X148275000Y-152200000I250000J0D01*
G01*
G37*
G04 #@! TD.AperFunction*
G04 #@! TO.P,C4,1*
G04 #@! TO.N,/SW_DIV*
G04 #@! TA.AperFunction,SMDPad,CuDef*
G36*
G01*
X148275000Y-150300000D02*
X149225000Y-150300000D01*
G75*
G02*
X149475000Y-150550000I0J-250000D01*
G01*
X149475000Y-151050000D01*
G75*
G02*
X149225000Y-151300000I-250000J0D01*
G01*
X148275000Y-151300000D01*
G75*
G02*
X148025000Y-151050000I0J250000D01*
G01*
X148025000Y-150550000D01*
G75*
G02*
X148275000Y-150300000I250000J0D01*
G01*
G37*
G04 #@! TD.AperFunction*
G04 #@! TD*
G04 #@! TO.P,C8,1*
G04 #@! TO.N,/CHARGER_LIMIT_VOLTAGE*
G04 #@! TA.AperFunction,SMDPad,CuDef*
G36*
G01*
X166700000Y-147025000D02*
X166700000Y-147975000D01*
G75*
G02*
X166450000Y-148225000I-250000J0D01*
G01*
X165950000Y-148225000D01*
G75*
G02*
X165700000Y-147975000I0J250000D01*
G01*
X165700000Y-147025000D01*
G75*
G02*
X165950000Y-146775000I250000J0D01*
G01*
X166450000Y-146775000D01*
G75*
G02*
X166700000Y-147025000I0J-250000D01*
G01*
G37*
G04 #@! TD.AperFunction*
G04 #@! TO.P,C8,2*
G04 #@! TO.N,GNDPWR*
G04 #@! TA.AperFunction,SMDPad,CuDef*
G36*
G01*
X164800000Y-147025000D02*
X164800000Y-147975000D01*
G75*
G02*
X164550000Y-148225000I-250000J0D01*
G01*
X164050000Y-148225000D01*
G75*
G02*
X163800000Y-147975000I0J250000D01*
G01*
X163800000Y-147025000D01*
G75*
G02*
X164050000Y-146775000I250000J0D01*
G01*
X164550000Y-146775000D01*
G75*
G02*
X164800000Y-147025000I0J-250000D01*
G01*
G37*
G04 #@! TD.AperFunction*
G04 #@! TD*
G04 #@! TO.P,D5,1*
G04 #@! TO.N,/VLIM_LEDn*
G04 #@! TA.AperFunction,SMDPad,CuDef*
G36*
G01*
X151956250Y-142925000D02*
X151043750Y-142925000D01*
G75*
G02*
X150800000Y-142681250I0J243750D01*
G01*
X150800000Y-142193750D01*
G75*
G02*
X151043750Y-141950000I243750J0D01*
G01*
X151956250Y-141950000D01*
G75*
G02*
X152200000Y-142193750I0J-243750D01*
G01*
X152200000Y-142681250D01*
G75*
G02*
X151956250Y-142925000I-243750J0D01*
G01*
G37*
G04 #@! TD.AperFunction*
G04 #@! TO.P,D5,2*
G04 #@! TO.N,/VLIM_LEDp*
G04 #@! TA.AperFunction,SMDPad,CuDef*
G36*
G01*
X151956250Y-141050000D02*
X151043750Y-141050000D01*
G75*
G02*
X150800000Y-140806250I0J243750D01*
G01*
X150800000Y-140318750D01*
G75*
G02*
X151043750Y-140075000I243750J0D01*
G01*
X151956250Y-140075000D01*
G75*
G02*
X152200000Y-140318750I0J-243750D01*
G01*
X152200000Y-140806250D01*
G75*
G02*
X151956250Y-141050000I-243750J0D01*
G01*
G37*
G04 #@! TD.AperFunction*
G04 #@! TD*
D16*
G04 #@! TO.P,Q2,3*
G04 #@! TO.N,/VLIMd*
X172550000Y-140000000D03*
G04 #@! TO.P,Q2,2*
G04 #@! TO.N,GNDPWR*
X170550000Y-140950000D03*
G04 #@! TO.P,Q2,1*
G04 #@! TO.N,/VLIM_ISO*
X170550000Y-139050000D03*
G04 #@! TD*
G04 #@! TO.P,Q3,1*
G04 #@! TO.N,/ILIM_ISO*
X171750000Y-134050000D03*
G04 #@! TO.P,Q3,2*
G04 #@! TO.N,GNDPWR*
X171750000Y-135950000D03*
G04 #@! TO.P,Q3,3*
G04 #@! TO.N,/ILIM_DIV2*
X173750000Y-135000000D03*
G04 #@! TD*
G04 #@! TO.P,R1,2*
G04 #@! TO.N,/VLIM_JOIN*
G04 #@! TA.AperFunction,SMDPad,CuDef*
G36*
G01*
X149200001Y-147100000D02*
X148299999Y-147100000D01*
G75*
G02*
X148050000Y-146850001I0J249999D01*
G01*
X148050000Y-146324999D01*
G75*
G02*
X148299999Y-146075000I249999J0D01*
G01*
X149200001Y-146075000D01*
G75*
G02*
X149450000Y-146324999I0J-249999D01*
G01*
X149450000Y-146850001D01*
G75*
G02*
X149200001Y-147100000I-249999J0D01*
G01*
G37*
G04 #@! TD.AperFunction*
G04 #@! TO.P,R1,1*
G04 #@! TO.N,/SW_DIV*
G04 #@! TA.AperFunction,SMDPad,CuDef*
G36*
G01*
X149200001Y-148925000D02*
X148299999Y-148925000D01*
G75*
G02*
X148050000Y-148675001I0J249999D01*
G01*
X148050000Y-148149999D01*
G75*
G02*
X148299999Y-147900000I249999J0D01*
G01*
X149200001Y-147900000D01*
G75*
G02*
X149450000Y-148149999I0J-249999D01*
G01*
X149450000Y-148675001D01*
G75*
G02*
X149200001Y-148925000I-249999J0D01*
G01*
G37*
G04 #@! TD.AperFunction*
G04 #@! TD*
G04 #@! TO.P,R2,1*
G04 #@! TO.N,/VLIM_JOIN*
G04 #@! TA.AperFunction,SMDPad,CuDef*
G36*
G01*
X158049999Y-144825000D02*
X158950001Y-144825000D01*
G75*
G02*
X159200000Y-145074999I0J-249999D01*
G01*
X159200000Y-145600001D01*
G75*
G02*
X158950001Y-145850000I-249999J0D01*
G01*
X158049999Y-145850000D01*
G75*
G02*
X157800000Y-145600001I0J249999D01*
G01*
X157800000Y-145074999D01*
G75*
G02*
X158049999Y-144825000I249999J0D01*
G01*
G37*
G04 #@! TD.AperFunction*
G04 #@! TO.P,R2,2*
G04 #@! TO.N,/GRID_VLIM||SWITCH*
G04 #@! TA.AperFunction,SMDPad,CuDef*
G36*
G01*
X158049999Y-146650000D02*
X158950001Y-146650000D01*
G75*
G02*
X159200000Y-146899999I0J-249999D01*
G01*
X159200000Y-147425001D01*
G75*
G02*
X158950001Y-147675000I-249999J0D01*
G01*
X158049999Y-147675000D01*
G75*
G02*
X157800000Y-147425001I0J249999D01*
G01*
X157800000Y-146899999D01*
G75*
G02*
X158049999Y-146650000I249999J0D01*
G01*
G37*
G04 #@! TD.AperFunction*
G04 #@! TD*
G04 #@! TO.P,R3,2*
G04 #@! TO.N,/HVDC_DIV*
G04 #@! TA.AperFunction,SMDPad,CuDef*
G36*
G01*
X224799999Y-147400000D02*
X225700001Y-147400000D01*
G75*
G02*
X225950000Y-147649999I0J-249999D01*
G01*
X225950000Y-148175001D01*
G75*
G02*
X225700001Y-148425000I-249999J0D01*
G01*
X224799999Y-148425000D01*
G75*
G02*
X224550000Y-148175001I0J249999D01*
G01*
X224550000Y-147649999D01*
G75*
G02*
X224799999Y-147400000I249999J0D01*
G01*
G37*
G04 #@! TD.AperFunction*
G04 #@! TO.P,R3,1*
G04 #@! TO.N,/GRID_POS_FUSED*
G04 #@! TA.AperFunction,SMDPad,CuDef*
G36*
G01*
X224799999Y-145575000D02*
X225700001Y-145575000D01*
G75*
G02*
X225950000Y-145824999I0J-249999D01*
G01*
X225950000Y-146350001D01*
G75*
G02*
X225700001Y-146600000I-249999J0D01*
G01*
X224799999Y-146600000D01*
G75*
G02*
X224550000Y-146350001I0J249999D01*
G01*
X224550000Y-145824999D01*
G75*
G02*
X224799999Y-145575000I249999J0D01*
G01*
G37*
G04 #@! TD.AperFunction*
G04 #@! TD*
G04 #@! TO.P,R4,2*
G04 #@! TO.N,+5P*
G04 #@! TA.AperFunction,SMDPad,CuDef*
G36*
G01*
X222549999Y-153650000D02*
X223450001Y-153650000D01*
G75*
G02*
X223700000Y-153899999I0J-249999D01*
G01*
X223700000Y-154425001D01*
G75*
G02*
X223450001Y-154675000I-249999J0D01*
G01*
X222549999Y-154675000D01*
G75*
G02*
X222300000Y-154425001I0J249999D01*
G01*
X222300000Y-153899999D01*
G75*
G02*
X222549999Y-153650000I249999J0D01*
G01*
G37*
G04 #@! TD.AperFunction*
G04 #@! TO.P,R4,1*
G04 #@! TO.N,/HVDC_DIV*
G04 #@! TA.AperFunction,SMDPad,CuDef*
G36*
G01*
X222549999Y-151825000D02*
X223450001Y-151825000D01*
G75*
G02*
X223700000Y-152074999I0J-249999D01*
G01*
X223700000Y-152600001D01*
G75*
G02*
X223450001Y-152850000I-249999J0D01*
G01*
X222549999Y-152850000D01*
G75*
G02*
X222300000Y-152600001I0J249999D01*
G01*
X222300000Y-152074999D01*
G75*
G02*
X222549999Y-151825000I249999J0D01*
G01*
G37*
G04 #@! TD.AperFunction*
G04 #@! TD*
G04 #@! TO.P,R5,1*
G04 #@! TO.N,/GRID_POS_FUSED*
G04 #@! TA.AperFunction,SMDPad,CuDef*
G36*
G01*
X220299999Y-145575000D02*
X221200001Y-145575000D01*
G75*
G02*
X221450000Y-145824999I0J-249999D01*
G01*
X221450000Y-146350001D01*
G75*
G02*
X221200001Y-146600000I-249999J0D01*
G01*
X220299999Y-146600000D01*
G75*
G02*
X220050000Y-146350001I0J249999D01*
G01*
X220050000Y-145824999D01*
G75*
G02*
X220299999Y-145575000I249999J0D01*
G01*
G37*
G04 #@! TD.AperFunction*
G04 #@! TO.P,R5,2*
G04 #@! TO.N,/HVDC_DIV*
G04 #@! TA.AperFunction,SMDPad,CuDef*
G36*
G01*
X220299999Y-147400000D02*
X221200001Y-147400000D01*
G75*
G02*
X221450000Y-147649999I0J-249999D01*
G01*
X221450000Y-148175001D01*
G75*
G02*
X221200001Y-148425000I-249999J0D01*
G01*
X220299999Y-148425000D01*
G75*
G02*
X220050000Y-148175001I0J249999D01*
G01*
X220050000Y-147649999D01*
G75*
G02*
X220299999Y-147400000I249999J0D01*
G01*
G37*
G04 #@! TD.AperFunction*
G04 #@! TD*
G04 #@! TO.P,R6,1*
G04 #@! TO.N,/HVDC_DIV*
G04 #@! TA.AperFunction,SMDPad,CuDef*
G36*
G01*
X215549999Y-151825000D02*
X216450001Y-151825000D01*
G75*
G02*
X216700000Y-152074999I0J-249999D01*
G01*
X216700000Y-152600001D01*
G75*
G02*
X216450001Y-152850000I-249999J0D01*
G01*
X215549999Y-152850000D01*
G75*
G02*
X215300000Y-152600001I0J249999D01*
G01*
X215300000Y-152074999D01*
G75*
G02*
X215549999Y-151825000I249999J0D01*
G01*
G37*
G04 #@! TD.AperFunction*
G04 #@! TO.P,R6,2*
G04 #@! TO.N,+5P*
G04 #@! TA.AperFunction,SMDPad,CuDef*
G36*
G01*
X215549999Y-153650000D02*
X216450001Y-153650000D01*
G75*
G02*
X216700000Y-153899999I0J-249999D01*
G01*
X216700000Y-154425001D01*
G75*
G02*
X216450001Y-154675000I-249999J0D01*
G01*
X215549999Y-154675000D01*
G75*
G02*
X215300000Y-154425001I0J249999D01*
G01*
X215300000Y-153899999D01*
G75*
G02*
X215549999Y-153650000I249999J0D01*
G01*
G37*
G04 #@! TD.AperFunction*
G04 #@! TD*
G04 #@! TO.P,R7,1*
G04 #@! TO.N,/GRID_POS_FUSED*
G04 #@! TA.AperFunction,SMDPad,CuDef*
G36*
G01*
X215799999Y-145575000D02*
X216700001Y-145575000D01*
G75*
G02*
X216950000Y-145824999I0J-249999D01*
G01*
X216950000Y-146350001D01*
G75*
G02*
X216700001Y-146600000I-249999J0D01*
G01*
X215799999Y-146600000D01*
G75*
G02*
X215550000Y-146350001I0J249999D01*
G01*
X215550000Y-145824999D01*
G75*
G02*
X215799999Y-145575000I249999J0D01*
G01*
G37*
G04 #@! TD.AperFunction*
G04 #@! TO.P,R7,2*
G04 #@! TO.N,/HVDC_DIV*
G04 #@! TA.AperFunction,SMDPad,CuDef*
G36*
G01*
X215799999Y-147400000D02*
X216700001Y-147400000D01*
G75*
G02*
X216950000Y-147649999I0J-249999D01*
G01*
X216950000Y-148175001D01*
G75*
G02*
X216700001Y-148425000I-249999J0D01*
G01*
X215799999Y-148425000D01*
G75*
G02*
X215550000Y-148175001I0J249999D01*
G01*
X215550000Y-147649999D01*
G75*
G02*
X215799999Y-147400000I249999J0D01*
G01*
G37*
G04 #@! TD.AperFunction*
G04 #@! TD*
G04 #@! TO.P,R18,2*
G04 #@! TO.N,+5P*
G04 #@! TA.AperFunction,SMDPad,CuDef*
G36*
G01*
X219049999Y-153650000D02*
X219950001Y-153650000D01*
G75*
G02*
X220200000Y-153899999I0J-249999D01*
G01*
X220200000Y-154425001D01*
G75*
G02*
X219950001Y-154675000I-249999J0D01*
G01*
X219049999Y-154675000D01*
G75*
G02*
X218800000Y-154425001I0J249999D01*
G01*
X218800000Y-153899999D01*
G75*
G02*
X219049999Y-153650000I249999J0D01*
G01*
G37*
G04 #@! TD.AperFunction*
G04 #@! TO.P,R18,1*
G04 #@! TO.N,/HVDC_DIV*
G04 #@! TA.AperFunction,SMDPad,CuDef*
G36*
G01*
X219049999Y-151825000D02*
X219950001Y-151825000D01*
G75*
G02*
X220200000Y-152074999I0J-249999D01*
G01*
X220200000Y-152600001D01*
G75*
G02*
X219950001Y-152850000I-249999J0D01*
G01*
X219049999Y-152850000D01*
G75*
G02*
X218800000Y-152600001I0J249999D01*
G01*
X218800000Y-152074999D01*
G75*
G02*
X219049999Y-151825000I249999J0D01*
G01*
G37*
G04 #@! TD.AperFunction*
G04 #@! TD*
G04 #@! TO.P,R21,1*
G04 #@! TO.N,/SWITCH*
G04 #@! TA.AperFunction,SMDPad,CuDef*
G36*
G01*
X143325000Y-147700001D02*
X143325000Y-146799999D01*
G75*
G02*
X143574999Y-146550000I249999J0D01*
G01*
X144100001Y-146550000D01*
G75*
G02*
X144350000Y-146799999I0J-249999D01*
G01*
X144350000Y-147700001D01*
G75*
G02*
X144100001Y-147950000I-249999J0D01*
G01*
X143574999Y-147950000D01*
G75*
G02*
X143325000Y-147700001I0J249999D01*
G01*
G37*
G04 #@! TD.AperFunction*
G04 #@! TO.P,R21,2*
G04 #@! TO.N,/SW_DIV*
G04 #@! TA.AperFunction,SMDPad,CuDef*
G36*
G01*
X145150000Y-147700001D02*
X145150000Y-146799999D01*
G75*
G02*
X145399999Y-146550000I249999J0D01*
G01*
X145925001Y-146550000D01*
G75*
G02*
X146175000Y-146799999I0J-249999D01*
G01*
X146175000Y-147700001D01*
G75*
G02*
X145925001Y-147950000I-249999J0D01*
G01*
X145399999Y-147950000D01*
G75*
G02*
X145150000Y-147700001I0J249999D01*
G01*
G37*
G04 #@! TD.AperFunction*
G04 #@! TD*
G04 #@! TO.P,R22,2*
G04 #@! TO.N,/ILIM_DIV2*
G04 #@! TA.AperFunction,SMDPad,CuDef*
G36*
G01*
X176850000Y-128699999D02*
X176850000Y-129600001D01*
G75*
G02*
X176600001Y-129850000I-249999J0D01*
G01*
X176074999Y-129850000D01*
G75*
G02*
X175825000Y-129600001I0J249999D01*
G01*
X175825000Y-128699999D01*
G75*
G02*
X176074999Y-128450000I249999J0D01*
G01*
X176600001Y-128450000D01*
G75*
G02*
X176850000Y-128699999I0J-249999D01*
G01*
G37*
G04 #@! TD.AperFunction*
G04 #@! TO.P,R22,1*
G04 #@! TO.N,/ILIM_DIV1*
G04 #@! TA.AperFunction,SMDPad,CuDef*
G36*
G01*
X178675000Y-128699999D02*
X178675000Y-129600001D01*
G75*
G02*
X178425001Y-129850000I-249999J0D01*
G01*
X177899999Y-129850000D01*
G75*
G02*
X177650000Y-129600001I0J249999D01*
G01*
X177650000Y-128699999D01*
G75*
G02*
X177899999Y-128450000I249999J0D01*
G01*
X178425001Y-128450000D01*
G75*
G02*
X178675000Y-128699999I0J-249999D01*
G01*
G37*
G04 #@! TD.AperFunction*
G04 #@! TD*
G04 #@! TO.P,R23,2*
G04 #@! TO.N,/CHARGER_LIMIT_VOLTAGE*
G04 #@! TA.AperFunction,SMDPad,CuDef*
G36*
G01*
X169700001Y-148100000D02*
X168799999Y-148100000D01*
G75*
G02*
X168550000Y-147850001I0J249999D01*
G01*
X168550000Y-147324999D01*
G75*
G02*
X168799999Y-147075000I249999J0D01*
G01*
X169700001Y-147075000D01*
G75*
G02*
X169950000Y-147324999I0J-249999D01*
G01*
X169950000Y-147850001D01*
G75*
G02*
X169700001Y-148100000I-249999J0D01*
G01*
G37*
G04 #@! TD.AperFunction*
G04 #@! TO.P,R23,1*
G04 #@! TO.N,+5P*
G04 #@! TA.AperFunction,SMDPad,CuDef*
G36*
G01*
X169700001Y-149925000D02*
X168799999Y-149925000D01*
G75*
G02*
X168550000Y-149675001I0J249999D01*
G01*
X168550000Y-149149999D01*
G75*
G02*
X168799999Y-148900000I249999J0D01*
G01*
X169700001Y-148900000D01*
G75*
G02*
X169950000Y-149149999I0J-249999D01*
G01*
X169950000Y-149675001D01*
G75*
G02*
X169700001Y-149925000I-249999J0D01*
G01*
G37*
G04 #@! TD.AperFunction*
G04 #@! TD*
G04 #@! TO.P,R24,2*
G04 #@! TO.N,/VLIMd*
G04 #@! TA.AperFunction,SMDPad,CuDef*
G36*
G01*
X175100000Y-140299999D02*
X175100000Y-141200001D01*
G75*
G02*
X174850001Y-141450000I-249999J0D01*
G01*
X174324999Y-141450000D01*
G75*
G02*
X174075000Y-141200001I0J249999D01*
G01*
X174075000Y-140299999D01*
G75*
G02*
X174324999Y-140050000I249999J0D01*
G01*
X174850001Y-140050000D01*
G75*
G02*
X175100000Y-140299999I0J-249999D01*
G01*
G37*
G04 #@! TD.AperFunction*
G04 #@! TO.P,R24,1*
G04 #@! TO.N,/CHARGER_LIMIT_VOLTAGE*
G04 #@! TA.AperFunction,SMDPad,CuDef*
G36*
G01*
X176925000Y-140299999D02*
X176925000Y-141200001D01*
G75*
G02*
X176675001Y-141450000I-249999J0D01*
G01*
X176149999Y-141450000D01*
G75*
G02*
X175900000Y-141200001I0J249999D01*
G01*
X175900000Y-140299999D01*
G75*
G02*
X176149999Y-140050000I249999J0D01*
G01*
X176675001Y-140050000D01*
G75*
G02*
X176925000Y-140299999I0J-249999D01*
G01*
G37*
G04 #@! TD.AperFunction*
G04 #@! TD*
G04 #@! TO.P,R25,1*
G04 #@! TO.N,+5P*
G04 #@! TA.AperFunction,SMDPad,CuDef*
G36*
G01*
X166899999Y-138575000D02*
X167800001Y-138575000D01*
G75*
G02*
X168050000Y-138824999I0J-249999D01*
G01*
X168050000Y-139350001D01*
G75*
G02*
X167800001Y-139600000I-249999J0D01*
G01*
X166899999Y-139600000D01*
G75*
G02*
X166650000Y-139350001I0J249999D01*
G01*
X166650000Y-138824999D01*
G75*
G02*
X166899999Y-138575000I249999J0D01*
G01*
G37*
G04 #@! TD.AperFunction*
G04 #@! TO.P,R25,2*
G04 #@! TO.N,/VLIM_ISO*
G04 #@! TA.AperFunction,SMDPad,CuDef*
G36*
G01*
X166899999Y-140400000D02*
X167800001Y-140400000D01*
G75*
G02*
X168050000Y-140649999I0J-249999D01*
G01*
X168050000Y-141175001D01*
G75*
G02*
X167800001Y-141425000I-249999J0D01*
G01*
X166899999Y-141425000D01*
G75*
G02*
X166650000Y-141175001I0J249999D01*
G01*
X166650000Y-140649999D01*
G75*
G02*
X166899999Y-140400000I249999J0D01*
G01*
G37*
G04 #@! TD.AperFunction*
G04 #@! TD*
G04 #@! TO.P,R26,1*
G04 #@! TO.N,/CHARGER_LIMIT_VOLTAGE*
G04 #@! TA.AperFunction,SMDPad,CuDef*
G36*
G01*
X169700001Y-145675000D02*
X168799999Y-145675000D01*
G75*
G02*
X168550000Y-145425001I0J249999D01*
G01*
X168550000Y-144899999D01*
G75*
G02*
X168799999Y-144650000I249999J0D01*
G01*
X169700001Y-144650000D01*
G75*
G02*
X169950000Y-144899999I0J-249999D01*
G01*
X169950000Y-145425001D01*
G75*
G02*
X169700001Y-145675000I-249999J0D01*
G01*
G37*
G04 #@! TD.AperFunction*
G04 #@! TO.P,R26,2*
G04 #@! TO.N,/VLIM_DIV*
G04 #@! TA.AperFunction,SMDPad,CuDef*
G36*
G01*
X169700001Y-143850000D02*
X168799999Y-143850000D01*
G75*
G02*
X168550000Y-143600001I0J249999D01*
G01*
X168550000Y-143074999D01*
G75*
G02*
X168799999Y-142825000I249999J0D01*
G01*
X169700001Y-142825000D01*
G75*
G02*
X169950000Y-143074999I0J-249999D01*
G01*
X169950000Y-143600001D01*
G75*
G02*
X169700001Y-143850000I-249999J0D01*
G01*
G37*
G04 #@! TD.AperFunction*
G04 #@! TD*
G04 #@! TO.P,R27,2*
G04 #@! TO.N,GNDPWR*
G04 #@! TA.AperFunction,SMDPad,CuDef*
G36*
G01*
X164850000Y-144299999D02*
X164850000Y-145200001D01*
G75*
G02*
X164600001Y-145450000I-249999J0D01*
G01*
X164074999Y-145450000D01*
G75*
G02*
X163825000Y-145200001I0J249999D01*
G01*
X163825000Y-144299999D01*
G75*
G02*
X164074999Y-144050000I249999J0D01*
G01*
X164600001Y-144050000D01*
G75*
G02*
X164850000Y-144299999I0J-249999D01*
G01*
G37*
G04 #@! TD.AperFunction*
G04 #@! TO.P,R27,1*
G04 #@! TO.N,/VLIM_DIV*
G04 #@! TA.AperFunction,SMDPad,CuDef*
G36*
G01*
X166675000Y-144299999D02*
X166675000Y-145200001D01*
G75*
G02*
X166425001Y-145450000I-249999J0D01*
G01*
X165899999Y-145450000D01*
G75*
G02*
X165650000Y-145200001I0J249999D01*
G01*
X165650000Y-144299999D01*
G75*
G02*
X165899999Y-144050000I249999J0D01*
G01*
X166425001Y-144050000D01*
G75*
G02*
X166675000Y-144299999I0J-249999D01*
G01*
G37*
G04 #@! TD.AperFunction*
G04 #@! TD*
G04 #@! TO.P,R28,2*
G04 #@! TO.N,GNDPWR*
G04 #@! TA.AperFunction,SMDPad,CuDef*
G36*
G01*
X167950000Y-132499999D02*
X167950000Y-133400001D01*
G75*
G02*
X167700001Y-133650000I-249999J0D01*
G01*
X167174999Y-133650000D01*
G75*
G02*
X166925000Y-133400001I0J249999D01*
G01*
X166925000Y-132499999D01*
G75*
G02*
X167174999Y-132250000I249999J0D01*
G01*
X167700001Y-132250000D01*
G75*
G02*
X167950000Y-132499999I0J-249999D01*
G01*
G37*
G04 #@! TD.AperFunction*
G04 #@! TO.P,R28,1*
G04 #@! TO.N,/ILIM_ISO*
G04 #@! TA.AperFunction,SMDPad,CuDef*
G36*
G01*
X169775000Y-132499999D02*
X169775000Y-133400001D01*
G75*
G02*
X169525001Y-133650000I-249999J0D01*
G01*
X168999999Y-133650000D01*
G75*
G02*
X168750000Y-133400001I0J249999D01*
G01*
X168750000Y-132499999D01*
G75*
G02*
X168999999Y-132250000I249999J0D01*
G01*
X169525001Y-132250000D01*
G75*
G02*
X169775000Y-132499999I0J-249999D01*
G01*
G37*
G04 #@! TD.AperFunction*
G04 #@! TD*
G04 #@! TO.P,R29,1*
G04 #@! TO.N,+5P*
G04 #@! TA.AperFunction,SMDPad,CuDef*
G36*
G01*
X166825000Y-136950001D02*
X166825000Y-136049999D01*
G75*
G02*
X167074999Y-135800000I249999J0D01*
G01*
X167600001Y-135800000D01*
G75*
G02*
X167850000Y-136049999I0J-249999D01*
G01*
X167850000Y-136950001D01*
G75*
G02*
X167600001Y-137200000I-249999J0D01*
G01*
X167074999Y-137200000D01*
G75*
G02*
X166825000Y-136950001I0J249999D01*
G01*
G37*
G04 #@! TD.AperFunction*
G04 #@! TO.P,R29,2*
G04 #@! TO.N,/CHARGER_LIMIT_CURRENT*
G04 #@! TA.AperFunction,SMDPad,CuDef*
G36*
G01*
X168650000Y-136950001D02*
X168650000Y-136049999D01*
G75*
G02*
X168899999Y-135800000I249999J0D01*
G01*
X169425001Y-135800000D01*
G75*
G02*
X169675000Y-136049999I0J-249999D01*
G01*
X169675000Y-136950001D01*
G75*
G02*
X169425001Y-137200000I-249999J0D01*
G01*
X168899999Y-137200000D01*
G75*
G02*
X168650000Y-136950001I0J249999D01*
G01*
G37*
G04 #@! TD.AperFunction*
G04 #@! TD*
G04 #@! TO.P,R30,2*
G04 #@! TO.N,/ILIM_DIV1*
G04 #@! TA.AperFunction,SMDPad,CuDef*
G36*
G01*
X177650000Y-132200001D02*
X177650000Y-131299999D01*
G75*
G02*
X177899999Y-131050000I249999J0D01*
G01*
X178425001Y-131050000D01*
G75*
G02*
X178675000Y-131299999I0J-249999D01*
G01*
X178675000Y-132200001D01*
G75*
G02*
X178425001Y-132450000I-249999J0D01*
G01*
X177899999Y-132450000D01*
G75*
G02*
X177650000Y-132200001I0J249999D01*
G01*
G37*
G04 #@! TD.AperFunction*
G04 #@! TO.P,R30,1*
G04 #@! TO.N,/CHARGER_LIMIT_CURRENT*
G04 #@! TA.AperFunction,SMDPad,CuDef*
G36*
G01*
X175825000Y-132200001D02*
X175825000Y-131299999D01*
G75*
G02*
X176074999Y-131050000I249999J0D01*
G01*
X176600001Y-131050000D01*
G75*
G02*
X176850000Y-131299999I0J-249999D01*
G01*
X176850000Y-132200001D01*
G75*
G02*
X176600001Y-132450000I-249999J0D01*
G01*
X176074999Y-132450000D01*
G75*
G02*
X175825000Y-132200001I0J249999D01*
G01*
G37*
G04 #@! TD.AperFunction*
G04 #@! TD*
G04 #@! TO.P,U1,1*
G04 #@! TO.N,/LEDn*
G04 #@! TA.AperFunction,SMDPad,CuDef*
G36*
G01*
X160275000Y-127617500D02*
X160275000Y-127342500D01*
G75*
G02*
X160412500Y-127205000I137500J0D01*
G01*
X161587500Y-127205000D01*
G75*
G02*
X161725000Y-127342500I0J-137500D01*
G01*
X161725000Y-127617500D01*
G75*
G02*
X161587500Y-127755000I-137500J0D01*
G01*
X160412500Y-127755000D01*
G75*
G02*
X160275000Y-127617500I0J137500D01*
G01*
G37*
G04 #@! TD.AperFunction*
G04 #@! TO.P,U1,2*
G04 #@! TO.N,GND*
G04 #@! TA.AperFunction,SMDPad,CuDef*
G36*
G01*
X160275000Y-130157500D02*
X160275000Y-129882500D01*
G75*
G02*
X160412500Y-129745000I137500J0D01*
G01*
X161587500Y-129745000D01*
G75*
G02*
X161725000Y-129882500I0J-137500D01*
G01*
X161725000Y-130157500D01*
G75*
G02*
X161587500Y-130295000I-137500J0D01*
G01*
X160412500Y-130295000D01*
G75*
G02*
X160275000Y-130157500I0J137500D01*
G01*
G37*
G04 #@! TD.AperFunction*
G04 #@! TO.P,U1,3*
G04 #@! TO.N,GNDPWR*
G04 #@! TA.AperFunction,SMDPad,CuDef*
G36*
G01*
X165775000Y-130157500D02*
X165775000Y-129882500D01*
G75*
G02*
X165912500Y-129745000I137500J0D01*
G01*
X167087500Y-129745000D01*
G75*
G02*
X167225000Y-129882500I0J-137500D01*
G01*
X167225000Y-130157500D01*
G75*
G02*
X167087500Y-130295000I-137500J0D01*
G01*
X165912500Y-130295000D01*
G75*
G02*
X165775000Y-130157500I0J137500D01*
G01*
G37*
G04 #@! TD.AperFunction*
G04 #@! TO.P,U1,4*
G04 #@! TO.N,/Q1_GATE*
G04 #@! TA.AperFunction,SMDPad,CuDef*
G36*
G01*
X165775000Y-127617500D02*
X165775000Y-127342500D01*
G75*
G02*
X165912500Y-127205000I137500J0D01*
G01*
X167087500Y-127205000D01*
G75*
G02*
X167225000Y-127342500I0J-137500D01*
G01*
X167225000Y-127617500D01*
G75*
G02*
X167087500Y-127755000I-137500J0D01*
G01*
X165912500Y-127755000D01*
G75*
G02*
X165775000Y-127617500I0J137500D01*
G01*
G37*
G04 #@! TD.AperFunction*
G04 #@! TD*
D18*
G04 #@! TO.P,U4,1*
G04 #@! TO.N,+5V*
X154985000Y-139730000D03*
G04 #@! TO.P,U4,3*
G04 #@! TO.N,GNDPWR*
X164515000Y-142270000D03*
G04 #@! TO.P,U4,2*
G04 #@! TO.N,/VLIM_LEDp*
X154985000Y-142270000D03*
G04 #@! TO.P,U4,4*
G04 #@! TO.N,/VLIM_ISO*
X164515000Y-139730000D03*
G04 #@! TD*
G04 #@! TO.P,J13,1*
G04 #@! TO.N,/CHARGER_LIMIT_CURRENT*
G04 #@! TA.AperFunction,ComponentPad*
G36*
G01*
X186100000Y-149050000D02*
X186100000Y-145950000D01*
G75*
G02*
X186350000Y-145700000I250000J0D01*
G01*
X187650000Y-145700000D01*
G75*
G02*
X187900000Y-145950000I0J-250000D01*
G01*
X187900000Y-149050000D01*
G75*
G02*
X187650000Y-149300000I-250000J0D01*
G01*
X186350000Y-149300000D01*
G75*
G02*
X186100000Y-149050000I0J250000D01*
G01*
G37*
G04 #@! TD.AperFunction*
D17*
G04 #@! TO.P,J13,2*
G04 #@! TO.N,/CHARGER_LIMIT_VOLTAGE*
X190500000Y-147500000D03*
G04 #@! TO.P,J13,3*
G04 #@! TO.N,GNDPWR*
X194000000Y-147500000D03*
G04 #@! TO.P,J13,4*
X197500000Y-147500000D03*
G04 #@! TO.P,J13,5*
G04 #@! TO.N,/GRID_POS*
X201000000Y-147500000D03*
G04 #@! TD*
G04 #@! TO.P,C5,1*
G04 #@! TO.N,/CHARGER_LIMIT_CURRENT*
G04 #@! TA.AperFunction,SMDPad,CuDef*
G36*
G01*
X176149999Y-134450000D02*
X178350001Y-134450000D01*
G75*
G02*
X178600000Y-134699999I0J-249999D01*
G01*
X178600000Y-135350001D01*
G75*
G02*
X178350001Y-135600000I-249999J0D01*
G01*
X176149999Y-135600000D01*
G75*
G02*
X175900000Y-135350001I0J249999D01*
G01*
X175900000Y-134699999D01*
G75*
G02*
X176149999Y-134450000I249999J0D01*
G01*
G37*
G04 #@! TD.AperFunction*
G04 #@! TO.P,C5,2*
G04 #@! TO.N,GNDPWR*
G04 #@! TA.AperFunction,SMDPad,CuDef*
G36*
G01*
X176149999Y-137400000D02*
X178350001Y-137400000D01*
G75*
G02*
X178600000Y-137649999I0J-249999D01*
G01*
X178600000Y-138300001D01*
G75*
G02*
X178350001Y-138550000I-249999J0D01*
G01*
X176149999Y-138550000D01*
G75*
G02*
X175900000Y-138300001I0J249999D01*
G01*
X175900000Y-137649999D01*
G75*
G02*
X176149999Y-137400000I249999J0D01*
G01*
G37*
G04 #@! TD.AperFunction*
G04 #@! TD*
G04 #@! TO.P,C6,1*
G04 #@! TO.N,+5V*
G04 #@! TA.AperFunction,SMDPad,CuDef*
G36*
G01*
X115225000Y-142200000D02*
X114275000Y-142200000D01*
G75*
G02*
X114025000Y-141950000I0J250000D01*
G01*
X114025000Y-141450000D01*
G75*
G02*
X114275000Y-141200000I250000J0D01*
G01*
X115225000Y-141200000D01*
G75*
G02*
X115475000Y-141450000I0J-250000D01*
G01*
X115475000Y-141950000D01*
G75*
G02*
X115225000Y-142200000I-250000J0D01*
G01*
G37*
G04 #@! TD.AperFunction*
G04 #@! TO.P,C6,2*
G04 #@! TO.N,GND*
G04 #@! TA.AperFunction,SMDPad,CuDef*
G36*
G01*
X115225000Y-140300000D02*
X114275000Y-140300000D01*
G75*
G02*
X114025000Y-140050000I0J250000D01*
G01*
X114025000Y-139550000D01*
G75*
G02*
X114275000Y-139300000I250000J0D01*
G01*
X115225000Y-139300000D01*
G75*
G02*
X115475000Y-139550000I0J-250000D01*
G01*
X115475000Y-140050000D01*
G75*
G02*
X115225000Y-140300000I-250000J0D01*
G01*
G37*
G04 #@! TD.AperFunction*
G04 #@! TD*
G04 #@! TO.P,R31,2*
G04 #@! TO.N,/CS_MIMA*
G04 #@! TA.AperFunction,SMDPad,CuDef*
G36*
G01*
X132150000Y-142700001D02*
X132150000Y-141799999D01*
G75*
G02*
X132399999Y-141550000I249999J0D01*
G01*
X132925001Y-141550000D01*
G75*
G02*
X133175000Y-141799999I0J-249999D01*
G01*
X133175000Y-142700001D01*
G75*
G02*
X132925001Y-142950000I-249999J0D01*
G01*
X132399999Y-142950000D01*
G75*
G02*
X132150000Y-142700001I0J249999D01*
G01*
G37*
G04 #@! TD.AperFunction*
G04 #@! TO.P,R31,1*
G04 #@! TO.N,/5V_MIMA*
G04 #@! TA.AperFunction,SMDPad,CuDef*
G36*
G01*
X130325000Y-142700001D02*
X130325000Y-141799999D01*
G75*
G02*
X130574999Y-141550000I249999J0D01*
G01*
X131100001Y-141550000D01*
G75*
G02*
X131350000Y-141799999I0J-249999D01*
G01*
X131350000Y-142700001D01*
G75*
G02*
X131100001Y-142950000I-249999J0D01*
G01*
X130574999Y-142950000D01*
G75*
G02*
X130325000Y-142700001I0J249999D01*
G01*
G37*
G04 #@! TD.AperFunction*
G04 #@! TD*
G04 #@! TO.P,R32,1*
G04 #@! TO.N,/5V_MIMA*
G04 #@! TA.AperFunction,SMDPad,CuDef*
G36*
G01*
X132950001Y-138675000D02*
X132049999Y-138675000D01*
G75*
G02*
X131800000Y-138425001I0J249999D01*
G01*
X131800000Y-137899999D01*
G75*
G02*
X132049999Y-137650000I249999J0D01*
G01*
X132950001Y-137650000D01*
G75*
G02*
X133200000Y-137899999I0J-249999D01*
G01*
X133200000Y-138425001D01*
G75*
G02*
X132950001Y-138675000I-249999J0D01*
G01*
G37*
G04 #@! TD.AperFunction*
G04 #@! TO.P,R32,2*
G04 #@! TO.N,/SCK_MIMA*
G04 #@! TA.AperFunction,SMDPad,CuDef*
G36*
G01*
X132950001Y-136850000D02*
X132049999Y-136850000D01*
G75*
G02*
X131800000Y-136600001I0J249999D01*
G01*
X131800000Y-136074999D01*
G75*
G02*
X132049999Y-135825000I249999J0D01*
G01*
X132950001Y-135825000D01*
G75*
G02*
X133200000Y-136074999I0J-249999D01*
G01*
X133200000Y-136600001D01*
G75*
G02*
X132950001Y-136850000I-249999J0D01*
G01*
G37*
G04 #@! TD.AperFunction*
G04 #@! TD*
G04 #@! TO.P,R33,2*
G04 #@! TO.N,/MISO_MIMA*
G04 #@! TA.AperFunction,SMDPad,CuDef*
G36*
G01*
X128437500Y-136049999D02*
X128437500Y-136950001D01*
G75*
G02*
X128187501Y-137200000I-249999J0D01*
G01*
X127662499Y-137200000D01*
G75*
G02*
X127412500Y-136950001I0J249999D01*
G01*
X127412500Y-136049999D01*
G75*
G02*
X127662499Y-135800000I249999J0D01*
G01*
X128187501Y-135800000D01*
G75*
G02*
X128437500Y-136049999I0J-249999D01*
G01*
G37*
G04 #@! TD.AperFunction*
G04 #@! TO.P,R33,1*
G04 #@! TO.N,/5V_MIMA*
G04 #@! TA.AperFunction,SMDPad,CuDef*
G36*
G01*
X130262500Y-136049999D02*
X130262500Y-136950001D01*
G75*
G02*
X130012501Y-137200000I-249999J0D01*
G01*
X129487499Y-137200000D01*
G75*
G02*
X129237500Y-136950001I0J249999D01*
G01*
X129237500Y-136049999D01*
G75*
G02*
X129487499Y-135800000I249999J0D01*
G01*
X130012501Y-135800000D01*
G75*
G02*
X130262500Y-136049999I0J-249999D01*
G01*
G37*
G04 #@! TD.AperFunction*
G04 #@! TD*
G04 #@! TO.P,R34,1*
G04 #@! TO.N,/5V_MIMA*
G04 #@! TA.AperFunction,SMDPad,CuDef*
G36*
G01*
X127799999Y-141825000D02*
X128700001Y-141825000D01*
G75*
G02*
X128950000Y-142074999I0J-249999D01*
G01*
X128950000Y-142600001D01*
G75*
G02*
X128700001Y-142850000I-249999J0D01*
G01*
X127799999Y-142850000D01*
G75*
G02*
X127550000Y-142600001I0J249999D01*
G01*
X127550000Y-142074999D01*
G75*
G02*
X127799999Y-141825000I249999J0D01*
G01*
G37*
G04 #@! TD.AperFunction*
G04 #@! TO.P,R34,2*
G04 #@! TO.N,/MOSI_MIMA*
G04 #@! TA.AperFunction,SMDPad,CuDef*
G36*
G01*
X127799999Y-143650000D02*
X128700001Y-143650000D01*
G75*
G02*
X128950000Y-143899999I0J-249999D01*
G01*
X128950000Y-144425001D01*
G75*
G02*
X128700001Y-144675000I-249999J0D01*
G01*
X127799999Y-144675000D01*
G75*
G02*
X127550000Y-144425001I0J249999D01*
G01*
X127550000Y-143899999D01*
G75*
G02*
X127799999Y-143650000I249999J0D01*
G01*
G37*
G04 #@! TD.AperFunction*
G04 #@! TD*
G04 #@! TO.P,R35,1*
G04 #@! TO.N,/MISO_ILIM*
G04 #@! TA.AperFunction,SMDPad,CuDef*
G36*
G01*
X125175000Y-135799999D02*
X125175000Y-136700001D01*
G75*
G02*
X124925001Y-136950000I-249999J0D01*
G01*
X124399999Y-136950000D01*
G75*
G02*
X124150000Y-136700001I0J249999D01*
G01*
X124150000Y-135799999D01*
G75*
G02*
X124399999Y-135550000I249999J0D01*
G01*
X124925001Y-135550000D01*
G75*
G02*
X125175000Y-135799999I0J-249999D01*
G01*
G37*
G04 #@! TD.AperFunction*
G04 #@! TO.P,R35,2*
G04 #@! TO.N,/MISO*
G04 #@! TA.AperFunction,SMDPad,CuDef*
G36*
G01*
X123350000Y-135799999D02*
X123350000Y-136700001D01*
G75*
G02*
X123100001Y-136950000I-249999J0D01*
G01*
X122574999Y-136950000D01*
G75*
G02*
X122325000Y-136700001I0J249999D01*
G01*
X122325000Y-135799999D01*
G75*
G02*
X122574999Y-135550000I249999J0D01*
G01*
X123100001Y-135550000D01*
G75*
G02*
X123350000Y-135799999I0J-249999D01*
G01*
G37*
G04 #@! TD.AperFunction*
G04 #@! TD*
G04 #@! TO.P,U5,1*
G04 #@! TO.N,/LiCONTROL_CS*
G04 #@! TA.AperFunction,SMDPad,CuDef*
G36*
G01*
X117340000Y-145200000D02*
X117040000Y-145200000D01*
G75*
G02*
X116890000Y-145050000I0J150000D01*
G01*
X116890000Y-143400000D01*
G75*
G02*
X117040000Y-143250000I150000J0D01*
G01*
X117340000Y-143250000D01*
G75*
G02*
X117490000Y-143400000I0J-150000D01*
G01*
X117490000Y-145050000D01*
G75*
G02*
X117340000Y-145200000I-150000J0D01*
G01*
G37*
G04 #@! TD.AperFunction*
G04 #@! TO.P,U5,2*
G04 #@! TA.AperFunction,SMDPad,CuDef*
G36*
G01*
X118610000Y-145200000D02*
X118310000Y-145200000D01*
G75*
G02*
X118160000Y-145050000I0J150000D01*
G01*
X118160000Y-143400000D01*
G75*
G02*
X118310000Y-143250000I150000J0D01*
G01*
X118610000Y-143250000D01*
G75*
G02*
X118760000Y-143400000I0J-150000D01*
G01*
X118760000Y-145050000D01*
G75*
G02*
X118610000Y-145200000I-150000J0D01*
G01*
G37*
G04 #@! TD.AperFunction*
G04 #@! TO.P,U5,3*
G04 #@! TO.N,/CS_MIMA*
G04 #@! TA.AperFunction,SMDPad,CuDef*
G36*
G01*
X119880000Y-145200000D02*
X119580000Y-145200000D01*
G75*
G02*
X119430000Y-145050000I0J150000D01*
G01*
X119430000Y-143400000D01*
G75*
G02*
X119580000Y-143250000I150000J0D01*
G01*
X119880000Y-143250000D01*
G75*
G02*
X120030000Y-143400000I0J-150000D01*
G01*
X120030000Y-145050000D01*
G75*
G02*
X119880000Y-145200000I-150000J0D01*
G01*
G37*
G04 #@! TD.AperFunction*
G04 #@! TO.P,U5,4*
G04 #@! TO.N,/LiCONTROL_CS*
G04 #@! TA.AperFunction,SMDPad,CuDef*
G36*
G01*
X121150000Y-145200000D02*
X120850000Y-145200000D01*
G75*
G02*
X120700000Y-145050000I0J150000D01*
G01*
X120700000Y-143400000D01*
G75*
G02*
X120850000Y-143250000I150000J0D01*
G01*
X121150000Y-143250000D01*
G75*
G02*
X121300000Y-143400000I0J-150000D01*
G01*
X121300000Y-145050000D01*
G75*
G02*
X121150000Y-145200000I-150000J0D01*
G01*
G37*
G04 #@! TD.AperFunction*
G04 #@! TO.P,U5,5*
G04 #@! TO.N,/MOSI*
G04 #@! TA.AperFunction,SMDPad,CuDef*
G36*
G01*
X122420000Y-145200000D02*
X122120000Y-145200000D01*
G75*
G02*
X121970000Y-145050000I0J150000D01*
G01*
X121970000Y-143400000D01*
G75*
G02*
X122120000Y-143250000I150000J0D01*
G01*
X122420000Y-143250000D01*
G75*
G02*
X122570000Y-143400000I0J-150000D01*
G01*
X122570000Y-145050000D01*
G75*
G02*
X122420000Y-145200000I-150000J0D01*
G01*
G37*
G04 #@! TD.AperFunction*
G04 #@! TO.P,U5,6*
G04 #@! TO.N,/MOSI_MIMA*
G04 #@! TA.AperFunction,SMDPad,CuDef*
G36*
G01*
X123690000Y-145200000D02*
X123390000Y-145200000D01*
G75*
G02*
X123240000Y-145050000I0J150000D01*
G01*
X123240000Y-143400000D01*
G75*
G02*
X123390000Y-143250000I150000J0D01*
G01*
X123690000Y-143250000D01*
G75*
G02*
X123840000Y-143400000I0J-150000D01*
G01*
X123840000Y-145050000D01*
G75*
G02*
X123690000Y-145200000I-150000J0D01*
G01*
G37*
G04 #@! TD.AperFunction*
G04 #@! TO.P,U5,7*
G04 #@! TO.N,GND*
G04 #@! TA.AperFunction,SMDPad,CuDef*
G36*
G01*
X124960000Y-145200000D02*
X124660000Y-145200000D01*
G75*
G02*
X124510000Y-145050000I0J150000D01*
G01*
X124510000Y-143400000D01*
G75*
G02*
X124660000Y-143250000I150000J0D01*
G01*
X124960000Y-143250000D01*
G75*
G02*
X125110000Y-143400000I0J-150000D01*
G01*
X125110000Y-145050000D01*
G75*
G02*
X124960000Y-145200000I-150000J0D01*
G01*
G37*
G04 #@! TD.AperFunction*
G04 #@! TO.P,U5,8*
G04 #@! TO.N,/MISO_ILIM*
G04 #@! TA.AperFunction,SMDPad,CuDef*
G36*
G01*
X124960000Y-140250000D02*
X124660000Y-140250000D01*
G75*
G02*
X124510000Y-140100000I0J150000D01*
G01*
X124510000Y-138450000D01*
G75*
G02*
X124660000Y-138300000I150000J0D01*
G01*
X124960000Y-138300000D01*
G75*
G02*
X125110000Y-138450000I0J-150000D01*
G01*
X125110000Y-140100000D01*
G75*
G02*
X124960000Y-140250000I-150000J0D01*
G01*
G37*
G04 #@! TD.AperFunction*
G04 #@! TO.P,U5,9*
G04 #@! TO.N,/MISO_MIMA*
G04 #@! TA.AperFunction,SMDPad,CuDef*
G36*
G01*
X123690000Y-140250000D02*
X123390000Y-140250000D01*
G75*
G02*
X123240000Y-140100000I0J150000D01*
G01*
X123240000Y-138450000D01*
G75*
G02*
X123390000Y-138300000I150000J0D01*
G01*
X123690000Y-138300000D01*
G75*
G02*
X123840000Y-138450000I0J-150000D01*
G01*
X123840000Y-140100000D01*
G75*
G02*
X123690000Y-140250000I-150000J0D01*
G01*
G37*
G04 #@! TD.AperFunction*
G04 #@! TO.P,U5,10*
G04 #@! TO.N,/LiCONTROL_CS*
G04 #@! TA.AperFunction,SMDPad,CuDef*
G36*
G01*
X122420000Y-140250000D02*
X122120000Y-140250000D01*
G75*
G02*
X121970000Y-140100000I0J150000D01*
G01*
X121970000Y-138450000D01*
G75*
G02*
X122120000Y-138300000I150000J0D01*
G01*
X122420000Y-138300000D01*
G75*
G02*
X122570000Y-138450000I0J-150000D01*
G01*
X122570000Y-140100000D01*
G75*
G02*
X122420000Y-140250000I-150000J0D01*
G01*
G37*
G04 #@! TD.AperFunction*
G04 #@! TO.P,U5,11*
G04 #@! TO.N,/SCK_MIMA*
G04 #@! TA.AperFunction,SMDPad,CuDef*
G36*
G01*
X121150000Y-140250000D02*
X120850000Y-140250000D01*
G75*
G02*
X120700000Y-140100000I0J150000D01*
G01*
X120700000Y-138450000D01*
G75*
G02*
X120850000Y-138300000I150000J0D01*
G01*
X121150000Y-138300000D01*
G75*
G02*
X121300000Y-138450000I0J-150000D01*
G01*
X121300000Y-140100000D01*
G75*
G02*
X121150000Y-140250000I-150000J0D01*
G01*
G37*
G04 #@! TD.AperFunction*
G04 #@! TO.P,U5,12*
G04 #@! TO.N,/SCK*
G04 #@! TA.AperFunction,SMDPad,CuDef*
G36*
G01*
X119880000Y-140250000D02*
X119580000Y-140250000D01*
G75*
G02*
X119430000Y-140100000I0J150000D01*
G01*
X119430000Y-138450000D01*
G75*
G02*
X119580000Y-138300000I150000J0D01*
G01*
X119880000Y-138300000D01*
G75*
G02*
X120030000Y-138450000I0J-150000D01*
G01*
X120030000Y-140100000D01*
G75*
G02*
X119880000Y-140250000I-150000J0D01*
G01*
G37*
G04 #@! TD.AperFunction*
G04 #@! TO.P,U5,13*
G04 #@! TO.N,/LiCONTROL_CS*
G04 #@! TA.AperFunction,SMDPad,CuDef*
G36*
G01*
X118610000Y-140250000D02*
X118310000Y-140250000D01*
G75*
G02*
X118160000Y-140100000I0J150000D01*
G01*
X118160000Y-138450000D01*
G75*
G02*
X118310000Y-138300000I150000J0D01*
G01*
X118610000Y-138300000D01*
G75*
G02*
X118760000Y-138450000I0J-150000D01*
G01*
X118760000Y-140100000D01*
G75*
G02*
X118610000Y-140250000I-150000J0D01*
G01*
G37*
G04 #@! TD.AperFunction*
G04 #@! TO.P,U5,14*
G04 #@! TO.N,+5V*
G04 #@! TA.AperFunction,SMDPad,CuDef*
G36*
G01*
X117340000Y-140250000D02*
X117040000Y-140250000D01*
G75*
G02*
X116890000Y-140100000I0J150000D01*
G01*
X116890000Y-138450000D01*
G75*
G02*
X117040000Y-138300000I150000J0D01*
G01*
X117340000Y-138300000D01*
G75*
G02*
X117490000Y-138450000I0J-150000D01*
G01*
X117490000Y-140100000D01*
G75*
G02*
X117340000Y-140250000I-150000J0D01*
G01*
G37*
G04 #@! TD.AperFunction*
G04 #@! TD*
D22*
G04 #@! TO.N,+5V*
X116300000Y-141700000D03*
X156982500Y-137732500D03*
X157000000Y-135250000D03*
X157000000Y-141000000D03*
G04 #@! TO.N,GND*
X160250000Y-134500000D03*
X149500000Y-139250000D03*
X115750000Y-154250000D03*
X109000000Y-154250000D03*
X101750000Y-138000000D03*
X105250000Y-133750000D03*
X99500000Y-132250000D03*
X108000000Y-127500000D03*
X110250000Y-127250000D03*
X141000000Y-132000000D03*
X139000000Y-128750000D03*
X138950000Y-143750000D03*
X144250000Y-154500000D03*
X125750000Y-144250000D03*
X128250000Y-140750000D03*
X105500000Y-140750000D03*
X160000000Y-131000000D03*
X134500000Y-144750000D03*
X115000000Y-138500000D03*
X117750000Y-137250000D03*
X153000000Y-133250000D03*
X132750000Y-132500000D03*
X119500000Y-154500000D03*
X158750000Y-131250000D03*
X155250000Y-155000000D03*
X156500000Y-155000000D03*
X160250000Y-142500000D03*
X160250000Y-136500000D03*
X160250000Y-140500000D03*
X160250000Y-138500000D03*
G04 #@! TO.N,GNDPWR*
X171250000Y-132250000D03*
X166500000Y-131500000D03*
X170750000Y-135500000D03*
X177250000Y-137000000D03*
X169750000Y-141500000D03*
X167500000Y-142750000D03*
X180500000Y-129650000D03*
X180500000Y-128650000D03*
X182500000Y-129650000D03*
X182500000Y-128650000D03*
X166500000Y-142750000D03*
G04 #@! TO.N,/GRID_POS_FUSED*
X208662500Y-146087500D03*
X213162500Y-146087500D03*
X217662500Y-146087500D03*
X222162500Y-146087500D03*
X224250000Y-144750000D03*
X219750000Y-144750000D03*
X215250000Y-144750000D03*
X210750000Y-144750000D03*
X206250000Y-144750000D03*
G04 #@! TO.N,/SCK*
X120000000Y-134750000D03*
G04 #@! TO.N,/MOSI*
X133250000Y-151500000D03*
G04 #@! TO.N,/CAN_CS*
X101250000Y-143500000D03*
G04 #@! TO.N,+5P*
X166500000Y-151500000D03*
X166750000Y-155000000D03*
X167350000Y-137850000D03*
X165750000Y-133500000D03*
X167750000Y-155000000D03*
X202500000Y-155000000D03*
X201500000Y-155000000D03*
G04 #@! TO.N,/CHARGER_LIMIT_CURRENT*
X174000000Y-137500000D03*
G04 #@! TO.N,/CHARGER_LIMIT_VOLTAGE*
X168000000Y-146500000D03*
G04 #@! TO.N,/LiCONTROL_CS*
X135250000Y-150250000D03*
G04 #@! TO.N,/5V_MIMA*
X131087500Y-138162500D03*
G04 #@! TO.N,/SCK_MIMA*
X121000000Y-140750000D03*
G04 #@! TO.N,/CS_MIMA*
X119750000Y-142750000D03*
G04 #@! TD*
D23*
G04 #@! TO.N,+5V*
X130250000Y-132500000D02*
X130500000Y-132500000D01*
X130450000Y-132700000D02*
X130250000Y-132500000D01*
X154985000Y-139730000D02*
X155230000Y-139730000D01*
X155230000Y-139730000D02*
X156750000Y-141250000D01*
X155230000Y-133480000D02*
X157000000Y-135250000D01*
X154985000Y-133480000D02*
X155230000Y-133480000D01*
X114750000Y-141700000D02*
X116300000Y-141700000D01*
X117190000Y-140810000D02*
X117190000Y-139275000D01*
X116300000Y-141700000D02*
X117190000Y-140810000D01*
X116300000Y-141700000D02*
X116300000Y-141700000D01*
X106450000Y-145700000D02*
X106500000Y-145750000D01*
X106450000Y-142750000D02*
X106450000Y-145700000D01*
X157000000Y-135250000D02*
X157000000Y-135250000D01*
X156750000Y-141250000D02*
X156750000Y-141250000D01*
D24*
X154985000Y-133480000D02*
X155730000Y-133480000D01*
X156982500Y-134732500D02*
X156982500Y-137732500D01*
X155730000Y-133480000D02*
X156982500Y-134732500D01*
X156982500Y-137732500D02*
X154985000Y-139730000D01*
X157000000Y-143750000D02*
X157000000Y-141000000D01*
X155412500Y-145337500D02*
X157000000Y-143750000D01*
X155000000Y-145337500D02*
X155412500Y-145337500D01*
X155237500Y-139982500D02*
X154985000Y-139730000D01*
X156982500Y-139982500D02*
X156982500Y-141017500D01*
X156982500Y-138767500D02*
X156732500Y-138767500D01*
X155517500Y-139982500D02*
X155237500Y-139982500D01*
X156732500Y-138767500D02*
X155517500Y-139982500D01*
X156982500Y-137732500D02*
X156982500Y-138767500D01*
X156982500Y-138767500D02*
X156982500Y-139982500D01*
X156267500Y-140267500D02*
X156267500Y-139982500D01*
X157000000Y-141000000D02*
X156267500Y-140267500D01*
X156267500Y-139982500D02*
X155517500Y-139982500D01*
X156982500Y-139982500D02*
X156267500Y-139982500D01*
D25*
X130250000Y-131500000D02*
X131490000Y-130260000D01*
X130250000Y-132500000D02*
X130250000Y-131500000D01*
X131490000Y-128250000D02*
X131490000Y-130260000D01*
X135300000Y-128250000D02*
X135800000Y-128750000D01*
X131990000Y-130260000D02*
X134000000Y-128250000D01*
X131490000Y-130260000D02*
X131990000Y-130260000D01*
X134000000Y-128250000D02*
X135300000Y-128250000D01*
X131490000Y-128250000D02*
X134000000Y-128250000D01*
X130250000Y-132000000D02*
X131990000Y-130260000D01*
X130250000Y-132500000D02*
X130250000Y-132000000D01*
D23*
G04 #@! TO.N,GND*
X125725000Y-144225000D02*
X125750000Y-144250000D01*
X124810000Y-144225000D02*
X125725000Y-144225000D01*
X104550000Y-142750000D02*
X104550000Y-141700000D01*
X106500000Y-139750000D02*
X106800000Y-139750000D01*
X104550000Y-141700000D02*
X105500000Y-140750000D01*
X105500000Y-140750000D02*
X106500000Y-139750000D01*
X151330000Y-152700000D02*
X151380000Y-152750000D01*
X149000000Y-152700000D02*
X151330000Y-152700000D01*
D24*
X147200000Y-152700000D02*
X151330000Y-152700000D01*
X143750000Y-149250000D02*
X147200000Y-152700000D01*
X145460000Y-141500000D02*
X145250000Y-141500000D01*
X141750000Y-145000000D02*
X141750000Y-148250000D01*
X145250000Y-141500000D02*
X141750000Y-145000000D01*
X142750000Y-149250000D02*
X143750000Y-149250000D01*
X141750000Y-148250000D02*
X142750000Y-149250000D01*
D23*
X160980000Y-130020000D02*
X160000000Y-131000000D01*
X161000000Y-130020000D02*
X160980000Y-130020000D01*
X128250000Y-139550000D02*
X128300000Y-139500000D01*
X128250000Y-140750000D02*
X128250000Y-139550000D01*
D24*
X137700000Y-128750000D02*
X139000000Y-128750000D01*
X114750000Y-138750000D02*
X115000000Y-138500000D01*
X114750000Y-139800000D02*
X114750000Y-138750000D01*
X118200000Y-136800000D02*
X117750000Y-137250000D01*
X118200000Y-136250000D02*
X118200000Y-136800000D01*
X159750000Y-131250000D02*
X160000000Y-131000000D01*
X158750000Y-131250000D02*
X159750000Y-131250000D01*
X155250000Y-155000000D02*
X156500000Y-155000000D01*
D23*
X133700000Y-145550000D02*
X134500000Y-144750000D01*
X132250000Y-145550000D02*
X133700000Y-145550000D01*
D25*
G04 #@! TO.N,GNDPWR*
X197500000Y-147500000D02*
X194000000Y-147500000D01*
X196750000Y-146750000D02*
X197500000Y-147500000D01*
X196750000Y-134000000D02*
X196750000Y-146750000D01*
X193250000Y-134000000D02*
X193250000Y-136500000D01*
X193250000Y-136500000D02*
X195000000Y-138250000D01*
X195000000Y-146500000D02*
X194000000Y-147500000D01*
X195000000Y-138250000D02*
X195000000Y-146500000D01*
D24*
X164300000Y-144787500D02*
X164337500Y-144750000D01*
X164300000Y-151600000D02*
X164300000Y-144787500D01*
X165750000Y-153050000D02*
X164300000Y-151600000D01*
X164337500Y-142447500D02*
X164515000Y-142270000D01*
X164337500Y-144750000D02*
X164337500Y-142447500D01*
D23*
X166500000Y-132012500D02*
X167437500Y-132950000D01*
X171557500Y-130020000D02*
X172250000Y-130712500D01*
X166500000Y-130020000D02*
X171557500Y-130020000D01*
D24*
X171250000Y-131962500D02*
X172250000Y-130962500D01*
X171250000Y-132250000D02*
X171250000Y-131962500D01*
D23*
X166500000Y-131500000D02*
X166500000Y-132012500D01*
X166500000Y-130020000D02*
X166500000Y-131500000D01*
X170750000Y-135500000D02*
X171000000Y-135500000D01*
X171450000Y-135950000D02*
X171750000Y-135950000D01*
X171000000Y-135500000D02*
X171450000Y-135950000D01*
D24*
X177250000Y-137000000D02*
X177250000Y-137975000D01*
X170000000Y-141500000D02*
X170550000Y-140950000D01*
X169750000Y-141500000D02*
X170000000Y-141500000D01*
D23*
X164515000Y-142270000D02*
X164520000Y-142270000D01*
X164520000Y-142270000D02*
X165000000Y-142750000D01*
X165000000Y-142750000D02*
X166250000Y-142750000D01*
X182500000Y-129650000D02*
X180500000Y-129650000D01*
X180500000Y-128650000D02*
X182500000Y-128650000D01*
D25*
X197500000Y-147500000D02*
X197500000Y-148500000D01*
D23*
X166250000Y-142750000D02*
X167500000Y-142750000D01*
D24*
X165800000Y-153000000D02*
X165750000Y-153050000D01*
X167600000Y-153000000D02*
X165800000Y-153000000D01*
X169000000Y-151600000D02*
X167600000Y-153000000D01*
D23*
G04 #@! TO.N,/GRID_POS_FUSED*
X228550000Y-148300000D02*
X228570000Y-148300000D01*
D25*
X227250000Y-151500000D02*
X228570000Y-150180000D01*
X227250000Y-152250000D02*
X227250000Y-151500000D01*
X228570000Y-150180000D02*
X228570000Y-148300000D01*
D24*
X225250000Y-146087500D02*
X222162500Y-146087500D01*
D23*
X226357500Y-146087500D02*
X228570000Y-148300000D01*
X225250000Y-146087500D02*
X226357500Y-146087500D01*
D24*
X208662500Y-146087500D02*
X207250000Y-146087500D01*
X210412500Y-146087500D02*
X208662500Y-146087500D01*
X213162500Y-146087500D02*
X210412500Y-146087500D01*
X217662500Y-146087500D02*
X213162500Y-146087500D01*
X222162500Y-146087500D02*
X217662500Y-146087500D01*
D23*
G04 #@! TO.N,/SCK*
X122630000Y-132500000D02*
X122630000Y-132880000D01*
X108700000Y-139550000D02*
X109000000Y-139250000D01*
X108700000Y-139750000D02*
X108700000Y-139550000D01*
X122630000Y-132500000D02*
X122630000Y-133130000D01*
X119730000Y-135020000D02*
X120000000Y-134750000D01*
X119730000Y-138525000D02*
X119730000Y-135020000D01*
X137170000Y-153830000D02*
X137170000Y-153250000D01*
X135750000Y-155250000D02*
X137170000Y-153830000D01*
X116625000Y-152375000D02*
X120750000Y-152375000D01*
X120750000Y-152375000D02*
X123625000Y-155250000D01*
X109000000Y-144750000D02*
X116625000Y-152375000D01*
X123625000Y-155250000D02*
X135750000Y-155250000D01*
X109000000Y-139250000D02*
X109000000Y-144750000D01*
X113000000Y-132750000D02*
X109000000Y-136750000D01*
X113000000Y-131500000D02*
X113000000Y-132750000D01*
X116540000Y-130500000D02*
X114000000Y-130500000D01*
X114000000Y-130500000D02*
X113000000Y-131500000D01*
X109000000Y-136750000D02*
X109000000Y-139250000D01*
X118790000Y-128250000D02*
X116540000Y-130500000D01*
G04 #@! TO.N,/MOSI*
X121330000Y-128250000D02*
X121330000Y-128420000D01*
X117550000Y-132200000D02*
X117550000Y-132500000D01*
X121330000Y-128420000D02*
X117550000Y-132200000D01*
X117550000Y-133050000D02*
X117550000Y-132500000D01*
X133250000Y-151500000D02*
X133250000Y-151500000D01*
X135250000Y-147750000D02*
X139710000Y-152210000D01*
X129250000Y-146250000D02*
X130750000Y-147750000D01*
X123000000Y-146250000D02*
X129250000Y-146250000D01*
X139710000Y-152210000D02*
X139710000Y-153250000D01*
X122250000Y-145500000D02*
X123000000Y-146250000D01*
X122250000Y-144245000D02*
X122250000Y-145500000D01*
X122270000Y-144225000D02*
X122250000Y-144245000D01*
X128000000Y-150000000D02*
X129500000Y-151500000D01*
X117750000Y-150000000D02*
X128000000Y-150000000D01*
X129500000Y-151500000D02*
X133250000Y-151500000D01*
X111500000Y-143750000D02*
X117750000Y-150000000D01*
X111500000Y-137750000D02*
X111500000Y-143750000D01*
X117550000Y-132700000D02*
X115875000Y-134375000D01*
X114875000Y-134375000D02*
X111500000Y-137750000D01*
X115875000Y-134375000D02*
X114875000Y-134375000D01*
X117550000Y-132500000D02*
X117550000Y-132700000D01*
X132250000Y-147650000D02*
X132350000Y-147750000D01*
X132350000Y-147750000D02*
X135250000Y-147750000D01*
X132250000Y-147450000D02*
X132250000Y-147650000D01*
X130750000Y-147750000D02*
X132350000Y-147750000D01*
G04 #@! TO.N,/MISO*
X123870000Y-128250000D02*
X123870000Y-128630000D01*
X120090000Y-132410000D02*
X120090000Y-132500000D01*
X123870000Y-128630000D02*
X120090000Y-132410000D01*
X120090000Y-132840000D02*
X120090000Y-132500000D01*
X120090000Y-132500000D02*
X120090000Y-133410000D01*
X120410000Y-133410000D02*
X120090000Y-133410000D01*
X120090000Y-133410000D02*
X119590000Y-133410000D01*
X119590000Y-133000000D02*
X120090000Y-132500000D01*
X119590000Y-133410000D02*
X119590000Y-133000000D01*
X120410000Y-132820000D02*
X120090000Y-132500000D01*
X120410000Y-133410000D02*
X120410000Y-132820000D01*
X122000000Y-135000000D02*
X120410000Y-133410000D01*
X122837500Y-135837500D02*
X122837500Y-136250000D01*
X122000000Y-135000000D02*
X122837500Y-135837500D01*
X130000000Y-150250000D02*
X133500000Y-150250000D01*
X134630000Y-151380000D02*
X134630000Y-153250000D01*
X112750000Y-143250000D02*
X118250000Y-148750000D01*
X133500000Y-150250000D02*
X134630000Y-151380000D01*
X118250000Y-148750000D02*
X128500000Y-148750000D01*
X112750000Y-138250000D02*
X112750000Y-143250000D01*
X114750000Y-136250000D02*
X112750000Y-138250000D01*
X115750000Y-136250000D02*
X114750000Y-136250000D01*
X117500000Y-134500000D02*
X115750000Y-136250000D01*
X128500000Y-148750000D02*
X130000000Y-150250000D01*
X118500000Y-134500000D02*
X117500000Y-134500000D01*
X119590000Y-133410000D02*
X118500000Y-134500000D01*
X116300000Y-136250000D02*
X115750000Y-136250000D01*
G04 #@! TO.N,/FLASH_CS*
X115010000Y-133010000D02*
X115010000Y-132500000D01*
X117250000Y-151250000D02*
X127550000Y-151250000D01*
X110250000Y-144250000D02*
X117250000Y-151250000D01*
X110250000Y-137250000D02*
X110250000Y-144250000D01*
X127550000Y-151250000D02*
X129550000Y-153250000D01*
X115000000Y-132500000D02*
X110250000Y-137250000D01*
X115010000Y-132500000D02*
X115000000Y-132500000D01*
G04 #@! TO.N,/Q1_GATE*
X186030000Y-128430000D02*
X186030000Y-129150000D01*
X172950000Y-127750000D02*
X173950000Y-126750000D01*
X172537500Y-127750000D02*
X172950000Y-127750000D01*
X184350000Y-126750000D02*
X186030000Y-128430000D01*
X173950000Y-126750000D02*
X184350000Y-126750000D01*
X172250000Y-128037500D02*
X172537500Y-127750000D01*
X170150000Y-127950000D02*
X172162500Y-127950000D01*
X172162500Y-127950000D02*
X172250000Y-128037500D01*
X169680000Y-127480000D02*
X170150000Y-127950000D01*
X166500000Y-127480000D02*
X169680000Y-127480000D01*
G04 #@! TO.N,/LEDp*
X155025000Y-129437500D02*
X155000000Y-129412500D01*
X157750000Y-129437500D02*
X155025000Y-129437500D01*
G04 #@! TO.N,/LEDn*
X157832500Y-127480000D02*
X157750000Y-127562500D01*
X161000000Y-127480000D02*
X157832500Y-127480000D01*
D25*
G04 #@! TO.N,/HVDC_POS_BATT*
X200250000Y-134000000D02*
X206000000Y-139750000D01*
X212500000Y-139750000D02*
X213500000Y-140750000D01*
X206000000Y-139750000D02*
X212500000Y-139750000D01*
X226100000Y-140750000D02*
X228570000Y-143220000D01*
X213500000Y-140750000D02*
X226100000Y-140750000D01*
D23*
G04 #@! TO.N,/ILIM_LED2*
X148000000Y-137912500D02*
X149837500Y-137912500D01*
X151062500Y-136687500D02*
X151500000Y-136687500D01*
X149837500Y-137912500D02*
X151062500Y-136687500D01*
G04 #@! TO.N,/ILIM_LED*
X154985000Y-136020000D02*
X154985000Y-135985000D01*
X154985000Y-135985000D02*
X154500000Y-135500000D01*
X154500000Y-135500000D02*
X153500000Y-135500000D01*
X153500000Y-135500000D02*
X153000000Y-135000000D01*
X151687500Y-135000000D02*
X151500000Y-134812500D01*
X153000000Y-135000000D02*
X151687500Y-135000000D01*
D25*
G04 #@! TO.N,/HVDC_POS_AUX*
X189750000Y-139500000D02*
X191000000Y-140750000D01*
X189750000Y-134000000D02*
X189750000Y-139500000D01*
X180000000Y-147500000D02*
X183500000Y-147500000D01*
X189250000Y-142250000D02*
X186375000Y-142250000D01*
X183500000Y-145125000D02*
X183500000Y-147500000D01*
X190750000Y-140750000D02*
X189250000Y-142250000D01*
X186375000Y-142250000D02*
X183500000Y-145125000D01*
X191000000Y-140750000D02*
X190750000Y-140750000D01*
G04 #@! TO.N,/GRID_POS*
X201000000Y-148500000D02*
X204750000Y-152250000D01*
X201000000Y-147500000D02*
X201000000Y-148500000D01*
D23*
G04 #@! TO.N,/HEATER_EN*
X146500000Y-132500000D02*
X148250000Y-132500000D01*
X148250000Y-132500000D02*
X148750000Y-133000000D01*
X148750000Y-133000000D02*
X151250000Y-133000000D01*
X152412500Y-131837500D02*
X152412500Y-131500000D01*
X151250000Y-133000000D02*
X152412500Y-131837500D01*
X152412500Y-131500000D02*
X152412500Y-129000000D01*
X159000000Y-150000000D02*
X159000000Y-152750000D01*
X160000000Y-149000000D02*
X159000000Y-150000000D01*
X160000000Y-144250000D02*
X160000000Y-149000000D01*
X158750000Y-143000000D02*
X160000000Y-144250000D01*
X152662500Y-131250000D02*
X156250000Y-131250000D01*
X158750000Y-133750000D02*
X158750000Y-143000000D01*
X156250000Y-131250000D02*
X158750000Y-133750000D01*
X152412500Y-131500000D02*
X152662500Y-131250000D01*
D25*
G04 #@! TO.N,/HEAT_NEG*
X181750000Y-136350000D02*
X183750000Y-134350000D01*
X181750000Y-140000000D02*
X181750000Y-136350000D01*
X176500000Y-145250000D02*
X181750000Y-140000000D01*
X176500000Y-147500000D02*
X176500000Y-145250000D01*
X183750000Y-138000000D02*
X183750000Y-135450000D01*
X181750000Y-140000000D02*
X183750000Y-138000000D01*
X176500000Y-147500000D02*
X173000000Y-147500000D01*
X174000000Y-146500000D02*
X173000000Y-147500000D01*
X175250000Y-146500000D02*
X174000000Y-146500000D01*
X176500000Y-145250000D02*
X175250000Y-146500000D01*
D23*
G04 #@! TO.N,/CAN_INT*
X101420000Y-149000000D02*
X101420000Y-145750000D01*
X102750000Y-144420000D02*
X101420000Y-145750000D01*
X111500000Y-132500000D02*
X102750000Y-141250000D01*
X102750000Y-141250000D02*
X102750000Y-144420000D01*
X111500000Y-131250000D02*
X111500000Y-132500000D01*
X114500000Y-128250000D02*
X111500000Y-131250000D01*
X116250000Y-128250000D02*
X114500000Y-128250000D01*
G04 #@! TO.N,/CAN_CS*
X103960000Y-149000000D02*
X103960000Y-145750000D01*
X126410000Y-128250000D02*
X126410000Y-128590000D01*
X103960000Y-145460000D02*
X103960000Y-145750000D01*
X101250000Y-143500000D02*
X101250000Y-143500000D01*
X110000000Y-132250000D02*
X101250000Y-141000000D01*
X110000000Y-131000000D02*
X110000000Y-132250000D01*
X114500000Y-126500000D02*
X110000000Y-131000000D01*
X125250000Y-126500000D02*
X114500000Y-126500000D01*
X101250000Y-141000000D02*
X101250000Y-143500000D01*
X126410000Y-127660000D02*
X125250000Y-126500000D01*
X126410000Y-128250000D02*
X126410000Y-127660000D01*
D24*
G04 #@! TO.N,+5P*
X223000000Y-154162500D02*
X209000000Y-154162500D01*
D23*
X209000000Y-154162500D02*
X208337500Y-154162500D01*
X165750000Y-154950000D02*
X165800000Y-155000000D01*
X167350000Y-136512500D02*
X167337500Y-136500000D01*
X167000000Y-155000000D02*
X167750000Y-155000000D01*
X165800000Y-155000000D02*
X167000000Y-155000000D01*
X167350000Y-137850000D02*
X167350000Y-136512500D01*
X167350000Y-139087500D02*
X167350000Y-137850000D01*
X164535000Y-133500000D02*
X164515000Y-133480000D01*
X165750000Y-133500000D02*
X164535000Y-133500000D01*
X166787500Y-149662500D02*
X166200000Y-150250000D01*
X168750000Y-149662500D02*
X166787500Y-149662500D01*
X166500000Y-149950000D02*
X166787500Y-149662500D01*
X166500000Y-151500000D02*
X166500000Y-149950000D01*
X168900000Y-155000000D02*
X169000000Y-154900000D01*
X167750000Y-155000000D02*
X168900000Y-155000000D01*
D24*
X168950000Y-154950000D02*
X169000000Y-154900000D01*
X165750000Y-154950000D02*
X168950000Y-154950000D01*
D23*
X206750000Y-155500000D02*
X203000000Y-155500000D01*
X203000000Y-155500000D02*
X202500000Y-155000000D01*
X208337500Y-153912500D02*
X206750000Y-155500000D01*
X208587500Y-153912500D02*
X208337500Y-153912500D01*
X202500000Y-155000000D02*
X201500000Y-155000000D01*
G04 #@! TO.N,/SW_DIV*
X148750000Y-150800000D02*
X148750000Y-148412500D01*
X145662500Y-147250000D02*
X145662500Y-147412500D01*
X146662500Y-148412500D02*
X148750000Y-148412500D01*
X145662500Y-147412500D02*
X146662500Y-148412500D01*
G04 #@! TO.N,/CHARGER_LIMIT_CURRENT*
X176337500Y-131750000D02*
X176337500Y-134137500D01*
X176337500Y-134137500D02*
X176350000Y-134150000D01*
X177250000Y-135025000D02*
X176625000Y-135025000D01*
X176337500Y-134737500D02*
X176337500Y-134137500D01*
X176625000Y-135025000D02*
X176337500Y-134737500D01*
X169162500Y-136500000D02*
X169162500Y-136562500D01*
X169162500Y-136562500D02*
X170150000Y-137550000D01*
X170150000Y-137550000D02*
X173950000Y-137550000D01*
X176475000Y-135025000D02*
X177250000Y-135025000D01*
X173950000Y-137550000D02*
X174000000Y-137500000D01*
X174000000Y-137500000D02*
X176475000Y-135025000D01*
G04 #@! TO.N,/CHARGER_LIMIT_VOLTAGE*
X169162500Y-145000000D02*
X169750000Y-145000000D01*
X169337500Y-147750000D02*
X169500000Y-147587500D01*
X166200000Y-147750000D02*
X169337500Y-147750000D01*
X169500000Y-147587500D02*
X169500000Y-145162500D01*
X176150000Y-141481250D02*
X176150000Y-140943750D01*
X171750000Y-143000000D02*
X174700000Y-143000000D01*
X174700000Y-143000000D02*
X176412500Y-141287500D01*
X169337500Y-145412500D02*
X171750000Y-143000000D01*
D24*
X169250000Y-145250000D02*
X168000000Y-146500000D01*
X169250000Y-145162500D02*
X169250000Y-145250000D01*
X167000000Y-147500000D02*
X168000000Y-146500000D01*
X166200000Y-147500000D02*
X167000000Y-147500000D01*
X166200000Y-147500000D02*
X168000000Y-147500000D01*
X169250000Y-146250000D02*
X169250000Y-145162500D01*
X168000000Y-147500000D02*
X169250000Y-146250000D01*
X169250000Y-147587500D02*
X169250000Y-145162500D01*
D23*
G04 #@! TO.N,/VLIM_LEDn*
X151500000Y-142437500D02*
X151500000Y-144837500D01*
G04 #@! TO.N,/VLIM_LEDp*
X151500000Y-140562500D02*
X152062500Y-140562500D01*
X152062500Y-140562500D02*
X153250000Y-141750000D01*
X154465000Y-141750000D02*
X154985000Y-142270000D01*
X153250000Y-141750000D02*
X154465000Y-141750000D01*
G04 #@! TO.N,/LiCONTROL_CS*
X121000000Y-144225000D02*
X121000000Y-142250000D01*
X118460000Y-141460000D02*
X118460000Y-139275000D01*
X118460000Y-141460000D02*
X118460000Y-141540000D01*
X117190000Y-142810000D02*
X117190000Y-144225000D01*
X118460000Y-141540000D02*
X117190000Y-142810000D01*
X121750000Y-142250000D02*
X122270000Y-141730000D01*
X122270000Y-141730000D02*
X122270000Y-139275000D01*
X121000000Y-142250000D02*
X121750000Y-142250000D01*
X118460000Y-144225000D02*
X118460000Y-141460000D01*
X118670000Y-141250000D02*
X118460000Y-141460000D01*
X120000000Y-141250000D02*
X118670000Y-141250000D01*
X121000000Y-142250000D02*
X120000000Y-141250000D01*
X121000000Y-146000000D02*
X121000000Y-143475000D01*
X135250000Y-150250000D02*
X134000000Y-149000000D01*
X130500000Y-149000000D02*
X129000000Y-147500000D01*
X129000000Y-147500000D02*
X122500000Y-147500000D01*
X134000000Y-149000000D02*
X130500000Y-149000000D01*
X122500000Y-147500000D02*
X121000000Y-146000000D01*
X117190000Y-145690000D02*
X117190000Y-144225000D01*
X118250000Y-146750000D02*
X117190000Y-145690000D01*
X120250000Y-146750000D02*
X118250000Y-146750000D01*
X121000000Y-146000000D02*
X120250000Y-146750000D01*
G04 #@! TO.N,/GRID_VLIM||SWITCH*
X158500000Y-147162500D02*
X158337500Y-147162500D01*
X156460000Y-149040000D02*
X156460000Y-152750000D01*
X158337500Y-147162500D02*
X156460000Y-149040000D01*
G04 #@! TO.N,/GRID_ILIM*
X153920000Y-152750000D02*
X153920000Y-152920000D01*
X147000000Y-154750000D02*
X152500000Y-154750000D01*
X152500000Y-154750000D02*
X153920000Y-153330000D01*
X140000000Y-149000000D02*
X141875000Y-150875000D01*
X153920000Y-153330000D02*
X153920000Y-152750000D01*
X140000000Y-144750000D02*
X140000000Y-149000000D01*
X143750000Y-141000000D02*
X140000000Y-144750000D01*
X144337500Y-137912500D02*
X143750000Y-138500000D01*
X143125000Y-150875000D02*
X147000000Y-154750000D01*
X143750000Y-138500000D02*
X143750000Y-141000000D01*
X141875000Y-150875000D02*
X143125000Y-150875000D01*
X144500000Y-137912500D02*
X144337500Y-137912500D01*
G04 #@! TO.N,/SWITCH*
X148162500Y-141912500D02*
X147750000Y-141500000D01*
X147250000Y-142250000D02*
X148000000Y-141500000D01*
X143837500Y-145662500D02*
X147250000Y-142250000D01*
X143837500Y-147250000D02*
X143837500Y-145662500D01*
G04 #@! TO.N,/VLIMd*
X173837500Y-140000000D02*
X174587500Y-140750000D01*
X172550000Y-140000000D02*
X173837500Y-140000000D01*
G04 #@! TO.N,/VLIM_ISO*
X167187500Y-140750000D02*
X167350000Y-140912500D01*
X164730000Y-139730000D02*
X165750000Y-140750000D01*
X165750000Y-140750000D02*
X167187500Y-140750000D01*
X164515000Y-139730000D02*
X164730000Y-139730000D01*
X170250000Y-139050000D02*
X170550000Y-139050000D01*
X168550000Y-140750000D02*
X170250000Y-139050000D01*
X167512500Y-140750000D02*
X168550000Y-140750000D01*
X167350000Y-140912500D02*
X167512500Y-140750000D01*
G04 #@! TO.N,/ILIM_ISO*
X168550000Y-134550000D02*
X168950000Y-134150000D01*
X168950000Y-134150000D02*
X168950000Y-133262500D01*
X165150000Y-135350000D02*
X165950000Y-135350000D01*
X168950000Y-133262500D02*
X169262500Y-132950000D01*
X166750000Y-134550000D02*
X168550000Y-134550000D01*
X165950000Y-135350000D02*
X166750000Y-134550000D01*
X164515000Y-135985000D02*
X165150000Y-135350000D01*
X164515000Y-136020000D02*
X164515000Y-135985000D01*
X171750000Y-134050000D02*
X170362500Y-134050000D01*
X168950000Y-134150000D02*
X168950000Y-134050000D01*
X169156250Y-133843750D02*
X170156250Y-133843750D01*
X168950000Y-134050000D02*
X169156250Y-133843750D01*
X170156250Y-133843750D02*
X169262500Y-132950000D01*
X170362500Y-134050000D02*
X170156250Y-133843750D01*
G04 #@! TO.N,/ILIM_DIV2*
X173750000Y-134950000D02*
X173750000Y-135000000D01*
X174550000Y-134150000D02*
X173750000Y-134950000D01*
X176337500Y-129150000D02*
X176337500Y-129162500D01*
X174550000Y-130950000D02*
X174550000Y-131350000D01*
X176337500Y-129162500D02*
X174550000Y-130950000D01*
X174550000Y-131350000D02*
X174550000Y-134150000D01*
G04 #@! TO.N,/VLIM_JOIN*
X154837500Y-147000000D02*
X155000000Y-147162500D01*
X152000000Y-147162500D02*
X151500000Y-146662500D01*
X155000000Y-147162500D02*
X152000000Y-147162500D01*
X151425000Y-146587500D02*
X151500000Y-146662500D01*
X148750000Y-146587500D02*
X151425000Y-146587500D01*
X158337500Y-145500000D02*
X158500000Y-145337500D01*
X157500000Y-145500000D02*
X158337500Y-145500000D01*
X155837500Y-147162500D02*
X157500000Y-145500000D01*
X155000000Y-147162500D02*
X155837500Y-147162500D01*
D24*
G04 #@! TO.N,/HVDC_DIV*
X207250000Y-147912500D02*
X225250000Y-147912500D01*
X209000000Y-152337500D02*
X223000000Y-152337500D01*
D23*
G04 #@! TO.N,/LED_DIV*
X155000000Y-127587500D02*
X154837500Y-127587500D01*
X154837500Y-127587500D02*
X154500000Y-127250000D01*
X154500000Y-127250000D02*
X151750000Y-127250000D01*
X150587500Y-128412500D02*
X150587500Y-129000000D01*
X151750000Y-127250000D02*
X150587500Y-128412500D01*
X150587500Y-129000000D02*
X150587500Y-131500000D01*
G04 #@! TO.N,/ILIM_DIV*
X144500000Y-136087500D02*
X148000000Y-136087500D01*
G04 #@! TO.N,/ILIM_DIV1*
X178162500Y-131750000D02*
X178162500Y-129150000D01*
G04 #@! TO.N,/VLIM_DIV*
X167750000Y-144250000D02*
X166662500Y-144250000D01*
X168662500Y-143337500D02*
X167750000Y-144250000D01*
X169500000Y-143337500D02*
X168662500Y-143337500D01*
X166162500Y-144750000D02*
X166662500Y-144250000D01*
G04 #@! TO.N,/5V_MIMA*
X130587500Y-138162500D02*
X130200000Y-138550000D01*
X132500000Y-138162500D02*
X131087500Y-138162500D01*
X130200000Y-137450000D02*
X130200000Y-138550000D01*
X131087500Y-138162500D02*
X130587500Y-138162500D01*
X130200000Y-140000000D02*
X130200000Y-138550000D01*
X130837500Y-140637500D02*
X130200000Y-140000000D01*
X130837500Y-142250000D02*
X130837500Y-140637500D01*
D24*
X129750000Y-137000000D02*
X130200000Y-137450000D01*
X129750000Y-136500000D02*
X129750000Y-137000000D01*
X130487500Y-138162500D02*
X130200000Y-138450000D01*
X132500000Y-138162500D02*
X130487500Y-138162500D01*
X130200000Y-138450000D02*
X130200000Y-137450000D01*
X130200000Y-139500000D02*
X130200000Y-138450000D01*
X130200000Y-141612500D02*
X130837500Y-142250000D01*
X130200000Y-139500000D02*
X130200000Y-141612500D01*
X130200000Y-141050000D02*
X129000000Y-142250000D01*
X130200000Y-139500000D02*
X130200000Y-141050000D01*
D23*
X129000000Y-142250000D02*
X130675000Y-142250000D01*
X128000000Y-142250000D02*
X129000000Y-142250000D01*
D24*
X130750000Y-142337500D02*
X130837500Y-142250000D01*
X128250000Y-142337500D02*
X130750000Y-142337500D01*
X130837500Y-138412500D02*
X131087500Y-138162500D01*
X131087500Y-137837500D02*
X129750000Y-136500000D01*
X131087500Y-138162500D02*
X131087500Y-137837500D01*
X132012500Y-138162500D02*
X130837500Y-139337500D01*
X132500000Y-138162500D02*
X132012500Y-138162500D01*
X130837500Y-139337500D02*
X130837500Y-138412500D01*
X132500000Y-138675000D02*
X130837500Y-140337500D01*
X132500000Y-138162500D02*
X132500000Y-138675000D01*
X130837500Y-140337500D02*
X130837500Y-139337500D01*
X130837500Y-142250000D02*
X130837500Y-140337500D01*
D23*
G04 #@! TO.N,/MISO_MIMA*
X128875000Y-134750000D02*
X137000000Y-134750000D01*
X137000000Y-134750000D02*
X137250000Y-135000000D01*
X128187500Y-135437500D02*
X128875000Y-134750000D01*
X128187500Y-136237500D02*
X128187500Y-135437500D01*
X127925000Y-136500000D02*
X128187500Y-136237500D01*
X126500000Y-138000000D02*
X127587500Y-136912500D01*
X127587500Y-136912500D02*
X127587500Y-136500000D01*
X125625000Y-141125000D02*
X126500000Y-140250000D01*
X126500000Y-140250000D02*
X126500000Y-138000000D01*
X124125000Y-141125000D02*
X125625000Y-141125000D01*
X123540000Y-140540000D02*
X124125000Y-141125000D01*
X123540000Y-139275000D02*
X123540000Y-140540000D01*
G04 #@! TO.N,/SCK_MIMA*
X132500000Y-136337500D02*
X134587500Y-136337500D01*
X135790000Y-137540000D02*
X137250000Y-137540000D01*
X134587500Y-136337500D02*
X135790000Y-137540000D01*
X121000000Y-139275000D02*
X121000000Y-140750000D01*
G04 #@! TO.N,/MOSI_MIMA*
X127575000Y-144162500D02*
X128250000Y-144162500D01*
X125662500Y-142250000D02*
X127575000Y-144162500D01*
X123540000Y-142960000D02*
X124250000Y-142250000D01*
X124250000Y-142250000D02*
X125662500Y-142250000D01*
X123540000Y-144225000D02*
X123540000Y-142960000D01*
X140290000Y-137540000D02*
X139790000Y-137540000D01*
X141750000Y-141000000D02*
X141750000Y-139000000D01*
X141750000Y-139000000D02*
X140290000Y-137540000D01*
X140500000Y-142250000D02*
X141750000Y-141000000D01*
X133350000Y-144150000D02*
X135250000Y-142250000D01*
X128350000Y-144150000D02*
X133350000Y-144150000D01*
X135250000Y-142250000D02*
X140500000Y-142250000D01*
X128250000Y-144250000D02*
X128350000Y-144150000D01*
G04 #@! TO.N,/CS_MIMA*
X119730000Y-142770000D02*
X119750000Y-142750000D01*
X119730000Y-144225000D02*
X119730000Y-142770000D01*
X134832500Y-140080000D02*
X137250000Y-140080000D01*
X132662500Y-142250000D02*
X134832500Y-140080000D01*
G04 #@! TO.N,/MISO_ILIM*
X124810000Y-136397500D02*
X124662500Y-136250000D01*
X124810000Y-139275000D02*
X124810000Y-136397500D01*
G04 #@! TD*
D26*
G04 #@! TO.N,GNDPWR*
X164913945Y-141507764D02*
X164949235Y-141550765D01*
X164992236Y-141586055D01*
X164992239Y-141586058D01*
X165120843Y-141691600D01*
X165316629Y-141796250D01*
X165529069Y-141860693D01*
X165694635Y-141877000D01*
X165694643Y-141877000D01*
X165750000Y-141882452D01*
X165805357Y-141877000D01*
X166019738Y-141877000D01*
X166100090Y-141974910D01*
X166271515Y-142115594D01*
X166467091Y-142220132D01*
X166679305Y-142284507D01*
X166899999Y-142306243D01*
X167800001Y-142306243D01*
X167989870Y-142287543D01*
X167859406Y-142446515D01*
X167754868Y-142642091D01*
X167750852Y-142655329D01*
X167283182Y-143123000D01*
X166717857Y-143123000D01*
X166662500Y-143117548D01*
X166607143Y-143123000D01*
X166607135Y-143123000D01*
X166441569Y-143139307D01*
X166344485Y-143168757D01*
X165899999Y-143168757D01*
X165679305Y-143190493D01*
X165467091Y-143254868D01*
X165271515Y-143359406D01*
X165100090Y-143500090D01*
X164959406Y-143671515D01*
X164854868Y-143867091D01*
X164812005Y-144008389D01*
X163877000Y-144943394D01*
X163877000Y-141501243D01*
X164907424Y-141501243D01*
X164913945Y-141507764D01*
G04 #@! TA.AperFunction,Conductor*
D27*
G36*
X164913945Y-141507764D02*
G01*
X164949235Y-141550765D01*
X164992236Y-141586055D01*
X164992239Y-141586058D01*
X165120843Y-141691600D01*
X165316629Y-141796250D01*
X165529069Y-141860693D01*
X165694635Y-141877000D01*
X165694643Y-141877000D01*
X165750000Y-141882452D01*
X165805357Y-141877000D01*
X166019738Y-141877000D01*
X166100090Y-141974910D01*
X166271515Y-142115594D01*
X166467091Y-142220132D01*
X166679305Y-142284507D01*
X166899999Y-142306243D01*
X167800001Y-142306243D01*
X167989870Y-142287543D01*
X167859406Y-142446515D01*
X167754868Y-142642091D01*
X167750852Y-142655329D01*
X167283182Y-143123000D01*
X166717857Y-143123000D01*
X166662500Y-143117548D01*
X166607143Y-143123000D01*
X166607135Y-143123000D01*
X166441569Y-143139307D01*
X166344485Y-143168757D01*
X165899999Y-143168757D01*
X165679305Y-143190493D01*
X165467091Y-143254868D01*
X165271515Y-143359406D01*
X165100090Y-143500090D01*
X164959406Y-143671515D01*
X164854868Y-143867091D01*
X164812005Y-144008389D01*
X163877000Y-144943394D01*
X163877000Y-141501243D01*
X164907424Y-141501243D01*
X164913945Y-141507764D01*
G37*
G04 #@! TD.AperFunction*
D26*
X171218757Y-140400000D02*
X171235690Y-140571922D01*
X171285838Y-140737237D01*
X171367273Y-140889592D01*
X171476867Y-141023133D01*
X171610408Y-141132727D01*
X171762763Y-141214162D01*
X171928078Y-141264310D01*
X172100000Y-141281243D01*
X173000000Y-141281243D01*
X173171922Y-141264310D01*
X173199274Y-141256013D01*
X173215493Y-141420695D01*
X173279868Y-141632909D01*
X173384406Y-141828485D01*
X173420938Y-141873000D01*
X171805354Y-141873000D01*
X171749999Y-141867548D01*
X171694645Y-141873000D01*
X171694635Y-141873000D01*
X171529069Y-141889307D01*
X171316629Y-141953750D01*
X171145424Y-142045261D01*
X171120843Y-142058400D01*
X170992239Y-142163942D01*
X170992236Y-142163945D01*
X170949235Y-142199235D01*
X170913945Y-142242236D01*
X170664654Y-142491527D01*
X170640594Y-142446515D01*
X170499910Y-142275090D01*
X170328485Y-142134406D01*
X170132909Y-142029868D01*
X169920695Y-141965493D01*
X169700001Y-141943757D01*
X168799999Y-141943757D01*
X168610130Y-141962457D01*
X168686848Y-141868974D01*
X168770931Y-141860693D01*
X168983371Y-141796250D01*
X169179157Y-141691600D01*
X169350765Y-141550765D01*
X169386059Y-141507759D01*
X170562576Y-140331243D01*
X171000000Y-140331243D01*
X171171922Y-140314310D01*
X171218757Y-140300103D01*
X171218757Y-140400000D01*
G04 #@! TA.AperFunction,Conductor*
D27*
G36*
X171218757Y-140400000D02*
G01*
X171235690Y-140571922D01*
X171285838Y-140737237D01*
X171367273Y-140889592D01*
X171476867Y-141023133D01*
X171610408Y-141132727D01*
X171762763Y-141214162D01*
X171928078Y-141264310D01*
X172100000Y-141281243D01*
X173000000Y-141281243D01*
X173171922Y-141264310D01*
X173199274Y-141256013D01*
X173215493Y-141420695D01*
X173279868Y-141632909D01*
X173384406Y-141828485D01*
X173420938Y-141873000D01*
X171805354Y-141873000D01*
X171749999Y-141867548D01*
X171694645Y-141873000D01*
X171694635Y-141873000D01*
X171529069Y-141889307D01*
X171316629Y-141953750D01*
X171145424Y-142045261D01*
X171120843Y-142058400D01*
X170992239Y-142163942D01*
X170992236Y-142163945D01*
X170949235Y-142199235D01*
X170913945Y-142242236D01*
X170664654Y-142491527D01*
X170640594Y-142446515D01*
X170499910Y-142275090D01*
X170328485Y-142134406D01*
X170132909Y-142029868D01*
X169920695Y-141965493D01*
X169700001Y-141943757D01*
X168799999Y-141943757D01*
X168610130Y-141962457D01*
X168686848Y-141868974D01*
X168770931Y-141860693D01*
X168983371Y-141796250D01*
X169179157Y-141691600D01*
X169350765Y-141550765D01*
X169386059Y-141507759D01*
X170562576Y-140331243D01*
X171000000Y-140331243D01*
X171171922Y-140314310D01*
X171218757Y-140300103D01*
X171218757Y-140400000D01*
G37*
G04 #@! TD.AperFunction*
D26*
X178623000Y-139197394D02*
X177774402Y-140045992D01*
X177720132Y-139867091D01*
X177615594Y-139671515D01*
X177474910Y-139500090D01*
X177303485Y-139359406D01*
X177107909Y-139254868D01*
X176895695Y-139190493D01*
X176675001Y-139168757D01*
X176149999Y-139168757D01*
X175929305Y-139190493D01*
X175717091Y-139254868D01*
X175521515Y-139359406D01*
X175500000Y-139377063D01*
X175478485Y-139359406D01*
X175282909Y-139254868D01*
X175070695Y-139190493D01*
X174850001Y-139168757D01*
X174601127Y-139168757D01*
X174466657Y-139058400D01*
X174270871Y-138953750D01*
X174058431Y-138889307D01*
X173892865Y-138873000D01*
X173892854Y-138873000D01*
X173837500Y-138867548D01*
X173782146Y-138873000D01*
X173496570Y-138873000D01*
X173489592Y-138867273D01*
X173337237Y-138785838D01*
X173171922Y-138735690D01*
X173000000Y-138718757D01*
X172100000Y-138718757D01*
X171928078Y-138735690D01*
X171881243Y-138749897D01*
X171881243Y-138677000D01*
X173894646Y-138677000D01*
X173950000Y-138682452D01*
X174005354Y-138677000D01*
X174115924Y-138677000D01*
X174343318Y-138631769D01*
X174557519Y-138543044D01*
X174750294Y-138414236D01*
X174914236Y-138250294D01*
X175043044Y-138057519D01*
X175047813Y-138046005D01*
X176612576Y-136481243D01*
X178350001Y-136481243D01*
X178570695Y-136459507D01*
X178623000Y-136443640D01*
X178623000Y-139197394D01*
G04 #@! TA.AperFunction,Conductor*
D27*
G36*
X178623000Y-139197394D02*
G01*
X177774402Y-140045992D01*
X177720132Y-139867091D01*
X177615594Y-139671515D01*
X177474910Y-139500090D01*
X177303485Y-139359406D01*
X177107909Y-139254868D01*
X176895695Y-139190493D01*
X176675001Y-139168757D01*
X176149999Y-139168757D01*
X175929305Y-139190493D01*
X175717091Y-139254868D01*
X175521515Y-139359406D01*
X175500000Y-139377063D01*
X175478485Y-139359406D01*
X175282909Y-139254868D01*
X175070695Y-139190493D01*
X174850001Y-139168757D01*
X174601127Y-139168757D01*
X174466657Y-139058400D01*
X174270871Y-138953750D01*
X174058431Y-138889307D01*
X173892865Y-138873000D01*
X173892854Y-138873000D01*
X173837500Y-138867548D01*
X173782146Y-138873000D01*
X173496570Y-138873000D01*
X173489592Y-138867273D01*
X173337237Y-138785838D01*
X173171922Y-138735690D01*
X173000000Y-138718757D01*
X172100000Y-138718757D01*
X171928078Y-138735690D01*
X171881243Y-138749897D01*
X171881243Y-138677000D01*
X173894646Y-138677000D01*
X173950000Y-138682452D01*
X174005354Y-138677000D01*
X174115924Y-138677000D01*
X174343318Y-138631769D01*
X174557519Y-138543044D01*
X174750294Y-138414236D01*
X174914236Y-138250294D01*
X175043044Y-138057519D01*
X175047813Y-138046005D01*
X176612576Y-136481243D01*
X178350001Y-136481243D01*
X178570695Y-136459507D01*
X178623000Y-136443640D01*
X178623000Y-139197394D01*
G37*
G04 #@! TD.AperFunction*
D26*
X170141569Y-135160693D02*
X170307135Y-135177000D01*
X170307136Y-135177000D01*
X170362500Y-135182453D01*
X170417864Y-135177000D01*
X170803430Y-135177000D01*
X170810408Y-135182727D01*
X170962763Y-135264162D01*
X171128078Y-135314310D01*
X171300000Y-135331243D01*
X172200000Y-135331243D01*
X172371922Y-135314310D01*
X172418757Y-135300103D01*
X172418757Y-135400000D01*
X172435690Y-135571922D01*
X172485838Y-135737237D01*
X172567273Y-135889592D01*
X172676867Y-136023133D01*
X172810408Y-136132727D01*
X172962763Y-136214162D01*
X173128078Y-136264310D01*
X173300000Y-136281243D01*
X173624939Y-136281243D01*
X173483182Y-136423000D01*
X170616819Y-136423000D01*
X170556243Y-136362424D01*
X170556243Y-136049999D01*
X170534507Y-135829305D01*
X170470132Y-135617091D01*
X170365594Y-135421515D01*
X170224910Y-135250090D01*
X170100973Y-135148378D01*
X170141569Y-135160693D01*
G04 #@! TA.AperFunction,Conductor*
D27*
G36*
X170141569Y-135160693D02*
G01*
X170307135Y-135177000D01*
X170307136Y-135177000D01*
X170362500Y-135182453D01*
X170417864Y-135177000D01*
X170803430Y-135177000D01*
X170810408Y-135182727D01*
X170962763Y-135264162D01*
X171128078Y-135314310D01*
X171300000Y-135331243D01*
X172200000Y-135331243D01*
X172371922Y-135314310D01*
X172418757Y-135300103D01*
X172418757Y-135400000D01*
X172435690Y-135571922D01*
X172485838Y-135737237D01*
X172567273Y-135889592D01*
X172676867Y-136023133D01*
X172810408Y-136132727D01*
X172962763Y-136214162D01*
X173128078Y-136264310D01*
X173300000Y-136281243D01*
X173624939Y-136281243D01*
X173483182Y-136423000D01*
X170616819Y-136423000D01*
X170556243Y-136362424D01*
X170556243Y-136049999D01*
X170534507Y-135829305D01*
X170470132Y-135617091D01*
X170365594Y-135421515D01*
X170224910Y-135250090D01*
X170100973Y-135148378D01*
X170141569Y-135160693D01*
G37*
G04 #@! TD.AperFunction*
D26*
X175275090Y-127900090D02*
X175134406Y-128071515D01*
X175029868Y-128267091D01*
X174965493Y-128479305D01*
X174943757Y-128699999D01*
X174943757Y-128962424D01*
X173792241Y-130113941D01*
X173749235Y-130149235D01*
X173608400Y-130320843D01*
X173503750Y-130516630D01*
X173439307Y-130729070D01*
X173423000Y-130894636D01*
X173423000Y-130894646D01*
X173417548Y-130950000D01*
X173423000Y-131005354D01*
X173423000Y-131294636D01*
X173423001Y-133683181D01*
X173387424Y-133718757D01*
X173300000Y-133718757D01*
X173128078Y-133735690D01*
X173081243Y-133749897D01*
X173081243Y-133650000D01*
X173064310Y-133478078D01*
X173014162Y-133312763D01*
X172932727Y-133160408D01*
X172823133Y-133026867D01*
X172689592Y-132917273D01*
X172537237Y-132835838D01*
X172371922Y-132785690D01*
X172200000Y-132768757D01*
X171300000Y-132768757D01*
X171128078Y-132785690D01*
X170962763Y-132835838D01*
X170819000Y-132912681D01*
X170656243Y-132749924D01*
X170656243Y-132499999D01*
X170634507Y-132279305D01*
X170570132Y-132067091D01*
X170465594Y-131871515D01*
X170324910Y-131700090D01*
X170153485Y-131559406D01*
X169957909Y-131454868D01*
X169745695Y-131390493D01*
X169525001Y-131368757D01*
X168999999Y-131368757D01*
X168779305Y-131390493D01*
X168567091Y-131454868D01*
X168371515Y-131559406D01*
X168200090Y-131700090D01*
X168059406Y-131871515D01*
X167954868Y-132067091D01*
X167890493Y-132279305D01*
X167868757Y-132499999D01*
X167868757Y-132944487D01*
X167839307Y-133041569D01*
X167823000Y-133207135D01*
X167823000Y-133207146D01*
X167817548Y-133262500D01*
X167823000Y-133317854D01*
X167823000Y-133423000D01*
X166927000Y-133423000D01*
X166927000Y-133384076D01*
X166881769Y-133156682D01*
X166793044Y-132942481D01*
X166664236Y-132749706D01*
X166500294Y-132585764D01*
X166307519Y-132456956D01*
X166117188Y-132378118D01*
X166079162Y-132252763D01*
X165997727Y-132100408D01*
X165888133Y-131966867D01*
X165754592Y-131857273D01*
X165602237Y-131775838D01*
X165436922Y-131725690D01*
X165265000Y-131708757D01*
X164970849Y-131708757D01*
X165839803Y-130839803D01*
X165855597Y-130820557D01*
X165867333Y-130798601D01*
X165874560Y-130774776D01*
X165877000Y-130750000D01*
X165877000Y-129552606D01*
X166793363Y-128636243D01*
X167087500Y-128636243D01*
X167286247Y-128616668D01*
X167318118Y-128607000D01*
X169213182Y-128607000D01*
X169313940Y-128707758D01*
X169349235Y-128750765D01*
X169520843Y-128891600D01*
X169716629Y-128996250D01*
X169929069Y-129060693D01*
X170094635Y-129077000D01*
X170094645Y-129077000D01*
X170149999Y-129082452D01*
X170205354Y-129077000D01*
X170765254Y-129077000D01*
X170825090Y-129149910D01*
X170996514Y-129290595D01*
X171192090Y-129395132D01*
X171404303Y-129459507D01*
X171624997Y-129481243D01*
X172875003Y-129481243D01*
X173095697Y-129459507D01*
X173307910Y-129395132D01*
X173503486Y-129290595D01*
X173674910Y-129149910D01*
X173815595Y-128978486D01*
X173920132Y-128782910D01*
X173984507Y-128570697D01*
X174006243Y-128350003D01*
X174006243Y-128287575D01*
X174416819Y-127877000D01*
X175303225Y-127877000D01*
X175275090Y-127900090D01*
G04 #@! TA.AperFunction,Conductor*
D27*
G36*
X175275090Y-127900090D02*
G01*
X175134406Y-128071515D01*
X175029868Y-128267091D01*
X174965493Y-128479305D01*
X174943757Y-128699999D01*
X174943757Y-128962424D01*
X173792241Y-130113941D01*
X173749235Y-130149235D01*
X173608400Y-130320843D01*
X173503750Y-130516630D01*
X173439307Y-130729070D01*
X173423000Y-130894636D01*
X173423000Y-130894646D01*
X173417548Y-130950000D01*
X173423000Y-131005354D01*
X173423000Y-131294636D01*
X173423001Y-133683181D01*
X173387424Y-133718757D01*
X173300000Y-133718757D01*
X173128078Y-133735690D01*
X173081243Y-133749897D01*
X173081243Y-133650000D01*
X173064310Y-133478078D01*
X173014162Y-133312763D01*
X172932727Y-133160408D01*
X172823133Y-133026867D01*
X172689592Y-132917273D01*
X172537237Y-132835838D01*
X172371922Y-132785690D01*
X172200000Y-132768757D01*
X171300000Y-132768757D01*
X171128078Y-132785690D01*
X170962763Y-132835838D01*
X170819000Y-132912681D01*
X170656243Y-132749924D01*
X170656243Y-132499999D01*
X170634507Y-132279305D01*
X170570132Y-132067091D01*
X170465594Y-131871515D01*
X170324910Y-131700090D01*
X170153485Y-131559406D01*
X169957909Y-131454868D01*
X169745695Y-131390493D01*
X169525001Y-131368757D01*
X168999999Y-131368757D01*
X168779305Y-131390493D01*
X168567091Y-131454868D01*
X168371515Y-131559406D01*
X168200090Y-131700090D01*
X168059406Y-131871515D01*
X167954868Y-132067091D01*
X167890493Y-132279305D01*
X167868757Y-132499999D01*
X167868757Y-132944487D01*
X167839307Y-133041569D01*
X167823000Y-133207135D01*
X167823000Y-133207146D01*
X167817548Y-133262500D01*
X167823000Y-133317854D01*
X167823000Y-133423000D01*
X166927000Y-133423000D01*
X166927000Y-133384076D01*
X166881769Y-133156682D01*
X166793044Y-132942481D01*
X166664236Y-132749706D01*
X166500294Y-132585764D01*
X166307519Y-132456956D01*
X166117188Y-132378118D01*
X166079162Y-132252763D01*
X165997727Y-132100408D01*
X165888133Y-131966867D01*
X165754592Y-131857273D01*
X165602237Y-131775838D01*
X165436922Y-131725690D01*
X165265000Y-131708757D01*
X164970849Y-131708757D01*
X165839803Y-130839803D01*
X165855597Y-130820557D01*
X165867333Y-130798601D01*
X165874560Y-130774776D01*
X165877000Y-130750000D01*
X165877000Y-129552606D01*
X166793363Y-128636243D01*
X167087500Y-128636243D01*
X167286247Y-128616668D01*
X167318118Y-128607000D01*
X169213182Y-128607000D01*
X169313940Y-128707758D01*
X169349235Y-128750765D01*
X169520843Y-128891600D01*
X169716629Y-128996250D01*
X169929069Y-129060693D01*
X170094635Y-129077000D01*
X170094645Y-129077000D01*
X170149999Y-129082452D01*
X170205354Y-129077000D01*
X170765254Y-129077000D01*
X170825090Y-129149910D01*
X170996514Y-129290595D01*
X171192090Y-129395132D01*
X171404303Y-129459507D01*
X171624997Y-129481243D01*
X172875003Y-129481243D01*
X173095697Y-129459507D01*
X173307910Y-129395132D01*
X173503486Y-129290595D01*
X173674910Y-129149910D01*
X173815595Y-128978486D01*
X173920132Y-128782910D01*
X173984507Y-128570697D01*
X174006243Y-128350003D01*
X174006243Y-128287575D01*
X174416819Y-127877000D01*
X175303225Y-127877000D01*
X175275090Y-127900090D01*
G37*
G04 #@! TD.AperFunction*
D26*
X182873000Y-128552606D02*
X182873000Y-129697394D01*
X182447394Y-130123000D01*
X179750000Y-130123000D01*
X179725224Y-130125440D01*
X179701399Y-130132667D01*
X179679443Y-130144403D01*
X179660197Y-130160197D01*
X179289500Y-130530894D01*
X179289500Y-130321206D01*
X179365594Y-130228485D01*
X179470132Y-130032909D01*
X179534507Y-129820695D01*
X179556243Y-129600001D01*
X179556243Y-128699999D01*
X179534507Y-128479305D01*
X179470132Y-128267091D01*
X179365594Y-128071515D01*
X179224910Y-127900090D01*
X179196775Y-127877000D01*
X182197394Y-127877000D01*
X182873000Y-128552606D01*
G04 #@! TA.AperFunction,Conductor*
D27*
G36*
X182873000Y-128552606D02*
G01*
X182873000Y-129697394D01*
X182447394Y-130123000D01*
X179750000Y-130123000D01*
X179725224Y-130125440D01*
X179701399Y-130132667D01*
X179679443Y-130144403D01*
X179660197Y-130160197D01*
X179289500Y-130530894D01*
X179289500Y-130321206D01*
X179365594Y-130228485D01*
X179470132Y-130032909D01*
X179534507Y-129820695D01*
X179556243Y-129600001D01*
X179556243Y-128699999D01*
X179534507Y-128479305D01*
X179470132Y-128267091D01*
X179365594Y-128071515D01*
X179224910Y-127900090D01*
X179196775Y-127877000D01*
X182197394Y-127877000D01*
X182873000Y-128552606D01*
G37*
G04 #@! TD.AperFunction*
G04 #@! TD*
D26*
G04 #@! TO.N,/HVDC_DIV*
X225873000Y-148447394D02*
X223910197Y-150410197D01*
X223894403Y-150429443D01*
X223882667Y-150451399D01*
X223875440Y-150475224D01*
X223873000Y-150500000D01*
X223873000Y-152623000D01*
X208127000Y-152623000D01*
X208127000Y-149750000D01*
X208124560Y-149725224D01*
X208117333Y-149701399D01*
X208105597Y-149679443D01*
X208089803Y-149660197D01*
X206627000Y-148197394D01*
X206627000Y-147627000D01*
X225873000Y-147627000D01*
X225873000Y-148447394D01*
G04 #@! TA.AperFunction,Conductor*
D27*
G36*
X225873000Y-148447394D02*
G01*
X223910197Y-150410197D01*
X223894403Y-150429443D01*
X223882667Y-150451399D01*
X223875440Y-150475224D01*
X223873000Y-150500000D01*
X223873000Y-152623000D01*
X208127000Y-152623000D01*
X208127000Y-149750000D01*
X208124560Y-149725224D01*
X208117333Y-149701399D01*
X208105597Y-149679443D01*
X208089803Y-149660197D01*
X206627000Y-148197394D01*
X206627000Y-147627000D01*
X225873000Y-147627000D01*
X225873000Y-148447394D01*
G37*
G04 #@! TD.AperFunction*
G04 #@! TD*
D26*
G04 #@! TO.N,/GRID_POS*
X206123000Y-150552606D02*
X206123000Y-152197394D01*
X204947394Y-153373000D01*
X203881033Y-153373000D01*
X203855884Y-153347851D01*
X203619532Y-153189926D01*
X200227000Y-149797394D01*
X200227000Y-145877000D01*
X201447394Y-145877000D01*
X206123000Y-150552606D01*
G04 #@! TA.AperFunction,Conductor*
D27*
G36*
X206123000Y-150552606D02*
G01*
X206123000Y-152197394D01*
X204947394Y-153373000D01*
X203881033Y-153373000D01*
X203855884Y-153347851D01*
X203619532Y-153189926D01*
X200227000Y-149797394D01*
X200227000Y-145877000D01*
X201447394Y-145877000D01*
X206123000Y-150552606D01*
G37*
G04 #@! TD.AperFunction*
G04 #@! TD*
D26*
G04 #@! TO.N,/GRID_POS_FUSED*
X226373000Y-145802606D02*
X226373000Y-146373000D01*
X204802606Y-146373000D01*
X203877000Y-145447394D01*
X203877000Y-144802606D01*
X204552606Y-144127000D01*
X224697394Y-144127000D01*
X226373000Y-145802606D01*
G04 #@! TA.AperFunction,Conductor*
D27*
G36*
X226373000Y-145802606D02*
G01*
X226373000Y-146373000D01*
X204802606Y-146373000D01*
X203877000Y-145447394D01*
X203877000Y-144802606D01*
X204552606Y-144127000D01*
X224697394Y-144127000D01*
X226373000Y-145802606D01*
G37*
G04 #@! TD.AperFunction*
G04 #@! TD*
D26*
G04 #@! TO.N,+5P*
X224873000Y-154802606D02*
X224873000Y-155197394D01*
X224447394Y-155623000D01*
X206306606Y-155623000D01*
X208052606Y-153877000D01*
X223947394Y-153877000D01*
X224873000Y-154802606D01*
G04 #@! TA.AperFunction,Conductor*
D27*
G36*
X224873000Y-154802606D02*
G01*
X224873000Y-155197394D01*
X224447394Y-155623000D01*
X206306606Y-155623000D01*
X208052606Y-153877000D01*
X223947394Y-153877000D01*
X224873000Y-154802606D01*
G37*
G04 #@! TD.AperFunction*
G04 #@! TD*
D26*
G04 #@! TO.N,/GRID_POS_FUSED*
X229623000Y-147552606D02*
X229623000Y-152447394D01*
X228697394Y-153373000D01*
X227320390Y-153373000D01*
X226161242Y-151518364D01*
X227589803Y-150089803D01*
X227605597Y-150070557D01*
X227617333Y-150048601D01*
X227624560Y-150024776D01*
X227627000Y-150000000D01*
X227627000Y-147127000D01*
X229197394Y-147127000D01*
X229623000Y-147552606D01*
G04 #@! TA.AperFunction,Conductor*
D27*
G36*
X229623000Y-147552606D02*
G01*
X229623000Y-152447394D01*
X228697394Y-153373000D01*
X227320390Y-153373000D01*
X226161242Y-151518364D01*
X227589803Y-150089803D01*
X227605597Y-150070557D01*
X227617333Y-150048601D01*
X227624560Y-150024776D01*
X227627000Y-150000000D01*
X227627000Y-147127000D01*
X229197394Y-147127000D01*
X229623000Y-147552606D01*
G37*
G04 #@! TD.AperFunction*
G04 #@! TD*
D26*
G04 #@! TO.N,/HVDC_POS_BATT*
X204134383Y-135052553D02*
X204146858Y-135074099D01*
X204163295Y-135092797D01*
X204186990Y-135110267D01*
X207686990Y-137110267D01*
X207709713Y-137120441D01*
X207733984Y-137125986D01*
X207750000Y-137127000D01*
X226947394Y-137127000D01*
X229623000Y-139802606D01*
X229623000Y-144123000D01*
X227552606Y-144123000D01*
X225589803Y-142160197D01*
X225570557Y-142144403D01*
X225548601Y-142132667D01*
X225524776Y-142125440D01*
X225500000Y-142123000D01*
X202553772Y-142123000D01*
X199477000Y-138948553D01*
X199477000Y-132377000D01*
X202918223Y-132377000D01*
X204134383Y-135052553D01*
G04 #@! TA.AperFunction,Conductor*
D27*
G36*
X204134383Y-135052553D02*
G01*
X204146858Y-135074099D01*
X204163295Y-135092797D01*
X204186990Y-135110267D01*
X207686990Y-137110267D01*
X207709713Y-137120441D01*
X207733984Y-137125986D01*
X207750000Y-137127000D01*
X226947394Y-137127000D01*
X229623000Y-139802606D01*
X229623000Y-144123000D01*
X227552606Y-144123000D01*
X225589803Y-142160197D01*
X225570557Y-142144403D01*
X225548601Y-142132667D01*
X225524776Y-142125440D01*
X225500000Y-142123000D01*
X202553772Y-142123000D01*
X199477000Y-138948553D01*
X199477000Y-132377000D01*
X202918223Y-132377000D01*
X204134383Y-135052553D01*
G37*
G04 #@! TD.AperFunction*
G04 #@! TD*
D26*
G04 #@! TO.N,GNDPWR*
X197514160Y-135550000D02*
X197523000Y-135639754D01*
X197523000Y-139940000D01*
X197525440Y-139964776D01*
X197532667Y-139988601D01*
X197544403Y-140010557D01*
X197560197Y-140029803D01*
X198273000Y-140742606D01*
X198273000Y-148373000D01*
X193227000Y-148373000D01*
X193227000Y-146466039D01*
X193187542Y-146065415D01*
X193127000Y-145865835D01*
X193127000Y-145750000D01*
X193124560Y-145725224D01*
X193117917Y-145702833D01*
X192627000Y-144475541D01*
X192627000Y-143706768D01*
X192755219Y-143578549D01*
X193120839Y-143334250D01*
X193584250Y-142870839D01*
X193948349Y-142325925D01*
X194199145Y-141720450D01*
X194327000Y-141077681D01*
X194327000Y-140422319D01*
X194199145Y-139779550D01*
X193948349Y-139174075D01*
X193584250Y-138629161D01*
X193120839Y-138165750D01*
X192755219Y-137921451D01*
X192627000Y-137793232D01*
X192627000Y-132877000D01*
X197514160Y-132877000D01*
X197514160Y-135550000D01*
G04 #@! TA.AperFunction,Conductor*
D27*
G36*
X197514160Y-135550000D02*
G01*
X197523000Y-135639754D01*
X197523000Y-139940000D01*
X197525440Y-139964776D01*
X197532667Y-139988601D01*
X197544403Y-140010557D01*
X197560197Y-140029803D01*
X198273000Y-140742606D01*
X198273000Y-148373000D01*
X193227000Y-148373000D01*
X193227000Y-146466039D01*
X193187542Y-146065415D01*
X193127000Y-145865835D01*
X193127000Y-145750000D01*
X193124560Y-145725224D01*
X193117917Y-145702833D01*
X192627000Y-144475541D01*
X192627000Y-143706768D01*
X192755219Y-143578549D01*
X193120839Y-143334250D01*
X193584250Y-142870839D01*
X193948349Y-142325925D01*
X194199145Y-141720450D01*
X194327000Y-141077681D01*
X194327000Y-140422319D01*
X194199145Y-139779550D01*
X193948349Y-139174075D01*
X193584250Y-138629161D01*
X193120839Y-138165750D01*
X192755219Y-137921451D01*
X192627000Y-137793232D01*
X192627000Y-132877000D01*
X197514160Y-132877000D01*
X197514160Y-135550000D01*
G37*
G04 #@! TD.AperFunction*
G04 #@! TD*
D26*
G04 #@! TO.N,/HVDC_POS_AUX*
X190523000Y-135033960D02*
X190562458Y-135434584D01*
X190623000Y-135634164D01*
X190623000Y-138500000D01*
X190625440Y-138524776D01*
X190632667Y-138548601D01*
X190644403Y-138570557D01*
X190660197Y-138589803D01*
X191873000Y-139802606D01*
X191873000Y-141697394D01*
X190197394Y-143373000D01*
X186000000Y-143373000D01*
X185975224Y-143375440D01*
X185951399Y-143382667D01*
X185929443Y-143394403D01*
X185910197Y-143410197D01*
X184160197Y-145160197D01*
X184144403Y-145179443D01*
X184132667Y-145201399D01*
X184125440Y-145225224D01*
X184123000Y-145250000D01*
X184123000Y-148447394D01*
X183447394Y-149123000D01*
X180127000Y-149123000D01*
X180127000Y-145552606D01*
X185052606Y-140627000D01*
X187500000Y-140627000D01*
X187524776Y-140624560D01*
X187548601Y-140617333D01*
X187570557Y-140605597D01*
X187589803Y-140589803D01*
X188839803Y-139339803D01*
X188855597Y-139320557D01*
X188867333Y-139298601D01*
X188874560Y-139274776D01*
X188877000Y-139250000D01*
X188877000Y-133127000D01*
X190523000Y-133127000D01*
X190523000Y-135033960D01*
G04 #@! TA.AperFunction,Conductor*
D27*
G36*
X190523000Y-135033960D02*
G01*
X190562458Y-135434584D01*
X190623000Y-135634164D01*
X190623000Y-138500000D01*
X190625440Y-138524776D01*
X190632667Y-138548601D01*
X190644403Y-138570557D01*
X190660197Y-138589803D01*
X191873000Y-139802606D01*
X191873000Y-141697394D01*
X190197394Y-143373000D01*
X186000000Y-143373000D01*
X185975224Y-143375440D01*
X185951399Y-143382667D01*
X185929443Y-143394403D01*
X185910197Y-143410197D01*
X184160197Y-145160197D01*
X184144403Y-145179443D01*
X184132667Y-145201399D01*
X184125440Y-145225224D01*
X184123000Y-145250000D01*
X184123000Y-148447394D01*
X183447394Y-149123000D01*
X180127000Y-149123000D01*
X180127000Y-145552606D01*
X185052606Y-140627000D01*
X187500000Y-140627000D01*
X187524776Y-140624560D01*
X187548601Y-140617333D01*
X187570557Y-140605597D01*
X187589803Y-140589803D01*
X188839803Y-139339803D01*
X188855597Y-139320557D01*
X188867333Y-139298601D01*
X188874560Y-139274776D01*
X188877000Y-139250000D01*
X188877000Y-133127000D01*
X190523000Y-133127000D01*
X190523000Y-135033960D01*
G37*
G04 #@! TD.AperFunction*
G04 #@! TD*
D26*
G04 #@! TO.N,GND*
X155359102Y-154091448D02*
X155641959Y-154280447D01*
X155956253Y-154410632D01*
X156289905Y-154477000D01*
X156630095Y-154477000D01*
X156963747Y-154410632D01*
X157278041Y-154280447D01*
X157469122Y-154152771D01*
X157526867Y-154223133D01*
X157660408Y-154332727D01*
X157812763Y-154414162D01*
X157978078Y-154464310D01*
X158150000Y-154481243D01*
X158589151Y-154481243D01*
X157272394Y-155798000D01*
X152927602Y-155798000D01*
X152933371Y-155796250D01*
X153129157Y-155691600D01*
X153300765Y-155550765D01*
X153336059Y-155507759D01*
X154439862Y-154403957D01*
X154738041Y-154280447D01*
X155020898Y-154091448D01*
X155190000Y-153922346D01*
X155359102Y-154091448D01*
G04 #@! TA.AperFunction,Conductor*
D27*
G36*
X155359102Y-154091448D02*
G01*
X155641959Y-154280447D01*
X155956253Y-154410632D01*
X156289905Y-154477000D01*
X156630095Y-154477000D01*
X156963747Y-154410632D01*
X157278041Y-154280447D01*
X157469122Y-154152771D01*
X157526867Y-154223133D01*
X157660408Y-154332727D01*
X157812763Y-154414162D01*
X157978078Y-154464310D01*
X158150000Y-154481243D01*
X158589151Y-154481243D01*
X157272394Y-155798000D01*
X152927602Y-155798000D01*
X152933371Y-155796250D01*
X153129157Y-155691600D01*
X153300765Y-155550765D01*
X153336059Y-155507759D01*
X154439862Y-154403957D01*
X154738041Y-154280447D01*
X155020898Y-154091448D01*
X155190000Y-153922346D01*
X155359102Y-154091448D01*
G37*
G04 #@! TD.AperFunction*
D26*
X146163945Y-155507764D02*
X146199235Y-155550765D01*
X146242236Y-155586055D01*
X146242239Y-155586058D01*
X146370843Y-155691600D01*
X146566629Y-155796250D01*
X146572398Y-155798000D01*
X136795818Y-155798000D01*
X137689862Y-154903957D01*
X137988041Y-154780447D01*
X138270898Y-154591448D01*
X138440000Y-154422346D01*
X138609102Y-154591448D01*
X138891959Y-154780447D01*
X139206253Y-154910632D01*
X139539905Y-154977000D01*
X139880095Y-154977000D01*
X140213747Y-154910632D01*
X140528041Y-154780447D01*
X140719122Y-154652771D01*
X140776867Y-154723133D01*
X140910408Y-154832727D01*
X141062763Y-154914162D01*
X141228078Y-154964310D01*
X141400000Y-154981243D01*
X143100000Y-154981243D01*
X143271922Y-154964310D01*
X143437237Y-154914162D01*
X143589592Y-154832727D01*
X143723133Y-154723133D01*
X143832727Y-154589592D01*
X143914162Y-154437237D01*
X143964310Y-154271922D01*
X143981243Y-154100000D01*
X143981243Y-153325061D01*
X146163945Y-155507764D01*
G04 #@! TA.AperFunction,Conductor*
D27*
G36*
X146163945Y-155507764D02*
G01*
X146199235Y-155550765D01*
X146242236Y-155586055D01*
X146242239Y-155586058D01*
X146370843Y-155691600D01*
X146566629Y-155796250D01*
X146572398Y-155798000D01*
X136795818Y-155798000D01*
X137689862Y-154903957D01*
X137988041Y-154780447D01*
X138270898Y-154591448D01*
X138440000Y-154422346D01*
X138609102Y-154591448D01*
X138891959Y-154780447D01*
X139206253Y-154910632D01*
X139539905Y-154977000D01*
X139880095Y-154977000D01*
X140213747Y-154910632D01*
X140528041Y-154780447D01*
X140719122Y-154652771D01*
X140776867Y-154723133D01*
X140910408Y-154832727D01*
X141062763Y-154914162D01*
X141228078Y-154964310D01*
X141400000Y-154981243D01*
X143100000Y-154981243D01*
X143271922Y-154964310D01*
X143437237Y-154914162D01*
X143589592Y-154832727D01*
X143723133Y-154723133D01*
X143832727Y-154589592D01*
X143914162Y-154437237D01*
X143964310Y-154271922D01*
X143981243Y-154100000D01*
X143981243Y-153325061D01*
X146163945Y-155507764D01*
G37*
G04 #@! TD.AperFunction*
D26*
X112703624Y-126702557D02*
X109242241Y-130163941D01*
X109199235Y-130199235D01*
X109058400Y-130370843D01*
X108953750Y-130566630D01*
X108889307Y-130779070D01*
X108873000Y-130944636D01*
X108873000Y-130944646D01*
X108867548Y-131000000D01*
X108873000Y-131055354D01*
X108873000Y-131783181D01*
X100492242Y-140163940D01*
X100449235Y-140199235D01*
X100308400Y-140370843D01*
X100203750Y-140566630D01*
X100139307Y-140779070D01*
X100123000Y-140944636D01*
X100123000Y-140944646D01*
X100117548Y-141000000D01*
X100123000Y-141055355D01*
X100123001Y-143145167D01*
X100118231Y-143156682D01*
X100073000Y-143384076D01*
X100073000Y-143615924D01*
X100118231Y-143843318D01*
X100206956Y-144057519D01*
X100335764Y-144250294D01*
X100423959Y-144338489D01*
X100319102Y-144408552D01*
X100078552Y-144649102D01*
X99889553Y-144931959D01*
X99759368Y-145246253D01*
X99693000Y-145579905D01*
X99693000Y-145920095D01*
X99759368Y-146253747D01*
X99889553Y-146568041D01*
X100078552Y-146850898D01*
X100293001Y-147065347D01*
X100293000Y-147684654D01*
X100078552Y-147899102D01*
X99889553Y-148181959D01*
X99759368Y-148496253D01*
X99693000Y-148829905D01*
X99693000Y-149170095D01*
X99759368Y-149503747D01*
X99889553Y-149818041D01*
X100078552Y-150100898D01*
X100319102Y-150341448D01*
X100601959Y-150530447D01*
X100916253Y-150660632D01*
X101249905Y-150727000D01*
X101590095Y-150727000D01*
X101923747Y-150660632D01*
X102238041Y-150530447D01*
X102520898Y-150341448D01*
X102690000Y-150172346D01*
X102859102Y-150341448D01*
X103141959Y-150530447D01*
X103456253Y-150660632D01*
X103789905Y-150727000D01*
X104130095Y-150727000D01*
X104463747Y-150660632D01*
X104778041Y-150530447D01*
X104969122Y-150402771D01*
X105026867Y-150473133D01*
X105160408Y-150582727D01*
X105312763Y-150664162D01*
X105478078Y-150714310D01*
X105650000Y-150731243D01*
X107350000Y-150731243D01*
X107521922Y-150714310D01*
X107687237Y-150664162D01*
X107839592Y-150582727D01*
X107973133Y-150473133D01*
X108082727Y-150339592D01*
X108164162Y-150187237D01*
X108214310Y-150021922D01*
X108231243Y-149850000D01*
X108231243Y-148150000D01*
X108214310Y-147978078D01*
X108164162Y-147812763D01*
X108082727Y-147660408D01*
X107973133Y-147526867D01*
X107839592Y-147417273D01*
X107687237Y-147335838D01*
X107521922Y-147285690D01*
X107350000Y-147268757D01*
X107335536Y-147268757D01*
X107600898Y-147091448D01*
X107841448Y-146850898D01*
X108030447Y-146568041D01*
X108160632Y-146253747D01*
X108227000Y-145920095D01*
X108227000Y-145579905D01*
X108225489Y-145572311D01*
X108242237Y-145586055D01*
X111953246Y-149297065D01*
X111459845Y-149395208D01*
X110966858Y-149599410D01*
X110523181Y-149895866D01*
X110145866Y-150273181D01*
X109849410Y-150716858D01*
X109645208Y-151209845D01*
X109541107Y-151733197D01*
X109541107Y-152266803D01*
X109645208Y-152790155D01*
X109849410Y-153283142D01*
X110145866Y-153726819D01*
X110523181Y-154104134D01*
X110966858Y-154400590D01*
X111459845Y-154604792D01*
X111983197Y-154708893D01*
X112516803Y-154708893D01*
X113040155Y-154604792D01*
X113533142Y-154400590D01*
X113976819Y-154104134D01*
X114354134Y-153726819D01*
X114650590Y-153283142D01*
X114854792Y-152790155D01*
X114952935Y-152296754D01*
X115788945Y-153132764D01*
X115824235Y-153175765D01*
X115867236Y-153211055D01*
X115867239Y-153211058D01*
X115995842Y-153316600D01*
X116100492Y-153372536D01*
X116191629Y-153421250D01*
X116404069Y-153485693D01*
X116569635Y-153502000D01*
X116569645Y-153502000D01*
X116624999Y-153507452D01*
X116680354Y-153502000D01*
X120283182Y-153502000D01*
X122579181Y-155798000D01*
X101977606Y-155798000D01*
X98202536Y-152022930D01*
X98209341Y-133296747D01*
X98272010Y-132657596D01*
X101300876Y-129628730D01*
X101294719Y-129659684D01*
X101294719Y-130340316D01*
X101427503Y-131007868D01*
X101687969Y-131636689D01*
X102066108Y-132202613D01*
X102547387Y-132683892D01*
X103113311Y-133062031D01*
X103742132Y-133322497D01*
X104409684Y-133455281D01*
X105090316Y-133455281D01*
X105757868Y-133322497D01*
X106386689Y-133062031D01*
X106952613Y-132683892D01*
X107433892Y-132202613D01*
X107812031Y-131636689D01*
X108072497Y-131007868D01*
X108205281Y-130340316D01*
X108205281Y-129659684D01*
X108072497Y-128992132D01*
X107812031Y-128363311D01*
X107433892Y-127797387D01*
X106952613Y-127316108D01*
X106386689Y-126937969D01*
X105817188Y-126702074D01*
X112703624Y-126702557D01*
G04 #@! TA.AperFunction,Conductor*
D27*
G36*
X112703624Y-126702557D02*
G01*
X109242241Y-130163941D01*
X109199235Y-130199235D01*
X109058400Y-130370843D01*
X108953750Y-130566630D01*
X108889307Y-130779070D01*
X108873000Y-130944636D01*
X108873000Y-130944646D01*
X108867548Y-131000000D01*
X108873000Y-131055354D01*
X108873000Y-131783181D01*
X100492242Y-140163940D01*
X100449235Y-140199235D01*
X100308400Y-140370843D01*
X100203750Y-140566630D01*
X100139307Y-140779070D01*
X100123000Y-140944636D01*
X100123000Y-140944646D01*
X100117548Y-141000000D01*
X100123000Y-141055355D01*
X100123001Y-143145167D01*
X100118231Y-143156682D01*
X100073000Y-143384076D01*
X100073000Y-143615924D01*
X100118231Y-143843318D01*
X100206956Y-144057519D01*
X100335764Y-144250294D01*
X100423959Y-144338489D01*
X100319102Y-144408552D01*
X100078552Y-144649102D01*
X99889553Y-144931959D01*
X99759368Y-145246253D01*
X99693000Y-145579905D01*
X99693000Y-145920095D01*
X99759368Y-146253747D01*
X99889553Y-146568041D01*
X100078552Y-146850898D01*
X100293001Y-147065347D01*
X100293000Y-147684654D01*
X100078552Y-147899102D01*
X99889553Y-148181959D01*
X99759368Y-148496253D01*
X99693000Y-148829905D01*
X99693000Y-149170095D01*
X99759368Y-149503747D01*
X99889553Y-149818041D01*
X100078552Y-150100898D01*
X100319102Y-150341448D01*
X100601959Y-150530447D01*
X100916253Y-150660632D01*
X101249905Y-150727000D01*
X101590095Y-150727000D01*
X101923747Y-150660632D01*
X102238041Y-150530447D01*
X102520898Y-150341448D01*
X102690000Y-150172346D01*
X102859102Y-150341448D01*
X103141959Y-150530447D01*
X103456253Y-150660632D01*
X103789905Y-150727000D01*
X104130095Y-150727000D01*
X104463747Y-150660632D01*
X104778041Y-150530447D01*
X104969122Y-150402771D01*
X105026867Y-150473133D01*
X105160408Y-150582727D01*
X105312763Y-150664162D01*
X105478078Y-150714310D01*
X105650000Y-150731243D01*
X107350000Y-150731243D01*
X107521922Y-150714310D01*
X107687237Y-150664162D01*
X107839592Y-150582727D01*
X107973133Y-150473133D01*
X108082727Y-150339592D01*
X108164162Y-150187237D01*
X108214310Y-150021922D01*
X108231243Y-149850000D01*
X108231243Y-148150000D01*
X108214310Y-147978078D01*
X108164162Y-147812763D01*
X108082727Y-147660408D01*
X107973133Y-147526867D01*
X107839592Y-147417273D01*
X107687237Y-147335838D01*
X107521922Y-147285690D01*
X107350000Y-147268757D01*
X107335536Y-147268757D01*
X107600898Y-147091448D01*
X107841448Y-146850898D01*
X108030447Y-146568041D01*
X108160632Y-146253747D01*
X108227000Y-145920095D01*
X108227000Y-145579905D01*
X108225489Y-145572311D01*
X108242237Y-145586055D01*
X111953246Y-149297065D01*
X111459845Y-149395208D01*
X110966858Y-149599410D01*
X110523181Y-149895866D01*
X110145866Y-150273181D01*
X109849410Y-150716858D01*
X109645208Y-151209845D01*
X109541107Y-151733197D01*
X109541107Y-152266803D01*
X109645208Y-152790155D01*
X109849410Y-153283142D01*
X110145866Y-153726819D01*
X110523181Y-154104134D01*
X110966858Y-154400590D01*
X111459845Y-154604792D01*
X111983197Y-154708893D01*
X112516803Y-154708893D01*
X113040155Y-154604792D01*
X113533142Y-154400590D01*
X113976819Y-154104134D01*
X114354134Y-153726819D01*
X114650590Y-153283142D01*
X114854792Y-152790155D01*
X114952935Y-152296754D01*
X115788945Y-153132764D01*
X115824235Y-153175765D01*
X115867236Y-153211055D01*
X115867239Y-153211058D01*
X115995842Y-153316600D01*
X116100492Y-153372536D01*
X116191629Y-153421250D01*
X116404069Y-153485693D01*
X116569635Y-153502000D01*
X116569645Y-153502000D01*
X116624999Y-153507452D01*
X116680354Y-153502000D01*
X120283182Y-153502000D01*
X122579181Y-155798000D01*
X101977606Y-155798000D01*
X98202536Y-152022930D01*
X98209341Y-133296747D01*
X98272010Y-132657596D01*
X101300876Y-129628730D01*
X101294719Y-129659684D01*
X101294719Y-130340316D01*
X101427503Y-131007868D01*
X101687969Y-131636689D01*
X102066108Y-132202613D01*
X102547387Y-132683892D01*
X103113311Y-133062031D01*
X103742132Y-133322497D01*
X104409684Y-133455281D01*
X105090316Y-133455281D01*
X105757868Y-133322497D01*
X106386689Y-133062031D01*
X106952613Y-132683892D01*
X107433892Y-132202613D01*
X107812031Y-131636689D01*
X108072497Y-131007868D01*
X108205281Y-130340316D01*
X108205281Y-129659684D01*
X108072497Y-128992132D01*
X107812031Y-128363311D01*
X107433892Y-127797387D01*
X106952613Y-127316108D01*
X106386689Y-126937969D01*
X105817188Y-126702074D01*
X112703624Y-126702557D01*
G37*
G04 #@! TD.AperFunction*
D26*
X127823000Y-153116819D02*
X127823000Y-153420095D01*
X127889368Y-153753747D01*
X128019553Y-154068041D01*
X128056275Y-154123000D01*
X124091819Y-154123000D01*
X122345818Y-152377000D01*
X127083182Y-152377000D01*
X127823000Y-153116819D01*
G04 #@! TA.AperFunction,Conductor*
D27*
G36*
X127823000Y-153116819D02*
G01*
X127823000Y-153420095D01*
X127889368Y-153753747D01*
X128019553Y-154068041D01*
X128056275Y-154123000D01*
X124091819Y-154123000D01*
X122345818Y-152377000D01*
X127083182Y-152377000D01*
X127823000Y-153116819D01*
G37*
G04 #@! TD.AperFunction*
D26*
X153279069Y-136610693D02*
X153353757Y-136618049D01*
X153353757Y-136910000D01*
X153370690Y-137081922D01*
X153420838Y-137247237D01*
X153502273Y-137399592D01*
X153611867Y-137533133D01*
X153745408Y-137642727D01*
X153897763Y-137724162D01*
X154063078Y-137774310D01*
X154235000Y-137791243D01*
X154976385Y-137791243D01*
X154808871Y-137958757D01*
X154235000Y-137958757D01*
X154063078Y-137975690D01*
X153897763Y-138025838D01*
X153745408Y-138107273D01*
X153611867Y-138216867D01*
X153502273Y-138350408D01*
X153420838Y-138502763D01*
X153370690Y-138668078D01*
X153353757Y-138840000D01*
X153353757Y-140259939D01*
X153001511Y-139907693D01*
X152995608Y-139888234D01*
X152891647Y-139693737D01*
X152751740Y-139523260D01*
X152581263Y-139383353D01*
X152386766Y-139279392D01*
X152175725Y-139215373D01*
X151956250Y-139193757D01*
X151043750Y-139193757D01*
X150824275Y-139215373D01*
X150613234Y-139279392D01*
X150418737Y-139383353D01*
X150248260Y-139523260D01*
X150108353Y-139693737D01*
X150004392Y-139888234D01*
X149940373Y-140099275D01*
X149918757Y-140318750D01*
X149918757Y-140806250D01*
X149940373Y-141025725D01*
X150004392Y-141236766D01*
X150108353Y-141431263D01*
X150164764Y-141500000D01*
X150108353Y-141568737D01*
X150004392Y-141763234D01*
X149940373Y-141974275D01*
X149918757Y-142193750D01*
X149918757Y-142681250D01*
X149940373Y-142900725D01*
X150004392Y-143111766D01*
X150108353Y-143306263D01*
X150248260Y-143476740D01*
X150373000Y-143579112D01*
X150373001Y-143674219D01*
X150250090Y-143775090D01*
X150109405Y-143946514D01*
X150004868Y-144142091D01*
X149940493Y-144354304D01*
X149918757Y-144574998D01*
X149918757Y-145100002D01*
X149940493Y-145320696D01*
X149982903Y-145460500D01*
X149921206Y-145460500D01*
X149828485Y-145384406D01*
X149632909Y-145279868D01*
X149420695Y-145215493D01*
X149200001Y-145193757D01*
X148299999Y-145193757D01*
X148079305Y-145215493D01*
X147867091Y-145279868D01*
X147671515Y-145384406D01*
X147500090Y-145525090D01*
X147359406Y-145696515D01*
X147254868Y-145892091D01*
X147190493Y-146104305D01*
X147168757Y-146324999D01*
X147168757Y-146850001D01*
X147190493Y-147070695D01*
X147254868Y-147282909D01*
X147256253Y-147285500D01*
X147129319Y-147285500D01*
X147056243Y-147212424D01*
X147056243Y-146799999D01*
X147034507Y-146579305D01*
X146970132Y-146367091D01*
X146865594Y-146171515D01*
X146724910Y-146000090D01*
X146553485Y-145859406D01*
X146357909Y-145754868D01*
X146145695Y-145690493D01*
X145925001Y-145668757D01*
X145425061Y-145668757D01*
X147862576Y-143231243D01*
X148850000Y-143231243D01*
X149021922Y-143214310D01*
X149187237Y-143164162D01*
X149339592Y-143082727D01*
X149473133Y-142973133D01*
X149582727Y-142839592D01*
X149664162Y-142687237D01*
X149714310Y-142521922D01*
X149731243Y-142350000D01*
X149731243Y-140650000D01*
X149714310Y-140478078D01*
X149664162Y-140312763D01*
X149582727Y-140160408D01*
X149473133Y-140026867D01*
X149339592Y-139917273D01*
X149187237Y-139835838D01*
X149021922Y-139785690D01*
X148850000Y-139768757D01*
X147150000Y-139768757D01*
X146978078Y-139785690D01*
X146812763Y-139835838D01*
X146660408Y-139917273D01*
X146526867Y-140026867D01*
X146417273Y-140160408D01*
X146335838Y-140312763D01*
X146285690Y-140478078D01*
X146268757Y-140650000D01*
X146268757Y-141637424D01*
X143079737Y-144826445D01*
X143036736Y-144861735D01*
X143001446Y-144904736D01*
X143001442Y-144904740D01*
X142895900Y-145033344D01*
X142791250Y-145229130D01*
X142776101Y-145279070D01*
X142726807Y-145441569D01*
X142710500Y-145607135D01*
X142710500Y-145607146D01*
X142705048Y-145662500D01*
X142710500Y-145717854D01*
X142710500Y-146078794D01*
X142634406Y-146171515D01*
X142529868Y-146367091D01*
X142465493Y-146579305D01*
X142443757Y-146799999D01*
X142443757Y-147700001D01*
X142465493Y-147920695D01*
X142529868Y-148132909D01*
X142634406Y-148328485D01*
X142775090Y-148499910D01*
X142946515Y-148640594D01*
X143142091Y-148745132D01*
X143354305Y-148809507D01*
X143574999Y-148831243D01*
X144100001Y-148831243D01*
X144320695Y-148809507D01*
X144532909Y-148745132D01*
X144728485Y-148640594D01*
X144750000Y-148622937D01*
X144771515Y-148640594D01*
X144967091Y-148745132D01*
X145179305Y-148809507D01*
X145399999Y-148831243D01*
X145487424Y-148831243D01*
X145826445Y-149170264D01*
X145861735Y-149213265D01*
X145904736Y-149248555D01*
X145904739Y-149248558D01*
X146033343Y-149354100D01*
X146229129Y-149458750D01*
X146441569Y-149523193D01*
X146662500Y-149544953D01*
X146717864Y-149539500D01*
X147578794Y-149539500D01*
X147623001Y-149575779D01*
X147623000Y-149628704D01*
X147475090Y-149750090D01*
X147334406Y-149921515D01*
X147229868Y-150117092D01*
X147165494Y-150329305D01*
X147143757Y-150550000D01*
X147143757Y-151050000D01*
X147165494Y-151270695D01*
X147229868Y-151482908D01*
X147334406Y-151678485D01*
X147475090Y-151849910D01*
X147646515Y-151990594D01*
X147842092Y-152095132D01*
X148054305Y-152159506D01*
X148275000Y-152181243D01*
X149225000Y-152181243D01*
X149445695Y-152159506D01*
X149657908Y-152095132D01*
X149853485Y-151990594D01*
X150024910Y-151849910D01*
X150165594Y-151678485D01*
X150270132Y-151482908D01*
X150334506Y-151270695D01*
X150356243Y-151050000D01*
X150356243Y-150550000D01*
X150334506Y-150329305D01*
X150270132Y-150117092D01*
X150165594Y-149921515D01*
X150024910Y-149750090D01*
X149877000Y-149628704D01*
X149877000Y-149575779D01*
X149999910Y-149474910D01*
X150140594Y-149303485D01*
X150245132Y-149107909D01*
X150309507Y-148895695D01*
X150331243Y-148675001D01*
X150331243Y-148149999D01*
X150309507Y-147929305D01*
X150245987Y-147719911D01*
X150250090Y-147724910D01*
X150421514Y-147865595D01*
X150617091Y-147970132D01*
X150829304Y-148034507D01*
X151049998Y-148056243D01*
X151312529Y-148056243D01*
X151370843Y-148104100D01*
X151566629Y-148208750D01*
X151779069Y-148273193D01*
X151944635Y-148289500D01*
X151944643Y-148289500D01*
X152000000Y-148294952D01*
X152055357Y-148289500D01*
X153828793Y-148289500D01*
X153921514Y-148365595D01*
X154117091Y-148470132D01*
X154329304Y-148534507D01*
X154549998Y-148556243D01*
X155440682Y-148556243D01*
X155413750Y-148606630D01*
X155349307Y-148819070D01*
X155333000Y-148984636D01*
X155333000Y-148984646D01*
X155327548Y-149040000D01*
X155333000Y-149095355D01*
X155333001Y-151434653D01*
X155190000Y-151577654D01*
X155020898Y-151408552D01*
X154738041Y-151219553D01*
X154423747Y-151089368D01*
X154090095Y-151023000D01*
X153749905Y-151023000D01*
X153416253Y-151089368D01*
X153101959Y-151219553D01*
X152819102Y-151408552D01*
X152578552Y-151649102D01*
X152389553Y-151931959D01*
X152259368Y-152246253D01*
X152193000Y-152579905D01*
X152193000Y-152920095D01*
X152259368Y-153253747D01*
X152301271Y-153354910D01*
X152033182Y-153623000D01*
X147466819Y-153623000D01*
X143961057Y-150117239D01*
X143925765Y-150074235D01*
X143754157Y-149933400D01*
X143558371Y-149828750D01*
X143345931Y-149764307D01*
X143180365Y-149748000D01*
X143180354Y-149748000D01*
X143125000Y-149742548D01*
X143069646Y-149748000D01*
X142341819Y-149748000D01*
X141127000Y-148533182D01*
X141127000Y-145216818D01*
X144507764Y-141836055D01*
X144550765Y-141800765D01*
X144586055Y-141757764D01*
X144586058Y-141757761D01*
X144691600Y-141629157D01*
X144796250Y-141433371D01*
X144860693Y-141220931D01*
X144867212Y-141154740D01*
X144877000Y-141055365D01*
X144877000Y-141055357D01*
X144882452Y-141000000D01*
X144877000Y-140944643D01*
X144877000Y-139306243D01*
X144950002Y-139306243D01*
X145170696Y-139284507D01*
X145382909Y-139220132D01*
X145578486Y-139115595D01*
X145749910Y-138974910D01*
X145890595Y-138803486D01*
X145995132Y-138607909D01*
X146059507Y-138395696D01*
X146081243Y-138175002D01*
X146081243Y-137649998D01*
X146059507Y-137429304D01*
X145995132Y-137217091D01*
X145993747Y-137214500D01*
X146506253Y-137214500D01*
X146504868Y-137217091D01*
X146440493Y-137429304D01*
X146418757Y-137649998D01*
X146418757Y-138175002D01*
X146440493Y-138395696D01*
X146504868Y-138607909D01*
X146609405Y-138803486D01*
X146750090Y-138974910D01*
X146921514Y-139115595D01*
X147117091Y-139220132D01*
X147329304Y-139284507D01*
X147549998Y-139306243D01*
X148450002Y-139306243D01*
X148670696Y-139284507D01*
X148882909Y-139220132D01*
X149078486Y-139115595D01*
X149171207Y-139039500D01*
X149782146Y-139039500D01*
X149837500Y-139044952D01*
X149892854Y-139039500D01*
X149892865Y-139039500D01*
X150058431Y-139023193D01*
X150270871Y-138958750D01*
X150466657Y-138854100D01*
X150638265Y-138713265D01*
X150673559Y-138670259D01*
X151287576Y-138056243D01*
X151956250Y-138056243D01*
X152175725Y-138034627D01*
X152386766Y-137970608D01*
X152581263Y-137866647D01*
X152751740Y-137726740D01*
X152891647Y-137556263D01*
X152995608Y-137361766D01*
X153059627Y-137150725D01*
X153081243Y-136931250D01*
X153081243Y-136550683D01*
X153279069Y-136610693D01*
G04 #@! TA.AperFunction,Conductor*
D27*
G36*
X153279069Y-136610693D02*
G01*
X153353757Y-136618049D01*
X153353757Y-136910000D01*
X153370690Y-137081922D01*
X153420838Y-137247237D01*
X153502273Y-137399592D01*
X153611867Y-137533133D01*
X153745408Y-137642727D01*
X153897763Y-137724162D01*
X154063078Y-137774310D01*
X154235000Y-137791243D01*
X154976385Y-137791243D01*
X154808871Y-137958757D01*
X154235000Y-137958757D01*
X154063078Y-137975690D01*
X153897763Y-138025838D01*
X153745408Y-138107273D01*
X153611867Y-138216867D01*
X153502273Y-138350408D01*
X153420838Y-138502763D01*
X153370690Y-138668078D01*
X153353757Y-138840000D01*
X153353757Y-140259939D01*
X153001511Y-139907693D01*
X152995608Y-139888234D01*
X152891647Y-139693737D01*
X152751740Y-139523260D01*
X152581263Y-139383353D01*
X152386766Y-139279392D01*
X152175725Y-139215373D01*
X151956250Y-139193757D01*
X151043750Y-139193757D01*
X150824275Y-139215373D01*
X150613234Y-139279392D01*
X150418737Y-139383353D01*
X150248260Y-139523260D01*
X150108353Y-139693737D01*
X150004392Y-139888234D01*
X149940373Y-140099275D01*
X149918757Y-140318750D01*
X149918757Y-140806250D01*
X149940373Y-141025725D01*
X150004392Y-141236766D01*
X150108353Y-141431263D01*
X150164764Y-141500000D01*
X150108353Y-141568737D01*
X150004392Y-141763234D01*
X149940373Y-141974275D01*
X149918757Y-142193750D01*
X149918757Y-142681250D01*
X149940373Y-142900725D01*
X150004392Y-143111766D01*
X150108353Y-143306263D01*
X150248260Y-143476740D01*
X150373000Y-143579112D01*
X150373001Y-143674219D01*
X150250090Y-143775090D01*
X150109405Y-143946514D01*
X150004868Y-144142091D01*
X149940493Y-144354304D01*
X149918757Y-144574998D01*
X149918757Y-145100002D01*
X149940493Y-145320696D01*
X149982903Y-145460500D01*
X149921206Y-145460500D01*
X149828485Y-145384406D01*
X149632909Y-145279868D01*
X149420695Y-145215493D01*
X149200001Y-145193757D01*
X148299999Y-145193757D01*
X148079305Y-145215493D01*
X147867091Y-145279868D01*
X147671515Y-145384406D01*
X147500090Y-145525090D01*
X147359406Y-145696515D01*
X147254868Y-145892091D01*
X147190493Y-146104305D01*
X147168757Y-146324999D01*
X147168757Y-146850001D01*
X147190493Y-147070695D01*
X147254868Y-147282909D01*
X147256253Y-147285500D01*
X147129319Y-147285500D01*
X147056243Y-147212424D01*
X147056243Y-146799999D01*
X147034507Y-146579305D01*
X146970132Y-146367091D01*
X146865594Y-146171515D01*
X146724910Y-146000090D01*
X146553485Y-145859406D01*
X146357909Y-145754868D01*
X146145695Y-145690493D01*
X145925001Y-145668757D01*
X145425061Y-145668757D01*
X147862576Y-143231243D01*
X148850000Y-143231243D01*
X149021922Y-143214310D01*
X149187237Y-143164162D01*
X149339592Y-143082727D01*
X149473133Y-142973133D01*
X149582727Y-142839592D01*
X149664162Y-142687237D01*
X149714310Y-142521922D01*
X149731243Y-142350000D01*
X149731243Y-140650000D01*
X149714310Y-140478078D01*
X149664162Y-140312763D01*
X149582727Y-140160408D01*
X149473133Y-140026867D01*
X149339592Y-139917273D01*
X149187237Y-139835838D01*
X149021922Y-139785690D01*
X148850000Y-139768757D01*
X147150000Y-139768757D01*
X146978078Y-139785690D01*
X146812763Y-139835838D01*
X146660408Y-139917273D01*
X146526867Y-140026867D01*
X146417273Y-140160408D01*
X146335838Y-140312763D01*
X146285690Y-140478078D01*
X146268757Y-140650000D01*
X146268757Y-141637424D01*
X143079737Y-144826445D01*
X143036736Y-144861735D01*
X143001446Y-144904736D01*
X143001442Y-144904740D01*
X142895900Y-145033344D01*
X142791250Y-145229130D01*
X142776101Y-145279070D01*
X142726807Y-145441569D01*
X142710500Y-145607135D01*
X142710500Y-145607146D01*
X142705048Y-145662500D01*
X142710500Y-145717854D01*
X142710500Y-146078794D01*
X142634406Y-146171515D01*
X142529868Y-146367091D01*
X142465493Y-146579305D01*
X142443757Y-146799999D01*
X142443757Y-147700001D01*
X142465493Y-147920695D01*
X142529868Y-148132909D01*
X142634406Y-148328485D01*
X142775090Y-148499910D01*
X142946515Y-148640594D01*
X143142091Y-148745132D01*
X143354305Y-148809507D01*
X143574999Y-148831243D01*
X144100001Y-148831243D01*
X144320695Y-148809507D01*
X144532909Y-148745132D01*
X144728485Y-148640594D01*
X144750000Y-148622937D01*
X144771515Y-148640594D01*
X144967091Y-148745132D01*
X145179305Y-148809507D01*
X145399999Y-148831243D01*
X145487424Y-148831243D01*
X145826445Y-149170264D01*
X145861735Y-149213265D01*
X145904736Y-149248555D01*
X145904739Y-149248558D01*
X146033343Y-149354100D01*
X146229129Y-149458750D01*
X146441569Y-149523193D01*
X146662500Y-149544953D01*
X146717864Y-149539500D01*
X147578794Y-149539500D01*
X147623001Y-149575779D01*
X147623000Y-149628704D01*
X147475090Y-149750090D01*
X147334406Y-149921515D01*
X147229868Y-150117092D01*
X147165494Y-150329305D01*
X147143757Y-150550000D01*
X147143757Y-151050000D01*
X147165494Y-151270695D01*
X147229868Y-151482908D01*
X147334406Y-151678485D01*
X147475090Y-151849910D01*
X147646515Y-151990594D01*
X147842092Y-152095132D01*
X148054305Y-152159506D01*
X148275000Y-152181243D01*
X149225000Y-152181243D01*
X149445695Y-152159506D01*
X149657908Y-152095132D01*
X149853485Y-151990594D01*
X150024910Y-151849910D01*
X150165594Y-151678485D01*
X150270132Y-151482908D01*
X150334506Y-151270695D01*
X150356243Y-151050000D01*
X150356243Y-150550000D01*
X150334506Y-150329305D01*
X150270132Y-150117092D01*
X150165594Y-149921515D01*
X150024910Y-149750090D01*
X149877000Y-149628704D01*
X149877000Y-149575779D01*
X149999910Y-149474910D01*
X150140594Y-149303485D01*
X150245132Y-149107909D01*
X150309507Y-148895695D01*
X150331243Y-148675001D01*
X150331243Y-148149999D01*
X150309507Y-147929305D01*
X150245987Y-147719911D01*
X150250090Y-147724910D01*
X150421514Y-147865595D01*
X150617091Y-147970132D01*
X150829304Y-148034507D01*
X151049998Y-148056243D01*
X151312529Y-148056243D01*
X151370843Y-148104100D01*
X151566629Y-148208750D01*
X151779069Y-148273193D01*
X151944635Y-148289500D01*
X151944643Y-148289500D01*
X152000000Y-148294952D01*
X152055357Y-148289500D01*
X153828793Y-148289500D01*
X153921514Y-148365595D01*
X154117091Y-148470132D01*
X154329304Y-148534507D01*
X154549998Y-148556243D01*
X155440682Y-148556243D01*
X155413750Y-148606630D01*
X155349307Y-148819070D01*
X155333000Y-148984636D01*
X155333000Y-148984646D01*
X155327548Y-149040000D01*
X155333000Y-149095355D01*
X155333001Y-151434653D01*
X155190000Y-151577654D01*
X155020898Y-151408552D01*
X154738041Y-151219553D01*
X154423747Y-151089368D01*
X154090095Y-151023000D01*
X153749905Y-151023000D01*
X153416253Y-151089368D01*
X153101959Y-151219553D01*
X152819102Y-151408552D01*
X152578552Y-151649102D01*
X152389553Y-151931959D01*
X152259368Y-152246253D01*
X152193000Y-152579905D01*
X152193000Y-152920095D01*
X152259368Y-153253747D01*
X152301271Y-153354910D01*
X152033182Y-153623000D01*
X147466819Y-153623000D01*
X143961057Y-150117239D01*
X143925765Y-150074235D01*
X143754157Y-149933400D01*
X143558371Y-149828750D01*
X143345931Y-149764307D01*
X143180365Y-149748000D01*
X143180354Y-149748000D01*
X143125000Y-149742548D01*
X143069646Y-149748000D01*
X142341819Y-149748000D01*
X141127000Y-148533182D01*
X141127000Y-145216818D01*
X144507764Y-141836055D01*
X144550765Y-141800765D01*
X144586055Y-141757764D01*
X144586058Y-141757761D01*
X144691600Y-141629157D01*
X144796250Y-141433371D01*
X144860693Y-141220931D01*
X144867212Y-141154740D01*
X144877000Y-141055365D01*
X144877000Y-141055357D01*
X144882452Y-141000000D01*
X144877000Y-140944643D01*
X144877000Y-139306243D01*
X144950002Y-139306243D01*
X145170696Y-139284507D01*
X145382909Y-139220132D01*
X145578486Y-139115595D01*
X145749910Y-138974910D01*
X145890595Y-138803486D01*
X145995132Y-138607909D01*
X146059507Y-138395696D01*
X146081243Y-138175002D01*
X146081243Y-137649998D01*
X146059507Y-137429304D01*
X145995132Y-137217091D01*
X145993747Y-137214500D01*
X146506253Y-137214500D01*
X146504868Y-137217091D01*
X146440493Y-137429304D01*
X146418757Y-137649998D01*
X146418757Y-138175002D01*
X146440493Y-138395696D01*
X146504868Y-138607909D01*
X146609405Y-138803486D01*
X146750090Y-138974910D01*
X146921514Y-139115595D01*
X147117091Y-139220132D01*
X147329304Y-139284507D01*
X147549998Y-139306243D01*
X148450002Y-139306243D01*
X148670696Y-139284507D01*
X148882909Y-139220132D01*
X149078486Y-139115595D01*
X149171207Y-139039500D01*
X149782146Y-139039500D01*
X149837500Y-139044952D01*
X149892854Y-139039500D01*
X149892865Y-139039500D01*
X150058431Y-139023193D01*
X150270871Y-138958750D01*
X150466657Y-138854100D01*
X150638265Y-138713265D01*
X150673559Y-138670259D01*
X151287576Y-138056243D01*
X151956250Y-138056243D01*
X152175725Y-138034627D01*
X152386766Y-137970608D01*
X152581263Y-137866647D01*
X152751740Y-137726740D01*
X152891647Y-137556263D01*
X152995608Y-137361766D01*
X153059627Y-137150725D01*
X153081243Y-136931250D01*
X153081243Y-136550683D01*
X153279069Y-136610693D01*
G37*
G04 #@! TD.AperFunction*
D26*
X139242241Y-143913941D02*
X139199235Y-143949235D01*
X139058400Y-144120843D01*
X138953750Y-144316630D01*
X138889307Y-144529070D01*
X138873000Y-144694636D01*
X138873000Y-144694646D01*
X138867548Y-144750000D01*
X138873000Y-144805355D01*
X138873001Y-148944636D01*
X138867548Y-149000000D01*
X138889308Y-149220930D01*
X138953750Y-149433370D01*
X139058400Y-149629156D01*
X139163942Y-149757760D01*
X139163946Y-149757764D01*
X139199236Y-149800765D01*
X139242237Y-149836055D01*
X141016661Y-151610480D01*
X140910408Y-151667273D01*
X140776867Y-151776867D01*
X140761867Y-151795145D01*
X140756250Y-151776629D01*
X140682850Y-151639307D01*
X140651600Y-151580842D01*
X140571227Y-151482908D01*
X140510765Y-151409235D01*
X140467758Y-151373940D01*
X136086057Y-146992239D01*
X136050765Y-146949235D01*
X135879157Y-146808400D01*
X135683371Y-146703750D01*
X135470931Y-146639307D01*
X135305365Y-146623000D01*
X135305354Y-146623000D01*
X135250000Y-146617548D01*
X135194646Y-146623000D01*
X133693113Y-146623000D01*
X133665594Y-146571515D01*
X133524910Y-146400090D01*
X133353485Y-146259406D01*
X133157908Y-146154868D01*
X132945695Y-146090494D01*
X132725000Y-146068757D01*
X131775000Y-146068757D01*
X131554305Y-146090494D01*
X131342092Y-146154868D01*
X131146515Y-146259406D01*
X130985426Y-146391607D01*
X130086058Y-145492240D01*
X130050765Y-145449235D01*
X129879157Y-145308400D01*
X129820412Y-145277000D01*
X133294646Y-145277000D01*
X133350000Y-145282452D01*
X133405354Y-145277000D01*
X133405365Y-145277000D01*
X133570931Y-145260693D01*
X133783371Y-145196250D01*
X133979157Y-145091600D01*
X134150765Y-144950765D01*
X134186059Y-144907759D01*
X135716819Y-143377000D01*
X139779182Y-143377000D01*
X139242241Y-143913941D01*
G04 #@! TA.AperFunction,Conductor*
D27*
G36*
X139242241Y-143913941D02*
G01*
X139199235Y-143949235D01*
X139058400Y-144120843D01*
X138953750Y-144316630D01*
X138889307Y-144529070D01*
X138873000Y-144694636D01*
X138873000Y-144694646D01*
X138867548Y-144750000D01*
X138873000Y-144805355D01*
X138873001Y-148944636D01*
X138867548Y-149000000D01*
X138889308Y-149220930D01*
X138953750Y-149433370D01*
X139058400Y-149629156D01*
X139163942Y-149757760D01*
X139163946Y-149757764D01*
X139199236Y-149800765D01*
X139242237Y-149836055D01*
X141016661Y-151610480D01*
X140910408Y-151667273D01*
X140776867Y-151776867D01*
X140761867Y-151795145D01*
X140756250Y-151776629D01*
X140682850Y-151639307D01*
X140651600Y-151580842D01*
X140571227Y-151482908D01*
X140510765Y-151409235D01*
X140467758Y-151373940D01*
X136086057Y-146992239D01*
X136050765Y-146949235D01*
X135879157Y-146808400D01*
X135683371Y-146703750D01*
X135470931Y-146639307D01*
X135305365Y-146623000D01*
X135305354Y-146623000D01*
X135250000Y-146617548D01*
X135194646Y-146623000D01*
X133693113Y-146623000D01*
X133665594Y-146571515D01*
X133524910Y-146400090D01*
X133353485Y-146259406D01*
X133157908Y-146154868D01*
X132945695Y-146090494D01*
X132725000Y-146068757D01*
X131775000Y-146068757D01*
X131554305Y-146090494D01*
X131342092Y-146154868D01*
X131146515Y-146259406D01*
X130985426Y-146391607D01*
X130086058Y-145492240D01*
X130050765Y-145449235D01*
X129879157Y-145308400D01*
X129820412Y-145277000D01*
X133294646Y-145277000D01*
X133350000Y-145282452D01*
X133405354Y-145277000D01*
X133405365Y-145277000D01*
X133570931Y-145260693D01*
X133783371Y-145196250D01*
X133979157Y-145091600D01*
X134150765Y-144950765D01*
X134186059Y-144907759D01*
X135716819Y-143377000D01*
X139779182Y-143377000D01*
X139242241Y-143913941D01*
G37*
G04 #@! TD.AperFunction*
D26*
X126738940Y-144920258D02*
X126774235Y-144963265D01*
X126840055Y-145017282D01*
X126859406Y-145053485D01*
X126916455Y-145123000D01*
X124714053Y-145123000D01*
X124721243Y-145050000D01*
X124721243Y-143400000D01*
X124718978Y-143377000D01*
X125195682Y-143377000D01*
X126738940Y-144920258D01*
G04 #@! TA.AperFunction,Conductor*
D27*
G36*
X126738940Y-144920258D02*
G01*
X126774235Y-144963265D01*
X126840055Y-145017282D01*
X126859406Y-145053485D01*
X126916455Y-145123000D01*
X124714053Y-145123000D01*
X124721243Y-145050000D01*
X124721243Y-143400000D01*
X124718978Y-143377000D01*
X125195682Y-143377000D01*
X126738940Y-144920258D01*
G37*
G04 #@! TD.AperFunction*
D26*
X107873001Y-138306886D02*
X107821515Y-138334406D01*
X107650090Y-138475090D01*
X107509406Y-138646515D01*
X107404868Y-138842092D01*
X107340494Y-139054305D01*
X107318757Y-139275000D01*
X107318757Y-140225000D01*
X107340494Y-140445695D01*
X107404868Y-140657908D01*
X107509406Y-140853485D01*
X107650090Y-141024910D01*
X107821515Y-141165594D01*
X107873000Y-141193113D01*
X107873001Y-144694635D01*
X107872856Y-144696107D01*
X107841448Y-144649102D01*
X107600898Y-144408552D01*
X107577000Y-144392584D01*
X107577000Y-143930975D01*
X107640594Y-143853485D01*
X107745132Y-143657908D01*
X107809506Y-143445695D01*
X107831243Y-143225000D01*
X107831243Y-142275000D01*
X107809506Y-142054305D01*
X107745132Y-141842092D01*
X107640594Y-141646515D01*
X107499910Y-141475090D01*
X107328485Y-141334406D01*
X107132908Y-141229868D01*
X106920695Y-141165494D01*
X106700000Y-141143757D01*
X106200000Y-141143757D01*
X105979305Y-141165494D01*
X105767092Y-141229868D01*
X105571515Y-141334406D01*
X105400090Y-141475090D01*
X105259406Y-141646515D01*
X105154868Y-141842092D01*
X105090494Y-142054305D01*
X105068757Y-142275000D01*
X105068757Y-143225000D01*
X105090494Y-143445695D01*
X105154868Y-143657908D01*
X105259406Y-143853485D01*
X105323000Y-143930975D01*
X105323001Y-144484653D01*
X105230000Y-144577654D01*
X105060898Y-144408552D01*
X104778041Y-144219553D01*
X104463747Y-144089368D01*
X104130095Y-144023000D01*
X103877000Y-144023000D01*
X103877000Y-141716818D01*
X107873000Y-137720818D01*
X107873001Y-138306886D01*
G04 #@! TA.AperFunction,Conductor*
D27*
G36*
X107873001Y-138306886D02*
G01*
X107821515Y-138334406D01*
X107650090Y-138475090D01*
X107509406Y-138646515D01*
X107404868Y-138842092D01*
X107340494Y-139054305D01*
X107318757Y-139275000D01*
X107318757Y-140225000D01*
X107340494Y-140445695D01*
X107404868Y-140657908D01*
X107509406Y-140853485D01*
X107650090Y-141024910D01*
X107821515Y-141165594D01*
X107873000Y-141193113D01*
X107873001Y-144694635D01*
X107872856Y-144696107D01*
X107841448Y-144649102D01*
X107600898Y-144408552D01*
X107577000Y-144392584D01*
X107577000Y-143930975D01*
X107640594Y-143853485D01*
X107745132Y-143657908D01*
X107809506Y-143445695D01*
X107831243Y-143225000D01*
X107831243Y-142275000D01*
X107809506Y-142054305D01*
X107745132Y-141842092D01*
X107640594Y-141646515D01*
X107499910Y-141475090D01*
X107328485Y-141334406D01*
X107132908Y-141229868D01*
X106920695Y-141165494D01*
X106700000Y-141143757D01*
X106200000Y-141143757D01*
X105979305Y-141165494D01*
X105767092Y-141229868D01*
X105571515Y-141334406D01*
X105400090Y-141475090D01*
X105259406Y-141646515D01*
X105154868Y-141842092D01*
X105090494Y-142054305D01*
X105068757Y-142275000D01*
X105068757Y-143225000D01*
X105090494Y-143445695D01*
X105154868Y-143657908D01*
X105259406Y-143853485D01*
X105323000Y-143930975D01*
X105323001Y-144484653D01*
X105230000Y-144577654D01*
X105060898Y-144408552D01*
X104778041Y-144219553D01*
X104463747Y-144089368D01*
X104130095Y-144023000D01*
X103877000Y-144023000D01*
X103877000Y-141716818D01*
X107873000Y-137720818D01*
X107873001Y-138306886D01*
G37*
G04 #@! TD.AperFunction*
D26*
X160213753Y-128616668D02*
X160412500Y-128636243D01*
X161587500Y-128636243D01*
X161623000Y-128632747D01*
X161623000Y-130197394D01*
X160660197Y-131160197D01*
X160644403Y-131179443D01*
X160632667Y-131201399D01*
X160625440Y-131225224D01*
X160623000Y-131250000D01*
X160623000Y-143279181D01*
X159877000Y-142533182D01*
X159877000Y-133805354D01*
X159882452Y-133750000D01*
X159877000Y-133694645D01*
X159877000Y-133694635D01*
X159860693Y-133529069D01*
X159796250Y-133316629D01*
X159691600Y-133120843D01*
X159659101Y-133081243D01*
X159586058Y-132992239D01*
X159586055Y-132992236D01*
X159550765Y-132949235D01*
X159507764Y-132913945D01*
X157400061Y-130806243D01*
X158206250Y-130806243D01*
X158425725Y-130784627D01*
X158636766Y-130720608D01*
X158831263Y-130616647D01*
X159001740Y-130476740D01*
X159141647Y-130306263D01*
X159245608Y-130111766D01*
X159309627Y-129900725D01*
X159331243Y-129681250D01*
X159331243Y-129193750D01*
X159309627Y-128974275D01*
X159245608Y-128763234D01*
X159162099Y-128607000D01*
X160181882Y-128607000D01*
X160213753Y-128616668D01*
G04 #@! TA.AperFunction,Conductor*
D27*
G36*
X160213753Y-128616668D02*
G01*
X160412500Y-128636243D01*
X161587500Y-128636243D01*
X161623000Y-128632747D01*
X161623000Y-130197394D01*
X160660197Y-131160197D01*
X160644403Y-131179443D01*
X160632667Y-131201399D01*
X160625440Y-131225224D01*
X160623000Y-131250000D01*
X160623000Y-143279181D01*
X159877000Y-142533182D01*
X159877000Y-133805354D01*
X159882452Y-133750000D01*
X159877000Y-133694645D01*
X159877000Y-133694635D01*
X159860693Y-133529069D01*
X159796250Y-133316629D01*
X159691600Y-133120843D01*
X159659101Y-133081243D01*
X159586058Y-132992239D01*
X159586055Y-132992236D01*
X159550765Y-132949235D01*
X159507764Y-132913945D01*
X157400061Y-130806243D01*
X158206250Y-130806243D01*
X158425725Y-130784627D01*
X158636766Y-130720608D01*
X158831263Y-130616647D01*
X159001740Y-130476740D01*
X159141647Y-130306263D01*
X159245608Y-130111766D01*
X159309627Y-129900725D01*
X159331243Y-129681250D01*
X159331243Y-129193750D01*
X159309627Y-128974275D01*
X159245608Y-128763234D01*
X159162099Y-128607000D01*
X160181882Y-128607000D01*
X160213753Y-128616668D01*
G37*
G04 #@! TD.AperFunction*
D26*
X138689102Y-138881448D02*
X138971959Y-139070447D01*
X139286253Y-139200632D01*
X139619905Y-139267000D01*
X139960095Y-139267000D01*
X140293747Y-139200632D01*
X140338342Y-139182160D01*
X140623001Y-139466820D01*
X140623000Y-140533181D01*
X140033182Y-141123000D01*
X138630134Y-141123000D01*
X138780447Y-140898041D01*
X138910632Y-140583747D01*
X138977000Y-140250095D01*
X138977000Y-139909905D01*
X138910632Y-139576253D01*
X138780447Y-139261959D01*
X138591448Y-138979102D01*
X138422346Y-138810000D01*
X138520000Y-138712346D01*
X138689102Y-138881448D01*
G04 #@! TA.AperFunction,Conductor*
D27*
G36*
X138689102Y-138881448D02*
G01*
X138971959Y-139070447D01*
X139286253Y-139200632D01*
X139619905Y-139267000D01*
X139960095Y-139267000D01*
X140293747Y-139200632D01*
X140338342Y-139182160D01*
X140623001Y-139466820D01*
X140623000Y-140533181D01*
X140033182Y-141123000D01*
X138630134Y-141123000D01*
X138780447Y-140898041D01*
X138910632Y-140583747D01*
X138977000Y-140250095D01*
X138977000Y-139909905D01*
X138910632Y-139576253D01*
X138780447Y-139261959D01*
X138591448Y-138979102D01*
X138422346Y-138810000D01*
X138520000Y-138712346D01*
X138689102Y-138881448D01*
G37*
G04 #@! TD.AperFunction*
D26*
X128771604Y-137978397D02*
X128823000Y-138020576D01*
X128823000Y-138382360D01*
X128816338Y-138450000D01*
X128823000Y-138517639D01*
X128823000Y-138981921D01*
X128818757Y-139025000D01*
X128818757Y-139975000D01*
X128823000Y-140018079D01*
X128823000Y-140479628D01*
X128358872Y-140943757D01*
X127799999Y-140943757D01*
X127579305Y-140965493D01*
X127367091Y-141029868D01*
X127252931Y-141090888D01*
X127257764Y-141086055D01*
X127300765Y-141050765D01*
X127336055Y-141007764D01*
X127336058Y-141007761D01*
X127441600Y-140879157D01*
X127546250Y-140683371D01*
X127610693Y-140470931D01*
X127612830Y-140449235D01*
X127627000Y-140305365D01*
X127627000Y-140305357D01*
X127632452Y-140250000D01*
X127627000Y-140194643D01*
X127627000Y-138466818D01*
X128012576Y-138081243D01*
X128187501Y-138081243D01*
X128408195Y-138059507D01*
X128620409Y-137995132D01*
X128735049Y-137933855D01*
X128771604Y-137978397D01*
G04 #@! TA.AperFunction,Conductor*
D27*
G36*
X128771604Y-137978397D02*
G01*
X128823000Y-138020576D01*
X128823000Y-138382360D01*
X128816338Y-138450000D01*
X128823000Y-138517639D01*
X128823000Y-138981921D01*
X128818757Y-139025000D01*
X128818757Y-139975000D01*
X128823000Y-140018079D01*
X128823000Y-140479628D01*
X128358872Y-140943757D01*
X127799999Y-140943757D01*
X127579305Y-140965493D01*
X127367091Y-141029868D01*
X127252931Y-141090888D01*
X127257764Y-141086055D01*
X127300765Y-141050765D01*
X127336055Y-141007764D01*
X127336058Y-141007761D01*
X127441600Y-140879157D01*
X127546250Y-140683371D01*
X127610693Y-140470931D01*
X127612830Y-140449235D01*
X127627000Y-140305365D01*
X127627000Y-140305357D01*
X127632452Y-140250000D01*
X127627000Y-140194643D01*
X127627000Y-138466818D01*
X128012576Y-138081243D01*
X128187501Y-138081243D01*
X128408195Y-138059507D01*
X128620409Y-137995132D01*
X128735049Y-137933855D01*
X128771604Y-137978397D01*
G37*
G04 #@! TD.AperFunction*
D26*
X115250090Y-137524910D02*
X115421515Y-137665594D01*
X115617092Y-137770132D01*
X115829305Y-137834506D01*
X116050000Y-137856243D01*
X116199647Y-137856243D01*
X116182553Y-137877072D01*
X116087256Y-138055360D01*
X116028572Y-138248814D01*
X116008757Y-138450000D01*
X116008757Y-140100000D01*
X116028572Y-140301186D01*
X116046359Y-140359822D01*
X115877262Y-140528919D01*
X115853485Y-140509406D01*
X115657908Y-140404868D01*
X115445695Y-140340494D01*
X115225000Y-140318757D01*
X114275000Y-140318757D01*
X114054305Y-140340494D01*
X113877000Y-140394279D01*
X113877000Y-138716818D01*
X115168422Y-137425397D01*
X115250090Y-137524910D01*
G04 #@! TA.AperFunction,Conductor*
D27*
G36*
X115250090Y-137524910D02*
G01*
X115421515Y-137665594D01*
X115617092Y-137770132D01*
X115829305Y-137834506D01*
X116050000Y-137856243D01*
X116199647Y-137856243D01*
X116182553Y-137877072D01*
X116087256Y-138055360D01*
X116028572Y-138248814D01*
X116008757Y-138450000D01*
X116008757Y-140100000D01*
X116028572Y-140301186D01*
X116046359Y-140359822D01*
X115877262Y-140528919D01*
X115853485Y-140509406D01*
X115657908Y-140404868D01*
X115445695Y-140340494D01*
X115225000Y-140318757D01*
X114275000Y-140318757D01*
X114054305Y-140340494D01*
X113877000Y-140394279D01*
X113877000Y-138716818D01*
X115168422Y-137425397D01*
X115250090Y-137524910D01*
G37*
G04 #@! TD.AperFunction*
D26*
X150700961Y-126705220D02*
X149905330Y-127500852D01*
X149892091Y-127504868D01*
X149696514Y-127609405D01*
X149525090Y-127750090D01*
X149384405Y-127921514D01*
X149279868Y-128117091D01*
X149215493Y-128329304D01*
X149193757Y-128549998D01*
X149193757Y-129450002D01*
X149215493Y-129670696D01*
X149279868Y-129882909D01*
X149384405Y-130078486D01*
X149460500Y-130171208D01*
X149460501Y-130328792D01*
X149384405Y-130421514D01*
X149279868Y-130617091D01*
X149215493Y-130829304D01*
X149193757Y-131049998D01*
X149193757Y-131849939D01*
X149086060Y-131742242D01*
X149050765Y-131699235D01*
X148879157Y-131558400D01*
X148683371Y-131453750D01*
X148470931Y-131389307D01*
X148305365Y-131373000D01*
X148305354Y-131373000D01*
X148250000Y-131367548D01*
X148194646Y-131373000D01*
X148182435Y-131373000D01*
X148164162Y-131312763D01*
X148082727Y-131160408D01*
X147973133Y-131026867D01*
X147839592Y-130917273D01*
X147687237Y-130835838D01*
X147521922Y-130785690D01*
X147350000Y-130768757D01*
X145650000Y-130768757D01*
X145478078Y-130785690D01*
X145312763Y-130835838D01*
X145160408Y-130917273D01*
X145026867Y-131026867D01*
X144917273Y-131160408D01*
X144835838Y-131312763D01*
X144785690Y-131478078D01*
X144768757Y-131650000D01*
X144768757Y-133350000D01*
X144785690Y-133521922D01*
X144835838Y-133687237D01*
X144917273Y-133839592D01*
X145026867Y-133973133D01*
X145160408Y-134082727D01*
X145312763Y-134164162D01*
X145478078Y-134214310D01*
X145650000Y-134231243D01*
X147350000Y-134231243D01*
X147521922Y-134214310D01*
X147687237Y-134164162D01*
X147839592Y-134082727D01*
X147973133Y-133973133D01*
X148048043Y-133881855D01*
X148120843Y-133941600D01*
X148316629Y-134046250D01*
X148529069Y-134110693D01*
X148694635Y-134127000D01*
X148694643Y-134127000D01*
X148750000Y-134132452D01*
X148805357Y-134127000D01*
X150010397Y-134127000D01*
X150004392Y-134138234D01*
X149940373Y-134349275D01*
X149918757Y-134568750D01*
X149918757Y-135056250D01*
X149940373Y-135275725D01*
X150004392Y-135486766D01*
X150108353Y-135681263D01*
X150164764Y-135750000D01*
X150108353Y-135818737D01*
X150004392Y-136013234D01*
X149944060Y-136212122D01*
X149548195Y-136607987D01*
X149559507Y-136570696D01*
X149581243Y-136350002D01*
X149581243Y-135824998D01*
X149559507Y-135604304D01*
X149495132Y-135392091D01*
X149390595Y-135196514D01*
X149249910Y-135025090D01*
X149078486Y-134884405D01*
X148882909Y-134779868D01*
X148670696Y-134715493D01*
X148450002Y-134693757D01*
X147549998Y-134693757D01*
X147329304Y-134715493D01*
X147117091Y-134779868D01*
X146921514Y-134884405D01*
X146828793Y-134960500D01*
X145671207Y-134960500D01*
X145578486Y-134884405D01*
X145382909Y-134779868D01*
X145170696Y-134715493D01*
X144950002Y-134693757D01*
X144049998Y-134693757D01*
X143829304Y-134715493D01*
X143617091Y-134779868D01*
X143421514Y-134884405D01*
X143250090Y-135025090D01*
X143109405Y-135196514D01*
X143004868Y-135392091D01*
X142940493Y-135604304D01*
X142918757Y-135824998D01*
X142918757Y-136350002D01*
X142940493Y-136570696D01*
X143004868Y-136782909D01*
X143109405Y-136978486D01*
X143127061Y-137000000D01*
X143109405Y-137021514D01*
X143004868Y-137217091D01*
X142940493Y-137429304D01*
X142918757Y-137649998D01*
X142918757Y-137736373D01*
X142808400Y-137870843D01*
X142703750Y-138066630D01*
X142639307Y-138279070D01*
X142636840Y-138304117D01*
X142586058Y-138242239D01*
X142586055Y-138242236D01*
X142550765Y-138199235D01*
X142507764Y-138163945D01*
X141468153Y-137124334D01*
X141450632Y-137036253D01*
X141320447Y-136721959D01*
X141131448Y-136439102D01*
X140962346Y-136270000D01*
X141131448Y-136100898D01*
X141320447Y-135818041D01*
X141450632Y-135503747D01*
X141517000Y-135170095D01*
X141517000Y-134829905D01*
X141450632Y-134496253D01*
X141320447Y-134181959D01*
X141131448Y-133899102D01*
X140890898Y-133658552D01*
X140608041Y-133469553D01*
X140293747Y-133339368D01*
X139960095Y-133273000D01*
X139619905Y-133273000D01*
X139286253Y-133339368D01*
X138971959Y-133469553D01*
X138780878Y-133597229D01*
X138723133Y-133526867D01*
X138589592Y-133417273D01*
X138437237Y-133335838D01*
X138271922Y-133285690D01*
X138100000Y-133268757D01*
X136400000Y-133268757D01*
X136228078Y-133285690D01*
X136062763Y-133335838D01*
X135910408Y-133417273D01*
X135776867Y-133526867D01*
X135697973Y-133623000D01*
X131933648Y-133623000D01*
X131964310Y-133521922D01*
X131981243Y-133350000D01*
X131981243Y-132569682D01*
X133083947Y-131466978D01*
X133146029Y-131416029D01*
X133196979Y-131353946D01*
X134649088Y-129901838D01*
X134750090Y-130024910D01*
X134921515Y-130165594D01*
X135117092Y-130270132D01*
X135329305Y-130334506D01*
X135461497Y-130347526D01*
X135481052Y-130353458D01*
X135800000Y-130384872D01*
X136118947Y-130353458D01*
X136138502Y-130347526D01*
X136270695Y-130334506D01*
X136482908Y-130270132D01*
X136678485Y-130165594D01*
X136849910Y-130024910D01*
X136929822Y-129927536D01*
X136956029Y-129906029D01*
X137159346Y-129658285D01*
X137310424Y-129375639D01*
X137403458Y-129068947D01*
X137434872Y-128750000D01*
X137403458Y-128431052D01*
X137310424Y-128124362D01*
X137159346Y-127841715D01*
X137006978Y-127656053D01*
X136959264Y-127608339D01*
X136849910Y-127475090D01*
X136716661Y-127365736D01*
X136506980Y-127156055D01*
X136456029Y-127093971D01*
X136208286Y-126890654D01*
X135925638Y-126739575D01*
X135808943Y-126704176D01*
X150700961Y-126705220D01*
G04 #@! TA.AperFunction,Conductor*
D27*
G36*
X150700961Y-126705220D02*
G01*
X149905330Y-127500852D01*
X149892091Y-127504868D01*
X149696514Y-127609405D01*
X149525090Y-127750090D01*
X149384405Y-127921514D01*
X149279868Y-128117091D01*
X149215493Y-128329304D01*
X149193757Y-128549998D01*
X149193757Y-129450002D01*
X149215493Y-129670696D01*
X149279868Y-129882909D01*
X149384405Y-130078486D01*
X149460500Y-130171208D01*
X149460501Y-130328792D01*
X149384405Y-130421514D01*
X149279868Y-130617091D01*
X149215493Y-130829304D01*
X149193757Y-131049998D01*
X149193757Y-131849939D01*
X149086060Y-131742242D01*
X149050765Y-131699235D01*
X148879157Y-131558400D01*
X148683371Y-131453750D01*
X148470931Y-131389307D01*
X148305365Y-131373000D01*
X148305354Y-131373000D01*
X148250000Y-131367548D01*
X148194646Y-131373000D01*
X148182435Y-131373000D01*
X148164162Y-131312763D01*
X148082727Y-131160408D01*
X147973133Y-131026867D01*
X147839592Y-130917273D01*
X147687237Y-130835838D01*
X147521922Y-130785690D01*
X147350000Y-130768757D01*
X145650000Y-130768757D01*
X145478078Y-130785690D01*
X145312763Y-130835838D01*
X145160408Y-130917273D01*
X145026867Y-131026867D01*
X144917273Y-131160408D01*
X144835838Y-131312763D01*
X144785690Y-131478078D01*
X144768757Y-131650000D01*
X144768757Y-133350000D01*
X144785690Y-133521922D01*
X144835838Y-133687237D01*
X144917273Y-133839592D01*
X145026867Y-133973133D01*
X145160408Y-134082727D01*
X145312763Y-134164162D01*
X145478078Y-134214310D01*
X145650000Y-134231243D01*
X147350000Y-134231243D01*
X147521922Y-134214310D01*
X147687237Y-134164162D01*
X147839592Y-134082727D01*
X147973133Y-133973133D01*
X148048043Y-133881855D01*
X148120843Y-133941600D01*
X148316629Y-134046250D01*
X148529069Y-134110693D01*
X148694635Y-134127000D01*
X148694643Y-134127000D01*
X148750000Y-134132452D01*
X148805357Y-134127000D01*
X150010397Y-134127000D01*
X150004392Y-134138234D01*
X149940373Y-134349275D01*
X149918757Y-134568750D01*
X149918757Y-135056250D01*
X149940373Y-135275725D01*
X150004392Y-135486766D01*
X150108353Y-135681263D01*
X150164764Y-135750000D01*
X150108353Y-135818737D01*
X150004392Y-136013234D01*
X149944060Y-136212122D01*
X149548195Y-136607987D01*
X149559507Y-136570696D01*
X149581243Y-136350002D01*
X149581243Y-135824998D01*
X149559507Y-135604304D01*
X149495132Y-135392091D01*
X149390595Y-135196514D01*
X149249910Y-135025090D01*
X149078486Y-134884405D01*
X148882909Y-134779868D01*
X148670696Y-134715493D01*
X148450002Y-134693757D01*
X147549998Y-134693757D01*
X147329304Y-134715493D01*
X147117091Y-134779868D01*
X146921514Y-134884405D01*
X146828793Y-134960500D01*
X145671207Y-134960500D01*
X145578486Y-134884405D01*
X145382909Y-134779868D01*
X145170696Y-134715493D01*
X144950002Y-134693757D01*
X144049998Y-134693757D01*
X143829304Y-134715493D01*
X143617091Y-134779868D01*
X143421514Y-134884405D01*
X143250090Y-135025090D01*
X143109405Y-135196514D01*
X143004868Y-135392091D01*
X142940493Y-135604304D01*
X142918757Y-135824998D01*
X142918757Y-136350002D01*
X142940493Y-136570696D01*
X143004868Y-136782909D01*
X143109405Y-136978486D01*
X143127061Y-137000000D01*
X143109405Y-137021514D01*
X143004868Y-137217091D01*
X142940493Y-137429304D01*
X142918757Y-137649998D01*
X142918757Y-137736373D01*
X142808400Y-137870843D01*
X142703750Y-138066630D01*
X142639307Y-138279070D01*
X142636840Y-138304117D01*
X142586058Y-138242239D01*
X142586055Y-138242236D01*
X142550765Y-138199235D01*
X142507764Y-138163945D01*
X141468153Y-137124334D01*
X141450632Y-137036253D01*
X141320447Y-136721959D01*
X141131448Y-136439102D01*
X140962346Y-136270000D01*
X141131448Y-136100898D01*
X141320447Y-135818041D01*
X141450632Y-135503747D01*
X141517000Y-135170095D01*
X141517000Y-134829905D01*
X141450632Y-134496253D01*
X141320447Y-134181959D01*
X141131448Y-133899102D01*
X140890898Y-133658552D01*
X140608041Y-133469553D01*
X140293747Y-133339368D01*
X139960095Y-133273000D01*
X139619905Y-133273000D01*
X139286253Y-133339368D01*
X138971959Y-133469553D01*
X138780878Y-133597229D01*
X138723133Y-133526867D01*
X138589592Y-133417273D01*
X138437237Y-133335838D01*
X138271922Y-133285690D01*
X138100000Y-133268757D01*
X136400000Y-133268757D01*
X136228078Y-133285690D01*
X136062763Y-133335838D01*
X135910408Y-133417273D01*
X135776867Y-133526867D01*
X135697973Y-133623000D01*
X131933648Y-133623000D01*
X131964310Y-133521922D01*
X131981243Y-133350000D01*
X131981243Y-132569682D01*
X133083947Y-131466978D01*
X133146029Y-131416029D01*
X133196979Y-131353946D01*
X134649088Y-129901838D01*
X134750090Y-130024910D01*
X134921515Y-130165594D01*
X135117092Y-130270132D01*
X135329305Y-130334506D01*
X135461497Y-130347526D01*
X135481052Y-130353458D01*
X135800000Y-130384872D01*
X136118947Y-130353458D01*
X136138502Y-130347526D01*
X136270695Y-130334506D01*
X136482908Y-130270132D01*
X136678485Y-130165594D01*
X136849910Y-130024910D01*
X136929822Y-129927536D01*
X136956029Y-129906029D01*
X137159346Y-129658285D01*
X137310424Y-129375639D01*
X137403458Y-129068947D01*
X137434872Y-128750000D01*
X137403458Y-128431052D01*
X137310424Y-128124362D01*
X137159346Y-127841715D01*
X137006978Y-127656053D01*
X136959264Y-127608339D01*
X136849910Y-127475090D01*
X136716661Y-127365736D01*
X136506980Y-127156055D01*
X136456029Y-127093971D01*
X136208286Y-126890654D01*
X135925638Y-126739575D01*
X135808943Y-126704176D01*
X150700961Y-126705220D01*
G37*
G04 #@! TD.AperFunction*
D26*
X118603000Y-137418757D02*
X118310000Y-137418757D01*
X118108814Y-137438572D01*
X117915360Y-137497256D01*
X117825000Y-137545554D01*
X117734640Y-137497256D01*
X117541186Y-137438572D01*
X117429771Y-137427599D01*
X117490594Y-137353485D01*
X117595132Y-137157908D01*
X117659506Y-136945695D01*
X117681243Y-136725000D01*
X117681243Y-135912576D01*
X117966819Y-135627000D01*
X118444646Y-135627000D01*
X118500000Y-135632452D01*
X118555354Y-135627000D01*
X118555365Y-135627000D01*
X118603001Y-135622308D01*
X118603000Y-137418757D01*
G04 #@! TA.AperFunction,Conductor*
D27*
G36*
X118603000Y-137418757D02*
G01*
X118310000Y-137418757D01*
X118108814Y-137438572D01*
X117915360Y-137497256D01*
X117825000Y-137545554D01*
X117734640Y-137497256D01*
X117541186Y-137438572D01*
X117429771Y-137427599D01*
X117490594Y-137353485D01*
X117595132Y-137157908D01*
X117659506Y-136945695D01*
X117681243Y-136725000D01*
X117681243Y-135912576D01*
X117966819Y-135627000D01*
X118444646Y-135627000D01*
X118500000Y-135632452D01*
X118555354Y-135627000D01*
X118555365Y-135627000D01*
X118603001Y-135622308D01*
X118603000Y-137418757D01*
G37*
G04 #@! TD.AperFunction*
D26*
X130105928Y-126703776D02*
X130016867Y-126776867D01*
X129907273Y-126910408D01*
X129825838Y-127062763D01*
X129775690Y-127228078D01*
X129758757Y-127400000D01*
X129758757Y-129100000D01*
X129775690Y-129271922D01*
X129825838Y-129437237D01*
X129863001Y-129506764D01*
X129863001Y-129586074D01*
X129156049Y-130293025D01*
X129093972Y-130343971D01*
X129043026Y-130406049D01*
X129043022Y-130406053D01*
X128890654Y-130591715D01*
X128871794Y-130627000D01*
X128739575Y-130874362D01*
X128679916Y-131071033D01*
X128528041Y-130969553D01*
X128213747Y-130839368D01*
X127880095Y-130773000D01*
X127539905Y-130773000D01*
X127206253Y-130839368D01*
X126891959Y-130969553D01*
X126609102Y-131158552D01*
X126368552Y-131399102D01*
X126179553Y-131681959D01*
X126049368Y-131996253D01*
X125983000Y-132329905D01*
X125983000Y-132670095D01*
X126049368Y-133003747D01*
X126179553Y-133318041D01*
X126368552Y-133600898D01*
X126609102Y-133841448D01*
X126891959Y-134030447D01*
X127206253Y-134160632D01*
X127539905Y-134227000D01*
X127804182Y-134227000D01*
X127429737Y-134601445D01*
X127386736Y-134636735D01*
X127351446Y-134679736D01*
X127351442Y-134679740D01*
X127245900Y-134808344D01*
X127141250Y-135004130D01*
X127123887Y-135061368D01*
X127034015Y-135109406D01*
X126862590Y-135250090D01*
X126721906Y-135421515D01*
X126617368Y-135617091D01*
X126552993Y-135829305D01*
X126531257Y-136049999D01*
X126531257Y-136099571D01*
X126476807Y-136279069D01*
X126460500Y-136444635D01*
X126460500Y-136445681D01*
X126039862Y-136866319D01*
X126056243Y-136700001D01*
X126056243Y-135799999D01*
X126034507Y-135579305D01*
X125970132Y-135367091D01*
X125865594Y-135171515D01*
X125724910Y-135000090D01*
X125553485Y-134859406D01*
X125357909Y-134754868D01*
X125145695Y-134690493D01*
X124925001Y-134668757D01*
X124399999Y-134668757D01*
X124179305Y-134690493D01*
X123967091Y-134754868D01*
X123771515Y-134859406D01*
X123750000Y-134877063D01*
X123728485Y-134859406D01*
X123532909Y-134754868D01*
X123320695Y-134690493D01*
X123280337Y-134686518D01*
X122836062Y-134242244D01*
X122836058Y-134242239D01*
X122835984Y-134242165D01*
X122850931Y-134240693D01*
X123063371Y-134176250D01*
X123068196Y-134173671D01*
X123133747Y-134160632D01*
X123448041Y-134030447D01*
X123730898Y-133841448D01*
X123971448Y-133600898D01*
X124160447Y-133318041D01*
X124290632Y-133003747D01*
X124357000Y-132670095D01*
X124357000Y-132329905D01*
X124290632Y-131996253D01*
X124160447Y-131681959D01*
X123971448Y-131399102D01*
X123730898Y-131158552D01*
X123448041Y-130969553D01*
X123219097Y-130874721D01*
X124135870Y-129957949D01*
X124373747Y-129910632D01*
X124688041Y-129780447D01*
X124970898Y-129591448D01*
X125140000Y-129422346D01*
X125309102Y-129591448D01*
X125591959Y-129780447D01*
X125906253Y-129910632D01*
X126239905Y-129977000D01*
X126580095Y-129977000D01*
X126913747Y-129910632D01*
X127228041Y-129780447D01*
X127510898Y-129591448D01*
X127751448Y-129350898D01*
X127940447Y-129068041D01*
X128070632Y-128753747D01*
X128137000Y-128420095D01*
X128137000Y-128079905D01*
X128070632Y-127746253D01*
X127940447Y-127431959D01*
X127751448Y-127149102D01*
X127510898Y-126908552D01*
X127228041Y-126719553D01*
X127189460Y-126703572D01*
X130105928Y-126703776D01*
G04 #@! TA.AperFunction,Conductor*
D27*
G36*
X130105928Y-126703776D02*
G01*
X130016867Y-126776867D01*
X129907273Y-126910408D01*
X129825838Y-127062763D01*
X129775690Y-127228078D01*
X129758757Y-127400000D01*
X129758757Y-129100000D01*
X129775690Y-129271922D01*
X129825838Y-129437237D01*
X129863001Y-129506764D01*
X129863001Y-129586074D01*
X129156049Y-130293025D01*
X129093972Y-130343971D01*
X129043026Y-130406049D01*
X129043022Y-130406053D01*
X128890654Y-130591715D01*
X128871794Y-130627000D01*
X128739575Y-130874362D01*
X128679916Y-131071033D01*
X128528041Y-130969553D01*
X128213747Y-130839368D01*
X127880095Y-130773000D01*
X127539905Y-130773000D01*
X127206253Y-130839368D01*
X126891959Y-130969553D01*
X126609102Y-131158552D01*
X126368552Y-131399102D01*
X126179553Y-131681959D01*
X126049368Y-131996253D01*
X125983000Y-132329905D01*
X125983000Y-132670095D01*
X126049368Y-133003747D01*
X126179553Y-133318041D01*
X126368552Y-133600898D01*
X126609102Y-133841448D01*
X126891959Y-134030447D01*
X127206253Y-134160632D01*
X127539905Y-134227000D01*
X127804182Y-134227000D01*
X127429737Y-134601445D01*
X127386736Y-134636735D01*
X127351446Y-134679736D01*
X127351442Y-134679740D01*
X127245900Y-134808344D01*
X127141250Y-135004130D01*
X127123887Y-135061368D01*
X127034015Y-135109406D01*
X126862590Y-135250090D01*
X126721906Y-135421515D01*
X126617368Y-135617091D01*
X126552993Y-135829305D01*
X126531257Y-136049999D01*
X126531257Y-136099571D01*
X126476807Y-136279069D01*
X126460500Y-136444635D01*
X126460500Y-136445681D01*
X126039862Y-136866319D01*
X126056243Y-136700001D01*
X126056243Y-135799999D01*
X126034507Y-135579305D01*
X125970132Y-135367091D01*
X125865594Y-135171515D01*
X125724910Y-135000090D01*
X125553485Y-134859406D01*
X125357909Y-134754868D01*
X125145695Y-134690493D01*
X124925001Y-134668757D01*
X124399999Y-134668757D01*
X124179305Y-134690493D01*
X123967091Y-134754868D01*
X123771515Y-134859406D01*
X123750000Y-134877063D01*
X123728485Y-134859406D01*
X123532909Y-134754868D01*
X123320695Y-134690493D01*
X123280337Y-134686518D01*
X122836062Y-134242244D01*
X122836058Y-134242239D01*
X122835984Y-134242165D01*
X122850931Y-134240693D01*
X123063371Y-134176250D01*
X123068196Y-134173671D01*
X123133747Y-134160632D01*
X123448041Y-134030447D01*
X123730898Y-133841448D01*
X123971448Y-133600898D01*
X124160447Y-133318041D01*
X124290632Y-133003747D01*
X124357000Y-132670095D01*
X124357000Y-132329905D01*
X124290632Y-131996253D01*
X124160447Y-131681959D01*
X123971448Y-131399102D01*
X123730898Y-131158552D01*
X123448041Y-130969553D01*
X123219097Y-130874721D01*
X124135870Y-129957949D01*
X124373747Y-129910632D01*
X124688041Y-129780447D01*
X124970898Y-129591448D01*
X125140000Y-129422346D01*
X125309102Y-129591448D01*
X125591959Y-129780447D01*
X125906253Y-129910632D01*
X126239905Y-129977000D01*
X126580095Y-129977000D01*
X126913747Y-129910632D01*
X127228041Y-129780447D01*
X127510898Y-129591448D01*
X127751448Y-129350898D01*
X127940447Y-129068041D01*
X128070632Y-128753747D01*
X128137000Y-128420095D01*
X128137000Y-128079905D01*
X128070632Y-127746253D01*
X127940447Y-127431959D01*
X127751448Y-127149102D01*
X127510898Y-126908552D01*
X127228041Y-126719553D01*
X127189460Y-126703572D01*
X130105928Y-126703776D01*
G37*
G04 #@! TD.AperFunction*
D26*
X153353757Y-133929599D02*
X153220931Y-133889307D01*
X153055365Y-133873000D01*
X153055354Y-133873000D01*
X153000000Y-133867548D01*
X152944646Y-133873000D01*
X152833595Y-133873000D01*
X152751740Y-133773260D01*
X152581263Y-133633353D01*
X152386766Y-133529392D01*
X152331263Y-133512555D01*
X152772143Y-133071676D01*
X152895696Y-133059507D01*
X153107909Y-132995132D01*
X153303486Y-132890595D01*
X153353757Y-132849338D01*
X153353757Y-133929599D01*
G04 #@! TA.AperFunction,Conductor*
D27*
G36*
X153353757Y-133929599D02*
G01*
X153220931Y-133889307D01*
X153055365Y-133873000D01*
X153055354Y-133873000D01*
X153000000Y-133867548D01*
X152944646Y-133873000D01*
X152833595Y-133873000D01*
X152751740Y-133773260D01*
X152581263Y-133633353D01*
X152386766Y-133529392D01*
X152331263Y-133512555D01*
X152772143Y-133071676D01*
X152895696Y-133059507D01*
X153107909Y-132995132D01*
X153303486Y-132890595D01*
X153353757Y-132849338D01*
X153353757Y-133929599D01*
G37*
G04 #@! TD.AperFunction*
G04 #@! TD*
D26*
G04 #@! TO.N,/LiCONTROL_CS*
X118548757Y-140100000D02*
X118568572Y-140301186D01*
X118627256Y-140494640D01*
X118722553Y-140672928D01*
X118850801Y-140829199D01*
X119007072Y-140957447D01*
X119185360Y-141052744D01*
X119378814Y-141111428D01*
X119580000Y-141131243D01*
X119880000Y-141131243D01*
X119883786Y-141130870D01*
X119956956Y-141307519D01*
X120085764Y-141500294D01*
X120249706Y-141664236D01*
X120442481Y-141793044D01*
X120656682Y-141881769D01*
X120884076Y-141927000D01*
X121115924Y-141927000D01*
X121343318Y-141881769D01*
X121557519Y-141793044D01*
X121750294Y-141664236D01*
X121914236Y-141500294D01*
X122043044Y-141307519D01*
X122131769Y-141093318D01*
X122177000Y-140865924D01*
X122177000Y-140634076D01*
X122131769Y-140406682D01*
X122130416Y-140403417D01*
X122161428Y-140301186D01*
X122181243Y-140100000D01*
X122181243Y-139127000D01*
X122358757Y-139127000D01*
X122358757Y-140100000D01*
X122378572Y-140301186D01*
X122413000Y-140414679D01*
X122413000Y-140484646D01*
X122407548Y-140540000D01*
X122413000Y-140595354D01*
X122413000Y-140595365D01*
X122429307Y-140760931D01*
X122461157Y-140865924D01*
X122493750Y-140973370D01*
X122598400Y-141169156D01*
X122703942Y-141297760D01*
X122703946Y-141297764D01*
X122739236Y-141340765D01*
X122782237Y-141376055D01*
X123123000Y-141716818D01*
X123123000Y-141783182D01*
X122782237Y-142123945D01*
X122739236Y-142159235D01*
X122703946Y-142202236D01*
X122703942Y-142202240D01*
X122598400Y-142330844D01*
X122570226Y-142383553D01*
X122420000Y-142368757D01*
X122120000Y-142368757D01*
X121918814Y-142388572D01*
X121725360Y-142447256D01*
X121547072Y-142542553D01*
X121390801Y-142670801D01*
X121262553Y-142827072D01*
X121167256Y-143005360D01*
X121108572Y-143198814D01*
X121088757Y-143400000D01*
X121088757Y-145050000D01*
X121108572Y-145251186D01*
X121123000Y-145298748D01*
X121123000Y-145444646D01*
X121117548Y-145500000D01*
X121123000Y-145555354D01*
X121123000Y-145555365D01*
X121139307Y-145720931D01*
X121181303Y-145859372D01*
X121203750Y-145933370D01*
X121308400Y-146129156D01*
X121413942Y-146257760D01*
X121413946Y-146257764D01*
X121449236Y-146300765D01*
X121492237Y-146336055D01*
X122163940Y-147007758D01*
X122199235Y-147050765D01*
X122370843Y-147191600D01*
X122566629Y-147296250D01*
X122779069Y-147360693D01*
X122944635Y-147377000D01*
X122944645Y-147377000D01*
X122999999Y-147382452D01*
X123055354Y-147377000D01*
X123123000Y-147377000D01*
X123123000Y-147623000D01*
X118802606Y-147623000D01*
X116877000Y-145697394D01*
X116877000Y-143000000D01*
X117373000Y-143000000D01*
X117373000Y-145500000D01*
X117375440Y-145524776D01*
X117382667Y-145548601D01*
X117394403Y-145570557D01*
X117410197Y-145589803D01*
X117429443Y-145605597D01*
X117451399Y-145617333D01*
X117475224Y-145624560D01*
X117500000Y-145627000D01*
X118250000Y-145627000D01*
X118274776Y-145624560D01*
X118298601Y-145617333D01*
X118320557Y-145605597D01*
X118339803Y-145589803D01*
X118355597Y-145570557D01*
X118367333Y-145548601D01*
X118374560Y-145524776D01*
X118377000Y-145500000D01*
X118377000Y-143400000D01*
X118548757Y-143400000D01*
X118548757Y-145050000D01*
X118568572Y-145251186D01*
X118627256Y-145444640D01*
X118722553Y-145622928D01*
X118850801Y-145779199D01*
X119007072Y-145907447D01*
X119185360Y-146002744D01*
X119378814Y-146061428D01*
X119580000Y-146081243D01*
X119880000Y-146081243D01*
X120081186Y-146061428D01*
X120274640Y-146002744D01*
X120452928Y-145907447D01*
X120609199Y-145779199D01*
X120737447Y-145622928D01*
X120832744Y-145444640D01*
X120891428Y-145251186D01*
X120911243Y-145050000D01*
X120911243Y-143400000D01*
X120891428Y-143198814D01*
X120868871Y-143124455D01*
X120881769Y-143093318D01*
X120927000Y-142865924D01*
X120927000Y-142634076D01*
X120881769Y-142406682D01*
X120793044Y-142192481D01*
X120664236Y-141999706D01*
X120500294Y-141835764D01*
X120307519Y-141706956D01*
X120093318Y-141618231D01*
X119865924Y-141573000D01*
X119634076Y-141573000D01*
X119406682Y-141618231D01*
X119192481Y-141706956D01*
X118999706Y-141835764D01*
X118835764Y-141999706D01*
X118706956Y-142192481D01*
X118618231Y-142406682D01*
X118573000Y-142634076D01*
X118573000Y-142865924D01*
X118603000Y-143016746D01*
X118603000Y-143085321D01*
X118568572Y-143198814D01*
X118548757Y-143400000D01*
X118377000Y-143400000D01*
X118377000Y-143000000D01*
X118374560Y-142975224D01*
X118367333Y-142951399D01*
X118355597Y-142929443D01*
X118339803Y-142910197D01*
X118320557Y-142894403D01*
X118298601Y-142882667D01*
X118274776Y-142875440D01*
X118250000Y-142873000D01*
X117500000Y-142873000D01*
X117475224Y-142875440D01*
X117451399Y-142882667D01*
X117429443Y-142894403D01*
X117410197Y-142910197D01*
X117394403Y-142929443D01*
X117382667Y-142951399D01*
X117375440Y-142975224D01*
X117373000Y-143000000D01*
X116877000Y-143000000D01*
X116877000Y-142730027D01*
X117050294Y-142614236D01*
X117214236Y-142450294D01*
X117343044Y-142257519D01*
X117347813Y-142246005D01*
X117947764Y-141646055D01*
X117990765Y-141610765D01*
X118026055Y-141567764D01*
X118026058Y-141567761D01*
X118131600Y-141439157D01*
X118145078Y-141413942D01*
X118236250Y-141243371D01*
X118300693Y-141030931D01*
X118317000Y-140865365D01*
X118317000Y-140865355D01*
X118322452Y-140810001D01*
X118317000Y-140754646D01*
X118317000Y-140414679D01*
X118351428Y-140301186D01*
X118371243Y-140100000D01*
X118371243Y-139127000D01*
X118548757Y-139127000D01*
X118548757Y-140100000D01*
G04 #@! TA.AperFunction,Conductor*
D27*
G36*
X118548757Y-140100000D02*
G01*
X118568572Y-140301186D01*
X118627256Y-140494640D01*
X118722553Y-140672928D01*
X118850801Y-140829199D01*
X119007072Y-140957447D01*
X119185360Y-141052744D01*
X119378814Y-141111428D01*
X119580000Y-141131243D01*
X119880000Y-141131243D01*
X119883786Y-141130870D01*
X119956956Y-141307519D01*
X120085764Y-141500294D01*
X120249706Y-141664236D01*
X120442481Y-141793044D01*
X120656682Y-141881769D01*
X120884076Y-141927000D01*
X121115924Y-141927000D01*
X121343318Y-141881769D01*
X121557519Y-141793044D01*
X121750294Y-141664236D01*
X121914236Y-141500294D01*
X122043044Y-141307519D01*
X122131769Y-141093318D01*
X122177000Y-140865924D01*
X122177000Y-140634076D01*
X122131769Y-140406682D01*
X122130416Y-140403417D01*
X122161428Y-140301186D01*
X122181243Y-140100000D01*
X122181243Y-139127000D01*
X122358757Y-139127000D01*
X122358757Y-140100000D01*
X122378572Y-140301186D01*
X122413000Y-140414679D01*
X122413000Y-140484646D01*
X122407548Y-140540000D01*
X122413000Y-140595354D01*
X122413000Y-140595365D01*
X122429307Y-140760931D01*
X122461157Y-140865924D01*
X122493750Y-140973370D01*
X122598400Y-141169156D01*
X122703942Y-141297760D01*
X122703946Y-141297764D01*
X122739236Y-141340765D01*
X122782237Y-141376055D01*
X123123000Y-141716818D01*
X123123000Y-141783182D01*
X122782237Y-142123945D01*
X122739236Y-142159235D01*
X122703946Y-142202236D01*
X122703942Y-142202240D01*
X122598400Y-142330844D01*
X122570226Y-142383553D01*
X122420000Y-142368757D01*
X122120000Y-142368757D01*
X121918814Y-142388572D01*
X121725360Y-142447256D01*
X121547072Y-142542553D01*
X121390801Y-142670801D01*
X121262553Y-142827072D01*
X121167256Y-143005360D01*
X121108572Y-143198814D01*
X121088757Y-143400000D01*
X121088757Y-145050000D01*
X121108572Y-145251186D01*
X121123000Y-145298748D01*
X121123000Y-145444646D01*
X121117548Y-145500000D01*
X121123000Y-145555354D01*
X121123000Y-145555365D01*
X121139307Y-145720931D01*
X121181303Y-145859372D01*
X121203750Y-145933370D01*
X121308400Y-146129156D01*
X121413942Y-146257760D01*
X121413946Y-146257764D01*
X121449236Y-146300765D01*
X121492237Y-146336055D01*
X122163940Y-147007758D01*
X122199235Y-147050765D01*
X122370843Y-147191600D01*
X122566629Y-147296250D01*
X122779069Y-147360693D01*
X122944635Y-147377000D01*
X122944645Y-147377000D01*
X122999999Y-147382452D01*
X123055354Y-147377000D01*
X123123000Y-147377000D01*
X123123000Y-147623000D01*
X118802606Y-147623000D01*
X116877000Y-145697394D01*
X116877000Y-143000000D01*
X117373000Y-143000000D01*
X117373000Y-145500000D01*
X117375440Y-145524776D01*
X117382667Y-145548601D01*
X117394403Y-145570557D01*
X117410197Y-145589803D01*
X117429443Y-145605597D01*
X117451399Y-145617333D01*
X117475224Y-145624560D01*
X117500000Y-145627000D01*
X118250000Y-145627000D01*
X118274776Y-145624560D01*
X118298601Y-145617333D01*
X118320557Y-145605597D01*
X118339803Y-145589803D01*
X118355597Y-145570557D01*
X118367333Y-145548601D01*
X118374560Y-145524776D01*
X118377000Y-145500000D01*
X118377000Y-143400000D01*
X118548757Y-143400000D01*
X118548757Y-145050000D01*
X118568572Y-145251186D01*
X118627256Y-145444640D01*
X118722553Y-145622928D01*
X118850801Y-145779199D01*
X119007072Y-145907447D01*
X119185360Y-146002744D01*
X119378814Y-146061428D01*
X119580000Y-146081243D01*
X119880000Y-146081243D01*
X120081186Y-146061428D01*
X120274640Y-146002744D01*
X120452928Y-145907447D01*
X120609199Y-145779199D01*
X120737447Y-145622928D01*
X120832744Y-145444640D01*
X120891428Y-145251186D01*
X120911243Y-145050000D01*
X120911243Y-143400000D01*
X120891428Y-143198814D01*
X120868871Y-143124455D01*
X120881769Y-143093318D01*
X120927000Y-142865924D01*
X120927000Y-142634076D01*
X120881769Y-142406682D01*
X120793044Y-142192481D01*
X120664236Y-141999706D01*
X120500294Y-141835764D01*
X120307519Y-141706956D01*
X120093318Y-141618231D01*
X119865924Y-141573000D01*
X119634076Y-141573000D01*
X119406682Y-141618231D01*
X119192481Y-141706956D01*
X118999706Y-141835764D01*
X118835764Y-141999706D01*
X118706956Y-142192481D01*
X118618231Y-142406682D01*
X118573000Y-142634076D01*
X118573000Y-142865924D01*
X118603000Y-143016746D01*
X118603000Y-143085321D01*
X118568572Y-143198814D01*
X118548757Y-143400000D01*
X118377000Y-143400000D01*
X118377000Y-143000000D01*
X118374560Y-142975224D01*
X118367333Y-142951399D01*
X118355597Y-142929443D01*
X118339803Y-142910197D01*
X118320557Y-142894403D01*
X118298601Y-142882667D01*
X118274776Y-142875440D01*
X118250000Y-142873000D01*
X117500000Y-142873000D01*
X117475224Y-142875440D01*
X117451399Y-142882667D01*
X117429443Y-142894403D01*
X117410197Y-142910197D01*
X117394403Y-142929443D01*
X117382667Y-142951399D01*
X117375440Y-142975224D01*
X117373000Y-143000000D01*
X116877000Y-143000000D01*
X116877000Y-142730027D01*
X117050294Y-142614236D01*
X117214236Y-142450294D01*
X117343044Y-142257519D01*
X117347813Y-142246005D01*
X117947764Y-141646055D01*
X117990765Y-141610765D01*
X118026055Y-141567764D01*
X118026058Y-141567761D01*
X118131600Y-141439157D01*
X118145078Y-141413942D01*
X118236250Y-141243371D01*
X118300693Y-141030931D01*
X118317000Y-140865365D01*
X118317000Y-140865355D01*
X118322452Y-140810001D01*
X118317000Y-140754646D01*
X118317000Y-140414679D01*
X118351428Y-140301186D01*
X118371243Y-140100000D01*
X118371243Y-139127000D01*
X118548757Y-139127000D01*
X118548757Y-140100000D01*
G37*
G04 #@! TD.AperFunction*
G04 #@! TD*
M02*
