M48
; DRILL file {KiCad (5.1.9-0-10_14)} date Saturday, May 20, 2023 at 12:30:11 AM
; FORMAT={-:-/ absolute / metric / decimal}
; #@! TF.CreationDate,2023-05-20T00:30:11-04:00
; #@! TF.GenerationSoftware,Kicad,Pcbnew,(5.1.9-0-10_14)
FMAT,2
METRIC
T1C0.400
T2C1.000
T3C1.100
T4C1.200
T5C1.300
T6C3.200
T7C3.500
%
G90
G05
T1
X99.5Y-132.25
X101.25Y-143.5
X101.75Y-138.0
X105.25Y-133.75
X105.5Y-140.75
X108.0Y-127.5
X109.0Y-154.25
X110.25Y-127.25
X115.0Y-138.5
X115.75Y-154.25
X116.3Y-141.7
X117.75Y-137.25
X119.5Y-154.5
X119.75Y-142.75
X120.0Y-134.75
X121.0Y-140.75
X125.75Y-144.25
X128.25Y-140.75
X131.088Y-138.162
X132.75Y-132.5
X133.25Y-151.5
X134.5Y-144.75
X135.25Y-150.25
X138.95Y-143.75
X139.0Y-128.75
X141.0Y-132.0
X144.25Y-154.5
X149.5Y-139.25
X153.0Y-133.25
X155.25Y-155.0
X156.5Y-155.0
X156.982Y-137.732
X157.0Y-135.25
X157.0Y-141.0
X158.75Y-131.25
X160.0Y-131.0
X160.25Y-134.5
X160.25Y-136.5
X160.25Y-138.5
X160.25Y-140.5
X160.25Y-142.5
X165.75Y-133.5
X166.5Y-131.5
X166.5Y-142.75
X166.5Y-151.5
X166.75Y-155.0
X167.35Y-137.85
X167.5Y-142.75
X167.75Y-155.0
X168.0Y-146.5
X169.75Y-141.5
X170.75Y-135.5
X171.25Y-132.25
X174.0Y-137.5
X177.25Y-137.0
X180.5Y-128.65
X180.5Y-129.65
X182.5Y-128.65
X182.5Y-129.65
X201.5Y-155.0
X202.5Y-155.0
X206.25Y-144.75
X208.662Y-146.088
X210.75Y-144.75
X213.162Y-146.088
X215.25Y-144.75
X217.662Y-146.088
X219.75Y-144.75
X222.162Y-146.088
X224.25Y-144.75
T2
X98.88Y-145.75
X98.88Y-149.0
X101.42Y-145.75
X101.42Y-149.0
X103.96Y-145.75
X103.96Y-149.0
X106.5Y-145.75
X106.5Y-149.0
X115.01Y-132.5
X116.25Y-128.25
X117.55Y-132.5
X118.79Y-128.25
X120.09Y-132.5
X121.33Y-128.25
X122.63Y-132.5
X123.87Y-128.25
X124.47Y-153.25
X125.17Y-132.5
X126.41Y-128.25
X127.01Y-153.25
X127.71Y-132.5
X128.95Y-128.25
X129.55Y-153.25
X130.25Y-132.5
X131.49Y-128.25
X132.09Y-153.25
X134.63Y-153.25
X137.17Y-153.25
X137.25Y-135.0
X137.25Y-137.54
X137.25Y-140.08
X139.71Y-153.25
X139.79Y-135.0
X139.79Y-137.54
X139.79Y-140.08
X142.25Y-153.25
X145.46Y-141.5
X146.5Y-129.96
X146.5Y-132.5
X148.0Y-141.5
X151.38Y-152.75
X153.92Y-152.75
X156.46Y-152.75
X159.0Y-152.75
T3
X228.57Y-143.22
X228.57Y-148.3
T4
X173.0Y-147.5
X176.5Y-147.5
X180.0Y-147.5
X183.5Y-147.5
X187.0Y-147.5
X189.75Y-134.0
X190.5Y-147.5
X193.25Y-134.0
X194.0Y-147.5
X196.75Y-134.0
X197.5Y-147.5
X200.25Y-134.0
X201.0Y-147.5
T5
X191.0Y-140.75
X204.75Y-152.0
X213.5Y-140.75
X227.25Y-152.0
T6
X256.5Y-145.75
T7
X245.98Y-145.76
T0
M30
