G04 #@! TF.GenerationSoftware,KiCad,Pcbnew,(5.1.9-0-10_14)*
G04 #@! TF.CreationDate,2023-05-20T00:30:08-04:00*
G04 #@! TF.ProjectId,LiBCM-Daughterboard,4c694243-4d2d-4446-9175-676874657262,A*
G04 #@! TF.SameCoordinates,Original*
G04 #@! TF.FileFunction,Soldermask,Bot*
G04 #@! TF.FilePolarity,Negative*
%FSLAX46Y46*%
G04 Gerber Fmt 4.6, Leading zero omitted, Abs format (unit mm)*
G04 Created by KiCad (PCBNEW (5.1.9-0-10_14)) date 2023-05-20 00:30:08*
%MOMM*%
%LPD*%
G01*
G04 APERTURE LIST*
%ADD10C,3.000000*%
%ADD11O,1.700000X1.700000*%
%ADD12R,1.700000X1.700000*%
%ADD13O,1.800000X3.600000*%
%ADD14O,3.500000X3.500000*%
%ADD15R,2.000000X2.000000*%
%ADD16O,2.000000X2.000000*%
%ADD17C,3.200000*%
G04 APERTURE END LIST*
D10*
G04 #@! TO.C,F1*
X213500000Y-140750000D03*
X191000000Y-140750000D03*
G04 #@! TD*
G04 #@! TO.C,F2*
X204750000Y-152000000D03*
X227250000Y-152000000D03*
G04 #@! TD*
D11*
G04 #@! TO.C,J3*
X116250000Y-128250000D03*
X118790000Y-128250000D03*
X121330000Y-128250000D03*
X123870000Y-128250000D03*
X126410000Y-128250000D03*
X128950000Y-128250000D03*
D12*
X131490000Y-128250000D03*
G04 #@! TD*
G04 #@! TO.C,J4*
X130250000Y-132500000D03*
D11*
X127710000Y-132500000D03*
X125170000Y-132500000D03*
X122630000Y-132500000D03*
X120090000Y-132500000D03*
X117550000Y-132500000D03*
X115010000Y-132500000D03*
G04 #@! TD*
D12*
G04 #@! TO.C,J9*
X159000000Y-152750000D03*
D11*
X156460000Y-152750000D03*
X153920000Y-152750000D03*
X151380000Y-152750000D03*
G04 #@! TD*
D12*
G04 #@! TO.C,J12*
X148000000Y-141500000D03*
D11*
X145460000Y-141500000D03*
G04 #@! TD*
D12*
G04 #@! TO.C,J5*
X137250000Y-135000000D03*
D11*
X139790000Y-135000000D03*
X137250000Y-137540000D03*
X139790000Y-137540000D03*
X137250000Y-140080000D03*
X139790000Y-140080000D03*
G04 #@! TD*
G04 #@! TO.C,J10*
G36*
G01*
X201150000Y-132450000D02*
X201150000Y-135550000D01*
G75*
G02*
X200900000Y-135800000I-250000J0D01*
G01*
X199600000Y-135800000D01*
G75*
G02*
X199350000Y-135550000I0J250000D01*
G01*
X199350000Y-132450000D01*
G75*
G02*
X199600000Y-132200000I250000J0D01*
G01*
X200900000Y-132200000D01*
G75*
G02*
X201150000Y-132450000I0J-250000D01*
G01*
G37*
D13*
X196750000Y-134000000D03*
X193250000Y-134000000D03*
X189750000Y-134000000D03*
G04 #@! TD*
G04 #@! TO.C,J11*
G36*
G01*
X172100000Y-149050000D02*
X172100000Y-145950000D01*
G75*
G02*
X172350000Y-145700000I250000J0D01*
G01*
X173650000Y-145700000D01*
G75*
G02*
X173900000Y-145950000I0J-250000D01*
G01*
X173900000Y-149050000D01*
G75*
G02*
X173650000Y-149300000I-250000J0D01*
G01*
X172350000Y-149300000D01*
G75*
G02*
X172100000Y-149050000I0J250000D01*
G01*
G37*
X176500000Y-147500000D03*
X180000000Y-147500000D03*
X183500000Y-147500000D03*
G04 #@! TD*
D12*
G04 #@! TO.C,J8*
X146500000Y-132500000D03*
D11*
X146500000Y-129960000D03*
G04 #@! TD*
D12*
G04 #@! TO.C,J7*
X142250000Y-153250000D03*
D11*
X139710000Y-153250000D03*
X137170000Y-153250000D03*
X134630000Y-153250000D03*
X132090000Y-153250000D03*
X129550000Y-153250000D03*
X127010000Y-153250000D03*
X124470000Y-153250000D03*
G04 #@! TD*
D12*
G04 #@! TO.C,J6*
X98880000Y-145750000D03*
D11*
X101420000Y-145750000D03*
X103960000Y-145750000D03*
X106500000Y-145750000D03*
G04 #@! TD*
D14*
G04 #@! TO.C,D3*
X245980000Y-145760000D03*
D15*
X228570000Y-143220000D03*
D16*
X228570000Y-148300000D03*
G04 #@! TD*
D17*
G04 #@! TO.C,H1*
X256500000Y-145750000D03*
G04 #@! TD*
D12*
G04 #@! TO.C,J2*
X106500000Y-149000000D03*
D11*
X103960000Y-149000000D03*
X101420000Y-149000000D03*
X98880000Y-149000000D03*
G04 #@! TD*
G04 #@! TO.C,J13*
G36*
G01*
X186100000Y-149050000D02*
X186100000Y-145950000D01*
G75*
G02*
X186350000Y-145700000I250000J0D01*
G01*
X187650000Y-145700000D01*
G75*
G02*
X187900000Y-145950000I0J-250000D01*
G01*
X187900000Y-149050000D01*
G75*
G02*
X187650000Y-149300000I-250000J0D01*
G01*
X186350000Y-149300000D01*
G75*
G02*
X186100000Y-149050000I0J250000D01*
G01*
G37*
D13*
X190500000Y-147500000D03*
X194000000Y-147500000D03*
X197500000Y-147500000D03*
X201000000Y-147500000D03*
G04 #@! TD*
M02*
