G04 #@! TF.GenerationSoftware,KiCad,Pcbnew,(5.1.9-0-10_14)*
G04 #@! TF.CreationDate,2023-05-20T00:30:08-04:00*
G04 #@! TF.ProjectId,LiBCM-Daughterboard,4c694243-4d2d-4446-9175-676874657262,A*
G04 #@! TF.SameCoordinates,Original*
G04 #@! TF.FileFunction,Paste,Top*
G04 #@! TF.FilePolarity,Positive*
%FSLAX46Y46*%
G04 Gerber Fmt 4.6, Leading zero omitted, Abs format (unit mm)*
G04 Created by KiCad (PCBNEW (5.1.9-0-10_14)) date 2023-05-20 00:30:08*
%MOMM*%
%LPD*%
G01*
G04 APERTURE LIST*
%ADD10R,1.200000X2.200000*%
%ADD11R,2.750000X3.050000*%
%ADD12R,0.900000X0.800000*%
%ADD13R,1.500000X1.780000*%
%ADD14R,1.200000X0.900000*%
G04 APERTURE END LIST*
D10*
G04 #@! TO.C,Q1*
X186030000Y-129150000D03*
X181470000Y-129150000D03*
D11*
X182225000Y-137125000D03*
X185275000Y-133775000D03*
X185275000Y-137125000D03*
X182225000Y-133775000D03*
G04 #@! TD*
G04 #@! TO.C,C2*
G36*
G01*
X106950000Y-142275000D02*
X106950000Y-143225000D01*
G75*
G02*
X106700000Y-143475000I-250000J0D01*
G01*
X106200000Y-143475000D01*
G75*
G02*
X105950000Y-143225000I0J250000D01*
G01*
X105950000Y-142275000D01*
G75*
G02*
X106200000Y-142025000I250000J0D01*
G01*
X106700000Y-142025000D01*
G75*
G02*
X106950000Y-142275000I0J-250000D01*
G01*
G37*
G36*
G01*
X105050000Y-142275000D02*
X105050000Y-143225000D01*
G75*
G02*
X104800000Y-143475000I-250000J0D01*
G01*
X104300000Y-143475000D01*
G75*
G02*
X104050000Y-143225000I0J250000D01*
G01*
X104050000Y-142275000D01*
G75*
G02*
X104300000Y-142025000I250000J0D01*
G01*
X104800000Y-142025000D01*
G75*
G02*
X105050000Y-142275000I0J-250000D01*
G01*
G37*
G04 #@! TD*
G04 #@! TO.C,C3*
G36*
G01*
X135300000Y-129225000D02*
X135300000Y-128275000D01*
G75*
G02*
X135550000Y-128025000I250000J0D01*
G01*
X136050000Y-128025000D01*
G75*
G02*
X136300000Y-128275000I0J-250000D01*
G01*
X136300000Y-129225000D01*
G75*
G02*
X136050000Y-129475000I-250000J0D01*
G01*
X135550000Y-129475000D01*
G75*
G02*
X135300000Y-129225000I0J250000D01*
G01*
G37*
G36*
G01*
X137200000Y-129225000D02*
X137200000Y-128275000D01*
G75*
G02*
X137450000Y-128025000I250000J0D01*
G01*
X137950000Y-128025000D01*
G75*
G02*
X138200000Y-128275000I0J-250000D01*
G01*
X138200000Y-129225000D01*
G75*
G02*
X137950000Y-129475000I-250000J0D01*
G01*
X137450000Y-129475000D01*
G75*
G02*
X137200000Y-129225000I0J250000D01*
G01*
G37*
G04 #@! TD*
G04 #@! TO.C,C1*
G36*
G01*
X128800000Y-139025000D02*
X128800000Y-139975000D01*
G75*
G02*
X128550000Y-140225000I-250000J0D01*
G01*
X128050000Y-140225000D01*
G75*
G02*
X127800000Y-139975000I0J250000D01*
G01*
X127800000Y-139025000D01*
G75*
G02*
X128050000Y-138775000I250000J0D01*
G01*
X128550000Y-138775000D01*
G75*
G02*
X128800000Y-139025000I0J-250000D01*
G01*
G37*
G36*
G01*
X130700000Y-139025000D02*
X130700000Y-139975000D01*
G75*
G02*
X130450000Y-140225000I-250000J0D01*
G01*
X129950000Y-140225000D01*
G75*
G02*
X129700000Y-139975000I0J250000D01*
G01*
X129700000Y-139025000D01*
G75*
G02*
X129950000Y-138775000I250000J0D01*
G01*
X130450000Y-138775000D01*
G75*
G02*
X130700000Y-139025000I0J-250000D01*
G01*
G37*
G04 #@! TD*
G04 #@! TO.C,C7*
G36*
G01*
X166700000Y-149775000D02*
X166700000Y-150725000D01*
G75*
G02*
X166450000Y-150975000I-250000J0D01*
G01*
X165950000Y-150975000D01*
G75*
G02*
X165700000Y-150725000I0J250000D01*
G01*
X165700000Y-149775000D01*
G75*
G02*
X165950000Y-149525000I250000J0D01*
G01*
X166450000Y-149525000D01*
G75*
G02*
X166700000Y-149775000I0J-250000D01*
G01*
G37*
G36*
G01*
X164800000Y-149775000D02*
X164800000Y-150725000D01*
G75*
G02*
X164550000Y-150975000I-250000J0D01*
G01*
X164050000Y-150975000D01*
G75*
G02*
X163800000Y-150725000I0J250000D01*
G01*
X163800000Y-149775000D01*
G75*
G02*
X164050000Y-149525000I250000J0D01*
G01*
X164550000Y-149525000D01*
G75*
G02*
X164800000Y-149775000I0J-250000D01*
G01*
G37*
G04 #@! TD*
G04 #@! TO.C,R13*
G36*
G01*
X154549998Y-146650000D02*
X155450002Y-146650000D01*
G75*
G02*
X155700000Y-146899998I0J-249998D01*
G01*
X155700000Y-147425002D01*
G75*
G02*
X155450002Y-147675000I-249998J0D01*
G01*
X154549998Y-147675000D01*
G75*
G02*
X154300000Y-147425002I0J249998D01*
G01*
X154300000Y-146899998D01*
G75*
G02*
X154549998Y-146650000I249998J0D01*
G01*
G37*
G36*
G01*
X154549998Y-144825000D02*
X155450002Y-144825000D01*
G75*
G02*
X155700000Y-145074998I0J-249998D01*
G01*
X155700000Y-145600002D01*
G75*
G02*
X155450002Y-145850000I-249998J0D01*
G01*
X154549998Y-145850000D01*
G75*
G02*
X154300000Y-145600002I0J249998D01*
G01*
X154300000Y-145074998D01*
G75*
G02*
X154549998Y-144825000I249998J0D01*
G01*
G37*
G04 #@! TD*
G04 #@! TO.C,R11*
G36*
G01*
X144049998Y-135575000D02*
X144950002Y-135575000D01*
G75*
G02*
X145200000Y-135824998I0J-249998D01*
G01*
X145200000Y-136350002D01*
G75*
G02*
X144950002Y-136600000I-249998J0D01*
G01*
X144049998Y-136600000D01*
G75*
G02*
X143800000Y-136350002I0J249998D01*
G01*
X143800000Y-135824998D01*
G75*
G02*
X144049998Y-135575000I249998J0D01*
G01*
G37*
G36*
G01*
X144049998Y-137400000D02*
X144950002Y-137400000D01*
G75*
G02*
X145200000Y-137649998I0J-249998D01*
G01*
X145200000Y-138175002D01*
G75*
G02*
X144950002Y-138425000I-249998J0D01*
G01*
X144049998Y-138425000D01*
G75*
G02*
X143800000Y-138175002I0J249998D01*
G01*
X143800000Y-137649998D01*
G75*
G02*
X144049998Y-137400000I249998J0D01*
G01*
G37*
G04 #@! TD*
G04 #@! TO.C,R8*
G36*
G01*
X152925000Y-131049998D02*
X152925000Y-131950002D01*
G75*
G02*
X152675002Y-132200000I-249998J0D01*
G01*
X152149998Y-132200000D01*
G75*
G02*
X151900000Y-131950002I0J249998D01*
G01*
X151900000Y-131049998D01*
G75*
G02*
X152149998Y-130800000I249998J0D01*
G01*
X152675002Y-130800000D01*
G75*
G02*
X152925000Y-131049998I0J-249998D01*
G01*
G37*
G36*
G01*
X151100000Y-131049998D02*
X151100000Y-131950002D01*
G75*
G02*
X150850002Y-132200000I-249998J0D01*
G01*
X150324998Y-132200000D01*
G75*
G02*
X150075000Y-131950002I0J249998D01*
G01*
X150075000Y-131049998D01*
G75*
G02*
X150324998Y-130800000I249998J0D01*
G01*
X150850002Y-130800000D01*
G75*
G02*
X151100000Y-131049998I0J-249998D01*
G01*
G37*
G04 #@! TD*
G04 #@! TO.C,R9*
G36*
G01*
X154549998Y-128900000D02*
X155450002Y-128900000D01*
G75*
G02*
X155700000Y-129149998I0J-249998D01*
G01*
X155700000Y-129675002D01*
G75*
G02*
X155450002Y-129925000I-249998J0D01*
G01*
X154549998Y-129925000D01*
G75*
G02*
X154300000Y-129675002I0J249998D01*
G01*
X154300000Y-129149998D01*
G75*
G02*
X154549998Y-128900000I249998J0D01*
G01*
G37*
G36*
G01*
X154549998Y-127075000D02*
X155450002Y-127075000D01*
G75*
G02*
X155700000Y-127324998I0J-249998D01*
G01*
X155700000Y-127850002D01*
G75*
G02*
X155450002Y-128100000I-249998J0D01*
G01*
X154549998Y-128100000D01*
G75*
G02*
X154300000Y-127850002I0J249998D01*
G01*
X154300000Y-127324998D01*
G75*
G02*
X154549998Y-127075000I249998J0D01*
G01*
G37*
G04 #@! TD*
G04 #@! TO.C,R10*
G36*
G01*
X151100000Y-128549998D02*
X151100000Y-129450002D01*
G75*
G02*
X150850002Y-129700000I-249998J0D01*
G01*
X150324998Y-129700000D01*
G75*
G02*
X150075000Y-129450002I0J249998D01*
G01*
X150075000Y-128549998D01*
G75*
G02*
X150324998Y-128300000I249998J0D01*
G01*
X150850002Y-128300000D01*
G75*
G02*
X151100000Y-128549998I0J-249998D01*
G01*
G37*
G36*
G01*
X152925000Y-128549998D02*
X152925000Y-129450002D01*
G75*
G02*
X152675002Y-129700000I-249998J0D01*
G01*
X152149998Y-129700000D01*
G75*
G02*
X151900000Y-129450002I0J249998D01*
G01*
X151900000Y-128549998D01*
G75*
G02*
X152149998Y-128300000I249998J0D01*
G01*
X152675002Y-128300000D01*
G75*
G02*
X152925000Y-128549998I0J-249998D01*
G01*
G37*
G04 #@! TD*
G04 #@! TO.C,R15*
G36*
G01*
X171624997Y-127475000D02*
X172875003Y-127475000D01*
G75*
G02*
X173125000Y-127724997I0J-249997D01*
G01*
X173125000Y-128350003D01*
G75*
G02*
X172875003Y-128600000I-249997J0D01*
G01*
X171624997Y-128600000D01*
G75*
G02*
X171375000Y-128350003I0J249997D01*
G01*
X171375000Y-127724997D01*
G75*
G02*
X171624997Y-127475000I249997J0D01*
G01*
G37*
G36*
G01*
X171624997Y-130400000D02*
X172875003Y-130400000D01*
G75*
G02*
X173125000Y-130649997I0J-249997D01*
G01*
X173125000Y-131275003D01*
G75*
G02*
X172875003Y-131525000I-249997J0D01*
G01*
X171624997Y-131525000D01*
G75*
G02*
X171375000Y-131275003I0J249997D01*
G01*
X171375000Y-130649997D01*
G75*
G02*
X171624997Y-130400000I249997J0D01*
G01*
G37*
G04 #@! TD*
G04 #@! TO.C,R16*
G36*
G01*
X211299998Y-147400000D02*
X212200002Y-147400000D01*
G75*
G02*
X212450000Y-147649998I0J-249998D01*
G01*
X212450000Y-148175002D01*
G75*
G02*
X212200002Y-148425000I-249998J0D01*
G01*
X211299998Y-148425000D01*
G75*
G02*
X211050000Y-148175002I0J249998D01*
G01*
X211050000Y-147649998D01*
G75*
G02*
X211299998Y-147400000I249998J0D01*
G01*
G37*
G36*
G01*
X211299998Y-145575000D02*
X212200002Y-145575000D01*
G75*
G02*
X212450000Y-145824998I0J-249998D01*
G01*
X212450000Y-146350002D01*
G75*
G02*
X212200002Y-146600000I-249998J0D01*
G01*
X211299998Y-146600000D01*
G75*
G02*
X211050000Y-146350002I0J249998D01*
G01*
X211050000Y-145824998D01*
G75*
G02*
X211299998Y-145575000I249998J0D01*
G01*
G37*
G04 #@! TD*
G04 #@! TO.C,R17*
G36*
G01*
X208549998Y-153650000D02*
X209450002Y-153650000D01*
G75*
G02*
X209700000Y-153899998I0J-249998D01*
G01*
X209700000Y-154425002D01*
G75*
G02*
X209450002Y-154675000I-249998J0D01*
G01*
X208549998Y-154675000D01*
G75*
G02*
X208300000Y-154425002I0J249998D01*
G01*
X208300000Y-153899998D01*
G75*
G02*
X208549998Y-153650000I249998J0D01*
G01*
G37*
G36*
G01*
X208549998Y-151825000D02*
X209450002Y-151825000D01*
G75*
G02*
X209700000Y-152074998I0J-249998D01*
G01*
X209700000Y-152600002D01*
G75*
G02*
X209450002Y-152850000I-249998J0D01*
G01*
X208549998Y-152850000D01*
G75*
G02*
X208300000Y-152600002I0J249998D01*
G01*
X208300000Y-152074998D01*
G75*
G02*
X208549998Y-151825000I249998J0D01*
G01*
G37*
G04 #@! TD*
G04 #@! TO.C,R19*
G36*
G01*
X206799998Y-147400000D02*
X207700002Y-147400000D01*
G75*
G02*
X207950000Y-147649998I0J-249998D01*
G01*
X207950000Y-148175002D01*
G75*
G02*
X207700002Y-148425000I-249998J0D01*
G01*
X206799998Y-148425000D01*
G75*
G02*
X206550000Y-148175002I0J249998D01*
G01*
X206550000Y-147649998D01*
G75*
G02*
X206799998Y-147400000I249998J0D01*
G01*
G37*
G36*
G01*
X206799998Y-145575000D02*
X207700002Y-145575000D01*
G75*
G02*
X207950000Y-145824998I0J-249998D01*
G01*
X207950000Y-146350002D01*
G75*
G02*
X207700002Y-146600000I-249998J0D01*
G01*
X206799998Y-146600000D01*
G75*
G02*
X206550000Y-146350002I0J249998D01*
G01*
X206550000Y-145824998D01*
G75*
G02*
X206799998Y-145575000I249998J0D01*
G01*
G37*
G04 #@! TD*
G04 #@! TO.C,R20*
G36*
G01*
X212049998Y-153650000D02*
X212950002Y-153650000D01*
G75*
G02*
X213200000Y-153899998I0J-249998D01*
G01*
X213200000Y-154425002D01*
G75*
G02*
X212950002Y-154675000I-249998J0D01*
G01*
X212049998Y-154675000D01*
G75*
G02*
X211800000Y-154425002I0J249998D01*
G01*
X211800000Y-153899998D01*
G75*
G02*
X212049998Y-153650000I249998J0D01*
G01*
G37*
G36*
G01*
X212049998Y-151825000D02*
X212950002Y-151825000D01*
G75*
G02*
X213200000Y-152074998I0J-249998D01*
G01*
X213200000Y-152600002D01*
G75*
G02*
X212950002Y-152850000I-249998J0D01*
G01*
X212049998Y-152850000D01*
G75*
G02*
X211800000Y-152600002I0J249998D01*
G01*
X211800000Y-152074998D01*
G75*
G02*
X212049998Y-151825000I249998J0D01*
G01*
G37*
G04 #@! TD*
D12*
G04 #@! TO.C,U2*
X163750000Y-154000000D03*
X165750000Y-153050000D03*
X165750000Y-154950000D03*
G04 #@! TD*
G04 #@! TO.C,D1*
G36*
G01*
X157293750Y-128950000D02*
X158206250Y-128950000D01*
G75*
G02*
X158450000Y-129193750I0J-243750D01*
G01*
X158450000Y-129681250D01*
G75*
G02*
X158206250Y-129925000I-243750J0D01*
G01*
X157293750Y-129925000D01*
G75*
G02*
X157050000Y-129681250I0J243750D01*
G01*
X157050000Y-129193750D01*
G75*
G02*
X157293750Y-128950000I243750J0D01*
G01*
G37*
G36*
G01*
X157293750Y-127075000D02*
X158206250Y-127075000D01*
G75*
G02*
X158450000Y-127318750I0J-243750D01*
G01*
X158450000Y-127806250D01*
G75*
G02*
X158206250Y-128050000I-243750J0D01*
G01*
X157293750Y-128050000D01*
G75*
G02*
X157050000Y-127806250I0J243750D01*
G01*
X157050000Y-127318750D01*
G75*
G02*
X157293750Y-127075000I243750J0D01*
G01*
G37*
G04 #@! TD*
G04 #@! TO.C,D2*
G36*
G01*
X151956250Y-137175000D02*
X151043750Y-137175000D01*
G75*
G02*
X150800000Y-136931250I0J243750D01*
G01*
X150800000Y-136443750D01*
G75*
G02*
X151043750Y-136200000I243750J0D01*
G01*
X151956250Y-136200000D01*
G75*
G02*
X152200000Y-136443750I0J-243750D01*
G01*
X152200000Y-136931250D01*
G75*
G02*
X151956250Y-137175000I-243750J0D01*
G01*
G37*
G36*
G01*
X151956250Y-135300000D02*
X151043750Y-135300000D01*
G75*
G02*
X150800000Y-135056250I0J243750D01*
G01*
X150800000Y-134568750D01*
G75*
G02*
X151043750Y-134325000I243750J0D01*
G01*
X151956250Y-134325000D01*
G75*
G02*
X152200000Y-134568750I0J-243750D01*
G01*
X152200000Y-135056250D01*
G75*
G02*
X151956250Y-135300000I-243750J0D01*
G01*
G37*
G04 #@! TD*
G04 #@! TO.C,R12*
G36*
G01*
X151049998Y-146150000D02*
X151950002Y-146150000D01*
G75*
G02*
X152200000Y-146399998I0J-249998D01*
G01*
X152200000Y-146925002D01*
G75*
G02*
X151950002Y-147175000I-249998J0D01*
G01*
X151049998Y-147175000D01*
G75*
G02*
X150800000Y-146925002I0J249998D01*
G01*
X150800000Y-146399998D01*
G75*
G02*
X151049998Y-146150000I249998J0D01*
G01*
G37*
G36*
G01*
X151049998Y-144325000D02*
X151950002Y-144325000D01*
G75*
G02*
X152200000Y-144574998I0J-249998D01*
G01*
X152200000Y-145100002D01*
G75*
G02*
X151950002Y-145350000I-249998J0D01*
G01*
X151049998Y-145350000D01*
G75*
G02*
X150800000Y-145100002I0J249998D01*
G01*
X150800000Y-144574998D01*
G75*
G02*
X151049998Y-144325000I249998J0D01*
G01*
G37*
G04 #@! TD*
G04 #@! TO.C,R14*
G36*
G01*
X148450002Y-138425000D02*
X147549998Y-138425000D01*
G75*
G02*
X147300000Y-138175002I0J249998D01*
G01*
X147300000Y-137649998D01*
G75*
G02*
X147549998Y-137400000I249998J0D01*
G01*
X148450002Y-137400000D01*
G75*
G02*
X148700000Y-137649998I0J-249998D01*
G01*
X148700000Y-138175002D01*
G75*
G02*
X148450002Y-138425000I-249998J0D01*
G01*
G37*
G36*
G01*
X148450002Y-136600000D02*
X147549998Y-136600000D01*
G75*
G02*
X147300000Y-136350002I0J249998D01*
G01*
X147300000Y-135824998D01*
G75*
G02*
X147549998Y-135575000I249998J0D01*
G01*
X148450002Y-135575000D01*
G75*
G02*
X148700000Y-135824998I0J-249998D01*
G01*
X148700000Y-136350002D01*
G75*
G02*
X148450002Y-136600000I-249998J0D01*
G01*
G37*
G04 #@! TD*
D13*
G04 #@! TO.C,U3*
X154985000Y-133480000D03*
X164515000Y-136020000D03*
X154985000Y-136020000D03*
X164515000Y-133480000D03*
G04 #@! TD*
G04 #@! TO.C,C9*
G36*
G01*
X115800000Y-136725000D02*
X115800000Y-135775000D01*
G75*
G02*
X116050000Y-135525000I250000J0D01*
G01*
X116550000Y-135525000D01*
G75*
G02*
X116800000Y-135775000I0J-250000D01*
G01*
X116800000Y-136725000D01*
G75*
G02*
X116550000Y-136975000I-250000J0D01*
G01*
X116050000Y-136975000D01*
G75*
G02*
X115800000Y-136725000I0J250000D01*
G01*
G37*
G36*
G01*
X117700000Y-136725000D02*
X117700000Y-135775000D01*
G75*
G02*
X117950000Y-135525000I250000J0D01*
G01*
X118450000Y-135525000D01*
G75*
G02*
X118700000Y-135775000I0J-250000D01*
G01*
X118700000Y-136725000D01*
G75*
G02*
X118450000Y-136975000I-250000J0D01*
G01*
X117950000Y-136975000D01*
G75*
G02*
X117700000Y-136725000I0J250000D01*
G01*
G37*
G04 #@! TD*
G04 #@! TO.C,C10*
G36*
G01*
X107300000Y-139275000D02*
X107300000Y-140225000D01*
G75*
G02*
X107050000Y-140475000I-250000J0D01*
G01*
X106550000Y-140475000D01*
G75*
G02*
X106300000Y-140225000I0J250000D01*
G01*
X106300000Y-139275000D01*
G75*
G02*
X106550000Y-139025000I250000J0D01*
G01*
X107050000Y-139025000D01*
G75*
G02*
X107300000Y-139275000I0J-250000D01*
G01*
G37*
G36*
G01*
X109200000Y-139275000D02*
X109200000Y-140225000D01*
G75*
G02*
X108950000Y-140475000I-250000J0D01*
G01*
X108450000Y-140475000D01*
G75*
G02*
X108200000Y-140225000I0J250000D01*
G01*
X108200000Y-139275000D01*
G75*
G02*
X108450000Y-139025000I250000J0D01*
G01*
X108950000Y-139025000D01*
G75*
G02*
X109200000Y-139275000I0J-250000D01*
G01*
G37*
G04 #@! TD*
G04 #@! TO.C,C11*
G36*
G01*
X132725000Y-147950000D02*
X131775000Y-147950000D01*
G75*
G02*
X131525000Y-147700000I0J250000D01*
G01*
X131525000Y-147200000D01*
G75*
G02*
X131775000Y-146950000I250000J0D01*
G01*
X132725000Y-146950000D01*
G75*
G02*
X132975000Y-147200000I0J-250000D01*
G01*
X132975000Y-147700000D01*
G75*
G02*
X132725000Y-147950000I-250000J0D01*
G01*
G37*
G36*
G01*
X132725000Y-146050000D02*
X131775000Y-146050000D01*
G75*
G02*
X131525000Y-145800000I0J250000D01*
G01*
X131525000Y-145300000D01*
G75*
G02*
X131775000Y-145050000I250000J0D01*
G01*
X132725000Y-145050000D01*
G75*
G02*
X132975000Y-145300000I0J-250000D01*
G01*
X132975000Y-145800000D01*
G75*
G02*
X132725000Y-146050000I-250000J0D01*
G01*
G37*
G04 #@! TD*
D14*
G04 #@! TO.C,D4*
X169000000Y-154900000D03*
X169000000Y-151600000D03*
G04 #@! TD*
G04 #@! TO.C,C4*
G36*
G01*
X148275000Y-152200000D02*
X149225000Y-152200000D01*
G75*
G02*
X149475000Y-152450000I0J-250000D01*
G01*
X149475000Y-152950000D01*
G75*
G02*
X149225000Y-153200000I-250000J0D01*
G01*
X148275000Y-153200000D01*
G75*
G02*
X148025000Y-152950000I0J250000D01*
G01*
X148025000Y-152450000D01*
G75*
G02*
X148275000Y-152200000I250000J0D01*
G01*
G37*
G36*
G01*
X148275000Y-150300000D02*
X149225000Y-150300000D01*
G75*
G02*
X149475000Y-150550000I0J-250000D01*
G01*
X149475000Y-151050000D01*
G75*
G02*
X149225000Y-151300000I-250000J0D01*
G01*
X148275000Y-151300000D01*
G75*
G02*
X148025000Y-151050000I0J250000D01*
G01*
X148025000Y-150550000D01*
G75*
G02*
X148275000Y-150300000I250000J0D01*
G01*
G37*
G04 #@! TD*
G04 #@! TO.C,C8*
G36*
G01*
X166700000Y-147025000D02*
X166700000Y-147975000D01*
G75*
G02*
X166450000Y-148225000I-250000J0D01*
G01*
X165950000Y-148225000D01*
G75*
G02*
X165700000Y-147975000I0J250000D01*
G01*
X165700000Y-147025000D01*
G75*
G02*
X165950000Y-146775000I250000J0D01*
G01*
X166450000Y-146775000D01*
G75*
G02*
X166700000Y-147025000I0J-250000D01*
G01*
G37*
G36*
G01*
X164800000Y-147025000D02*
X164800000Y-147975000D01*
G75*
G02*
X164550000Y-148225000I-250000J0D01*
G01*
X164050000Y-148225000D01*
G75*
G02*
X163800000Y-147975000I0J250000D01*
G01*
X163800000Y-147025000D01*
G75*
G02*
X164050000Y-146775000I250000J0D01*
G01*
X164550000Y-146775000D01*
G75*
G02*
X164800000Y-147025000I0J-250000D01*
G01*
G37*
G04 #@! TD*
G04 #@! TO.C,D5*
G36*
G01*
X151956250Y-142925000D02*
X151043750Y-142925000D01*
G75*
G02*
X150800000Y-142681250I0J243750D01*
G01*
X150800000Y-142193750D01*
G75*
G02*
X151043750Y-141950000I243750J0D01*
G01*
X151956250Y-141950000D01*
G75*
G02*
X152200000Y-142193750I0J-243750D01*
G01*
X152200000Y-142681250D01*
G75*
G02*
X151956250Y-142925000I-243750J0D01*
G01*
G37*
G36*
G01*
X151956250Y-141050000D02*
X151043750Y-141050000D01*
G75*
G02*
X150800000Y-140806250I0J243750D01*
G01*
X150800000Y-140318750D01*
G75*
G02*
X151043750Y-140075000I243750J0D01*
G01*
X151956250Y-140075000D01*
G75*
G02*
X152200000Y-140318750I0J-243750D01*
G01*
X152200000Y-140806250D01*
G75*
G02*
X151956250Y-141050000I-243750J0D01*
G01*
G37*
G04 #@! TD*
D12*
G04 #@! TO.C,Q2*
X172550000Y-140000000D03*
X170550000Y-140950000D03*
X170550000Y-139050000D03*
G04 #@! TD*
G04 #@! TO.C,Q3*
X171750000Y-134050000D03*
X171750000Y-135950000D03*
X173750000Y-135000000D03*
G04 #@! TD*
G04 #@! TO.C,R1*
G36*
G01*
X149200001Y-147100000D02*
X148299999Y-147100000D01*
G75*
G02*
X148050000Y-146850001I0J249999D01*
G01*
X148050000Y-146324999D01*
G75*
G02*
X148299999Y-146075000I249999J0D01*
G01*
X149200001Y-146075000D01*
G75*
G02*
X149450000Y-146324999I0J-249999D01*
G01*
X149450000Y-146850001D01*
G75*
G02*
X149200001Y-147100000I-249999J0D01*
G01*
G37*
G36*
G01*
X149200001Y-148925000D02*
X148299999Y-148925000D01*
G75*
G02*
X148050000Y-148675001I0J249999D01*
G01*
X148050000Y-148149999D01*
G75*
G02*
X148299999Y-147900000I249999J0D01*
G01*
X149200001Y-147900000D01*
G75*
G02*
X149450000Y-148149999I0J-249999D01*
G01*
X149450000Y-148675001D01*
G75*
G02*
X149200001Y-148925000I-249999J0D01*
G01*
G37*
G04 #@! TD*
G04 #@! TO.C,R2*
G36*
G01*
X158049999Y-144825000D02*
X158950001Y-144825000D01*
G75*
G02*
X159200000Y-145074999I0J-249999D01*
G01*
X159200000Y-145600001D01*
G75*
G02*
X158950001Y-145850000I-249999J0D01*
G01*
X158049999Y-145850000D01*
G75*
G02*
X157800000Y-145600001I0J249999D01*
G01*
X157800000Y-145074999D01*
G75*
G02*
X158049999Y-144825000I249999J0D01*
G01*
G37*
G36*
G01*
X158049999Y-146650000D02*
X158950001Y-146650000D01*
G75*
G02*
X159200000Y-146899999I0J-249999D01*
G01*
X159200000Y-147425001D01*
G75*
G02*
X158950001Y-147675000I-249999J0D01*
G01*
X158049999Y-147675000D01*
G75*
G02*
X157800000Y-147425001I0J249999D01*
G01*
X157800000Y-146899999D01*
G75*
G02*
X158049999Y-146650000I249999J0D01*
G01*
G37*
G04 #@! TD*
G04 #@! TO.C,R3*
G36*
G01*
X224799999Y-147400000D02*
X225700001Y-147400000D01*
G75*
G02*
X225950000Y-147649999I0J-249999D01*
G01*
X225950000Y-148175001D01*
G75*
G02*
X225700001Y-148425000I-249999J0D01*
G01*
X224799999Y-148425000D01*
G75*
G02*
X224550000Y-148175001I0J249999D01*
G01*
X224550000Y-147649999D01*
G75*
G02*
X224799999Y-147400000I249999J0D01*
G01*
G37*
G36*
G01*
X224799999Y-145575000D02*
X225700001Y-145575000D01*
G75*
G02*
X225950000Y-145824999I0J-249999D01*
G01*
X225950000Y-146350001D01*
G75*
G02*
X225700001Y-146600000I-249999J0D01*
G01*
X224799999Y-146600000D01*
G75*
G02*
X224550000Y-146350001I0J249999D01*
G01*
X224550000Y-145824999D01*
G75*
G02*
X224799999Y-145575000I249999J0D01*
G01*
G37*
G04 #@! TD*
G04 #@! TO.C,R4*
G36*
G01*
X222549999Y-153650000D02*
X223450001Y-153650000D01*
G75*
G02*
X223700000Y-153899999I0J-249999D01*
G01*
X223700000Y-154425001D01*
G75*
G02*
X223450001Y-154675000I-249999J0D01*
G01*
X222549999Y-154675000D01*
G75*
G02*
X222300000Y-154425001I0J249999D01*
G01*
X222300000Y-153899999D01*
G75*
G02*
X222549999Y-153650000I249999J0D01*
G01*
G37*
G36*
G01*
X222549999Y-151825000D02*
X223450001Y-151825000D01*
G75*
G02*
X223700000Y-152074999I0J-249999D01*
G01*
X223700000Y-152600001D01*
G75*
G02*
X223450001Y-152850000I-249999J0D01*
G01*
X222549999Y-152850000D01*
G75*
G02*
X222300000Y-152600001I0J249999D01*
G01*
X222300000Y-152074999D01*
G75*
G02*
X222549999Y-151825000I249999J0D01*
G01*
G37*
G04 #@! TD*
G04 #@! TO.C,R5*
G36*
G01*
X220299999Y-145575000D02*
X221200001Y-145575000D01*
G75*
G02*
X221450000Y-145824999I0J-249999D01*
G01*
X221450000Y-146350001D01*
G75*
G02*
X221200001Y-146600000I-249999J0D01*
G01*
X220299999Y-146600000D01*
G75*
G02*
X220050000Y-146350001I0J249999D01*
G01*
X220050000Y-145824999D01*
G75*
G02*
X220299999Y-145575000I249999J0D01*
G01*
G37*
G36*
G01*
X220299999Y-147400000D02*
X221200001Y-147400000D01*
G75*
G02*
X221450000Y-147649999I0J-249999D01*
G01*
X221450000Y-148175001D01*
G75*
G02*
X221200001Y-148425000I-249999J0D01*
G01*
X220299999Y-148425000D01*
G75*
G02*
X220050000Y-148175001I0J249999D01*
G01*
X220050000Y-147649999D01*
G75*
G02*
X220299999Y-147400000I249999J0D01*
G01*
G37*
G04 #@! TD*
G04 #@! TO.C,R6*
G36*
G01*
X215549999Y-151825000D02*
X216450001Y-151825000D01*
G75*
G02*
X216700000Y-152074999I0J-249999D01*
G01*
X216700000Y-152600001D01*
G75*
G02*
X216450001Y-152850000I-249999J0D01*
G01*
X215549999Y-152850000D01*
G75*
G02*
X215300000Y-152600001I0J249999D01*
G01*
X215300000Y-152074999D01*
G75*
G02*
X215549999Y-151825000I249999J0D01*
G01*
G37*
G36*
G01*
X215549999Y-153650000D02*
X216450001Y-153650000D01*
G75*
G02*
X216700000Y-153899999I0J-249999D01*
G01*
X216700000Y-154425001D01*
G75*
G02*
X216450001Y-154675000I-249999J0D01*
G01*
X215549999Y-154675000D01*
G75*
G02*
X215300000Y-154425001I0J249999D01*
G01*
X215300000Y-153899999D01*
G75*
G02*
X215549999Y-153650000I249999J0D01*
G01*
G37*
G04 #@! TD*
G04 #@! TO.C,R7*
G36*
G01*
X215799999Y-145575000D02*
X216700001Y-145575000D01*
G75*
G02*
X216950000Y-145824999I0J-249999D01*
G01*
X216950000Y-146350001D01*
G75*
G02*
X216700001Y-146600000I-249999J0D01*
G01*
X215799999Y-146600000D01*
G75*
G02*
X215550000Y-146350001I0J249999D01*
G01*
X215550000Y-145824999D01*
G75*
G02*
X215799999Y-145575000I249999J0D01*
G01*
G37*
G36*
G01*
X215799999Y-147400000D02*
X216700001Y-147400000D01*
G75*
G02*
X216950000Y-147649999I0J-249999D01*
G01*
X216950000Y-148175001D01*
G75*
G02*
X216700001Y-148425000I-249999J0D01*
G01*
X215799999Y-148425000D01*
G75*
G02*
X215550000Y-148175001I0J249999D01*
G01*
X215550000Y-147649999D01*
G75*
G02*
X215799999Y-147400000I249999J0D01*
G01*
G37*
G04 #@! TD*
G04 #@! TO.C,R18*
G36*
G01*
X219049999Y-153650000D02*
X219950001Y-153650000D01*
G75*
G02*
X220200000Y-153899999I0J-249999D01*
G01*
X220200000Y-154425001D01*
G75*
G02*
X219950001Y-154675000I-249999J0D01*
G01*
X219049999Y-154675000D01*
G75*
G02*
X218800000Y-154425001I0J249999D01*
G01*
X218800000Y-153899999D01*
G75*
G02*
X219049999Y-153650000I249999J0D01*
G01*
G37*
G36*
G01*
X219049999Y-151825000D02*
X219950001Y-151825000D01*
G75*
G02*
X220200000Y-152074999I0J-249999D01*
G01*
X220200000Y-152600001D01*
G75*
G02*
X219950001Y-152850000I-249999J0D01*
G01*
X219049999Y-152850000D01*
G75*
G02*
X218800000Y-152600001I0J249999D01*
G01*
X218800000Y-152074999D01*
G75*
G02*
X219049999Y-151825000I249999J0D01*
G01*
G37*
G04 #@! TD*
G04 #@! TO.C,R21*
G36*
G01*
X143325000Y-147700001D02*
X143325000Y-146799999D01*
G75*
G02*
X143574999Y-146550000I249999J0D01*
G01*
X144100001Y-146550000D01*
G75*
G02*
X144350000Y-146799999I0J-249999D01*
G01*
X144350000Y-147700001D01*
G75*
G02*
X144100001Y-147950000I-249999J0D01*
G01*
X143574999Y-147950000D01*
G75*
G02*
X143325000Y-147700001I0J249999D01*
G01*
G37*
G36*
G01*
X145150000Y-147700001D02*
X145150000Y-146799999D01*
G75*
G02*
X145399999Y-146550000I249999J0D01*
G01*
X145925001Y-146550000D01*
G75*
G02*
X146175000Y-146799999I0J-249999D01*
G01*
X146175000Y-147700001D01*
G75*
G02*
X145925001Y-147950000I-249999J0D01*
G01*
X145399999Y-147950000D01*
G75*
G02*
X145150000Y-147700001I0J249999D01*
G01*
G37*
G04 #@! TD*
G04 #@! TO.C,R22*
G36*
G01*
X176850000Y-128699999D02*
X176850000Y-129600001D01*
G75*
G02*
X176600001Y-129850000I-249999J0D01*
G01*
X176074999Y-129850000D01*
G75*
G02*
X175825000Y-129600001I0J249999D01*
G01*
X175825000Y-128699999D01*
G75*
G02*
X176074999Y-128450000I249999J0D01*
G01*
X176600001Y-128450000D01*
G75*
G02*
X176850000Y-128699999I0J-249999D01*
G01*
G37*
G36*
G01*
X178675000Y-128699999D02*
X178675000Y-129600001D01*
G75*
G02*
X178425001Y-129850000I-249999J0D01*
G01*
X177899999Y-129850000D01*
G75*
G02*
X177650000Y-129600001I0J249999D01*
G01*
X177650000Y-128699999D01*
G75*
G02*
X177899999Y-128450000I249999J0D01*
G01*
X178425001Y-128450000D01*
G75*
G02*
X178675000Y-128699999I0J-249999D01*
G01*
G37*
G04 #@! TD*
G04 #@! TO.C,R23*
G36*
G01*
X169700001Y-148100000D02*
X168799999Y-148100000D01*
G75*
G02*
X168550000Y-147850001I0J249999D01*
G01*
X168550000Y-147324999D01*
G75*
G02*
X168799999Y-147075000I249999J0D01*
G01*
X169700001Y-147075000D01*
G75*
G02*
X169950000Y-147324999I0J-249999D01*
G01*
X169950000Y-147850001D01*
G75*
G02*
X169700001Y-148100000I-249999J0D01*
G01*
G37*
G36*
G01*
X169700001Y-149925000D02*
X168799999Y-149925000D01*
G75*
G02*
X168550000Y-149675001I0J249999D01*
G01*
X168550000Y-149149999D01*
G75*
G02*
X168799999Y-148900000I249999J0D01*
G01*
X169700001Y-148900000D01*
G75*
G02*
X169950000Y-149149999I0J-249999D01*
G01*
X169950000Y-149675001D01*
G75*
G02*
X169700001Y-149925000I-249999J0D01*
G01*
G37*
G04 #@! TD*
G04 #@! TO.C,R24*
G36*
G01*
X175100000Y-140299999D02*
X175100000Y-141200001D01*
G75*
G02*
X174850001Y-141450000I-249999J0D01*
G01*
X174324999Y-141450000D01*
G75*
G02*
X174075000Y-141200001I0J249999D01*
G01*
X174075000Y-140299999D01*
G75*
G02*
X174324999Y-140050000I249999J0D01*
G01*
X174850001Y-140050000D01*
G75*
G02*
X175100000Y-140299999I0J-249999D01*
G01*
G37*
G36*
G01*
X176925000Y-140299999D02*
X176925000Y-141200001D01*
G75*
G02*
X176675001Y-141450000I-249999J0D01*
G01*
X176149999Y-141450000D01*
G75*
G02*
X175900000Y-141200001I0J249999D01*
G01*
X175900000Y-140299999D01*
G75*
G02*
X176149999Y-140050000I249999J0D01*
G01*
X176675001Y-140050000D01*
G75*
G02*
X176925000Y-140299999I0J-249999D01*
G01*
G37*
G04 #@! TD*
G04 #@! TO.C,R25*
G36*
G01*
X166899999Y-138575000D02*
X167800001Y-138575000D01*
G75*
G02*
X168050000Y-138824999I0J-249999D01*
G01*
X168050000Y-139350001D01*
G75*
G02*
X167800001Y-139600000I-249999J0D01*
G01*
X166899999Y-139600000D01*
G75*
G02*
X166650000Y-139350001I0J249999D01*
G01*
X166650000Y-138824999D01*
G75*
G02*
X166899999Y-138575000I249999J0D01*
G01*
G37*
G36*
G01*
X166899999Y-140400000D02*
X167800001Y-140400000D01*
G75*
G02*
X168050000Y-140649999I0J-249999D01*
G01*
X168050000Y-141175001D01*
G75*
G02*
X167800001Y-141425000I-249999J0D01*
G01*
X166899999Y-141425000D01*
G75*
G02*
X166650000Y-141175001I0J249999D01*
G01*
X166650000Y-140649999D01*
G75*
G02*
X166899999Y-140400000I249999J0D01*
G01*
G37*
G04 #@! TD*
G04 #@! TO.C,R26*
G36*
G01*
X169700001Y-145675000D02*
X168799999Y-145675000D01*
G75*
G02*
X168550000Y-145425001I0J249999D01*
G01*
X168550000Y-144899999D01*
G75*
G02*
X168799999Y-144650000I249999J0D01*
G01*
X169700001Y-144650000D01*
G75*
G02*
X169950000Y-144899999I0J-249999D01*
G01*
X169950000Y-145425001D01*
G75*
G02*
X169700001Y-145675000I-249999J0D01*
G01*
G37*
G36*
G01*
X169700001Y-143850000D02*
X168799999Y-143850000D01*
G75*
G02*
X168550000Y-143600001I0J249999D01*
G01*
X168550000Y-143074999D01*
G75*
G02*
X168799999Y-142825000I249999J0D01*
G01*
X169700001Y-142825000D01*
G75*
G02*
X169950000Y-143074999I0J-249999D01*
G01*
X169950000Y-143600001D01*
G75*
G02*
X169700001Y-143850000I-249999J0D01*
G01*
G37*
G04 #@! TD*
G04 #@! TO.C,R27*
G36*
G01*
X164850000Y-144299999D02*
X164850000Y-145200001D01*
G75*
G02*
X164600001Y-145450000I-249999J0D01*
G01*
X164074999Y-145450000D01*
G75*
G02*
X163825000Y-145200001I0J249999D01*
G01*
X163825000Y-144299999D01*
G75*
G02*
X164074999Y-144050000I249999J0D01*
G01*
X164600001Y-144050000D01*
G75*
G02*
X164850000Y-144299999I0J-249999D01*
G01*
G37*
G36*
G01*
X166675000Y-144299999D02*
X166675000Y-145200001D01*
G75*
G02*
X166425001Y-145450000I-249999J0D01*
G01*
X165899999Y-145450000D01*
G75*
G02*
X165650000Y-145200001I0J249999D01*
G01*
X165650000Y-144299999D01*
G75*
G02*
X165899999Y-144050000I249999J0D01*
G01*
X166425001Y-144050000D01*
G75*
G02*
X166675000Y-144299999I0J-249999D01*
G01*
G37*
G04 #@! TD*
G04 #@! TO.C,R28*
G36*
G01*
X167950000Y-132499999D02*
X167950000Y-133400001D01*
G75*
G02*
X167700001Y-133650000I-249999J0D01*
G01*
X167174999Y-133650000D01*
G75*
G02*
X166925000Y-133400001I0J249999D01*
G01*
X166925000Y-132499999D01*
G75*
G02*
X167174999Y-132250000I249999J0D01*
G01*
X167700001Y-132250000D01*
G75*
G02*
X167950000Y-132499999I0J-249999D01*
G01*
G37*
G36*
G01*
X169775000Y-132499999D02*
X169775000Y-133400001D01*
G75*
G02*
X169525001Y-133650000I-249999J0D01*
G01*
X168999999Y-133650000D01*
G75*
G02*
X168750000Y-133400001I0J249999D01*
G01*
X168750000Y-132499999D01*
G75*
G02*
X168999999Y-132250000I249999J0D01*
G01*
X169525001Y-132250000D01*
G75*
G02*
X169775000Y-132499999I0J-249999D01*
G01*
G37*
G04 #@! TD*
G04 #@! TO.C,R29*
G36*
G01*
X166825000Y-136950001D02*
X166825000Y-136049999D01*
G75*
G02*
X167074999Y-135800000I249999J0D01*
G01*
X167600001Y-135800000D01*
G75*
G02*
X167850000Y-136049999I0J-249999D01*
G01*
X167850000Y-136950001D01*
G75*
G02*
X167600001Y-137200000I-249999J0D01*
G01*
X167074999Y-137200000D01*
G75*
G02*
X166825000Y-136950001I0J249999D01*
G01*
G37*
G36*
G01*
X168650000Y-136950001D02*
X168650000Y-136049999D01*
G75*
G02*
X168899999Y-135800000I249999J0D01*
G01*
X169425001Y-135800000D01*
G75*
G02*
X169675000Y-136049999I0J-249999D01*
G01*
X169675000Y-136950001D01*
G75*
G02*
X169425001Y-137200000I-249999J0D01*
G01*
X168899999Y-137200000D01*
G75*
G02*
X168650000Y-136950001I0J249999D01*
G01*
G37*
G04 #@! TD*
G04 #@! TO.C,R30*
G36*
G01*
X177650000Y-132200001D02*
X177650000Y-131299999D01*
G75*
G02*
X177899999Y-131050000I249999J0D01*
G01*
X178425001Y-131050000D01*
G75*
G02*
X178675000Y-131299999I0J-249999D01*
G01*
X178675000Y-132200001D01*
G75*
G02*
X178425001Y-132450000I-249999J0D01*
G01*
X177899999Y-132450000D01*
G75*
G02*
X177650000Y-132200001I0J249999D01*
G01*
G37*
G36*
G01*
X175825000Y-132200001D02*
X175825000Y-131299999D01*
G75*
G02*
X176074999Y-131050000I249999J0D01*
G01*
X176600001Y-131050000D01*
G75*
G02*
X176850000Y-131299999I0J-249999D01*
G01*
X176850000Y-132200001D01*
G75*
G02*
X176600001Y-132450000I-249999J0D01*
G01*
X176074999Y-132450000D01*
G75*
G02*
X175825000Y-132200001I0J249999D01*
G01*
G37*
G04 #@! TD*
G04 #@! TO.C,U1*
G36*
G01*
X160275000Y-127617500D02*
X160275000Y-127342500D01*
G75*
G02*
X160412500Y-127205000I137500J0D01*
G01*
X161587500Y-127205000D01*
G75*
G02*
X161725000Y-127342500I0J-137500D01*
G01*
X161725000Y-127617500D01*
G75*
G02*
X161587500Y-127755000I-137500J0D01*
G01*
X160412500Y-127755000D01*
G75*
G02*
X160275000Y-127617500I0J137500D01*
G01*
G37*
G36*
G01*
X160275000Y-130157500D02*
X160275000Y-129882500D01*
G75*
G02*
X160412500Y-129745000I137500J0D01*
G01*
X161587500Y-129745000D01*
G75*
G02*
X161725000Y-129882500I0J-137500D01*
G01*
X161725000Y-130157500D01*
G75*
G02*
X161587500Y-130295000I-137500J0D01*
G01*
X160412500Y-130295000D01*
G75*
G02*
X160275000Y-130157500I0J137500D01*
G01*
G37*
G36*
G01*
X165775000Y-130157500D02*
X165775000Y-129882500D01*
G75*
G02*
X165912500Y-129745000I137500J0D01*
G01*
X167087500Y-129745000D01*
G75*
G02*
X167225000Y-129882500I0J-137500D01*
G01*
X167225000Y-130157500D01*
G75*
G02*
X167087500Y-130295000I-137500J0D01*
G01*
X165912500Y-130295000D01*
G75*
G02*
X165775000Y-130157500I0J137500D01*
G01*
G37*
G36*
G01*
X165775000Y-127617500D02*
X165775000Y-127342500D01*
G75*
G02*
X165912500Y-127205000I137500J0D01*
G01*
X167087500Y-127205000D01*
G75*
G02*
X167225000Y-127342500I0J-137500D01*
G01*
X167225000Y-127617500D01*
G75*
G02*
X167087500Y-127755000I-137500J0D01*
G01*
X165912500Y-127755000D01*
G75*
G02*
X165775000Y-127617500I0J137500D01*
G01*
G37*
G04 #@! TD*
D13*
G04 #@! TO.C,U4*
X154985000Y-139730000D03*
X164515000Y-142270000D03*
X154985000Y-142270000D03*
X164515000Y-139730000D03*
G04 #@! TD*
G04 #@! TO.C,C5*
G36*
G01*
X176149999Y-134450000D02*
X178350001Y-134450000D01*
G75*
G02*
X178600000Y-134699999I0J-249999D01*
G01*
X178600000Y-135350001D01*
G75*
G02*
X178350001Y-135600000I-249999J0D01*
G01*
X176149999Y-135600000D01*
G75*
G02*
X175900000Y-135350001I0J249999D01*
G01*
X175900000Y-134699999D01*
G75*
G02*
X176149999Y-134450000I249999J0D01*
G01*
G37*
G36*
G01*
X176149999Y-137400000D02*
X178350001Y-137400000D01*
G75*
G02*
X178600000Y-137649999I0J-249999D01*
G01*
X178600000Y-138300001D01*
G75*
G02*
X178350001Y-138550000I-249999J0D01*
G01*
X176149999Y-138550000D01*
G75*
G02*
X175900000Y-138300001I0J249999D01*
G01*
X175900000Y-137649999D01*
G75*
G02*
X176149999Y-137400000I249999J0D01*
G01*
G37*
G04 #@! TD*
G04 #@! TO.C,C6*
G36*
G01*
X115225000Y-142200000D02*
X114275000Y-142200000D01*
G75*
G02*
X114025000Y-141950000I0J250000D01*
G01*
X114025000Y-141450000D01*
G75*
G02*
X114275000Y-141200000I250000J0D01*
G01*
X115225000Y-141200000D01*
G75*
G02*
X115475000Y-141450000I0J-250000D01*
G01*
X115475000Y-141950000D01*
G75*
G02*
X115225000Y-142200000I-250000J0D01*
G01*
G37*
G36*
G01*
X115225000Y-140300000D02*
X114275000Y-140300000D01*
G75*
G02*
X114025000Y-140050000I0J250000D01*
G01*
X114025000Y-139550000D01*
G75*
G02*
X114275000Y-139300000I250000J0D01*
G01*
X115225000Y-139300000D01*
G75*
G02*
X115475000Y-139550000I0J-250000D01*
G01*
X115475000Y-140050000D01*
G75*
G02*
X115225000Y-140300000I-250000J0D01*
G01*
G37*
G04 #@! TD*
G04 #@! TO.C,R31*
G36*
G01*
X132150000Y-142700001D02*
X132150000Y-141799999D01*
G75*
G02*
X132399999Y-141550000I249999J0D01*
G01*
X132925001Y-141550000D01*
G75*
G02*
X133175000Y-141799999I0J-249999D01*
G01*
X133175000Y-142700001D01*
G75*
G02*
X132925001Y-142950000I-249999J0D01*
G01*
X132399999Y-142950000D01*
G75*
G02*
X132150000Y-142700001I0J249999D01*
G01*
G37*
G36*
G01*
X130325000Y-142700001D02*
X130325000Y-141799999D01*
G75*
G02*
X130574999Y-141550000I249999J0D01*
G01*
X131100001Y-141550000D01*
G75*
G02*
X131350000Y-141799999I0J-249999D01*
G01*
X131350000Y-142700001D01*
G75*
G02*
X131100001Y-142950000I-249999J0D01*
G01*
X130574999Y-142950000D01*
G75*
G02*
X130325000Y-142700001I0J249999D01*
G01*
G37*
G04 #@! TD*
G04 #@! TO.C,R32*
G36*
G01*
X132950001Y-138675000D02*
X132049999Y-138675000D01*
G75*
G02*
X131800000Y-138425001I0J249999D01*
G01*
X131800000Y-137899999D01*
G75*
G02*
X132049999Y-137650000I249999J0D01*
G01*
X132950001Y-137650000D01*
G75*
G02*
X133200000Y-137899999I0J-249999D01*
G01*
X133200000Y-138425001D01*
G75*
G02*
X132950001Y-138675000I-249999J0D01*
G01*
G37*
G36*
G01*
X132950001Y-136850000D02*
X132049999Y-136850000D01*
G75*
G02*
X131800000Y-136600001I0J249999D01*
G01*
X131800000Y-136074999D01*
G75*
G02*
X132049999Y-135825000I249999J0D01*
G01*
X132950001Y-135825000D01*
G75*
G02*
X133200000Y-136074999I0J-249999D01*
G01*
X133200000Y-136600001D01*
G75*
G02*
X132950001Y-136850000I-249999J0D01*
G01*
G37*
G04 #@! TD*
G04 #@! TO.C,R33*
G36*
G01*
X128437500Y-136049999D02*
X128437500Y-136950001D01*
G75*
G02*
X128187501Y-137200000I-249999J0D01*
G01*
X127662499Y-137200000D01*
G75*
G02*
X127412500Y-136950001I0J249999D01*
G01*
X127412500Y-136049999D01*
G75*
G02*
X127662499Y-135800000I249999J0D01*
G01*
X128187501Y-135800000D01*
G75*
G02*
X128437500Y-136049999I0J-249999D01*
G01*
G37*
G36*
G01*
X130262500Y-136049999D02*
X130262500Y-136950001D01*
G75*
G02*
X130012501Y-137200000I-249999J0D01*
G01*
X129487499Y-137200000D01*
G75*
G02*
X129237500Y-136950001I0J249999D01*
G01*
X129237500Y-136049999D01*
G75*
G02*
X129487499Y-135800000I249999J0D01*
G01*
X130012501Y-135800000D01*
G75*
G02*
X130262500Y-136049999I0J-249999D01*
G01*
G37*
G04 #@! TD*
G04 #@! TO.C,R34*
G36*
G01*
X127799999Y-141825000D02*
X128700001Y-141825000D01*
G75*
G02*
X128950000Y-142074999I0J-249999D01*
G01*
X128950000Y-142600001D01*
G75*
G02*
X128700001Y-142850000I-249999J0D01*
G01*
X127799999Y-142850000D01*
G75*
G02*
X127550000Y-142600001I0J249999D01*
G01*
X127550000Y-142074999D01*
G75*
G02*
X127799999Y-141825000I249999J0D01*
G01*
G37*
G36*
G01*
X127799999Y-143650000D02*
X128700001Y-143650000D01*
G75*
G02*
X128950000Y-143899999I0J-249999D01*
G01*
X128950000Y-144425001D01*
G75*
G02*
X128700001Y-144675000I-249999J0D01*
G01*
X127799999Y-144675000D01*
G75*
G02*
X127550000Y-144425001I0J249999D01*
G01*
X127550000Y-143899999D01*
G75*
G02*
X127799999Y-143650000I249999J0D01*
G01*
G37*
G04 #@! TD*
G04 #@! TO.C,R35*
G36*
G01*
X125175000Y-135799999D02*
X125175000Y-136700001D01*
G75*
G02*
X124925001Y-136950000I-249999J0D01*
G01*
X124399999Y-136950000D01*
G75*
G02*
X124150000Y-136700001I0J249999D01*
G01*
X124150000Y-135799999D01*
G75*
G02*
X124399999Y-135550000I249999J0D01*
G01*
X124925001Y-135550000D01*
G75*
G02*
X125175000Y-135799999I0J-249999D01*
G01*
G37*
G36*
G01*
X123350000Y-135799999D02*
X123350000Y-136700001D01*
G75*
G02*
X123100001Y-136950000I-249999J0D01*
G01*
X122574999Y-136950000D01*
G75*
G02*
X122325000Y-136700001I0J249999D01*
G01*
X122325000Y-135799999D01*
G75*
G02*
X122574999Y-135550000I249999J0D01*
G01*
X123100001Y-135550000D01*
G75*
G02*
X123350000Y-135799999I0J-249999D01*
G01*
G37*
G04 #@! TD*
G04 #@! TO.C,U5*
G36*
G01*
X117340000Y-145200000D02*
X117040000Y-145200000D01*
G75*
G02*
X116890000Y-145050000I0J150000D01*
G01*
X116890000Y-143400000D01*
G75*
G02*
X117040000Y-143250000I150000J0D01*
G01*
X117340000Y-143250000D01*
G75*
G02*
X117490000Y-143400000I0J-150000D01*
G01*
X117490000Y-145050000D01*
G75*
G02*
X117340000Y-145200000I-150000J0D01*
G01*
G37*
G36*
G01*
X118610000Y-145200000D02*
X118310000Y-145200000D01*
G75*
G02*
X118160000Y-145050000I0J150000D01*
G01*
X118160000Y-143400000D01*
G75*
G02*
X118310000Y-143250000I150000J0D01*
G01*
X118610000Y-143250000D01*
G75*
G02*
X118760000Y-143400000I0J-150000D01*
G01*
X118760000Y-145050000D01*
G75*
G02*
X118610000Y-145200000I-150000J0D01*
G01*
G37*
G36*
G01*
X119880000Y-145200000D02*
X119580000Y-145200000D01*
G75*
G02*
X119430000Y-145050000I0J150000D01*
G01*
X119430000Y-143400000D01*
G75*
G02*
X119580000Y-143250000I150000J0D01*
G01*
X119880000Y-143250000D01*
G75*
G02*
X120030000Y-143400000I0J-150000D01*
G01*
X120030000Y-145050000D01*
G75*
G02*
X119880000Y-145200000I-150000J0D01*
G01*
G37*
G36*
G01*
X121150000Y-145200000D02*
X120850000Y-145200000D01*
G75*
G02*
X120700000Y-145050000I0J150000D01*
G01*
X120700000Y-143400000D01*
G75*
G02*
X120850000Y-143250000I150000J0D01*
G01*
X121150000Y-143250000D01*
G75*
G02*
X121300000Y-143400000I0J-150000D01*
G01*
X121300000Y-145050000D01*
G75*
G02*
X121150000Y-145200000I-150000J0D01*
G01*
G37*
G36*
G01*
X122420000Y-145200000D02*
X122120000Y-145200000D01*
G75*
G02*
X121970000Y-145050000I0J150000D01*
G01*
X121970000Y-143400000D01*
G75*
G02*
X122120000Y-143250000I150000J0D01*
G01*
X122420000Y-143250000D01*
G75*
G02*
X122570000Y-143400000I0J-150000D01*
G01*
X122570000Y-145050000D01*
G75*
G02*
X122420000Y-145200000I-150000J0D01*
G01*
G37*
G36*
G01*
X123690000Y-145200000D02*
X123390000Y-145200000D01*
G75*
G02*
X123240000Y-145050000I0J150000D01*
G01*
X123240000Y-143400000D01*
G75*
G02*
X123390000Y-143250000I150000J0D01*
G01*
X123690000Y-143250000D01*
G75*
G02*
X123840000Y-143400000I0J-150000D01*
G01*
X123840000Y-145050000D01*
G75*
G02*
X123690000Y-145200000I-150000J0D01*
G01*
G37*
G36*
G01*
X124960000Y-145200000D02*
X124660000Y-145200000D01*
G75*
G02*
X124510000Y-145050000I0J150000D01*
G01*
X124510000Y-143400000D01*
G75*
G02*
X124660000Y-143250000I150000J0D01*
G01*
X124960000Y-143250000D01*
G75*
G02*
X125110000Y-143400000I0J-150000D01*
G01*
X125110000Y-145050000D01*
G75*
G02*
X124960000Y-145200000I-150000J0D01*
G01*
G37*
G36*
G01*
X124960000Y-140250000D02*
X124660000Y-140250000D01*
G75*
G02*
X124510000Y-140100000I0J150000D01*
G01*
X124510000Y-138450000D01*
G75*
G02*
X124660000Y-138300000I150000J0D01*
G01*
X124960000Y-138300000D01*
G75*
G02*
X125110000Y-138450000I0J-150000D01*
G01*
X125110000Y-140100000D01*
G75*
G02*
X124960000Y-140250000I-150000J0D01*
G01*
G37*
G36*
G01*
X123690000Y-140250000D02*
X123390000Y-140250000D01*
G75*
G02*
X123240000Y-140100000I0J150000D01*
G01*
X123240000Y-138450000D01*
G75*
G02*
X123390000Y-138300000I150000J0D01*
G01*
X123690000Y-138300000D01*
G75*
G02*
X123840000Y-138450000I0J-150000D01*
G01*
X123840000Y-140100000D01*
G75*
G02*
X123690000Y-140250000I-150000J0D01*
G01*
G37*
G36*
G01*
X122420000Y-140250000D02*
X122120000Y-140250000D01*
G75*
G02*
X121970000Y-140100000I0J150000D01*
G01*
X121970000Y-138450000D01*
G75*
G02*
X122120000Y-138300000I150000J0D01*
G01*
X122420000Y-138300000D01*
G75*
G02*
X122570000Y-138450000I0J-150000D01*
G01*
X122570000Y-140100000D01*
G75*
G02*
X122420000Y-140250000I-150000J0D01*
G01*
G37*
G36*
G01*
X121150000Y-140250000D02*
X120850000Y-140250000D01*
G75*
G02*
X120700000Y-140100000I0J150000D01*
G01*
X120700000Y-138450000D01*
G75*
G02*
X120850000Y-138300000I150000J0D01*
G01*
X121150000Y-138300000D01*
G75*
G02*
X121300000Y-138450000I0J-150000D01*
G01*
X121300000Y-140100000D01*
G75*
G02*
X121150000Y-140250000I-150000J0D01*
G01*
G37*
G36*
G01*
X119880000Y-140250000D02*
X119580000Y-140250000D01*
G75*
G02*
X119430000Y-140100000I0J150000D01*
G01*
X119430000Y-138450000D01*
G75*
G02*
X119580000Y-138300000I150000J0D01*
G01*
X119880000Y-138300000D01*
G75*
G02*
X120030000Y-138450000I0J-150000D01*
G01*
X120030000Y-140100000D01*
G75*
G02*
X119880000Y-140250000I-150000J0D01*
G01*
G37*
G36*
G01*
X118610000Y-140250000D02*
X118310000Y-140250000D01*
G75*
G02*
X118160000Y-140100000I0J150000D01*
G01*
X118160000Y-138450000D01*
G75*
G02*
X118310000Y-138300000I150000J0D01*
G01*
X118610000Y-138300000D01*
G75*
G02*
X118760000Y-138450000I0J-150000D01*
G01*
X118760000Y-140100000D01*
G75*
G02*
X118610000Y-140250000I-150000J0D01*
G01*
G37*
G36*
G01*
X117340000Y-140250000D02*
X117040000Y-140250000D01*
G75*
G02*
X116890000Y-140100000I0J150000D01*
G01*
X116890000Y-138450000D01*
G75*
G02*
X117040000Y-138300000I150000J0D01*
G01*
X117340000Y-138300000D01*
G75*
G02*
X117490000Y-138450000I0J-150000D01*
G01*
X117490000Y-140100000D01*
G75*
G02*
X117340000Y-140250000I-150000J0D01*
G01*
G37*
G04 #@! TD*
M02*
