G04 #@! TF.GenerationSoftware,KiCad,Pcbnew,(5.1.9-0-10_14)*
G04 #@! TF.CreationDate,2023-02-12T16:19:48-05:00*
G04 #@! TF.ProjectId,LiBCM-Daughterboard,4c694243-4d2d-4446-9175-676874657262,A*
G04 #@! TF.SameCoordinates,Original*
G04 #@! TF.FileFunction,Soldermask,Bot*
G04 #@! TF.FilePolarity,Negative*
%FSLAX46Y46*%
G04 Gerber Fmt 4.6, Leading zero omitted, Abs format (unit mm)*
G04 Created by KiCad (PCBNEW (5.1.9-0-10_14)) date 2023-02-12 16:19:48*
%MOMM*%
%LPD*%
G01*
G04 APERTURE LIST*
%ADD10C,3.000000*%
%ADD11O,1.700000X1.700000*%
%ADD12R,1.700000X1.700000*%
%ADD13O,1.800000X3.600000*%
%ADD14O,3.500000X3.500000*%
%ADD15R,2.000000X2.000000*%
%ADD16O,2.000000X2.000000*%
%ADD17C,3.200000*%
G04 APERTURE END LIST*
D10*
G04 #@! TO.C,F1*
X208500000Y-141000000D03*
X186000000Y-141000000D03*
G04 #@! TD*
G04 #@! TO.C,F2*
X186000000Y-150750000D03*
X208500000Y-150750000D03*
G04 #@! TD*
D11*
G04 #@! TO.C,J3*
X116250000Y-128250000D03*
X118790000Y-128250000D03*
X121330000Y-128250000D03*
X123870000Y-128250000D03*
X126410000Y-128250000D03*
X128950000Y-128250000D03*
D12*
X131490000Y-128250000D03*
G04 #@! TD*
G04 #@! TO.C,J4*
X130250000Y-132500000D03*
D11*
X127710000Y-132500000D03*
X125170000Y-132500000D03*
X122630000Y-132500000D03*
X120090000Y-132500000D03*
X117550000Y-132500000D03*
X115010000Y-132500000D03*
G04 #@! TD*
D12*
G04 #@! TO.C,J9*
X159000000Y-152750000D03*
D11*
X156460000Y-152750000D03*
X153920000Y-152750000D03*
X151380000Y-152750000D03*
G04 #@! TD*
G04 #@! TO.C,J1*
G36*
G01*
X149350000Y-137550000D02*
X149350000Y-134450000D01*
G75*
G02*
X149600000Y-134200000I250000J0D01*
G01*
X150900000Y-134200000D01*
G75*
G02*
X151150000Y-134450000I0J-250000D01*
G01*
X151150000Y-137550000D01*
G75*
G02*
X150900000Y-137800000I-250000J0D01*
G01*
X149600000Y-137800000D01*
G75*
G02*
X149350000Y-137550000I0J250000D01*
G01*
G37*
D13*
X153750000Y-136000000D03*
X157250000Y-136000000D03*
G04 #@! TD*
D12*
G04 #@! TO.C,J12*
X145500000Y-152000000D03*
D11*
X148040000Y-152000000D03*
G04 #@! TD*
D12*
G04 #@! TO.C,J5*
X138750000Y-135750000D03*
D11*
X138750000Y-133210000D03*
X141290000Y-135750000D03*
X141290000Y-133210000D03*
X143830000Y-135750000D03*
X143830000Y-133210000D03*
G04 #@! TD*
G04 #@! TO.C,J10*
G36*
G01*
X201900000Y-135950000D02*
X201900000Y-139050000D01*
G75*
G02*
X201650000Y-139300000I-250000J0D01*
G01*
X200350000Y-139300000D01*
G75*
G02*
X200100000Y-139050000I0J250000D01*
G01*
X200100000Y-135950000D01*
G75*
G02*
X200350000Y-135700000I250000J0D01*
G01*
X201650000Y-135700000D01*
G75*
G02*
X201900000Y-135950000I0J-250000D01*
G01*
G37*
D13*
X197500000Y-137500000D03*
X194000000Y-137500000D03*
X190500000Y-137500000D03*
G04 #@! TD*
G04 #@! TO.C,J11*
G36*
G01*
X170350000Y-146550000D02*
X170350000Y-143450000D01*
G75*
G02*
X170600000Y-143200000I250000J0D01*
G01*
X171900000Y-143200000D01*
G75*
G02*
X172150000Y-143450000I0J-250000D01*
G01*
X172150000Y-146550000D01*
G75*
G02*
X171900000Y-146800000I-250000J0D01*
G01*
X170600000Y-146800000D01*
G75*
G02*
X170350000Y-146550000I0J250000D01*
G01*
G37*
X174750000Y-145000000D03*
X178250000Y-145000000D03*
X181750000Y-145000000D03*
G04 #@! TD*
G04 #@! TO.C,J13*
X201000000Y-145250000D03*
X197500000Y-145250000D03*
X194000000Y-145250000D03*
G36*
G01*
X189600000Y-146800000D02*
X189600000Y-143700000D01*
G75*
G02*
X189850000Y-143450000I250000J0D01*
G01*
X191150000Y-143450000D01*
G75*
G02*
X191400000Y-143700000I0J-250000D01*
G01*
X191400000Y-146800000D01*
G75*
G02*
X191150000Y-147050000I-250000J0D01*
G01*
X189850000Y-147050000D01*
G75*
G02*
X189600000Y-146800000I0J250000D01*
G01*
G37*
G04 #@! TD*
D12*
G04 #@! TO.C,J8*
X161750000Y-152750000D03*
D11*
X164290000Y-152750000D03*
G04 #@! TD*
D12*
G04 #@! TO.C,J7*
X142250000Y-153250000D03*
D11*
X139710000Y-153250000D03*
X137170000Y-153250000D03*
X134630000Y-153250000D03*
X132090000Y-153250000D03*
X129550000Y-153250000D03*
X127010000Y-153250000D03*
X124470000Y-153250000D03*
G04 #@! TD*
D12*
G04 #@! TO.C,J6*
X98880000Y-145750000D03*
D11*
X101420000Y-145750000D03*
X103960000Y-145750000D03*
X106500000Y-145750000D03*
G04 #@! TD*
D14*
G04 #@! TO.C,D3*
X231980000Y-145760000D03*
D15*
X214570000Y-143220000D03*
D16*
X214570000Y-148300000D03*
G04 #@! TD*
D17*
G04 #@! TO.C,H1*
X242500000Y-145750000D03*
G04 #@! TD*
D12*
G04 #@! TO.C,J2*
X106500000Y-149000000D03*
D11*
X103960000Y-149000000D03*
X101420000Y-149000000D03*
X98880000Y-149000000D03*
G04 #@! TD*
M02*
