G04 #@! TF.GenerationSoftware,KiCad,Pcbnew,(5.1.9-0-10_14)*
G04 #@! TF.CreationDate,2023-02-12T16:19:48-05:00*
G04 #@! TF.ProjectId,LiBCM-Daughterboard,4c694243-4d2d-4446-9175-676874657262,A*
G04 #@! TF.SameCoordinates,Original*
G04 #@! TF.FileFunction,Legend,Bot*
G04 #@! TF.FilePolarity,Positive*
%FSLAX46Y46*%
G04 Gerber Fmt 4.6, Leading zero omitted, Abs format (unit mm)*
G04 Created by KiCad (PCBNEW (5.1.9-0-10_14)) date 2023-02-12 16:19:48*
%MOMM*%
%LPD*%
G01*
G04 APERTURE LIST*
%ADD10C,0.150000*%
%ADD11C,0.120000*%
%ADD12C,3.000000*%
%ADD13O,1.700000X1.700000*%
%ADD14R,1.700000X1.700000*%
%ADD15O,1.800000X3.600000*%
%ADD16O,3.500000X3.500000*%
%ADD17R,2.000000X2.000000*%
%ADD18O,2.000000X2.000000*%
%ADD19C,3.200000*%
G04 APERTURE END LIST*
D10*
X145177380Y-146185833D02*
X145986904Y-146185833D01*
X146082142Y-146233452D01*
X146129761Y-146281071D01*
X146177380Y-146376309D01*
X146177380Y-146566785D01*
X146129761Y-146662023D01*
X146082142Y-146709642D01*
X145986904Y-146757261D01*
X145177380Y-146757261D01*
X146129761Y-147185833D02*
X146177380Y-147328690D01*
X146177380Y-147566785D01*
X146129761Y-147662023D01*
X146082142Y-147709642D01*
X145986904Y-147757261D01*
X145891666Y-147757261D01*
X145796428Y-147709642D01*
X145748809Y-147662023D01*
X145701190Y-147566785D01*
X145653571Y-147376309D01*
X145605952Y-147281071D01*
X145558333Y-147233452D01*
X145463095Y-147185833D01*
X145367857Y-147185833D01*
X145272619Y-147233452D01*
X145225000Y-147281071D01*
X145177380Y-147376309D01*
X145177380Y-147614404D01*
X145225000Y-147757261D01*
X145653571Y-148185833D02*
X145653571Y-148519166D01*
X146177380Y-148662023D02*
X146177380Y-148185833D01*
X145177380Y-148185833D01*
X145177380Y-148662023D01*
X146177380Y-149662023D02*
X145701190Y-149328690D01*
X146177380Y-149090595D02*
X145177380Y-149090595D01*
X145177380Y-149471547D01*
X145225000Y-149566785D01*
X145272619Y-149614404D01*
X145367857Y-149662023D01*
X145510714Y-149662023D01*
X145605952Y-149614404D01*
X145653571Y-149566785D01*
X145701190Y-149471547D01*
X145701190Y-149090595D01*
X147779761Y-144662023D02*
X147827380Y-144804880D01*
X147827380Y-145042976D01*
X147779761Y-145138214D01*
X147732142Y-145185833D01*
X147636904Y-145233452D01*
X147541666Y-145233452D01*
X147446428Y-145185833D01*
X147398809Y-145138214D01*
X147351190Y-145042976D01*
X147303571Y-144852500D01*
X147255952Y-144757261D01*
X147208333Y-144709642D01*
X147113095Y-144662023D01*
X147017857Y-144662023D01*
X146922619Y-144709642D01*
X146875000Y-144757261D01*
X146827380Y-144852500D01*
X146827380Y-145090595D01*
X146875000Y-145233452D01*
X146827380Y-145566785D02*
X147827380Y-145804880D01*
X147113095Y-145995357D01*
X147827380Y-146185833D01*
X146827380Y-146423928D01*
X147827380Y-146804880D02*
X146827380Y-146804880D01*
X146827380Y-147138214D02*
X146827380Y-147709642D01*
X147827380Y-147423928D02*
X146827380Y-147423928D01*
X147732142Y-148614404D02*
X147779761Y-148566785D01*
X147827380Y-148423928D01*
X147827380Y-148328690D01*
X147779761Y-148185833D01*
X147684523Y-148090595D01*
X147589285Y-148042976D01*
X147398809Y-147995357D01*
X147255952Y-147995357D01*
X147065476Y-148042976D01*
X146970238Y-148090595D01*
X146875000Y-148185833D01*
X146827380Y-148328690D01*
X146827380Y-148423928D01*
X146875000Y-148566785D01*
X146922619Y-148614404D01*
X147827380Y-149042976D02*
X146827380Y-149042976D01*
X147303571Y-149042976D02*
X147303571Y-149614404D01*
X147827380Y-149614404D02*
X146827380Y-149614404D01*
X254516666Y-152272619D02*
X254611904Y-152225000D01*
X254707142Y-152129761D01*
X254850000Y-151986904D01*
X254945238Y-151939285D01*
X255040476Y-151939285D01*
X254992857Y-152177380D02*
X255088095Y-152129761D01*
X255183333Y-152034523D01*
X255230952Y-151844047D01*
X255230952Y-151510714D01*
X255183333Y-151320238D01*
X255088095Y-151225000D01*
X254992857Y-151177380D01*
X254802380Y-151177380D01*
X254707142Y-151225000D01*
X254611904Y-151320238D01*
X254564285Y-151510714D01*
X254564285Y-151844047D01*
X254611904Y-152034523D01*
X254707142Y-152129761D01*
X254802380Y-152177380D01*
X254992857Y-152177380D01*
X254135714Y-152082142D02*
X254088095Y-152129761D01*
X254135714Y-152177380D01*
X254183333Y-152129761D01*
X254135714Y-152082142D01*
X254135714Y-152177380D01*
X254135714Y-151558333D02*
X254088095Y-151605952D01*
X254135714Y-151653571D01*
X254183333Y-151605952D01*
X254135714Y-151558333D01*
X254135714Y-151653571D01*
X252945238Y-151177380D02*
X252945238Y-151367857D01*
X252564285Y-151177380D02*
X252564285Y-151367857D01*
X252230952Y-151177380D02*
X251992857Y-152177380D01*
X251802380Y-151463095D01*
X251611904Y-152177380D01*
X251373809Y-151177380D01*
X250992857Y-152177380D02*
X250992857Y-151177380D01*
X250992857Y-151653571D02*
X250421428Y-151653571D01*
X250421428Y-152177380D02*
X250421428Y-151177380D01*
X249945238Y-151653571D02*
X249611904Y-151653571D01*
X249469047Y-152177380D02*
X249945238Y-152177380D01*
X249945238Y-151177380D01*
X249469047Y-151177380D01*
X249040476Y-152177380D02*
X249040476Y-151177380D01*
X248469047Y-152177380D01*
X248469047Y-151177380D01*
X247326190Y-151177380D02*
X247088095Y-152177380D01*
X246897619Y-151463095D01*
X246707142Y-152177380D01*
X246469047Y-151177380D01*
X246088095Y-152177380D02*
X246088095Y-151177380D01*
X245135714Y-152177380D02*
X245611904Y-152177380D01*
X245611904Y-151177380D01*
X244326190Y-152177380D02*
X244802380Y-152177380D01*
X244802380Y-151177380D01*
X242754761Y-152177380D02*
X243230952Y-152177380D01*
X243230952Y-151177380D01*
X242421428Y-152177380D02*
X242421428Y-151510714D01*
X242421428Y-151177380D02*
X242469047Y-151225000D01*
X242421428Y-151272619D01*
X242373809Y-151225000D01*
X242421428Y-151177380D01*
X242421428Y-151272619D01*
X241611904Y-151653571D02*
X241469047Y-151701190D01*
X241421428Y-151748809D01*
X241373809Y-151844047D01*
X241373809Y-151986904D01*
X241421428Y-152082142D01*
X241469047Y-152129761D01*
X241564285Y-152177380D01*
X241945238Y-152177380D01*
X241945238Y-151177380D01*
X241611904Y-151177380D01*
X241516666Y-151225000D01*
X241469047Y-151272619D01*
X241421428Y-151367857D01*
X241421428Y-151463095D01*
X241469047Y-151558333D01*
X241516666Y-151605952D01*
X241611904Y-151653571D01*
X241945238Y-151653571D01*
X240373809Y-152082142D02*
X240421428Y-152129761D01*
X240564285Y-152177380D01*
X240659523Y-152177380D01*
X240802380Y-152129761D01*
X240897619Y-152034523D01*
X240945238Y-151939285D01*
X240992857Y-151748809D01*
X240992857Y-151605952D01*
X240945238Y-151415476D01*
X240897619Y-151320238D01*
X240802380Y-151225000D01*
X240659523Y-151177380D01*
X240564285Y-151177380D01*
X240421428Y-151225000D01*
X240373809Y-151272619D01*
X239945238Y-152177380D02*
X239945238Y-151177380D01*
X239611904Y-151891666D01*
X239278571Y-151177380D01*
X239278571Y-152177380D01*
X238040476Y-151653571D02*
X237707142Y-151653571D01*
X237564285Y-152177380D02*
X238040476Y-152177380D01*
X238040476Y-151177380D01*
X237564285Y-151177380D01*
X237230952Y-151177380D02*
X236564285Y-152177380D01*
X236564285Y-151177380D02*
X237230952Y-152177380D01*
X236183333Y-152177380D02*
X236183333Y-151177380D01*
X235850000Y-151177380D02*
X235278571Y-151177380D01*
X235564285Y-152177380D02*
X235564285Y-151177380D01*
X233850000Y-151653571D02*
X233707142Y-151701190D01*
X233659523Y-151748809D01*
X233611904Y-151844047D01*
X233611904Y-151986904D01*
X233659523Y-152082142D01*
X233707142Y-152129761D01*
X233802380Y-152177380D01*
X234183333Y-152177380D01*
X234183333Y-151177380D01*
X233850000Y-151177380D01*
X233754761Y-151225000D01*
X233707142Y-151272619D01*
X233659523Y-151367857D01*
X233659523Y-151463095D01*
X233707142Y-151558333D01*
X233754761Y-151605952D01*
X233850000Y-151653571D01*
X234183333Y-151653571D01*
X233183333Y-151653571D02*
X232850000Y-151653571D01*
X232707142Y-152177380D02*
X233183333Y-152177380D01*
X233183333Y-151177380D01*
X232707142Y-151177380D01*
X232421428Y-151177380D02*
X231850000Y-151177380D01*
X232135714Y-152177380D02*
X232135714Y-151177380D01*
X231564285Y-151891666D02*
X231088095Y-151891666D01*
X231659523Y-152177380D02*
X231326190Y-151177380D01*
X230992857Y-152177380D01*
X230516666Y-152082142D02*
X230469047Y-152129761D01*
X230516666Y-152177380D01*
X230564285Y-152129761D01*
X230516666Y-152082142D01*
X230516666Y-152177380D01*
X230707142Y-151225000D02*
X230611904Y-151177380D01*
X230373809Y-151177380D01*
X230278571Y-151225000D01*
X230230952Y-151320238D01*
X230230952Y-151415476D01*
X230278571Y-151510714D01*
X230326190Y-151558333D01*
X230421428Y-151605952D01*
X230469047Y-151653571D01*
X230516666Y-151748809D01*
X230516666Y-151796428D01*
X229850000Y-151177380D02*
X229850000Y-151367857D01*
X229469047Y-151177380D02*
X229469047Y-151367857D01*
X255183333Y-153541666D02*
X254707142Y-153541666D01*
X255278571Y-153827380D02*
X254945238Y-152827380D01*
X254611904Y-153827380D01*
X254278571Y-153732142D02*
X254230952Y-153779761D01*
X254278571Y-153827380D01*
X254326190Y-153779761D01*
X254278571Y-153732142D01*
X254278571Y-153827380D01*
X254278571Y-153208333D02*
X254230952Y-153255952D01*
X254278571Y-153303571D01*
X254326190Y-153255952D01*
X254278571Y-153208333D01*
X254278571Y-153303571D01*
X253088095Y-152827380D02*
X253088095Y-153017857D01*
X252707142Y-152827380D02*
X252707142Y-153017857D01*
X252373809Y-152827380D02*
X252135714Y-153827380D01*
X251945238Y-153113095D01*
X251754761Y-153827380D01*
X251516666Y-152827380D01*
X251135714Y-153827380D02*
X251135714Y-152827380D01*
X251135714Y-153303571D02*
X250564285Y-153303571D01*
X250564285Y-153827380D02*
X250564285Y-152827380D01*
X250088095Y-153303571D02*
X249754761Y-153303571D01*
X249611904Y-153827380D02*
X250088095Y-153827380D01*
X250088095Y-152827380D01*
X249611904Y-152827380D01*
X249183333Y-153827380D02*
X249183333Y-152827380D01*
X248611904Y-153827380D01*
X248611904Y-152827380D01*
X247373809Y-153827380D02*
X247373809Y-152827380D01*
X247040476Y-152827380D02*
X246469047Y-152827380D01*
X246754761Y-153827380D02*
X246754761Y-152827380D01*
X246088095Y-152827380D02*
X246183333Y-153017857D01*
X245707142Y-153779761D02*
X245564285Y-153827380D01*
X245326190Y-153827380D01*
X245230952Y-153779761D01*
X245183333Y-153732142D01*
X245135714Y-153636904D01*
X245135714Y-153541666D01*
X245183333Y-153446428D01*
X245230952Y-153398809D01*
X245326190Y-153351190D01*
X245516666Y-153303571D01*
X245611904Y-153255952D01*
X245659523Y-153208333D01*
X245707142Y-153113095D01*
X245707142Y-153017857D01*
X245659523Y-152922619D01*
X245611904Y-152875000D01*
X245516666Y-152827380D01*
X245278571Y-152827380D01*
X245135714Y-152875000D01*
X243373809Y-153827380D02*
X243707142Y-153351190D01*
X243945238Y-153827380D02*
X243945238Y-152827380D01*
X243564285Y-152827380D01*
X243469047Y-152875000D01*
X243421428Y-152922619D01*
X243373809Y-153017857D01*
X243373809Y-153160714D01*
X243421428Y-153255952D01*
X243469047Y-153303571D01*
X243564285Y-153351190D01*
X243945238Y-153351190D01*
X242945238Y-153303571D02*
X242611904Y-153303571D01*
X242469047Y-153827380D02*
X242945238Y-153827380D01*
X242945238Y-152827380D01*
X242469047Y-152827380D01*
X242088095Y-153541666D02*
X241611904Y-153541666D01*
X242183333Y-153827380D02*
X241850000Y-152827380D01*
X241516666Y-153827380D01*
X241183333Y-153827380D02*
X241183333Y-152827380D01*
X240945238Y-152827380D01*
X240802380Y-152875000D01*
X240707142Y-152970238D01*
X240659523Y-153065476D01*
X240611904Y-153255952D01*
X240611904Y-153398809D01*
X240659523Y-153589285D01*
X240707142Y-153684523D01*
X240802380Y-153779761D01*
X240945238Y-153827380D01*
X241183333Y-153827380D01*
X239992857Y-153351190D02*
X239992857Y-153827380D01*
X240326190Y-152827380D02*
X239992857Y-153351190D01*
X239659523Y-152827380D01*
X239373809Y-152827380D02*
X239373809Y-153017857D01*
X238992857Y-152827380D02*
X238992857Y-153017857D01*
X237802380Y-153446428D02*
X237040476Y-153446428D01*
X236230952Y-153303571D02*
X236088095Y-153351190D01*
X236040476Y-153398809D01*
X235992857Y-153494047D01*
X235992857Y-153636904D01*
X236040476Y-153732142D01*
X236088095Y-153779761D01*
X236183333Y-153827380D01*
X236564285Y-153827380D01*
X236564285Y-152827380D01*
X236230952Y-152827380D01*
X236135714Y-152875000D01*
X236088095Y-152922619D01*
X236040476Y-153017857D01*
X236040476Y-153113095D01*
X236088095Y-153208333D01*
X236135714Y-153255952D01*
X236230952Y-153303571D01*
X236564285Y-153303571D01*
X235564285Y-152827380D02*
X235564285Y-153636904D01*
X235516666Y-153732142D01*
X235469047Y-153779761D01*
X235373809Y-153827380D01*
X235183333Y-153827380D01*
X235088095Y-153779761D01*
X235040476Y-153732142D01*
X234992857Y-153636904D01*
X234992857Y-152827380D01*
X234040476Y-153827380D02*
X234516666Y-153827380D01*
X234516666Y-152827380D01*
X233230952Y-153827380D02*
X233707142Y-153827380D01*
X233707142Y-152827380D01*
X232135714Y-153827380D02*
X232135714Y-152827380D01*
X231897619Y-152827380D01*
X231754761Y-152875000D01*
X231659523Y-152970238D01*
X231611904Y-153065476D01*
X231564285Y-153255952D01*
X231564285Y-153398809D01*
X231611904Y-153589285D01*
X231659523Y-153684523D01*
X231754761Y-153779761D01*
X231897619Y-153827380D01*
X232135714Y-153827380D01*
X230945238Y-152827380D02*
X230754761Y-152827380D01*
X230659523Y-152875000D01*
X230564285Y-152970238D01*
X230516666Y-153160714D01*
X230516666Y-153494047D01*
X230564285Y-153684523D01*
X230659523Y-153779761D01*
X230754761Y-153827380D01*
X230945238Y-153827380D01*
X231040476Y-153779761D01*
X231135714Y-153684523D01*
X231183333Y-153494047D01*
X231183333Y-153160714D01*
X231135714Y-152970238D01*
X231040476Y-152875000D01*
X230945238Y-152827380D01*
X229564285Y-152875000D02*
X229659523Y-152827380D01*
X229802380Y-152827380D01*
X229945238Y-152875000D01*
X230040476Y-152970238D01*
X230088095Y-153065476D01*
X230135714Y-153255952D01*
X230135714Y-153398809D01*
X230088095Y-153589285D01*
X230040476Y-153684523D01*
X229945238Y-153779761D01*
X229802380Y-153827380D01*
X229707142Y-153827380D01*
X229564285Y-153779761D01*
X229516666Y-153732142D01*
X229516666Y-153398809D01*
X229707142Y-153398809D01*
X238642857Y-148064285D02*
X238595238Y-148111904D01*
X238547619Y-148254761D01*
X238547619Y-148350000D01*
X238595238Y-148492857D01*
X238690476Y-148588095D01*
X238785714Y-148635714D01*
X238976190Y-148683333D01*
X239119047Y-148683333D01*
X239309523Y-148635714D01*
X239404761Y-148588095D01*
X239500000Y-148492857D01*
X239547619Y-148350000D01*
X239547619Y-148254761D01*
X239500000Y-148111904D01*
X239452380Y-148064285D01*
X238547619Y-147635714D02*
X239547619Y-147635714D01*
X239071428Y-147635714D02*
X239071428Y-147064285D01*
X238547619Y-147064285D02*
X239547619Y-147064285D01*
X239547619Y-146397619D02*
X239547619Y-146207142D01*
X239500000Y-146111904D01*
X239404761Y-146016666D01*
X239214285Y-145969047D01*
X238880952Y-145969047D01*
X238690476Y-146016666D01*
X238595238Y-146111904D01*
X238547619Y-146207142D01*
X238547619Y-146397619D01*
X238595238Y-146492857D01*
X238690476Y-146588095D01*
X238880952Y-146635714D01*
X239214285Y-146635714D01*
X239404761Y-146588095D01*
X239500000Y-146492857D01*
X239547619Y-146397619D01*
X238547619Y-145540476D02*
X239547619Y-145540476D01*
X238547619Y-144969047D01*
X239547619Y-144969047D01*
X238547619Y-144492857D02*
X239547619Y-144492857D01*
X238547619Y-143921428D02*
X239119047Y-144350000D01*
X239547619Y-143921428D02*
X238976190Y-144492857D01*
X239071428Y-143492857D02*
X239071428Y-143159523D01*
X238547619Y-143016666D02*
X238547619Y-143492857D01*
X239547619Y-143492857D01*
X239547619Y-143016666D01*
X238547619Y-142016666D02*
X239023809Y-142350000D01*
X238547619Y-142588095D02*
X239547619Y-142588095D01*
X239547619Y-142207142D01*
X239500000Y-142111904D01*
X239452380Y-142064285D01*
X239357142Y-142016666D01*
X239214285Y-142016666D01*
X239119047Y-142064285D01*
X239071428Y-142111904D01*
X239023809Y-142207142D01*
X239023809Y-142588095D01*
X236897619Y-149016666D02*
X237897619Y-149016666D01*
X237421428Y-149016666D02*
X237421428Y-148445238D01*
X236897619Y-148445238D02*
X237897619Y-148445238D01*
X237421428Y-147969047D02*
X237421428Y-147635714D01*
X236897619Y-147492857D02*
X236897619Y-147969047D01*
X237897619Y-147969047D01*
X237897619Y-147492857D01*
X237183333Y-147111904D02*
X237183333Y-146635714D01*
X236897619Y-147207142D02*
X237897619Y-146873809D01*
X236897619Y-146540476D01*
X237897619Y-146350000D02*
X237897619Y-145778571D01*
X236897619Y-146064285D02*
X237897619Y-146064285D01*
X236945238Y-144730952D02*
X236897619Y-144588095D01*
X236897619Y-144350000D01*
X236945238Y-144254761D01*
X236992857Y-144207142D01*
X237088095Y-144159523D01*
X237183333Y-144159523D01*
X237278571Y-144207142D01*
X237326190Y-144254761D01*
X237373809Y-144350000D01*
X237421428Y-144540476D01*
X237469047Y-144635714D01*
X237516666Y-144683333D01*
X237611904Y-144730952D01*
X237707142Y-144730952D01*
X237802380Y-144683333D01*
X237850000Y-144635714D01*
X237897619Y-144540476D01*
X237897619Y-144302380D01*
X237850000Y-144159523D01*
X236897619Y-143730952D02*
X237897619Y-143730952D01*
X236897619Y-143254761D02*
X237897619Y-143254761D01*
X236897619Y-142683333D01*
X237897619Y-142683333D01*
X236897619Y-142207142D02*
X237897619Y-142207142D01*
X236897619Y-141635714D02*
X237469047Y-142064285D01*
X237897619Y-141635714D02*
X237326190Y-142207142D01*
X235247619Y-148111904D02*
X236247619Y-148111904D01*
X235533333Y-147778571D01*
X236247619Y-147445238D01*
X235247619Y-147445238D01*
X236247619Y-146778571D02*
X236247619Y-146588095D01*
X236200000Y-146492857D01*
X236104761Y-146397619D01*
X235914285Y-146350000D01*
X235580952Y-146350000D01*
X235390476Y-146397619D01*
X235295238Y-146492857D01*
X235247619Y-146588095D01*
X235247619Y-146778571D01*
X235295238Y-146873809D01*
X235390476Y-146969047D01*
X235580952Y-147016666D01*
X235914285Y-147016666D01*
X236104761Y-146969047D01*
X236200000Y-146873809D01*
X236247619Y-146778571D01*
X236247619Y-145921428D02*
X235438095Y-145921428D01*
X235342857Y-145873809D01*
X235295238Y-145826190D01*
X235247619Y-145730952D01*
X235247619Y-145540476D01*
X235295238Y-145445238D01*
X235342857Y-145397619D01*
X235438095Y-145350000D01*
X236247619Y-145350000D01*
X235247619Y-144873809D02*
X236247619Y-144873809D01*
X235247619Y-144302380D01*
X236247619Y-144302380D01*
X236247619Y-143969047D02*
X236247619Y-143397619D01*
X235247619Y-143683333D02*
X236247619Y-143683333D01*
X235295238Y-143111904D02*
X235247619Y-142969047D01*
X235247619Y-142730952D01*
X235295238Y-142635714D01*
X235342857Y-142588095D01*
X235438095Y-142540476D01*
X235533333Y-142540476D01*
X235628571Y-142588095D01*
X235676190Y-142635714D01*
X235723809Y-142730952D01*
X235771428Y-142921428D01*
X235819047Y-143016666D01*
X235866666Y-143064285D01*
X235961904Y-143111904D01*
X236057142Y-143111904D01*
X236152380Y-143064285D01*
X236200000Y-143016666D01*
X236247619Y-142921428D01*
X236247619Y-142683333D01*
X236200000Y-142540476D01*
X183073809Y-139335714D02*
X183073809Y-140145238D01*
X183121428Y-140240476D01*
X183169047Y-140288095D01*
X183264285Y-140335714D01*
X183407142Y-140335714D01*
X183502380Y-140288095D01*
X183073809Y-139954761D02*
X183169047Y-140002380D01*
X183359523Y-140002380D01*
X183454761Y-139954761D01*
X183502380Y-139907142D01*
X183549999Y-139811904D01*
X183549999Y-139526190D01*
X183502380Y-139430952D01*
X183454761Y-139383333D01*
X183359523Y-139335714D01*
X183169047Y-139335714D01*
X183073809Y-139383333D01*
X182597619Y-140002380D02*
X182597619Y-139335714D01*
X182597619Y-139002380D02*
X182645238Y-139050000D01*
X182597619Y-139097619D01*
X182549999Y-139050000D01*
X182597619Y-139002380D01*
X182597619Y-139097619D01*
X182264285Y-139335714D02*
X181883333Y-139335714D01*
X182121428Y-139002380D02*
X182121428Y-139859523D01*
X182073809Y-139954761D01*
X181978571Y-140002380D01*
X181883333Y-140002380D01*
X181549999Y-140002380D02*
X181549999Y-139002380D01*
X181121428Y-140002380D02*
X181121428Y-139478571D01*
X181169047Y-139383333D01*
X181264285Y-139335714D01*
X181407142Y-139335714D01*
X181502380Y-139383333D01*
X181549999Y-139430952D01*
X180216666Y-139335714D02*
X180216666Y-140002380D01*
X180645238Y-139335714D02*
X180645238Y-139859523D01*
X180597619Y-139954761D01*
X180502380Y-140002380D01*
X180359523Y-140002380D01*
X180264285Y-139954761D01*
X180216666Y-139907142D01*
X179740476Y-140002380D02*
X179740476Y-139002380D01*
X179740476Y-139383333D02*
X179645238Y-139335714D01*
X179454761Y-139335714D01*
X179359523Y-139383333D01*
X179311904Y-139430952D01*
X179264285Y-139526190D01*
X179264285Y-139811904D01*
X179311904Y-139907142D01*
X179359523Y-139954761D01*
X179454761Y-140002380D01*
X179645238Y-140002380D01*
X179740476Y-139954761D01*
X178835714Y-139907142D02*
X178788095Y-139954761D01*
X178835714Y-140002380D01*
X178883333Y-139954761D01*
X178835714Y-139907142D01*
X178835714Y-140002380D01*
X177930952Y-139954761D02*
X178026190Y-140002380D01*
X178216666Y-140002380D01*
X178311904Y-139954761D01*
X178359523Y-139907142D01*
X178407142Y-139811904D01*
X178407142Y-139526190D01*
X178359523Y-139430952D01*
X178311904Y-139383333D01*
X178216666Y-139335714D01*
X178026190Y-139335714D01*
X177930952Y-139383333D01*
X177359523Y-140002380D02*
X177454761Y-139954761D01*
X177502380Y-139907142D01*
X177549999Y-139811904D01*
X177549999Y-139526190D01*
X177502380Y-139430952D01*
X177454761Y-139383333D01*
X177359523Y-139335714D01*
X177216666Y-139335714D01*
X177121428Y-139383333D01*
X177073809Y-139430952D01*
X177026190Y-139526190D01*
X177026190Y-139811904D01*
X177073809Y-139907142D01*
X177121428Y-139954761D01*
X177216666Y-140002380D01*
X177359523Y-140002380D01*
X176597619Y-140002380D02*
X176597619Y-139335714D01*
X176597619Y-139430952D02*
X176549999Y-139383333D01*
X176454761Y-139335714D01*
X176311904Y-139335714D01*
X176216666Y-139383333D01*
X176169047Y-139478571D01*
X176169047Y-140002380D01*
X176169047Y-139478571D02*
X176121428Y-139383333D01*
X176026190Y-139335714D01*
X175883333Y-139335714D01*
X175788095Y-139383333D01*
X175740476Y-139478571D01*
X175740476Y-140002380D01*
X174549999Y-138954761D02*
X175407142Y-140240476D01*
X173788095Y-140002380D02*
X173788095Y-139002380D01*
X173788095Y-139954761D02*
X173883333Y-140002380D01*
X174073809Y-140002380D01*
X174169047Y-139954761D01*
X174216666Y-139907142D01*
X174264285Y-139811904D01*
X174264285Y-139526190D01*
X174216666Y-139430952D01*
X174169047Y-139383333D01*
X174073809Y-139335714D01*
X173883333Y-139335714D01*
X173788095Y-139383333D01*
X173169047Y-140002380D02*
X173264285Y-139954761D01*
X173311904Y-139907142D01*
X173359523Y-139811904D01*
X173359523Y-139526190D01*
X173311904Y-139430952D01*
X173264285Y-139383333D01*
X173169047Y-139335714D01*
X173026190Y-139335714D01*
X172930952Y-139383333D01*
X172883333Y-139430952D01*
X172835714Y-139526190D01*
X172835714Y-139811904D01*
X172883333Y-139907142D01*
X172930952Y-139954761D01*
X173026190Y-140002380D01*
X173169047Y-140002380D01*
X172407142Y-139335714D02*
X172407142Y-140335714D01*
X172407142Y-139383333D02*
X172311904Y-139335714D01*
X172121428Y-139335714D01*
X172026190Y-139383333D01*
X171978571Y-139430952D01*
X171930952Y-139526190D01*
X171930952Y-139811904D01*
X171978571Y-139907142D01*
X172026190Y-139954761D01*
X172121428Y-140002380D01*
X172311904Y-140002380D01*
X172407142Y-139954761D01*
X171502380Y-139335714D02*
X171502380Y-140335714D01*
X171502380Y-139383333D02*
X171407142Y-139335714D01*
X171216666Y-139335714D01*
X171121428Y-139383333D01*
X171073809Y-139430952D01*
X171026190Y-139526190D01*
X171026190Y-139811904D01*
X171073809Y-139907142D01*
X171121428Y-139954761D01*
X171216666Y-140002380D01*
X171407142Y-140002380D01*
X171502380Y-139954761D01*
X170216666Y-139954761D02*
X170311904Y-140002380D01*
X170502380Y-140002380D01*
X170597619Y-139954761D01*
X170645238Y-139859523D01*
X170645238Y-139478571D01*
X170597619Y-139383333D01*
X170502380Y-139335714D01*
X170311904Y-139335714D01*
X170216666Y-139383333D01*
X170169047Y-139478571D01*
X170169047Y-139573809D01*
X170645238Y-139669047D01*
X169597619Y-140002380D02*
X169692857Y-139954761D01*
X169740476Y-139859523D01*
X169740476Y-139002380D01*
X169216666Y-140002380D02*
X169216666Y-139002380D01*
X168788095Y-140002380D02*
X168788095Y-139478571D01*
X168835714Y-139383333D01*
X168930952Y-139335714D01*
X169073809Y-139335714D01*
X169169047Y-139383333D01*
X169216666Y-139430952D01*
X167883333Y-139335714D02*
X167883333Y-140002380D01*
X168311904Y-139335714D02*
X168311904Y-139859523D01*
X168264285Y-139954761D01*
X168169047Y-140002380D01*
X168026190Y-140002380D01*
X167930952Y-139954761D01*
X167883333Y-139907142D01*
X167407142Y-140002380D02*
X167407142Y-139002380D01*
X167407142Y-139383333D02*
X167311904Y-139335714D01*
X167121428Y-139335714D01*
X167026190Y-139383333D01*
X166978571Y-139430952D01*
X166930952Y-139526190D01*
X166930952Y-139811904D01*
X166978571Y-139907142D01*
X167026190Y-139954761D01*
X167121428Y-140002380D01*
X167311904Y-140002380D01*
X167407142Y-139954761D01*
X165788095Y-138954761D02*
X166645238Y-140240476D01*
X165454761Y-140002380D02*
X165454761Y-139002380D01*
X165454761Y-139478571D02*
X164883333Y-139478571D01*
X164883333Y-140002380D02*
X164883333Y-139002380D01*
X164264285Y-140002380D02*
X164359523Y-139954761D01*
X164407142Y-139907142D01*
X164454761Y-139811904D01*
X164454761Y-139526190D01*
X164407142Y-139430952D01*
X164359523Y-139383333D01*
X164264285Y-139335714D01*
X164121428Y-139335714D01*
X164026190Y-139383333D01*
X163978571Y-139430952D01*
X163930952Y-139526190D01*
X163930952Y-139811904D01*
X163978571Y-139907142D01*
X164026190Y-139954761D01*
X164121428Y-140002380D01*
X164264285Y-140002380D01*
X163502380Y-139335714D02*
X163502380Y-140002380D01*
X163502380Y-139430952D02*
X163454761Y-139383333D01*
X163359523Y-139335714D01*
X163216666Y-139335714D01*
X163121428Y-139383333D01*
X163073809Y-139478571D01*
X163073809Y-140002380D01*
X162169047Y-140002380D02*
X162169047Y-139002380D01*
X162169047Y-139954761D02*
X162264285Y-140002380D01*
X162454761Y-140002380D01*
X162550000Y-139954761D01*
X162597619Y-139907142D01*
X162645238Y-139811904D01*
X162645238Y-139526190D01*
X162597619Y-139430952D01*
X162550000Y-139383333D01*
X162454761Y-139335714D01*
X162264285Y-139335714D01*
X162169047Y-139383333D01*
X161264285Y-140002380D02*
X161264285Y-139478571D01*
X161311904Y-139383333D01*
X161407142Y-139335714D01*
X161597619Y-139335714D01*
X161692857Y-139383333D01*
X161264285Y-139954761D02*
X161359523Y-140002380D01*
X161597619Y-140002380D01*
X161692857Y-139954761D01*
X161740476Y-139859523D01*
X161740476Y-139764285D01*
X161692857Y-139669047D01*
X161597619Y-139621428D01*
X161359523Y-139621428D01*
X161264285Y-139573809D01*
X161026190Y-140097619D02*
X160264285Y-140097619D01*
X160026190Y-140002380D02*
X160026190Y-139002380D01*
X159550000Y-139335714D02*
X159550000Y-140002380D01*
X159550000Y-139430952D02*
X159502380Y-139383333D01*
X159407142Y-139335714D01*
X159264285Y-139335714D01*
X159169047Y-139383333D01*
X159121428Y-139478571D01*
X159121428Y-140002380D01*
X158692857Y-139954761D02*
X158597619Y-140002380D01*
X158407142Y-140002380D01*
X158311904Y-139954761D01*
X158264285Y-139859523D01*
X158264285Y-139811904D01*
X158311904Y-139716666D01*
X158407142Y-139669047D01*
X158550000Y-139669047D01*
X158645238Y-139621428D01*
X158692857Y-139526190D01*
X158692857Y-139478571D01*
X158645238Y-139383333D01*
X158550000Y-139335714D01*
X158407142Y-139335714D01*
X158311904Y-139383333D01*
X157835714Y-140002380D02*
X157835714Y-139335714D01*
X157835714Y-139002380D02*
X157883333Y-139050000D01*
X157835714Y-139097619D01*
X157788095Y-139050000D01*
X157835714Y-139002380D01*
X157835714Y-139097619D01*
X156930952Y-139335714D02*
X156930952Y-140145238D01*
X156978571Y-140240476D01*
X157026190Y-140288095D01*
X157121428Y-140335714D01*
X157264285Y-140335714D01*
X157359523Y-140288095D01*
X156930952Y-139954761D02*
X157026190Y-140002380D01*
X157216666Y-140002380D01*
X157311904Y-139954761D01*
X157359523Y-139907142D01*
X157407142Y-139811904D01*
X157407142Y-139526190D01*
X157359523Y-139430952D01*
X157311904Y-139383333D01*
X157216666Y-139335714D01*
X157026190Y-139335714D01*
X156930952Y-139383333D01*
X156454761Y-140002380D02*
X156454761Y-139002380D01*
X156026190Y-140002380D02*
X156026190Y-139478571D01*
X156073809Y-139383333D01*
X156169047Y-139335714D01*
X156311904Y-139335714D01*
X156407142Y-139383333D01*
X156454761Y-139430952D01*
X155692857Y-139335714D02*
X155311904Y-139335714D01*
X155550000Y-139002380D02*
X155550000Y-139859523D01*
X155502380Y-139954761D01*
X155407142Y-140002380D01*
X155311904Y-140002380D01*
X155216666Y-140097619D02*
X154454761Y-140097619D01*
X153740476Y-140002380D02*
X154216666Y-140002380D01*
X154216666Y-139002380D01*
X153407142Y-140002380D02*
X153407142Y-139335714D01*
X153407142Y-139002380D02*
X153454761Y-139050000D01*
X153407142Y-139097619D01*
X153359523Y-139050000D01*
X153407142Y-139002380D01*
X153407142Y-139097619D01*
X152597619Y-139478571D02*
X152454761Y-139526190D01*
X152407142Y-139573809D01*
X152359523Y-139669047D01*
X152359523Y-139811904D01*
X152407142Y-139907142D01*
X152454761Y-139954761D01*
X152550000Y-140002380D01*
X152930952Y-140002380D01*
X152930952Y-139002380D01*
X152597619Y-139002380D01*
X152502380Y-139050000D01*
X152454761Y-139097619D01*
X152407142Y-139192857D01*
X152407142Y-139288095D01*
X152454761Y-139383333D01*
X152502380Y-139430952D01*
X152597619Y-139478571D01*
X152930952Y-139478571D01*
X151359523Y-139907142D02*
X151407142Y-139954761D01*
X151550000Y-140002380D01*
X151645238Y-140002380D01*
X151788095Y-139954761D01*
X151883333Y-139859523D01*
X151930952Y-139764285D01*
X151978571Y-139573809D01*
X151978571Y-139430952D01*
X151930952Y-139240476D01*
X151883333Y-139145238D01*
X151788095Y-139050000D01*
X151645238Y-139002380D01*
X151550000Y-139002380D01*
X151407142Y-139050000D01*
X151359523Y-139097619D01*
X150930952Y-140002380D02*
X150930952Y-139002380D01*
X150597619Y-139716666D01*
X150264285Y-139002380D01*
X150264285Y-140002380D01*
X149073809Y-138954761D02*
X149930952Y-140240476D01*
X148883333Y-139335714D02*
X148502380Y-139335714D01*
X148740476Y-139002380D02*
X148740476Y-139859523D01*
X148692857Y-139954761D01*
X148597619Y-140002380D01*
X148502380Y-140002380D01*
X148169047Y-140002380D02*
X148169047Y-139335714D01*
X148169047Y-139526190D02*
X148121428Y-139430952D01*
X148073809Y-139383333D01*
X147978571Y-139335714D01*
X147883333Y-139335714D01*
X147169047Y-139954761D02*
X147264285Y-140002380D01*
X147454761Y-140002380D01*
X147550000Y-139954761D01*
X147597619Y-139859523D01*
X147597619Y-139478571D01*
X147550000Y-139383333D01*
X147454761Y-139335714D01*
X147264285Y-139335714D01*
X147169047Y-139383333D01*
X147121428Y-139478571D01*
X147121428Y-139573809D01*
X147597619Y-139669047D01*
X146311904Y-139954761D02*
X146407142Y-140002380D01*
X146597619Y-140002380D01*
X146692857Y-139954761D01*
X146740476Y-139859523D01*
X146740476Y-139478571D01*
X146692857Y-139383333D01*
X146597619Y-139335714D01*
X146407142Y-139335714D01*
X146311904Y-139383333D01*
X146264285Y-139478571D01*
X146264285Y-139573809D01*
X146740476Y-139669047D01*
X145121428Y-138954761D02*
X145978571Y-140240476D01*
X144788095Y-140002380D02*
X144788095Y-139335714D01*
X144788095Y-139430952D02*
X144740476Y-139383333D01*
X144645238Y-139335714D01*
X144502380Y-139335714D01*
X144407142Y-139383333D01*
X144359523Y-139478571D01*
X144359523Y-140002380D01*
X144359523Y-139478571D02*
X144311904Y-139383333D01*
X144216666Y-139335714D01*
X144073809Y-139335714D01*
X143978571Y-139383333D01*
X143930952Y-139478571D01*
X143930952Y-140002380D01*
X143026190Y-140002380D02*
X143026190Y-139478571D01*
X143073809Y-139383333D01*
X143169047Y-139335714D01*
X143359523Y-139335714D01*
X143454761Y-139383333D01*
X143026190Y-139954761D02*
X143121428Y-140002380D01*
X143359523Y-140002380D01*
X143454761Y-139954761D01*
X143502380Y-139859523D01*
X143502380Y-139764285D01*
X143454761Y-139669047D01*
X143359523Y-139621428D01*
X143121428Y-139621428D01*
X143026190Y-139573809D01*
X142550000Y-140002380D02*
X142550000Y-139335714D01*
X142550000Y-139002380D02*
X142597619Y-139050000D01*
X142550000Y-139097619D01*
X142502380Y-139050000D01*
X142550000Y-139002380D01*
X142550000Y-139097619D01*
X142073809Y-139335714D02*
X142073809Y-140002380D01*
X142073809Y-139430952D02*
X142026190Y-139383333D01*
X141930952Y-139335714D01*
X141788095Y-139335714D01*
X141692857Y-139383333D01*
X141645238Y-139478571D01*
X141645238Y-140002380D01*
X140454761Y-138954761D02*
X141311904Y-140240476D01*
X140121428Y-139478571D02*
X139788095Y-139478571D01*
X139645238Y-140002380D02*
X140121428Y-140002380D01*
X140121428Y-139002380D01*
X139645238Y-139002380D01*
X139073809Y-140002380D02*
X139169047Y-139954761D01*
X139216666Y-139859523D01*
X139216666Y-139002380D01*
X138311904Y-139954761D02*
X138407142Y-140002380D01*
X138597619Y-140002380D01*
X138692857Y-139954761D01*
X138740476Y-139859523D01*
X138740476Y-139478571D01*
X138692857Y-139383333D01*
X138597619Y-139335714D01*
X138407142Y-139335714D01*
X138311904Y-139383333D01*
X138264285Y-139478571D01*
X138264285Y-139573809D01*
X138740476Y-139669047D01*
X137407142Y-139954761D02*
X137502380Y-140002380D01*
X137692857Y-140002380D01*
X137788095Y-139954761D01*
X137835714Y-139907142D01*
X137883333Y-139811904D01*
X137883333Y-139526190D01*
X137835714Y-139430952D01*
X137788095Y-139383333D01*
X137692857Y-139335714D01*
X137502380Y-139335714D01*
X137407142Y-139383333D01*
X137121428Y-139335714D02*
X136740476Y-139335714D01*
X136978571Y-139002380D02*
X136978571Y-139859523D01*
X136930952Y-139954761D01*
X136835714Y-140002380D01*
X136740476Y-140002380D01*
X136407142Y-140002380D02*
X136407142Y-139335714D01*
X136407142Y-139526190D02*
X136359523Y-139430952D01*
X136311904Y-139383333D01*
X136216666Y-139335714D01*
X136121428Y-139335714D01*
X135645238Y-140002380D02*
X135740476Y-139954761D01*
X135788095Y-139907142D01*
X135835714Y-139811904D01*
X135835714Y-139526190D01*
X135788095Y-139430952D01*
X135740476Y-139383333D01*
X135645238Y-139335714D01*
X135502380Y-139335714D01*
X135407142Y-139383333D01*
X135359523Y-139430952D01*
X135311904Y-139526190D01*
X135311904Y-139811904D01*
X135359523Y-139907142D01*
X135407142Y-139954761D01*
X135502380Y-140002380D01*
X135645238Y-140002380D01*
X134883333Y-139335714D02*
X134883333Y-140002380D01*
X134883333Y-139430952D02*
X134835714Y-139383333D01*
X134740476Y-139335714D01*
X134597619Y-139335714D01*
X134502380Y-139383333D01*
X134454761Y-139478571D01*
X134454761Y-140002380D01*
X133978571Y-140002380D02*
X133978571Y-139335714D01*
X133978571Y-139002380D02*
X134026190Y-139050000D01*
X133978571Y-139097619D01*
X133930952Y-139050000D01*
X133978571Y-139002380D01*
X133978571Y-139097619D01*
X133073809Y-139954761D02*
X133169047Y-140002380D01*
X133359523Y-140002380D01*
X133454761Y-139954761D01*
X133502380Y-139907142D01*
X133550000Y-139811904D01*
X133550000Y-139526190D01*
X133502380Y-139430952D01*
X133454761Y-139383333D01*
X133359523Y-139335714D01*
X133169047Y-139335714D01*
X133073809Y-139383333D01*
X132692857Y-139954761D02*
X132597619Y-140002380D01*
X132407142Y-140002380D01*
X132311904Y-139954761D01*
X132264285Y-139859523D01*
X132264285Y-139811904D01*
X132311904Y-139716666D01*
X132407142Y-139669047D01*
X132550000Y-139669047D01*
X132645238Y-139621428D01*
X132692857Y-139526190D01*
X132692857Y-139478571D01*
X132645238Y-139383333D01*
X132550000Y-139335714D01*
X132407142Y-139335714D01*
X132311904Y-139383333D01*
X131121428Y-138954761D02*
X131978571Y-140240476D01*
X130788095Y-140002380D02*
X130788095Y-139002380D01*
X130407142Y-139002380D01*
X130311904Y-139050000D01*
X130264285Y-139097619D01*
X130216666Y-139192857D01*
X130216666Y-139335714D01*
X130264285Y-139430952D01*
X130311904Y-139478571D01*
X130407142Y-139526190D01*
X130788095Y-139526190D01*
X129216666Y-139907142D02*
X129264285Y-139954761D01*
X129407142Y-140002380D01*
X129502380Y-140002380D01*
X129645238Y-139954761D01*
X129740476Y-139859523D01*
X129788095Y-139764285D01*
X129835714Y-139573809D01*
X129835714Y-139430952D01*
X129788095Y-139240476D01*
X129740476Y-139145238D01*
X129645238Y-139050000D01*
X129502380Y-139002380D01*
X129407142Y-139002380D01*
X129264285Y-139050000D01*
X129216666Y-139097619D01*
X128454761Y-139478571D02*
X128311904Y-139526190D01*
X128264285Y-139573809D01*
X128216666Y-139669047D01*
X128216666Y-139811904D01*
X128264285Y-139907142D01*
X128311904Y-139954761D01*
X128407142Y-140002380D01*
X128788095Y-140002380D01*
X128788095Y-139002380D01*
X128454761Y-139002380D01*
X128359523Y-139050000D01*
X128311904Y-139097619D01*
X128264285Y-139192857D01*
X128264285Y-139288095D01*
X128311904Y-139383333D01*
X128359523Y-139430952D01*
X128454761Y-139478571D01*
X128788095Y-139478571D01*
X127835714Y-140002380D02*
X127073809Y-139002380D01*
X127692857Y-139002380D02*
X127597619Y-139050000D01*
X127550000Y-139145238D01*
X127597619Y-139240476D01*
X127692857Y-139288095D01*
X127788095Y-139240476D01*
X127835714Y-139145238D01*
X127788095Y-139050000D01*
X127692857Y-139002380D01*
X127121428Y-139954761D02*
X127073809Y-139859523D01*
X127121428Y-139764285D01*
X127216666Y-139716666D01*
X127311904Y-139764285D01*
X127359523Y-139859523D01*
X127311904Y-139954761D01*
X127216666Y-140002380D01*
X127121428Y-139954761D01*
X126692857Y-139097619D02*
X126645238Y-139050000D01*
X126550000Y-139002380D01*
X126311904Y-139002380D01*
X126216666Y-139050000D01*
X126169047Y-139097619D01*
X126121428Y-139192857D01*
X126121428Y-139288095D01*
X126169047Y-139430952D01*
X126740476Y-140002380D01*
X126121428Y-140002380D01*
X125502380Y-139002380D02*
X125407142Y-139002380D01*
X125311904Y-139050000D01*
X125264285Y-139097619D01*
X125216666Y-139192857D01*
X125169047Y-139383333D01*
X125169047Y-139621428D01*
X125216666Y-139811904D01*
X125264285Y-139907142D01*
X125311904Y-139954761D01*
X125407142Y-140002380D01*
X125502380Y-140002380D01*
X125597619Y-139954761D01*
X125645238Y-139907142D01*
X125692857Y-139811904D01*
X125740476Y-139621428D01*
X125740476Y-139383333D01*
X125692857Y-139192857D01*
X125645238Y-139097619D01*
X125597619Y-139050000D01*
X125502380Y-139002380D01*
X124454761Y-140383333D02*
X124502380Y-140335714D01*
X124597619Y-140192857D01*
X124645238Y-140097619D01*
X124692857Y-139954761D01*
X124740476Y-139716666D01*
X124740476Y-139526190D01*
X124692857Y-139288095D01*
X124645238Y-139145238D01*
X124597619Y-139050000D01*
X124502380Y-138907142D01*
X124454761Y-138859523D01*
X124073809Y-140002380D02*
X124073809Y-139002380D01*
X123502380Y-140002380D02*
X123930952Y-139430952D01*
X123502380Y-139002380D02*
X124073809Y-139573809D01*
X123073809Y-140002380D02*
X123073809Y-139335714D01*
X123073809Y-139002380D02*
X123121428Y-139050000D01*
X123073809Y-139097619D01*
X123026190Y-139050000D01*
X123073809Y-139002380D01*
X123073809Y-139097619D01*
X122026190Y-139907142D02*
X122073809Y-139954761D01*
X122216666Y-140002380D01*
X122311904Y-140002380D01*
X122454761Y-139954761D01*
X122550000Y-139859523D01*
X122597619Y-139764285D01*
X122645238Y-139573809D01*
X122645238Y-139430952D01*
X122597619Y-139240476D01*
X122550000Y-139145238D01*
X122454761Y-139050000D01*
X122311904Y-139002380D01*
X122216666Y-139002380D01*
X122073809Y-139050000D01*
X122026190Y-139097619D01*
X121645238Y-139716666D02*
X121169047Y-139716666D01*
X121740476Y-140002380D02*
X121407142Y-139002380D01*
X121073809Y-140002380D01*
X120740476Y-140002380D02*
X120740476Y-139002380D01*
X120502380Y-139002380D01*
X120359523Y-139050000D01*
X120264285Y-139145238D01*
X120216666Y-139240476D01*
X120169047Y-139430952D01*
X120169047Y-139573809D01*
X120216666Y-139764285D01*
X120264285Y-139859523D01*
X120359523Y-139954761D01*
X120502380Y-140002380D01*
X120740476Y-140002380D01*
X119835714Y-140383333D02*
X119788095Y-140335714D01*
X119692857Y-140192857D01*
X119645238Y-140097619D01*
X119597619Y-139954761D01*
X119550000Y-139716666D01*
X119550000Y-139526190D01*
X119597619Y-139288095D01*
X119645238Y-139145238D01*
X119692857Y-139050000D01*
X119788095Y-138907142D01*
X119835714Y-138859523D01*
X118359523Y-138954761D02*
X119216666Y-140240476D01*
X118026190Y-140002380D02*
X118026190Y-139002380D01*
X117788095Y-139002380D01*
X117645238Y-139050000D01*
X117550000Y-139145238D01*
X117502380Y-139240476D01*
X117454761Y-139430952D01*
X117454761Y-139573809D01*
X117502380Y-139764285D01*
X117550000Y-139859523D01*
X117645238Y-139954761D01*
X117788095Y-140002380D01*
X118026190Y-140002380D01*
X116597619Y-140002380D02*
X116597619Y-139478571D01*
X116645238Y-139383333D01*
X116740476Y-139335714D01*
X116930952Y-139335714D01*
X117026190Y-139383333D01*
X116597619Y-139954761D02*
X116692857Y-140002380D01*
X116930952Y-140002380D01*
X117026190Y-139954761D01*
X117073809Y-139859523D01*
X117073809Y-139764285D01*
X117026190Y-139669047D01*
X116930952Y-139621428D01*
X116692857Y-139621428D01*
X116597619Y-139573809D01*
X115692857Y-139335714D02*
X115692857Y-140002380D01*
X116121428Y-139335714D02*
X116121428Y-139859523D01*
X116073809Y-139954761D01*
X115978571Y-140002380D01*
X115835714Y-140002380D01*
X115740476Y-139954761D01*
X115692857Y-139907142D01*
X114788095Y-139335714D02*
X114788095Y-140145238D01*
X114835714Y-140240476D01*
X114883333Y-140288095D01*
X114978571Y-140335714D01*
X115121428Y-140335714D01*
X115216666Y-140288095D01*
X114788095Y-139954761D02*
X114883333Y-140002380D01*
X115073809Y-140002380D01*
X115169047Y-139954761D01*
X115216666Y-139907142D01*
X115264285Y-139811904D01*
X115264285Y-139526190D01*
X115216666Y-139430952D01*
X115169047Y-139383333D01*
X115073809Y-139335714D01*
X114883333Y-139335714D01*
X114788095Y-139383333D01*
X114311904Y-140002380D02*
X114311904Y-139002380D01*
X113883333Y-140002380D02*
X113883333Y-139478571D01*
X113930952Y-139383333D01*
X114026190Y-139335714D01*
X114169047Y-139335714D01*
X114264285Y-139383333D01*
X114311904Y-139430952D01*
X113550000Y-139335714D02*
X113169047Y-139335714D01*
X113407142Y-139002380D02*
X113407142Y-139859523D01*
X113359523Y-139954761D01*
X113264285Y-140002380D01*
X113169047Y-140002380D01*
X112454761Y-139954761D02*
X112550000Y-140002380D01*
X112740476Y-140002380D01*
X112835714Y-139954761D01*
X112883333Y-139859523D01*
X112883333Y-139478571D01*
X112835714Y-139383333D01*
X112740476Y-139335714D01*
X112550000Y-139335714D01*
X112454761Y-139383333D01*
X112407142Y-139478571D01*
X112407142Y-139573809D01*
X112883333Y-139669047D01*
X111978571Y-140002380D02*
X111978571Y-139335714D01*
X111978571Y-139526190D02*
X111930952Y-139430952D01*
X111883333Y-139383333D01*
X111788095Y-139335714D01*
X111692857Y-139335714D01*
X111359523Y-140002380D02*
X111359523Y-139002380D01*
X111359523Y-139383333D02*
X111264285Y-139335714D01*
X111073809Y-139335714D01*
X110978571Y-139383333D01*
X110930952Y-139430952D01*
X110883333Y-139526190D01*
X110883333Y-139811904D01*
X110930952Y-139907142D01*
X110978571Y-139954761D01*
X111073809Y-140002380D01*
X111264285Y-140002380D01*
X111359523Y-139954761D01*
X110311904Y-140002380D02*
X110407142Y-139954761D01*
X110454761Y-139907142D01*
X110502380Y-139811904D01*
X110502380Y-139526190D01*
X110454761Y-139430952D01*
X110407142Y-139383333D01*
X110311904Y-139335714D01*
X110169047Y-139335714D01*
X110073809Y-139383333D01*
X110026190Y-139430952D01*
X109978571Y-139526190D01*
X109978571Y-139811904D01*
X110026190Y-139907142D01*
X110073809Y-139954761D01*
X110169047Y-140002380D01*
X110311904Y-140002380D01*
X109121428Y-140002380D02*
X109121428Y-139478571D01*
X109169047Y-139383333D01*
X109264285Y-139335714D01*
X109454761Y-139335714D01*
X109550000Y-139383333D01*
X109121428Y-139954761D02*
X109216666Y-140002380D01*
X109454761Y-140002380D01*
X109550000Y-139954761D01*
X109597619Y-139859523D01*
X109597619Y-139764285D01*
X109550000Y-139669047D01*
X109454761Y-139621428D01*
X109216666Y-139621428D01*
X109121428Y-139573809D01*
X108645238Y-140002380D02*
X108645238Y-139335714D01*
X108645238Y-139526190D02*
X108597619Y-139430952D01*
X108550000Y-139383333D01*
X108454761Y-139335714D01*
X108359523Y-139335714D01*
X107597619Y-140002380D02*
X107597619Y-139002380D01*
X107597619Y-139954761D02*
X107692857Y-140002380D01*
X107883333Y-140002380D01*
X107978571Y-139954761D01*
X108026190Y-139907142D01*
X108073809Y-139811904D01*
X108073809Y-139526190D01*
X108026190Y-139430952D01*
X107978571Y-139383333D01*
X107883333Y-139335714D01*
X107692857Y-139335714D01*
X107597619Y-139383333D01*
X261172619Y-148264285D02*
X262172619Y-148264285D01*
X262172619Y-148026190D01*
X262125000Y-147883333D01*
X262029761Y-147788095D01*
X261934523Y-147740476D01*
X261744047Y-147692857D01*
X261601190Y-147692857D01*
X261410714Y-147740476D01*
X261315476Y-147788095D01*
X261220238Y-147883333D01*
X261172619Y-148026190D01*
X261172619Y-148264285D01*
X261696428Y-147264285D02*
X261696428Y-146930952D01*
X261172619Y-146788095D02*
X261172619Y-147264285D01*
X262172619Y-147264285D01*
X262172619Y-146788095D01*
X261220238Y-146407142D02*
X261172619Y-146264285D01*
X261172619Y-146026190D01*
X261220238Y-145930952D01*
X261267857Y-145883333D01*
X261363095Y-145835714D01*
X261458333Y-145835714D01*
X261553571Y-145883333D01*
X261601190Y-145930952D01*
X261648809Y-146026190D01*
X261696428Y-146216666D01*
X261744047Y-146311904D01*
X261791666Y-146359523D01*
X261886904Y-146407142D01*
X261982142Y-146407142D01*
X262077380Y-146359523D01*
X262125000Y-146311904D01*
X262172619Y-146216666D01*
X262172619Y-145978571D01*
X262125000Y-145835714D01*
X261172619Y-145407142D02*
X262172619Y-145407142D01*
X262125000Y-144407142D02*
X262172619Y-144502380D01*
X262172619Y-144645238D01*
X262125000Y-144788095D01*
X262029761Y-144883333D01*
X261934523Y-144930952D01*
X261744047Y-144978571D01*
X261601190Y-144978571D01*
X261410714Y-144930952D01*
X261315476Y-144883333D01*
X261220238Y-144788095D01*
X261172619Y-144645238D01*
X261172619Y-144550000D01*
X261220238Y-144407142D01*
X261267857Y-144359523D01*
X261601190Y-144359523D01*
X261601190Y-144550000D01*
X261172619Y-143930952D02*
X262172619Y-143930952D01*
X261172619Y-143359523D01*
X262172619Y-143359523D01*
X261696428Y-142883333D02*
X261696428Y-142550000D01*
X261172619Y-142407142D02*
X261172619Y-142883333D01*
X262172619Y-142883333D01*
X262172619Y-142407142D01*
X261172619Y-141978571D02*
X262172619Y-141978571D01*
X262172619Y-141740476D01*
X262125000Y-141597619D01*
X262029761Y-141502380D01*
X261934523Y-141454761D01*
X261744047Y-141407142D01*
X261601190Y-141407142D01*
X261410714Y-141454761D01*
X261315476Y-141502380D01*
X261220238Y-141597619D01*
X261172619Y-141740476D01*
X261172619Y-141978571D01*
X261696428Y-139883333D02*
X261648809Y-139740476D01*
X261601190Y-139692857D01*
X261505952Y-139645238D01*
X261363095Y-139645238D01*
X261267857Y-139692857D01*
X261220238Y-139740476D01*
X261172619Y-139835714D01*
X261172619Y-140216666D01*
X262172619Y-140216666D01*
X262172619Y-139883333D01*
X262125000Y-139788095D01*
X262077380Y-139740476D01*
X261982142Y-139692857D01*
X261886904Y-139692857D01*
X261791666Y-139740476D01*
X261744047Y-139788095D01*
X261696428Y-139883333D01*
X261696428Y-140216666D01*
X261648809Y-139026190D02*
X261172619Y-139026190D01*
X262172619Y-139359523D02*
X261648809Y-139026190D01*
X262172619Y-138692857D01*
X259522619Y-151883333D02*
X260522619Y-151883333D01*
X259617857Y-150835714D02*
X259570238Y-150883333D01*
X259522619Y-151026190D01*
X259522619Y-151121428D01*
X259570238Y-151264285D01*
X259665476Y-151359523D01*
X259760714Y-151407142D01*
X259951190Y-151454761D01*
X260094047Y-151454761D01*
X260284523Y-151407142D01*
X260379761Y-151359523D01*
X260475000Y-151264285D01*
X260522619Y-151121428D01*
X260522619Y-151026190D01*
X260475000Y-150883333D01*
X260427380Y-150835714D01*
X259617857Y-150407142D02*
X259570238Y-150359523D01*
X259522619Y-150407142D01*
X259570238Y-150454761D01*
X259617857Y-150407142D01*
X259522619Y-150407142D01*
X259522619Y-149930952D02*
X260522619Y-149930952D01*
X259522619Y-149359523D01*
X260522619Y-149359523D01*
X260046428Y-148883333D02*
X260046428Y-148550000D01*
X259522619Y-148407142D02*
X259522619Y-148883333D01*
X260522619Y-148883333D01*
X260522619Y-148407142D01*
X260522619Y-148121428D02*
X260522619Y-147550000D01*
X259522619Y-147835714D02*
X260522619Y-147835714D01*
X260522619Y-146454761D02*
X259713095Y-146454761D01*
X259617857Y-146407142D01*
X259570238Y-146359523D01*
X259522619Y-146264285D01*
X259522619Y-146073809D01*
X259570238Y-145978571D01*
X259617857Y-145930952D01*
X259713095Y-145883333D01*
X260522619Y-145883333D01*
X259570238Y-145454761D02*
X259522619Y-145311904D01*
X259522619Y-145073809D01*
X259570238Y-144978571D01*
X259617857Y-144930952D01*
X259713095Y-144883333D01*
X259808333Y-144883333D01*
X259903571Y-144930952D01*
X259951190Y-144978571D01*
X259998809Y-145073809D01*
X260046428Y-145264285D01*
X260094047Y-145359523D01*
X260141666Y-145407142D01*
X260236904Y-145454761D01*
X260332142Y-145454761D01*
X260427380Y-145407142D01*
X260475000Y-145359523D01*
X260522619Y-145264285D01*
X260522619Y-145026190D01*
X260475000Y-144883333D01*
X260046428Y-144454761D02*
X260046428Y-144121428D01*
X259522619Y-143978571D02*
X259522619Y-144454761D01*
X260522619Y-144454761D01*
X260522619Y-143978571D01*
X259522619Y-142978571D02*
X259998809Y-143311904D01*
X259522619Y-143550000D02*
X260522619Y-143550000D01*
X260522619Y-143169047D01*
X260475000Y-143073809D01*
X260427380Y-143026190D01*
X260332142Y-142978571D01*
X260189285Y-142978571D01*
X260094047Y-143026190D01*
X260046428Y-143073809D01*
X259998809Y-143169047D01*
X259998809Y-143550000D01*
X260522619Y-141740476D02*
X260332142Y-141835714D01*
X259522619Y-141311904D02*
X260522619Y-141311904D01*
X259808333Y-140978571D01*
X260522619Y-140645238D01*
X259522619Y-140645238D01*
X260522619Y-140169047D02*
X259713095Y-140169047D01*
X259617857Y-140121428D01*
X259570238Y-140073809D01*
X259522619Y-139978571D01*
X259522619Y-139788095D01*
X259570238Y-139692857D01*
X259617857Y-139645238D01*
X259713095Y-139597619D01*
X260522619Y-139597619D01*
X259522619Y-139121428D02*
X260522619Y-139121428D01*
X260522619Y-138883333D01*
X260475000Y-138740476D01*
X260379761Y-138645238D01*
X260284523Y-138597619D01*
X260094047Y-138550000D01*
X259951190Y-138550000D01*
X259760714Y-138597619D01*
X259665476Y-138645238D01*
X259570238Y-138740476D01*
X259522619Y-138883333D01*
X259522619Y-139121428D01*
X259522619Y-138121428D02*
X260522619Y-138121428D01*
X260522619Y-137883333D01*
X260475000Y-137740476D01*
X260379761Y-137645238D01*
X260284523Y-137597619D01*
X260094047Y-137550000D01*
X259951190Y-137550000D01*
X259760714Y-137597619D01*
X259665476Y-137645238D01*
X259570238Y-137740476D01*
X259522619Y-137883333D01*
X259522619Y-138121428D01*
X260046428Y-137121428D02*
X260046428Y-136788095D01*
X259522619Y-136645238D02*
X259522619Y-137121428D01*
X260522619Y-137121428D01*
X260522619Y-136645238D01*
X259522619Y-135645238D02*
X259998809Y-135978571D01*
X259522619Y-136216666D02*
X260522619Y-136216666D01*
X260522619Y-135835714D01*
X260475000Y-135740476D01*
X260427380Y-135692857D01*
X260332142Y-135645238D01*
X260189285Y-135645238D01*
X260094047Y-135692857D01*
X260046428Y-135740476D01*
X259998809Y-135835714D01*
X259998809Y-136216666D01*
X260522619Y-135169047D02*
X260332142Y-135264285D01*
X257491666Y-151907142D02*
X257539285Y-151954761D01*
X257682142Y-152050000D01*
X257777380Y-152097619D01*
X257920238Y-152145238D01*
X258158333Y-152192857D01*
X258348809Y-152192857D01*
X258586904Y-152145238D01*
X258729761Y-152097619D01*
X258825000Y-152050000D01*
X258967857Y-151954761D01*
X259015476Y-151907142D01*
X258158333Y-151573809D02*
X258158333Y-151097619D01*
X257872619Y-151669047D02*
X258872619Y-151335714D01*
X257872619Y-151002380D01*
X257967857Y-150669047D02*
X257920238Y-150621428D01*
X257872619Y-150669047D01*
X257920238Y-150716666D01*
X257967857Y-150669047D01*
X257872619Y-150669047D01*
X257872619Y-150192857D02*
X258872619Y-150192857D01*
X257872619Y-149621428D02*
X258444047Y-150050000D01*
X258872619Y-149621428D02*
X258301190Y-150192857D01*
X257967857Y-149192857D02*
X257920238Y-149145238D01*
X257872619Y-149192857D01*
X257920238Y-149240476D01*
X257967857Y-149192857D01*
X257872619Y-149192857D01*
X258158333Y-148764285D02*
X258158333Y-148288095D01*
X257872619Y-148859523D02*
X258872619Y-148526190D01*
X257872619Y-148192857D01*
X257967857Y-147859523D02*
X257920238Y-147811904D01*
X257872619Y-147859523D01*
X257920238Y-147907142D01*
X257967857Y-147859523D01*
X257872619Y-147859523D01*
X258872619Y-146335714D02*
X258158333Y-146335714D01*
X258015476Y-146383333D01*
X257920238Y-146478571D01*
X257872619Y-146621428D01*
X257872619Y-146716666D01*
X258872619Y-145669047D02*
X258872619Y-145478571D01*
X258825000Y-145383333D01*
X258729761Y-145288095D01*
X258539285Y-145240476D01*
X258205952Y-145240476D01*
X258015476Y-145288095D01*
X257920238Y-145383333D01*
X257872619Y-145478571D01*
X257872619Y-145669047D01*
X257920238Y-145764285D01*
X258015476Y-145859523D01*
X258205952Y-145907142D01*
X258539285Y-145907142D01*
X258729761Y-145859523D01*
X258825000Y-145764285D01*
X258872619Y-145669047D01*
X257872619Y-144811904D02*
X258872619Y-144811904D01*
X258396428Y-144811904D02*
X258396428Y-144240476D01*
X257872619Y-144240476D02*
X258872619Y-144240476D01*
X257872619Y-143764285D02*
X258872619Y-143764285D01*
X257872619Y-143192857D01*
X258872619Y-143192857D01*
X257920238Y-142002380D02*
X257872619Y-141859523D01*
X257872619Y-141621428D01*
X257920238Y-141526190D01*
X257967857Y-141478571D01*
X258063095Y-141430952D01*
X258158333Y-141430952D01*
X258253571Y-141478571D01*
X258301190Y-141526190D01*
X258348809Y-141621428D01*
X258396428Y-141811904D01*
X258444047Y-141907142D01*
X258491666Y-141954761D01*
X258586904Y-142002380D01*
X258682142Y-142002380D01*
X258777380Y-141954761D01*
X258825000Y-141907142D01*
X258872619Y-141811904D01*
X258872619Y-141573809D01*
X258825000Y-141430952D01*
X258872619Y-141002380D02*
X258063095Y-141002380D01*
X257967857Y-140954761D01*
X257920238Y-140907142D01*
X257872619Y-140811904D01*
X257872619Y-140621428D01*
X257920238Y-140526190D01*
X257967857Y-140478571D01*
X258063095Y-140430952D01*
X258872619Y-140430952D01*
X257872619Y-139478571D02*
X257872619Y-139954761D01*
X258872619Y-139954761D01*
X257872619Y-138669047D02*
X257872619Y-139145238D01*
X258872619Y-139145238D01*
X257872619Y-138335714D02*
X258872619Y-138335714D01*
X258872619Y-138002380D02*
X257872619Y-137669047D01*
X258872619Y-137335714D01*
X258158333Y-137050000D02*
X258158333Y-136573809D01*
X257872619Y-137145238D02*
X258872619Y-136811904D01*
X257872619Y-136478571D01*
X257872619Y-136145238D02*
X258872619Y-136145238D01*
X257872619Y-135573809D01*
X258872619Y-135573809D01*
X257491666Y-135192857D02*
X257539285Y-135145238D01*
X257682142Y-135050000D01*
X257777380Y-135002380D01*
X257920238Y-134954761D01*
X258158333Y-134907142D01*
X258348809Y-134907142D01*
X258586904Y-134954761D01*
X258729761Y-135002380D01*
X258825000Y-135050000D01*
X258967857Y-135145238D01*
X259015476Y-135192857D01*
X256222619Y-147883333D02*
X256222619Y-148359523D01*
X257222619Y-148359523D01*
X256222619Y-147550000D02*
X257222619Y-147550000D01*
X256222619Y-147073809D02*
X257222619Y-147073809D01*
X256222619Y-146502380D01*
X257222619Y-146502380D01*
X256270238Y-146073809D02*
X256222619Y-145930952D01*
X256222619Y-145692857D01*
X256270238Y-145597619D01*
X256317857Y-145550000D01*
X256413095Y-145502380D01*
X256508333Y-145502380D01*
X256603571Y-145550000D01*
X256651190Y-145597619D01*
X256698809Y-145692857D01*
X256746428Y-145883333D01*
X256794047Y-145978571D01*
X256841666Y-146026190D01*
X256936904Y-146073809D01*
X257032142Y-146073809D01*
X257127380Y-146026190D01*
X257175000Y-145978571D01*
X257222619Y-145883333D01*
X257222619Y-145645238D01*
X257175000Y-145502380D01*
X256222619Y-145073809D02*
X257222619Y-145073809D01*
X257175000Y-144073809D02*
X257222619Y-144169047D01*
X257222619Y-144311904D01*
X257175000Y-144454761D01*
X257079761Y-144550000D01*
X256984523Y-144597619D01*
X256794047Y-144645238D01*
X256651190Y-144645238D01*
X256460714Y-144597619D01*
X256365476Y-144550000D01*
X256270238Y-144454761D01*
X256222619Y-144311904D01*
X256222619Y-144216666D01*
X256270238Y-144073809D01*
X256317857Y-144026190D01*
X256651190Y-144026190D01*
X256651190Y-144216666D01*
X256222619Y-143597619D02*
X257222619Y-143597619D01*
X256746428Y-143597619D02*
X256746428Y-143026190D01*
X256222619Y-143026190D02*
X257222619Y-143026190D01*
X257222619Y-142692857D02*
X257222619Y-142121428D01*
X256222619Y-142407142D02*
X257222619Y-142407142D01*
X256317857Y-141788095D02*
X256270238Y-141740476D01*
X256222619Y-141788095D01*
X256270238Y-141835714D01*
X256317857Y-141788095D01*
X256222619Y-141788095D01*
X257222619Y-141121428D02*
X257222619Y-140930952D01*
X257175000Y-140835714D01*
X257079761Y-140740476D01*
X256889285Y-140692857D01*
X256555952Y-140692857D01*
X256365476Y-140740476D01*
X256270238Y-140835714D01*
X256222619Y-140930952D01*
X256222619Y-141121428D01*
X256270238Y-141216666D01*
X256365476Y-141311904D01*
X256555952Y-141359523D01*
X256889285Y-141359523D01*
X257079761Y-141311904D01*
X257175000Y-141216666D01*
X257222619Y-141121428D01*
X256222619Y-139692857D02*
X256698809Y-140026190D01*
X256222619Y-140264285D02*
X257222619Y-140264285D01*
X257222619Y-139883333D01*
X257175000Y-139788095D01*
X257127380Y-139740476D01*
X257032142Y-139692857D01*
X256889285Y-139692857D01*
X256794047Y-139740476D01*
X256746428Y-139788095D01*
X256698809Y-139883333D01*
X256698809Y-140264285D01*
X257175000Y-138740476D02*
X257222619Y-138835714D01*
X257222619Y-138978571D01*
X257175000Y-139121428D01*
X257079761Y-139216666D01*
X256984523Y-139264285D01*
X256794047Y-139311904D01*
X256651190Y-139311904D01*
X256460714Y-139264285D01*
X256365476Y-139216666D01*
X256270238Y-139121428D01*
X256222619Y-138978571D01*
X256222619Y-138883333D01*
X256270238Y-138740476D01*
X256317857Y-138692857D01*
X256651190Y-138692857D01*
X256651190Y-138883333D01*
X114645826Y-126712996D02*
X115218246Y-127285416D01*
X115251918Y-127386431D01*
X115251918Y-127453775D01*
X115218246Y-127554790D01*
X115083559Y-127689477D01*
X114982544Y-127723149D01*
X114915200Y-127723149D01*
X114814185Y-127689477D01*
X114241765Y-127117057D01*
X114612155Y-128093538D02*
X114544811Y-128228225D01*
X114376452Y-128396584D01*
X114275437Y-128430256D01*
X114208094Y-128430256D01*
X114107078Y-128396584D01*
X114039735Y-128329240D01*
X114006063Y-128228225D01*
X114006063Y-128160882D01*
X114039735Y-128059866D01*
X114140750Y-127891508D01*
X114174422Y-127790492D01*
X114174422Y-127723149D01*
X114140750Y-127622134D01*
X114073407Y-127554790D01*
X113972391Y-127521118D01*
X113905048Y-127521118D01*
X113804033Y-127554790D01*
X113635674Y-127723149D01*
X113568330Y-127857836D01*
X113568330Y-128463927D02*
X113332628Y-128699630D01*
X113602002Y-129171034D02*
X113938720Y-128834317D01*
X113231613Y-128127210D01*
X112894895Y-128463927D01*
X112389819Y-129642439D02*
X112154117Y-129878141D01*
X112423491Y-130349546D02*
X112760208Y-130012828D01*
X112053101Y-129305721D01*
X111716384Y-129642439D01*
X112120445Y-130652591D02*
X111413338Y-129945485D01*
X111177636Y-130181187D02*
X110773575Y-130585248D01*
X111682712Y-131090324D02*
X110975605Y-130383217D01*
X111244979Y-131528057D02*
X110537873Y-130820950D01*
X110874590Y-131157668D02*
X110470529Y-131561729D01*
X110840918Y-131932118D02*
X110133812Y-131225011D01*
X110133812Y-131898446D02*
X109898109Y-132134148D01*
X110167483Y-132605553D02*
X110504201Y-132268835D01*
X109797094Y-131561729D01*
X109460377Y-131898446D01*
X109460377Y-133312660D02*
X109359361Y-132740240D01*
X109864438Y-132908599D02*
X109157331Y-132201492D01*
X108887957Y-132470866D01*
X108854285Y-132571881D01*
X108854285Y-132639225D01*
X108887957Y-132740240D01*
X108988972Y-132841255D01*
X109089987Y-132874927D01*
X109157331Y-132874927D01*
X109258346Y-132841255D01*
X109527720Y-132571881D01*
X107844133Y-133986095D02*
X108315537Y-134457499D01*
X107743117Y-133548362D02*
X108416552Y-133885079D01*
X107978820Y-134322812D01*
X107305385Y-134053438D02*
X107541087Y-135231949D01*
X106833980Y-134524843D02*
X108012491Y-134760545D01*
X106665621Y-134827888D02*
X106598278Y-134827888D01*
X106497262Y-134861560D01*
X106328904Y-135029919D01*
X106295232Y-135130934D01*
X106295232Y-135198278D01*
X106328904Y-135299293D01*
X106396247Y-135366637D01*
X106530934Y-135433980D01*
X107339056Y-135433980D01*
X106901324Y-135871713D01*
X105756484Y-135602339D02*
X105689140Y-135669682D01*
X105655469Y-135770698D01*
X105655469Y-135838041D01*
X105689140Y-135939056D01*
X105790156Y-136107415D01*
X105958514Y-136275774D01*
X106126873Y-136376789D01*
X106227888Y-136410461D01*
X106295232Y-136410461D01*
X106396247Y-136376789D01*
X106463591Y-136309446D01*
X106497262Y-136208430D01*
X106497262Y-136141087D01*
X106463591Y-136040072D01*
X106362575Y-135871713D01*
X106194217Y-135703354D01*
X106025858Y-135602339D01*
X105924843Y-135568667D01*
X105857499Y-135568667D01*
X105756484Y-135602339D01*
X104544301Y-136814522D02*
X104409614Y-136949209D01*
X104375942Y-137050224D01*
X104375942Y-137184911D01*
X104476957Y-137353270D01*
X104712660Y-137588972D01*
X104881018Y-137689987D01*
X105015705Y-137689987D01*
X105116721Y-137656316D01*
X105251408Y-137521629D01*
X105285079Y-137420613D01*
X105285079Y-137285926D01*
X105184064Y-137117568D01*
X104948362Y-136881865D01*
X104780003Y-136780850D01*
X104645316Y-136780850D01*
X104544301Y-136814522D01*
X104241255Y-138531781D02*
X104140240Y-137959361D01*
X104645316Y-138127720D02*
X103938209Y-137420613D01*
X103668835Y-137689987D01*
X103635164Y-137791003D01*
X103635164Y-137858346D01*
X103668835Y-137959361D01*
X103769851Y-138060377D01*
X103870866Y-138094048D01*
X103938209Y-138094048D01*
X104039225Y-138060377D01*
X104308599Y-137791003D01*
X103399461Y-139373575D02*
X102692355Y-138666468D01*
X102961729Y-139407247D01*
X102220950Y-139137873D01*
X102928057Y-139844979D01*
X102119935Y-140518414D02*
X102187278Y-140518414D01*
X102321965Y-140451071D01*
X102389309Y-140383727D01*
X102456652Y-140249040D01*
X102456652Y-140114353D01*
X102422981Y-140013338D01*
X102321965Y-139844979D01*
X102220950Y-139743964D01*
X102052591Y-139642949D01*
X101951576Y-139609277D01*
X101816889Y-139609277D01*
X101682202Y-139676621D01*
X101614859Y-139743964D01*
X101547515Y-139878651D01*
X101547515Y-139945995D01*
X101884233Y-140888804D02*
X101177126Y-140181697D01*
X100907752Y-140451071D01*
X100874080Y-140552086D01*
X100874080Y-140619430D01*
X100907752Y-140720445D01*
X101008767Y-140821460D01*
X101109782Y-140855132D01*
X101177126Y-140855132D01*
X101278141Y-140821460D01*
X101547515Y-140552086D01*
X100571034Y-140922475D02*
X100503691Y-140922475D01*
X100402675Y-140956147D01*
X100234317Y-141124506D01*
X100200645Y-141225521D01*
X100200645Y-141292865D01*
X100234317Y-141393880D01*
X100301660Y-141461224D01*
X100436347Y-141528567D01*
X101244469Y-141528567D01*
X100806736Y-141966300D01*
X99459866Y-141898956D02*
X99796584Y-141562239D01*
X100166973Y-141865285D01*
X100099630Y-141865285D01*
X99998614Y-141898956D01*
X99830256Y-142067315D01*
X99796584Y-142168330D01*
X99796584Y-142235674D01*
X99830256Y-142336689D01*
X99998614Y-142505048D01*
X100099630Y-142538720D01*
X100166973Y-142538720D01*
X100267988Y-142505048D01*
X100436347Y-142336689D01*
X100470019Y-142235674D01*
X100470019Y-142168330D01*
X99459866Y-143313170D02*
X99863927Y-142909109D01*
X99661897Y-143111139D02*
X98954790Y-142404033D01*
X99123149Y-142437704D01*
X99257836Y-142437704D01*
X99358851Y-142404033D01*
X98112996Y-143245826D02*
X98449714Y-142909109D01*
X98820103Y-143212155D01*
X98752760Y-143212155D01*
X98651744Y-143245826D01*
X98483386Y-143414185D01*
X98449714Y-143515200D01*
X98449714Y-143582544D01*
X98483386Y-143683559D01*
X98651744Y-143851918D01*
X98752760Y-143885590D01*
X98820103Y-143885590D01*
X98921118Y-143851918D01*
X99089477Y-143683559D01*
X99123149Y-143582544D01*
X99123149Y-143515200D01*
X112529557Y-133115680D02*
X112529557Y-133048336D01*
X112495885Y-132879977D01*
X112462213Y-132778962D01*
X112394870Y-132644275D01*
X112260183Y-132442245D01*
X112125496Y-132307558D01*
X111923465Y-132172871D01*
X111788778Y-132105527D01*
X111687763Y-132071855D01*
X111519404Y-132038184D01*
X111452061Y-132038184D01*
X111384717Y-132980993D02*
X111317374Y-133115680D01*
X111317374Y-133183023D01*
X111351045Y-133284038D01*
X111452061Y-133385054D01*
X111553076Y-133418725D01*
X111620419Y-133418725D01*
X111721435Y-133385054D01*
X111990809Y-133115680D01*
X111283702Y-132408573D01*
X111048000Y-132644275D01*
X111014328Y-132745290D01*
X111014328Y-132812634D01*
X111048000Y-132913649D01*
X111115343Y-132980993D01*
X111216358Y-133014664D01*
X111283702Y-133014664D01*
X111384717Y-132980993D01*
X111620419Y-132745290D01*
X110576595Y-133115680D02*
X111149015Y-133688099D01*
X111182687Y-133789115D01*
X111182687Y-133856458D01*
X111149015Y-133957474D01*
X111014328Y-134092161D01*
X110913313Y-134125832D01*
X110845969Y-134125832D01*
X110744954Y-134092161D01*
X110172534Y-133519741D01*
X109936832Y-133755443D02*
X109532771Y-134159504D01*
X110441908Y-134664580D02*
X109734801Y-133957474D01*
X109465427Y-135641061D02*
X108758320Y-134933954D01*
X109061366Y-136045122D01*
X108354259Y-135338015D01*
X107882855Y-135809420D02*
X107748168Y-135944107D01*
X107714496Y-136045122D01*
X107714496Y-136179809D01*
X107815511Y-136348168D01*
X108051214Y-136583870D01*
X108219572Y-136684885D01*
X108354259Y-136684885D01*
X108455275Y-136651214D01*
X108589962Y-136516527D01*
X108623633Y-136415511D01*
X108623633Y-136280824D01*
X108522618Y-136112466D01*
X108286916Y-135876763D01*
X108118557Y-135775748D01*
X107983870Y-135775748D01*
X107882855Y-135809420D01*
X107377779Y-136314496D02*
X106973718Y-136718557D01*
X107882855Y-137223633D02*
X107175748Y-136516527D01*
X106300283Y-138065427D02*
X106232939Y-138200114D01*
X106232939Y-138267458D01*
X106266611Y-138368473D01*
X106367626Y-138469488D01*
X106468641Y-138503160D01*
X106535985Y-138503160D01*
X106637000Y-138469488D01*
X106906374Y-138200114D01*
X106199267Y-137493007D01*
X105963565Y-137728710D01*
X105929893Y-137829725D01*
X105929893Y-137897068D01*
X105963565Y-137998084D01*
X106030909Y-138065427D01*
X106131924Y-138099099D01*
X106199267Y-138099099D01*
X106300283Y-138065427D01*
X106535985Y-137829725D01*
X105357474Y-138334801D02*
X105222787Y-138469488D01*
X105189115Y-138570503D01*
X105189115Y-138705190D01*
X105290130Y-138873549D01*
X105525832Y-139109251D01*
X105694191Y-139210267D01*
X105828878Y-139210267D01*
X105929893Y-139176595D01*
X106064580Y-139041908D01*
X106098252Y-138940893D01*
X106098252Y-138806206D01*
X105997237Y-138637847D01*
X105761535Y-138402145D01*
X105593176Y-138301129D01*
X105458489Y-138301129D01*
X105357474Y-138334801D01*
X104852397Y-138839877D02*
X104448336Y-139243938D01*
X105357474Y-139749015D02*
X104650367Y-139041908D01*
X104919741Y-140186748D02*
X104212634Y-139479641D01*
X104549351Y-139816358D02*
X104145290Y-140220419D01*
X104515680Y-140590809D02*
X103808573Y-139883702D01*
X104515680Y-141129557D02*
X104448336Y-141129557D01*
X104279977Y-141095885D01*
X104178962Y-141062213D01*
X104044275Y-140994870D01*
X103842245Y-140860183D01*
X103707558Y-140725496D01*
X103572871Y-140523465D01*
X103505527Y-140388778D01*
X103471855Y-140287763D01*
X103438184Y-140119404D01*
X103438184Y-140052061D01*
X161711904Y-144250000D02*
X161807142Y-144202380D01*
X161950000Y-144202380D01*
X162092857Y-144250000D01*
X162188095Y-144345238D01*
X162235714Y-144440476D01*
X162283333Y-144630952D01*
X162283333Y-144773809D01*
X162235714Y-144964285D01*
X162188095Y-145059523D01*
X162092857Y-145154761D01*
X161950000Y-145202380D01*
X161854761Y-145202380D01*
X161711904Y-145154761D01*
X161664285Y-145107142D01*
X161664285Y-144773809D01*
X161854761Y-144773809D01*
X161235714Y-145202380D02*
X161235714Y-144202380D01*
X160664285Y-145202380D01*
X160664285Y-144202380D01*
X160188095Y-145202380D02*
X160188095Y-144202380D01*
X159950000Y-144202380D01*
X159807142Y-144250000D01*
X159711904Y-144345238D01*
X159664285Y-144440476D01*
X159616666Y-144630952D01*
X159616666Y-144773809D01*
X159664285Y-144964285D01*
X159711904Y-145059523D01*
X159807142Y-145154761D01*
X159950000Y-145202380D01*
X160188095Y-145202380D01*
X144435714Y-131602380D02*
X144911904Y-131602380D01*
X144911904Y-130602380D01*
X144102380Y-131602380D02*
X144102380Y-130935714D01*
X144102380Y-130602380D02*
X144150000Y-130650000D01*
X144102380Y-130697619D01*
X144054761Y-130650000D01*
X144102380Y-130602380D01*
X144102380Y-130697619D01*
X143054761Y-131507142D02*
X143102380Y-131554761D01*
X143245238Y-131602380D01*
X143340476Y-131602380D01*
X143483333Y-131554761D01*
X143578571Y-131459523D01*
X143626190Y-131364285D01*
X143673809Y-131173809D01*
X143673809Y-131030952D01*
X143626190Y-130840476D01*
X143578571Y-130745238D01*
X143483333Y-130650000D01*
X143340476Y-130602380D01*
X143245238Y-130602380D01*
X143102380Y-130650000D01*
X143054761Y-130697619D01*
X142435714Y-130602380D02*
X142245238Y-130602380D01*
X142150000Y-130650000D01*
X142054761Y-130745238D01*
X142007142Y-130935714D01*
X142007142Y-131269047D01*
X142054761Y-131459523D01*
X142150000Y-131554761D01*
X142245238Y-131602380D01*
X142435714Y-131602380D01*
X142530952Y-131554761D01*
X142626190Y-131459523D01*
X142673809Y-131269047D01*
X142673809Y-130935714D01*
X142626190Y-130745238D01*
X142530952Y-130650000D01*
X142435714Y-130602380D01*
X141578571Y-131602380D02*
X141578571Y-130602380D01*
X141007142Y-131602380D01*
X141007142Y-130602380D01*
X140673809Y-130602380D02*
X140102380Y-130602380D01*
X140388095Y-131602380D02*
X140388095Y-130602380D01*
X139197619Y-131602380D02*
X139530952Y-131126190D01*
X139769047Y-131602380D02*
X139769047Y-130602380D01*
X139388095Y-130602380D01*
X139292857Y-130650000D01*
X139245238Y-130697619D01*
X139197619Y-130792857D01*
X139197619Y-130935714D01*
X139245238Y-131030952D01*
X139292857Y-131078571D01*
X139388095Y-131126190D01*
X139769047Y-131126190D01*
X138578571Y-130602380D02*
X138388095Y-130602380D01*
X138292857Y-130650000D01*
X138197619Y-130745238D01*
X138150000Y-130935714D01*
X138150000Y-131269047D01*
X138197619Y-131459523D01*
X138292857Y-131554761D01*
X138388095Y-131602380D01*
X138578571Y-131602380D01*
X138673809Y-131554761D01*
X138769047Y-131459523D01*
X138816666Y-131269047D01*
X138816666Y-130935714D01*
X138769047Y-130745238D01*
X138673809Y-130650000D01*
X138578571Y-130602380D01*
X137245238Y-131602380D02*
X137721428Y-131602380D01*
X137721428Y-130602380D01*
X189952380Y-147621428D02*
X189952380Y-148192857D01*
X190952380Y-147907142D02*
X189952380Y-147907142D01*
X189952380Y-148716666D02*
X189952380Y-148907142D01*
X190000000Y-149002380D01*
X190095238Y-149097619D01*
X190285714Y-149145238D01*
X190619047Y-149145238D01*
X190809523Y-149097619D01*
X190904761Y-149002380D01*
X190952380Y-148907142D01*
X190952380Y-148716666D01*
X190904761Y-148621428D01*
X190809523Y-148526190D01*
X190619047Y-148478571D01*
X190285714Y-148478571D01*
X190095238Y-148526190D01*
X190000000Y-148621428D01*
X189952380Y-148716666D01*
X190000000Y-150859523D02*
X189952380Y-150764285D01*
X189952380Y-150621428D01*
X190000000Y-150478571D01*
X190095238Y-150383333D01*
X190190476Y-150335714D01*
X190380952Y-150288095D01*
X190523809Y-150288095D01*
X190714285Y-150335714D01*
X190809523Y-150383333D01*
X190904761Y-150478571D01*
X190952380Y-150621428D01*
X190952380Y-150716666D01*
X190904761Y-150859523D01*
X190857142Y-150907142D01*
X190523809Y-150907142D01*
X190523809Y-150716666D01*
X190952380Y-151907142D02*
X190476190Y-151573809D01*
X190952380Y-151335714D02*
X189952380Y-151335714D01*
X189952380Y-151716666D01*
X190000000Y-151811904D01*
X190047619Y-151859523D01*
X190142857Y-151907142D01*
X190285714Y-151907142D01*
X190380952Y-151859523D01*
X190428571Y-151811904D01*
X190476190Y-151716666D01*
X190476190Y-151335714D01*
X190952380Y-152335714D02*
X189952380Y-152335714D01*
X190952380Y-152811904D02*
X189952380Y-152811904D01*
X189952380Y-153050000D01*
X190000000Y-153192857D01*
X190095238Y-153288095D01*
X190190476Y-153335714D01*
X190380952Y-153383333D01*
X190523809Y-153383333D01*
X190714285Y-153335714D01*
X190809523Y-153288095D01*
X190904761Y-153192857D01*
X190952380Y-153050000D01*
X190952380Y-152811904D01*
X192507142Y-147954761D02*
X192554761Y-147907142D01*
X192602380Y-147764285D01*
X192602380Y-147669047D01*
X192554761Y-147526190D01*
X192459523Y-147430952D01*
X192364285Y-147383333D01*
X192173809Y-147335714D01*
X192030952Y-147335714D01*
X191840476Y-147383333D01*
X191745238Y-147430952D01*
X191650000Y-147526190D01*
X191602380Y-147669047D01*
X191602380Y-147764285D01*
X191650000Y-147907142D01*
X191697619Y-147954761D01*
X192602380Y-148383333D02*
X191602380Y-148383333D01*
X192078571Y-148383333D02*
X192078571Y-148954761D01*
X192602380Y-148954761D02*
X191602380Y-148954761D01*
X192316666Y-149383333D02*
X192316666Y-149859523D01*
X192602380Y-149288095D02*
X191602380Y-149621428D01*
X192602380Y-149954761D01*
X192602380Y-150859523D02*
X192126190Y-150526190D01*
X192602380Y-150288095D02*
X191602380Y-150288095D01*
X191602380Y-150669047D01*
X191650000Y-150764285D01*
X191697619Y-150811904D01*
X191792857Y-150859523D01*
X191935714Y-150859523D01*
X192030952Y-150811904D01*
X192078571Y-150764285D01*
X192126190Y-150669047D01*
X192126190Y-150288095D01*
X191650000Y-151811904D02*
X191602380Y-151716666D01*
X191602380Y-151573809D01*
X191650000Y-151430952D01*
X191745238Y-151335714D01*
X191840476Y-151288095D01*
X192030952Y-151240476D01*
X192173809Y-151240476D01*
X192364285Y-151288095D01*
X192459523Y-151335714D01*
X192554761Y-151430952D01*
X192602380Y-151573809D01*
X192602380Y-151669047D01*
X192554761Y-151811904D01*
X192507142Y-151859523D01*
X192173809Y-151859523D01*
X192173809Y-151669047D01*
X192078571Y-152288095D02*
X192078571Y-152621428D01*
X192602380Y-152764285D02*
X192602380Y-152288095D01*
X191602380Y-152288095D01*
X191602380Y-152764285D01*
X192602380Y-153764285D02*
X192126190Y-153430952D01*
X192602380Y-153192857D02*
X191602380Y-153192857D01*
X191602380Y-153573809D01*
X191650000Y-153669047D01*
X191697619Y-153716666D01*
X191792857Y-153764285D01*
X191935714Y-153764285D01*
X192030952Y-153716666D01*
X192078571Y-153669047D01*
X192126190Y-153573809D01*
X192126190Y-153192857D01*
X194157142Y-148002380D02*
X194204761Y-147954761D01*
X194252380Y-147811904D01*
X194252380Y-147716666D01*
X194204761Y-147573809D01*
X194109523Y-147478571D01*
X194014285Y-147430952D01*
X193823809Y-147383333D01*
X193680952Y-147383333D01*
X193490476Y-147430952D01*
X193395238Y-147478571D01*
X193300000Y-147573809D01*
X193252380Y-147716666D01*
X193252380Y-147811904D01*
X193300000Y-147954761D01*
X193347619Y-148002380D01*
X193252380Y-148621428D02*
X193252380Y-148811904D01*
X193300000Y-148907142D01*
X193395238Y-149002380D01*
X193585714Y-149050000D01*
X193919047Y-149050000D01*
X194109523Y-149002380D01*
X194204761Y-148907142D01*
X194252380Y-148811904D01*
X194252380Y-148621428D01*
X194204761Y-148526190D01*
X194109523Y-148430952D01*
X193919047Y-148383333D01*
X193585714Y-148383333D01*
X193395238Y-148430952D01*
X193300000Y-148526190D01*
X193252380Y-148621428D01*
X194252380Y-149478571D02*
X193252380Y-149478571D01*
X194252380Y-150050000D01*
X193252380Y-150050000D01*
X193252380Y-150383333D02*
X193252380Y-150954761D01*
X194252380Y-150669047D02*
X193252380Y-150669047D01*
X194252380Y-151859523D02*
X193776190Y-151526190D01*
X194252380Y-151288095D02*
X193252380Y-151288095D01*
X193252380Y-151669047D01*
X193300000Y-151764285D01*
X193347619Y-151811904D01*
X193442857Y-151859523D01*
X193585714Y-151859523D01*
X193680952Y-151811904D01*
X193728571Y-151764285D01*
X193776190Y-151669047D01*
X193776190Y-151288095D01*
X193252380Y-152478571D02*
X193252380Y-152669047D01*
X193300000Y-152764285D01*
X193395238Y-152859523D01*
X193585714Y-152907142D01*
X193919047Y-152907142D01*
X194109523Y-152859523D01*
X194204761Y-152764285D01*
X194252380Y-152669047D01*
X194252380Y-152478571D01*
X194204761Y-152383333D01*
X194109523Y-152288095D01*
X193919047Y-152240476D01*
X193585714Y-152240476D01*
X193395238Y-152288095D01*
X193300000Y-152383333D01*
X193252380Y-152478571D01*
X194252380Y-153811904D02*
X194252380Y-153335714D01*
X193252380Y-153335714D01*
X196952380Y-147421428D02*
X196952380Y-147992857D01*
X197952380Y-147707142D02*
X196952380Y-147707142D01*
X196952380Y-148516666D02*
X196952380Y-148707142D01*
X197000000Y-148802380D01*
X197095238Y-148897619D01*
X197285714Y-148945238D01*
X197619047Y-148945238D01*
X197809523Y-148897619D01*
X197904761Y-148802380D01*
X197952380Y-148707142D01*
X197952380Y-148516666D01*
X197904761Y-148421428D01*
X197809523Y-148326190D01*
X197619047Y-148278571D01*
X197285714Y-148278571D01*
X197095238Y-148326190D01*
X197000000Y-148421428D01*
X196952380Y-148516666D01*
X197000000Y-150659523D02*
X196952380Y-150564285D01*
X196952380Y-150421428D01*
X197000000Y-150278571D01*
X197095238Y-150183333D01*
X197190476Y-150135714D01*
X197380952Y-150088095D01*
X197523809Y-150088095D01*
X197714285Y-150135714D01*
X197809523Y-150183333D01*
X197904761Y-150278571D01*
X197952380Y-150421428D01*
X197952380Y-150516666D01*
X197904761Y-150659523D01*
X197857142Y-150707142D01*
X197523809Y-150707142D01*
X197523809Y-150516666D01*
X197952380Y-151707142D02*
X197476190Y-151373809D01*
X197952380Y-151135714D02*
X196952380Y-151135714D01*
X196952380Y-151516666D01*
X197000000Y-151611904D01*
X197047619Y-151659523D01*
X197142857Y-151707142D01*
X197285714Y-151707142D01*
X197380952Y-151659523D01*
X197428571Y-151611904D01*
X197476190Y-151516666D01*
X197476190Y-151135714D01*
X197952380Y-152135714D02*
X196952380Y-152135714D01*
X197952380Y-152611904D02*
X196952380Y-152611904D01*
X196952380Y-152850000D01*
X197000000Y-152992857D01*
X197095238Y-153088095D01*
X197190476Y-153135714D01*
X197380952Y-153183333D01*
X197523809Y-153183333D01*
X197714285Y-153135714D01*
X197809523Y-153088095D01*
X197904761Y-152992857D01*
X197952380Y-152850000D01*
X197952380Y-152611904D01*
X199507142Y-147754761D02*
X199554761Y-147707142D01*
X199602380Y-147564285D01*
X199602380Y-147469047D01*
X199554761Y-147326190D01*
X199459523Y-147230952D01*
X199364285Y-147183333D01*
X199173809Y-147135714D01*
X199030952Y-147135714D01*
X198840476Y-147183333D01*
X198745238Y-147230952D01*
X198650000Y-147326190D01*
X198602380Y-147469047D01*
X198602380Y-147564285D01*
X198650000Y-147707142D01*
X198697619Y-147754761D01*
X199602380Y-148183333D02*
X198602380Y-148183333D01*
X199078571Y-148183333D02*
X199078571Y-148754761D01*
X199602380Y-148754761D02*
X198602380Y-148754761D01*
X199316666Y-149183333D02*
X199316666Y-149659523D01*
X199602380Y-149088095D02*
X198602380Y-149421428D01*
X199602380Y-149754761D01*
X199602380Y-150659523D02*
X199126190Y-150326190D01*
X199602380Y-150088095D02*
X198602380Y-150088095D01*
X198602380Y-150469047D01*
X198650000Y-150564285D01*
X198697619Y-150611904D01*
X198792857Y-150659523D01*
X198935714Y-150659523D01*
X199030952Y-150611904D01*
X199078571Y-150564285D01*
X199126190Y-150469047D01*
X199126190Y-150088095D01*
X198650000Y-151611904D02*
X198602380Y-151516666D01*
X198602380Y-151373809D01*
X198650000Y-151230952D01*
X198745238Y-151135714D01*
X198840476Y-151088095D01*
X199030952Y-151040476D01*
X199173809Y-151040476D01*
X199364285Y-151088095D01*
X199459523Y-151135714D01*
X199554761Y-151230952D01*
X199602380Y-151373809D01*
X199602380Y-151469047D01*
X199554761Y-151611904D01*
X199507142Y-151659523D01*
X199173809Y-151659523D01*
X199173809Y-151469047D01*
X199078571Y-152088095D02*
X199078571Y-152421428D01*
X199602380Y-152564285D02*
X199602380Y-152088095D01*
X198602380Y-152088095D01*
X198602380Y-152564285D01*
X199602380Y-153564285D02*
X199126190Y-153230952D01*
X199602380Y-152992857D02*
X198602380Y-152992857D01*
X198602380Y-153373809D01*
X198650000Y-153469047D01*
X198697619Y-153516666D01*
X198792857Y-153564285D01*
X198935714Y-153564285D01*
X199030952Y-153516666D01*
X199078571Y-153469047D01*
X199126190Y-153373809D01*
X199126190Y-152992857D01*
X200252380Y-147945238D02*
X200252380Y-148135714D01*
X200300000Y-148230952D01*
X200395238Y-148326190D01*
X200585714Y-148373809D01*
X200919047Y-148373809D01*
X201109523Y-148326190D01*
X201204761Y-148230952D01*
X201252380Y-148135714D01*
X201252380Y-147945238D01*
X201204761Y-147850000D01*
X201109523Y-147754761D01*
X200919047Y-147707142D01*
X200585714Y-147707142D01*
X200395238Y-147754761D01*
X200300000Y-147850000D01*
X200252380Y-147945238D01*
X200252380Y-148802380D02*
X201061904Y-148802380D01*
X201157142Y-148850000D01*
X201204761Y-148897619D01*
X201252380Y-148992857D01*
X201252380Y-149183333D01*
X201204761Y-149278571D01*
X201157142Y-149326190D01*
X201061904Y-149373809D01*
X200252380Y-149373809D01*
X200252380Y-149707142D02*
X200252380Y-150278571D01*
X201252380Y-149992857D02*
X200252380Y-149992857D01*
X201252380Y-150611904D02*
X200252380Y-150611904D01*
X200252380Y-150992857D01*
X200300000Y-151088095D01*
X200347619Y-151135714D01*
X200442857Y-151183333D01*
X200585714Y-151183333D01*
X200680952Y-151135714D01*
X200728571Y-151088095D01*
X200776190Y-150992857D01*
X200776190Y-150611904D01*
X200252380Y-151611904D02*
X201061904Y-151611904D01*
X201157142Y-151659523D01*
X201204761Y-151707142D01*
X201252380Y-151802380D01*
X201252380Y-151992857D01*
X201204761Y-152088095D01*
X201157142Y-152135714D01*
X201061904Y-152183333D01*
X200252380Y-152183333D01*
X200252380Y-152516666D02*
X200252380Y-153088095D01*
X201252380Y-152802380D02*
X200252380Y-152802380D01*
X189952380Y-127745238D02*
X189952380Y-128316666D01*
X190952380Y-128030952D02*
X189952380Y-128030952D01*
X189952380Y-128840476D02*
X189952380Y-129030952D01*
X190000000Y-129126190D01*
X190095238Y-129221428D01*
X190285714Y-129269047D01*
X190619047Y-129269047D01*
X190809523Y-129221428D01*
X190904761Y-129126190D01*
X190952380Y-129030952D01*
X190952380Y-128840476D01*
X190904761Y-128745238D01*
X190809523Y-128650000D01*
X190619047Y-128602380D01*
X190285714Y-128602380D01*
X190095238Y-128650000D01*
X190000000Y-128745238D01*
X189952380Y-128840476D01*
X190952380Y-130935714D02*
X190952380Y-130459523D01*
X189952380Y-130459523D01*
X190952380Y-131269047D02*
X190285714Y-131269047D01*
X189952380Y-131269047D02*
X190000000Y-131221428D01*
X190047619Y-131269047D01*
X190000000Y-131316666D01*
X189952380Y-131269047D01*
X190047619Y-131269047D01*
X190428571Y-132078571D02*
X190476190Y-132221428D01*
X190523809Y-132269047D01*
X190619047Y-132316666D01*
X190761904Y-132316666D01*
X190857142Y-132269047D01*
X190904761Y-132221428D01*
X190952380Y-132126190D01*
X190952380Y-131745238D01*
X189952380Y-131745238D01*
X189952380Y-132078571D01*
X190000000Y-132173809D01*
X190047619Y-132221428D01*
X190142857Y-132269047D01*
X190238095Y-132269047D01*
X190333333Y-132221428D01*
X190380952Y-132173809D01*
X190428571Y-132078571D01*
X190428571Y-131745238D01*
X190857142Y-133316666D02*
X190904761Y-133269047D01*
X190952380Y-133126190D01*
X190952380Y-133030952D01*
X190904761Y-132888095D01*
X190809523Y-132792857D01*
X190714285Y-132745238D01*
X190523809Y-132697619D01*
X190380952Y-132697619D01*
X190190476Y-132745238D01*
X190095238Y-132792857D01*
X190000000Y-132888095D01*
X189952380Y-133030952D01*
X189952380Y-133126190D01*
X190000000Y-133269047D01*
X190047619Y-133316666D01*
X190952380Y-133745238D02*
X189952380Y-133745238D01*
X190666666Y-134078571D01*
X189952380Y-134411904D01*
X190952380Y-134411904D01*
X192554761Y-128840476D02*
X192602380Y-128983333D01*
X192602380Y-129221428D01*
X192554761Y-129316666D01*
X192507142Y-129364285D01*
X192411904Y-129411904D01*
X192316666Y-129411904D01*
X192221428Y-129364285D01*
X192173809Y-129316666D01*
X192126190Y-129221428D01*
X192078571Y-129030952D01*
X192030952Y-128935714D01*
X191983333Y-128888095D01*
X191888095Y-128840476D01*
X191792857Y-128840476D01*
X191697619Y-128888095D01*
X191650000Y-128935714D01*
X191602380Y-129030952D01*
X191602380Y-129269047D01*
X191650000Y-129411904D01*
X192507142Y-130411904D02*
X192554761Y-130364285D01*
X192602380Y-130221428D01*
X192602380Y-130126190D01*
X192554761Y-129983333D01*
X192459523Y-129888095D01*
X192364285Y-129840476D01*
X192173809Y-129792857D01*
X192030952Y-129792857D01*
X191840476Y-129840476D01*
X191745238Y-129888095D01*
X191650000Y-129983333D01*
X191602380Y-130126190D01*
X191602380Y-130221428D01*
X191650000Y-130364285D01*
X191697619Y-130411904D01*
X192602380Y-131411904D02*
X192126190Y-131078571D01*
X192602380Y-130840476D02*
X191602380Y-130840476D01*
X191602380Y-131221428D01*
X191650000Y-131316666D01*
X191697619Y-131364285D01*
X191792857Y-131411904D01*
X191935714Y-131411904D01*
X192030952Y-131364285D01*
X192078571Y-131316666D01*
X192126190Y-131221428D01*
X192126190Y-130840476D01*
X192078571Y-131840476D02*
X192078571Y-132173809D01*
X192602380Y-132316666D02*
X192602380Y-131840476D01*
X191602380Y-131840476D01*
X191602380Y-132316666D01*
X191602380Y-132650000D02*
X192602380Y-132888095D01*
X191888095Y-133078571D01*
X192602380Y-133269047D01*
X191602380Y-133507142D01*
X193252380Y-127269047D02*
X193252380Y-127840476D01*
X194252380Y-127554761D02*
X193252380Y-127554761D01*
X193728571Y-128173809D02*
X193728571Y-128507142D01*
X194252380Y-128650000D02*
X194252380Y-128173809D01*
X193252380Y-128173809D01*
X193252380Y-128650000D01*
X194252380Y-129650000D02*
X193776190Y-129316666D01*
X194252380Y-129078571D02*
X193252380Y-129078571D01*
X193252380Y-129459523D01*
X193300000Y-129554761D01*
X193347619Y-129602380D01*
X193442857Y-129650000D01*
X193585714Y-129650000D01*
X193680952Y-129602380D01*
X193728571Y-129554761D01*
X193776190Y-129459523D01*
X193776190Y-129078571D01*
X194252380Y-130078571D02*
X193252380Y-130078571D01*
X193966666Y-130411904D01*
X193252380Y-130745238D01*
X194252380Y-130745238D01*
X194252380Y-131221428D02*
X193252380Y-131221428D01*
X194252380Y-131697619D02*
X193252380Y-131697619D01*
X194252380Y-132269047D01*
X193252380Y-132269047D01*
X193966666Y-132697619D02*
X193966666Y-133173809D01*
X194252380Y-132602380D02*
X193252380Y-132935714D01*
X194252380Y-133269047D01*
X194252380Y-134078571D02*
X194252380Y-133602380D01*
X193252380Y-133602380D01*
X194204761Y-134364285D02*
X194252380Y-134507142D01*
X194252380Y-134745238D01*
X194204761Y-134840476D01*
X194157142Y-134888095D01*
X194061904Y-134935714D01*
X193966666Y-134935714D01*
X193871428Y-134888095D01*
X193823809Y-134840476D01*
X193776190Y-134745238D01*
X193728571Y-134554761D01*
X193680952Y-134459523D01*
X193633333Y-134411904D01*
X193538095Y-134364285D01*
X193442857Y-134364285D01*
X193347619Y-134411904D01*
X193300000Y-134459523D01*
X193252380Y-134554761D01*
X193252380Y-134792857D01*
X193300000Y-134935714D01*
X196952380Y-128721428D02*
X196952380Y-129292857D01*
X197952380Y-129007142D02*
X196952380Y-129007142D01*
X196952380Y-129816666D02*
X196952380Y-130007142D01*
X197000000Y-130102380D01*
X197095238Y-130197619D01*
X197285714Y-130245238D01*
X197619047Y-130245238D01*
X197809523Y-130197619D01*
X197904761Y-130102380D01*
X197952380Y-130007142D01*
X197952380Y-129816666D01*
X197904761Y-129721428D01*
X197809523Y-129626190D01*
X197619047Y-129578571D01*
X197285714Y-129578571D01*
X197095238Y-129626190D01*
X197000000Y-129721428D01*
X196952380Y-129816666D01*
X197952380Y-131435714D02*
X196952380Y-131435714D01*
X197952380Y-131911904D02*
X196952380Y-131911904D01*
X197666666Y-132245238D01*
X196952380Y-132578571D01*
X197952380Y-132578571D01*
X197666666Y-133007142D02*
X197666666Y-133483333D01*
X197952380Y-132911904D02*
X196952380Y-133245238D01*
X197952380Y-133578571D01*
X198602380Y-128078571D02*
X199316666Y-128078571D01*
X199459523Y-128030952D01*
X199554761Y-127935714D01*
X199602380Y-127792857D01*
X199602380Y-127697619D01*
X198602380Y-128554761D02*
X199411904Y-128554761D01*
X199507142Y-128602380D01*
X199554761Y-128650000D01*
X199602380Y-128745238D01*
X199602380Y-128935714D01*
X199554761Y-129030952D01*
X199507142Y-129078571D01*
X199411904Y-129126190D01*
X198602380Y-129126190D01*
X199602380Y-129602380D02*
X198602380Y-129602380D01*
X199602380Y-130173809D01*
X198602380Y-130173809D01*
X199507142Y-131221428D02*
X199554761Y-131173809D01*
X199602380Y-131030952D01*
X199602380Y-130935714D01*
X199554761Y-130792857D01*
X199459523Y-130697619D01*
X199364285Y-130650000D01*
X199173809Y-130602380D01*
X199030952Y-130602380D01*
X198840476Y-130650000D01*
X198745238Y-130697619D01*
X198650000Y-130792857D01*
X198602380Y-130935714D01*
X198602380Y-131030952D01*
X198650000Y-131173809D01*
X198697619Y-131221428D01*
X198602380Y-131507142D02*
X198602380Y-132078571D01*
X199602380Y-131792857D02*
X198602380Y-131792857D01*
X199602380Y-132411904D02*
X198602380Y-132411904D01*
X198602380Y-133078571D02*
X198602380Y-133269047D01*
X198650000Y-133364285D01*
X198745238Y-133459523D01*
X198935714Y-133507142D01*
X199269047Y-133507142D01*
X199459523Y-133459523D01*
X199554761Y-133364285D01*
X199602380Y-133269047D01*
X199602380Y-133078571D01*
X199554761Y-132983333D01*
X199459523Y-132888095D01*
X199269047Y-132840476D01*
X198935714Y-132840476D01*
X198745238Y-132888095D01*
X198650000Y-132983333D01*
X198602380Y-133078571D01*
X199602380Y-133935714D02*
X198602380Y-133935714D01*
X199602380Y-134507142D01*
X198602380Y-134507142D01*
X200728571Y-129269047D02*
X200776190Y-129411904D01*
X200823809Y-129459523D01*
X200919047Y-129507142D01*
X201061904Y-129507142D01*
X201157142Y-129459523D01*
X201204761Y-129411904D01*
X201252380Y-129316666D01*
X201252380Y-128935714D01*
X200252380Y-128935714D01*
X200252380Y-129269047D01*
X200300000Y-129364285D01*
X200347619Y-129411904D01*
X200442857Y-129459523D01*
X200538095Y-129459523D01*
X200633333Y-129411904D01*
X200680952Y-129364285D01*
X200728571Y-129269047D01*
X200728571Y-128935714D01*
X200252380Y-130126190D02*
X200252380Y-130316666D01*
X200300000Y-130411904D01*
X200395238Y-130507142D01*
X200585714Y-130554761D01*
X200919047Y-130554761D01*
X201109523Y-130507142D01*
X201204761Y-130411904D01*
X201252380Y-130316666D01*
X201252380Y-130126190D01*
X201204761Y-130030952D01*
X201109523Y-129935714D01*
X200919047Y-129888095D01*
X200585714Y-129888095D01*
X200395238Y-129935714D01*
X200300000Y-130030952D01*
X200252380Y-130126190D01*
X200966666Y-130935714D02*
X200966666Y-131411904D01*
X201252380Y-130840476D02*
X200252380Y-131173809D01*
X201252380Y-131507142D01*
X201252380Y-132411904D02*
X200776190Y-132078571D01*
X201252380Y-131840476D02*
X200252380Y-131840476D01*
X200252380Y-132221428D01*
X200300000Y-132316666D01*
X200347619Y-132364285D01*
X200442857Y-132411904D01*
X200585714Y-132411904D01*
X200680952Y-132364285D01*
X200728571Y-132316666D01*
X200776190Y-132221428D01*
X200776190Y-131840476D01*
X201252380Y-132840476D02*
X200252380Y-132840476D01*
X200252380Y-133078571D01*
X200300000Y-133221428D01*
X200395238Y-133316666D01*
X200490476Y-133364285D01*
X200680952Y-133411904D01*
X200823809Y-133411904D01*
X201014285Y-133364285D01*
X201109523Y-133316666D01*
X201204761Y-133221428D01*
X201252380Y-133078571D01*
X201252380Y-132840476D01*
X180635714Y-148535714D02*
X180635714Y-149202380D01*
X180873809Y-148154761D02*
X181111904Y-148869047D01*
X180492857Y-148869047D01*
X180207142Y-148202380D02*
X179540476Y-148202380D01*
X179969047Y-149202380D01*
X179207142Y-148916666D02*
X178730952Y-148916666D01*
X179302380Y-149202380D02*
X178969047Y-148202380D01*
X178635714Y-149202380D01*
X178302380Y-149202380D02*
X178302380Y-148202380D01*
X177873809Y-149202380D02*
X177873809Y-148678571D01*
X177921428Y-148583333D01*
X178016666Y-148535714D01*
X178159523Y-148535714D01*
X178254761Y-148583333D01*
X178302380Y-148630952D01*
X176635714Y-149202380D02*
X176635714Y-148202380D01*
X176635714Y-148678571D02*
X176064285Y-148678571D01*
X176064285Y-149202380D02*
X176064285Y-148202380D01*
X175588095Y-148678571D02*
X175254761Y-148678571D01*
X175111904Y-149202380D02*
X175588095Y-149202380D01*
X175588095Y-148202380D01*
X175111904Y-148202380D01*
X174730952Y-148916666D02*
X174254761Y-148916666D01*
X174826190Y-149202380D02*
X174492857Y-148202380D01*
X174159523Y-149202380D01*
X173969047Y-148202380D02*
X173397619Y-148202380D01*
X173683333Y-149202380D02*
X173683333Y-148202380D01*
X173064285Y-148678571D02*
X172730952Y-148678571D01*
X172588095Y-149202380D02*
X173064285Y-149202380D01*
X173064285Y-148202380D01*
X172588095Y-148202380D01*
X171588095Y-149202380D02*
X171921428Y-148726190D01*
X172159523Y-149202380D02*
X172159523Y-148202380D01*
X171778571Y-148202380D01*
X171683333Y-148250000D01*
X171635714Y-148297619D01*
X171588095Y-148392857D01*
X171588095Y-148535714D01*
X171635714Y-148630952D01*
X171683333Y-148678571D01*
X171778571Y-148726190D01*
X172159523Y-148726190D01*
X128392857Y-134916666D02*
X127916666Y-134916666D01*
X128488095Y-135202380D02*
X128154761Y-134202380D01*
X127821428Y-135202380D01*
X127488095Y-135202380D02*
X127488095Y-134202380D01*
X127250000Y-134202380D01*
X127107142Y-134250000D01*
X127011904Y-134345238D01*
X126964285Y-134440476D01*
X126916666Y-134630952D01*
X126916666Y-134773809D01*
X126964285Y-134964285D01*
X127011904Y-135059523D01*
X127107142Y-135154761D01*
X127250000Y-135202380D01*
X127488095Y-135202380D01*
X126535714Y-134916666D02*
X126059523Y-134916666D01*
X126630952Y-135202380D02*
X126297619Y-134202380D01*
X125964285Y-135202380D01*
X125297619Y-134678571D02*
X125630952Y-134678571D01*
X125630952Y-135202380D02*
X125630952Y-134202380D01*
X125154761Y-134202380D01*
X124202380Y-135202380D02*
X124535714Y-134726190D01*
X124773809Y-135202380D02*
X124773809Y-134202380D01*
X124392857Y-134202380D01*
X124297619Y-134250000D01*
X124250000Y-134297619D01*
X124202380Y-134392857D01*
X124202380Y-134535714D01*
X124250000Y-134630952D01*
X124297619Y-134678571D01*
X124392857Y-134726190D01*
X124773809Y-134726190D01*
X123773809Y-134202380D02*
X123773809Y-135011904D01*
X123726190Y-135107142D01*
X123678571Y-135154761D01*
X123583333Y-135202380D01*
X123392857Y-135202380D01*
X123297619Y-135154761D01*
X123250000Y-135107142D01*
X123202380Y-135011904D01*
X123202380Y-134202380D01*
X122726190Y-135202380D02*
X122726190Y-134202380D01*
X122392857Y-134202380D02*
X121821428Y-134202380D01*
X122107142Y-135202380D02*
X122107142Y-134202380D01*
X121535714Y-134535714D02*
X120821428Y-134535714D01*
X121250000Y-134107142D02*
X121535714Y-135392857D01*
X120916666Y-134964285D02*
X121630952Y-134964285D01*
X121202380Y-135392857D02*
X120916666Y-134107142D01*
X120059523Y-134535714D02*
X120059523Y-135202380D01*
X120297619Y-134154761D02*
X120535714Y-134869047D01*
X119916666Y-134869047D01*
X119392857Y-134630952D02*
X119488095Y-134583333D01*
X119535714Y-134535714D01*
X119583333Y-134440476D01*
X119583333Y-134392857D01*
X119535714Y-134297619D01*
X119488095Y-134250000D01*
X119392857Y-134202380D01*
X119202380Y-134202380D01*
X119107142Y-134250000D01*
X119059523Y-134297619D01*
X119011904Y-134392857D01*
X119011904Y-134440476D01*
X119059523Y-134535714D01*
X119107142Y-134583333D01*
X119202380Y-134630952D01*
X119392857Y-134630952D01*
X119488095Y-134678571D01*
X119535714Y-134726190D01*
X119583333Y-134821428D01*
X119583333Y-135011904D01*
X119535714Y-135107142D01*
X119488095Y-135154761D01*
X119392857Y-135202380D01*
X119202380Y-135202380D01*
X119107142Y-135154761D01*
X119059523Y-135107142D01*
X119011904Y-135011904D01*
X119011904Y-134821428D01*
X119059523Y-134726190D01*
X119107142Y-134678571D01*
X119202380Y-134630952D01*
X118535714Y-135202380D02*
X118345238Y-135202380D01*
X118250000Y-135154761D01*
X118202380Y-135107142D01*
X118107142Y-134964285D01*
X118059523Y-134773809D01*
X118059523Y-134392857D01*
X118107142Y-134297619D01*
X118154761Y-134250000D01*
X118250000Y-134202380D01*
X118440476Y-134202380D01*
X118535714Y-134250000D01*
X118583333Y-134297619D01*
X118630952Y-134392857D01*
X118630952Y-134630952D01*
X118583333Y-134726190D01*
X118535714Y-134773809D01*
X118440476Y-134821428D01*
X118250000Y-134821428D01*
X118154761Y-134773809D01*
X118107142Y-134726190D01*
X118059523Y-134630952D01*
X117583333Y-135202380D02*
X117392857Y-135202380D01*
X117297619Y-135154761D01*
X117250000Y-135107142D01*
X117154761Y-134964285D01*
X117107142Y-134773809D01*
X117107142Y-134392857D01*
X117154761Y-134297619D01*
X117202380Y-134250000D01*
X117297619Y-134202380D01*
X117488095Y-134202380D01*
X117583333Y-134250000D01*
X117630952Y-134297619D01*
X117678571Y-134392857D01*
X117678571Y-134630952D01*
X117630952Y-134726190D01*
X117583333Y-134773809D01*
X117488095Y-134821428D01*
X117297619Y-134821428D01*
X117202380Y-134773809D01*
X117154761Y-134726190D01*
X117107142Y-134630952D01*
X139788095Y-129002380D02*
X139788095Y-128002380D01*
X139454761Y-128716666D01*
X139121428Y-128002380D01*
X139121428Y-129002380D01*
X138073809Y-128907142D02*
X138121428Y-128954761D01*
X138264285Y-129002380D01*
X138359523Y-129002380D01*
X138502380Y-128954761D01*
X138597619Y-128859523D01*
X138645238Y-128764285D01*
X138692857Y-128573809D01*
X138692857Y-128430952D01*
X138645238Y-128240476D01*
X138597619Y-128145238D01*
X138502380Y-128050000D01*
X138359523Y-128002380D01*
X138264285Y-128002380D01*
X138121428Y-128050000D01*
X138073809Y-128097619D01*
X137645238Y-129002380D02*
X137645238Y-128002380D01*
X137264285Y-128002380D01*
X137169047Y-128050000D01*
X137121428Y-128097619D01*
X137073809Y-128192857D01*
X137073809Y-128335714D01*
X137121428Y-128430952D01*
X137169047Y-128478571D01*
X137264285Y-128526190D01*
X137645238Y-128526190D01*
X136692857Y-128097619D02*
X136645238Y-128050000D01*
X136550000Y-128002380D01*
X136311904Y-128002380D01*
X136216666Y-128050000D01*
X136169047Y-128097619D01*
X136121428Y-128192857D01*
X136121428Y-128288095D01*
X136169047Y-128430952D01*
X136740476Y-129002380D01*
X136121428Y-129002380D01*
X135216666Y-128002380D02*
X135692857Y-128002380D01*
X135740476Y-128478571D01*
X135692857Y-128430952D01*
X135597619Y-128383333D01*
X135359523Y-128383333D01*
X135264285Y-128430952D01*
X135216666Y-128478571D01*
X135169047Y-128573809D01*
X135169047Y-128811904D01*
X135216666Y-128907142D01*
X135264285Y-128954761D01*
X135359523Y-129002380D01*
X135597619Y-129002380D01*
X135692857Y-128954761D01*
X135740476Y-128907142D01*
X134216666Y-129002380D02*
X134788095Y-129002380D01*
X134502380Y-129002380D02*
X134502380Y-128002380D01*
X134597619Y-128145238D01*
X134692857Y-128240476D01*
X134788095Y-128288095D01*
X133311904Y-128002380D02*
X133788095Y-128002380D01*
X133835714Y-128478571D01*
X133788095Y-128430952D01*
X133692857Y-128383333D01*
X133454761Y-128383333D01*
X133359523Y-128430952D01*
X133311904Y-128478571D01*
X133264285Y-128573809D01*
X133264285Y-128811904D01*
X133311904Y-128907142D01*
X133359523Y-128954761D01*
X133454761Y-129002380D01*
X133692857Y-129002380D01*
X133788095Y-128954761D01*
X133835714Y-128907142D01*
X154559523Y-130253571D02*
X154892857Y-130253571D01*
X154892857Y-130777380D02*
X154892857Y-129777380D01*
X154416666Y-129777380D01*
X154083333Y-130491666D02*
X153607142Y-130491666D01*
X154178571Y-130777380D02*
X153845238Y-129777380D01*
X153511904Y-130777380D01*
X153178571Y-130777380D02*
X153178571Y-129777380D01*
X152607142Y-130777380D01*
X152607142Y-129777380D01*
X158369047Y-131427380D02*
X157797619Y-131427380D01*
X158083333Y-132427380D02*
X158083333Y-131427380D01*
X157511904Y-132141666D02*
X157035714Y-132141666D01*
X157607142Y-132427380D02*
X157273809Y-131427380D01*
X156940476Y-132427380D01*
X156035714Y-132332142D02*
X156083333Y-132379761D01*
X156226190Y-132427380D01*
X156321428Y-132427380D01*
X156464285Y-132379761D01*
X156559523Y-132284523D01*
X156607142Y-132189285D01*
X156654761Y-131998809D01*
X156654761Y-131855952D01*
X156607142Y-131665476D01*
X156559523Y-131570238D01*
X156464285Y-131475000D01*
X156321428Y-131427380D01*
X156226190Y-131427380D01*
X156083333Y-131475000D01*
X156035714Y-131522619D01*
X155607142Y-132427380D02*
X155607142Y-131427380D01*
X155607142Y-131903571D02*
X155035714Y-131903571D01*
X155035714Y-132427380D02*
X155035714Y-131427380D01*
X154369047Y-131427380D02*
X154178571Y-131427380D01*
X154083333Y-131475000D01*
X153988095Y-131570238D01*
X153940476Y-131760714D01*
X153940476Y-132094047D01*
X153988095Y-132284523D01*
X154083333Y-132379761D01*
X154178571Y-132427380D01*
X154369047Y-132427380D01*
X154464285Y-132379761D01*
X154559523Y-132284523D01*
X154607142Y-132094047D01*
X154607142Y-131760714D01*
X154559523Y-131570238D01*
X154464285Y-131475000D01*
X154369047Y-131427380D01*
X153511904Y-132427380D02*
X153511904Y-131427380D01*
X153178571Y-132141666D01*
X152845238Y-131427380D01*
X152845238Y-132427380D01*
X152369047Y-131903571D02*
X152035714Y-131903571D01*
X151892857Y-132427380D02*
X152369047Y-132427380D01*
X152369047Y-131427380D01*
X151892857Y-131427380D01*
X151607142Y-131427380D02*
X151035714Y-131427380D01*
X151321428Y-132427380D02*
X151321428Y-131427380D01*
X150702380Y-131903571D02*
X150369047Y-131903571D01*
X150226190Y-132427380D02*
X150702380Y-132427380D01*
X150702380Y-131427380D01*
X150226190Y-131427380D01*
X149226190Y-132427380D02*
X149559523Y-131951190D01*
X149797619Y-132427380D02*
X149797619Y-131427380D01*
X149416666Y-131427380D01*
X149321428Y-131475000D01*
X149273809Y-131522619D01*
X149226190Y-131617857D01*
X149226190Y-131760714D01*
X149273809Y-131855952D01*
X149321428Y-131903571D01*
X149416666Y-131951190D01*
X149797619Y-131951190D01*
X132311904Y-148450000D02*
X132407142Y-148402380D01*
X132550000Y-148402380D01*
X132692857Y-148450000D01*
X132788095Y-148545238D01*
X132835714Y-148640476D01*
X132883333Y-148830952D01*
X132883333Y-148973809D01*
X132835714Y-149164285D01*
X132788095Y-149259523D01*
X132692857Y-149354761D01*
X132550000Y-149402380D01*
X132454761Y-149402380D01*
X132311904Y-149354761D01*
X132264285Y-149307142D01*
X132264285Y-148973809D01*
X132454761Y-148973809D01*
X131835714Y-149402380D02*
X131835714Y-148402380D01*
X131264285Y-149402380D01*
X131264285Y-148402380D01*
X130788095Y-149402380D02*
X130788095Y-148402380D01*
X130550000Y-148402380D01*
X130407142Y-148450000D01*
X130311904Y-148545238D01*
X130264285Y-148640476D01*
X130216666Y-148830952D01*
X130216666Y-148973809D01*
X130264285Y-149164285D01*
X130311904Y-149259523D01*
X130407142Y-149354761D01*
X130550000Y-149402380D01*
X130788095Y-149402380D01*
X116035714Y-147221428D02*
X115273809Y-147221428D01*
X115654761Y-147602380D02*
X115654761Y-146840476D01*
X114321428Y-146602380D02*
X114797619Y-146602380D01*
X114845238Y-147078571D01*
X114797619Y-147030952D01*
X114702380Y-146983333D01*
X114464285Y-146983333D01*
X114369047Y-147030952D01*
X114321428Y-147078571D01*
X114273809Y-147173809D01*
X114273809Y-147411904D01*
X114321428Y-147507142D01*
X114369047Y-147554761D01*
X114464285Y-147602380D01*
X114702380Y-147602380D01*
X114797619Y-147554761D01*
X114845238Y-147507142D01*
X113988095Y-146602380D02*
X113654761Y-147602380D01*
X113321428Y-146602380D01*
X227911904Y-144425000D02*
X228007142Y-144377380D01*
X228150000Y-144377380D01*
X228292857Y-144425000D01*
X228388095Y-144520238D01*
X228435714Y-144615476D01*
X228483333Y-144805952D01*
X228483333Y-144948809D01*
X228435714Y-145139285D01*
X228388095Y-145234523D01*
X228292857Y-145329761D01*
X228150000Y-145377380D01*
X228054761Y-145377380D01*
X227911904Y-145329761D01*
X227864285Y-145282142D01*
X227864285Y-144948809D01*
X228054761Y-144948809D01*
X226864285Y-145377380D02*
X227197619Y-144901190D01*
X227435714Y-145377380D02*
X227435714Y-144377380D01*
X227054761Y-144377380D01*
X226959523Y-144425000D01*
X226911904Y-144472619D01*
X226864285Y-144567857D01*
X226864285Y-144710714D01*
X226911904Y-144805952D01*
X226959523Y-144853571D01*
X227054761Y-144901190D01*
X227435714Y-144901190D01*
X226435714Y-145377380D02*
X226435714Y-144377380D01*
X225959523Y-145377380D02*
X225959523Y-144377380D01*
X225721428Y-144377380D01*
X225578571Y-144425000D01*
X225483333Y-144520238D01*
X225435714Y-144615476D01*
X225388095Y-144805952D01*
X225388095Y-144948809D01*
X225435714Y-145139285D01*
X225483333Y-145234523D01*
X225578571Y-145329761D01*
X225721428Y-145377380D01*
X225959523Y-145377380D01*
X223626190Y-145282142D02*
X223673809Y-145329761D01*
X223816666Y-145377380D01*
X223911904Y-145377380D01*
X224054761Y-145329761D01*
X224150000Y-145234523D01*
X224197619Y-145139285D01*
X224245238Y-144948809D01*
X224245238Y-144805952D01*
X224197619Y-144615476D01*
X224150000Y-144520238D01*
X224054761Y-144425000D01*
X223911904Y-144377380D01*
X223816666Y-144377380D01*
X223673809Y-144425000D01*
X223626190Y-144472619D01*
X223197619Y-145377380D02*
X223197619Y-144377380D01*
X223197619Y-144853571D02*
X222626190Y-144853571D01*
X222626190Y-145377380D02*
X222626190Y-144377380D01*
X222197619Y-145091666D02*
X221721428Y-145091666D01*
X222292857Y-145377380D02*
X221959523Y-144377380D01*
X221626190Y-145377380D01*
X220721428Y-145377380D02*
X221054761Y-144901190D01*
X221292857Y-145377380D02*
X221292857Y-144377380D01*
X220911904Y-144377380D01*
X220816666Y-144425000D01*
X220769047Y-144472619D01*
X220721428Y-144567857D01*
X220721428Y-144710714D01*
X220769047Y-144805952D01*
X220816666Y-144853571D01*
X220911904Y-144901190D01*
X221292857Y-144901190D01*
X219769047Y-144425000D02*
X219864285Y-144377380D01*
X220007142Y-144377380D01*
X220150000Y-144425000D01*
X220245238Y-144520238D01*
X220292857Y-144615476D01*
X220340476Y-144805952D01*
X220340476Y-144948809D01*
X220292857Y-145139285D01*
X220245238Y-145234523D01*
X220150000Y-145329761D01*
X220007142Y-145377380D01*
X219911904Y-145377380D01*
X219769047Y-145329761D01*
X219721428Y-145282142D01*
X219721428Y-144948809D01*
X219911904Y-144948809D01*
X219292857Y-144853571D02*
X218959523Y-144853571D01*
X218816666Y-145377380D02*
X219292857Y-145377380D01*
X219292857Y-144377380D01*
X218816666Y-144377380D01*
X217816666Y-145377380D02*
X218150000Y-144901190D01*
X218388095Y-145377380D02*
X218388095Y-144377380D01*
X218007142Y-144377380D01*
X217911904Y-144425000D01*
X217864285Y-144472619D01*
X217816666Y-144567857D01*
X217816666Y-144710714D01*
X217864285Y-144805952D01*
X217911904Y-144853571D01*
X218007142Y-144901190D01*
X218388095Y-144901190D01*
X228864285Y-146503571D02*
X228721428Y-146551190D01*
X228673809Y-146598809D01*
X228626190Y-146694047D01*
X228626190Y-146836904D01*
X228673809Y-146932142D01*
X228721428Y-146979761D01*
X228816666Y-147027380D01*
X229197619Y-147027380D01*
X229197619Y-146027380D01*
X228864285Y-146027380D01*
X228769047Y-146075000D01*
X228721428Y-146122619D01*
X228673809Y-146217857D01*
X228673809Y-146313095D01*
X228721428Y-146408333D01*
X228769047Y-146455952D01*
X228864285Y-146503571D01*
X229197619Y-146503571D01*
X227721428Y-147027380D02*
X228197619Y-147027380D01*
X228197619Y-146027380D01*
X227197619Y-146027380D02*
X227007142Y-146027380D01*
X226911904Y-146075000D01*
X226816666Y-146170238D01*
X226769047Y-146360714D01*
X226769047Y-146694047D01*
X226816666Y-146884523D01*
X226911904Y-146979761D01*
X227007142Y-147027380D01*
X227197619Y-147027380D01*
X227292857Y-146979761D01*
X227388095Y-146884523D01*
X227435714Y-146694047D01*
X227435714Y-146360714D01*
X227388095Y-146170238D01*
X227292857Y-146075000D01*
X227197619Y-146027380D01*
X225769047Y-146932142D02*
X225816666Y-146979761D01*
X225959523Y-147027380D01*
X226054761Y-147027380D01*
X226197619Y-146979761D01*
X226292857Y-146884523D01*
X226340476Y-146789285D01*
X226388095Y-146598809D01*
X226388095Y-146455952D01*
X226340476Y-146265476D01*
X226292857Y-146170238D01*
X226197619Y-146075000D01*
X226054761Y-146027380D01*
X225959523Y-146027380D01*
X225816666Y-146075000D01*
X225769047Y-146122619D01*
X225340476Y-147027380D02*
X225340476Y-146027380D01*
X224769047Y-147027380D02*
X225197619Y-146455952D01*
X224769047Y-146027380D02*
X225340476Y-146598809D01*
X224340476Y-147027380D02*
X224340476Y-146027380D01*
X223864285Y-147027380D02*
X223864285Y-146027380D01*
X223292857Y-147027380D01*
X223292857Y-146027380D01*
X222292857Y-146075000D02*
X222388095Y-146027380D01*
X222530952Y-146027380D01*
X222673809Y-146075000D01*
X222769047Y-146170238D01*
X222816666Y-146265476D01*
X222864285Y-146455952D01*
X222864285Y-146598809D01*
X222816666Y-146789285D01*
X222769047Y-146884523D01*
X222673809Y-146979761D01*
X222530952Y-147027380D01*
X222435714Y-147027380D01*
X222292857Y-146979761D01*
X222245238Y-146932142D01*
X222245238Y-146598809D01*
X222435714Y-146598809D01*
X221054761Y-147027380D02*
X221054761Y-146027380D01*
X220816666Y-146027380D01*
X220673809Y-146075000D01*
X220578571Y-146170238D01*
X220530952Y-146265476D01*
X220483333Y-146455952D01*
X220483333Y-146598809D01*
X220530952Y-146789285D01*
X220578571Y-146884523D01*
X220673809Y-146979761D01*
X220816666Y-147027380D01*
X221054761Y-147027380D01*
X220054761Y-147027380D02*
X220054761Y-146027380D01*
X219388095Y-146027380D02*
X219197619Y-146027380D01*
X219102380Y-146075000D01*
X219007142Y-146170238D01*
X218959523Y-146360714D01*
X218959523Y-146694047D01*
X219007142Y-146884523D01*
X219102380Y-146979761D01*
X219197619Y-147027380D01*
X219388095Y-147027380D01*
X219483333Y-146979761D01*
X219578571Y-146884523D01*
X219626190Y-146694047D01*
X219626190Y-146360714D01*
X219578571Y-146170238D01*
X219483333Y-146075000D01*
X219388095Y-146027380D01*
X218530952Y-147027380D02*
X218530952Y-146027380D01*
X218292857Y-146027380D01*
X218150000Y-146075000D01*
X218054761Y-146170238D01*
X218007142Y-146265476D01*
X217959523Y-146455952D01*
X217959523Y-146598809D01*
X218007142Y-146789285D01*
X218054761Y-146884523D01*
X218150000Y-146979761D01*
X218292857Y-147027380D01*
X218530952Y-147027380D01*
X217530952Y-146503571D02*
X217197619Y-146503571D01*
X217054761Y-147027380D02*
X217530952Y-147027380D01*
X217530952Y-146027380D01*
X217054761Y-146027380D01*
X166726190Y-132200000D02*
X166821428Y-132152380D01*
X166964285Y-132152380D01*
X167107142Y-132200000D01*
X167202380Y-132295238D01*
X167250000Y-132390476D01*
X167297619Y-132580952D01*
X167297619Y-132723809D01*
X167250000Y-132914285D01*
X167202380Y-133009523D01*
X167107142Y-133104761D01*
X166964285Y-133152380D01*
X166869047Y-133152380D01*
X166726190Y-133104761D01*
X166678571Y-133057142D01*
X166678571Y-132723809D01*
X166869047Y-132723809D01*
X165678571Y-133152380D02*
X166011904Y-132676190D01*
X166250000Y-133152380D02*
X166250000Y-132152380D01*
X165869047Y-132152380D01*
X165773809Y-132200000D01*
X165726190Y-132247619D01*
X165678571Y-132342857D01*
X165678571Y-132485714D01*
X165726190Y-132580952D01*
X165773809Y-132628571D01*
X165869047Y-132676190D01*
X166250000Y-132676190D01*
X165250000Y-133152380D02*
X165250000Y-132152380D01*
X164773809Y-133152380D02*
X164773809Y-132152380D01*
X164535714Y-132152380D01*
X164392857Y-132200000D01*
X164297619Y-132295238D01*
X164250000Y-132390476D01*
X164202380Y-132580952D01*
X164202380Y-132723809D01*
X164250000Y-132914285D01*
X164297619Y-133009523D01*
X164392857Y-133104761D01*
X164535714Y-133152380D01*
X164773809Y-133152380D01*
X168321428Y-134707142D02*
X168369047Y-134754761D01*
X168511904Y-134802380D01*
X168607142Y-134802380D01*
X168750000Y-134754761D01*
X168845238Y-134659523D01*
X168892857Y-134564285D01*
X168940476Y-134373809D01*
X168940476Y-134230952D01*
X168892857Y-134040476D01*
X168845238Y-133945238D01*
X168750000Y-133850000D01*
X168607142Y-133802380D01*
X168511904Y-133802380D01*
X168369047Y-133850000D01*
X168321428Y-133897619D01*
X167892857Y-133802380D02*
X167892857Y-134611904D01*
X167845238Y-134707142D01*
X167797619Y-134754761D01*
X167702380Y-134802380D01*
X167511904Y-134802380D01*
X167416666Y-134754761D01*
X167369047Y-134707142D01*
X167321428Y-134611904D01*
X167321428Y-133802380D01*
X166273809Y-134802380D02*
X166607142Y-134326190D01*
X166845238Y-134802380D02*
X166845238Y-133802380D01*
X166464285Y-133802380D01*
X166369047Y-133850000D01*
X166321428Y-133897619D01*
X166273809Y-133992857D01*
X166273809Y-134135714D01*
X166321428Y-134230952D01*
X166369047Y-134278571D01*
X166464285Y-134326190D01*
X166845238Y-134326190D01*
X165273809Y-134802380D02*
X165607142Y-134326190D01*
X165845238Y-134802380D02*
X165845238Y-133802380D01*
X165464285Y-133802380D01*
X165369047Y-133850000D01*
X165321428Y-133897619D01*
X165273809Y-133992857D01*
X165273809Y-134135714D01*
X165321428Y-134230952D01*
X165369047Y-134278571D01*
X165464285Y-134326190D01*
X165845238Y-134326190D01*
X164845238Y-134278571D02*
X164511904Y-134278571D01*
X164369047Y-134802380D02*
X164845238Y-134802380D01*
X164845238Y-133802380D01*
X164369047Y-133802380D01*
X163940476Y-134802380D02*
X163940476Y-133802380D01*
X163369047Y-134802380D01*
X163369047Y-133802380D01*
X163035714Y-133802380D02*
X162464285Y-133802380D01*
X162750000Y-134802380D02*
X162750000Y-133802380D01*
X166869047Y-136452380D02*
X167345238Y-136452380D01*
X167345238Y-135452380D01*
X166535714Y-136452380D02*
X166535714Y-135452380D01*
X166059523Y-136452380D02*
X166059523Y-135452380D01*
X165726190Y-136166666D01*
X165392857Y-135452380D01*
X165392857Y-136452380D01*
X164916666Y-136452380D02*
X164916666Y-135452380D01*
X164583333Y-135452380D02*
X164011904Y-135452380D01*
X164297619Y-136452380D02*
X164297619Y-135452380D01*
X165297619Y-128777380D02*
X165297619Y-127777380D01*
X165297619Y-128253571D02*
X164726190Y-128253571D01*
X164726190Y-128777380D02*
X164726190Y-127777380D01*
X164250000Y-128253571D02*
X163916666Y-128253571D01*
X163773809Y-128777380D02*
X164250000Y-128777380D01*
X164250000Y-127777380D01*
X163773809Y-127777380D01*
X163392857Y-128491666D02*
X162916666Y-128491666D01*
X163488095Y-128777380D02*
X163154761Y-127777380D01*
X162821428Y-128777380D01*
X162630952Y-127777380D02*
X162059523Y-127777380D01*
X162345238Y-128777380D02*
X162345238Y-127777380D01*
X164750000Y-130427380D02*
X164750000Y-129427380D01*
X164321428Y-130379761D02*
X164178571Y-130427380D01*
X163940476Y-130427380D01*
X163845238Y-130379761D01*
X163797619Y-130332142D01*
X163750000Y-130236904D01*
X163750000Y-130141666D01*
X163797619Y-130046428D01*
X163845238Y-129998809D01*
X163940476Y-129951190D01*
X164130952Y-129903571D01*
X164226190Y-129855952D01*
X164273809Y-129808333D01*
X164321428Y-129713095D01*
X164321428Y-129617857D01*
X164273809Y-129522619D01*
X164226190Y-129475000D01*
X164130952Y-129427380D01*
X163892857Y-129427380D01*
X163750000Y-129475000D01*
X163130952Y-129427380D02*
X162940476Y-129427380D01*
X162845238Y-129475000D01*
X162750000Y-129570238D01*
X162702380Y-129760714D01*
X162702380Y-130094047D01*
X162750000Y-130284523D01*
X162845238Y-130379761D01*
X162940476Y-130427380D01*
X163130952Y-130427380D01*
X163226190Y-130379761D01*
X163321428Y-130284523D01*
X163369047Y-130094047D01*
X163369047Y-129760714D01*
X163321428Y-129570238D01*
X163226190Y-129475000D01*
X163130952Y-129427380D01*
X187250000Y-133377380D02*
X187250000Y-132377380D01*
X187250000Y-132853571D02*
X186678571Y-132853571D01*
X186678571Y-133377380D02*
X186678571Y-132377380D01*
X186202380Y-132853571D02*
X185869047Y-132853571D01*
X185726190Y-133377380D02*
X186202380Y-133377380D01*
X186202380Y-132377380D01*
X185726190Y-132377380D01*
X185345238Y-133091666D02*
X184869047Y-133091666D01*
X185440476Y-133377380D02*
X185107142Y-132377380D01*
X184773809Y-133377380D01*
X184583333Y-132377380D02*
X184011904Y-132377380D01*
X184297619Y-133377380D02*
X184297619Y-132377380D01*
X183678571Y-132853571D02*
X183345238Y-132853571D01*
X183202380Y-133377380D02*
X183678571Y-133377380D01*
X183678571Y-132377380D01*
X183202380Y-132377380D01*
X182202380Y-133377380D02*
X182535714Y-132901190D01*
X182773809Y-133377380D02*
X182773809Y-132377380D01*
X182392857Y-132377380D01*
X182297619Y-132425000D01*
X182250000Y-132472619D01*
X182202380Y-132567857D01*
X182202380Y-132710714D01*
X182250000Y-132805952D01*
X182297619Y-132853571D01*
X182392857Y-132901190D01*
X182773809Y-132901190D01*
X187250000Y-134979761D02*
X187107142Y-135027380D01*
X186869047Y-135027380D01*
X186773809Y-134979761D01*
X186726190Y-134932142D01*
X186678571Y-134836904D01*
X186678571Y-134741666D01*
X186726190Y-134646428D01*
X186773809Y-134598809D01*
X186869047Y-134551190D01*
X187059523Y-134503571D01*
X187154761Y-134455952D01*
X187202380Y-134408333D01*
X187250000Y-134313095D01*
X187250000Y-134217857D01*
X187202380Y-134122619D01*
X187154761Y-134075000D01*
X187059523Y-134027380D01*
X186821428Y-134027380D01*
X186678571Y-134075000D01*
X186345238Y-134027380D02*
X186107142Y-135027380D01*
X185916666Y-134313095D01*
X185726190Y-135027380D01*
X185488095Y-134027380D01*
X185107142Y-135027380D02*
X185107142Y-134027380D01*
X184773809Y-134027380D02*
X184202380Y-134027380D01*
X184488095Y-135027380D02*
X184488095Y-134027380D01*
X183297619Y-134932142D02*
X183345238Y-134979761D01*
X183488095Y-135027380D01*
X183583333Y-135027380D01*
X183726190Y-134979761D01*
X183821428Y-134884523D01*
X183869047Y-134789285D01*
X183916666Y-134598809D01*
X183916666Y-134455952D01*
X183869047Y-134265476D01*
X183821428Y-134170238D01*
X183726190Y-134075000D01*
X183583333Y-134027380D01*
X183488095Y-134027380D01*
X183345238Y-134075000D01*
X183297619Y-134122619D01*
X182869047Y-135027380D02*
X182869047Y-134027380D01*
X182869047Y-134503571D02*
X182297619Y-134503571D01*
X182297619Y-135027380D02*
X182297619Y-134027380D01*
X223897619Y-139853571D02*
X224230952Y-139853571D01*
X224230952Y-140377380D02*
X224230952Y-139377380D01*
X223754761Y-139377380D01*
X223373809Y-139377380D02*
X223373809Y-140186904D01*
X223326190Y-140282142D01*
X223278571Y-140329761D01*
X223183333Y-140377380D01*
X222992857Y-140377380D01*
X222897619Y-140329761D01*
X222850000Y-140282142D01*
X222802380Y-140186904D01*
X222802380Y-139377380D01*
X222373809Y-140329761D02*
X222230952Y-140377380D01*
X221992857Y-140377380D01*
X221897619Y-140329761D01*
X221850000Y-140282142D01*
X221802380Y-140186904D01*
X221802380Y-140091666D01*
X221850000Y-139996428D01*
X221897619Y-139948809D01*
X221992857Y-139901190D01*
X222183333Y-139853571D01*
X222278571Y-139805952D01*
X222326190Y-139758333D01*
X222373809Y-139663095D01*
X222373809Y-139567857D01*
X222326190Y-139472619D01*
X222278571Y-139425000D01*
X222183333Y-139377380D01*
X221945238Y-139377380D01*
X221802380Y-139425000D01*
X221373809Y-139853571D02*
X221040476Y-139853571D01*
X220897619Y-140377380D02*
X221373809Y-140377380D01*
X221373809Y-139377380D01*
X220897619Y-139377380D01*
X220469047Y-140282142D02*
X220421428Y-140329761D01*
X220469047Y-140377380D01*
X220516666Y-140329761D01*
X220469047Y-140282142D01*
X220469047Y-140377380D01*
X220469047Y-139758333D02*
X220421428Y-139805952D01*
X220469047Y-139853571D01*
X220516666Y-139805952D01*
X220469047Y-139758333D01*
X220469047Y-139853571D01*
X224850000Y-142027380D02*
X224850000Y-141027380D01*
X224850000Y-141503571D02*
X224278571Y-141503571D01*
X224278571Y-142027380D02*
X224278571Y-141027380D01*
X223802380Y-141503571D02*
X223469047Y-141503571D01*
X223326190Y-142027380D02*
X223802380Y-142027380D01*
X223802380Y-141027380D01*
X223326190Y-141027380D01*
X222945238Y-141741666D02*
X222469047Y-141741666D01*
X223040476Y-142027380D02*
X222707142Y-141027380D01*
X222373809Y-142027380D01*
X222183333Y-141027380D02*
X221611904Y-141027380D01*
X221897619Y-142027380D02*
X221897619Y-141027380D01*
X221278571Y-141503571D02*
X220945238Y-141503571D01*
X220802380Y-142027380D02*
X221278571Y-142027380D01*
X221278571Y-141027380D01*
X220802380Y-141027380D01*
X219802380Y-142027380D02*
X220135714Y-141551190D01*
X220373809Y-142027380D02*
X220373809Y-141027380D01*
X219992857Y-141027380D01*
X219897619Y-141075000D01*
X219850000Y-141122619D01*
X219802380Y-141217857D01*
X219802380Y-141360714D01*
X219850000Y-141455952D01*
X219897619Y-141503571D01*
X219992857Y-141551190D01*
X220373809Y-141551190D01*
X226635714Y-151453571D02*
X226969047Y-151453571D01*
X226969047Y-151977380D02*
X226969047Y-150977380D01*
X226492857Y-150977380D01*
X226111904Y-150977380D02*
X226111904Y-151786904D01*
X226064285Y-151882142D01*
X226016666Y-151929761D01*
X225921428Y-151977380D01*
X225730952Y-151977380D01*
X225635714Y-151929761D01*
X225588095Y-151882142D01*
X225540476Y-151786904D01*
X225540476Y-150977380D01*
X225111904Y-151929761D02*
X224969047Y-151977380D01*
X224730952Y-151977380D01*
X224635714Y-151929761D01*
X224588095Y-151882142D01*
X224540476Y-151786904D01*
X224540476Y-151691666D01*
X224588095Y-151596428D01*
X224635714Y-151548809D01*
X224730952Y-151501190D01*
X224921428Y-151453571D01*
X225016666Y-151405952D01*
X225064285Y-151358333D01*
X225111904Y-151263095D01*
X225111904Y-151167857D01*
X225064285Y-151072619D01*
X225016666Y-151025000D01*
X224921428Y-150977380D01*
X224683333Y-150977380D01*
X224540476Y-151025000D01*
X224111904Y-151453571D02*
X223778571Y-151453571D01*
X223635714Y-151977380D02*
X224111904Y-151977380D01*
X224111904Y-150977380D01*
X223635714Y-150977380D01*
X223207142Y-151882142D02*
X223159523Y-151929761D01*
X223207142Y-151977380D01*
X223254761Y-151929761D01*
X223207142Y-151882142D01*
X223207142Y-151977380D01*
X223207142Y-151358333D02*
X223159523Y-151405952D01*
X223207142Y-151453571D01*
X223254761Y-151405952D01*
X223207142Y-151358333D01*
X223207142Y-151453571D01*
X222207142Y-151025000D02*
X222302380Y-150977380D01*
X222445238Y-150977380D01*
X222588095Y-151025000D01*
X222683333Y-151120238D01*
X222730952Y-151215476D01*
X222778571Y-151405952D01*
X222778571Y-151548809D01*
X222730952Y-151739285D01*
X222683333Y-151834523D01*
X222588095Y-151929761D01*
X222445238Y-151977380D01*
X222350000Y-151977380D01*
X222207142Y-151929761D01*
X222159523Y-151882142D01*
X222159523Y-151548809D01*
X222350000Y-151548809D01*
X221159523Y-151977380D02*
X221492857Y-151501190D01*
X221730952Y-151977380D02*
X221730952Y-150977380D01*
X221350000Y-150977380D01*
X221254761Y-151025000D01*
X221207142Y-151072619D01*
X221159523Y-151167857D01*
X221159523Y-151310714D01*
X221207142Y-151405952D01*
X221254761Y-151453571D01*
X221350000Y-151501190D01*
X221730952Y-151501190D01*
X220730952Y-151977380D02*
X220730952Y-150977380D01*
X220254761Y-151977380D02*
X220254761Y-150977380D01*
X220016666Y-150977380D01*
X219873809Y-151025000D01*
X219778571Y-151120238D01*
X219730952Y-151215476D01*
X219683333Y-151405952D01*
X219683333Y-151548809D01*
X219730952Y-151739285D01*
X219778571Y-151834523D01*
X219873809Y-151929761D01*
X220016666Y-151977380D01*
X220254761Y-151977380D01*
X225945238Y-153532142D02*
X225992857Y-153579761D01*
X226135714Y-153627380D01*
X226230952Y-153627380D01*
X226373809Y-153579761D01*
X226469047Y-153484523D01*
X226516666Y-153389285D01*
X226564285Y-153198809D01*
X226564285Y-153055952D01*
X226516666Y-152865476D01*
X226469047Y-152770238D01*
X226373809Y-152675000D01*
X226230952Y-152627380D01*
X226135714Y-152627380D01*
X225992857Y-152675000D01*
X225945238Y-152722619D01*
X225516666Y-153627380D02*
X225516666Y-152627380D01*
X225516666Y-153103571D02*
X224945238Y-153103571D01*
X224945238Y-153627380D02*
X224945238Y-152627380D01*
X224516666Y-153341666D02*
X224040476Y-153341666D01*
X224611904Y-153627380D02*
X224278571Y-152627380D01*
X223945238Y-153627380D01*
X223040476Y-153627380D02*
X223373809Y-153151190D01*
X223611904Y-153627380D02*
X223611904Y-152627380D01*
X223230952Y-152627380D01*
X223135714Y-152675000D01*
X223088095Y-152722619D01*
X223040476Y-152817857D01*
X223040476Y-152960714D01*
X223088095Y-153055952D01*
X223135714Y-153103571D01*
X223230952Y-153151190D01*
X223611904Y-153151190D01*
X222088095Y-152675000D02*
X222183333Y-152627380D01*
X222326190Y-152627380D01*
X222469047Y-152675000D01*
X222564285Y-152770238D01*
X222611904Y-152865476D01*
X222659523Y-153055952D01*
X222659523Y-153198809D01*
X222611904Y-153389285D01*
X222564285Y-153484523D01*
X222469047Y-153579761D01*
X222326190Y-153627380D01*
X222230952Y-153627380D01*
X222088095Y-153579761D01*
X222040476Y-153532142D01*
X222040476Y-153198809D01*
X222230952Y-153198809D01*
X221611904Y-153103571D02*
X221278571Y-153103571D01*
X221135714Y-153627380D02*
X221611904Y-153627380D01*
X221611904Y-152627380D01*
X221135714Y-152627380D01*
X220135714Y-153627380D02*
X220469047Y-153151190D01*
X220707142Y-153627380D02*
X220707142Y-152627380D01*
X220326190Y-152627380D01*
X220230952Y-152675000D01*
X220183333Y-152722619D01*
X220135714Y-152817857D01*
X220135714Y-152960714D01*
X220183333Y-153055952D01*
X220230952Y-153103571D01*
X220326190Y-153151190D01*
X220707142Y-153151190D01*
X215678571Y-151978571D02*
X216535714Y-151978571D01*
X216107142Y-151978571D02*
X216107142Y-150478571D01*
X216250000Y-150692857D01*
X216392857Y-150835714D01*
X216535714Y-150907142D01*
X214392857Y-150478571D02*
X214678571Y-150478571D01*
X214821428Y-150550000D01*
X214892857Y-150621428D01*
X215035714Y-150835714D01*
X215107142Y-151121428D01*
X215107142Y-151692857D01*
X215035714Y-151835714D01*
X214964285Y-151907142D01*
X214821428Y-151978571D01*
X214535714Y-151978571D01*
X214392857Y-151907142D01*
X214321428Y-151835714D01*
X214250000Y-151692857D01*
X214250000Y-151335714D01*
X214321428Y-151192857D01*
X214392857Y-151121428D01*
X214535714Y-151050000D01*
X214821428Y-151050000D01*
X214964285Y-151121428D01*
X215035714Y-151192857D01*
X215107142Y-151335714D01*
X213678571Y-151550000D02*
X212964285Y-151550000D01*
X213821428Y-151978571D02*
X213321428Y-150478571D01*
X212821428Y-151978571D01*
X218821428Y-152878571D02*
X217892857Y-152878571D01*
X218392857Y-153450000D01*
X218178571Y-153450000D01*
X218035714Y-153521428D01*
X217964285Y-153592857D01*
X217892857Y-153735714D01*
X217892857Y-154092857D01*
X217964285Y-154235714D01*
X218035714Y-154307142D01*
X218178571Y-154378571D01*
X218607142Y-154378571D01*
X218750000Y-154307142D01*
X218821428Y-154235714D01*
X216964285Y-152878571D02*
X216821428Y-152878571D01*
X216678571Y-152950000D01*
X216607142Y-153021428D01*
X216535714Y-153164285D01*
X216464285Y-153450000D01*
X216464285Y-153807142D01*
X216535714Y-154092857D01*
X216607142Y-154235714D01*
X216678571Y-154307142D01*
X216821428Y-154378571D01*
X216964285Y-154378571D01*
X217107142Y-154307142D01*
X217178571Y-154235714D01*
X217250000Y-154092857D01*
X217321428Y-153807142D01*
X217321428Y-153450000D01*
X217250000Y-153164285D01*
X217178571Y-153021428D01*
X217107142Y-152950000D01*
X216964285Y-152878571D01*
X215535714Y-152878571D02*
X215392857Y-152878571D01*
X215250000Y-152950000D01*
X215178571Y-153021428D01*
X215107142Y-153164285D01*
X215035714Y-153450000D01*
X215035714Y-153807142D01*
X215107142Y-154092857D01*
X215178571Y-154235714D01*
X215250000Y-154307142D01*
X215392857Y-154378571D01*
X215535714Y-154378571D01*
X215678571Y-154307142D01*
X215750000Y-154235714D01*
X215821428Y-154092857D01*
X215892857Y-153807142D01*
X215892857Y-153450000D01*
X215821428Y-153164285D01*
X215750000Y-153021428D01*
X215678571Y-152950000D01*
X215535714Y-152878571D01*
X214607142Y-152878571D02*
X214107142Y-154378571D01*
X213607142Y-152878571D01*
X213107142Y-154378571D02*
X213107142Y-152878571D01*
X212750000Y-152878571D01*
X212535714Y-152950000D01*
X212392857Y-153092857D01*
X212321428Y-153235714D01*
X212250000Y-153521428D01*
X212250000Y-153735714D01*
X212321428Y-154021428D01*
X212392857Y-154164285D01*
X212535714Y-154307142D01*
X212750000Y-154378571D01*
X213107142Y-154378571D01*
X210750000Y-154235714D02*
X210821428Y-154307142D01*
X211035714Y-154378571D01*
X211178571Y-154378571D01*
X211392857Y-154307142D01*
X211535714Y-154164285D01*
X211607142Y-154021428D01*
X211678571Y-153735714D01*
X211678571Y-153521428D01*
X211607142Y-153235714D01*
X211535714Y-153092857D01*
X211392857Y-152950000D01*
X211178571Y-152878571D01*
X211035714Y-152878571D01*
X210821428Y-152950000D01*
X210750000Y-153021428D01*
X215107142Y-137978571D02*
X215107142Y-138978571D01*
X215464285Y-137407142D02*
X215821428Y-138478571D01*
X214892857Y-138478571D01*
X214392857Y-138550000D02*
X213678571Y-138550000D01*
X214535714Y-138978571D02*
X214035714Y-137478571D01*
X213535714Y-138978571D01*
X218821428Y-139878571D02*
X217892857Y-139878571D01*
X218392857Y-140450000D01*
X218178571Y-140450000D01*
X218035714Y-140521428D01*
X217964285Y-140592857D01*
X217892857Y-140735714D01*
X217892857Y-141092857D01*
X217964285Y-141235714D01*
X218035714Y-141307142D01*
X218178571Y-141378571D01*
X218607142Y-141378571D01*
X218750000Y-141307142D01*
X218821428Y-141235714D01*
X216964285Y-139878571D02*
X216821428Y-139878571D01*
X216678571Y-139950000D01*
X216607142Y-140021428D01*
X216535714Y-140164285D01*
X216464285Y-140450000D01*
X216464285Y-140807142D01*
X216535714Y-141092857D01*
X216607142Y-141235714D01*
X216678571Y-141307142D01*
X216821428Y-141378571D01*
X216964285Y-141378571D01*
X217107142Y-141307142D01*
X217178571Y-141235714D01*
X217250000Y-141092857D01*
X217321428Y-140807142D01*
X217321428Y-140450000D01*
X217250000Y-140164285D01*
X217178571Y-140021428D01*
X217107142Y-139950000D01*
X216964285Y-139878571D01*
X215535714Y-139878571D02*
X215392857Y-139878571D01*
X215250000Y-139950000D01*
X215178571Y-140021428D01*
X215107142Y-140164285D01*
X215035714Y-140450000D01*
X215035714Y-140807142D01*
X215107142Y-141092857D01*
X215178571Y-141235714D01*
X215250000Y-141307142D01*
X215392857Y-141378571D01*
X215535714Y-141378571D01*
X215678571Y-141307142D01*
X215750000Y-141235714D01*
X215821428Y-141092857D01*
X215892857Y-140807142D01*
X215892857Y-140450000D01*
X215821428Y-140164285D01*
X215750000Y-140021428D01*
X215678571Y-139950000D01*
X215535714Y-139878571D01*
X214607142Y-139878571D02*
X214107142Y-141378571D01*
X213607142Y-139878571D01*
X213107142Y-141378571D02*
X213107142Y-139878571D01*
X212750000Y-139878571D01*
X212535714Y-139950000D01*
X212392857Y-140092857D01*
X212321428Y-140235714D01*
X212250000Y-140521428D01*
X212250000Y-140735714D01*
X212321428Y-141021428D01*
X212392857Y-141164285D01*
X212535714Y-141307142D01*
X212750000Y-141378571D01*
X213107142Y-141378571D01*
X210750000Y-141235714D02*
X210821428Y-141307142D01*
X211035714Y-141378571D01*
X211178571Y-141378571D01*
X211392857Y-141307142D01*
X211535714Y-141164285D01*
X211607142Y-141021428D01*
X211678571Y-140735714D01*
X211678571Y-140521428D01*
X211607142Y-140235714D01*
X211535714Y-140092857D01*
X211392857Y-139950000D01*
X211178571Y-139878571D01*
X211035714Y-139878571D01*
X210821428Y-139950000D01*
X210750000Y-140021428D01*
D11*
G04 #@! TO.C,F1*
X185890000Y-145910000D02*
X185890000Y-142750000D01*
X185890000Y-139250000D02*
X185890000Y-136090000D01*
X208610000Y-139250000D02*
X208610000Y-136090000D01*
X208610000Y-136090000D02*
X185890000Y-136090000D01*
X208610000Y-145910000D02*
X185890000Y-145910000D01*
X208610000Y-145910000D02*
X208610000Y-142750000D01*
G04 #@! TO.C,F2*
X208610000Y-155660000D02*
X208610000Y-152500000D01*
X208610000Y-155660000D02*
X185890000Y-155660000D01*
X208610000Y-145840000D02*
X185890000Y-145840000D01*
X208610000Y-149000000D02*
X208610000Y-145840000D01*
X185890000Y-149000000D02*
X185890000Y-145840000D01*
X185890000Y-155660000D02*
X185890000Y-152500000D01*
G04 #@! TO.C,J9*
X150050000Y-154080000D02*
X150050000Y-151420000D01*
X157730000Y-154080000D02*
X150050000Y-154080000D01*
X157730000Y-151420000D02*
X150050000Y-151420000D01*
X157730000Y-154080000D02*
X157730000Y-151420000D01*
X159000000Y-154080000D02*
X160330000Y-154080000D01*
X160330000Y-154080000D02*
X160330000Y-152750000D01*
G04 #@! TO.C,J7*
X143580000Y-154580000D02*
X143580000Y-153250000D01*
X142250000Y-154580000D02*
X143580000Y-154580000D01*
X140980000Y-154580000D02*
X140980000Y-151920000D01*
X140980000Y-151920000D02*
X123140000Y-151920000D01*
X140980000Y-154580000D02*
X123140000Y-154580000D01*
X123140000Y-154580000D02*
X123140000Y-151920000D01*
G04 #@! TO.C,J6*
X97550000Y-144420000D02*
X97550000Y-145750000D01*
X98880000Y-144420000D02*
X97550000Y-144420000D01*
X100150000Y-144420000D02*
X100150000Y-147080000D01*
X100150000Y-147080000D02*
X107830000Y-147080000D01*
X100150000Y-144420000D02*
X107830000Y-144420000D01*
X107830000Y-144420000D02*
X107830000Y-147080000D01*
G04 #@! TO.C,F1*
D10*
X185083333Y-137428571D02*
X185416666Y-137428571D01*
X185416666Y-137952380D02*
X185416666Y-136952380D01*
X184940476Y-136952380D01*
X184035714Y-137952380D02*
X184607142Y-137952380D01*
X184321428Y-137952380D02*
X184321428Y-136952380D01*
X184416666Y-137095238D01*
X184511904Y-137190476D01*
X184607142Y-137238095D01*
G04 #@! TO.C,F2*
X185083333Y-153928571D02*
X185416666Y-153928571D01*
X185416666Y-154452380D02*
X185416666Y-153452380D01*
X184940476Y-153452380D01*
X184607142Y-153547619D02*
X184559523Y-153500000D01*
X184464285Y-153452380D01*
X184226190Y-153452380D01*
X184130952Y-153500000D01*
X184083333Y-153547619D01*
X184035714Y-153642857D01*
X184035714Y-153738095D01*
X184083333Y-153880952D01*
X184654761Y-154452380D01*
X184035714Y-154452380D01*
G04 #@! TO.C,J9*
X154283333Y-150002380D02*
X154283333Y-150716666D01*
X154330952Y-150859523D01*
X154426190Y-150954761D01*
X154569047Y-151002380D01*
X154664285Y-151002380D01*
X153759523Y-151002380D02*
X153569047Y-151002380D01*
X153473809Y-150954761D01*
X153426190Y-150907142D01*
X153330952Y-150764285D01*
X153283333Y-150573809D01*
X153283333Y-150192857D01*
X153330952Y-150097619D01*
X153378571Y-150050000D01*
X153473809Y-150002380D01*
X153664285Y-150002380D01*
X153759523Y-150050000D01*
X153807142Y-150097619D01*
X153854761Y-150192857D01*
X153854761Y-150430952D01*
X153807142Y-150526190D01*
X153759523Y-150573809D01*
X153664285Y-150621428D01*
X153473809Y-150621428D01*
X153378571Y-150573809D01*
X153330952Y-150526190D01*
X153283333Y-150430952D01*
G04 #@! TO.C,J7*
X122283333Y-152802380D02*
X122283333Y-153516666D01*
X122330952Y-153659523D01*
X122426190Y-153754761D01*
X122569047Y-153802380D01*
X122664285Y-153802380D01*
X121902380Y-152802380D02*
X121235714Y-152802380D01*
X121664285Y-153802380D01*
G04 #@! TO.C,J6*
X108452380Y-145416666D02*
X109166666Y-145416666D01*
X109309523Y-145369047D01*
X109404761Y-145273809D01*
X109452380Y-145130952D01*
X109452380Y-145035714D01*
X108452380Y-146321428D02*
X108452380Y-146130952D01*
X108500000Y-146035714D01*
X108547619Y-145988095D01*
X108690476Y-145892857D01*
X108880952Y-145845238D01*
X109261904Y-145845238D01*
X109357142Y-145892857D01*
X109404761Y-145940476D01*
X109452380Y-146035714D01*
X109452380Y-146226190D01*
X109404761Y-146321428D01*
X109357142Y-146369047D01*
X109261904Y-146416666D01*
X109023809Y-146416666D01*
X108928571Y-146369047D01*
X108880952Y-146321428D01*
X108833333Y-146226190D01*
X108833333Y-146035714D01*
X108880952Y-145940476D01*
X108928571Y-145892857D01*
X109023809Y-145845238D01*
G04 #@! TD*
%LPC*%
D12*
G04 #@! TO.C,F1*
X208500000Y-141000000D03*
X186000000Y-141000000D03*
G04 #@! TD*
G04 #@! TO.C,F2*
X186000000Y-150750000D03*
X208500000Y-150750000D03*
G04 #@! TD*
D13*
G04 #@! TO.C,J3*
X116250000Y-128250000D03*
X118790000Y-128250000D03*
X121330000Y-128250000D03*
X123870000Y-128250000D03*
X126410000Y-128250000D03*
X128950000Y-128250000D03*
D14*
X131490000Y-128250000D03*
G04 #@! TD*
G04 #@! TO.C,J4*
X130250000Y-132500000D03*
D13*
X127710000Y-132500000D03*
X125170000Y-132500000D03*
X122630000Y-132500000D03*
X120090000Y-132500000D03*
X117550000Y-132500000D03*
X115010000Y-132500000D03*
G04 #@! TD*
D14*
G04 #@! TO.C,J9*
X159000000Y-152750000D03*
D13*
X156460000Y-152750000D03*
X153920000Y-152750000D03*
X151380000Y-152750000D03*
G04 #@! TD*
G04 #@! TO.C,J1*
G36*
G01*
X149350000Y-137550000D02*
X149350000Y-134450000D01*
G75*
G02*
X149600000Y-134200000I250000J0D01*
G01*
X150900000Y-134200000D01*
G75*
G02*
X151150000Y-134450000I0J-250000D01*
G01*
X151150000Y-137550000D01*
G75*
G02*
X150900000Y-137800000I-250000J0D01*
G01*
X149600000Y-137800000D01*
G75*
G02*
X149350000Y-137550000I0J250000D01*
G01*
G37*
D15*
X153750000Y-136000000D03*
X157250000Y-136000000D03*
G04 #@! TD*
D14*
G04 #@! TO.C,J12*
X145500000Y-152000000D03*
D13*
X148040000Y-152000000D03*
G04 #@! TD*
D14*
G04 #@! TO.C,J5*
X138750000Y-135750000D03*
D13*
X138750000Y-133210000D03*
X141290000Y-135750000D03*
X141290000Y-133210000D03*
X143830000Y-135750000D03*
X143830000Y-133210000D03*
G04 #@! TD*
G04 #@! TO.C,J10*
G36*
G01*
X201900000Y-135950000D02*
X201900000Y-139050000D01*
G75*
G02*
X201650000Y-139300000I-250000J0D01*
G01*
X200350000Y-139300000D01*
G75*
G02*
X200100000Y-139050000I0J250000D01*
G01*
X200100000Y-135950000D01*
G75*
G02*
X200350000Y-135700000I250000J0D01*
G01*
X201650000Y-135700000D01*
G75*
G02*
X201900000Y-135950000I0J-250000D01*
G01*
G37*
D15*
X197500000Y-137500000D03*
X194000000Y-137500000D03*
X190500000Y-137500000D03*
G04 #@! TD*
G04 #@! TO.C,J11*
G36*
G01*
X170350000Y-146550000D02*
X170350000Y-143450000D01*
G75*
G02*
X170600000Y-143200000I250000J0D01*
G01*
X171900000Y-143200000D01*
G75*
G02*
X172150000Y-143450000I0J-250000D01*
G01*
X172150000Y-146550000D01*
G75*
G02*
X171900000Y-146800000I-250000J0D01*
G01*
X170600000Y-146800000D01*
G75*
G02*
X170350000Y-146550000I0J250000D01*
G01*
G37*
X174750000Y-145000000D03*
X178250000Y-145000000D03*
X181750000Y-145000000D03*
G04 #@! TD*
G04 #@! TO.C,J13*
X201000000Y-145250000D03*
X197500000Y-145250000D03*
X194000000Y-145250000D03*
G36*
G01*
X189600000Y-146800000D02*
X189600000Y-143700000D01*
G75*
G02*
X189850000Y-143450000I250000J0D01*
G01*
X191150000Y-143450000D01*
G75*
G02*
X191400000Y-143700000I0J-250000D01*
G01*
X191400000Y-146800000D01*
G75*
G02*
X191150000Y-147050000I-250000J0D01*
G01*
X189850000Y-147050000D01*
G75*
G02*
X189600000Y-146800000I0J250000D01*
G01*
G37*
G04 #@! TD*
D14*
G04 #@! TO.C,J8*
X161750000Y-152750000D03*
D13*
X164290000Y-152750000D03*
G04 #@! TD*
D14*
G04 #@! TO.C,J7*
X142250000Y-153250000D03*
D13*
X139710000Y-153250000D03*
X137170000Y-153250000D03*
X134630000Y-153250000D03*
X132090000Y-153250000D03*
X129550000Y-153250000D03*
X127010000Y-153250000D03*
X124470000Y-153250000D03*
G04 #@! TD*
D14*
G04 #@! TO.C,J6*
X98880000Y-145750000D03*
D13*
X101420000Y-145750000D03*
X103960000Y-145750000D03*
X106500000Y-145750000D03*
G04 #@! TD*
D16*
G04 #@! TO.C,D3*
X231980000Y-145760000D03*
D17*
X214570000Y-143220000D03*
D18*
X214570000Y-148300000D03*
G04 #@! TD*
D19*
G04 #@! TO.C,H1*
X242500000Y-145750000D03*
G04 #@! TD*
D14*
G04 #@! TO.C,J2*
X106500000Y-149000000D03*
D13*
X103960000Y-149000000D03*
X101420000Y-149000000D03*
X98880000Y-149000000D03*
G04 #@! TD*
M02*
