G04 #@! TF.GenerationSoftware,KiCad,Pcbnew,(5.1.9-0-10_14)*
G04 #@! TF.CreationDate,2023-02-12T16:19:48-05:00*
G04 #@! TF.ProjectId,LiBCM-Daughterboard,4c694243-4d2d-4446-9175-676874657262,A*
G04 #@! TF.SameCoordinates,Original*
G04 #@! TF.FileFunction,Soldermask,Top*
G04 #@! TF.FilePolarity,Negative*
%FSLAX46Y46*%
G04 Gerber Fmt 4.6, Leading zero omitted, Abs format (unit mm)*
G04 Created by KiCad (PCBNEW (5.1.9-0-10_14)) date 2023-02-12 16:19:48*
%MOMM*%
%LPD*%
G01*
G04 APERTURE LIST*
%ADD10C,3.000000*%
%ADD11O,1.700000X1.700000*%
%ADD12R,1.700000X1.700000*%
%ADD13R,0.800000X0.900000*%
%ADD14O,1.800000X3.600000*%
%ADD15R,1.200000X2.200000*%
%ADD16R,5.800000X6.400000*%
%ADD17R,1.500000X1.780000*%
%ADD18O,3.500000X3.500000*%
%ADD19R,2.000000X2.000000*%
%ADD20O,2.000000X2.000000*%
%ADD21C,3.200000*%
G04 APERTURE END LIST*
D10*
G04 #@! TO.C,F1*
X208500000Y-141000000D03*
X186000000Y-141000000D03*
G04 #@! TD*
G04 #@! TO.C,F2*
X186000000Y-150750000D03*
X208500000Y-150750000D03*
G04 #@! TD*
G04 #@! TO.C,C2*
G36*
G01*
X109025000Y-149050000D02*
X109975000Y-149050000D01*
G75*
G02*
X110225000Y-149300000I0J-250000D01*
G01*
X110225000Y-149800000D01*
G75*
G02*
X109975000Y-150050000I-250000J0D01*
G01*
X109025000Y-150050000D01*
G75*
G02*
X108775000Y-149800000I0J250000D01*
G01*
X108775000Y-149300000D01*
G75*
G02*
X109025000Y-149050000I250000J0D01*
G01*
G37*
G36*
G01*
X109025000Y-150950000D02*
X109975000Y-150950000D01*
G75*
G02*
X110225000Y-151200000I0J-250000D01*
G01*
X110225000Y-151700000D01*
G75*
G02*
X109975000Y-151950000I-250000J0D01*
G01*
X109025000Y-151950000D01*
G75*
G02*
X108775000Y-151700000I0J250000D01*
G01*
X108775000Y-151200000D01*
G75*
G02*
X109025000Y-150950000I250000J0D01*
G01*
G37*
G04 #@! TD*
G04 #@! TO.C,C3*
G36*
G01*
X135225000Y-133200000D02*
X134275000Y-133200000D01*
G75*
G02*
X134025000Y-132950000I0J250000D01*
G01*
X134025000Y-132450000D01*
G75*
G02*
X134275000Y-132200000I250000J0D01*
G01*
X135225000Y-132200000D01*
G75*
G02*
X135475000Y-132450000I0J-250000D01*
G01*
X135475000Y-132950000D01*
G75*
G02*
X135225000Y-133200000I-250000J0D01*
G01*
G37*
G36*
G01*
X135225000Y-131300000D02*
X134275000Y-131300000D01*
G75*
G02*
X134025000Y-131050000I0J250000D01*
G01*
X134025000Y-130550000D01*
G75*
G02*
X134275000Y-130300000I250000J0D01*
G01*
X135225000Y-130300000D01*
G75*
G02*
X135475000Y-130550000I0J-250000D01*
G01*
X135475000Y-131050000D01*
G75*
G02*
X135225000Y-131300000I-250000J0D01*
G01*
G37*
G04 #@! TD*
G04 #@! TO.C,C1*
G36*
G01*
X121075000Y-150950000D02*
X122025000Y-150950000D01*
G75*
G02*
X122275000Y-151200000I0J-250000D01*
G01*
X122275000Y-151700000D01*
G75*
G02*
X122025000Y-151950000I-250000J0D01*
G01*
X121075000Y-151950000D01*
G75*
G02*
X120825000Y-151700000I0J250000D01*
G01*
X120825000Y-151200000D01*
G75*
G02*
X121075000Y-150950000I250000J0D01*
G01*
G37*
G36*
G01*
X121075000Y-149050000D02*
X122025000Y-149050000D01*
G75*
G02*
X122275000Y-149300000I0J-250000D01*
G01*
X122275000Y-149800000D01*
G75*
G02*
X122025000Y-150050000I-250000J0D01*
G01*
X121075000Y-150050000D01*
G75*
G02*
X120825000Y-149800000I0J250000D01*
G01*
X120825000Y-149300000D01*
G75*
G02*
X121075000Y-149050000I250000J0D01*
G01*
G37*
G04 #@! TD*
G04 #@! TO.C,C4*
G36*
G01*
X155775000Y-144050000D02*
X156725000Y-144050000D01*
G75*
G02*
X156975000Y-144300000I0J-250000D01*
G01*
X156975000Y-144800000D01*
G75*
G02*
X156725000Y-145050000I-250000J0D01*
G01*
X155775000Y-145050000D01*
G75*
G02*
X155525000Y-144800000I0J250000D01*
G01*
X155525000Y-144300000D01*
G75*
G02*
X155775000Y-144050000I250000J0D01*
G01*
G37*
G36*
G01*
X155775000Y-145950000D02*
X156725000Y-145950000D01*
G75*
G02*
X156975000Y-146200000I0J-250000D01*
G01*
X156975000Y-146700000D01*
G75*
G02*
X156725000Y-146950000I-250000J0D01*
G01*
X155775000Y-146950000D01*
G75*
G02*
X155525000Y-146700000I0J250000D01*
G01*
X155525000Y-146200000D01*
G75*
G02*
X155775000Y-145950000I250000J0D01*
G01*
G37*
G04 #@! TD*
G04 #@! TO.C,C5*
G36*
G01*
X135275000Y-144050000D02*
X136225000Y-144050000D01*
G75*
G02*
X136475000Y-144300000I0J-250000D01*
G01*
X136475000Y-144800000D01*
G75*
G02*
X136225000Y-145050000I-250000J0D01*
G01*
X135275000Y-145050000D01*
G75*
G02*
X135025000Y-144800000I0J250000D01*
G01*
X135025000Y-144300000D01*
G75*
G02*
X135275000Y-144050000I250000J0D01*
G01*
G37*
G36*
G01*
X135275000Y-145950000D02*
X136225000Y-145950000D01*
G75*
G02*
X136475000Y-146200000I0J-250000D01*
G01*
X136475000Y-146700000D01*
G75*
G02*
X136225000Y-146950000I-250000J0D01*
G01*
X135275000Y-146950000D01*
G75*
G02*
X135025000Y-146700000I0J250000D01*
G01*
X135025000Y-146200000D01*
G75*
G02*
X135275000Y-145950000I250000J0D01*
G01*
G37*
G04 #@! TD*
G04 #@! TO.C,C7*
G36*
G01*
X172800000Y-135725000D02*
X172800000Y-134775000D01*
G75*
G02*
X173050000Y-134525000I250000J0D01*
G01*
X173550000Y-134525000D01*
G75*
G02*
X173800000Y-134775000I0J-250000D01*
G01*
X173800000Y-135725000D01*
G75*
G02*
X173550000Y-135975000I-250000J0D01*
G01*
X173050000Y-135975000D01*
G75*
G02*
X172800000Y-135725000I0J250000D01*
G01*
G37*
G36*
G01*
X174700000Y-135725000D02*
X174700000Y-134775000D01*
G75*
G02*
X174950000Y-134525000I250000J0D01*
G01*
X175450000Y-134525000D01*
G75*
G02*
X175700000Y-134775000I0J-250000D01*
G01*
X175700000Y-135725000D01*
G75*
G02*
X175450000Y-135975000I-250000J0D01*
G01*
X174950000Y-135975000D01*
G75*
G02*
X174700000Y-135725000I0J250000D01*
G01*
G37*
G04 #@! TD*
G04 #@! TO.C,C8*
G36*
G01*
X177050000Y-135725000D02*
X177050000Y-134775000D01*
G75*
G02*
X177300000Y-134525000I250000J0D01*
G01*
X177800000Y-134525000D01*
G75*
G02*
X178050000Y-134775000I0J-250000D01*
G01*
X178050000Y-135725000D01*
G75*
G02*
X177800000Y-135975000I-250000J0D01*
G01*
X177300000Y-135975000D01*
G75*
G02*
X177050000Y-135725000I0J250000D01*
G01*
G37*
G36*
G01*
X178950000Y-135725000D02*
X178950000Y-134775000D01*
G75*
G02*
X179200000Y-134525000I250000J0D01*
G01*
X179700000Y-134525000D01*
G75*
G02*
X179950000Y-134775000I0J-250000D01*
G01*
X179950000Y-135725000D01*
G75*
G02*
X179700000Y-135975000I-250000J0D01*
G01*
X179200000Y-135975000D01*
G75*
G02*
X178950000Y-135725000I0J250000D01*
G01*
G37*
G04 #@! TD*
D11*
G04 #@! TO.C,J3*
X116250000Y-128250000D03*
X118790000Y-128250000D03*
X121330000Y-128250000D03*
X123870000Y-128250000D03*
X126410000Y-128250000D03*
X128950000Y-128250000D03*
D12*
X131490000Y-128250000D03*
G04 #@! TD*
G04 #@! TO.C,J4*
X130250000Y-132500000D03*
D11*
X127710000Y-132500000D03*
X125170000Y-132500000D03*
X122630000Y-132500000D03*
X120090000Y-132500000D03*
X117550000Y-132500000D03*
X115010000Y-132500000D03*
G04 #@! TD*
D12*
G04 #@! TO.C,J9*
X159000000Y-152750000D03*
D11*
X156460000Y-152750000D03*
X153920000Y-152750000D03*
X151380000Y-152750000D03*
G04 #@! TD*
G04 #@! TO.C,R1*
G36*
G01*
X146950002Y-145100000D02*
X146049998Y-145100000D01*
G75*
G02*
X145800000Y-144850002I0J249998D01*
G01*
X145800000Y-144324998D01*
G75*
G02*
X146049998Y-144075000I249998J0D01*
G01*
X146950002Y-144075000D01*
G75*
G02*
X147200000Y-144324998I0J-249998D01*
G01*
X147200000Y-144850002D01*
G75*
G02*
X146950002Y-145100000I-249998J0D01*
G01*
G37*
G36*
G01*
X146950002Y-146925000D02*
X146049998Y-146925000D01*
G75*
G02*
X145800000Y-146675002I0J249998D01*
G01*
X145800000Y-146149998D01*
G75*
G02*
X146049998Y-145900000I249998J0D01*
G01*
X146950002Y-145900000D01*
G75*
G02*
X147200000Y-146149998I0J-249998D01*
G01*
X147200000Y-146675002D01*
G75*
G02*
X146950002Y-146925000I-249998J0D01*
G01*
G37*
G04 #@! TD*
G04 #@! TO.C,R2*
G36*
G01*
X150200002Y-145100000D02*
X149299998Y-145100000D01*
G75*
G02*
X149050000Y-144850002I0J249998D01*
G01*
X149050000Y-144324998D01*
G75*
G02*
X149299998Y-144075000I249998J0D01*
G01*
X150200002Y-144075000D01*
G75*
G02*
X150450000Y-144324998I0J-249998D01*
G01*
X150450000Y-144850002D01*
G75*
G02*
X150200002Y-145100000I-249998J0D01*
G01*
G37*
G36*
G01*
X150200002Y-146925000D02*
X149299998Y-146925000D01*
G75*
G02*
X149050000Y-146675002I0J249998D01*
G01*
X149050000Y-146149998D01*
G75*
G02*
X149299998Y-145900000I249998J0D01*
G01*
X150200002Y-145900000D01*
G75*
G02*
X150450000Y-146149998I0J-249998D01*
G01*
X150450000Y-146675002D01*
G75*
G02*
X150200002Y-146925000I-249998J0D01*
G01*
G37*
G04 #@! TD*
G04 #@! TO.C,R3*
G36*
G01*
X153450002Y-146925000D02*
X152549998Y-146925000D01*
G75*
G02*
X152300000Y-146675002I0J249998D01*
G01*
X152300000Y-146149998D01*
G75*
G02*
X152549998Y-145900000I249998J0D01*
G01*
X153450002Y-145900000D01*
G75*
G02*
X153700000Y-146149998I0J-249998D01*
G01*
X153700000Y-146675002D01*
G75*
G02*
X153450002Y-146925000I-249998J0D01*
G01*
G37*
G36*
G01*
X153450002Y-145100000D02*
X152549998Y-145100000D01*
G75*
G02*
X152300000Y-144850002I0J249998D01*
G01*
X152300000Y-144324998D01*
G75*
G02*
X152549998Y-144075000I249998J0D01*
G01*
X153450002Y-144075000D01*
G75*
G02*
X153700000Y-144324998I0J-249998D01*
G01*
X153700000Y-144850002D01*
G75*
G02*
X153450002Y-145100000I-249998J0D01*
G01*
G37*
G04 #@! TD*
G04 #@! TO.C,R13*
G36*
G01*
X138299998Y-145900000D02*
X139200002Y-145900000D01*
G75*
G02*
X139450000Y-146149998I0J-249998D01*
G01*
X139450000Y-146675002D01*
G75*
G02*
X139200002Y-146925000I-249998J0D01*
G01*
X138299998Y-146925000D01*
G75*
G02*
X138050000Y-146675002I0J249998D01*
G01*
X138050000Y-146149998D01*
G75*
G02*
X138299998Y-145900000I249998J0D01*
G01*
G37*
G36*
G01*
X138299998Y-144075000D02*
X139200002Y-144075000D01*
G75*
G02*
X139450000Y-144324998I0J-249998D01*
G01*
X139450000Y-144850002D01*
G75*
G02*
X139200002Y-145100000I-249998J0D01*
G01*
X138299998Y-145100000D01*
G75*
G02*
X138050000Y-144850002I0J249998D01*
G01*
X138050000Y-144324998D01*
G75*
G02*
X138299998Y-144075000I249998J0D01*
G01*
G37*
G04 #@! TD*
G04 #@! TO.C,R4*
G36*
G01*
X150200002Y-142925000D02*
X149299998Y-142925000D01*
G75*
G02*
X149050000Y-142675002I0J249998D01*
G01*
X149050000Y-142149998D01*
G75*
G02*
X149299998Y-141900000I249998J0D01*
G01*
X150200002Y-141900000D01*
G75*
G02*
X150450000Y-142149998I0J-249998D01*
G01*
X150450000Y-142675002D01*
G75*
G02*
X150200002Y-142925000I-249998J0D01*
G01*
G37*
G36*
G01*
X150200002Y-141100000D02*
X149299998Y-141100000D01*
G75*
G02*
X149050000Y-140850002I0J249998D01*
G01*
X149050000Y-140324998D01*
G75*
G02*
X149299998Y-140075000I249998J0D01*
G01*
X150200002Y-140075000D01*
G75*
G02*
X150450000Y-140324998I0J-249998D01*
G01*
X150450000Y-140850002D01*
G75*
G02*
X150200002Y-141100000I-249998J0D01*
G01*
G37*
G04 #@! TD*
G04 #@! TO.C,R5*
G36*
G01*
X153450002Y-142925000D02*
X152549998Y-142925000D01*
G75*
G02*
X152300000Y-142675002I0J249998D01*
G01*
X152300000Y-142149998D01*
G75*
G02*
X152549998Y-141900000I249998J0D01*
G01*
X153450002Y-141900000D01*
G75*
G02*
X153700000Y-142149998I0J-249998D01*
G01*
X153700000Y-142675002D01*
G75*
G02*
X153450002Y-142925000I-249998J0D01*
G01*
G37*
G36*
G01*
X153450002Y-141100000D02*
X152549998Y-141100000D01*
G75*
G02*
X152300000Y-140850002I0J249998D01*
G01*
X152300000Y-140324998D01*
G75*
G02*
X152549998Y-140075000I249998J0D01*
G01*
X153450002Y-140075000D01*
G75*
G02*
X153700000Y-140324998I0J-249998D01*
G01*
X153700000Y-140850002D01*
G75*
G02*
X153450002Y-141100000I-249998J0D01*
G01*
G37*
G04 #@! TD*
G04 #@! TO.C,R6*
G36*
G01*
X156700002Y-141100000D02*
X155799998Y-141100000D01*
G75*
G02*
X155550000Y-140850002I0J249998D01*
G01*
X155550000Y-140324998D01*
G75*
G02*
X155799998Y-140075000I249998J0D01*
G01*
X156700002Y-140075000D01*
G75*
G02*
X156950000Y-140324998I0J-249998D01*
G01*
X156950000Y-140850002D01*
G75*
G02*
X156700002Y-141100000I-249998J0D01*
G01*
G37*
G36*
G01*
X156700002Y-142925000D02*
X155799998Y-142925000D01*
G75*
G02*
X155550000Y-142675002I0J249998D01*
G01*
X155550000Y-142149998D01*
G75*
G02*
X155799998Y-141900000I249998J0D01*
G01*
X156700002Y-141900000D01*
G75*
G02*
X156950000Y-142149998I0J-249998D01*
G01*
X156950000Y-142675002D01*
G75*
G02*
X156700002Y-142925000I-249998J0D01*
G01*
G37*
G04 #@! TD*
G04 #@! TO.C,R11*
G36*
G01*
X141075000Y-145450002D02*
X141075000Y-144549998D01*
G75*
G02*
X141324998Y-144300000I249998J0D01*
G01*
X141850002Y-144300000D01*
G75*
G02*
X142100000Y-144549998I0J-249998D01*
G01*
X142100000Y-145450002D01*
G75*
G02*
X141850002Y-145700000I-249998J0D01*
G01*
X141324998Y-145700000D01*
G75*
G02*
X141075000Y-145450002I0J249998D01*
G01*
G37*
G36*
G01*
X142900000Y-145450002D02*
X142900000Y-144549998D01*
G75*
G02*
X143149998Y-144300000I249998J0D01*
G01*
X143675002Y-144300000D01*
G75*
G02*
X143925000Y-144549998I0J-249998D01*
G01*
X143925000Y-145450002D01*
G75*
G02*
X143675002Y-145700000I-249998J0D01*
G01*
X143149998Y-145700000D01*
G75*
G02*
X142900000Y-145450002I0J249998D01*
G01*
G37*
G04 #@! TD*
G04 #@! TO.C,R7*
G36*
G01*
X159049998Y-141900000D02*
X159950002Y-141900000D01*
G75*
G02*
X160200000Y-142149998I0J-249998D01*
G01*
X160200000Y-142675002D01*
G75*
G02*
X159950002Y-142925000I-249998J0D01*
G01*
X159049998Y-142925000D01*
G75*
G02*
X158800000Y-142675002I0J249998D01*
G01*
X158800000Y-142149998D01*
G75*
G02*
X159049998Y-141900000I249998J0D01*
G01*
G37*
G36*
G01*
X159049998Y-140075000D02*
X159950002Y-140075000D01*
G75*
G02*
X160200000Y-140324998I0J-249998D01*
G01*
X160200000Y-140850002D01*
G75*
G02*
X159950002Y-141100000I-249998J0D01*
G01*
X159049998Y-141100000D01*
G75*
G02*
X158800000Y-140850002I0J249998D01*
G01*
X158800000Y-140324998D01*
G75*
G02*
X159049998Y-140075000I249998J0D01*
G01*
G37*
G04 #@! TD*
G04 #@! TO.C,R8*
G36*
G01*
X146950002Y-142925000D02*
X146049998Y-142925000D01*
G75*
G02*
X145800000Y-142675002I0J249998D01*
G01*
X145800000Y-142149998D01*
G75*
G02*
X146049998Y-141900000I249998J0D01*
G01*
X146950002Y-141900000D01*
G75*
G02*
X147200000Y-142149998I0J-249998D01*
G01*
X147200000Y-142675002D01*
G75*
G02*
X146950002Y-142925000I-249998J0D01*
G01*
G37*
G36*
G01*
X146950002Y-141100000D02*
X146049998Y-141100000D01*
G75*
G02*
X145800000Y-140850002I0J249998D01*
G01*
X145800000Y-140324998D01*
G75*
G02*
X146049998Y-140075000I249998J0D01*
G01*
X146950002Y-140075000D01*
G75*
G02*
X147200000Y-140324998I0J-249998D01*
G01*
X147200000Y-140850002D01*
G75*
G02*
X146950002Y-141100000I-249998J0D01*
G01*
G37*
G04 #@! TD*
G04 #@! TO.C,R9*
G36*
G01*
X146950002Y-135600000D02*
X146049998Y-135600000D01*
G75*
G02*
X145800000Y-135350002I0J249998D01*
G01*
X145800000Y-134824998D01*
G75*
G02*
X146049998Y-134575000I249998J0D01*
G01*
X146950002Y-134575000D01*
G75*
G02*
X147200000Y-134824998I0J-249998D01*
G01*
X147200000Y-135350002D01*
G75*
G02*
X146950002Y-135600000I-249998J0D01*
G01*
G37*
G36*
G01*
X146950002Y-137425000D02*
X146049998Y-137425000D01*
G75*
G02*
X145800000Y-137175002I0J249998D01*
G01*
X145800000Y-136649998D01*
G75*
G02*
X146049998Y-136400000I249998J0D01*
G01*
X146950002Y-136400000D01*
G75*
G02*
X147200000Y-136649998I0J-249998D01*
G01*
X147200000Y-137175002D01*
G75*
G02*
X146950002Y-137425000I-249998J0D01*
G01*
G37*
G04 #@! TD*
G04 #@! TO.C,R10*
G36*
G01*
X143700002Y-141100000D02*
X142799998Y-141100000D01*
G75*
G02*
X142550000Y-140850002I0J249998D01*
G01*
X142550000Y-140324998D01*
G75*
G02*
X142799998Y-140075000I249998J0D01*
G01*
X143700002Y-140075000D01*
G75*
G02*
X143950000Y-140324998I0J-249998D01*
G01*
X143950000Y-140850002D01*
G75*
G02*
X143700002Y-141100000I-249998J0D01*
G01*
G37*
G36*
G01*
X143700002Y-142925000D02*
X142799998Y-142925000D01*
G75*
G02*
X142550000Y-142675002I0J249998D01*
G01*
X142550000Y-142149998D01*
G75*
G02*
X142799998Y-141900000I249998J0D01*
G01*
X143700002Y-141900000D01*
G75*
G02*
X143950000Y-142149998I0J-249998D01*
G01*
X143950000Y-142675002D01*
G75*
G02*
X143700002Y-142925000I-249998J0D01*
G01*
G37*
G04 #@! TD*
G04 #@! TO.C,R15*
G36*
G01*
X168975000Y-130375002D02*
X168975000Y-129124998D01*
G75*
G02*
X169224998Y-128875000I249998J0D01*
G01*
X169850002Y-128875000D01*
G75*
G02*
X170100000Y-129124998I0J-249998D01*
G01*
X170100000Y-130375002D01*
G75*
G02*
X169850002Y-130625000I-249998J0D01*
G01*
X169224998Y-130625000D01*
G75*
G02*
X168975000Y-130375002I0J249998D01*
G01*
G37*
G36*
G01*
X171900000Y-130375002D02*
X171900000Y-129124998D01*
G75*
G02*
X172149998Y-128875000I249998J0D01*
G01*
X172775002Y-128875000D01*
G75*
G02*
X173025000Y-129124998I0J-249998D01*
G01*
X173025000Y-130375002D01*
G75*
G02*
X172775002Y-130625000I-249998J0D01*
G01*
X172149998Y-130625000D01*
G75*
G02*
X171900000Y-130375002I0J249998D01*
G01*
G37*
G04 #@! TD*
G04 #@! TO.C,R16*
G36*
G01*
X211950002Y-146350000D02*
X211049998Y-146350000D01*
G75*
G02*
X210800000Y-146100002I0J249998D01*
G01*
X210800000Y-145574998D01*
G75*
G02*
X211049998Y-145325000I249998J0D01*
G01*
X211950002Y-145325000D01*
G75*
G02*
X212200000Y-145574998I0J-249998D01*
G01*
X212200000Y-146100002D01*
G75*
G02*
X211950002Y-146350000I-249998J0D01*
G01*
G37*
G36*
G01*
X211950002Y-148175000D02*
X211049998Y-148175000D01*
G75*
G02*
X210800000Y-147925002I0J249998D01*
G01*
X210800000Y-147399998D01*
G75*
G02*
X211049998Y-147150000I249998J0D01*
G01*
X211950002Y-147150000D01*
G75*
G02*
X212200000Y-147399998I0J-249998D01*
G01*
X212200000Y-147925002D01*
G75*
G02*
X211950002Y-148175000I-249998J0D01*
G01*
G37*
G04 #@! TD*
G04 #@! TO.C,R17*
G36*
G01*
X205350000Y-146549998D02*
X205350000Y-147450002D01*
G75*
G02*
X205100002Y-147700000I-249998J0D01*
G01*
X204574998Y-147700000D01*
G75*
G02*
X204325000Y-147450002I0J249998D01*
G01*
X204325000Y-146549998D01*
G75*
G02*
X204574998Y-146300000I249998J0D01*
G01*
X205100002Y-146300000D01*
G75*
G02*
X205350000Y-146549998I0J-249998D01*
G01*
G37*
G36*
G01*
X207175000Y-146549998D02*
X207175000Y-147450002D01*
G75*
G02*
X206925002Y-147700000I-249998J0D01*
G01*
X206399998Y-147700000D01*
G75*
G02*
X206150000Y-147450002I0J249998D01*
G01*
X206150000Y-146549998D01*
G75*
G02*
X206399998Y-146300000I249998J0D01*
G01*
X206925002Y-146300000D01*
G75*
G02*
X207175000Y-146549998I0J-249998D01*
G01*
G37*
G04 #@! TD*
G04 #@! TO.C,R19*
G36*
G01*
X209450002Y-146350000D02*
X208549998Y-146350000D01*
G75*
G02*
X208300000Y-146100002I0J249998D01*
G01*
X208300000Y-145574998D01*
G75*
G02*
X208549998Y-145325000I249998J0D01*
G01*
X209450002Y-145325000D01*
G75*
G02*
X209700000Y-145574998I0J-249998D01*
G01*
X209700000Y-146100002D01*
G75*
G02*
X209450002Y-146350000I-249998J0D01*
G01*
G37*
G36*
G01*
X209450002Y-148175000D02*
X208549998Y-148175000D01*
G75*
G02*
X208300000Y-147925002I0J249998D01*
G01*
X208300000Y-147399998D01*
G75*
G02*
X208549998Y-147150000I249998J0D01*
G01*
X209450002Y-147150000D01*
G75*
G02*
X209700000Y-147399998I0J-249998D01*
G01*
X209700000Y-147925002D01*
G75*
G02*
X209450002Y-148175000I-249998J0D01*
G01*
G37*
G04 #@! TD*
G04 #@! TO.C,R20*
G36*
G01*
X205350000Y-144299998D02*
X205350000Y-145200002D01*
G75*
G02*
X205100002Y-145450000I-249998J0D01*
G01*
X204574998Y-145450000D01*
G75*
G02*
X204325000Y-145200002I0J249998D01*
G01*
X204325000Y-144299998D01*
G75*
G02*
X204574998Y-144050000I249998J0D01*
G01*
X205100002Y-144050000D01*
G75*
G02*
X205350000Y-144299998I0J-249998D01*
G01*
G37*
G36*
G01*
X207175000Y-144299998D02*
X207175000Y-145200002D01*
G75*
G02*
X206925002Y-145450000I-249998J0D01*
G01*
X206399998Y-145450000D01*
G75*
G02*
X206150000Y-145200002I0J249998D01*
G01*
X206150000Y-144299998D01*
G75*
G02*
X206399998Y-144050000I249998J0D01*
G01*
X206925002Y-144050000D01*
G75*
G02*
X207175000Y-144299998I0J-249998D01*
G01*
G37*
G04 #@! TD*
G04 #@! TO.C,R18*
G36*
G01*
X172825000Y-132950002D02*
X172825000Y-132049998D01*
G75*
G02*
X173074998Y-131800000I249998J0D01*
G01*
X173600002Y-131800000D01*
G75*
G02*
X173850000Y-132049998I0J-249998D01*
G01*
X173850000Y-132950002D01*
G75*
G02*
X173600002Y-133200000I-249998J0D01*
G01*
X173074998Y-133200000D01*
G75*
G02*
X172825000Y-132950002I0J249998D01*
G01*
G37*
G36*
G01*
X174650000Y-132950002D02*
X174650000Y-132049998D01*
G75*
G02*
X174899998Y-131800000I249998J0D01*
G01*
X175425002Y-131800000D01*
G75*
G02*
X175675000Y-132049998I0J-249998D01*
G01*
X175675000Y-132950002D01*
G75*
G02*
X175425002Y-133200000I-249998J0D01*
G01*
X174899998Y-133200000D01*
G75*
G02*
X174650000Y-132950002I0J249998D01*
G01*
G37*
G04 #@! TD*
G04 #@! TO.C,R21*
G36*
G01*
X173799998Y-138900000D02*
X174700002Y-138900000D01*
G75*
G02*
X174950000Y-139149998I0J-249998D01*
G01*
X174950000Y-139675002D01*
G75*
G02*
X174700002Y-139925000I-249998J0D01*
G01*
X173799998Y-139925000D01*
G75*
G02*
X173550000Y-139675002I0J249998D01*
G01*
X173550000Y-139149998D01*
G75*
G02*
X173799998Y-138900000I249998J0D01*
G01*
G37*
G36*
G01*
X173799998Y-137075000D02*
X174700002Y-137075000D01*
G75*
G02*
X174950000Y-137324998I0J-249998D01*
G01*
X174950000Y-137850002D01*
G75*
G02*
X174700002Y-138100000I-249998J0D01*
G01*
X173799998Y-138100000D01*
G75*
G02*
X173550000Y-137850002I0J249998D01*
G01*
X173550000Y-137324998D01*
G75*
G02*
X173799998Y-137075000I249998J0D01*
G01*
G37*
G04 #@! TD*
G04 #@! TO.C,R22*
G36*
G01*
X178900000Y-138450002D02*
X178900000Y-137549998D01*
G75*
G02*
X179149998Y-137300000I249998J0D01*
G01*
X179675002Y-137300000D01*
G75*
G02*
X179925000Y-137549998I0J-249998D01*
G01*
X179925000Y-138450002D01*
G75*
G02*
X179675002Y-138700000I-249998J0D01*
G01*
X179149998Y-138700000D01*
G75*
G02*
X178900000Y-138450002I0J249998D01*
G01*
G37*
G36*
G01*
X177075000Y-138450002D02*
X177075000Y-137549998D01*
G75*
G02*
X177324998Y-137300000I249998J0D01*
G01*
X177850002Y-137300000D01*
G75*
G02*
X178100000Y-137549998I0J-249998D01*
G01*
X178100000Y-138450002D01*
G75*
G02*
X177850002Y-138700000I-249998J0D01*
G01*
X177324998Y-138700000D01*
G75*
G02*
X177075000Y-138450002I0J249998D01*
G01*
G37*
G04 #@! TD*
G04 #@! TO.C,R23*
G36*
G01*
X171049998Y-137575000D02*
X171950002Y-137575000D01*
G75*
G02*
X172200000Y-137824998I0J-249998D01*
G01*
X172200000Y-138350002D01*
G75*
G02*
X171950002Y-138600000I-249998J0D01*
G01*
X171049998Y-138600000D01*
G75*
G02*
X170800000Y-138350002I0J249998D01*
G01*
X170800000Y-137824998D01*
G75*
G02*
X171049998Y-137575000I249998J0D01*
G01*
G37*
G36*
G01*
X171049998Y-139400000D02*
X171950002Y-139400000D01*
G75*
G02*
X172200000Y-139649998I0J-249998D01*
G01*
X172200000Y-140175002D01*
G75*
G02*
X171950002Y-140425000I-249998J0D01*
G01*
X171049998Y-140425000D01*
G75*
G02*
X170800000Y-140175002I0J249998D01*
G01*
X170800000Y-139649998D01*
G75*
G02*
X171049998Y-139400000I249998J0D01*
G01*
G37*
G04 #@! TD*
G04 #@! TO.C,R24*
G36*
G01*
X168299998Y-139400000D02*
X169200002Y-139400000D01*
G75*
G02*
X169450000Y-139649998I0J-249998D01*
G01*
X169450000Y-140175002D01*
G75*
G02*
X169200002Y-140425000I-249998J0D01*
G01*
X168299998Y-140425000D01*
G75*
G02*
X168050000Y-140175002I0J249998D01*
G01*
X168050000Y-139649998D01*
G75*
G02*
X168299998Y-139400000I249998J0D01*
G01*
G37*
G36*
G01*
X168299998Y-137575000D02*
X169200002Y-137575000D01*
G75*
G02*
X169450000Y-137824998I0J-249998D01*
G01*
X169450000Y-138350002D01*
G75*
G02*
X169200002Y-138600000I-249998J0D01*
G01*
X168299998Y-138600000D01*
G75*
G02*
X168050000Y-138350002I0J249998D01*
G01*
X168050000Y-137824998D01*
G75*
G02*
X168299998Y-137575000I249998J0D01*
G01*
G37*
G04 #@! TD*
G04 #@! TO.C,U1*
G36*
G01*
X159750000Y-128765000D02*
X159750000Y-128465000D01*
G75*
G02*
X159900000Y-128315000I150000J0D01*
G01*
X161225000Y-128315000D01*
G75*
G02*
X161375000Y-128465000I0J-150000D01*
G01*
X161375000Y-128765000D01*
G75*
G02*
X161225000Y-128915000I-150000J0D01*
G01*
X159900000Y-128915000D01*
G75*
G02*
X159750000Y-128765000I0J150000D01*
G01*
G37*
G36*
G01*
X159750000Y-130035000D02*
X159750000Y-129735000D01*
G75*
G02*
X159900000Y-129585000I150000J0D01*
G01*
X161225000Y-129585000D01*
G75*
G02*
X161375000Y-129735000I0J-150000D01*
G01*
X161375000Y-130035000D01*
G75*
G02*
X161225000Y-130185000I-150000J0D01*
G01*
X159900000Y-130185000D01*
G75*
G02*
X159750000Y-130035000I0J150000D01*
G01*
G37*
G36*
G01*
X166125000Y-130035000D02*
X166125000Y-129735000D01*
G75*
G02*
X166275000Y-129585000I150000J0D01*
G01*
X167600000Y-129585000D01*
G75*
G02*
X167750000Y-129735000I0J-150000D01*
G01*
X167750000Y-130035000D01*
G75*
G02*
X167600000Y-130185000I-150000J0D01*
G01*
X166275000Y-130185000D01*
G75*
G02*
X166125000Y-130035000I0J150000D01*
G01*
G37*
G36*
G01*
X166125000Y-128765000D02*
X166125000Y-128465000D01*
G75*
G02*
X166275000Y-128315000I150000J0D01*
G01*
X167600000Y-128315000D01*
G75*
G02*
X167750000Y-128465000I0J-150000D01*
G01*
X167750000Y-128765000D01*
G75*
G02*
X167600000Y-128915000I-150000J0D01*
G01*
X166275000Y-128915000D01*
G75*
G02*
X166125000Y-128765000I0J150000D01*
G01*
G37*
G04 #@! TD*
D13*
G04 #@! TO.C,U2*
X175500000Y-128250000D03*
X176450000Y-130250000D03*
X174550000Y-130250000D03*
G04 #@! TD*
G04 #@! TO.C,D1*
G36*
G01*
X146300000Y-129543750D02*
X146300000Y-130456250D01*
G75*
G02*
X146056250Y-130700000I-243750J0D01*
G01*
X145568750Y-130700000D01*
G75*
G02*
X145325000Y-130456250I0J243750D01*
G01*
X145325000Y-129543750D01*
G75*
G02*
X145568750Y-129300000I243750J0D01*
G01*
X146056250Y-129300000D01*
G75*
G02*
X146300000Y-129543750I0J-243750D01*
G01*
G37*
G36*
G01*
X148175000Y-129543750D02*
X148175000Y-130456250D01*
G75*
G02*
X147931250Y-130700000I-243750J0D01*
G01*
X147443750Y-130700000D01*
G75*
G02*
X147200000Y-130456250I0J243750D01*
G01*
X147200000Y-129543750D01*
G75*
G02*
X147443750Y-129300000I243750J0D01*
G01*
X147931250Y-129300000D01*
G75*
G02*
X148175000Y-129543750I0J-243750D01*
G01*
G37*
G04 #@! TD*
G04 #@! TO.C,D2*
G36*
G01*
X163456250Y-141175000D02*
X162543750Y-141175000D01*
G75*
G02*
X162300000Y-140931250I0J243750D01*
G01*
X162300000Y-140443750D01*
G75*
G02*
X162543750Y-140200000I243750J0D01*
G01*
X163456250Y-140200000D01*
G75*
G02*
X163700000Y-140443750I0J-243750D01*
G01*
X163700000Y-140931250D01*
G75*
G02*
X163456250Y-141175000I-243750J0D01*
G01*
G37*
G36*
G01*
X163456250Y-139300000D02*
X162543750Y-139300000D01*
G75*
G02*
X162300000Y-139056250I0J243750D01*
G01*
X162300000Y-138568750D01*
G75*
G02*
X162543750Y-138325000I243750J0D01*
G01*
X163456250Y-138325000D01*
G75*
G02*
X163700000Y-138568750I0J-243750D01*
G01*
X163700000Y-139056250D01*
G75*
G02*
X163456250Y-139300000I-243750J0D01*
G01*
G37*
G04 #@! TD*
G04 #@! TO.C,J1*
G36*
G01*
X149350000Y-137550000D02*
X149350000Y-134450000D01*
G75*
G02*
X149600000Y-134200000I250000J0D01*
G01*
X150900000Y-134200000D01*
G75*
G02*
X151150000Y-134450000I0J-250000D01*
G01*
X151150000Y-137550000D01*
G75*
G02*
X150900000Y-137800000I-250000J0D01*
G01*
X149600000Y-137800000D01*
G75*
G02*
X149350000Y-137550000I0J250000D01*
G01*
G37*
D14*
X153750000Y-136000000D03*
X157250000Y-136000000D03*
G04 #@! TD*
D12*
G04 #@! TO.C,J12*
X145500000Y-152000000D03*
D11*
X148040000Y-152000000D03*
G04 #@! TD*
D12*
G04 #@! TO.C,J5*
X138750000Y-135750000D03*
D11*
X138750000Y-133210000D03*
X141290000Y-135750000D03*
X141290000Y-133210000D03*
X143830000Y-135750000D03*
X143830000Y-133210000D03*
G04 #@! TD*
G04 #@! TO.C,J10*
G36*
G01*
X201900000Y-135950000D02*
X201900000Y-139050000D01*
G75*
G02*
X201650000Y-139300000I-250000J0D01*
G01*
X200350000Y-139300000D01*
G75*
G02*
X200100000Y-139050000I0J250000D01*
G01*
X200100000Y-135950000D01*
G75*
G02*
X200350000Y-135700000I250000J0D01*
G01*
X201650000Y-135700000D01*
G75*
G02*
X201900000Y-135950000I0J-250000D01*
G01*
G37*
D14*
X197500000Y-137500000D03*
X194000000Y-137500000D03*
X190500000Y-137500000D03*
G04 #@! TD*
G04 #@! TO.C,J11*
G36*
G01*
X170350000Y-146550000D02*
X170350000Y-143450000D01*
G75*
G02*
X170600000Y-143200000I250000J0D01*
G01*
X171900000Y-143200000D01*
G75*
G02*
X172150000Y-143450000I0J-250000D01*
G01*
X172150000Y-146550000D01*
G75*
G02*
X171900000Y-146800000I-250000J0D01*
G01*
X170600000Y-146800000D01*
G75*
G02*
X170350000Y-146550000I0J250000D01*
G01*
G37*
X174750000Y-145000000D03*
X178250000Y-145000000D03*
X181750000Y-145000000D03*
G04 #@! TD*
G04 #@! TO.C,J13*
X201000000Y-145250000D03*
X197500000Y-145250000D03*
X194000000Y-145250000D03*
G36*
G01*
X189600000Y-146800000D02*
X189600000Y-143700000D01*
G75*
G02*
X189850000Y-143450000I250000J0D01*
G01*
X191150000Y-143450000D01*
G75*
G02*
X191400000Y-143700000I0J-250000D01*
G01*
X191400000Y-146800000D01*
G75*
G02*
X191150000Y-147050000I-250000J0D01*
G01*
X189850000Y-147050000D01*
G75*
G02*
X189600000Y-146800000I0J250000D01*
G01*
G37*
G04 #@! TD*
D15*
G04 #@! TO.C,Q1*
X187030000Y-128050000D03*
X182470000Y-128050000D03*
D16*
X184750000Y-134350000D03*
G04 #@! TD*
G04 #@! TO.C,R12*
G36*
G01*
X141850000Y-147799998D02*
X141850000Y-148700002D01*
G75*
G02*
X141600002Y-148950000I-249998J0D01*
G01*
X141074998Y-148950000D01*
G75*
G02*
X140825000Y-148700002I0J249998D01*
G01*
X140825000Y-147799998D01*
G75*
G02*
X141074998Y-147550000I249998J0D01*
G01*
X141600002Y-147550000D01*
G75*
G02*
X141850000Y-147799998I0J-249998D01*
G01*
G37*
G36*
G01*
X143675000Y-147799998D02*
X143675000Y-148700002D01*
G75*
G02*
X143425002Y-148950000I-249998J0D01*
G01*
X142899998Y-148950000D01*
G75*
G02*
X142650000Y-148700002I0J249998D01*
G01*
X142650000Y-147799998D01*
G75*
G02*
X142899998Y-147550000I249998J0D01*
G01*
X143425002Y-147550000D01*
G75*
G02*
X143675000Y-147799998I0J-249998D01*
G01*
G37*
G04 #@! TD*
G04 #@! TO.C,R14*
G36*
G01*
X159549998Y-144575000D02*
X160450002Y-144575000D01*
G75*
G02*
X160700000Y-144824998I0J-249998D01*
G01*
X160700000Y-145350002D01*
G75*
G02*
X160450002Y-145600000I-249998J0D01*
G01*
X159549998Y-145600000D01*
G75*
G02*
X159300000Y-145350002I0J249998D01*
G01*
X159300000Y-144824998D01*
G75*
G02*
X159549998Y-144575000I249998J0D01*
G01*
G37*
G36*
G01*
X159549998Y-146400000D02*
X160450002Y-146400000D01*
G75*
G02*
X160700000Y-146649998I0J-249998D01*
G01*
X160700000Y-147175002D01*
G75*
G02*
X160450002Y-147425000I-249998J0D01*
G01*
X159549998Y-147425000D01*
G75*
G02*
X159300000Y-147175002I0J249998D01*
G01*
X159300000Y-146649998D01*
G75*
G02*
X159549998Y-146400000I249998J0D01*
G01*
G37*
G04 #@! TD*
G04 #@! TO.C,R25*
G36*
G01*
X178900000Y-133200002D02*
X178900000Y-132299998D01*
G75*
G02*
X179149998Y-132050000I249998J0D01*
G01*
X179675002Y-132050000D01*
G75*
G02*
X179925000Y-132299998I0J-249998D01*
G01*
X179925000Y-133200002D01*
G75*
G02*
X179675002Y-133450000I-249998J0D01*
G01*
X179149998Y-133450000D01*
G75*
G02*
X178900000Y-133200002I0J249998D01*
G01*
G37*
G36*
G01*
X177075000Y-133200002D02*
X177075000Y-132299998D01*
G75*
G02*
X177324998Y-132050000I249998J0D01*
G01*
X177850002Y-132050000D01*
G75*
G02*
X178100000Y-132299998I0J-249998D01*
G01*
X178100000Y-133200002D01*
G75*
G02*
X177850002Y-133450000I-249998J0D01*
G01*
X177324998Y-133450000D01*
G75*
G02*
X177075000Y-133200002I0J249998D01*
G01*
G37*
G04 #@! TD*
G04 #@! TO.C,R26*
G36*
G01*
X179450002Y-130925000D02*
X178549998Y-130925000D01*
G75*
G02*
X178300000Y-130675002I0J249998D01*
G01*
X178300000Y-130149998D01*
G75*
G02*
X178549998Y-129900000I249998J0D01*
G01*
X179450002Y-129900000D01*
G75*
G02*
X179700000Y-130149998I0J-249998D01*
G01*
X179700000Y-130675002D01*
G75*
G02*
X179450002Y-130925000I-249998J0D01*
G01*
G37*
G36*
G01*
X179450002Y-129100000D02*
X178549998Y-129100000D01*
G75*
G02*
X178300000Y-128850002I0J249998D01*
G01*
X178300000Y-128324998D01*
G75*
G02*
X178549998Y-128075000I249998J0D01*
G01*
X179450002Y-128075000D01*
G75*
G02*
X179700000Y-128324998I0J-249998D01*
G01*
X179700000Y-128850002D01*
G75*
G02*
X179450002Y-129100000I-249998J0D01*
G01*
G37*
G04 #@! TD*
D17*
G04 #@! TO.C,U3*
X160985000Y-132980000D03*
X170515000Y-135520000D03*
X160985000Y-135520000D03*
X170515000Y-132980000D03*
G04 #@! TD*
G04 #@! TO.C,C6*
G36*
G01*
X162525000Y-142300000D02*
X163475000Y-142300000D01*
G75*
G02*
X163725000Y-142550000I0J-250000D01*
G01*
X163725000Y-143050000D01*
G75*
G02*
X163475000Y-143300000I-250000J0D01*
G01*
X162525000Y-143300000D01*
G75*
G02*
X162275000Y-143050000I0J250000D01*
G01*
X162275000Y-142550000D01*
G75*
G02*
X162525000Y-142300000I250000J0D01*
G01*
G37*
G36*
G01*
X162525000Y-144200000D02*
X163475000Y-144200000D01*
G75*
G02*
X163725000Y-144450000I0J-250000D01*
G01*
X163725000Y-144950000D01*
G75*
G02*
X163475000Y-145200000I-250000J0D01*
G01*
X162525000Y-145200000D01*
G75*
G02*
X162275000Y-144950000I0J250000D01*
G01*
X162275000Y-144450000D01*
G75*
G02*
X162525000Y-144200000I250000J0D01*
G01*
G37*
G04 #@! TD*
D12*
G04 #@! TO.C,J8*
X161750000Y-152750000D03*
D11*
X164290000Y-152750000D03*
G04 #@! TD*
D12*
G04 #@! TO.C,J7*
X142250000Y-153250000D03*
D11*
X139710000Y-153250000D03*
X137170000Y-153250000D03*
X134630000Y-153250000D03*
X132090000Y-153250000D03*
X129550000Y-153250000D03*
X127010000Y-153250000D03*
X124470000Y-153250000D03*
G04 #@! TD*
D12*
G04 #@! TO.C,J6*
X98880000Y-145750000D03*
D11*
X101420000Y-145750000D03*
X103960000Y-145750000D03*
X106500000Y-145750000D03*
G04 #@! TD*
D18*
G04 #@! TO.C,D3*
X231980000Y-145760000D03*
D19*
X214570000Y-143220000D03*
D20*
X214570000Y-148300000D03*
G04 #@! TD*
D21*
G04 #@! TO.C,H1*
X242500000Y-145750000D03*
G04 #@! TD*
G04 #@! TO.C,C9*
G36*
G01*
X109525000Y-140050000D02*
X110475000Y-140050000D01*
G75*
G02*
X110725000Y-140300000I0J-250000D01*
G01*
X110725000Y-140800000D01*
G75*
G02*
X110475000Y-141050000I-250000J0D01*
G01*
X109525000Y-141050000D01*
G75*
G02*
X109275000Y-140800000I0J250000D01*
G01*
X109275000Y-140300000D01*
G75*
G02*
X109525000Y-140050000I250000J0D01*
G01*
G37*
G36*
G01*
X109525000Y-141950000D02*
X110475000Y-141950000D01*
G75*
G02*
X110725000Y-142200000I0J-250000D01*
G01*
X110725000Y-142700000D01*
G75*
G02*
X110475000Y-142950000I-250000J0D01*
G01*
X109525000Y-142950000D01*
G75*
G02*
X109275000Y-142700000I0J250000D01*
G01*
X109275000Y-142200000D01*
G75*
G02*
X109525000Y-141950000I250000J0D01*
G01*
G37*
G04 #@! TD*
G04 #@! TO.C,C10*
G36*
G01*
X106525000Y-141950000D02*
X107475000Y-141950000D01*
G75*
G02*
X107725000Y-142200000I0J-250000D01*
G01*
X107725000Y-142700000D01*
G75*
G02*
X107475000Y-142950000I-250000J0D01*
G01*
X106525000Y-142950000D01*
G75*
G02*
X106275000Y-142700000I0J250000D01*
G01*
X106275000Y-142200000D01*
G75*
G02*
X106525000Y-141950000I250000J0D01*
G01*
G37*
G36*
G01*
X106525000Y-140050000D02*
X107475000Y-140050000D01*
G75*
G02*
X107725000Y-140300000I0J-250000D01*
G01*
X107725000Y-140800000D01*
G75*
G02*
X107475000Y-141050000I-250000J0D01*
G01*
X106525000Y-141050000D01*
G75*
G02*
X106275000Y-140800000I0J250000D01*
G01*
X106275000Y-140300000D01*
G75*
G02*
X106525000Y-140050000I250000J0D01*
G01*
G37*
G04 #@! TD*
G04 #@! TO.C,C11*
G36*
G01*
X103525000Y-140050000D02*
X104475000Y-140050000D01*
G75*
G02*
X104725000Y-140300000I0J-250000D01*
G01*
X104725000Y-140800000D01*
G75*
G02*
X104475000Y-141050000I-250000J0D01*
G01*
X103525000Y-141050000D01*
G75*
G02*
X103275000Y-140800000I0J250000D01*
G01*
X103275000Y-140300000D01*
G75*
G02*
X103525000Y-140050000I250000J0D01*
G01*
G37*
G36*
G01*
X103525000Y-141950000D02*
X104475000Y-141950000D01*
G75*
G02*
X104725000Y-142200000I0J-250000D01*
G01*
X104725000Y-142700000D01*
G75*
G02*
X104475000Y-142950000I-250000J0D01*
G01*
X103525000Y-142950000D01*
G75*
G02*
X103275000Y-142700000I0J250000D01*
G01*
X103275000Y-142200000D01*
G75*
G02*
X103525000Y-141950000I250000J0D01*
G01*
G37*
G04 #@! TD*
D12*
G04 #@! TO.C,J2*
X106500000Y-149000000D03*
D11*
X103960000Y-149000000D03*
X101420000Y-149000000D03*
X98880000Y-149000000D03*
G04 #@! TD*
M02*
