G04 #@! TF.GenerationSoftware,KiCad,Pcbnew,(5.1.9-0-10_14)*
G04 #@! TF.CreationDate,2023-02-12T16:19:48-05:00*
G04 #@! TF.ProjectId,LiBCM-Daughterboard,4c694243-4d2d-4446-9175-676874657262,A*
G04 #@! TF.SameCoordinates,Original*
G04 #@! TF.FileFunction,Copper,L1,Top*
G04 #@! TF.FilePolarity,Positive*
%FSLAX46Y46*%
G04 Gerber Fmt 4.6, Leading zero omitted, Abs format (unit mm)*
G04 Created by KiCad (PCBNEW (5.1.9-0-10_14)) date 2023-02-12 16:19:48*
%MOMM*%
%LPD*%
G01*
G04 APERTURE LIST*
G04 #@! TA.AperFunction,NonConductor*
%ADD10C,0.300000*%
G04 #@! TD*
G04 #@! TA.AperFunction,ComponentPad*
%ADD11C,3.000000*%
G04 #@! TD*
G04 #@! TA.AperFunction,ComponentPad*
%ADD12O,1.700000X1.700000*%
G04 #@! TD*
G04 #@! TA.AperFunction,ComponentPad*
%ADD13R,1.700000X1.700000*%
G04 #@! TD*
G04 #@! TA.AperFunction,SMDPad,CuDef*
%ADD14R,0.800000X0.900000*%
G04 #@! TD*
G04 #@! TA.AperFunction,ComponentPad*
%ADD15O,1.800000X3.600000*%
G04 #@! TD*
G04 #@! TA.AperFunction,SMDPad,CuDef*
%ADD16R,1.200000X2.200000*%
G04 #@! TD*
G04 #@! TA.AperFunction,SMDPad,CuDef*
%ADD17R,5.800000X6.400000*%
G04 #@! TD*
G04 #@! TA.AperFunction,SMDPad,CuDef*
%ADD18R,1.500000X1.780000*%
G04 #@! TD*
G04 #@! TA.AperFunction,ComponentPad*
%ADD19R,2.000000X2.000000*%
G04 #@! TD*
G04 #@! TA.AperFunction,ComponentPad*
%ADD20O,2.000000X2.000000*%
G04 #@! TD*
G04 #@! TA.AperFunction,ViaPad*
%ADD21C,0.600000*%
G04 #@! TD*
G04 #@! TA.AperFunction,Conductor*
%ADD22C,1.000000*%
G04 #@! TD*
G04 #@! TA.AperFunction,Conductor*
%ADD23C,0.500000*%
G04 #@! TD*
G04 #@! TA.AperFunction,Conductor*
%ADD24C,1.500000*%
G04 #@! TD*
G04 #@! TA.AperFunction,Conductor*
%ADD25C,3.000000*%
G04 #@! TD*
G04 #@! TA.AperFunction,Conductor*
%ADD26C,0.250000*%
G04 #@! TD*
G04 #@! TA.AperFunction,Conductor*
%ADD27C,2.250000*%
G04 #@! TD*
G04 #@! TA.AperFunction,Conductor*
%ADD28C,1.750000*%
G04 #@! TD*
G04 #@! TA.AperFunction,Conductor*
%ADD29C,0.254000*%
G04 #@! TD*
G04 #@! TA.AperFunction,Conductor*
%ADD30C,0.100000*%
G04 #@! TD*
G04 APERTURE END LIST*
D10*
X258607142Y-151678571D02*
X258107142Y-150964285D01*
X257750000Y-151678571D02*
X257750000Y-150178571D01*
X258321428Y-150178571D01*
X258464285Y-150250000D01*
X258535714Y-150321428D01*
X258607142Y-150464285D01*
X258607142Y-150678571D01*
X258535714Y-150821428D01*
X258464285Y-150892857D01*
X258321428Y-150964285D01*
X257750000Y-150964285D01*
X259821428Y-151607142D02*
X259678571Y-151678571D01*
X259392857Y-151678571D01*
X259250000Y-151607142D01*
X259178571Y-151464285D01*
X259178571Y-150892857D01*
X259250000Y-150750000D01*
X259392857Y-150678571D01*
X259678571Y-150678571D01*
X259821428Y-150750000D01*
X259892857Y-150892857D01*
X259892857Y-151035714D01*
X259178571Y-151178571D01*
X260392857Y-150678571D02*
X260750000Y-151678571D01*
X261107142Y-150678571D01*
X261607142Y-151250000D02*
X262321428Y-151250000D01*
X261464285Y-151678571D02*
X261964285Y-150178571D01*
X262464285Y-151678571D01*
D11*
G04 #@! TO.P,F1,1*
G04 #@! TO.N,/HVDC_POS_BATT*
X208500000Y-141000000D03*
G04 #@! TO.P,F1,2*
G04 #@! TO.N,/HVDC_POS_AUX*
X186000000Y-141000000D03*
G04 #@! TD*
G04 #@! TO.P,F2,2*
G04 #@! TO.N,/GRID_POS*
X186000000Y-150750000D03*
G04 #@! TO.P,F2,1*
G04 #@! TO.N,/GRID_POS_FUSED*
X208500000Y-150750000D03*
G04 #@! TD*
G04 #@! TO.P,C2,1*
G04 #@! TO.N,+5V*
G04 #@! TA.AperFunction,SMDPad,CuDef*
G36*
G01*
X109025000Y-149050000D02*
X109975000Y-149050000D01*
G75*
G02*
X110225000Y-149300000I0J-250000D01*
G01*
X110225000Y-149800000D01*
G75*
G02*
X109975000Y-150050000I-250000J0D01*
G01*
X109025000Y-150050000D01*
G75*
G02*
X108775000Y-149800000I0J250000D01*
G01*
X108775000Y-149300000D01*
G75*
G02*
X109025000Y-149050000I250000J0D01*
G01*
G37*
G04 #@! TD.AperFunction*
G04 #@! TO.P,C2,2*
G04 #@! TO.N,GND*
G04 #@! TA.AperFunction,SMDPad,CuDef*
G36*
G01*
X109025000Y-150950000D02*
X109975000Y-150950000D01*
G75*
G02*
X110225000Y-151200000I0J-250000D01*
G01*
X110225000Y-151700000D01*
G75*
G02*
X109975000Y-151950000I-250000J0D01*
G01*
X109025000Y-151950000D01*
G75*
G02*
X108775000Y-151700000I0J250000D01*
G01*
X108775000Y-151200000D01*
G75*
G02*
X109025000Y-150950000I250000J0D01*
G01*
G37*
G04 #@! TD.AperFunction*
G04 #@! TD*
G04 #@! TO.P,C3,1*
G04 #@! TO.N,+5V*
G04 #@! TA.AperFunction,SMDPad,CuDef*
G36*
G01*
X135225000Y-133200000D02*
X134275000Y-133200000D01*
G75*
G02*
X134025000Y-132950000I0J250000D01*
G01*
X134025000Y-132450000D01*
G75*
G02*
X134275000Y-132200000I250000J0D01*
G01*
X135225000Y-132200000D01*
G75*
G02*
X135475000Y-132450000I0J-250000D01*
G01*
X135475000Y-132950000D01*
G75*
G02*
X135225000Y-133200000I-250000J0D01*
G01*
G37*
G04 #@! TD.AperFunction*
G04 #@! TO.P,C3,2*
G04 #@! TO.N,GND*
G04 #@! TA.AperFunction,SMDPad,CuDef*
G36*
G01*
X135225000Y-131300000D02*
X134275000Y-131300000D01*
G75*
G02*
X134025000Y-131050000I0J250000D01*
G01*
X134025000Y-130550000D01*
G75*
G02*
X134275000Y-130300000I250000J0D01*
G01*
X135225000Y-130300000D01*
G75*
G02*
X135475000Y-130550000I0J-250000D01*
G01*
X135475000Y-131050000D01*
G75*
G02*
X135225000Y-131300000I-250000J0D01*
G01*
G37*
G04 #@! TD.AperFunction*
G04 #@! TD*
G04 #@! TO.P,C1,2*
G04 #@! TO.N,GND*
G04 #@! TA.AperFunction,SMDPad,CuDef*
G36*
G01*
X121075000Y-150950000D02*
X122025000Y-150950000D01*
G75*
G02*
X122275000Y-151200000I0J-250000D01*
G01*
X122275000Y-151700000D01*
G75*
G02*
X122025000Y-151950000I-250000J0D01*
G01*
X121075000Y-151950000D01*
G75*
G02*
X120825000Y-151700000I0J250000D01*
G01*
X120825000Y-151200000D01*
G75*
G02*
X121075000Y-150950000I250000J0D01*
G01*
G37*
G04 #@! TD.AperFunction*
G04 #@! TO.P,C1,1*
G04 #@! TO.N,+5V*
G04 #@! TA.AperFunction,SMDPad,CuDef*
G36*
G01*
X121075000Y-149050000D02*
X122025000Y-149050000D01*
G75*
G02*
X122275000Y-149300000I0J-250000D01*
G01*
X122275000Y-149800000D01*
G75*
G02*
X122025000Y-150050000I-250000J0D01*
G01*
X121075000Y-150050000D01*
G75*
G02*
X120825000Y-149800000I0J250000D01*
G01*
X120825000Y-149300000D01*
G75*
G02*
X121075000Y-149050000I250000J0D01*
G01*
G37*
G04 #@! TD.AperFunction*
G04 #@! TD*
G04 #@! TO.P,C4,1*
G04 #@! TO.N,/TACH_SUM*
G04 #@! TA.AperFunction,SMDPad,CuDef*
G36*
G01*
X155775000Y-144050000D02*
X156725000Y-144050000D01*
G75*
G02*
X156975000Y-144300000I0J-250000D01*
G01*
X156975000Y-144800000D01*
G75*
G02*
X156725000Y-145050000I-250000J0D01*
G01*
X155775000Y-145050000D01*
G75*
G02*
X155525000Y-144800000I0J250000D01*
G01*
X155525000Y-144300000D01*
G75*
G02*
X155775000Y-144050000I250000J0D01*
G01*
G37*
G04 #@! TD.AperFunction*
G04 #@! TO.P,C4,2*
G04 #@! TO.N,GND*
G04 #@! TA.AperFunction,SMDPad,CuDef*
G36*
G01*
X155775000Y-145950000D02*
X156725000Y-145950000D01*
G75*
G02*
X156975000Y-146200000I0J-250000D01*
G01*
X156975000Y-146700000D01*
G75*
G02*
X156725000Y-146950000I-250000J0D01*
G01*
X155775000Y-146950000D01*
G75*
G02*
X155525000Y-146700000I0J250000D01*
G01*
X155525000Y-146200000D01*
G75*
G02*
X155775000Y-145950000I250000J0D01*
G01*
G37*
G04 #@! TD.AperFunction*
G04 #@! TD*
G04 #@! TO.P,C5,1*
G04 #@! TO.N,+5V*
G04 #@! TA.AperFunction,SMDPad,CuDef*
G36*
G01*
X135275000Y-144050000D02*
X136225000Y-144050000D01*
G75*
G02*
X136475000Y-144300000I0J-250000D01*
G01*
X136475000Y-144800000D01*
G75*
G02*
X136225000Y-145050000I-250000J0D01*
G01*
X135275000Y-145050000D01*
G75*
G02*
X135025000Y-144800000I0J250000D01*
G01*
X135025000Y-144300000D01*
G75*
G02*
X135275000Y-144050000I250000J0D01*
G01*
G37*
G04 #@! TD.AperFunction*
G04 #@! TO.P,C5,2*
G04 #@! TO.N,GND*
G04 #@! TA.AperFunction,SMDPad,CuDef*
G36*
G01*
X135275000Y-145950000D02*
X136225000Y-145950000D01*
G75*
G02*
X136475000Y-146200000I0J-250000D01*
G01*
X136475000Y-146700000D01*
G75*
G02*
X136225000Y-146950000I-250000J0D01*
G01*
X135275000Y-146950000D01*
G75*
G02*
X135025000Y-146700000I0J250000D01*
G01*
X135025000Y-146200000D01*
G75*
G02*
X135275000Y-145950000I250000J0D01*
G01*
G37*
G04 #@! TD.AperFunction*
G04 #@! TD*
G04 #@! TO.P,C7,1*
G04 #@! TO.N,/HVDC_5V_REF*
G04 #@! TA.AperFunction,SMDPad,CuDef*
G36*
G01*
X172800000Y-135725000D02*
X172800000Y-134775000D01*
G75*
G02*
X173050000Y-134525000I250000J0D01*
G01*
X173550000Y-134525000D01*
G75*
G02*
X173800000Y-134775000I0J-250000D01*
G01*
X173800000Y-135725000D01*
G75*
G02*
X173550000Y-135975000I-250000J0D01*
G01*
X173050000Y-135975000D01*
G75*
G02*
X172800000Y-135725000I0J250000D01*
G01*
G37*
G04 #@! TD.AperFunction*
G04 #@! TO.P,C7,2*
G04 #@! TO.N,GNDPWR*
G04 #@! TA.AperFunction,SMDPad,CuDef*
G36*
G01*
X174700000Y-135725000D02*
X174700000Y-134775000D01*
G75*
G02*
X174950000Y-134525000I250000J0D01*
G01*
X175450000Y-134525000D01*
G75*
G02*
X175700000Y-134775000I0J-250000D01*
G01*
X175700000Y-135725000D01*
G75*
G02*
X175450000Y-135975000I-250000J0D01*
G01*
X174950000Y-135975000D01*
G75*
G02*
X174700000Y-135725000I0J250000D01*
G01*
G37*
G04 #@! TD.AperFunction*
G04 #@! TD*
G04 #@! TO.P,C8,1*
G04 #@! TO.N,/CHARGER_CURRENT_LIMIT*
G04 #@! TA.AperFunction,SMDPad,CuDef*
G36*
G01*
X177050000Y-135725000D02*
X177050000Y-134775000D01*
G75*
G02*
X177300000Y-134525000I250000J0D01*
G01*
X177800000Y-134525000D01*
G75*
G02*
X178050000Y-134775000I0J-250000D01*
G01*
X178050000Y-135725000D01*
G75*
G02*
X177800000Y-135975000I-250000J0D01*
G01*
X177300000Y-135975000D01*
G75*
G02*
X177050000Y-135725000I0J250000D01*
G01*
G37*
G04 #@! TD.AperFunction*
G04 #@! TO.P,C8,2*
G04 #@! TO.N,GNDPWR*
G04 #@! TA.AperFunction,SMDPad,CuDef*
G36*
G01*
X178950000Y-135725000D02*
X178950000Y-134775000D01*
G75*
G02*
X179200000Y-134525000I250000J0D01*
G01*
X179700000Y-134525000D01*
G75*
G02*
X179950000Y-134775000I0J-250000D01*
G01*
X179950000Y-135725000D01*
G75*
G02*
X179700000Y-135975000I-250000J0D01*
G01*
X179200000Y-135975000D01*
G75*
G02*
X178950000Y-135725000I0J250000D01*
G01*
G37*
G04 #@! TD.AperFunction*
G04 #@! TD*
D12*
G04 #@! TO.P,J3,7*
G04 #@! TO.N,/CAN_INT*
X116250000Y-128250000D03*
G04 #@! TO.P,J3,6*
G04 #@! TO.N,/SCK*
X118790000Y-128250000D03*
G04 #@! TO.P,J3,5*
G04 #@! TO.N,/MOSI*
X121330000Y-128250000D03*
G04 #@! TO.P,J3,4*
G04 #@! TO.N,/MISO*
X123870000Y-128250000D03*
G04 #@! TO.P,J3,3*
G04 #@! TO.N,/CAN_CS*
X126410000Y-128250000D03*
G04 #@! TO.P,J3,2*
G04 #@! TO.N,GND*
X128950000Y-128250000D03*
D13*
G04 #@! TO.P,J3,1*
G04 #@! TO.N,+5V*
X131490000Y-128250000D03*
G04 #@! TD*
G04 #@! TO.P,J4,1*
G04 #@! TO.N,+5V*
X130250000Y-132500000D03*
D12*
G04 #@! TO.P,J4,2*
G04 #@! TO.N,N/C*
X127710000Y-132500000D03*
G04 #@! TO.P,J4,3*
G04 #@! TO.N,GND*
X125170000Y-132500000D03*
G04 #@! TO.P,J4,4*
G04 #@! TO.N,/SCK*
X122630000Y-132500000D03*
G04 #@! TO.P,J4,5*
G04 #@! TO.N,/MISO*
X120090000Y-132500000D03*
G04 #@! TO.P,J4,6*
G04 #@! TO.N,/MOSI*
X117550000Y-132500000D03*
G04 #@! TO.P,J4,7*
G04 #@! TO.N,/FLASH_CS*
X115010000Y-132500000D03*
G04 #@! TD*
D13*
G04 #@! TO.P,J9,1*
G04 #@! TO.N,/FAN_TACH*
X159000000Y-152750000D03*
D12*
G04 #@! TO.P,J9,2*
G04 #@! TO.N,/BUTTON||GRID_ILIM*
X156460000Y-152750000D03*
G04 #@! TO.P,J9,3*
G04 #@! TO.N,/HEATER_EN*
X153920000Y-152750000D03*
G04 #@! TO.P,J9,4*
G04 #@! TO.N,GND*
X151380000Y-152750000D03*
G04 #@! TD*
G04 #@! TO.P,R1,2*
G04 #@! TO.N,/TACH_1*
G04 #@! TA.AperFunction,SMDPad,CuDef*
G36*
G01*
X146950002Y-145100000D02*
X146049998Y-145100000D01*
G75*
G02*
X145800000Y-144850002I0J249998D01*
G01*
X145800000Y-144324998D01*
G75*
G02*
X146049998Y-144075000I249998J0D01*
G01*
X146950002Y-144075000D01*
G75*
G02*
X147200000Y-144324998I0J-249998D01*
G01*
X147200000Y-144850002D01*
G75*
G02*
X146950002Y-145100000I-249998J0D01*
G01*
G37*
G04 #@! TD.AperFunction*
G04 #@! TO.P,R1,1*
G04 #@! TO.N,+5V*
G04 #@! TA.AperFunction,SMDPad,CuDef*
G36*
G01*
X146950002Y-146925000D02*
X146049998Y-146925000D01*
G75*
G02*
X145800000Y-146675002I0J249998D01*
G01*
X145800000Y-146149998D01*
G75*
G02*
X146049998Y-145900000I249998J0D01*
G01*
X146950002Y-145900000D01*
G75*
G02*
X147200000Y-146149998I0J-249998D01*
G01*
X147200000Y-146675002D01*
G75*
G02*
X146950002Y-146925000I-249998J0D01*
G01*
G37*
G04 #@! TD.AperFunction*
G04 #@! TD*
G04 #@! TO.P,R2,2*
G04 #@! TO.N,/TACH_2*
G04 #@! TA.AperFunction,SMDPad,CuDef*
G36*
G01*
X150200002Y-145100000D02*
X149299998Y-145100000D01*
G75*
G02*
X149050000Y-144850002I0J249998D01*
G01*
X149050000Y-144324998D01*
G75*
G02*
X149299998Y-144075000I249998J0D01*
G01*
X150200002Y-144075000D01*
G75*
G02*
X150450000Y-144324998I0J-249998D01*
G01*
X150450000Y-144850002D01*
G75*
G02*
X150200002Y-145100000I-249998J0D01*
G01*
G37*
G04 #@! TD.AperFunction*
G04 #@! TO.P,R2,1*
G04 #@! TO.N,+5V*
G04 #@! TA.AperFunction,SMDPad,CuDef*
G36*
G01*
X150200002Y-146925000D02*
X149299998Y-146925000D01*
G75*
G02*
X149050000Y-146675002I0J249998D01*
G01*
X149050000Y-146149998D01*
G75*
G02*
X149299998Y-145900000I249998J0D01*
G01*
X150200002Y-145900000D01*
G75*
G02*
X150450000Y-146149998I0J-249998D01*
G01*
X150450000Y-146675002D01*
G75*
G02*
X150200002Y-146925000I-249998J0D01*
G01*
G37*
G04 #@! TD.AperFunction*
G04 #@! TD*
G04 #@! TO.P,R3,1*
G04 #@! TO.N,+5V*
G04 #@! TA.AperFunction,SMDPad,CuDef*
G36*
G01*
X153450002Y-146925000D02*
X152549998Y-146925000D01*
G75*
G02*
X152300000Y-146675002I0J249998D01*
G01*
X152300000Y-146149998D01*
G75*
G02*
X152549998Y-145900000I249998J0D01*
G01*
X153450002Y-145900000D01*
G75*
G02*
X153700000Y-146149998I0J-249998D01*
G01*
X153700000Y-146675002D01*
G75*
G02*
X153450002Y-146925000I-249998J0D01*
G01*
G37*
G04 #@! TD.AperFunction*
G04 #@! TO.P,R3,2*
G04 #@! TO.N,/TACH_3*
G04 #@! TA.AperFunction,SMDPad,CuDef*
G36*
G01*
X153450002Y-145100000D02*
X152549998Y-145100000D01*
G75*
G02*
X152300000Y-144850002I0J249998D01*
G01*
X152300000Y-144324998D01*
G75*
G02*
X152549998Y-144075000I249998J0D01*
G01*
X153450002Y-144075000D01*
G75*
G02*
X153700000Y-144324998I0J-249998D01*
G01*
X153700000Y-144850002D01*
G75*
G02*
X153450002Y-145100000I-249998J0D01*
G01*
G37*
G04 #@! TD.AperFunction*
G04 #@! TD*
G04 #@! TO.P,R13,2*
G04 #@! TO.N,/BUTTON*
G04 #@! TA.AperFunction,SMDPad,CuDef*
G36*
G01*
X138299998Y-145900000D02*
X139200002Y-145900000D01*
G75*
G02*
X139450000Y-146149998I0J-249998D01*
G01*
X139450000Y-146675002D01*
G75*
G02*
X139200002Y-146925000I-249998J0D01*
G01*
X138299998Y-146925000D01*
G75*
G02*
X138050000Y-146675002I0J249998D01*
G01*
X138050000Y-146149998D01*
G75*
G02*
X138299998Y-145900000I249998J0D01*
G01*
G37*
G04 #@! TD.AperFunction*
G04 #@! TO.P,R13,1*
G04 #@! TO.N,+5V*
G04 #@! TA.AperFunction,SMDPad,CuDef*
G36*
G01*
X138299998Y-144075000D02*
X139200002Y-144075000D01*
G75*
G02*
X139450000Y-144324998I0J-249998D01*
G01*
X139450000Y-144850002D01*
G75*
G02*
X139200002Y-145100000I-249998J0D01*
G01*
X138299998Y-145100000D01*
G75*
G02*
X138050000Y-144850002I0J249998D01*
G01*
X138050000Y-144324998D01*
G75*
G02*
X138299998Y-144075000I249998J0D01*
G01*
G37*
G04 #@! TD.AperFunction*
G04 #@! TD*
G04 #@! TO.P,R4,1*
G04 #@! TO.N,/TACH_1*
G04 #@! TA.AperFunction,SMDPad,CuDef*
G36*
G01*
X150200002Y-142925000D02*
X149299998Y-142925000D01*
G75*
G02*
X149050000Y-142675002I0J249998D01*
G01*
X149050000Y-142149998D01*
G75*
G02*
X149299998Y-141900000I249998J0D01*
G01*
X150200002Y-141900000D01*
G75*
G02*
X150450000Y-142149998I0J-249998D01*
G01*
X150450000Y-142675002D01*
G75*
G02*
X150200002Y-142925000I-249998J0D01*
G01*
G37*
G04 #@! TD.AperFunction*
G04 #@! TO.P,R4,2*
G04 #@! TO.N,/TACH_SUM*
G04 #@! TA.AperFunction,SMDPad,CuDef*
G36*
G01*
X150200002Y-141100000D02*
X149299998Y-141100000D01*
G75*
G02*
X149050000Y-140850002I0J249998D01*
G01*
X149050000Y-140324998D01*
G75*
G02*
X149299998Y-140075000I249998J0D01*
G01*
X150200002Y-140075000D01*
G75*
G02*
X150450000Y-140324998I0J-249998D01*
G01*
X150450000Y-140850002D01*
G75*
G02*
X150200002Y-141100000I-249998J0D01*
G01*
G37*
G04 #@! TD.AperFunction*
G04 #@! TD*
G04 #@! TO.P,R5,1*
G04 #@! TO.N,/TACH_2*
G04 #@! TA.AperFunction,SMDPad,CuDef*
G36*
G01*
X153450002Y-142925000D02*
X152549998Y-142925000D01*
G75*
G02*
X152300000Y-142675002I0J249998D01*
G01*
X152300000Y-142149998D01*
G75*
G02*
X152549998Y-141900000I249998J0D01*
G01*
X153450002Y-141900000D01*
G75*
G02*
X153700000Y-142149998I0J-249998D01*
G01*
X153700000Y-142675002D01*
G75*
G02*
X153450002Y-142925000I-249998J0D01*
G01*
G37*
G04 #@! TD.AperFunction*
G04 #@! TO.P,R5,2*
G04 #@! TO.N,/TACH_SUM*
G04 #@! TA.AperFunction,SMDPad,CuDef*
G36*
G01*
X153450002Y-141100000D02*
X152549998Y-141100000D01*
G75*
G02*
X152300000Y-140850002I0J249998D01*
G01*
X152300000Y-140324998D01*
G75*
G02*
X152549998Y-140075000I249998J0D01*
G01*
X153450002Y-140075000D01*
G75*
G02*
X153700000Y-140324998I0J-249998D01*
G01*
X153700000Y-140850002D01*
G75*
G02*
X153450002Y-141100000I-249998J0D01*
G01*
G37*
G04 #@! TD.AperFunction*
G04 #@! TD*
G04 #@! TO.P,R6,2*
G04 #@! TO.N,/TACH_SUM*
G04 #@! TA.AperFunction,SMDPad,CuDef*
G36*
G01*
X156700002Y-141100000D02*
X155799998Y-141100000D01*
G75*
G02*
X155550000Y-140850002I0J249998D01*
G01*
X155550000Y-140324998D01*
G75*
G02*
X155799998Y-140075000I249998J0D01*
G01*
X156700002Y-140075000D01*
G75*
G02*
X156950000Y-140324998I0J-249998D01*
G01*
X156950000Y-140850002D01*
G75*
G02*
X156700002Y-141100000I-249998J0D01*
G01*
G37*
G04 #@! TD.AperFunction*
G04 #@! TO.P,R6,1*
G04 #@! TO.N,/TACH_3*
G04 #@! TA.AperFunction,SMDPad,CuDef*
G36*
G01*
X156700002Y-142925000D02*
X155799998Y-142925000D01*
G75*
G02*
X155550000Y-142675002I0J249998D01*
G01*
X155550000Y-142149998D01*
G75*
G02*
X155799998Y-141900000I249998J0D01*
G01*
X156700002Y-141900000D01*
G75*
G02*
X156950000Y-142149998I0J-249998D01*
G01*
X156950000Y-142675002D01*
G75*
G02*
X156700002Y-142925000I-249998J0D01*
G01*
G37*
G04 #@! TD.AperFunction*
G04 #@! TD*
G04 #@! TO.P,R11,1*
G04 #@! TO.N,/ILIM_JOIN*
G04 #@! TA.AperFunction,SMDPad,CuDef*
G36*
G01*
X141075000Y-145450002D02*
X141075000Y-144549998D01*
G75*
G02*
X141324998Y-144300000I249998J0D01*
G01*
X141850002Y-144300000D01*
G75*
G02*
X142100000Y-144549998I0J-249998D01*
G01*
X142100000Y-145450002D01*
G75*
G02*
X141850002Y-145700000I-249998J0D01*
G01*
X141324998Y-145700000D01*
G75*
G02*
X141075000Y-145450002I0J249998D01*
G01*
G37*
G04 #@! TD.AperFunction*
G04 #@! TO.P,R11,2*
G04 #@! TO.N,/BUTTON||GRID_ILIM*
G04 #@! TA.AperFunction,SMDPad,CuDef*
G36*
G01*
X142900000Y-145450002D02*
X142900000Y-144549998D01*
G75*
G02*
X143149998Y-144300000I249998J0D01*
G01*
X143675002Y-144300000D01*
G75*
G02*
X143925000Y-144549998I0J-249998D01*
G01*
X143925000Y-145450002D01*
G75*
G02*
X143675002Y-145700000I-249998J0D01*
G01*
X143149998Y-145700000D01*
G75*
G02*
X142900000Y-145450002I0J249998D01*
G01*
G37*
G04 #@! TD.AperFunction*
G04 #@! TD*
G04 #@! TO.P,R7,2*
G04 #@! TO.N,/FAN_TACH*
G04 #@! TA.AperFunction,SMDPad,CuDef*
G36*
G01*
X159049998Y-141900000D02*
X159950002Y-141900000D01*
G75*
G02*
X160200000Y-142149998I0J-249998D01*
G01*
X160200000Y-142675002D01*
G75*
G02*
X159950002Y-142925000I-249998J0D01*
G01*
X159049998Y-142925000D01*
G75*
G02*
X158800000Y-142675002I0J249998D01*
G01*
X158800000Y-142149998D01*
G75*
G02*
X159049998Y-141900000I249998J0D01*
G01*
G37*
G04 #@! TD.AperFunction*
G04 #@! TO.P,R7,1*
G04 #@! TO.N,/TACH_SUM*
G04 #@! TA.AperFunction,SMDPad,CuDef*
G36*
G01*
X159049998Y-140075000D02*
X159950002Y-140075000D01*
G75*
G02*
X160200000Y-140324998I0J-249998D01*
G01*
X160200000Y-140850002D01*
G75*
G02*
X159950002Y-141100000I-249998J0D01*
G01*
X159049998Y-141100000D01*
G75*
G02*
X158800000Y-140850002I0J249998D01*
G01*
X158800000Y-140324998D01*
G75*
G02*
X159049998Y-140075000I249998J0D01*
G01*
G37*
G04 #@! TD.AperFunction*
G04 #@! TD*
G04 #@! TO.P,R8,1*
G04 #@! TO.N,/HEATER_EN*
G04 #@! TA.AperFunction,SMDPad,CuDef*
G36*
G01*
X146950002Y-142925000D02*
X146049998Y-142925000D01*
G75*
G02*
X145800000Y-142675002I0J249998D01*
G01*
X145800000Y-142149998D01*
G75*
G02*
X146049998Y-141900000I249998J0D01*
G01*
X146950002Y-141900000D01*
G75*
G02*
X147200000Y-142149998I0J-249998D01*
G01*
X147200000Y-142675002D01*
G75*
G02*
X146950002Y-142925000I-249998J0D01*
G01*
G37*
G04 #@! TD.AperFunction*
G04 #@! TO.P,R8,2*
G04 #@! TO.N,/HEAD_L1*
G04 #@! TA.AperFunction,SMDPad,CuDef*
G36*
G01*
X146950002Y-141100000D02*
X146049998Y-141100000D01*
G75*
G02*
X145800000Y-140850002I0J249998D01*
G01*
X145800000Y-140324998D01*
G75*
G02*
X146049998Y-140075000I249998J0D01*
G01*
X146950002Y-140075000D01*
G75*
G02*
X147200000Y-140324998I0J-249998D01*
G01*
X147200000Y-140850002D01*
G75*
G02*
X146950002Y-141100000I-249998J0D01*
G01*
G37*
G04 #@! TD.AperFunction*
G04 #@! TD*
G04 #@! TO.P,R9,2*
G04 #@! TO.N,/LEDp*
G04 #@! TA.AperFunction,SMDPad,CuDef*
G36*
G01*
X146950002Y-135600000D02*
X146049998Y-135600000D01*
G75*
G02*
X145800000Y-135350002I0J249998D01*
G01*
X145800000Y-134824998D01*
G75*
G02*
X146049998Y-134575000I249998J0D01*
G01*
X146950002Y-134575000D01*
G75*
G02*
X147200000Y-134824998I0J-249998D01*
G01*
X147200000Y-135350002D01*
G75*
G02*
X146950002Y-135600000I-249998J0D01*
G01*
G37*
G04 #@! TD.AperFunction*
G04 #@! TO.P,R9,1*
G04 #@! TO.N,/HEAD_L1*
G04 #@! TA.AperFunction,SMDPad,CuDef*
G36*
G01*
X146950002Y-137425000D02*
X146049998Y-137425000D01*
G75*
G02*
X145800000Y-137175002I0J249998D01*
G01*
X145800000Y-136649998D01*
G75*
G02*
X146049998Y-136400000I249998J0D01*
G01*
X146950002Y-136400000D01*
G75*
G02*
X147200000Y-136649998I0J-249998D01*
G01*
X147200000Y-137175002D01*
G75*
G02*
X146950002Y-137425000I-249998J0D01*
G01*
G37*
G04 #@! TD.AperFunction*
G04 #@! TD*
G04 #@! TO.P,R10,2*
G04 #@! TO.N,/HEAD_L1*
G04 #@! TA.AperFunction,SMDPad,CuDef*
G36*
G01*
X143700002Y-141100000D02*
X142799998Y-141100000D01*
G75*
G02*
X142550000Y-140850002I0J249998D01*
G01*
X142550000Y-140324998D01*
G75*
G02*
X142799998Y-140075000I249998J0D01*
G01*
X143700002Y-140075000D01*
G75*
G02*
X143950000Y-140324998I0J-249998D01*
G01*
X143950000Y-140850002D01*
G75*
G02*
X143700002Y-141100000I-249998J0D01*
G01*
G37*
G04 #@! TD.AperFunction*
G04 #@! TO.P,R10,1*
G04 #@! TO.N,/HEATER_EN*
G04 #@! TA.AperFunction,SMDPad,CuDef*
G36*
G01*
X143700002Y-142925000D02*
X142799998Y-142925000D01*
G75*
G02*
X142550000Y-142675002I0J249998D01*
G01*
X142550000Y-142149998D01*
G75*
G02*
X142799998Y-141900000I249998J0D01*
G01*
X143700002Y-141900000D01*
G75*
G02*
X143950000Y-142149998I0J-249998D01*
G01*
X143950000Y-142675002D01*
G75*
G02*
X143700002Y-142925000I-249998J0D01*
G01*
G37*
G04 #@! TD.AperFunction*
G04 #@! TD*
G04 #@! TO.P,R15,1*
G04 #@! TO.N,/Q1_GATE*
G04 #@! TA.AperFunction,SMDPad,CuDef*
G36*
G01*
X168975000Y-130375002D02*
X168975000Y-129124998D01*
G75*
G02*
X169224998Y-128875000I249998J0D01*
G01*
X169850002Y-128875000D01*
G75*
G02*
X170100000Y-129124998I0J-249998D01*
G01*
X170100000Y-130375002D01*
G75*
G02*
X169850002Y-130625000I-249998J0D01*
G01*
X169224998Y-130625000D01*
G75*
G02*
X168975000Y-130375002I0J249998D01*
G01*
G37*
G04 #@! TD.AperFunction*
G04 #@! TO.P,R15,2*
G04 #@! TO.N,GNDPWR*
G04 #@! TA.AperFunction,SMDPad,CuDef*
G36*
G01*
X171900000Y-130375002D02*
X171900000Y-129124998D01*
G75*
G02*
X172149998Y-128875000I249998J0D01*
G01*
X172775002Y-128875000D01*
G75*
G02*
X173025000Y-129124998I0J-249998D01*
G01*
X173025000Y-130375002D01*
G75*
G02*
X172775002Y-130625000I-249998J0D01*
G01*
X172149998Y-130625000D01*
G75*
G02*
X171900000Y-130375002I0J249998D01*
G01*
G37*
G04 #@! TD.AperFunction*
G04 #@! TD*
G04 #@! TO.P,R16,2*
G04 #@! TO.N,/DIV*
G04 #@! TA.AperFunction,SMDPad,CuDef*
G36*
G01*
X211950002Y-146350000D02*
X211049998Y-146350000D01*
G75*
G02*
X210800000Y-146100002I0J249998D01*
G01*
X210800000Y-145574998D01*
G75*
G02*
X211049998Y-145325000I249998J0D01*
G01*
X211950002Y-145325000D01*
G75*
G02*
X212200000Y-145574998I0J-249998D01*
G01*
X212200000Y-146100002D01*
G75*
G02*
X211950002Y-146350000I-249998J0D01*
G01*
G37*
G04 #@! TD.AperFunction*
G04 #@! TO.P,R16,1*
G04 #@! TO.N,/GRID_POS_FUSED*
G04 #@! TA.AperFunction,SMDPad,CuDef*
G36*
G01*
X211950002Y-148175000D02*
X211049998Y-148175000D01*
G75*
G02*
X210800000Y-147925002I0J249998D01*
G01*
X210800000Y-147399998D01*
G75*
G02*
X211049998Y-147150000I249998J0D01*
G01*
X211950002Y-147150000D01*
G75*
G02*
X212200000Y-147399998I0J-249998D01*
G01*
X212200000Y-147925002D01*
G75*
G02*
X211950002Y-148175000I-249998J0D01*
G01*
G37*
G04 #@! TD.AperFunction*
G04 #@! TD*
G04 #@! TO.P,R17,2*
G04 #@! TO.N,/HVDC_5V_REF*
G04 #@! TA.AperFunction,SMDPad,CuDef*
G36*
G01*
X205350000Y-146549998D02*
X205350000Y-147450002D01*
G75*
G02*
X205100002Y-147700000I-249998J0D01*
G01*
X204574998Y-147700000D01*
G75*
G02*
X204325000Y-147450002I0J249998D01*
G01*
X204325000Y-146549998D01*
G75*
G02*
X204574998Y-146300000I249998J0D01*
G01*
X205100002Y-146300000D01*
G75*
G02*
X205350000Y-146549998I0J-249998D01*
G01*
G37*
G04 #@! TD.AperFunction*
G04 #@! TO.P,R17,1*
G04 #@! TO.N,/DIV*
G04 #@! TA.AperFunction,SMDPad,CuDef*
G36*
G01*
X207175000Y-146549998D02*
X207175000Y-147450002D01*
G75*
G02*
X206925002Y-147700000I-249998J0D01*
G01*
X206399998Y-147700000D01*
G75*
G02*
X206150000Y-147450002I0J249998D01*
G01*
X206150000Y-146549998D01*
G75*
G02*
X206399998Y-146300000I249998J0D01*
G01*
X206925002Y-146300000D01*
G75*
G02*
X207175000Y-146549998I0J-249998D01*
G01*
G37*
G04 #@! TD.AperFunction*
G04 #@! TD*
G04 #@! TO.P,R19,2*
G04 #@! TO.N,/DIV*
G04 #@! TA.AperFunction,SMDPad,CuDef*
G36*
G01*
X209450002Y-146350000D02*
X208549998Y-146350000D01*
G75*
G02*
X208300000Y-146100002I0J249998D01*
G01*
X208300000Y-145574998D01*
G75*
G02*
X208549998Y-145325000I249998J0D01*
G01*
X209450002Y-145325000D01*
G75*
G02*
X209700000Y-145574998I0J-249998D01*
G01*
X209700000Y-146100002D01*
G75*
G02*
X209450002Y-146350000I-249998J0D01*
G01*
G37*
G04 #@! TD.AperFunction*
G04 #@! TO.P,R19,1*
G04 #@! TO.N,/GRID_POS_FUSED*
G04 #@! TA.AperFunction,SMDPad,CuDef*
G36*
G01*
X209450002Y-148175000D02*
X208549998Y-148175000D01*
G75*
G02*
X208300000Y-147925002I0J249998D01*
G01*
X208300000Y-147399998D01*
G75*
G02*
X208549998Y-147150000I249998J0D01*
G01*
X209450002Y-147150000D01*
G75*
G02*
X209700000Y-147399998I0J-249998D01*
G01*
X209700000Y-147925002D01*
G75*
G02*
X209450002Y-148175000I-249998J0D01*
G01*
G37*
G04 #@! TD.AperFunction*
G04 #@! TD*
G04 #@! TO.P,R20,2*
G04 #@! TO.N,/HVDC_5V_REF*
G04 #@! TA.AperFunction,SMDPad,CuDef*
G36*
G01*
X205350000Y-144299998D02*
X205350000Y-145200002D01*
G75*
G02*
X205100002Y-145450000I-249998J0D01*
G01*
X204574998Y-145450000D01*
G75*
G02*
X204325000Y-145200002I0J249998D01*
G01*
X204325000Y-144299998D01*
G75*
G02*
X204574998Y-144050000I249998J0D01*
G01*
X205100002Y-144050000D01*
G75*
G02*
X205350000Y-144299998I0J-249998D01*
G01*
G37*
G04 #@! TD.AperFunction*
G04 #@! TO.P,R20,1*
G04 #@! TO.N,/DIV*
G04 #@! TA.AperFunction,SMDPad,CuDef*
G36*
G01*
X207175000Y-144299998D02*
X207175000Y-145200002D01*
G75*
G02*
X206925002Y-145450000I-249998J0D01*
G01*
X206399998Y-145450000D01*
G75*
G02*
X206150000Y-145200002I0J249998D01*
G01*
X206150000Y-144299998D01*
G75*
G02*
X206399998Y-144050000I249998J0D01*
G01*
X206925002Y-144050000D01*
G75*
G02*
X207175000Y-144299998I0J-249998D01*
G01*
G37*
G04 #@! TD.AperFunction*
G04 #@! TD*
G04 #@! TO.P,R18,1*
G04 #@! TO.N,/HVDC_5V_REF*
G04 #@! TA.AperFunction,SMDPad,CuDef*
G36*
G01*
X172825000Y-132950002D02*
X172825000Y-132049998D01*
G75*
G02*
X173074998Y-131800000I249998J0D01*
G01*
X173600002Y-131800000D01*
G75*
G02*
X173850000Y-132049998I0J-249998D01*
G01*
X173850000Y-132950002D01*
G75*
G02*
X173600002Y-133200000I-249998J0D01*
G01*
X173074998Y-133200000D01*
G75*
G02*
X172825000Y-132950002I0J249998D01*
G01*
G37*
G04 #@! TD.AperFunction*
G04 #@! TO.P,R18,2*
G04 #@! TO.N,GNDPWR*
G04 #@! TA.AperFunction,SMDPad,CuDef*
G36*
G01*
X174650000Y-132950002D02*
X174650000Y-132049998D01*
G75*
G02*
X174899998Y-131800000I249998J0D01*
G01*
X175425002Y-131800000D01*
G75*
G02*
X175675000Y-132049998I0J-249998D01*
G01*
X175675000Y-132950002D01*
G75*
G02*
X175425002Y-133200000I-249998J0D01*
G01*
X174899998Y-133200000D01*
G75*
G02*
X174650000Y-132950002I0J249998D01*
G01*
G37*
G04 #@! TD.AperFunction*
G04 #@! TD*
G04 #@! TO.P,R21,2*
G04 #@! TO.N,/CHARGER_CURRENT_LIMIT*
G04 #@! TA.AperFunction,SMDPad,CuDef*
G36*
G01*
X173799998Y-138900000D02*
X174700002Y-138900000D01*
G75*
G02*
X174950000Y-139149998I0J-249998D01*
G01*
X174950000Y-139675002D01*
G75*
G02*
X174700002Y-139925000I-249998J0D01*
G01*
X173799998Y-139925000D01*
G75*
G02*
X173550000Y-139675002I0J249998D01*
G01*
X173550000Y-139149998D01*
G75*
G02*
X173799998Y-138900000I249998J0D01*
G01*
G37*
G04 #@! TD.AperFunction*
G04 #@! TO.P,R21,1*
G04 #@! TO.N,/HVDC_5V_REF*
G04 #@! TA.AperFunction,SMDPad,CuDef*
G36*
G01*
X173799998Y-137075000D02*
X174700002Y-137075000D01*
G75*
G02*
X174950000Y-137324998I0J-249998D01*
G01*
X174950000Y-137850002D01*
G75*
G02*
X174700002Y-138100000I-249998J0D01*
G01*
X173799998Y-138100000D01*
G75*
G02*
X173550000Y-137850002I0J249998D01*
G01*
X173550000Y-137324998D01*
G75*
G02*
X173799998Y-137075000I249998J0D01*
G01*
G37*
G04 #@! TD.AperFunction*
G04 #@! TD*
G04 #@! TO.P,R22,2*
G04 #@! TO.N,GNDPWR*
G04 #@! TA.AperFunction,SMDPad,CuDef*
G36*
G01*
X178900000Y-138450002D02*
X178900000Y-137549998D01*
G75*
G02*
X179149998Y-137300000I249998J0D01*
G01*
X179675002Y-137300000D01*
G75*
G02*
X179925000Y-137549998I0J-249998D01*
G01*
X179925000Y-138450002D01*
G75*
G02*
X179675002Y-138700000I-249998J0D01*
G01*
X179149998Y-138700000D01*
G75*
G02*
X178900000Y-138450002I0J249998D01*
G01*
G37*
G04 #@! TD.AperFunction*
G04 #@! TO.P,R22,1*
G04 #@! TO.N,/CHARGER_CURRENT_LIMIT*
G04 #@! TA.AperFunction,SMDPad,CuDef*
G36*
G01*
X177075000Y-138450002D02*
X177075000Y-137549998D01*
G75*
G02*
X177324998Y-137300000I249998J0D01*
G01*
X177850002Y-137300000D01*
G75*
G02*
X178100000Y-137549998I0J-249998D01*
G01*
X178100000Y-138450002D01*
G75*
G02*
X177850002Y-138700000I-249998J0D01*
G01*
X177324998Y-138700000D01*
G75*
G02*
X177075000Y-138450002I0J249998D01*
G01*
G37*
G04 #@! TD.AperFunction*
G04 #@! TD*
G04 #@! TO.P,R23,1*
G04 #@! TO.N,/HVDC_5V_REF*
G04 #@! TA.AperFunction,SMDPad,CuDef*
G36*
G01*
X171049998Y-137575000D02*
X171950002Y-137575000D01*
G75*
G02*
X172200000Y-137824998I0J-249998D01*
G01*
X172200000Y-138350002D01*
G75*
G02*
X171950002Y-138600000I-249998J0D01*
G01*
X171049998Y-138600000D01*
G75*
G02*
X170800000Y-138350002I0J249998D01*
G01*
X170800000Y-137824998D01*
G75*
G02*
X171049998Y-137575000I249998J0D01*
G01*
G37*
G04 #@! TD.AperFunction*
G04 #@! TO.P,R23,2*
G04 #@! TO.N,/CHARGER_CURRENT_LIMIT*
G04 #@! TA.AperFunction,SMDPad,CuDef*
G36*
G01*
X171049998Y-139400000D02*
X171950002Y-139400000D01*
G75*
G02*
X172200000Y-139649998I0J-249998D01*
G01*
X172200000Y-140175002D01*
G75*
G02*
X171950002Y-140425000I-249998J0D01*
G01*
X171049998Y-140425000D01*
G75*
G02*
X170800000Y-140175002I0J249998D01*
G01*
X170800000Y-139649998D01*
G75*
G02*
X171049998Y-139400000I249998J0D01*
G01*
G37*
G04 #@! TD.AperFunction*
G04 #@! TD*
G04 #@! TO.P,R24,2*
G04 #@! TO.N,/CHARGER_CURRENT_LIMIT*
G04 #@! TA.AperFunction,SMDPad,CuDef*
G36*
G01*
X168299998Y-139400000D02*
X169200002Y-139400000D01*
G75*
G02*
X169450000Y-139649998I0J-249998D01*
G01*
X169450000Y-140175002D01*
G75*
G02*
X169200002Y-140425000I-249998J0D01*
G01*
X168299998Y-140425000D01*
G75*
G02*
X168050000Y-140175002I0J249998D01*
G01*
X168050000Y-139649998D01*
G75*
G02*
X168299998Y-139400000I249998J0D01*
G01*
G37*
G04 #@! TD.AperFunction*
G04 #@! TO.P,R24,1*
G04 #@! TO.N,/HVDC_5V_REF*
G04 #@! TA.AperFunction,SMDPad,CuDef*
G36*
G01*
X168299998Y-137575000D02*
X169200002Y-137575000D01*
G75*
G02*
X169450000Y-137824998I0J-249998D01*
G01*
X169450000Y-138350002D01*
G75*
G02*
X169200002Y-138600000I-249998J0D01*
G01*
X168299998Y-138600000D01*
G75*
G02*
X168050000Y-138350002I0J249998D01*
G01*
X168050000Y-137824998D01*
G75*
G02*
X168299998Y-137575000I249998J0D01*
G01*
G37*
G04 #@! TD.AperFunction*
G04 #@! TD*
G04 #@! TO.P,U1,1*
G04 #@! TO.N,/LEDn*
G04 #@! TA.AperFunction,SMDPad,CuDef*
G36*
G01*
X159750000Y-128765000D02*
X159750000Y-128465000D01*
G75*
G02*
X159900000Y-128315000I150000J0D01*
G01*
X161225000Y-128315000D01*
G75*
G02*
X161375000Y-128465000I0J-150000D01*
G01*
X161375000Y-128765000D01*
G75*
G02*
X161225000Y-128915000I-150000J0D01*
G01*
X159900000Y-128915000D01*
G75*
G02*
X159750000Y-128765000I0J150000D01*
G01*
G37*
G04 #@! TD.AperFunction*
G04 #@! TO.P,U1,2*
G04 #@! TO.N,GND*
G04 #@! TA.AperFunction,SMDPad,CuDef*
G36*
G01*
X159750000Y-130035000D02*
X159750000Y-129735000D01*
G75*
G02*
X159900000Y-129585000I150000J0D01*
G01*
X161225000Y-129585000D01*
G75*
G02*
X161375000Y-129735000I0J-150000D01*
G01*
X161375000Y-130035000D01*
G75*
G02*
X161225000Y-130185000I-150000J0D01*
G01*
X159900000Y-130185000D01*
G75*
G02*
X159750000Y-130035000I0J150000D01*
G01*
G37*
G04 #@! TD.AperFunction*
G04 #@! TO.P,U1,3*
G04 #@! TO.N,GNDPWR*
G04 #@! TA.AperFunction,SMDPad,CuDef*
G36*
G01*
X166125000Y-130035000D02*
X166125000Y-129735000D01*
G75*
G02*
X166275000Y-129585000I150000J0D01*
G01*
X167600000Y-129585000D01*
G75*
G02*
X167750000Y-129735000I0J-150000D01*
G01*
X167750000Y-130035000D01*
G75*
G02*
X167600000Y-130185000I-150000J0D01*
G01*
X166275000Y-130185000D01*
G75*
G02*
X166125000Y-130035000I0J150000D01*
G01*
G37*
G04 #@! TD.AperFunction*
G04 #@! TO.P,U1,4*
G04 #@! TO.N,/Q1_GATE*
G04 #@! TA.AperFunction,SMDPad,CuDef*
G36*
G01*
X166125000Y-128765000D02*
X166125000Y-128465000D01*
G75*
G02*
X166275000Y-128315000I150000J0D01*
G01*
X167600000Y-128315000D01*
G75*
G02*
X167750000Y-128465000I0J-150000D01*
G01*
X167750000Y-128765000D01*
G75*
G02*
X167600000Y-128915000I-150000J0D01*
G01*
X166275000Y-128915000D01*
G75*
G02*
X166125000Y-128765000I0J150000D01*
G01*
G37*
G04 #@! TD.AperFunction*
G04 #@! TD*
D14*
G04 #@! TO.P,U2,3*
G04 #@! TO.N,N/C*
X175500000Y-128250000D03*
G04 #@! TO.P,U2,2*
G04 #@! TO.N,GNDPWR*
X176450000Y-130250000D03*
G04 #@! TO.P,U2,1*
G04 #@! TO.N,/HVDC_5V_REF*
X174550000Y-130250000D03*
G04 #@! TD*
G04 #@! TO.P,D1,2*
G04 #@! TO.N,/LEDp*
G04 #@! TA.AperFunction,SMDPad,CuDef*
G36*
G01*
X146300000Y-129543750D02*
X146300000Y-130456250D01*
G75*
G02*
X146056250Y-130700000I-243750J0D01*
G01*
X145568750Y-130700000D01*
G75*
G02*
X145325000Y-130456250I0J243750D01*
G01*
X145325000Y-129543750D01*
G75*
G02*
X145568750Y-129300000I243750J0D01*
G01*
X146056250Y-129300000D01*
G75*
G02*
X146300000Y-129543750I0J-243750D01*
G01*
G37*
G04 #@! TD.AperFunction*
G04 #@! TO.P,D1,1*
G04 #@! TO.N,/LEDn*
G04 #@! TA.AperFunction,SMDPad,CuDef*
G36*
G01*
X148175000Y-129543750D02*
X148175000Y-130456250D01*
G75*
G02*
X147931250Y-130700000I-243750J0D01*
G01*
X147443750Y-130700000D01*
G75*
G02*
X147200000Y-130456250I0J243750D01*
G01*
X147200000Y-129543750D01*
G75*
G02*
X147443750Y-129300000I243750J0D01*
G01*
X147931250Y-129300000D01*
G75*
G02*
X148175000Y-129543750I0J-243750D01*
G01*
G37*
G04 #@! TD.AperFunction*
G04 #@! TD*
G04 #@! TO.P,D2,1*
G04 #@! TO.N,/ILIM_LED2*
G04 #@! TA.AperFunction,SMDPad,CuDef*
G36*
G01*
X163456250Y-141175000D02*
X162543750Y-141175000D01*
G75*
G02*
X162300000Y-140931250I0J243750D01*
G01*
X162300000Y-140443750D01*
G75*
G02*
X162543750Y-140200000I243750J0D01*
G01*
X163456250Y-140200000D01*
G75*
G02*
X163700000Y-140443750I0J-243750D01*
G01*
X163700000Y-140931250D01*
G75*
G02*
X163456250Y-141175000I-243750J0D01*
G01*
G37*
G04 #@! TD.AperFunction*
G04 #@! TO.P,D2,2*
G04 #@! TO.N,/ILIM_LED*
G04 #@! TA.AperFunction,SMDPad,CuDef*
G36*
G01*
X163456250Y-139300000D02*
X162543750Y-139300000D01*
G75*
G02*
X162300000Y-139056250I0J243750D01*
G01*
X162300000Y-138568750D01*
G75*
G02*
X162543750Y-138325000I243750J0D01*
G01*
X163456250Y-138325000D01*
G75*
G02*
X163700000Y-138568750I0J-243750D01*
G01*
X163700000Y-139056250D01*
G75*
G02*
X163456250Y-139300000I-243750J0D01*
G01*
G37*
G04 #@! TD.AperFunction*
G04 #@! TD*
G04 #@! TO.P,J1,1*
G04 #@! TO.N,/TACH_1*
G04 #@! TA.AperFunction,ComponentPad*
G36*
G01*
X149350000Y-137550000D02*
X149350000Y-134450000D01*
G75*
G02*
X149600000Y-134200000I250000J0D01*
G01*
X150900000Y-134200000D01*
G75*
G02*
X151150000Y-134450000I0J-250000D01*
G01*
X151150000Y-137550000D01*
G75*
G02*
X150900000Y-137800000I-250000J0D01*
G01*
X149600000Y-137800000D01*
G75*
G02*
X149350000Y-137550000I0J250000D01*
G01*
G37*
G04 #@! TD.AperFunction*
D15*
G04 #@! TO.P,J1,2*
G04 #@! TO.N,/TACH_2*
X153750000Y-136000000D03*
G04 #@! TO.P,J1,3*
G04 #@! TO.N,/TACH_3*
X157250000Y-136000000D03*
G04 #@! TD*
D13*
G04 #@! TO.P,J12,1*
G04 #@! TO.N,/BUTTON*
X145500000Y-152000000D03*
D12*
G04 #@! TO.P,J12,2*
G04 #@! TO.N,GND*
X148040000Y-152000000D03*
G04 #@! TD*
D13*
G04 #@! TO.P,J5,1*
G04 #@! TO.N,/MISO*
X138750000Y-135750000D03*
D12*
G04 #@! TO.P,J5,2*
G04 #@! TO.N,+5V*
X138750000Y-133210000D03*
G04 #@! TO.P,J5,3*
G04 #@! TO.N,/SCK*
X141290000Y-135750000D03*
G04 #@! TO.P,J5,4*
G04 #@! TO.N,/MOSI*
X141290000Y-133210000D03*
G04 #@! TO.P,J5,5*
G04 #@! TO.N,/MIMA_CS*
X143830000Y-135750000D03*
G04 #@! TO.P,J5,6*
G04 #@! TO.N,GND*
X143830000Y-133210000D03*
G04 #@! TD*
G04 #@! TO.P,J10,1*
G04 #@! TO.N,/HVDC_POS_BATT*
G04 #@! TA.AperFunction,ComponentPad*
G36*
G01*
X201900000Y-135950000D02*
X201900000Y-139050000D01*
G75*
G02*
X201650000Y-139300000I-250000J0D01*
G01*
X200350000Y-139300000D01*
G75*
G02*
X200100000Y-139050000I0J250000D01*
G01*
X200100000Y-135950000D01*
G75*
G02*
X200350000Y-135700000I250000J0D01*
G01*
X201650000Y-135700000D01*
G75*
G02*
X201900000Y-135950000I0J-250000D01*
G01*
G37*
G04 #@! TD.AperFunction*
D15*
G04 #@! TO.P,J10,2*
G04 #@! TO.N,GNDPWR*
X197500000Y-137500000D03*
G04 #@! TO.P,J10,3*
X194000000Y-137500000D03*
G04 #@! TO.P,J10,4*
G04 #@! TO.N,/HVDC_POS_AUX*
X190500000Y-137500000D03*
G04 #@! TD*
G04 #@! TO.P,J11,1*
G04 #@! TO.N,/HEAT_NEG*
G04 #@! TA.AperFunction,ComponentPad*
G36*
G01*
X170350000Y-146550000D02*
X170350000Y-143450000D01*
G75*
G02*
X170600000Y-143200000I250000J0D01*
G01*
X171900000Y-143200000D01*
G75*
G02*
X172150000Y-143450000I0J-250000D01*
G01*
X172150000Y-146550000D01*
G75*
G02*
X171900000Y-146800000I-250000J0D01*
G01*
X170600000Y-146800000D01*
G75*
G02*
X170350000Y-146550000I0J250000D01*
G01*
G37*
G04 #@! TD.AperFunction*
G04 #@! TO.P,J11,2*
X174750000Y-145000000D03*
G04 #@! TO.P,J11,3*
G04 #@! TO.N,/HVDC_POS_AUX*
X178250000Y-145000000D03*
G04 #@! TO.P,J11,4*
X181750000Y-145000000D03*
G04 #@! TD*
G04 #@! TO.P,J13,4*
G04 #@! TO.N,/GRID_POS*
X201000000Y-145250000D03*
G04 #@! TO.P,J13,3*
G04 #@! TO.N,GNDPWR*
X197500000Y-145250000D03*
G04 #@! TO.P,J13,2*
X194000000Y-145250000D03*
G04 #@! TO.P,J13,1*
G04 #@! TO.N,/CHARGER_CURRENT_LIMIT*
G04 #@! TA.AperFunction,ComponentPad*
G36*
G01*
X189600000Y-146800000D02*
X189600000Y-143700000D01*
G75*
G02*
X189850000Y-143450000I250000J0D01*
G01*
X191150000Y-143450000D01*
G75*
G02*
X191400000Y-143700000I0J-250000D01*
G01*
X191400000Y-146800000D01*
G75*
G02*
X191150000Y-147050000I-250000J0D01*
G01*
X189850000Y-147050000D01*
G75*
G02*
X189600000Y-146800000I0J250000D01*
G01*
G37*
G04 #@! TD.AperFunction*
G04 #@! TD*
D16*
G04 #@! TO.P,Q1,1*
G04 #@! TO.N,/Q1_GATE*
X187030000Y-128050000D03*
G04 #@! TO.P,Q1,3*
G04 #@! TO.N,GNDPWR*
X182470000Y-128050000D03*
D17*
G04 #@! TO.P,Q1,2*
G04 #@! TO.N,/HEAT_NEG*
X184750000Y-134350000D03*
G04 #@! TD*
G04 #@! TO.P,R12,2*
G04 #@! TO.N,/BUTTON*
G04 #@! TA.AperFunction,SMDPad,CuDef*
G36*
G01*
X141850000Y-147799998D02*
X141850000Y-148700002D01*
G75*
G02*
X141600002Y-148950000I-249998J0D01*
G01*
X141074998Y-148950000D01*
G75*
G02*
X140825000Y-148700002I0J249998D01*
G01*
X140825000Y-147799998D01*
G75*
G02*
X141074998Y-147550000I249998J0D01*
G01*
X141600002Y-147550000D01*
G75*
G02*
X141850000Y-147799998I0J-249998D01*
G01*
G37*
G04 #@! TD.AperFunction*
G04 #@! TO.P,R12,1*
G04 #@! TO.N,/ILIM_JOIN*
G04 #@! TA.AperFunction,SMDPad,CuDef*
G36*
G01*
X143675000Y-147799998D02*
X143675000Y-148700002D01*
G75*
G02*
X143425002Y-148950000I-249998J0D01*
G01*
X142899998Y-148950000D01*
G75*
G02*
X142650000Y-148700002I0J249998D01*
G01*
X142650000Y-147799998D01*
G75*
G02*
X142899998Y-147550000I249998J0D01*
G01*
X143425002Y-147550000D01*
G75*
G02*
X143675000Y-147799998I0J-249998D01*
G01*
G37*
G04 #@! TD.AperFunction*
G04 #@! TD*
G04 #@! TO.P,R14,1*
G04 #@! TO.N,/ILIM_LED2*
G04 #@! TA.AperFunction,SMDPad,CuDef*
G36*
G01*
X159549998Y-144575000D02*
X160450002Y-144575000D01*
G75*
G02*
X160700000Y-144824998I0J-249998D01*
G01*
X160700000Y-145350002D01*
G75*
G02*
X160450002Y-145600000I-249998J0D01*
G01*
X159549998Y-145600000D01*
G75*
G02*
X159300000Y-145350002I0J249998D01*
G01*
X159300000Y-144824998D01*
G75*
G02*
X159549998Y-144575000I249998J0D01*
G01*
G37*
G04 #@! TD.AperFunction*
G04 #@! TO.P,R14,2*
G04 #@! TO.N,/ILIM_JOIN*
G04 #@! TA.AperFunction,SMDPad,CuDef*
G36*
G01*
X159549998Y-146400000D02*
X160450002Y-146400000D01*
G75*
G02*
X160700000Y-146649998I0J-249998D01*
G01*
X160700000Y-147175002D01*
G75*
G02*
X160450002Y-147425000I-249998J0D01*
G01*
X159549998Y-147425000D01*
G75*
G02*
X159300000Y-147175002I0J249998D01*
G01*
X159300000Y-146649998D01*
G75*
G02*
X159549998Y-146400000I249998J0D01*
G01*
G37*
G04 #@! TD.AperFunction*
G04 #@! TD*
G04 #@! TO.P,R25,2*
G04 #@! TO.N,/ILIM_DIV*
G04 #@! TA.AperFunction,SMDPad,CuDef*
G36*
G01*
X178900000Y-133200002D02*
X178900000Y-132299998D01*
G75*
G02*
X179149998Y-132050000I249998J0D01*
G01*
X179675002Y-132050000D01*
G75*
G02*
X179925000Y-132299998I0J-249998D01*
G01*
X179925000Y-133200002D01*
G75*
G02*
X179675002Y-133450000I-249998J0D01*
G01*
X179149998Y-133450000D01*
G75*
G02*
X178900000Y-133200002I0J249998D01*
G01*
G37*
G04 #@! TD.AperFunction*
G04 #@! TO.P,R25,1*
G04 #@! TO.N,/CHARGER_CURRENT_LIMIT*
G04 #@! TA.AperFunction,SMDPad,CuDef*
G36*
G01*
X177075000Y-133200002D02*
X177075000Y-132299998D01*
G75*
G02*
X177324998Y-132050000I249998J0D01*
G01*
X177850002Y-132050000D01*
G75*
G02*
X178100000Y-132299998I0J-249998D01*
G01*
X178100000Y-133200002D01*
G75*
G02*
X177850002Y-133450000I-249998J0D01*
G01*
X177324998Y-133450000D01*
G75*
G02*
X177075000Y-133200002I0J249998D01*
G01*
G37*
G04 #@! TD.AperFunction*
G04 #@! TD*
G04 #@! TO.P,R26,1*
G04 #@! TO.N,/ILIM_DIV*
G04 #@! TA.AperFunction,SMDPad,CuDef*
G36*
G01*
X179450002Y-130925000D02*
X178549998Y-130925000D01*
G75*
G02*
X178300000Y-130675002I0J249998D01*
G01*
X178300000Y-130149998D01*
G75*
G02*
X178549998Y-129900000I249998J0D01*
G01*
X179450002Y-129900000D01*
G75*
G02*
X179700000Y-130149998I0J-249998D01*
G01*
X179700000Y-130675002D01*
G75*
G02*
X179450002Y-130925000I-249998J0D01*
G01*
G37*
G04 #@! TD.AperFunction*
G04 #@! TO.P,R26,2*
G04 #@! TO.N,/ILIM*
G04 #@! TA.AperFunction,SMDPad,CuDef*
G36*
G01*
X179450002Y-129100000D02*
X178549998Y-129100000D01*
G75*
G02*
X178300000Y-128850002I0J249998D01*
G01*
X178300000Y-128324998D01*
G75*
G02*
X178549998Y-128075000I249998J0D01*
G01*
X179450002Y-128075000D01*
G75*
G02*
X179700000Y-128324998I0J-249998D01*
G01*
X179700000Y-128850002D01*
G75*
G02*
X179450002Y-129100000I-249998J0D01*
G01*
G37*
G04 #@! TD.AperFunction*
G04 #@! TD*
D18*
G04 #@! TO.P,U3,1*
G04 #@! TO.N,+5V*
X160985000Y-132980000D03*
G04 #@! TO.P,U3,3*
G04 #@! TO.N,GNDPWR*
X170515000Y-135520000D03*
G04 #@! TO.P,U3,2*
G04 #@! TO.N,/ILIM_LED*
X160985000Y-135520000D03*
G04 #@! TO.P,U3,4*
G04 #@! TO.N,/ILIM*
X170515000Y-132980000D03*
G04 #@! TD*
G04 #@! TO.P,C6,1*
G04 #@! TO.N,/ILIM_LED2*
G04 #@! TA.AperFunction,SMDPad,CuDef*
G36*
G01*
X162525000Y-142300000D02*
X163475000Y-142300000D01*
G75*
G02*
X163725000Y-142550000I0J-250000D01*
G01*
X163725000Y-143050000D01*
G75*
G02*
X163475000Y-143300000I-250000J0D01*
G01*
X162525000Y-143300000D01*
G75*
G02*
X162275000Y-143050000I0J250000D01*
G01*
X162275000Y-142550000D01*
G75*
G02*
X162525000Y-142300000I250000J0D01*
G01*
G37*
G04 #@! TD.AperFunction*
G04 #@! TO.P,C6,2*
G04 #@! TO.N,GND*
G04 #@! TA.AperFunction,SMDPad,CuDef*
G36*
G01*
X162525000Y-144200000D02*
X163475000Y-144200000D01*
G75*
G02*
X163725000Y-144450000I0J-250000D01*
G01*
X163725000Y-144950000D01*
G75*
G02*
X163475000Y-145200000I-250000J0D01*
G01*
X162525000Y-145200000D01*
G75*
G02*
X162275000Y-144950000I0J250000D01*
G01*
X162275000Y-144450000D01*
G75*
G02*
X162525000Y-144200000I250000J0D01*
G01*
G37*
G04 #@! TD.AperFunction*
G04 #@! TD*
D13*
G04 #@! TO.P,J8,1*
G04 #@! TO.N,/HEATER_EN*
X161750000Y-152750000D03*
D12*
G04 #@! TO.P,J8,2*
G04 #@! TO.N,GND*
X164290000Y-152750000D03*
G04 #@! TD*
D13*
G04 #@! TO.P,J7,1*
G04 #@! TO.N,+5V*
X142250000Y-153250000D03*
D12*
G04 #@! TO.P,J7,2*
G04 #@! TO.N,/SCK*
X139710000Y-153250000D03*
G04 #@! TO.P,J7,3*
G04 #@! TO.N,/MOSI*
X137170000Y-153250000D03*
G04 #@! TO.P,J7,4*
G04 #@! TO.N,/MISO*
X134630000Y-153250000D03*
G04 #@! TO.P,J7,5*
G04 #@! TO.N,/MIMA_CS*
X132090000Y-153250000D03*
G04 #@! TO.P,J7,6*
G04 #@! TO.N,/FLASH_CS*
X129550000Y-153250000D03*
G04 #@! TO.P,J7,7*
G04 #@! TO.N,GND*
X127010000Y-153250000D03*
G04 #@! TO.P,J7,8*
X124470000Y-153250000D03*
G04 #@! TD*
D13*
G04 #@! TO.P,J6,1*
G04 #@! TO.N,GND*
X98880000Y-145750000D03*
D12*
G04 #@! TO.P,J6,2*
G04 #@! TO.N,/CAN_INT*
X101420000Y-145750000D03*
G04 #@! TO.P,J6,3*
G04 #@! TO.N,/CAN_CS*
X103960000Y-145750000D03*
G04 #@! TO.P,J6,4*
G04 #@! TO.N,+5V*
X106500000Y-145750000D03*
G04 #@! TD*
D19*
G04 #@! TO.P,D3,1*
G04 #@! TO.N,/HVDC_POS_BATT*
X214570000Y-143220000D03*
D20*
G04 #@! TO.P,D3,2*
G04 #@! TO.N,/GRID_POS_FUSED*
X214570000Y-148300000D03*
G04 #@! TD*
G04 #@! TO.P,C9,1*
G04 #@! TO.N,/MISO*
G04 #@! TA.AperFunction,SMDPad,CuDef*
G36*
G01*
X109525000Y-140050000D02*
X110475000Y-140050000D01*
G75*
G02*
X110725000Y-140300000I0J-250000D01*
G01*
X110725000Y-140800000D01*
G75*
G02*
X110475000Y-141050000I-250000J0D01*
G01*
X109525000Y-141050000D01*
G75*
G02*
X109275000Y-140800000I0J250000D01*
G01*
X109275000Y-140300000D01*
G75*
G02*
X109525000Y-140050000I250000J0D01*
G01*
G37*
G04 #@! TD.AperFunction*
G04 #@! TO.P,C9,2*
G04 #@! TO.N,GND*
G04 #@! TA.AperFunction,SMDPad,CuDef*
G36*
G01*
X109525000Y-141950000D02*
X110475000Y-141950000D01*
G75*
G02*
X110725000Y-142200000I0J-250000D01*
G01*
X110725000Y-142700000D01*
G75*
G02*
X110475000Y-142950000I-250000J0D01*
G01*
X109525000Y-142950000D01*
G75*
G02*
X109275000Y-142700000I0J250000D01*
G01*
X109275000Y-142200000D01*
G75*
G02*
X109525000Y-141950000I250000J0D01*
G01*
G37*
G04 #@! TD.AperFunction*
G04 #@! TD*
G04 #@! TO.P,C10,2*
G04 #@! TO.N,GND*
G04 #@! TA.AperFunction,SMDPad,CuDef*
G36*
G01*
X106525000Y-141950000D02*
X107475000Y-141950000D01*
G75*
G02*
X107725000Y-142200000I0J-250000D01*
G01*
X107725000Y-142700000D01*
G75*
G02*
X107475000Y-142950000I-250000J0D01*
G01*
X106525000Y-142950000D01*
G75*
G02*
X106275000Y-142700000I0J250000D01*
G01*
X106275000Y-142200000D01*
G75*
G02*
X106525000Y-141950000I250000J0D01*
G01*
G37*
G04 #@! TD.AperFunction*
G04 #@! TO.P,C10,1*
G04 #@! TO.N,/MOSI*
G04 #@! TA.AperFunction,SMDPad,CuDef*
G36*
G01*
X106525000Y-140050000D02*
X107475000Y-140050000D01*
G75*
G02*
X107725000Y-140300000I0J-250000D01*
G01*
X107725000Y-140800000D01*
G75*
G02*
X107475000Y-141050000I-250000J0D01*
G01*
X106525000Y-141050000D01*
G75*
G02*
X106275000Y-140800000I0J250000D01*
G01*
X106275000Y-140300000D01*
G75*
G02*
X106525000Y-140050000I250000J0D01*
G01*
G37*
G04 #@! TD.AperFunction*
G04 #@! TD*
G04 #@! TO.P,C11,1*
G04 #@! TO.N,/SCK*
G04 #@! TA.AperFunction,SMDPad,CuDef*
G36*
G01*
X103525000Y-140050000D02*
X104475000Y-140050000D01*
G75*
G02*
X104725000Y-140300000I0J-250000D01*
G01*
X104725000Y-140800000D01*
G75*
G02*
X104475000Y-141050000I-250000J0D01*
G01*
X103525000Y-141050000D01*
G75*
G02*
X103275000Y-140800000I0J250000D01*
G01*
X103275000Y-140300000D01*
G75*
G02*
X103525000Y-140050000I250000J0D01*
G01*
G37*
G04 #@! TD.AperFunction*
G04 #@! TO.P,C11,2*
G04 #@! TO.N,GND*
G04 #@! TA.AperFunction,SMDPad,CuDef*
G36*
G01*
X103525000Y-141950000D02*
X104475000Y-141950000D01*
G75*
G02*
X104725000Y-142200000I0J-250000D01*
G01*
X104725000Y-142700000D01*
G75*
G02*
X104475000Y-142950000I-250000J0D01*
G01*
X103525000Y-142950000D01*
G75*
G02*
X103275000Y-142700000I0J250000D01*
G01*
X103275000Y-142200000D01*
G75*
G02*
X103525000Y-141950000I250000J0D01*
G01*
G37*
G04 #@! TD.AperFunction*
G04 #@! TD*
D13*
G04 #@! TO.P,J2,1*
G04 #@! TO.N,+5V*
X106500000Y-149000000D03*
D12*
G04 #@! TO.P,J2,2*
G04 #@! TO.N,/CAN_CS*
X103960000Y-149000000D03*
G04 #@! TO.P,J2,3*
G04 #@! TO.N,/CAN_INT*
X101420000Y-149000000D03*
G04 #@! TO.P,J2,4*
G04 #@! TO.N,GND*
X98880000Y-149000000D03*
G04 #@! TD*
D21*
G04 #@! TO.N,+5V*
X159500000Y-133000000D03*
X151337500Y-146412500D03*
X148162500Y-146412500D03*
X137450000Y-144550000D03*
X121750000Y-148250000D03*
G04 #@! TO.N,GND*
X156500000Y-147750000D03*
X159500000Y-130750000D03*
X163250000Y-146000000D03*
X137000000Y-146500000D03*
X108000000Y-151250000D03*
X108700000Y-142450000D03*
X105500000Y-142500000D03*
X117800000Y-142450000D03*
X120000000Y-141000000D03*
X115050000Y-142450000D03*
X119250000Y-151250000D03*
X115500000Y-151250000D03*
X111750000Y-151250000D03*
X116000000Y-137250000D03*
X99250000Y-136500000D03*
X99000000Y-134000000D03*
X99500000Y-132250000D03*
X108000000Y-127500000D03*
X110250000Y-127250000D03*
X136250000Y-127500000D03*
X139000000Y-127500000D03*
X143250000Y-127500000D03*
X146250000Y-127500000D03*
X148750000Y-127500000D03*
X155750000Y-127500000D03*
X152250000Y-127500000D03*
X160500000Y-149250000D03*
G04 #@! TO.N,GNDPWR*
X181500000Y-129250000D03*
X179412500Y-136587500D03*
X175200000Y-133800000D03*
X171750000Y-136250000D03*
X171500000Y-130500000D03*
X167750000Y-130500000D03*
X183500000Y-128250000D03*
X183500000Y-129250000D03*
X181500000Y-128250000D03*
X184250000Y-128750000D03*
X180750000Y-128750000D03*
G04 #@! TO.N,/HVDC_5V_REF*
X205250000Y-143000000D03*
X204750000Y-142500000D03*
X205750000Y-148750000D03*
X205350000Y-149550000D03*
X204150000Y-152350000D03*
X205350000Y-145912500D03*
G04 #@! TO.N,/GRID_POS_FUSED*
X210250000Y-147662500D03*
X212750000Y-147750000D03*
X209000000Y-148750000D03*
X211500000Y-148750000D03*
G04 #@! TO.N,/SCK*
X134500000Y-141750000D03*
X134000000Y-137750000D03*
G04 #@! TO.N,/MOSI*
X131000000Y-137750000D03*
X133750000Y-140500000D03*
G04 #@! TO.N,/MISO*
X114750000Y-135250000D03*
G04 #@! TO.N,/TACH_1*
X148625000Y-143125000D03*
G04 #@! TO.N,/TACH_2*
X151875000Y-143125000D03*
G04 #@! TO.N,/TACH_3*
X155125000Y-143125000D03*
G04 #@! TO.N,/Q1_GATE*
X168615000Y-128615000D03*
X188000000Y-127000000D03*
X189000000Y-127000000D03*
G04 #@! TO.N,/HEATER_EN*
X144912500Y-143250000D03*
X144500000Y-148500000D03*
G04 #@! TO.N,/HEAT_NEG*
X183000000Y-138250000D03*
G04 #@! TO.N,/ILIM_JOIN*
X150000000Y-150500000D03*
X159000000Y-147750000D03*
G04 #@! TO.N,/ILIM*
X177750000Y-129000000D03*
X171750000Y-131750000D03*
G04 #@! TO.N,/CAN_CS*
X104500000Y-136250000D03*
X103750000Y-139000000D03*
G04 #@! TO.N,/DIV*
X206950000Y-145837500D03*
X210240000Y-145837500D03*
X211000000Y-144750000D03*
X208500000Y-144750000D03*
X207750000Y-146250000D03*
G04 #@! TD*
D22*
G04 #@! TO.N,+5V*
X159520000Y-132980000D02*
X159500000Y-133000000D01*
X160985000Y-132980000D02*
X159520000Y-132980000D01*
D23*
X151337500Y-146412500D02*
X149750000Y-146412500D01*
X153000000Y-146412500D02*
X151337500Y-146412500D01*
X148162500Y-146412500D02*
X146500000Y-146412500D01*
X149750000Y-146412500D02*
X148162500Y-146412500D01*
X138962500Y-144550000D02*
X139000000Y-144587500D01*
X137450000Y-144550000D02*
X138962500Y-144550000D01*
X135750000Y-144550000D02*
X137450000Y-144550000D01*
X130250000Y-132500000D02*
X130500000Y-132500000D01*
X130450000Y-132700000D02*
X130250000Y-132500000D01*
X134750000Y-132700000D02*
X130450000Y-132700000D01*
X138240000Y-132700000D02*
X138750000Y-133210000D01*
X134750000Y-132700000D02*
X138240000Y-132700000D01*
D22*
X131490000Y-131260000D02*
X130250000Y-132500000D01*
X131490000Y-128250000D02*
X131490000Y-131260000D01*
X121750000Y-149550000D02*
X121750000Y-148250000D01*
X107050000Y-149550000D02*
X106500000Y-149000000D01*
X109500000Y-149550000D02*
X107050000Y-149550000D01*
G04 #@! TO.N,GND*
X156500000Y-146700000D02*
X156250000Y-146450000D01*
X156500000Y-147750000D02*
X156500000Y-146700000D01*
D23*
X160562500Y-129885000D02*
X160197500Y-130250000D01*
X160000000Y-130250000D02*
X159500000Y-130750000D01*
X160197500Y-130250000D02*
X160000000Y-130250000D01*
D22*
X163000000Y-145750000D02*
X162750000Y-146000000D01*
X163000000Y-144700000D02*
X163000000Y-145750000D01*
D23*
X128950000Y-128250000D02*
X128950000Y-127550000D01*
X128950000Y-127550000D02*
X129750000Y-126750000D01*
X129750000Y-126750000D02*
X133500000Y-126750000D01*
X134750000Y-128000000D02*
X134750000Y-130800000D01*
X133500000Y-126750000D02*
X134750000Y-128000000D01*
X134750000Y-130800000D02*
X142050000Y-130800000D01*
X143830000Y-132580000D02*
X143830000Y-133210000D01*
X142050000Y-130800000D02*
X143830000Y-132580000D01*
X135800000Y-146500000D02*
X135750000Y-146450000D01*
X137000000Y-146500000D02*
X135800000Y-146500000D01*
D22*
X123550000Y-153250000D02*
X121750000Y-151450000D01*
X124470000Y-153250000D02*
X123550000Y-153250000D01*
X108050000Y-151450000D02*
X108000000Y-151500000D01*
X109500000Y-151450000D02*
X108050000Y-151450000D01*
X110000000Y-142450000D02*
X108700000Y-142450000D01*
X105550000Y-142450000D02*
X105500000Y-142500000D01*
X108700000Y-142450000D02*
X105550000Y-142450000D01*
X105550000Y-142450000D02*
X104000000Y-142450000D01*
X164290000Y-152750000D02*
X164290000Y-152290000D01*
X164290000Y-152290000D02*
X163750000Y-151750000D01*
X163750000Y-151750000D02*
X163750000Y-151250000D01*
X162750000Y-150250000D02*
X162750000Y-146000000D01*
X163750000Y-151250000D02*
X162750000Y-150250000D01*
D23*
G04 #@! TO.N,/TACH_SUM*
X157837500Y-140587500D02*
X159500000Y-140587500D01*
X149750000Y-140587500D02*
X157837500Y-140587500D01*
X157262500Y-140587500D02*
X157837500Y-141162500D01*
X156250000Y-140587500D02*
X157262500Y-140587500D01*
X157837500Y-141162500D02*
X157837500Y-140587500D01*
X158412500Y-140587500D02*
X157837500Y-141162500D01*
X159500000Y-140587500D02*
X158412500Y-140587500D01*
X156450000Y-144550000D02*
X157837500Y-143162500D01*
X157837500Y-143162500D02*
X157837500Y-141162500D01*
X156250000Y-144550000D02*
X156450000Y-144550000D01*
D24*
G04 #@! TO.N,GNDPWR*
X197500000Y-145250000D02*
X194000000Y-145250000D01*
X194000000Y-145250000D02*
X194000000Y-137500000D01*
X194000000Y-137500000D02*
X197500000Y-137500000D01*
D22*
X180750000Y-128750000D02*
X180750000Y-128750000D01*
D23*
X179412500Y-135287500D02*
X179450000Y-135250000D01*
X179412500Y-138000000D02*
X179412500Y-136587500D01*
X175200000Y-132537500D02*
X175162500Y-132500000D01*
X175200000Y-135250000D02*
X175200000Y-133800000D01*
X175162500Y-132500000D02*
X175162500Y-132337500D01*
X175162500Y-132337500D02*
X176250000Y-131250000D01*
X176250000Y-130450000D02*
X176450000Y-130250000D01*
X176250000Y-131250000D02*
X176250000Y-130450000D01*
X179412500Y-136587500D02*
X179412500Y-135287500D01*
X175200000Y-133800000D02*
X175200000Y-132537500D01*
X172462500Y-129750000D02*
X171712500Y-130500000D01*
X171712500Y-130500000D02*
X171500000Y-130500000D01*
X171245000Y-136250000D02*
X171750000Y-136250000D01*
X170515000Y-135520000D02*
X171245000Y-136250000D01*
X166937500Y-129885000D02*
X167385000Y-129885000D01*
X167750000Y-130250000D02*
X167750000Y-130500000D01*
X167385000Y-129885000D02*
X167750000Y-130250000D01*
D22*
X180750000Y-128750000D02*
X180750000Y-128750000D01*
X183170000Y-128750000D02*
X182470000Y-128050000D01*
X184250000Y-128750000D02*
X183170000Y-128750000D01*
X181000000Y-128750000D02*
X181500000Y-128250000D01*
X180750000Y-128750000D02*
X181000000Y-128750000D01*
D23*
X183500000Y-129250000D02*
X181500000Y-129250000D01*
X181500000Y-128250000D02*
X181500000Y-128000000D01*
X181500000Y-128000000D02*
X181750000Y-127750000D01*
X183500000Y-128250000D02*
X183500000Y-128000000D01*
X183500000Y-128000000D02*
X183000000Y-127500000D01*
X182470000Y-128030000D02*
X182470000Y-128050000D01*
X183000000Y-127500000D02*
X182470000Y-128030000D01*
X182470000Y-128050000D02*
X182470000Y-127720000D01*
X182440000Y-127750000D02*
X181750000Y-127750000D01*
X182470000Y-127720000D02*
X182440000Y-127750000D01*
X181770000Y-128750000D02*
X182470000Y-128050000D01*
X180750000Y-128750000D02*
X181770000Y-128750000D01*
G04 #@! TO.N,/HVDC_5V_REF*
X204837500Y-144750000D02*
X204837500Y-145912500D01*
X168750000Y-138000000D02*
X168287500Y-138000000D01*
X168750000Y-138087500D02*
X171500000Y-138087500D01*
X173662500Y-137587500D02*
X174250000Y-137587500D01*
X173162500Y-138087500D02*
X173662500Y-137587500D01*
X171500000Y-138087500D02*
X173162500Y-138087500D01*
X173300000Y-135250000D02*
X173300000Y-137050000D01*
X173837500Y-137587500D02*
X174250000Y-137587500D01*
X173300000Y-137050000D02*
X173837500Y-137587500D01*
X173300000Y-132537500D02*
X173337500Y-132500000D01*
X173300000Y-135250000D02*
X173300000Y-132537500D01*
X173337500Y-132500000D02*
X173337500Y-131912500D01*
X173337500Y-131912500D02*
X174000000Y-131250000D01*
X174000000Y-130800000D02*
X174550000Y-130250000D01*
X174000000Y-131250000D02*
X174000000Y-130800000D01*
X173162500Y-137187500D02*
X173300000Y-137050000D01*
X173162500Y-138087500D02*
X173162500Y-137187500D01*
X204837500Y-150162500D02*
X204837500Y-149162500D01*
X204837500Y-145912500D02*
X204837500Y-147000000D01*
X204837500Y-148162500D02*
X204837500Y-147000000D01*
X204837500Y-149162500D02*
X204837500Y-148162500D01*
X204837500Y-150162500D02*
X204837500Y-150162500D01*
X205162500Y-148162500D02*
X204837500Y-148162500D01*
X205750000Y-148750000D02*
X205162500Y-148162500D01*
X205750000Y-148750000D02*
X205150000Y-148750000D01*
X205150000Y-148850000D02*
X204837500Y-149162500D01*
X205150000Y-148750000D02*
X205150000Y-148850000D01*
X204837500Y-150062500D02*
X204837500Y-150162500D01*
X205050000Y-149450000D02*
X205050000Y-149850000D01*
X205750000Y-148750000D02*
X205050000Y-149450000D01*
X205050000Y-149850000D02*
X204837500Y-150062500D01*
X205350000Y-149550000D02*
X205050000Y-149850000D01*
X172500000Y-154500000D02*
X200500000Y-154500000D01*
X167125000Y-149125000D02*
X172500000Y-154500000D01*
X167125000Y-139250000D02*
X167125000Y-149125000D01*
X200500000Y-154500000D02*
X204837500Y-150162500D01*
X168287500Y-138087500D02*
X167125000Y-139250000D01*
G04 #@! TO.N,/CHARGER_CURRENT_LIMIT*
X168250000Y-140250000D02*
X168750000Y-139750000D01*
X168250000Y-140750000D02*
X168250000Y-140250000D01*
X168750000Y-139912500D02*
X171500000Y-139912500D01*
X171500000Y-139912500D02*
X173337500Y-139912500D01*
X173837500Y-139412500D02*
X174250000Y-139412500D01*
X173337500Y-139912500D02*
X173837500Y-139412500D01*
X174250000Y-139412500D02*
X174837500Y-139412500D01*
X174837500Y-139412500D02*
X175750000Y-138500000D01*
X177087500Y-138500000D02*
X177587500Y-138000000D01*
X175750000Y-138500000D02*
X177087500Y-138500000D01*
X177587500Y-135287500D02*
X177550000Y-135250000D01*
X177587500Y-138000000D02*
X177587500Y-135287500D01*
X177550000Y-132787500D02*
X177587500Y-132750000D01*
X177550000Y-135250000D02*
X177550000Y-132787500D01*
X168250000Y-140412500D02*
X168750000Y-139912500D01*
X168250000Y-148750000D02*
X168250000Y-140412500D01*
X172750000Y-153250000D02*
X168250000Y-148750000D01*
X181000000Y-153250000D02*
X172750000Y-153250000D01*
X182500000Y-149250000D02*
X182500000Y-151750000D01*
X182500000Y-151750000D02*
X181000000Y-153250000D01*
X186500000Y-145250000D02*
X182500000Y-149250000D01*
X190500000Y-145250000D02*
X186500000Y-145250000D01*
D25*
G04 #@! TO.N,/GRID_POS_FUSED*
X208500000Y-150750000D02*
X212120000Y-150750000D01*
D23*
X211500000Y-147662500D02*
X210087500Y-147662500D01*
X209000000Y-150250000D02*
X208500000Y-150750000D01*
X209000000Y-147662500D02*
X209000000Y-149000000D01*
D24*
X210950000Y-148300000D02*
X210950000Y-148300000D01*
X214570000Y-148300000D02*
X212200000Y-148300000D01*
D23*
X210087500Y-147662500D02*
X209000000Y-147662500D01*
D24*
X212200000Y-148300000D02*
X210950000Y-148300000D01*
D23*
X209000000Y-149000000D02*
X209000000Y-150250000D01*
D24*
X210950000Y-148300000D02*
X208500000Y-150750000D01*
D23*
G04 #@! TO.N,/SCK*
X141290000Y-137960000D02*
X141290000Y-135750000D01*
X139000000Y-140250000D02*
X141290000Y-137960000D01*
X117290000Y-129750000D02*
X118790000Y-128250000D01*
X112000000Y-133750000D02*
X112000000Y-131250000D01*
X112000000Y-131250000D02*
X113500000Y-129750000D01*
X105750000Y-139000000D02*
X106750000Y-139000000D01*
X113500000Y-129750000D02*
X117290000Y-129750000D01*
X104200000Y-140550000D02*
X105750000Y-139000000D01*
X106750000Y-139000000D02*
X112000000Y-133750000D01*
X104000000Y-140550000D02*
X104200000Y-140550000D01*
X132500000Y-143625000D02*
X134375000Y-141750000D01*
X139710000Y-152960000D02*
X136250000Y-149500000D01*
X134750000Y-149500000D02*
X132500000Y-147250000D01*
X134375000Y-141750000D02*
X137500000Y-141750000D01*
X136250000Y-149500000D02*
X134750000Y-149500000D01*
X132500000Y-147250000D02*
X132500000Y-143625000D01*
X137500000Y-141750000D02*
X139000000Y-140250000D01*
X139710000Y-153250000D02*
X139710000Y-152960000D01*
X134000000Y-137250000D02*
X134000000Y-137500000D01*
X134000000Y-137500000D02*
X134000000Y-137750000D01*
X124500000Y-134750000D02*
X131500000Y-134750000D01*
X131500000Y-134750000D02*
X134000000Y-137250000D01*
X122630000Y-132880000D02*
X124500000Y-134750000D01*
X122630000Y-132500000D02*
X122630000Y-132880000D01*
G04 #@! TO.N,/MOSI*
X121330000Y-128250000D02*
X121330000Y-128420000D01*
X117550000Y-132200000D02*
X117550000Y-132500000D01*
X121330000Y-128420000D02*
X117550000Y-132200000D01*
X141290000Y-133210000D02*
X140050001Y-134449999D01*
X140050001Y-134449999D02*
X140050001Y-134539999D01*
X140050001Y-134539999D02*
X140050001Y-134750000D01*
D26*
X140050001Y-134539999D02*
X140050001Y-136960001D01*
D23*
X114000000Y-130750000D02*
X116500000Y-130750000D01*
X107500000Y-140000000D02*
X113000000Y-134500000D01*
X113000000Y-131750000D02*
X114000000Y-130750000D01*
X113000000Y-134500000D02*
X113000000Y-131750000D01*
X116500000Y-130750000D02*
X117550000Y-131800000D01*
X107500000Y-140050000D02*
X107500000Y-140000000D01*
X117550000Y-131800000D02*
X117550000Y-132500000D01*
X107000000Y-140550000D02*
X107500000Y-140050000D01*
X140039999Y-136960001D02*
X140050001Y-136960001D01*
X136500000Y-140500000D02*
X140039999Y-136960001D01*
X133750000Y-140500000D02*
X136500000Y-140500000D01*
X134250000Y-150750000D02*
X131250000Y-147750000D01*
X134750000Y-150750000D02*
X134250000Y-150750000D01*
X131250000Y-147750000D02*
X131250000Y-143000000D01*
X137170000Y-153170000D02*
X134750000Y-150750000D01*
X131250000Y-143000000D02*
X133750000Y-140500000D01*
X137170000Y-153250000D02*
X137170000Y-153170000D01*
X117550000Y-133050000D02*
X122250000Y-137750000D01*
X117550000Y-132500000D02*
X117550000Y-133050000D01*
X131000000Y-137750000D02*
X122250000Y-137750000D01*
G04 #@! TO.N,/MISO*
X123870000Y-128250000D02*
X123870000Y-128630000D01*
X120090000Y-132410000D02*
X120090000Y-132500000D01*
X123870000Y-128630000D02*
X120090000Y-132410000D01*
X110000000Y-139250000D02*
X114000000Y-135250000D01*
X114000000Y-135250000D02*
X114750000Y-135250000D01*
X110000000Y-140550000D02*
X110000000Y-139250000D01*
X138250000Y-135250000D02*
X138750000Y-135750000D01*
X134630000Y-152880000D02*
X134630000Y-153250000D01*
X130000000Y-148250000D02*
X134630000Y-152880000D01*
X135750000Y-139000000D02*
X133500000Y-139000000D01*
X133500000Y-139000000D02*
X130000000Y-142500000D01*
X130000000Y-142500000D02*
X130000000Y-148250000D01*
X138750000Y-136000000D02*
X135750000Y-139000000D01*
X138750000Y-135750000D02*
X138750000Y-136000000D01*
X132375000Y-137875000D02*
X133500000Y-139000000D01*
X131250000Y-136250000D02*
X132375000Y-137375000D01*
X123500000Y-136250000D02*
X131250000Y-136250000D01*
X132375000Y-137375000D02*
X132375000Y-137875000D01*
X120090000Y-132840000D02*
X123500000Y-136250000D01*
X120090000Y-132500000D02*
X120090000Y-132840000D01*
G04 #@! TO.N,/FLASH_CS*
X115010000Y-133010000D02*
X115010000Y-132500000D01*
X121000000Y-139000000D02*
X115010000Y-133010000D01*
X125250000Y-139000000D02*
X121000000Y-139000000D01*
X128750000Y-142500000D02*
X125250000Y-139000000D01*
X130500000Y-150500000D02*
X128750000Y-148750000D01*
X130500000Y-151750000D02*
X130500000Y-150500000D01*
X129550000Y-152700000D02*
X130500000Y-151750000D01*
X128750000Y-148750000D02*
X128750000Y-142500000D01*
X129550000Y-153250000D02*
X129550000Y-152700000D01*
G04 #@! TO.N,/MIMA_CS*
X132090000Y-153250000D02*
X133590000Y-154750000D01*
X133590000Y-154750000D02*
X140250000Y-154750000D01*
X140250000Y-154750000D02*
X140949999Y-154050001D01*
D26*
X140949999Y-154050001D02*
X140949999Y-152565997D01*
D23*
X140949999Y-152199999D02*
X140949999Y-152565997D01*
X137000000Y-148250000D02*
X140949999Y-152199999D01*
X135250000Y-148250000D02*
X137000000Y-148250000D01*
X134000000Y-147000000D02*
X135250000Y-148250000D01*
X134000000Y-143750000D02*
X134000000Y-147000000D01*
X134750000Y-143000000D02*
X134000000Y-143750000D01*
X138250000Y-143000000D02*
X134750000Y-143000000D01*
X143830000Y-135750000D02*
X143750000Y-135830000D01*
X143750000Y-135830000D02*
X143750000Y-137500000D01*
X143750000Y-137500000D02*
X138250000Y-143000000D01*
G04 #@! TO.N,/TACH_1*
X146500000Y-144587500D02*
X146912500Y-144587500D01*
X149337500Y-142412500D02*
X149750000Y-142412500D01*
X148000000Y-143500000D02*
X148250000Y-143500000D01*
X146912500Y-144587500D02*
X148000000Y-143500000D01*
X148625000Y-143125000D02*
X149337500Y-142412500D01*
X148250000Y-143500000D02*
X148625000Y-143125000D01*
G04 #@! TO.N,/TACH_2*
X152587500Y-142412500D02*
X153000000Y-142412500D01*
X151125000Y-143500000D02*
X151500000Y-143500000D01*
X150037500Y-144587500D02*
X151125000Y-143500000D01*
X149750000Y-144587500D02*
X150037500Y-144587500D01*
X151875000Y-143125000D02*
X152587500Y-142412500D01*
X151500000Y-143500000D02*
X151875000Y-143125000D01*
G04 #@! TO.N,/TACH_3*
X155837500Y-142412500D02*
X156250000Y-142412500D01*
X154500000Y-143500000D02*
X154750000Y-143500000D01*
X153412500Y-144587500D02*
X154500000Y-143500000D01*
X153000000Y-144587500D02*
X153412500Y-144587500D01*
X155125000Y-143125000D02*
X155837500Y-142412500D01*
X154750000Y-143500000D02*
X155125000Y-143125000D01*
G04 #@! TO.N,/Q1_GATE*
X166937500Y-128615000D02*
X168615000Y-128615000D01*
X169537500Y-129537500D02*
X169537500Y-129750000D01*
X168615000Y-128615000D02*
X169537500Y-129537500D01*
X168615000Y-128615000D02*
X168615000Y-128615000D01*
X187030000Y-127030000D02*
X187030000Y-128050000D01*
X187000000Y-127000000D02*
X187030000Y-127030000D01*
X188000000Y-127000000D02*
X187000000Y-127000000D01*
X189000000Y-127000000D02*
X188000000Y-127000000D01*
G04 #@! TO.N,/LEDp*
X145812500Y-134400000D02*
X146500000Y-135087500D01*
X145812500Y-130500000D02*
X145812500Y-134400000D01*
G04 #@! TO.N,/LEDn*
X147687500Y-130500000D02*
X155000000Y-130500000D01*
X156885000Y-128615000D02*
X160562500Y-128615000D01*
X155000000Y-130500000D02*
X156885000Y-128615000D01*
D25*
G04 #@! TO.N,/HVDC_POS_BATT*
X208500000Y-141000000D02*
X205250000Y-137750000D01*
D24*
X201250000Y-137750000D02*
X201000000Y-137500000D01*
D27*
X205250000Y-137750000D02*
X201250000Y-137750000D01*
D25*
X208500000Y-141000000D02*
X212350000Y-141000000D01*
D24*
X214570000Y-143220000D02*
X212350000Y-141000000D01*
D23*
G04 #@! TO.N,/ILIM_LED2*
X163000000Y-140687500D02*
X163000000Y-142837500D01*
X162412500Y-142837500D02*
X163000000Y-142837500D01*
X163000000Y-142800000D02*
X161950000Y-142800000D01*
X161950000Y-142800000D02*
X160500000Y-144250000D01*
X160500000Y-144250000D02*
X160500000Y-145087500D01*
G04 #@! TO.N,/ILIM_LED*
X163000000Y-138812500D02*
X162187500Y-138000000D01*
X162187500Y-138000000D02*
X162187500Y-136937500D01*
X160985000Y-135735000D02*
X160985000Y-135520000D01*
X162187500Y-136937500D02*
X160985000Y-135735000D01*
D24*
G04 #@! TO.N,/HVDC_POS_AUX*
X181750000Y-145000000D02*
X178250000Y-145000000D01*
X181125000Y-145000000D02*
X180750000Y-145000000D01*
X184750000Y-141375000D02*
X181125000Y-145000000D01*
D28*
G04 #@! TO.N,/GRID_POS*
X201000000Y-148750000D02*
X201000000Y-145250000D01*
D25*
X199250000Y-150750000D02*
X201000000Y-149000000D01*
X186250000Y-150750000D02*
X199250000Y-150750000D01*
D23*
G04 #@! TO.N,/BUTTON*
X144750000Y-152162500D02*
X141587500Y-149000000D01*
X145000000Y-151500000D02*
X144250000Y-151500000D01*
X141587500Y-148837500D02*
X141587500Y-147837500D01*
X141337500Y-148750000D02*
X141587500Y-149000000D01*
X141337500Y-148250000D02*
X141337500Y-148750000D01*
X139337500Y-146750000D02*
X139750000Y-146750000D01*
X141250000Y-148250000D02*
X141337500Y-148250000D01*
X139412500Y-146412500D02*
X141250000Y-148250000D01*
G04 #@! TO.N,/HEATER_EN*
X161750000Y-153000000D02*
X161750000Y-152750000D01*
X155500000Y-154500000D02*
X160250000Y-154500000D01*
X153920000Y-152920000D02*
X155500000Y-154500000D01*
X160250000Y-154500000D02*
X161750000Y-153000000D01*
X153920000Y-152750000D02*
X153920000Y-152920000D01*
X145250000Y-149250000D02*
X145125000Y-149125000D01*
X145125000Y-149125000D02*
X144500000Y-148500000D01*
X152000000Y-149250000D02*
X145250000Y-149250000D01*
X153920000Y-151170000D02*
X152000000Y-149250000D01*
X153920000Y-152750000D02*
X153920000Y-151170000D01*
X144912500Y-143250000D02*
X145500000Y-143250000D01*
X146337500Y-142412500D02*
X146500000Y-142412500D01*
X145500000Y-143250000D02*
X146337500Y-142412500D01*
X144912500Y-143250000D02*
X144250000Y-143250000D01*
X143412500Y-142412500D02*
X143250000Y-142412500D01*
X144250000Y-143250000D02*
X143412500Y-142412500D01*
D22*
G04 #@! TO.N,/HEAT_NEG*
X174750000Y-145000000D02*
X174750000Y-143250000D01*
X174750000Y-143250000D02*
X177000000Y-141000000D01*
X182250000Y-136850000D02*
X184750000Y-134350000D01*
X182250000Y-139500000D02*
X182250000Y-136850000D01*
X180750000Y-141000000D02*
X182250000Y-139500000D01*
X177000000Y-141000000D02*
X180750000Y-141000000D01*
D23*
X184750000Y-135500000D02*
X184750000Y-134350000D01*
X184750000Y-134350000D02*
X184750000Y-134250000D01*
D24*
X184750000Y-136500000D02*
X183000000Y-138250000D01*
X184750000Y-134350000D02*
X184750000Y-136500000D01*
D23*
G04 #@! TO.N,/ILIM_JOIN*
X143000000Y-147837500D02*
X143412500Y-148250000D01*
X143000000Y-147000000D02*
X143000000Y-147837500D01*
X141587500Y-145587500D02*
X143000000Y-147000000D01*
X143162500Y-148250000D02*
X143162500Y-148412500D01*
X143162500Y-148250000D02*
X143162500Y-148912500D01*
X143162500Y-148912500D02*
X144500000Y-150250000D01*
X149750000Y-150250000D02*
X150000000Y-150500000D01*
X144500000Y-150250000D02*
X149750000Y-150250000D01*
X159837500Y-146912500D02*
X160000000Y-146912500D01*
X159000000Y-147750000D02*
X159837500Y-146912500D01*
G04 #@! TO.N,/HEAD_L1*
X146500000Y-136912500D02*
X146500000Y-140587500D01*
X146500000Y-140587500D02*
X143250000Y-140587500D01*
G04 #@! TO.N,/ILIM_DIV*
X179412500Y-130825000D02*
X179000000Y-130412500D01*
X179412500Y-132750000D02*
X179412500Y-130825000D01*
G04 #@! TO.N,/ILIM*
X179000000Y-128587500D02*
X178662500Y-128587500D01*
X178250000Y-129000000D02*
X177750000Y-129000000D01*
X178662500Y-128587500D02*
X178250000Y-129000000D01*
X171745000Y-131750000D02*
X170515000Y-132980000D01*
X171750000Y-131750000D02*
X171745000Y-131750000D01*
G04 #@! TO.N,/CAN_INT*
X101420000Y-149000000D02*
X101420000Y-145750000D01*
X101000000Y-139000000D02*
X101000000Y-145330000D01*
X102500000Y-137500000D02*
X101000000Y-139000000D01*
X111000000Y-130750000D02*
X111000000Y-133000000D01*
X113500000Y-128250000D02*
X111000000Y-130750000D01*
X101000000Y-145330000D02*
X101420000Y-145750000D01*
X106500000Y-137500000D02*
X102500000Y-137500000D01*
X111000000Y-133000000D02*
X106500000Y-137500000D01*
X116250000Y-128250000D02*
X113500000Y-128250000D01*
G04 #@! TO.N,/CAN_CS*
X103960000Y-149000000D02*
X103960000Y-145750000D01*
X126410000Y-128250000D02*
X126410000Y-128590000D01*
X110000000Y-130250000D02*
X110000000Y-132250000D01*
X113500000Y-126750000D02*
X110000000Y-130250000D01*
X125500000Y-126750000D02*
X113500000Y-126750000D01*
X126410000Y-127660000D02*
X125500000Y-126750000D01*
X110000000Y-132250000D02*
X106000000Y-136250000D01*
X126410000Y-128250000D02*
X126410000Y-127660000D01*
X106000000Y-136250000D02*
X104500000Y-136250000D01*
X103960000Y-145460000D02*
X103960000Y-145750000D01*
X102250000Y-143750000D02*
X103960000Y-145460000D01*
X103000000Y-139000000D02*
X102250000Y-139750000D01*
X102250000Y-139750000D02*
X102250000Y-143750000D01*
X103750000Y-139000000D02*
X103000000Y-139000000D01*
G04 #@! TO.N,/BUTTON||GRID_ILIM*
X143412500Y-145162500D02*
X143412500Y-145000000D01*
X144750000Y-146500000D02*
X143412500Y-145162500D01*
X144750000Y-147000000D02*
X144750000Y-146500000D01*
X145750000Y-148000000D02*
X144750000Y-147000000D01*
X154250000Y-148000000D02*
X145750000Y-148000000D01*
X156460000Y-150210000D02*
X154250000Y-148000000D01*
X156460000Y-152750000D02*
X156460000Y-150210000D01*
G04 #@! TO.N,/FAN_TACH*
X159500000Y-142412500D02*
X159500000Y-142500000D01*
X159500000Y-142500000D02*
X159000000Y-143000000D01*
X159000000Y-143000000D02*
X159000000Y-143750000D01*
X159000000Y-143750000D02*
X158000000Y-144750000D01*
X158000000Y-144750000D02*
X158000000Y-150000000D01*
X159000000Y-151000000D02*
X159000000Y-152750000D01*
X158000000Y-150000000D02*
X159000000Y-151000000D01*
G04 #@! TO.N,/DIV*
X211500000Y-145837500D02*
X210162500Y-145837500D01*
X207912500Y-144750000D02*
X209000000Y-145837500D01*
X206662500Y-144750000D02*
X207912500Y-144750000D01*
X206950000Y-144750000D02*
X206950000Y-145837500D01*
X206950000Y-145837500D02*
X206950000Y-147000000D01*
X210162500Y-145837500D02*
X209000000Y-145837500D01*
G04 #@! TD*
D29*
G04 #@! TO.N,GNDPWR*
X198123000Y-136302606D02*
X198123000Y-146197394D01*
X197447394Y-146873000D01*
X193802606Y-146873000D01*
X193377000Y-146447394D01*
X193377000Y-136302606D01*
X193802606Y-135877000D01*
X197697394Y-135877000D01*
X198123000Y-136302606D01*
G04 #@! TA.AperFunction,Conductor*
D30*
G36*
X198123000Y-136302606D02*
G01*
X198123000Y-146197394D01*
X197447394Y-146873000D01*
X193802606Y-146873000D01*
X193377000Y-146447394D01*
X193377000Y-136302606D01*
X193802606Y-135877000D01*
X197697394Y-135877000D01*
X198123000Y-136302606D01*
G37*
G04 #@! TD.AperFunction*
G04 #@! TD*
D29*
G04 #@! TO.N,/GRID_POS*
X202373000Y-144552606D02*
X202373000Y-148947394D01*
X200447394Y-150873000D01*
X185127000Y-150873000D01*
X185127000Y-149802606D01*
X185802606Y-149127000D01*
X198500000Y-149127000D01*
X198524776Y-149124560D01*
X198548601Y-149117333D01*
X198570557Y-149105597D01*
X198589803Y-149089803D01*
X200339803Y-147339803D01*
X200355597Y-147320557D01*
X200367333Y-147298601D01*
X200374560Y-147274776D01*
X200377000Y-147250000D01*
X200377000Y-144302606D01*
X201052606Y-143627000D01*
X201447394Y-143627000D01*
X202373000Y-144552606D01*
G04 #@! TA.AperFunction,Conductor*
D30*
G36*
X202373000Y-144552606D02*
G01*
X202373000Y-148947394D01*
X200447394Y-150873000D01*
X185127000Y-150873000D01*
X185127000Y-149802606D01*
X185802606Y-149127000D01*
X198500000Y-149127000D01*
X198524776Y-149124560D01*
X198548601Y-149117333D01*
X198570557Y-149105597D01*
X198589803Y-149089803D01*
X200339803Y-147339803D01*
X200355597Y-147320557D01*
X200367333Y-147298601D01*
X200374560Y-147274776D01*
X200377000Y-147250000D01*
X200377000Y-144302606D01*
X201052606Y-143627000D01*
X201447394Y-143627000D01*
X202373000Y-144552606D01*
G37*
G04 #@! TD.AperFunction*
G04 #@! TD*
D29*
G04 #@! TO.N,/HVDC_POS_BATT*
X206910197Y-137339803D02*
X206929443Y-137355597D01*
X206951399Y-137367333D01*
X206975224Y-137374560D01*
X207000000Y-137377000D01*
X213947394Y-137377000D01*
X215623000Y-139052606D01*
X215623000Y-144123000D01*
X213552606Y-144123000D01*
X211839803Y-142410197D01*
X211820557Y-142394403D01*
X211798601Y-142382667D01*
X211774776Y-142375440D01*
X211750000Y-142373000D01*
X208052606Y-142373000D01*
X204589803Y-138910197D01*
X204570557Y-138894403D01*
X204548601Y-138882667D01*
X204524776Y-138875440D01*
X204500000Y-138873000D01*
X200377000Y-138873000D01*
X200377000Y-135877000D01*
X205447394Y-135877000D01*
X206910197Y-137339803D01*
G04 #@! TA.AperFunction,Conductor*
D30*
G36*
X206910197Y-137339803D02*
G01*
X206929443Y-137355597D01*
X206951399Y-137367333D01*
X206975224Y-137374560D01*
X207000000Y-137377000D01*
X213947394Y-137377000D01*
X215623000Y-139052606D01*
X215623000Y-144123000D01*
X213552606Y-144123000D01*
X211839803Y-142410197D01*
X211820557Y-142394403D01*
X211798601Y-142382667D01*
X211774776Y-142375440D01*
X211750000Y-142373000D01*
X208052606Y-142373000D01*
X204589803Y-138910197D01*
X204570557Y-138894403D01*
X204548601Y-138882667D01*
X204524776Y-138875440D01*
X204500000Y-138873000D01*
X200377000Y-138873000D01*
X200377000Y-135877000D01*
X205447394Y-135877000D01*
X206910197Y-137339803D01*
G37*
G04 #@! TD.AperFunction*
G04 #@! TD*
D29*
G04 #@! TO.N,/GRID_POS_FUSED*
X215621097Y-154085209D02*
X215209967Y-154373000D01*
X207677000Y-154373000D01*
X207677000Y-149602606D01*
X208439803Y-148839803D01*
X208455597Y-148820557D01*
X208467333Y-148798601D01*
X208474560Y-148774776D01*
X208477000Y-148750000D01*
X208477000Y-147402606D01*
X208602606Y-147277000D01*
X215426577Y-147277000D01*
X215621097Y-154085209D01*
G04 #@! TA.AperFunction,Conductor*
D30*
G36*
X215621097Y-154085209D02*
G01*
X215209967Y-154373000D01*
X207677000Y-154373000D01*
X207677000Y-149602606D01*
X208439803Y-148839803D01*
X208455597Y-148820557D01*
X208467333Y-148798601D01*
X208474560Y-148774776D01*
X208477000Y-148750000D01*
X208477000Y-147402606D01*
X208602606Y-147277000D01*
X215426577Y-147277000D01*
X215621097Y-154085209D01*
G37*
G04 #@! TD.AperFunction*
G04 #@! TD*
D29*
G04 #@! TO.N,/HVDC_5V_REF*
X205623000Y-143002606D02*
X205623000Y-143097394D01*
X205260197Y-143460197D01*
X205244403Y-143479443D01*
X205232667Y-143501399D01*
X205225440Y-143525224D01*
X205223000Y-143550000D01*
X205223000Y-151950000D01*
X205225440Y-151974776D01*
X205232667Y-151998601D01*
X205244403Y-152020557D01*
X205260197Y-152039803D01*
X205823000Y-152602606D01*
X205823000Y-153907667D01*
X205286500Y-154623000D01*
X200477000Y-154623000D01*
X200477000Y-154301689D01*
X204440904Y-150238687D01*
X204456460Y-150219248D01*
X204467924Y-150197149D01*
X204474856Y-150173237D01*
X204477000Y-150150000D01*
X204477000Y-141856606D01*
X205623000Y-143002606D01*
G04 #@! TA.AperFunction,Conductor*
D30*
G36*
X205623000Y-143002606D02*
G01*
X205623000Y-143097394D01*
X205260197Y-143460197D01*
X205244403Y-143479443D01*
X205232667Y-143501399D01*
X205225440Y-143525224D01*
X205223000Y-143550000D01*
X205223000Y-151950000D01*
X205225440Y-151974776D01*
X205232667Y-151998601D01*
X205244403Y-152020557D01*
X205260197Y-152039803D01*
X205823000Y-152602606D01*
X205823000Y-153907667D01*
X205286500Y-154623000D01*
X200477000Y-154623000D01*
X200477000Y-154301689D01*
X204440904Y-150238687D01*
X204456460Y-150219248D01*
X204467924Y-150197149D01*
X204474856Y-150173237D01*
X204477000Y-150150000D01*
X204477000Y-141856606D01*
X205623000Y-143002606D01*
G37*
G04 #@! TD.AperFunction*
G04 #@! TD*
D29*
G04 #@! TO.N,/DIV*
X207460197Y-144439803D02*
X207479443Y-144455597D01*
X207501399Y-144467333D01*
X207525224Y-144474560D01*
X207550000Y-144477000D01*
X211097394Y-144477000D01*
X212223000Y-145602606D01*
X212223000Y-145897394D01*
X211897394Y-146223000D01*
X208150000Y-146223000D01*
X208125224Y-146225440D01*
X208101399Y-146232667D01*
X208079443Y-146244403D01*
X208060197Y-146260197D01*
X207460197Y-146860197D01*
X207444403Y-146879443D01*
X207432667Y-146901399D01*
X207425440Y-146925224D01*
X207423000Y-146950000D01*
X207423000Y-147097394D01*
X206897394Y-147623000D01*
X206277000Y-147623000D01*
X206277000Y-146643691D01*
X206393044Y-146470019D01*
X206481769Y-146255818D01*
X206527000Y-146028424D01*
X206527000Y-145796576D01*
X206481769Y-145569182D01*
X206393044Y-145354981D01*
X206277000Y-145181309D01*
X206277000Y-144277000D01*
X207297394Y-144277000D01*
X207460197Y-144439803D01*
G04 #@! TA.AperFunction,Conductor*
D30*
G36*
X207460197Y-144439803D02*
G01*
X207479443Y-144455597D01*
X207501399Y-144467333D01*
X207525224Y-144474560D01*
X207550000Y-144477000D01*
X211097394Y-144477000D01*
X212223000Y-145602606D01*
X212223000Y-145897394D01*
X211897394Y-146223000D01*
X208150000Y-146223000D01*
X208125224Y-146225440D01*
X208101399Y-146232667D01*
X208079443Y-146244403D01*
X208060197Y-146260197D01*
X207460197Y-146860197D01*
X207444403Y-146879443D01*
X207432667Y-146901399D01*
X207425440Y-146925224D01*
X207423000Y-146950000D01*
X207423000Y-147097394D01*
X206897394Y-147623000D01*
X206277000Y-147623000D01*
X206277000Y-146643691D01*
X206393044Y-146470019D01*
X206481769Y-146255818D01*
X206527000Y-146028424D01*
X206527000Y-145796576D01*
X206481769Y-145569182D01*
X206393044Y-145354981D01*
X206277000Y-145181309D01*
X206277000Y-144277000D01*
X207297394Y-144277000D01*
X207460197Y-144439803D01*
G37*
G04 #@! TD.AperFunction*
G04 #@! TD*
D29*
G04 #@! TO.N,/HVDC_POS_AUX*
X191123000Y-140447394D02*
X189947394Y-141623000D01*
X187000000Y-141623000D01*
X186975224Y-141625440D01*
X186951399Y-141632667D01*
X186929443Y-141644403D01*
X186910197Y-141660197D01*
X182419086Y-146151308D01*
X181711548Y-146623000D01*
X178377000Y-146623000D01*
X178377000Y-143377000D01*
X181750000Y-143377000D01*
X181774776Y-143374560D01*
X181798601Y-143367333D01*
X181820557Y-143355597D01*
X181839803Y-143339803D01*
X185075232Y-140104374D01*
X186029980Y-139627000D01*
X188500000Y-139627000D01*
X188524776Y-139624560D01*
X188548601Y-139617333D01*
X188570557Y-139605597D01*
X188589803Y-139589803D01*
X189802606Y-138377000D01*
X191123000Y-138377000D01*
X191123000Y-140447394D01*
G04 #@! TA.AperFunction,Conductor*
D30*
G36*
X191123000Y-140447394D02*
G01*
X189947394Y-141623000D01*
X187000000Y-141623000D01*
X186975224Y-141625440D01*
X186951399Y-141632667D01*
X186929443Y-141644403D01*
X186910197Y-141660197D01*
X182419086Y-146151308D01*
X181711548Y-146623000D01*
X178377000Y-146623000D01*
X178377000Y-143377000D01*
X181750000Y-143377000D01*
X181774776Y-143374560D01*
X181798601Y-143367333D01*
X181820557Y-143355597D01*
X181839803Y-143339803D01*
X185075232Y-140104374D01*
X186029980Y-139627000D01*
X188500000Y-139627000D01*
X188524776Y-139624560D01*
X188548601Y-139617333D01*
X188570557Y-139605597D01*
X188589803Y-139589803D01*
X189802606Y-138377000D01*
X191123000Y-138377000D01*
X191123000Y-140447394D01*
G37*
G04 #@! TD.AperFunction*
G04 #@! TD*
D29*
G04 #@! TO.N,GND*
X162304305Y-144159506D02*
X162525000Y-144181243D01*
X163475000Y-144181243D01*
X163623000Y-144166666D01*
X163623000Y-151000000D01*
X163625440Y-151024776D01*
X163632667Y-151048601D01*
X163644403Y-151070557D01*
X163660197Y-151089803D01*
X164873000Y-152302606D01*
X164873000Y-154197394D01*
X164272394Y-154798000D01*
X161545818Y-154798000D01*
X161862576Y-154481243D01*
X162600000Y-154481243D01*
X162771922Y-154464310D01*
X162937237Y-154414162D01*
X163089592Y-154332727D01*
X163223133Y-154223133D01*
X163332727Y-154089592D01*
X163414162Y-153937237D01*
X163464310Y-153771922D01*
X163481243Y-153600000D01*
X163481243Y-151900000D01*
X163464310Y-151728078D01*
X163414162Y-151562763D01*
X163332727Y-151410408D01*
X163223133Y-151276867D01*
X163089592Y-151167273D01*
X162937237Y-151085838D01*
X162771922Y-151035690D01*
X162600000Y-151018757D01*
X160900000Y-151018757D01*
X160728078Y-151035690D01*
X160562763Y-151085838D01*
X160410408Y-151167273D01*
X160375000Y-151196332D01*
X160339592Y-151167273D01*
X160187237Y-151085838D01*
X160127000Y-151067565D01*
X160127000Y-151055364D01*
X160132453Y-151000000D01*
X160110693Y-150779069D01*
X160046250Y-150566629D01*
X159941600Y-150370843D01*
X159836058Y-150242239D01*
X159836055Y-150242236D01*
X159800765Y-150199235D01*
X159757764Y-150163945D01*
X159127000Y-149533182D01*
X159127000Y-148924797D01*
X159343318Y-148881769D01*
X159557519Y-148793044D01*
X159750294Y-148664236D01*
X159914236Y-148500294D01*
X160043044Y-148307519D01*
X160043573Y-148306243D01*
X160450002Y-148306243D01*
X160670696Y-148284507D01*
X160882909Y-148220132D01*
X161078486Y-148115595D01*
X161249910Y-147974910D01*
X161390595Y-147803486D01*
X161495132Y-147607909D01*
X161559507Y-147395696D01*
X161581243Y-147175002D01*
X161581243Y-146649998D01*
X161559507Y-146429304D01*
X161495132Y-146217091D01*
X161390595Y-146021514D01*
X161372939Y-146000000D01*
X161390595Y-145978486D01*
X161495132Y-145782909D01*
X161559507Y-145570696D01*
X161573147Y-145432203D01*
X161610693Y-145308431D01*
X161627000Y-145142864D01*
X161627000Y-144716818D01*
X162212240Y-144131578D01*
X162304305Y-144159506D01*
G04 #@! TA.AperFunction,Conductor*
D30*
G36*
X162304305Y-144159506D02*
G01*
X162525000Y-144181243D01*
X163475000Y-144181243D01*
X163623000Y-144166666D01*
X163623000Y-151000000D01*
X163625440Y-151024776D01*
X163632667Y-151048601D01*
X163644403Y-151070557D01*
X163660197Y-151089803D01*
X164873000Y-152302606D01*
X164873000Y-154197394D01*
X164272394Y-154798000D01*
X161545818Y-154798000D01*
X161862576Y-154481243D01*
X162600000Y-154481243D01*
X162771922Y-154464310D01*
X162937237Y-154414162D01*
X163089592Y-154332727D01*
X163223133Y-154223133D01*
X163332727Y-154089592D01*
X163414162Y-153937237D01*
X163464310Y-153771922D01*
X163481243Y-153600000D01*
X163481243Y-151900000D01*
X163464310Y-151728078D01*
X163414162Y-151562763D01*
X163332727Y-151410408D01*
X163223133Y-151276867D01*
X163089592Y-151167273D01*
X162937237Y-151085838D01*
X162771922Y-151035690D01*
X162600000Y-151018757D01*
X160900000Y-151018757D01*
X160728078Y-151035690D01*
X160562763Y-151085838D01*
X160410408Y-151167273D01*
X160375000Y-151196332D01*
X160339592Y-151167273D01*
X160187237Y-151085838D01*
X160127000Y-151067565D01*
X160127000Y-151055364D01*
X160132453Y-151000000D01*
X160110693Y-150779069D01*
X160046250Y-150566629D01*
X159941600Y-150370843D01*
X159836058Y-150242239D01*
X159836055Y-150242236D01*
X159800765Y-150199235D01*
X159757764Y-150163945D01*
X159127000Y-149533182D01*
X159127000Y-148924797D01*
X159343318Y-148881769D01*
X159557519Y-148793044D01*
X159750294Y-148664236D01*
X159914236Y-148500294D01*
X160043044Y-148307519D01*
X160043573Y-148306243D01*
X160450002Y-148306243D01*
X160670696Y-148284507D01*
X160882909Y-148220132D01*
X161078486Y-148115595D01*
X161249910Y-147974910D01*
X161390595Y-147803486D01*
X161495132Y-147607909D01*
X161559507Y-147395696D01*
X161581243Y-147175002D01*
X161581243Y-146649998D01*
X161559507Y-146429304D01*
X161495132Y-146217091D01*
X161390595Y-146021514D01*
X161372939Y-146000000D01*
X161390595Y-145978486D01*
X161495132Y-145782909D01*
X161559507Y-145570696D01*
X161573147Y-145432203D01*
X161610693Y-145308431D01*
X161627000Y-145142864D01*
X161627000Y-144716818D01*
X162212240Y-144131578D01*
X162304305Y-144159506D01*
G37*
G04 #@! TD.AperFunction*
D29*
X152691918Y-151535736D02*
X152578552Y-151649102D01*
X152389553Y-151931959D01*
X152259368Y-152246253D01*
X152193000Y-152579905D01*
X152193000Y-152920095D01*
X152259368Y-153253747D01*
X152389553Y-153568041D01*
X152578552Y-153850898D01*
X152819102Y-154091448D01*
X153101959Y-154280447D01*
X153416253Y-154410632D01*
X153749905Y-154477000D01*
X153883182Y-154477000D01*
X154204181Y-154798000D01*
X143631907Y-154798000D01*
X143723133Y-154723133D01*
X143832727Y-154589592D01*
X143914162Y-154437237D01*
X143964310Y-154271922D01*
X143981243Y-154100000D01*
X143981243Y-153417540D01*
X144026867Y-153473133D01*
X144160408Y-153582727D01*
X144312763Y-153664162D01*
X144478078Y-153714310D01*
X144650000Y-153731243D01*
X146350000Y-153731243D01*
X146521922Y-153714310D01*
X146687237Y-153664162D01*
X146839592Y-153582727D01*
X146973133Y-153473133D01*
X147082727Y-153339592D01*
X147164162Y-153187237D01*
X147214310Y-153021922D01*
X147231243Y-152850000D01*
X147231243Y-151377000D01*
X149212470Y-151377000D01*
X149249706Y-151414236D01*
X149442481Y-151543044D01*
X149656682Y-151631769D01*
X149884076Y-151677000D01*
X150115924Y-151677000D01*
X150343318Y-151631769D01*
X150557519Y-151543044D01*
X150750294Y-151414236D01*
X150914236Y-151250294D01*
X151043044Y-151057519D01*
X151131769Y-150843318D01*
X151177000Y-150615924D01*
X151177000Y-150384076D01*
X151175593Y-150377000D01*
X151533182Y-150377000D01*
X152691918Y-151535736D01*
G04 #@! TA.AperFunction,Conductor*
D30*
G36*
X152691918Y-151535736D02*
G01*
X152578552Y-151649102D01*
X152389553Y-151931959D01*
X152259368Y-152246253D01*
X152193000Y-152579905D01*
X152193000Y-152920095D01*
X152259368Y-153253747D01*
X152389553Y-153568041D01*
X152578552Y-153850898D01*
X152819102Y-154091448D01*
X153101959Y-154280447D01*
X153416253Y-154410632D01*
X153749905Y-154477000D01*
X153883182Y-154477000D01*
X154204181Y-154798000D01*
X143631907Y-154798000D01*
X143723133Y-154723133D01*
X143832727Y-154589592D01*
X143914162Y-154437237D01*
X143964310Y-154271922D01*
X143981243Y-154100000D01*
X143981243Y-153417540D01*
X144026867Y-153473133D01*
X144160408Y-153582727D01*
X144312763Y-153664162D01*
X144478078Y-153714310D01*
X144650000Y-153731243D01*
X146350000Y-153731243D01*
X146521922Y-153714310D01*
X146687237Y-153664162D01*
X146839592Y-153582727D01*
X146973133Y-153473133D01*
X147082727Y-153339592D01*
X147164162Y-153187237D01*
X147214310Y-153021922D01*
X147231243Y-152850000D01*
X147231243Y-151377000D01*
X149212470Y-151377000D01*
X149249706Y-151414236D01*
X149442481Y-151543044D01*
X149656682Y-151631769D01*
X149884076Y-151677000D01*
X150115924Y-151677000D01*
X150343318Y-151631769D01*
X150557519Y-151543044D01*
X150750294Y-151414236D01*
X150914236Y-151250294D01*
X151043044Y-151057519D01*
X151131769Y-150843318D01*
X151177000Y-150615924D01*
X151177000Y-150384076D01*
X151175593Y-150377000D01*
X151533182Y-150377000D01*
X152691918Y-151535736D01*
G37*
G04 #@! TD.AperFunction*
D29*
X111953678Y-126702504D02*
X109242242Y-129413940D01*
X109199235Y-129449235D01*
X109058400Y-129620843D01*
X108953750Y-129816630D01*
X108889307Y-130029070D01*
X108873000Y-130194636D01*
X108873000Y-130194646D01*
X108867548Y-130250000D01*
X108873000Y-130305355D01*
X108873001Y-131783180D01*
X105533182Y-135123000D01*
X104854831Y-135123000D01*
X104843318Y-135118231D01*
X104615924Y-135073000D01*
X104384076Y-135073000D01*
X104156682Y-135118231D01*
X103942481Y-135206956D01*
X103749706Y-135335764D01*
X103585764Y-135499706D01*
X103456956Y-135692481D01*
X103368231Y-135906682D01*
X103323000Y-136134076D01*
X103323000Y-136365924D01*
X103324407Y-136373000D01*
X102555354Y-136373000D01*
X102499999Y-136367548D01*
X102444645Y-136373000D01*
X102444635Y-136373000D01*
X102279069Y-136389307D01*
X102066629Y-136453750D01*
X101913190Y-136535765D01*
X101870843Y-136558400D01*
X101742239Y-136663942D01*
X101742236Y-136663945D01*
X101699235Y-136699235D01*
X101663945Y-136742236D01*
X100242241Y-138163941D01*
X100199235Y-138199235D01*
X100058400Y-138370843D01*
X99953750Y-138566630D01*
X99889307Y-138779070D01*
X99873000Y-138944636D01*
X99873000Y-138944646D01*
X99867548Y-139000000D01*
X99873000Y-139055355D01*
X99873001Y-144971919D01*
X99759368Y-145246253D01*
X99693000Y-145579905D01*
X99693000Y-145920095D01*
X99759368Y-146253747D01*
X99889553Y-146568041D01*
X100078552Y-146850898D01*
X100293001Y-147065347D01*
X100293000Y-147684654D01*
X100078552Y-147899102D01*
X99889553Y-148181959D01*
X99759368Y-148496253D01*
X99693000Y-148829905D01*
X99693000Y-149170095D01*
X99759368Y-149503747D01*
X99889553Y-149818041D01*
X100078552Y-150100898D01*
X100319102Y-150341448D01*
X100601959Y-150530447D01*
X100916253Y-150660632D01*
X101249905Y-150727000D01*
X101590095Y-150727000D01*
X101923747Y-150660632D01*
X102238041Y-150530447D01*
X102520898Y-150341448D01*
X102690000Y-150172346D01*
X102859102Y-150341448D01*
X103141959Y-150530447D01*
X103456253Y-150660632D01*
X103789905Y-150727000D01*
X104130095Y-150727000D01*
X104463747Y-150660632D01*
X104778041Y-150530447D01*
X104969122Y-150402771D01*
X105026867Y-150473133D01*
X105160408Y-150582727D01*
X105312763Y-150664162D01*
X105478078Y-150714310D01*
X105650000Y-150731243D01*
X106338845Y-150731243D01*
X106520495Y-150828337D01*
X106780061Y-150907075D01*
X106982360Y-150927000D01*
X106982370Y-150927000D01*
X107049999Y-150933661D01*
X107117629Y-150927000D01*
X108981921Y-150927000D01*
X109025000Y-150931243D01*
X109975000Y-150931243D01*
X110195695Y-150909506D01*
X110407908Y-150845132D01*
X110603485Y-150740594D01*
X110774910Y-150599910D01*
X110915594Y-150428485D01*
X111020132Y-150232908D01*
X111084506Y-150020695D01*
X111106243Y-149800000D01*
X111106243Y-149300000D01*
X119943757Y-149300000D01*
X119943757Y-149800000D01*
X119965494Y-150020695D01*
X120029868Y-150232908D01*
X120134406Y-150428485D01*
X120275090Y-150599910D01*
X120446515Y-150740594D01*
X120642092Y-150845132D01*
X120854305Y-150909506D01*
X121075000Y-150931243D01*
X121725440Y-150931243D01*
X121750000Y-150933662D01*
X121774560Y-150931243D01*
X122025000Y-150931243D01*
X122245695Y-150909506D01*
X122457908Y-150845132D01*
X122653485Y-150740594D01*
X122824910Y-150599910D01*
X122965594Y-150428485D01*
X123070132Y-150232908D01*
X123134506Y-150020695D01*
X123156243Y-149800000D01*
X123156243Y-149300000D01*
X123134506Y-149079305D01*
X123127000Y-149054561D01*
X123127000Y-148182360D01*
X123107075Y-147980061D01*
X123028337Y-147720495D01*
X122900473Y-147481279D01*
X122728397Y-147271603D01*
X122518721Y-147099527D01*
X122279505Y-146971663D01*
X122019939Y-146892925D01*
X121750000Y-146866338D01*
X121480062Y-146892925D01*
X121220496Y-146971663D01*
X120981280Y-147099527D01*
X120771604Y-147271603D01*
X120599528Y-147481279D01*
X120471663Y-147720495D01*
X120392925Y-147980061D01*
X120373000Y-148182360D01*
X120373000Y-148419738D01*
X120275090Y-148500090D01*
X120134406Y-148671515D01*
X120029868Y-148867092D01*
X119965494Y-149079305D01*
X119943757Y-149300000D01*
X111106243Y-149300000D01*
X111084506Y-149079305D01*
X111020132Y-148867092D01*
X110915594Y-148671515D01*
X110774910Y-148500090D01*
X110603485Y-148359406D01*
X110407908Y-148254868D01*
X110195695Y-148190494D01*
X109975000Y-148168757D01*
X109025000Y-148168757D01*
X108981921Y-148173000D01*
X108231243Y-148173000D01*
X108231243Y-148150000D01*
X108214310Y-147978078D01*
X108164162Y-147812763D01*
X108082727Y-147660408D01*
X107973133Y-147526867D01*
X107839592Y-147417273D01*
X107687237Y-147335838D01*
X107521922Y-147285690D01*
X107350000Y-147268757D01*
X107335536Y-147268757D01*
X107600898Y-147091448D01*
X107841448Y-146850898D01*
X108030447Y-146568041D01*
X108160632Y-146253747D01*
X108227000Y-145920095D01*
X108227000Y-145579905D01*
X108160632Y-145246253D01*
X108030447Y-144931959D01*
X107841448Y-144649102D01*
X107600898Y-144408552D01*
X107318041Y-144219553D01*
X107003747Y-144089368D01*
X106670095Y-144023000D01*
X106329905Y-144023000D01*
X105996253Y-144089368D01*
X105681959Y-144219553D01*
X105399102Y-144408552D01*
X105230000Y-144577654D01*
X105060898Y-144408552D01*
X104778041Y-144219553D01*
X104463747Y-144089368D01*
X104130095Y-144023000D01*
X104116819Y-144023000D01*
X103377000Y-143283182D01*
X103377000Y-141916666D01*
X103525000Y-141931243D01*
X104475000Y-141931243D01*
X104695695Y-141909506D01*
X104907908Y-141845132D01*
X105103485Y-141740594D01*
X105274910Y-141599910D01*
X105415594Y-141428485D01*
X105500000Y-141270572D01*
X105584406Y-141428485D01*
X105725090Y-141599910D01*
X105896515Y-141740594D01*
X106092092Y-141845132D01*
X106304305Y-141909506D01*
X106525000Y-141931243D01*
X107475000Y-141931243D01*
X107695695Y-141909506D01*
X107907908Y-141845132D01*
X108103485Y-141740594D01*
X108274910Y-141599910D01*
X108415594Y-141428485D01*
X108500000Y-141270572D01*
X108584406Y-141428485D01*
X108725090Y-141599910D01*
X108896515Y-141740594D01*
X109092092Y-141845132D01*
X109304305Y-141909506D01*
X109525000Y-141931243D01*
X110475000Y-141931243D01*
X110695695Y-141909506D01*
X110907908Y-141845132D01*
X111103485Y-141740594D01*
X111274910Y-141599910D01*
X111415594Y-141428485D01*
X111520132Y-141232908D01*
X111584506Y-141020695D01*
X111606243Y-140800000D01*
X111606243Y-140300000D01*
X111584506Y-140079305D01*
X111520132Y-139867092D01*
X111415594Y-139671515D01*
X111305930Y-139537888D01*
X114452864Y-136390955D01*
X114634076Y-136427000D01*
X114865924Y-136427000D01*
X115093318Y-136381769D01*
X115307519Y-136293044D01*
X115500294Y-136164236D01*
X115664236Y-136000294D01*
X115793044Y-135807519D01*
X115881769Y-135593318D01*
X115901302Y-135495120D01*
X120163945Y-139757764D01*
X120199235Y-139800765D01*
X120242236Y-139836055D01*
X120242239Y-139836058D01*
X120345552Y-139920844D01*
X120370843Y-139941600D01*
X120566629Y-140046250D01*
X120779069Y-140110693D01*
X120944635Y-140127000D01*
X120944645Y-140127000D01*
X120999999Y-140132452D01*
X121055354Y-140127000D01*
X124783182Y-140127000D01*
X127623001Y-142966819D01*
X127623000Y-148694645D01*
X127617548Y-148750000D01*
X127623000Y-148805354D01*
X127623000Y-148805364D01*
X127639307Y-148970930D01*
X127703750Y-149183370D01*
X127808400Y-149379157D01*
X127949235Y-149550765D01*
X127992241Y-149586059D01*
X129373000Y-150966819D01*
X129373000Y-151283181D01*
X129071919Y-151584263D01*
X129046253Y-151589368D01*
X128731959Y-151719553D01*
X128449102Y-151908552D01*
X128208552Y-152149102D01*
X128019553Y-152431959D01*
X127889368Y-152746253D01*
X127823000Y-153079905D01*
X127823000Y-153420095D01*
X127889368Y-153753747D01*
X128019553Y-154068041D01*
X128208552Y-154350898D01*
X128449102Y-154591448D01*
X128731959Y-154780447D01*
X128774336Y-154798000D01*
X100977606Y-154798000D01*
X98202184Y-152022578D01*
X98209341Y-133546749D01*
X98276507Y-132861729D01*
X98461872Y-132247773D01*
X98762957Y-131681513D01*
X99202935Y-131142048D01*
X101263610Y-128915996D01*
X101597229Y-128582377D01*
X101427503Y-128992132D01*
X101294719Y-129659684D01*
X101294719Y-130340316D01*
X101427503Y-131007868D01*
X101687969Y-131636689D01*
X102066108Y-132202613D01*
X102547387Y-132683892D01*
X103113311Y-133062031D01*
X103742132Y-133322497D01*
X104409684Y-133455281D01*
X105090316Y-133455281D01*
X105757868Y-133322497D01*
X106386689Y-133062031D01*
X106952613Y-132683892D01*
X107433892Y-132202613D01*
X107812031Y-131636689D01*
X108072497Y-131007868D01*
X108205281Y-130340316D01*
X108205281Y-129659684D01*
X108072497Y-128992132D01*
X107812031Y-128363311D01*
X107433892Y-127797387D01*
X106952613Y-127316108D01*
X106386689Y-126937969D01*
X105817188Y-126702074D01*
X111953678Y-126702504D01*
G04 #@! TA.AperFunction,Conductor*
D30*
G36*
X111953678Y-126702504D02*
G01*
X109242242Y-129413940D01*
X109199235Y-129449235D01*
X109058400Y-129620843D01*
X108953750Y-129816630D01*
X108889307Y-130029070D01*
X108873000Y-130194636D01*
X108873000Y-130194646D01*
X108867548Y-130250000D01*
X108873000Y-130305355D01*
X108873001Y-131783180D01*
X105533182Y-135123000D01*
X104854831Y-135123000D01*
X104843318Y-135118231D01*
X104615924Y-135073000D01*
X104384076Y-135073000D01*
X104156682Y-135118231D01*
X103942481Y-135206956D01*
X103749706Y-135335764D01*
X103585764Y-135499706D01*
X103456956Y-135692481D01*
X103368231Y-135906682D01*
X103323000Y-136134076D01*
X103323000Y-136365924D01*
X103324407Y-136373000D01*
X102555354Y-136373000D01*
X102499999Y-136367548D01*
X102444645Y-136373000D01*
X102444635Y-136373000D01*
X102279069Y-136389307D01*
X102066629Y-136453750D01*
X101913190Y-136535765D01*
X101870843Y-136558400D01*
X101742239Y-136663942D01*
X101742236Y-136663945D01*
X101699235Y-136699235D01*
X101663945Y-136742236D01*
X100242241Y-138163941D01*
X100199235Y-138199235D01*
X100058400Y-138370843D01*
X99953750Y-138566630D01*
X99889307Y-138779070D01*
X99873000Y-138944636D01*
X99873000Y-138944646D01*
X99867548Y-139000000D01*
X99873000Y-139055355D01*
X99873001Y-144971919D01*
X99759368Y-145246253D01*
X99693000Y-145579905D01*
X99693000Y-145920095D01*
X99759368Y-146253747D01*
X99889553Y-146568041D01*
X100078552Y-146850898D01*
X100293001Y-147065347D01*
X100293000Y-147684654D01*
X100078552Y-147899102D01*
X99889553Y-148181959D01*
X99759368Y-148496253D01*
X99693000Y-148829905D01*
X99693000Y-149170095D01*
X99759368Y-149503747D01*
X99889553Y-149818041D01*
X100078552Y-150100898D01*
X100319102Y-150341448D01*
X100601959Y-150530447D01*
X100916253Y-150660632D01*
X101249905Y-150727000D01*
X101590095Y-150727000D01*
X101923747Y-150660632D01*
X102238041Y-150530447D01*
X102520898Y-150341448D01*
X102690000Y-150172346D01*
X102859102Y-150341448D01*
X103141959Y-150530447D01*
X103456253Y-150660632D01*
X103789905Y-150727000D01*
X104130095Y-150727000D01*
X104463747Y-150660632D01*
X104778041Y-150530447D01*
X104969122Y-150402771D01*
X105026867Y-150473133D01*
X105160408Y-150582727D01*
X105312763Y-150664162D01*
X105478078Y-150714310D01*
X105650000Y-150731243D01*
X106338845Y-150731243D01*
X106520495Y-150828337D01*
X106780061Y-150907075D01*
X106982360Y-150927000D01*
X106982370Y-150927000D01*
X107049999Y-150933661D01*
X107117629Y-150927000D01*
X108981921Y-150927000D01*
X109025000Y-150931243D01*
X109975000Y-150931243D01*
X110195695Y-150909506D01*
X110407908Y-150845132D01*
X110603485Y-150740594D01*
X110774910Y-150599910D01*
X110915594Y-150428485D01*
X111020132Y-150232908D01*
X111084506Y-150020695D01*
X111106243Y-149800000D01*
X111106243Y-149300000D01*
X119943757Y-149300000D01*
X119943757Y-149800000D01*
X119965494Y-150020695D01*
X120029868Y-150232908D01*
X120134406Y-150428485D01*
X120275090Y-150599910D01*
X120446515Y-150740594D01*
X120642092Y-150845132D01*
X120854305Y-150909506D01*
X121075000Y-150931243D01*
X121725440Y-150931243D01*
X121750000Y-150933662D01*
X121774560Y-150931243D01*
X122025000Y-150931243D01*
X122245695Y-150909506D01*
X122457908Y-150845132D01*
X122653485Y-150740594D01*
X122824910Y-150599910D01*
X122965594Y-150428485D01*
X123070132Y-150232908D01*
X123134506Y-150020695D01*
X123156243Y-149800000D01*
X123156243Y-149300000D01*
X123134506Y-149079305D01*
X123127000Y-149054561D01*
X123127000Y-148182360D01*
X123107075Y-147980061D01*
X123028337Y-147720495D01*
X122900473Y-147481279D01*
X122728397Y-147271603D01*
X122518721Y-147099527D01*
X122279505Y-146971663D01*
X122019939Y-146892925D01*
X121750000Y-146866338D01*
X121480062Y-146892925D01*
X121220496Y-146971663D01*
X120981280Y-147099527D01*
X120771604Y-147271603D01*
X120599528Y-147481279D01*
X120471663Y-147720495D01*
X120392925Y-147980061D01*
X120373000Y-148182360D01*
X120373000Y-148419738D01*
X120275090Y-148500090D01*
X120134406Y-148671515D01*
X120029868Y-148867092D01*
X119965494Y-149079305D01*
X119943757Y-149300000D01*
X111106243Y-149300000D01*
X111084506Y-149079305D01*
X111020132Y-148867092D01*
X110915594Y-148671515D01*
X110774910Y-148500090D01*
X110603485Y-148359406D01*
X110407908Y-148254868D01*
X110195695Y-148190494D01*
X109975000Y-148168757D01*
X109025000Y-148168757D01*
X108981921Y-148173000D01*
X108231243Y-148173000D01*
X108231243Y-148150000D01*
X108214310Y-147978078D01*
X108164162Y-147812763D01*
X108082727Y-147660408D01*
X107973133Y-147526867D01*
X107839592Y-147417273D01*
X107687237Y-147335838D01*
X107521922Y-147285690D01*
X107350000Y-147268757D01*
X107335536Y-147268757D01*
X107600898Y-147091448D01*
X107841448Y-146850898D01*
X108030447Y-146568041D01*
X108160632Y-146253747D01*
X108227000Y-145920095D01*
X108227000Y-145579905D01*
X108160632Y-145246253D01*
X108030447Y-144931959D01*
X107841448Y-144649102D01*
X107600898Y-144408552D01*
X107318041Y-144219553D01*
X107003747Y-144089368D01*
X106670095Y-144023000D01*
X106329905Y-144023000D01*
X105996253Y-144089368D01*
X105681959Y-144219553D01*
X105399102Y-144408552D01*
X105230000Y-144577654D01*
X105060898Y-144408552D01*
X104778041Y-144219553D01*
X104463747Y-144089368D01*
X104130095Y-144023000D01*
X104116819Y-144023000D01*
X103377000Y-143283182D01*
X103377000Y-141916666D01*
X103525000Y-141931243D01*
X104475000Y-141931243D01*
X104695695Y-141909506D01*
X104907908Y-141845132D01*
X105103485Y-141740594D01*
X105274910Y-141599910D01*
X105415594Y-141428485D01*
X105500000Y-141270572D01*
X105584406Y-141428485D01*
X105725090Y-141599910D01*
X105896515Y-141740594D01*
X106092092Y-141845132D01*
X106304305Y-141909506D01*
X106525000Y-141931243D01*
X107475000Y-141931243D01*
X107695695Y-141909506D01*
X107907908Y-141845132D01*
X108103485Y-141740594D01*
X108274910Y-141599910D01*
X108415594Y-141428485D01*
X108500000Y-141270572D01*
X108584406Y-141428485D01*
X108725090Y-141599910D01*
X108896515Y-141740594D01*
X109092092Y-141845132D01*
X109304305Y-141909506D01*
X109525000Y-141931243D01*
X110475000Y-141931243D01*
X110695695Y-141909506D01*
X110907908Y-141845132D01*
X111103485Y-141740594D01*
X111274910Y-141599910D01*
X111415594Y-141428485D01*
X111520132Y-141232908D01*
X111584506Y-141020695D01*
X111606243Y-140800000D01*
X111606243Y-140300000D01*
X111584506Y-140079305D01*
X111520132Y-139867092D01*
X111415594Y-139671515D01*
X111305930Y-139537888D01*
X114452864Y-136390955D01*
X114634076Y-136427000D01*
X114865924Y-136427000D01*
X115093318Y-136381769D01*
X115307519Y-136293044D01*
X115500294Y-136164236D01*
X115664236Y-136000294D01*
X115793044Y-135807519D01*
X115881769Y-135593318D01*
X115901302Y-135495120D01*
X120163945Y-139757764D01*
X120199235Y-139800765D01*
X120242236Y-139836055D01*
X120242239Y-139836058D01*
X120345552Y-139920844D01*
X120370843Y-139941600D01*
X120566629Y-140046250D01*
X120779069Y-140110693D01*
X120944635Y-140127000D01*
X120944645Y-140127000D01*
X120999999Y-140132452D01*
X121055354Y-140127000D01*
X124783182Y-140127000D01*
X127623001Y-142966819D01*
X127623000Y-148694645D01*
X127617548Y-148750000D01*
X127623000Y-148805354D01*
X127623000Y-148805364D01*
X127639307Y-148970930D01*
X127703750Y-149183370D01*
X127808400Y-149379157D01*
X127949235Y-149550765D01*
X127992241Y-149586059D01*
X129373000Y-150966819D01*
X129373000Y-151283181D01*
X129071919Y-151584263D01*
X129046253Y-151589368D01*
X128731959Y-151719553D01*
X128449102Y-151908552D01*
X128208552Y-152149102D01*
X128019553Y-152431959D01*
X127889368Y-152746253D01*
X127823000Y-153079905D01*
X127823000Y-153420095D01*
X127889368Y-153753747D01*
X128019553Y-154068041D01*
X128208552Y-154350898D01*
X128449102Y-154591448D01*
X128731959Y-154780447D01*
X128774336Y-154798000D01*
X100977606Y-154798000D01*
X98202184Y-152022578D01*
X98209341Y-133546749D01*
X98276507Y-132861729D01*
X98461872Y-132247773D01*
X98762957Y-131681513D01*
X99202935Y-131142048D01*
X101263610Y-128915996D01*
X101597229Y-128582377D01*
X101427503Y-128992132D01*
X101294719Y-129659684D01*
X101294719Y-130340316D01*
X101427503Y-131007868D01*
X101687969Y-131636689D01*
X102066108Y-132202613D01*
X102547387Y-132683892D01*
X103113311Y-133062031D01*
X103742132Y-133322497D01*
X104409684Y-133455281D01*
X105090316Y-133455281D01*
X105757868Y-133322497D01*
X106386689Y-133062031D01*
X106952613Y-132683892D01*
X107433892Y-132202613D01*
X107812031Y-131636689D01*
X108072497Y-131007868D01*
X108205281Y-130340316D01*
X108205281Y-129659684D01*
X108072497Y-128992132D01*
X107812031Y-128363311D01*
X107433892Y-127797387D01*
X106952613Y-127316108D01*
X106386689Y-126937969D01*
X105817188Y-126702074D01*
X111953678Y-126702504D01*
G37*
G04 #@! TD.AperFunction*
D29*
X154665494Y-145020695D02*
X154729868Y-145232908D01*
X154834406Y-145428485D01*
X154975090Y-145599910D01*
X155146515Y-145740594D01*
X155342092Y-145845132D01*
X155554305Y-145909506D01*
X155775000Y-145931243D01*
X156725000Y-145931243D01*
X156873000Y-145916666D01*
X156873001Y-149029182D01*
X155086057Y-147242239D01*
X155050765Y-147199235D01*
X154879157Y-147058400D01*
X154683371Y-146953750D01*
X154553818Y-146914450D01*
X154559507Y-146895696D01*
X154581243Y-146675002D01*
X154581243Y-146149998D01*
X154559507Y-145929304D01*
X154495132Y-145717091D01*
X154390595Y-145521514D01*
X154372939Y-145500000D01*
X154390595Y-145478486D01*
X154495132Y-145282909D01*
X154559507Y-145070696D01*
X154563482Y-145030336D01*
X154657212Y-144936607D01*
X154665494Y-145020695D01*
G04 #@! TA.AperFunction,Conductor*
D30*
G36*
X154665494Y-145020695D02*
G01*
X154729868Y-145232908D01*
X154834406Y-145428485D01*
X154975090Y-145599910D01*
X155146515Y-145740594D01*
X155342092Y-145845132D01*
X155554305Y-145909506D01*
X155775000Y-145931243D01*
X156725000Y-145931243D01*
X156873000Y-145916666D01*
X156873001Y-149029182D01*
X155086057Y-147242239D01*
X155050765Y-147199235D01*
X154879157Y-147058400D01*
X154683371Y-146953750D01*
X154553818Y-146914450D01*
X154559507Y-146895696D01*
X154581243Y-146675002D01*
X154581243Y-146149998D01*
X154559507Y-145929304D01*
X154495132Y-145717091D01*
X154390595Y-145521514D01*
X154372939Y-145500000D01*
X154390595Y-145478486D01*
X154495132Y-145282909D01*
X154559507Y-145070696D01*
X154563482Y-145030336D01*
X154657212Y-144936607D01*
X154665494Y-145020695D01*
G37*
G04 #@! TD.AperFunction*
D29*
X137106682Y-145681769D02*
X137257693Y-145711807D01*
X137254868Y-145717091D01*
X137190493Y-145929304D01*
X137168757Y-146149998D01*
X137168757Y-146675002D01*
X137190493Y-146895696D01*
X137254868Y-147107909D01*
X137281466Y-147157670D01*
X137220931Y-147139307D01*
X137055365Y-147123000D01*
X137055354Y-147123000D01*
X137000000Y-147117548D01*
X136944646Y-147123000D01*
X135716819Y-147123000D01*
X135127000Y-146533182D01*
X135127000Y-145916666D01*
X135275000Y-145931243D01*
X136225000Y-145931243D01*
X136445695Y-145909506D01*
X136657908Y-145845132D01*
X136853485Y-145740594D01*
X136930975Y-145677000D01*
X137095169Y-145677000D01*
X137106682Y-145681769D01*
G04 #@! TA.AperFunction,Conductor*
D30*
G36*
X137106682Y-145681769D02*
G01*
X137257693Y-145711807D01*
X137254868Y-145717091D01*
X137190493Y-145929304D01*
X137168757Y-146149998D01*
X137168757Y-146675002D01*
X137190493Y-146895696D01*
X137254868Y-147107909D01*
X137281466Y-147157670D01*
X137220931Y-147139307D01*
X137055365Y-147123000D01*
X137055354Y-147123000D01*
X137000000Y-147117548D01*
X136944646Y-147123000D01*
X135716819Y-147123000D01*
X135127000Y-146533182D01*
X135127000Y-145916666D01*
X135275000Y-145931243D01*
X136225000Y-145931243D01*
X136445695Y-145909506D01*
X136657908Y-145845132D01*
X136853485Y-145740594D01*
X136930975Y-145677000D01*
X137095169Y-145677000D01*
X137106682Y-145681769D01*
G37*
G04 #@! TD.AperFunction*
D29*
X162873000Y-126706073D02*
X162873000Y-131500000D01*
X162875440Y-131524776D01*
X162882667Y-131548601D01*
X162894403Y-131570557D01*
X162910197Y-131589803D01*
X163623000Y-132302606D01*
X163623000Y-137460180D01*
X163456250Y-137443757D01*
X163314500Y-137443757D01*
X163314500Y-136992857D01*
X163319952Y-136937500D01*
X163314500Y-136882143D01*
X163314500Y-136882135D01*
X163298193Y-136716569D01*
X163233750Y-136504129D01*
X163129100Y-136308343D01*
X163119176Y-136296250D01*
X163023558Y-136179739D01*
X163023555Y-136179736D01*
X162988265Y-136136735D01*
X162945264Y-136101445D01*
X162616243Y-135772424D01*
X162616243Y-134630000D01*
X162599310Y-134458078D01*
X162549162Y-134292763D01*
X162526305Y-134250000D01*
X162549162Y-134207237D01*
X162599310Y-134041922D01*
X162616243Y-133870000D01*
X162616243Y-132090000D01*
X162599310Y-131918078D01*
X162549162Y-131752763D01*
X162467727Y-131600408D01*
X162358133Y-131466867D01*
X162224592Y-131357273D01*
X162072237Y-131275838D01*
X161906922Y-131225690D01*
X161735000Y-131208757D01*
X160235000Y-131208757D01*
X160063078Y-131225690D01*
X159897763Y-131275838D01*
X159745408Y-131357273D01*
X159611867Y-131466867D01*
X159504348Y-131597880D01*
X159452362Y-131603000D01*
X159452360Y-131603000D01*
X159250061Y-131622925D01*
X158990495Y-131701663D01*
X158751279Y-131829527D01*
X158541603Y-132001603D01*
X158498479Y-132054150D01*
X158478486Y-132074143D01*
X158349528Y-132231279D01*
X158221663Y-132470496D01*
X158142925Y-132730061D01*
X158116338Y-133000000D01*
X158142925Y-133269939D01*
X158221663Y-133529504D01*
X158287477Y-133652632D01*
X158242024Y-133615330D01*
X157933318Y-133450323D01*
X157598352Y-133348712D01*
X157250000Y-133314402D01*
X156901647Y-133348712D01*
X156566681Y-133450323D01*
X156257975Y-133615330D01*
X155987392Y-133837392D01*
X155765330Y-134107976D01*
X155600323Y-134416682D01*
X155500000Y-134747402D01*
X155399677Y-134416681D01*
X155234670Y-134107975D01*
X155012608Y-133837392D01*
X154742024Y-133615330D01*
X154433318Y-133450323D01*
X154098352Y-133348712D01*
X153750000Y-133314402D01*
X153401647Y-133348712D01*
X153066681Y-133450323D01*
X152757975Y-133615330D01*
X152487392Y-133837392D01*
X152265330Y-134107976D01*
X152100323Y-134416682D01*
X152031243Y-134644408D01*
X152031243Y-134450000D01*
X152009506Y-134229305D01*
X151945132Y-134017092D01*
X151840594Y-133821515D01*
X151699910Y-133650090D01*
X151528485Y-133509406D01*
X151332908Y-133404868D01*
X151120695Y-133340494D01*
X150900000Y-133318757D01*
X149600000Y-133318757D01*
X149379305Y-133340494D01*
X149167092Y-133404868D01*
X148971515Y-133509406D01*
X148800090Y-133650090D01*
X148659406Y-133821515D01*
X148554868Y-134017092D01*
X148490494Y-134229305D01*
X148468757Y-134450000D01*
X148468757Y-137550000D01*
X148490494Y-137770695D01*
X148554868Y-137982908D01*
X148659406Y-138178485D01*
X148800090Y-138349910D01*
X148971515Y-138490594D01*
X149167092Y-138595132D01*
X149379305Y-138659506D01*
X149600000Y-138681243D01*
X150900000Y-138681243D01*
X151120695Y-138659506D01*
X151332908Y-138595132D01*
X151528485Y-138490594D01*
X151699910Y-138349910D01*
X151840594Y-138178485D01*
X151945132Y-137982908D01*
X152009506Y-137770695D01*
X152031243Y-137550000D01*
X152031243Y-137355590D01*
X152100324Y-137583319D01*
X152265331Y-137892025D01*
X152487393Y-138162608D01*
X152757976Y-138384670D01*
X153066682Y-138549677D01*
X153401648Y-138651288D01*
X153750000Y-138685598D01*
X154098353Y-138651288D01*
X154433319Y-138549677D01*
X154742025Y-138384670D01*
X155012608Y-138162608D01*
X155234670Y-137892025D01*
X155399677Y-137583319D01*
X155500001Y-137252597D01*
X155600324Y-137583319D01*
X155765331Y-137892025D01*
X155987393Y-138162608D01*
X156257976Y-138384670D01*
X156566682Y-138549677D01*
X156901648Y-138651288D01*
X157250000Y-138685598D01*
X157598353Y-138651288D01*
X157933319Y-138549677D01*
X158242025Y-138384670D01*
X158512608Y-138162608D01*
X158734670Y-137892025D01*
X158899677Y-137583319D01*
X159001288Y-137248353D01*
X159027000Y-136987296D01*
X159027000Y-135012704D01*
X159001288Y-134751647D01*
X158899677Y-134416681D01*
X158767827Y-134170007D01*
X158970496Y-134278337D01*
X159230061Y-134357075D01*
X159396360Y-134373454D01*
X159370690Y-134458078D01*
X159353757Y-134630000D01*
X159353757Y-136410000D01*
X159370690Y-136581922D01*
X159420838Y-136747237D01*
X159502273Y-136899592D01*
X159611867Y-137033133D01*
X159745408Y-137142727D01*
X159897763Y-137224162D01*
X160063078Y-137274310D01*
X160235000Y-137291243D01*
X160947424Y-137291243D01*
X161060500Y-137404319D01*
X161060500Y-137944646D01*
X161055048Y-138000000D01*
X161060500Y-138055354D01*
X161060500Y-138055364D01*
X161076807Y-138220930D01*
X161141250Y-138433370D01*
X161245900Y-138629157D01*
X161386735Y-138800765D01*
X161418757Y-138827045D01*
X161418757Y-139056250D01*
X161440373Y-139275725D01*
X161504392Y-139486766D01*
X161608353Y-139681263D01*
X161664764Y-139750000D01*
X161608353Y-139818737D01*
X161504392Y-140013234D01*
X161440373Y-140224275D01*
X161418757Y-140443750D01*
X161418757Y-140931250D01*
X161440373Y-141150725D01*
X161504392Y-141361766D01*
X161608353Y-141556263D01*
X161719838Y-141692107D01*
X161516629Y-141753750D01*
X161320843Y-141858400D01*
X161192239Y-141963942D01*
X161192236Y-141963945D01*
X161149235Y-141999235D01*
X161113945Y-142042236D01*
X161074513Y-142081668D01*
X161059507Y-141929304D01*
X160995132Y-141717091D01*
X160890595Y-141521514D01*
X160872939Y-141500000D01*
X160890595Y-141478486D01*
X160995132Y-141282909D01*
X161059507Y-141070696D01*
X161081243Y-140850002D01*
X161081243Y-140324998D01*
X161059507Y-140104304D01*
X160995132Y-139892091D01*
X160890595Y-139696514D01*
X160749910Y-139525090D01*
X160578486Y-139384405D01*
X160382909Y-139279868D01*
X160170696Y-139215493D01*
X159950002Y-139193757D01*
X159049998Y-139193757D01*
X158829304Y-139215493D01*
X158617091Y-139279868D01*
X158421514Y-139384405D01*
X158328793Y-139460500D01*
X157892865Y-139460500D01*
X157837500Y-139455047D01*
X157782136Y-139460500D01*
X157421207Y-139460500D01*
X157328486Y-139384405D01*
X157132909Y-139279868D01*
X156920696Y-139215493D01*
X156700002Y-139193757D01*
X155799998Y-139193757D01*
X155579304Y-139215493D01*
X155367091Y-139279868D01*
X155171514Y-139384405D01*
X155078793Y-139460500D01*
X154171207Y-139460500D01*
X154078486Y-139384405D01*
X153882909Y-139279868D01*
X153670696Y-139215493D01*
X153450002Y-139193757D01*
X152549998Y-139193757D01*
X152329304Y-139215493D01*
X152117091Y-139279868D01*
X151921514Y-139384405D01*
X151828793Y-139460500D01*
X150921207Y-139460500D01*
X150828486Y-139384405D01*
X150632909Y-139279868D01*
X150420696Y-139215493D01*
X150200002Y-139193757D01*
X149299998Y-139193757D01*
X149079304Y-139215493D01*
X148867091Y-139279868D01*
X148671514Y-139384405D01*
X148500090Y-139525090D01*
X148359405Y-139696514D01*
X148254868Y-139892091D01*
X148190493Y-140104304D01*
X148168757Y-140324998D01*
X148168757Y-140850002D01*
X148190493Y-141070696D01*
X148254868Y-141282909D01*
X148359405Y-141478486D01*
X148377061Y-141500000D01*
X148359405Y-141521514D01*
X148254868Y-141717091D01*
X148190493Y-141929304D01*
X148186518Y-141969664D01*
X148078995Y-142077187D01*
X148074265Y-142079146D01*
X148059507Y-141929304D01*
X147995132Y-141717091D01*
X147890595Y-141521514D01*
X147872939Y-141500000D01*
X147890595Y-141478486D01*
X147995132Y-141282909D01*
X148059507Y-141070696D01*
X148081243Y-140850002D01*
X148081243Y-140324998D01*
X148059507Y-140104304D01*
X147995132Y-139892091D01*
X147890595Y-139696514D01*
X147749910Y-139525090D01*
X147627000Y-139424220D01*
X147627000Y-138075780D01*
X147749910Y-137974910D01*
X147890595Y-137803486D01*
X147995132Y-137607909D01*
X148059507Y-137395696D01*
X148081243Y-137175002D01*
X148081243Y-136649998D01*
X148059507Y-136429304D01*
X147995132Y-136217091D01*
X147890595Y-136021514D01*
X147872939Y-136000000D01*
X147890595Y-135978486D01*
X147995132Y-135782909D01*
X148059507Y-135570696D01*
X148081243Y-135350002D01*
X148081243Y-134824998D01*
X148059507Y-134604304D01*
X147995132Y-134392091D01*
X147890595Y-134196514D01*
X147749910Y-134025090D01*
X147578486Y-133884405D01*
X147382909Y-133779868D01*
X147170696Y-133715493D01*
X146950002Y-133693757D01*
X146939500Y-133693757D01*
X146939500Y-131456196D01*
X147013234Y-131495608D01*
X147224275Y-131559627D01*
X147333781Y-131570412D01*
X147466569Y-131610693D01*
X147632135Y-131627000D01*
X154944646Y-131627000D01*
X155000000Y-131632452D01*
X155055354Y-131627000D01*
X155055365Y-131627000D01*
X155220931Y-131610693D01*
X155433371Y-131546250D01*
X155629157Y-131441600D01*
X155800765Y-131300765D01*
X155836059Y-131257759D01*
X157351819Y-129742000D01*
X159585321Y-129742000D01*
X159698814Y-129776428D01*
X159900000Y-129796243D01*
X161225000Y-129796243D01*
X161426186Y-129776428D01*
X161619640Y-129717744D01*
X161797928Y-129622447D01*
X161954199Y-129494199D01*
X162082447Y-129337928D01*
X162177744Y-129159640D01*
X162236428Y-128966186D01*
X162256243Y-128765000D01*
X162256243Y-128465000D01*
X162236428Y-128263814D01*
X162177744Y-128070360D01*
X162082447Y-127892072D01*
X161954199Y-127735801D01*
X161797928Y-127607553D01*
X161619640Y-127512256D01*
X161426186Y-127453572D01*
X161225000Y-127433757D01*
X159900000Y-127433757D01*
X159698814Y-127453572D01*
X159585321Y-127488000D01*
X156940364Y-127488000D01*
X156885000Y-127482547D01*
X156664069Y-127504307D01*
X156451629Y-127568750D01*
X156255843Y-127673400D01*
X156127239Y-127778942D01*
X156127236Y-127778945D01*
X156084235Y-127814235D01*
X156048945Y-127857236D01*
X154533182Y-129373000D01*
X149039426Y-129373000D01*
X149034627Y-129324275D01*
X148970608Y-129113234D01*
X148866647Y-128918737D01*
X148726740Y-128748260D01*
X148556263Y-128608353D01*
X148361766Y-128504392D01*
X148150725Y-128440373D01*
X147931250Y-128418757D01*
X147443750Y-128418757D01*
X147224275Y-128440373D01*
X147013234Y-128504392D01*
X146818737Y-128608353D01*
X146750000Y-128664764D01*
X146681263Y-128608353D01*
X146486766Y-128504392D01*
X146275725Y-128440373D01*
X146056250Y-128418757D01*
X145568750Y-128418757D01*
X145349275Y-128440373D01*
X145138234Y-128504392D01*
X144943737Y-128608353D01*
X144773260Y-128748260D01*
X144633353Y-128918737D01*
X144529392Y-129113234D01*
X144465373Y-129324275D01*
X144443757Y-129543750D01*
X144443757Y-130456250D01*
X144465373Y-130675725D01*
X144529392Y-130886766D01*
X144633353Y-131081263D01*
X144685500Y-131144804D01*
X144685501Y-134244583D01*
X144648041Y-134219553D01*
X144333747Y-134089368D01*
X144000095Y-134023000D01*
X143659905Y-134023000D01*
X143326253Y-134089368D01*
X143011959Y-134219553D01*
X142729102Y-134408552D01*
X142560000Y-134577654D01*
X142462346Y-134480000D01*
X142631448Y-134310898D01*
X142820447Y-134028041D01*
X142950632Y-133713747D01*
X143017000Y-133380095D01*
X143017000Y-133039905D01*
X142950632Y-132706253D01*
X142820447Y-132391959D01*
X142631448Y-132109102D01*
X142390898Y-131868552D01*
X142108041Y-131679553D01*
X141793747Y-131549368D01*
X141460095Y-131483000D01*
X141119905Y-131483000D01*
X140786253Y-131549368D01*
X140471959Y-131679553D01*
X140432530Y-131705899D01*
X140370133Y-131629867D01*
X140237235Y-131520801D01*
X140085613Y-131439758D01*
X139921094Y-131389851D01*
X139750000Y-131373000D01*
X135552853Y-131373000D01*
X135445695Y-131340494D01*
X135225000Y-131318757D01*
X134309023Y-131318757D01*
X133377000Y-130386734D01*
X133377000Y-127500000D01*
X133360149Y-127328906D01*
X133310242Y-127164387D01*
X133229199Y-127012765D01*
X133120133Y-126879867D01*
X132987235Y-126770801D01*
X132896918Y-126722526D01*
X132874308Y-126703971D01*
X162873000Y-126706073D01*
G04 #@! TA.AperFunction,Conductor*
D30*
G36*
X162873000Y-126706073D02*
G01*
X162873000Y-131500000D01*
X162875440Y-131524776D01*
X162882667Y-131548601D01*
X162894403Y-131570557D01*
X162910197Y-131589803D01*
X163623000Y-132302606D01*
X163623000Y-137460180D01*
X163456250Y-137443757D01*
X163314500Y-137443757D01*
X163314500Y-136992857D01*
X163319952Y-136937500D01*
X163314500Y-136882143D01*
X163314500Y-136882135D01*
X163298193Y-136716569D01*
X163233750Y-136504129D01*
X163129100Y-136308343D01*
X163119176Y-136296250D01*
X163023558Y-136179739D01*
X163023555Y-136179736D01*
X162988265Y-136136735D01*
X162945264Y-136101445D01*
X162616243Y-135772424D01*
X162616243Y-134630000D01*
X162599310Y-134458078D01*
X162549162Y-134292763D01*
X162526305Y-134250000D01*
X162549162Y-134207237D01*
X162599310Y-134041922D01*
X162616243Y-133870000D01*
X162616243Y-132090000D01*
X162599310Y-131918078D01*
X162549162Y-131752763D01*
X162467727Y-131600408D01*
X162358133Y-131466867D01*
X162224592Y-131357273D01*
X162072237Y-131275838D01*
X161906922Y-131225690D01*
X161735000Y-131208757D01*
X160235000Y-131208757D01*
X160063078Y-131225690D01*
X159897763Y-131275838D01*
X159745408Y-131357273D01*
X159611867Y-131466867D01*
X159504348Y-131597880D01*
X159452362Y-131603000D01*
X159452360Y-131603000D01*
X159250061Y-131622925D01*
X158990495Y-131701663D01*
X158751279Y-131829527D01*
X158541603Y-132001603D01*
X158498479Y-132054150D01*
X158478486Y-132074143D01*
X158349528Y-132231279D01*
X158221663Y-132470496D01*
X158142925Y-132730061D01*
X158116338Y-133000000D01*
X158142925Y-133269939D01*
X158221663Y-133529504D01*
X158287477Y-133652632D01*
X158242024Y-133615330D01*
X157933318Y-133450323D01*
X157598352Y-133348712D01*
X157250000Y-133314402D01*
X156901647Y-133348712D01*
X156566681Y-133450323D01*
X156257975Y-133615330D01*
X155987392Y-133837392D01*
X155765330Y-134107976D01*
X155600323Y-134416682D01*
X155500000Y-134747402D01*
X155399677Y-134416681D01*
X155234670Y-134107975D01*
X155012608Y-133837392D01*
X154742024Y-133615330D01*
X154433318Y-133450323D01*
X154098352Y-133348712D01*
X153750000Y-133314402D01*
X153401647Y-133348712D01*
X153066681Y-133450323D01*
X152757975Y-133615330D01*
X152487392Y-133837392D01*
X152265330Y-134107976D01*
X152100323Y-134416682D01*
X152031243Y-134644408D01*
X152031243Y-134450000D01*
X152009506Y-134229305D01*
X151945132Y-134017092D01*
X151840594Y-133821515D01*
X151699910Y-133650090D01*
X151528485Y-133509406D01*
X151332908Y-133404868D01*
X151120695Y-133340494D01*
X150900000Y-133318757D01*
X149600000Y-133318757D01*
X149379305Y-133340494D01*
X149167092Y-133404868D01*
X148971515Y-133509406D01*
X148800090Y-133650090D01*
X148659406Y-133821515D01*
X148554868Y-134017092D01*
X148490494Y-134229305D01*
X148468757Y-134450000D01*
X148468757Y-137550000D01*
X148490494Y-137770695D01*
X148554868Y-137982908D01*
X148659406Y-138178485D01*
X148800090Y-138349910D01*
X148971515Y-138490594D01*
X149167092Y-138595132D01*
X149379305Y-138659506D01*
X149600000Y-138681243D01*
X150900000Y-138681243D01*
X151120695Y-138659506D01*
X151332908Y-138595132D01*
X151528485Y-138490594D01*
X151699910Y-138349910D01*
X151840594Y-138178485D01*
X151945132Y-137982908D01*
X152009506Y-137770695D01*
X152031243Y-137550000D01*
X152031243Y-137355590D01*
X152100324Y-137583319D01*
X152265331Y-137892025D01*
X152487393Y-138162608D01*
X152757976Y-138384670D01*
X153066682Y-138549677D01*
X153401648Y-138651288D01*
X153750000Y-138685598D01*
X154098353Y-138651288D01*
X154433319Y-138549677D01*
X154742025Y-138384670D01*
X155012608Y-138162608D01*
X155234670Y-137892025D01*
X155399677Y-137583319D01*
X155500001Y-137252597D01*
X155600324Y-137583319D01*
X155765331Y-137892025D01*
X155987393Y-138162608D01*
X156257976Y-138384670D01*
X156566682Y-138549677D01*
X156901648Y-138651288D01*
X157250000Y-138685598D01*
X157598353Y-138651288D01*
X157933319Y-138549677D01*
X158242025Y-138384670D01*
X158512608Y-138162608D01*
X158734670Y-137892025D01*
X158899677Y-137583319D01*
X159001288Y-137248353D01*
X159027000Y-136987296D01*
X159027000Y-135012704D01*
X159001288Y-134751647D01*
X158899677Y-134416681D01*
X158767827Y-134170007D01*
X158970496Y-134278337D01*
X159230061Y-134357075D01*
X159396360Y-134373454D01*
X159370690Y-134458078D01*
X159353757Y-134630000D01*
X159353757Y-136410000D01*
X159370690Y-136581922D01*
X159420838Y-136747237D01*
X159502273Y-136899592D01*
X159611867Y-137033133D01*
X159745408Y-137142727D01*
X159897763Y-137224162D01*
X160063078Y-137274310D01*
X160235000Y-137291243D01*
X160947424Y-137291243D01*
X161060500Y-137404319D01*
X161060500Y-137944646D01*
X161055048Y-138000000D01*
X161060500Y-138055354D01*
X161060500Y-138055364D01*
X161076807Y-138220930D01*
X161141250Y-138433370D01*
X161245900Y-138629157D01*
X161386735Y-138800765D01*
X161418757Y-138827045D01*
X161418757Y-139056250D01*
X161440373Y-139275725D01*
X161504392Y-139486766D01*
X161608353Y-139681263D01*
X161664764Y-139750000D01*
X161608353Y-139818737D01*
X161504392Y-140013234D01*
X161440373Y-140224275D01*
X161418757Y-140443750D01*
X161418757Y-140931250D01*
X161440373Y-141150725D01*
X161504392Y-141361766D01*
X161608353Y-141556263D01*
X161719838Y-141692107D01*
X161516629Y-141753750D01*
X161320843Y-141858400D01*
X161192239Y-141963942D01*
X161192236Y-141963945D01*
X161149235Y-141999235D01*
X161113945Y-142042236D01*
X161074513Y-142081668D01*
X161059507Y-141929304D01*
X160995132Y-141717091D01*
X160890595Y-141521514D01*
X160872939Y-141500000D01*
X160890595Y-141478486D01*
X160995132Y-141282909D01*
X161059507Y-141070696D01*
X161081243Y-140850002D01*
X161081243Y-140324998D01*
X161059507Y-140104304D01*
X160995132Y-139892091D01*
X160890595Y-139696514D01*
X160749910Y-139525090D01*
X160578486Y-139384405D01*
X160382909Y-139279868D01*
X160170696Y-139215493D01*
X159950002Y-139193757D01*
X159049998Y-139193757D01*
X158829304Y-139215493D01*
X158617091Y-139279868D01*
X158421514Y-139384405D01*
X158328793Y-139460500D01*
X157892865Y-139460500D01*
X157837500Y-139455047D01*
X157782136Y-139460500D01*
X157421207Y-139460500D01*
X157328486Y-139384405D01*
X157132909Y-139279868D01*
X156920696Y-139215493D01*
X156700002Y-139193757D01*
X155799998Y-139193757D01*
X155579304Y-139215493D01*
X155367091Y-139279868D01*
X155171514Y-139384405D01*
X155078793Y-139460500D01*
X154171207Y-139460500D01*
X154078486Y-139384405D01*
X153882909Y-139279868D01*
X153670696Y-139215493D01*
X153450002Y-139193757D01*
X152549998Y-139193757D01*
X152329304Y-139215493D01*
X152117091Y-139279868D01*
X151921514Y-139384405D01*
X151828793Y-139460500D01*
X150921207Y-139460500D01*
X150828486Y-139384405D01*
X150632909Y-139279868D01*
X150420696Y-139215493D01*
X150200002Y-139193757D01*
X149299998Y-139193757D01*
X149079304Y-139215493D01*
X148867091Y-139279868D01*
X148671514Y-139384405D01*
X148500090Y-139525090D01*
X148359405Y-139696514D01*
X148254868Y-139892091D01*
X148190493Y-140104304D01*
X148168757Y-140324998D01*
X148168757Y-140850002D01*
X148190493Y-141070696D01*
X148254868Y-141282909D01*
X148359405Y-141478486D01*
X148377061Y-141500000D01*
X148359405Y-141521514D01*
X148254868Y-141717091D01*
X148190493Y-141929304D01*
X148186518Y-141969664D01*
X148078995Y-142077187D01*
X148074265Y-142079146D01*
X148059507Y-141929304D01*
X147995132Y-141717091D01*
X147890595Y-141521514D01*
X147872939Y-141500000D01*
X147890595Y-141478486D01*
X147995132Y-141282909D01*
X148059507Y-141070696D01*
X148081243Y-140850002D01*
X148081243Y-140324998D01*
X148059507Y-140104304D01*
X147995132Y-139892091D01*
X147890595Y-139696514D01*
X147749910Y-139525090D01*
X147627000Y-139424220D01*
X147627000Y-138075780D01*
X147749910Y-137974910D01*
X147890595Y-137803486D01*
X147995132Y-137607909D01*
X148059507Y-137395696D01*
X148081243Y-137175002D01*
X148081243Y-136649998D01*
X148059507Y-136429304D01*
X147995132Y-136217091D01*
X147890595Y-136021514D01*
X147872939Y-136000000D01*
X147890595Y-135978486D01*
X147995132Y-135782909D01*
X148059507Y-135570696D01*
X148081243Y-135350002D01*
X148081243Y-134824998D01*
X148059507Y-134604304D01*
X147995132Y-134392091D01*
X147890595Y-134196514D01*
X147749910Y-134025090D01*
X147578486Y-133884405D01*
X147382909Y-133779868D01*
X147170696Y-133715493D01*
X146950002Y-133693757D01*
X146939500Y-133693757D01*
X146939500Y-131456196D01*
X147013234Y-131495608D01*
X147224275Y-131559627D01*
X147333781Y-131570412D01*
X147466569Y-131610693D01*
X147632135Y-131627000D01*
X154944646Y-131627000D01*
X155000000Y-131632452D01*
X155055354Y-131627000D01*
X155055365Y-131627000D01*
X155220931Y-131610693D01*
X155433371Y-131546250D01*
X155629157Y-131441600D01*
X155800765Y-131300765D01*
X155836059Y-131257759D01*
X157351819Y-129742000D01*
X159585321Y-129742000D01*
X159698814Y-129776428D01*
X159900000Y-129796243D01*
X161225000Y-129796243D01*
X161426186Y-129776428D01*
X161619640Y-129717744D01*
X161797928Y-129622447D01*
X161954199Y-129494199D01*
X162082447Y-129337928D01*
X162177744Y-129159640D01*
X162236428Y-128966186D01*
X162256243Y-128765000D01*
X162256243Y-128465000D01*
X162236428Y-128263814D01*
X162177744Y-128070360D01*
X162082447Y-127892072D01*
X161954199Y-127735801D01*
X161797928Y-127607553D01*
X161619640Y-127512256D01*
X161426186Y-127453572D01*
X161225000Y-127433757D01*
X159900000Y-127433757D01*
X159698814Y-127453572D01*
X159585321Y-127488000D01*
X156940364Y-127488000D01*
X156885000Y-127482547D01*
X156664069Y-127504307D01*
X156451629Y-127568750D01*
X156255843Y-127673400D01*
X156127239Y-127778942D01*
X156127236Y-127778945D01*
X156084235Y-127814235D01*
X156048945Y-127857236D01*
X154533182Y-129373000D01*
X149039426Y-129373000D01*
X149034627Y-129324275D01*
X148970608Y-129113234D01*
X148866647Y-128918737D01*
X148726740Y-128748260D01*
X148556263Y-128608353D01*
X148361766Y-128504392D01*
X148150725Y-128440373D01*
X147931250Y-128418757D01*
X147443750Y-128418757D01*
X147224275Y-128440373D01*
X147013234Y-128504392D01*
X146818737Y-128608353D01*
X146750000Y-128664764D01*
X146681263Y-128608353D01*
X146486766Y-128504392D01*
X146275725Y-128440373D01*
X146056250Y-128418757D01*
X145568750Y-128418757D01*
X145349275Y-128440373D01*
X145138234Y-128504392D01*
X144943737Y-128608353D01*
X144773260Y-128748260D01*
X144633353Y-128918737D01*
X144529392Y-129113234D01*
X144465373Y-129324275D01*
X144443757Y-129543750D01*
X144443757Y-130456250D01*
X144465373Y-130675725D01*
X144529392Y-130886766D01*
X144633353Y-131081263D01*
X144685500Y-131144804D01*
X144685501Y-134244583D01*
X144648041Y-134219553D01*
X144333747Y-134089368D01*
X144000095Y-134023000D01*
X143659905Y-134023000D01*
X143326253Y-134089368D01*
X143011959Y-134219553D01*
X142729102Y-134408552D01*
X142560000Y-134577654D01*
X142462346Y-134480000D01*
X142631448Y-134310898D01*
X142820447Y-134028041D01*
X142950632Y-133713747D01*
X143017000Y-133380095D01*
X143017000Y-133039905D01*
X142950632Y-132706253D01*
X142820447Y-132391959D01*
X142631448Y-132109102D01*
X142390898Y-131868552D01*
X142108041Y-131679553D01*
X141793747Y-131549368D01*
X141460095Y-131483000D01*
X141119905Y-131483000D01*
X140786253Y-131549368D01*
X140471959Y-131679553D01*
X140432530Y-131705899D01*
X140370133Y-131629867D01*
X140237235Y-131520801D01*
X140085613Y-131439758D01*
X139921094Y-131389851D01*
X139750000Y-131373000D01*
X135552853Y-131373000D01*
X135445695Y-131340494D01*
X135225000Y-131318757D01*
X134309023Y-131318757D01*
X133377000Y-130386734D01*
X133377000Y-127500000D01*
X133360149Y-127328906D01*
X133310242Y-127164387D01*
X133229199Y-127012765D01*
X133120133Y-126879867D01*
X132987235Y-126770801D01*
X132896918Y-126722526D01*
X132874308Y-126703971D01*
X162873000Y-126706073D01*
G37*
G04 #@! TD.AperFunction*
D29*
X130105928Y-126703776D02*
X130016867Y-126776867D01*
X129907273Y-126910408D01*
X129825838Y-127062763D01*
X129775690Y-127228078D01*
X129758757Y-127400000D01*
X129758757Y-129100000D01*
X129772294Y-129237440D01*
X128629867Y-130379867D01*
X128520801Y-130512765D01*
X128439758Y-130664387D01*
X128389851Y-130828906D01*
X128381958Y-130909043D01*
X128213747Y-130839368D01*
X127880095Y-130773000D01*
X127539905Y-130773000D01*
X127206253Y-130839368D01*
X126891959Y-130969553D01*
X126609102Y-131158552D01*
X126368552Y-131399102D01*
X126179553Y-131681959D01*
X126049368Y-131996253D01*
X125983000Y-132329905D01*
X125983000Y-132670095D01*
X126049368Y-133003747D01*
X126179553Y-133318041D01*
X126368552Y-133600898D01*
X126390654Y-133623000D01*
X124966819Y-133623000D01*
X124300078Y-132956259D01*
X124357000Y-132670095D01*
X124357000Y-132329905D01*
X124290632Y-131996253D01*
X124160447Y-131681959D01*
X123971448Y-131399102D01*
X123730898Y-131158552D01*
X123448041Y-130969553D01*
X123219097Y-130874721D01*
X124135870Y-129957949D01*
X124373747Y-129910632D01*
X124688041Y-129780447D01*
X124970898Y-129591448D01*
X125140000Y-129422346D01*
X125309102Y-129591448D01*
X125591959Y-129780447D01*
X125906253Y-129910632D01*
X126239905Y-129977000D01*
X126580095Y-129977000D01*
X126913747Y-129910632D01*
X127228041Y-129780447D01*
X127510898Y-129591448D01*
X127751448Y-129350898D01*
X127940447Y-129068041D01*
X128070632Y-128753747D01*
X128137000Y-128420095D01*
X128137000Y-128079905D01*
X128070632Y-127746253D01*
X127940447Y-127431959D01*
X127751448Y-127149102D01*
X127510898Y-126908552D01*
X127228041Y-126719553D01*
X127189460Y-126703572D01*
X130105928Y-126703776D01*
G04 #@! TA.AperFunction,Conductor*
D30*
G36*
X130105928Y-126703776D02*
G01*
X130016867Y-126776867D01*
X129907273Y-126910408D01*
X129825838Y-127062763D01*
X129775690Y-127228078D01*
X129758757Y-127400000D01*
X129758757Y-129100000D01*
X129772294Y-129237440D01*
X128629867Y-130379867D01*
X128520801Y-130512765D01*
X128439758Y-130664387D01*
X128389851Y-130828906D01*
X128381958Y-130909043D01*
X128213747Y-130839368D01*
X127880095Y-130773000D01*
X127539905Y-130773000D01*
X127206253Y-130839368D01*
X126891959Y-130969553D01*
X126609102Y-131158552D01*
X126368552Y-131399102D01*
X126179553Y-131681959D01*
X126049368Y-131996253D01*
X125983000Y-132329905D01*
X125983000Y-132670095D01*
X126049368Y-133003747D01*
X126179553Y-133318041D01*
X126368552Y-133600898D01*
X126390654Y-133623000D01*
X124966819Y-133623000D01*
X124300078Y-132956259D01*
X124357000Y-132670095D01*
X124357000Y-132329905D01*
X124290632Y-131996253D01*
X124160447Y-131681959D01*
X123971448Y-131399102D01*
X123730898Y-131158552D01*
X123448041Y-130969553D01*
X123219097Y-130874721D01*
X124135870Y-129957949D01*
X124373747Y-129910632D01*
X124688041Y-129780447D01*
X124970898Y-129591448D01*
X125140000Y-129422346D01*
X125309102Y-129591448D01*
X125591959Y-129780447D01*
X125906253Y-129910632D01*
X126239905Y-129977000D01*
X126580095Y-129977000D01*
X126913747Y-129910632D01*
X127228041Y-129780447D01*
X127510898Y-129591448D01*
X127751448Y-129350898D01*
X127940447Y-129068041D01*
X128070632Y-128753747D01*
X128137000Y-128420095D01*
X128137000Y-128079905D01*
X128070632Y-127746253D01*
X127940447Y-127431959D01*
X127751448Y-127149102D01*
X127510898Y-126908552D01*
X127228041Y-126719553D01*
X127189460Y-126703572D01*
X130105928Y-126703776D01*
G37*
G04 #@! TD.AperFunction*
G04 #@! TD*
D29*
G04 #@! TO.N,GNDPWR*
X184623000Y-128552606D02*
X184623000Y-129373000D01*
X180446978Y-129373000D01*
X180495132Y-129282909D01*
X180559507Y-129070696D01*
X180581243Y-128850002D01*
X180581243Y-128348363D01*
X181802606Y-127127000D01*
X183197394Y-127127000D01*
X184623000Y-128552606D01*
G04 #@! TA.AperFunction,Conductor*
D30*
G36*
X184623000Y-128552606D02*
G01*
X184623000Y-129373000D01*
X180446978Y-129373000D01*
X180495132Y-129282909D01*
X180559507Y-129070696D01*
X180581243Y-128850002D01*
X180581243Y-128348363D01*
X181802606Y-127127000D01*
X183197394Y-127127000D01*
X184623000Y-128552606D01*
G37*
G04 #@! TD.AperFunction*
G04 #@! TD*
D29*
G04 #@! TO.N,+5V*
X132373000Y-130750000D02*
X132375440Y-130774776D01*
X132382667Y-130798601D01*
X132394403Y-130820557D01*
X132410197Y-130839803D01*
X133910197Y-132339803D01*
X133929443Y-132355597D01*
X133951399Y-132367333D01*
X133975224Y-132374560D01*
X134000000Y-132377000D01*
X139623000Y-132377000D01*
X139623000Y-132738267D01*
X139563000Y-133039905D01*
X139563000Y-133343182D01*
X139292242Y-133613940D01*
X139249236Y-133649234D01*
X139108401Y-133820842D01*
X139003751Y-134016629D01*
X139003105Y-134018757D01*
X137900000Y-134018757D01*
X137728078Y-134035690D01*
X137562763Y-134085838D01*
X137410408Y-134167273D01*
X137276867Y-134276867D01*
X137167273Y-134410408D01*
X137085838Y-134562763D01*
X137035690Y-134728078D01*
X137018757Y-134900000D01*
X137018757Y-136137424D01*
X136283181Y-136873000D01*
X135063350Y-136873000D01*
X135046250Y-136816629D01*
X134941600Y-136620843D01*
X134898267Y-136568041D01*
X134836058Y-136492239D01*
X134836055Y-136492236D01*
X134800765Y-136449235D01*
X134757764Y-136413945D01*
X132336059Y-133992241D01*
X132300765Y-133949235D01*
X132129157Y-133808400D01*
X131933371Y-133703750D01*
X131720931Y-133639307D01*
X131555365Y-133623000D01*
X131555354Y-133623000D01*
X131552306Y-133622700D01*
X131339803Y-133410197D01*
X131320557Y-133394403D01*
X131298601Y-133382667D01*
X131274776Y-133375440D01*
X131250000Y-133373000D01*
X129377000Y-133373000D01*
X129377000Y-132971733D01*
X129437000Y-132670095D01*
X129437000Y-132329905D01*
X129377000Y-132028267D01*
X129377000Y-131052606D01*
X130839803Y-129589803D01*
X130855597Y-129570557D01*
X130867333Y-129548601D01*
X130874560Y-129524776D01*
X130877000Y-129500000D01*
X130877000Y-127877000D01*
X132373000Y-127877000D01*
X132373000Y-130750000D01*
G04 #@! TA.AperFunction,Conductor*
D30*
G36*
X132373000Y-130750000D02*
G01*
X132375440Y-130774776D01*
X132382667Y-130798601D01*
X132394403Y-130820557D01*
X132410197Y-130839803D01*
X133910197Y-132339803D01*
X133929443Y-132355597D01*
X133951399Y-132367333D01*
X133975224Y-132374560D01*
X134000000Y-132377000D01*
X139623000Y-132377000D01*
X139623000Y-132738267D01*
X139563000Y-133039905D01*
X139563000Y-133343182D01*
X139292242Y-133613940D01*
X139249236Y-133649234D01*
X139108401Y-133820842D01*
X139003751Y-134016629D01*
X139003105Y-134018757D01*
X137900000Y-134018757D01*
X137728078Y-134035690D01*
X137562763Y-134085838D01*
X137410408Y-134167273D01*
X137276867Y-134276867D01*
X137167273Y-134410408D01*
X137085838Y-134562763D01*
X137035690Y-134728078D01*
X137018757Y-134900000D01*
X137018757Y-136137424D01*
X136283181Y-136873000D01*
X135063350Y-136873000D01*
X135046250Y-136816629D01*
X134941600Y-136620843D01*
X134898267Y-136568041D01*
X134836058Y-136492239D01*
X134836055Y-136492236D01*
X134800765Y-136449235D01*
X134757764Y-136413945D01*
X132336059Y-133992241D01*
X132300765Y-133949235D01*
X132129157Y-133808400D01*
X131933371Y-133703750D01*
X131720931Y-133639307D01*
X131555365Y-133623000D01*
X131555354Y-133623000D01*
X131552306Y-133622700D01*
X131339803Y-133410197D01*
X131320557Y-133394403D01*
X131298601Y-133382667D01*
X131274776Y-133375440D01*
X131250000Y-133373000D01*
X129377000Y-133373000D01*
X129377000Y-132971733D01*
X129437000Y-132670095D01*
X129437000Y-132329905D01*
X129377000Y-132028267D01*
X129377000Y-131052606D01*
X130839803Y-129589803D01*
X130855597Y-129570557D01*
X130867333Y-129548601D01*
X130874560Y-129524776D01*
X130877000Y-129500000D01*
X130877000Y-127877000D01*
X132373000Y-127877000D01*
X132373000Y-130750000D01*
G37*
G04 #@! TD.AperFunction*
G04 #@! TD*
M02*
