M48
; DRILL file {KiCad (5.1.9-0-10_14)} date Sunday, February 12, 2023 at 04:19:46 PM
; FORMAT={-:-/ absolute / metric / decimal}
; #@! TF.CreationDate,2023-02-12T16:19:46-05:00
; #@! TF.GenerationSoftware,Kicad,Pcbnew,(5.1.9-0-10_14)
FMAT,2
METRIC
T1C0.400
T2C1.000
T3C1.100
T4C1.200
T5C1.300
T6C3.200
T7C3.500
%
G90
G05
T1
X99.0Y-134.0
X99.25Y-136.5
X99.5Y-132.25
X103.75Y-139.0
X104.5Y-136.25
X105.5Y-142.5
X108.0Y-127.5
X108.0Y-151.25
X108.7Y-142.45
X110.25Y-127.25
X111.75Y-151.25
X114.75Y-135.25
X115.05Y-142.45
X115.5Y-151.25
X116.0Y-137.25
X117.8Y-142.45
X119.25Y-151.25
X120.0Y-141.0
X121.75Y-148.25
X131.0Y-137.75
X133.75Y-140.5
X134.0Y-137.75
X134.5Y-141.75
X136.25Y-127.5
X137.0Y-146.5
X137.45Y-144.55
X139.0Y-127.5
X143.25Y-127.5
X144.5Y-148.5
X144.912Y-143.25
X146.25Y-127.5
X148.162Y-146.412
X148.625Y-143.125
X148.75Y-127.5
X150.0Y-150.5
X151.338Y-146.412
X151.875Y-143.125
X152.25Y-127.5
X155.125Y-143.125
X155.75Y-127.5
X156.5Y-147.75
X159.0Y-147.75
X159.5Y-130.75
X159.5Y-133.0
X160.5Y-149.25
X163.25Y-146.0
X167.75Y-130.5
X168.615Y-128.615
X171.5Y-130.5
X171.75Y-131.75
X171.75Y-136.25
X175.2Y-133.8
X177.75Y-129.0
X179.412Y-136.588
X180.75Y-128.75
X181.5Y-128.25
X181.5Y-129.25
X183.0Y-138.25
X183.5Y-128.25
X183.5Y-129.25
X184.25Y-128.75
X188.0Y-127.0
X189.0Y-127.0
X204.15Y-152.35
X204.75Y-142.5
X205.25Y-143.0
X205.35Y-145.912
X205.35Y-149.55
X205.75Y-148.75
X206.95Y-145.838
X207.75Y-146.25
X208.5Y-144.75
X209.0Y-148.75
X210.24Y-145.838
X210.25Y-147.662
X211.0Y-144.75
X211.5Y-148.75
X212.75Y-147.75
T2
X98.88Y-145.75
X98.88Y-149.0
X101.42Y-145.75
X101.42Y-149.0
X103.96Y-145.75
X103.96Y-149.0
X106.5Y-145.75
X106.5Y-149.0
X115.01Y-132.5
X116.25Y-128.25
X117.55Y-132.5
X118.79Y-128.25
X120.09Y-132.5
X121.33Y-128.25
X122.63Y-132.5
X123.87Y-128.25
X124.47Y-153.25
X125.17Y-132.5
X126.41Y-128.25
X127.01Y-153.25
X127.71Y-132.5
X128.95Y-128.25
X129.55Y-153.25
X130.25Y-132.5
X131.49Y-128.25
X132.09Y-153.25
X134.63Y-153.25
X137.17Y-153.25
X138.75Y-133.21
X138.75Y-135.75
X139.71Y-153.25
X141.29Y-133.21
X141.29Y-135.75
X142.25Y-153.25
X143.83Y-133.21
X143.83Y-135.75
X145.5Y-152.0
X148.04Y-152.0
X151.38Y-152.75
X153.92Y-152.75
X156.46Y-152.75
X159.0Y-152.75
X161.75Y-152.75
X164.29Y-152.75
T3
X214.57Y-143.22
X214.57Y-148.3
T4
X150.25Y-136.0
X153.75Y-136.0
X157.25Y-136.0
X171.25Y-145.0
X174.75Y-145.0
X178.25Y-145.0
X181.75Y-145.0
X190.5Y-137.5
X190.5Y-145.25
X194.0Y-137.5
X194.0Y-145.25
X197.5Y-137.5
X197.5Y-145.25
X201.0Y-137.5
X201.0Y-145.25
T5
X186.0Y-141.0
X186.0Y-150.75
X208.5Y-141.0
X208.5Y-150.75
T6
X242.5Y-145.75
T7
X231.98Y-145.76
T0
M30
