M48
; DRILL file {KiCad (5.1.9-0-10_14)} date Saturday, May 29, 2021 at 09:57:09 PM
; FORMAT={-:-/ absolute / metric / decimal}
; #@! TF.CreationDate,2021-05-29T21:57:09-04:00
; #@! TF.GenerationSoftware,Kicad,Pcbnew,(5.1.9-0-10_14)
FMAT,2
METRIC
T1C0.400
T2C0.850
T3C1.000
T4C1.100
T5C1.200
T6C1.300
T7C1.750
T8C2.000
T9C6.000
T10C2.700
T11C3.000
T12C3.500
T13C4.500
T14C59.000
%
G90
G05
T1
X26.25Y-152.75
X26.25Y-154.75
X26.25Y-156.75
X26.25Y-158.75
X26.25Y-160.75
X26.25Y-162.75
X26.25Y-164.75
X26.25Y-166.75
X26.25Y-168.75
X26.25Y-170.75
X26.25Y-172.75
X26.25Y-174.75
X26.25Y-176.75
X28.093Y-178.657
X28.75Y-155.0
X28.75Y-157.0
X28.75Y-159.0
X28.75Y-161.0
X28.75Y-163.0
X28.75Y-165.0
X28.75Y-167.0
X28.75Y-169.0
X28.75Y-171.0
X28.75Y-173.0
X28.75Y-175.0
X29.625Y-176.625
X29.75Y-148.5
X29.843Y-180.407
X30.75Y-72.25
X30.775Y-153.5
X31.375Y-178.375
X31.468Y-182.032
X31.9Y-152.2
X32.625Y-54.875
X33.15Y-180.1
X33.35Y-182.65
X33.362Y-153.662
X33.625Y-120.275
X33.67Y-126.67
X34.5Y-148.75
X34.5Y-150.55
X35.0Y-147.75
X35.0Y-155.3
X35.0Y-156.25
X35.0Y-158.25
X35.0Y-160.25
X35.0Y-162.7
X35.15Y-180.1
X35.35Y-182.65
X35.75Y-152.5
X36.5Y-56.0
X37.15Y-180.1
X37.35Y-182.65
X37.5Y-154.25
X37.5Y-156.25
X37.5Y-158.25
X37.5Y-160.25
X37.5Y-162.7
X37.646Y-61.271
X37.7Y-62.1
X37.725Y-60.275
X37.75Y-51.75
X39.15Y-180.1
X39.35Y-182.65
X39.663Y-67.5
X40.25Y-56.0
X40.75Y-70.75
X40.75Y-81.0
X40.75Y-135.0
X41.15Y-180.1
X41.25Y-139.75
X41.35Y-182.65
X41.4Y-55.75
X41.55Y-80.4
X42.25Y-121.5
X42.25Y-139.25
X42.55Y-117.9
X43.15Y-180.1
X43.25Y-138.5
X43.35Y-182.65
X43.5Y-103.5
X43.75Y-64.25
X44.25Y-138.0
X45.0Y-53.5
X45.15Y-180.1
X45.6Y-182.65
X46.0Y-156.5
X46.0Y-158.5
X46.5Y-138.75
X46.5Y-148.25
X46.55Y-152.45
X47.15Y-180.1
X47.5Y-66.75
X47.5Y-138.25
X47.5Y-144.25
X47.6Y-182.65
X48.2Y-52.15
X48.2Y-53.15
X48.2Y-54.15
X48.2Y-55.15
X48.2Y-56.15
X48.2Y-57.15
X48.2Y-58.15
X48.2Y-59.15
X48.2Y-60.15
X48.2Y-61.15
X48.2Y-62.15
X49.15Y-180.1
X49.6Y-182.65
X51.15Y-180.1
X51.6Y-182.65
X53.225Y-183.275
X53.6Y-180.1
X54.975Y-185.025
X55.0Y-181.5
X56.725Y-186.775
X56.75Y-183.25
X57.0Y-164.25
X57.75Y-41.2
X58.475Y-188.525
X58.5Y-185.0
X59.25Y-141.0
X59.25Y-149.25
X59.25Y-153.25
X59.25Y-157.5
X59.5Y-145.0
X59.5Y-161.5
X60.225Y-190.275
X60.25Y-186.75
X61.975Y-192.025
X62.0Y-188.5
X63.625Y-190.125
X63.75Y-193.75
X64.75Y-191.25
X65.25Y-193.75
X66.25Y-169.75
X66.5Y-39.75
X66.5Y-43.25
X66.5Y-167.5
X66.75Y-191.25
X67.25Y-164.5
X67.25Y-193.75
X68.25Y-169.25
X68.75Y-191.25
X69.0Y-159.5
X69.25Y-64.0
X69.25Y-193.75
X69.5Y-162.75
X70.0Y-159.5
X70.75Y-191.25
X71.0Y-42.75
X71.0Y-45.5
X71.0Y-47.75
X71.0Y-50.75
X71.0Y-52.75
X71.0Y-55.75
X71.0Y-57.75
X71.0Y-60.75
X71.0Y-62.75
X71.0Y-159.5
X71.25Y-193.75
X72.0Y-159.5
X72.25Y-161.25
X72.75Y-191.25
X73.0Y-159.5
X73.0Y-163.25
X73.0Y-166.25
X73.25Y-193.75
X74.0Y-136.5
X74.0Y-138.75
X74.0Y-140.75
X74.0Y-142.75
X74.0Y-144.75
X74.0Y-159.5
X74.75Y-191.25
X75.0Y-159.5
X75.25Y-146.0
X75.25Y-193.75
X75.75Y-166.0
X76.0Y-159.5
X76.5Y-147.25
X76.75Y-191.25
X77.0Y-159.5
X77.25Y-193.75
X77.5Y-167.25
X78.0Y-159.5
X78.25Y-168.0
X78.5Y-147.25
X78.75Y-163.25
X78.75Y-191.25
X79.0Y-159.5
X79.25Y-193.75
X80.75Y-191.25
X81.25Y-193.75
X82.75Y-191.25
X83.25Y-193.75
X83.75Y-43.5
X83.75Y-48.75
X83.75Y-53.75
X84.0Y-58.75
X84.25Y-63.5
X84.75Y-170.75
X84.75Y-191.25
X85.25Y-193.75
X86.75Y-191.25
X87.25Y-165.75
X87.25Y-193.75
X88.75Y-191.25
X89.25Y-193.75
X90.0Y-151.0
X90.75Y-191.25
X91.25Y-193.75
X91.75Y-152.75
X92.75Y-191.25
X93.25Y-193.75
X93.5Y-154.5
X94.75Y-191.25
X95.25Y-155.0
X95.25Y-193.75
X96.75Y-191.25
X97.25Y-155.0
X97.25Y-193.75
X98.75Y-191.25
X99.25Y-155.0
X99.25Y-193.75
X100.75Y-191.25
X101.0Y-165.25
X101.25Y-155.0
X101.25Y-169.5
X101.25Y-173.5
X101.25Y-177.75
X101.25Y-181.75
X101.25Y-193.75
X101.5Y-161.0
X102.75Y-191.25
X103.25Y-155.0
X103.25Y-193.75
X104.75Y-191.25
X105.1Y-183.65
X105.25Y-155.0
X105.25Y-193.75
X106.75Y-191.25
X107.25Y-155.0
X107.25Y-193.75
X108.75Y-191.25
X109.25Y-155.0
X109.25Y-193.75
X110.25Y-43.25
X110.75Y-191.25
X111.0Y-61.25
X111.25Y-155.0
X111.25Y-193.75
X111.75Y-43.25
X112.75Y-191.25
X113.25Y-155.0
X113.25Y-193.75
X114.415Y-132.415
X114.75Y-45.6
X114.75Y-191.25
X115.0Y-56.25
X115.0Y-61.25
X115.125Y-53.125
X115.25Y-155.0
X115.25Y-193.75
X116.75Y-191.25
X117.25Y-155.0
X117.25Y-193.75
X118.75Y-191.25
X119.25Y-155.0
X119.25Y-193.75
X119.75Y-103.0
X120.0Y-104.25
X120.25Y-105.25
X120.75Y-191.25
X121.25Y-155.0
X121.25Y-193.75
X121.65Y-104.9
X122.75Y-191.25
X123.25Y-114.0
X123.25Y-155.0
X123.25Y-193.75
X123.5Y-121.75
X124.0Y-95.0
X124.75Y-191.25
X125.0Y-67.0
X125.25Y-110.0
X125.25Y-155.0
X125.25Y-193.75
X125.5Y-113.75
X125.5Y-123.75
X126.0Y-95.0
X126.0Y-107.25
X126.75Y-65.25
X126.75Y-166.75
X126.75Y-191.25
X126.95Y-96.0
X127.15Y-115.0
X127.25Y-155.0
X127.25Y-193.75
X127.85Y-95.0
X128.5Y-63.5
X128.55Y-114.8
X128.75Y-191.25
X129.25Y-88.5
X129.25Y-92.0
X129.25Y-94.25
X129.25Y-97.0
X129.25Y-155.0
X129.25Y-193.75
X130.25Y-61.75
X130.75Y-107.25
X130.75Y-191.25
X130.95Y-125.2
X131.25Y-155.0
X131.25Y-193.75
X131.75Y-164.0
X132.35Y-127.8
X132.75Y-191.25
X133.25Y-58.75
X133.25Y-155.0
X133.25Y-193.75
X134.75Y-191.25
X135.0Y-57.0
X135.25Y-155.0
X135.25Y-193.75
X135.75Y-67.0
X135.85Y-54.3
X136.75Y-191.25
X137.25Y-155.0
X137.25Y-193.75
X137.35Y-55.0
X137.75Y-51.75
X138.75Y-60.0
X138.75Y-87.25
X138.75Y-89.25
X138.75Y-90.25
X138.75Y-91.5
X138.75Y-93.0
X138.75Y-94.25
X138.75Y-95.75
X138.75Y-97.25
X138.75Y-191.25
X139.15Y-53.8
X139.25Y-155.0
X139.25Y-193.75
X139.75Y-59.2
X139.75Y-98.25
X140.15Y-136.8
X140.25Y-86.5
X140.75Y-117.25
X140.75Y-191.25
X140.95Y-58.2
X141.25Y-98.25
X141.25Y-155.0
X141.25Y-193.75
X141.5Y-79.25
X141.5Y-81.0
X141.5Y-82.5
X141.5Y-84.0
X141.5Y-85.5
X141.75Y-161.5
X141.9Y-49.85
X142.25Y-78.5
X142.25Y-119.5
X142.25Y-162.75
X142.5Y-114.25
X142.5Y-121.5
X142.75Y-191.25
X142.95Y-53.2
X143.25Y-155.0
X143.25Y-193.75
X143.5Y-95.25
X143.5Y-98.25
X143.5Y-121.0
X143.5Y-72.5
X143.75Y-52.0
X144.412Y-109.162
X144.5Y-121.5
X144.75Y-78.5
X144.75Y-154.5
X144.75Y-191.25
X145.25Y-193.75
X145.5Y-178.25
X145.75Y-98.25
X146.25Y-48.0
X146.25Y-88.5
X146.25Y-117.25
X146.75Y-154.5
X146.75Y-191.25
X147.25Y-78.5
X147.25Y-116.75
X147.25Y-193.75
X147.35Y-104.9
X148.0Y-60.25
X148.0Y-98.25
X148.0Y-112.75
X148.45Y-104.9
X148.75Y-154.5
X148.75Y-191.25
X149.0Y-80.25
X149.0Y-82.0
X149.0Y-90.75
X149.0Y-95.75
X149.0Y-115.25
X149.25Y-193.75
X149.75Y-83.75
X150.0Y-96.5
X150.15Y-93.15
X150.75Y-85.25
X150.75Y-95.0
X150.75Y-154.5
X150.75Y-191.25
X151.25Y-193.75
X151.5Y-175.75
X152.25Y-87.25
X152.25Y-165.75
X152.55Y-93.95
X152.75Y-154.5
X152.75Y-191.25
X153.25Y-193.75
X153.75Y-88.75
X153.75Y-91.25
X153.75Y-92.75
X154.75Y-154.5
X154.75Y-191.25
X155.0Y-167.0
X155.25Y-88.25
X155.25Y-169.25
X155.25Y-193.75
X155.25Y-90.25
X155.5Y-48.75
X156.5Y-47.75
X156.75Y-154.5
X156.75Y-191.25
X157.25Y-193.75
X158.15Y-167.0
X158.15Y-168.0
X158.22Y-171.691
X158.75Y-191.25
X158.95Y-165.0
X159.0Y-171.0
X159.25Y-193.75
X160.75Y-191.25
X161.25Y-193.75
X161.75Y-164.5
X161.75Y-169.0
X161.75Y-170.75
X161.75Y-174.75
X162.75Y-191.25
X163.0Y-41.5
X163.25Y-163.5
X163.25Y-193.75
X164.75Y-56.0
X164.75Y-191.25
X165.25Y-163.75
X165.25Y-164.75
X165.25Y-165.75
X165.25Y-166.75
X165.25Y-167.75
X165.25Y-168.75
X165.25Y-169.75
X165.25Y-170.75
X165.25Y-171.75
X165.25Y-172.75
X165.25Y-173.75
X165.25Y-193.75
X165.35Y-179.2
X165.75Y-73.75
X166.0Y-112.0
X166.75Y-104.0
X166.75Y-191.25
X167.25Y-193.75
X168.25Y-98.25
X168.65Y-182.125
X168.75Y-191.25
X169.25Y-193.75
X169.35Y-42.85
X170.75Y-191.25
X171.0Y-129.25
X171.25Y-193.75
X172.0Y-92.75
X172.0Y-94.75
X172.0Y-128.25
X172.75Y-91.0
X172.75Y-191.25
X173.0Y-126.0
X173.25Y-193.75
X173.75Y-76.0
X174.0Y-127.0
X174.5Y-89.25
X174.75Y-51.75
X174.75Y-191.25
X175.25Y-193.75
X176.25Y-87.5
X176.75Y-191.25
X177.0Y-77.25
X177.25Y-193.75
X178.0Y-85.75
X178.5Y-67.0
X178.75Y-191.25
X179.25Y-193.75
X179.5Y-133.5
X180.25Y-85.75
X180.5Y-174.0
X180.5Y-178.25
X180.75Y-77.25
X180.75Y-191.25
X181.0Y-124.25
X181.25Y-193.75
X181.45Y-67.0
X181.75Y-141.25
X181.75Y-145.5
X181.75Y-149.5
X181.75Y-153.5
X181.75Y-157.75
X181.75Y-161.75
X181.75Y-166.0
X181.75Y-170.0
X182.0Y-137.25
X182.2Y-84.95
X182.75Y-124.25
X182.75Y-191.25
X183.25Y-51.75
X183.25Y-193.75
X183.95Y-83.2
X184.5Y-37.25
X184.5Y-77.25
X184.5Y-127.75
X184.75Y-191.25
X185.0Y-67.0
X185.25Y-193.75
X185.5Y-180.25
X185.7Y-81.45
X186.75Y-191.25
X187.25Y-193.75
X187.4Y-79.75
X188.25Y-77.25
X188.5Y-57.0
X188.75Y-191.25
X189.25Y-79.75
X189.25Y-193.75
X189.5Y-67.0
X190.25Y-51.75
X190.4Y-156.4
X190.45Y-148.2
X190.45Y-164.6
X190.5Y-140.0
X190.5Y-172.8
X190.75Y-191.25
X191.25Y-56.5
X191.25Y-79.75
X191.25Y-193.75
X192.75Y-191.25
X193.25Y-79.75
X193.25Y-193.75
X193.75Y-56.25
X194.75Y-191.25
X195.25Y-79.75
X195.25Y-193.75
X196.75Y-51.5
X196.75Y-191.25
X197.25Y-79.75
X197.25Y-193.75
X197.75Y-181.25
X198.5Y-50.0
X198.75Y-191.25
X199.25Y-79.75
X199.25Y-193.75
X200.262Y-177.762
X200.5Y-56.0
X200.75Y-191.25
X201.25Y-79.75
X201.25Y-193.75
X201.5Y-61.5
X202.75Y-191.25
X203.075Y-78.825
X203.25Y-193.75
X204.5Y-61.5
X204.75Y-191.25
X204.825Y-77.075
X205.25Y-193.75
X206.575Y-75.325
X206.85Y-190.6
X207.25Y-193.75
X208.0Y-161.0
X208.5Y-74.75
X208.725Y-188.725
X208.957Y-192.107
X210.5Y-74.75
X210.6Y-186.85
X210.707Y-190.357
X212.0Y-160.75
X212.35Y-185.1
X212.457Y-188.607
X212.5Y-74.75
X214.1Y-183.35
X214.207Y-186.857
X214.5Y-74.75
X215.75Y-181.75
X215.957Y-185.107
X216.25Y-160.75
X216.5Y-74.75
X216.75Y-55.0
X217.75Y-181.75
X218.0Y-61.5
X218.5Y-74.75
X219.75Y-181.75
X220.25Y-55.0
X220.25Y-160.75
X220.5Y-74.75
X221.75Y-61.5
X221.75Y-181.75
X222.5Y-74.75
X223.25Y-68.5
X223.5Y-55.5
X223.75Y-181.75
X224.5Y-74.75
X224.5Y-160.75
X224.6Y-184.85
X225.75Y-68.5
X226.4Y-183.1
X226.5Y-74.75
X226.5Y-186.75
X228.15Y-184.85
X228.25Y-188.5
X228.5Y-160.75
X229.25Y-52.25
X230.0Y-190.25
X230.025Y-186.725
X231.75Y-192.0
X231.775Y-188.475
X232.75Y-160.75
X233.25Y-56.5
X233.4Y-190.1
X233.5Y-193.75
X233.75Y-61.5
X234.525Y-191.225
X234.75Y-52.5
X234.75Y-193.75
X236.5Y-191.25
X236.75Y-160.75
X236.75Y-193.75
X238.25Y-55.5
X238.25Y-61.5
X238.5Y-191.25
X238.75Y-193.75
X240.5Y-191.25
X240.75Y-160.75
X240.75Y-193.75
X242.5Y-191.25
X242.75Y-193.75
X243.0Y-74.75
X244.5Y-191.25
X244.75Y-160.5
X244.75Y-193.75
X245.0Y-74.75
X246.5Y-191.25
X246.75Y-193.75
X247.0Y-74.75
X248.5Y-191.25
X248.55Y-75.7
X248.75Y-193.75
X249.0Y-50.75
X249.0Y-160.75
X250.5Y-191.25
X250.55Y-75.7
X250.75Y-193.75
X252.5Y-191.25
X252.55Y-75.7
X252.75Y-193.75
X253.0Y-160.75
X254.25Y-67.5
X254.5Y-191.25
X254.55Y-75.7
X254.75Y-193.75
X256.5Y-191.25
X256.55Y-75.7
X256.75Y-193.75
X258.5Y-191.25
X258.55Y-75.7
X258.75Y-193.75
X260.5Y-191.25
X260.55Y-75.7
X260.75Y-193.75
X261.75Y-150.75
X261.75Y-152.5
X262.25Y-67.75
X262.275Y-76.475
X262.5Y-191.25
X262.75Y-193.75
X264.025Y-78.225
X264.5Y-191.25
X264.75Y-193.75
X265.775Y-79.975
X266.5Y-191.25
X266.75Y-193.75
X267.525Y-81.725
X268.5Y-67.5
X268.5Y-191.25
X268.75Y-193.75
X268.95Y-162.05
X269.0Y-155.0
X269.0Y-156.0
X269.0Y-157.0
X269.0Y-158.0
X269.0Y-159.0
X269.0Y-160.0
X269.0Y-161.0
X269.0Y-163.0
X269.0Y-164.0
X269.0Y-165.0
X269.275Y-83.475
X269.92Y-134.92
X270.175Y-191.175
X270.25Y-164.25
X270.25Y-152.75
X270.35Y-47.2
X270.75Y-193.75
X271.0Y-150.5
X271.025Y-85.225
X271.15Y-171.8
X271.5Y-161.75
X272.25Y-163.0
X272.5Y-158.75
X272.5Y-161.0
X272.5Y-166.0
X272.75Y-154.75
X272.75Y-193.75
X272.775Y-86.975
X273.0Y-175.0
X273.0Y-191.25
X273.5Y-192.75
X274.0Y-135.0
X274.5Y-87.5
X274.75Y-193.75
X275.5Y-157.75
X275.5Y-163.75
X275.75Y-161.0
X276.25Y-157.25
X276.25Y-191.25
X276.25Y-193.0
X276.35Y-52.6
X276.5Y-87.5
X276.75Y-193.75
X278.25Y-135.0
X278.25Y-192.75
X278.442Y-163.558
X278.5Y-87.5
X278.55Y-118.15
X278.75Y-193.75
X279.75Y-166.0
X280.5Y-87.5
X280.5Y-192.75
X280.75Y-173.25
X280.75Y-193.75
X281.5Y-191.25
X282.0Y-170.5
X282.25Y-134.75
X282.5Y-87.5
X282.5Y-192.75
X282.75Y-193.75
X283.25Y-160.0
X283.75Y-154.0
X284.5Y-87.5
X284.75Y-193.75
X284.75Y-191.25
X284.95Y-120.6
X286.25Y-135.0
X286.3Y-88.2
X286.75Y-191.25
X286.75Y-193.75
X287.0Y-166.5
X288.05Y-89.95
X288.75Y-191.25
X288.75Y-193.75
X289.8Y-91.7
X290.5Y-135.25
X290.75Y-191.25
X290.75Y-193.75
X291.55Y-44.0
X291.55Y-93.45
X292.25Y-70.5
X292.5Y-130.77
X292.75Y-191.25
X292.75Y-193.75
X293.3Y-95.2
X293.5Y-103.75
X294.75Y-107.5
X294.75Y-191.25
X294.75Y-193.75
X295.05Y-96.95
X295.75Y-110.75
X296.25Y-94.5
X296.75Y-191.25
X296.75Y-193.75
X296.8Y-98.7
X298.2Y-96.55
X298.55Y-100.45
X298.75Y-191.25
X298.75Y-193.75
X300.0Y-160.0
X300.1Y-168.25
X300.3Y-102.2
X300.5Y-152.25
X300.7Y-99.05
X300.75Y-191.25
X300.75Y-193.75
X301.5Y-104.0
X301.5Y-106.0
X301.5Y-108.0
X301.5Y-110.0
X301.5Y-112.0
X301.5Y-114.0
X301.5Y-116.0
X301.5Y-118.0
X301.5Y-120.0
X301.5Y-122.0
X301.5Y-124.0
X301.5Y-126.0
X301.5Y-128.0
X301.5Y-130.0
X301.5Y-132.0
X301.5Y-134.0
X301.975Y-136.025
X302.55Y-155.83
X302.75Y-63.0
X302.75Y-191.25
X302.75Y-193.75
X302.85Y-148.6
X303.2Y-101.55
X303.725Y-137.775
X304.0Y-103.75
X304.0Y-105.5
X304.0Y-107.5
X304.0Y-109.5
X304.0Y-111.5
X304.0Y-113.5
X304.0Y-115.5
X304.0Y-117.5
X304.0Y-119.5
X304.0Y-121.5
X304.0Y-123.5
X304.0Y-125.5
X304.0Y-127.5
X304.0Y-129.5
X304.0Y-131.5
X304.0Y-133.5
X304.75Y-135.25
X304.75Y-191.25
X304.75Y-193.75
X305.25Y-147.5
X305.475Y-139.525
X306.5Y-137.0
X306.75Y-191.25
X306.75Y-193.75
X307.225Y-141.275
X308.25Y-138.75
X308.75Y-191.25
X308.75Y-193.75
X308.975Y-143.025
X310.0Y-140.5
X310.75Y-143.25
X310.75Y-191.25
X310.75Y-193.75
X311.7Y-65.8
X311.75Y-140.75
X312.75Y-143.25
X312.75Y-191.25
X312.75Y-193.75
X313.75Y-140.75
X314.0Y-56.0
X314.25Y-57.75
X314.75Y-143.25
X314.75Y-151.25
X314.75Y-191.25
X314.75Y-193.75
X315.75Y-70.25
X315.75Y-140.75
X316.75Y-143.25
X316.75Y-191.25
X316.75Y-193.75
X317.75Y-140.75
X317.8Y-162.7
X317.85Y-171.0
X317.98Y-158.73
X318.0Y-154.55
X318.0Y-166.9
X318.75Y-143.25
X318.75Y-191.25
X318.75Y-193.75
X319.5Y-66.75
X319.75Y-140.75
X320.6Y-56.6
X320.75Y-64.25
X320.75Y-143.25
X320.75Y-191.25
X320.75Y-193.75
X321.0Y-147.75
X321.75Y-140.75
X322.5Y-67.0
X322.75Y-143.25
X322.75Y-191.25
X322.75Y-193.75
X323.75Y-64.75
X323.75Y-140.75
X323.75Y-157.25
X324.0Y-137.75
X324.0Y-138.75
X324.75Y-191.25
X324.75Y-193.75
X325.0Y-145.5
X326.0Y-143.0
X326.5Y-65.0
X326.75Y-153.5
X326.75Y-191.25
X326.75Y-193.75
X327.725Y-145.525
X328.75Y-143.0
X328.75Y-191.25
X328.75Y-193.75
X329.225Y-147.025
X329.75Y-171.0
X329.75Y-178.5
X329.75Y-179.5
X329.75Y-180.5
X329.75Y-181.5
X329.75Y-182.5
X329.85Y-175.5
X329.85Y-176.5
X329.85Y-177.5
X329.86Y-174.49
X329.9Y-172.45
X329.9Y-173.45
X330.75Y-145.0
X330.75Y-191.25
X330.75Y-193.75
X330.975Y-148.775
X331.0Y-183.75
X332.5Y-146.75
X332.5Y-171.0
X332.725Y-150.525
X332.75Y-191.25
X332.75Y-193.75
X332.885Y-180.365
X333.5Y-173.25
X333.747Y-171.865
X333.8Y-174.45
X334.25Y-148.5
X334.475Y-152.275
X334.75Y-191.25
X334.75Y-193.75
X335.5Y-70.5
X335.5Y-184.75
X336.0Y-150.25
X336.2Y-180.25
X336.25Y-154.05
X336.25Y-156.25
X336.25Y-158.25
X336.25Y-175.0
X336.25Y-178.0
X336.75Y-175.75
X336.75Y-183.75
X336.75Y-191.25
X336.75Y-193.75
X336.975Y-160.275
X337.75Y-152.0
X338.65Y-176.9
X338.725Y-162.025
X338.75Y-153.75
X338.75Y-155.75
X338.75Y-157.75
X338.75Y-185.5
X338.75Y-191.25
X338.75Y-193.75
X339.75Y-159.5
X340.475Y-163.775
X340.75Y-170.75
X340.75Y-191.25
X340.75Y-193.75
X341.5Y-161.25
X342.225Y-165.525
X342.75Y-191.25
X342.75Y-193.75
X343.25Y-163.0
X343.975Y-167.275
X344.425Y-191.175
X344.75Y-193.75
X345.0Y-164.75
X345.725Y-169.025
X346.5Y-172.5
X346.75Y-166.5
X346.75Y-193.75
X347.45Y-169.05
X347.75Y-189.0
X347.75Y-190.25
X348.75Y-166.5
X348.9Y-193.75
X349.45Y-169.05
X350.0Y-174.75
X350.0Y-189.0
X350.5Y-192.25
X350.75Y-166.5
X351.55Y-169.05
X351.85Y-187.35
X352.0Y-190.75
X352.75Y-166.5
X353.225Y-185.975
X353.5Y-189.25
X354.0Y-167.75
X354.0Y-183.75
X354.75Y-170.75
X354.8Y-187.95
X355.0Y-184.25
X356.0Y-167.75
X356.25Y-171.0
X358.875Y-167.875
X360.75Y-169.75
X361.625Y-183.625
X362.5Y-171.5
X362.875Y-182.375
X363.375Y-174.625
X364.5Y-176.5
X364.5Y-179.5
X364.5Y-180.75
T2
X34.3Y-173.5
X38.5Y-173.5
T3
X30.5Y-152.25
X35.96Y-80.0
X35.96Y-82.54
X35.96Y-85.08
X35.96Y-87.62
X35.96Y-90.16
X35.96Y-92.7
X35.96Y-95.24
X35.96Y-97.78
X35.96Y-100.32
X35.96Y-102.86
X38.5Y-80.0
X38.5Y-82.54
X38.5Y-85.08
X38.5Y-87.62
X38.5Y-90.16
X38.5Y-92.7
X38.5Y-95.24
X38.5Y-97.78
X38.5Y-100.32
X38.5Y-102.86
X81.13Y-141.75
X83.67Y-141.75
X86.21Y-141.75
X88.75Y-141.75
X101.75Y-138.0
X101.75Y-140.54
X101.75Y-143.08
X101.75Y-145.62
X101.75Y-148.16
X101.75Y-150.7
X109.84Y-148.16
X112.342Y-73.664
X112.342Y-76.204
X112.342Y-78.744
X112.342Y-81.284
X112.342Y-83.824
X112.342Y-86.364
X112.342Y-88.904
X112.342Y-91.444
X112.35Y-95.45
X112.35Y-97.99
X112.35Y-100.53
X112.35Y-103.07
X112.35Y-105.61
X112.35Y-108.15
X112.35Y-110.69
X112.35Y-113.23
X112.35Y-118.35
X112.35Y-120.89
X112.35Y-123.43
X112.35Y-125.97
X112.35Y-128.51
X112.35Y-131.05
X112.35Y-133.59
X112.35Y-136.13
X113.09Y-148.16
X118.71Y-137.25
X121.25Y-137.25
X123.35Y-130.85
X123.75Y-132.55
X125.5Y-139.75
X147.05Y-128.7
X147.92Y-143.725
X147.92Y-146.265
X148.75Y-127.5
X150.46Y-143.725
X150.46Y-146.265
X150.55Y-120.9
X152.5Y-151.0
X152.85Y-120.9
X153.0Y-143.725
X153.0Y-146.265
X155.0Y-136.0
X155.75Y-139.0
X157.75Y-149.25
X160.6Y-77.7
X160.6Y-80.24
X160.6Y-82.78
X160.6Y-85.32
X160.6Y-87.86
X160.6Y-90.4
X160.6Y-92.94
X160.6Y-95.48
X160.6Y-100.55
X160.6Y-103.09
X160.6Y-105.63
X160.6Y-108.17
X160.6Y-110.71
X160.6Y-113.25
X160.6Y-115.79
X160.6Y-118.33
X160.6Y-123.4
X160.6Y-125.94
X160.6Y-128.48
X160.6Y-131.02
X160.6Y-133.56
X160.6Y-136.1
X160.6Y-138.64
X160.6Y-141.18
X160.75Y-97.75
X164.75Y-63.25
X167.0Y-95.5
X169.75Y-95.0
X179.25Y-95.39
X179.25Y-97.93
X179.25Y-100.47
X179.25Y-103.01
X179.25Y-105.55
X179.25Y-108.09
X179.25Y-110.63
X179.25Y-113.17
X179.25Y-115.71
X179.25Y-118.25
X181.79Y-95.39
X181.79Y-97.93
X181.79Y-100.47
X181.79Y-103.01
X181.79Y-105.55
X181.79Y-108.09
X181.79Y-110.63
X181.79Y-113.17
X181.79Y-115.71
X181.79Y-118.25
X208.25Y-57.0
X209.5Y-61.5
X213.75Y-51.0
X216.0Y-51.0
X227.0Y-138.75
X227.0Y-141.29
X229.54Y-138.75
X229.54Y-141.29
X232.08Y-138.75
X232.08Y-141.29
X234.62Y-138.75
X234.62Y-141.29
X237.16Y-138.75
X237.16Y-141.29
X239.7Y-138.75
X239.7Y-141.29
X242.24Y-138.75
X242.24Y-141.29
X275.0Y-99.76
X275.0Y-102.3
X275.0Y-104.84
X275.0Y-107.38
X275.0Y-109.92
X275.0Y-112.46
X275.0Y-115.0
X277.54Y-99.76
X277.54Y-102.3
X277.54Y-104.84
X277.54Y-107.38
X277.54Y-109.92
X277.54Y-112.46
X277.54Y-115.0
X301.5Y-94.5
X303.25Y-88.0
X304.75Y-94.5
X305.0Y-76.5
X305.0Y-89.75
X307.0Y-76.5
X308.43Y-69.08
X310.75Y-68.0
X312.5Y-71.5
X315.095Y-71.5
T4
X173.75Y-59.3
X173.75Y-63.8
X177.25Y-59.3
X177.25Y-63.8
X180.35Y-59.3
X180.35Y-63.8
X183.35Y-59.3
X183.35Y-63.8
X186.35Y-59.3
X186.35Y-63.8
X189.35Y-59.3
X189.35Y-63.8
X192.35Y-59.3
X192.35Y-63.8
X195.35Y-59.3
X195.35Y-63.8
X198.35Y-59.3
X198.35Y-63.8
X201.35Y-59.3
X201.35Y-63.8
X204.45Y-59.3
X204.45Y-63.8
X210.65Y-59.3
X210.65Y-63.8
X214.15Y-59.3
X214.15Y-63.8
X217.25Y-59.3
X217.25Y-63.8
X220.25Y-59.3
X220.25Y-63.8
X223.25Y-59.3
X223.25Y-63.8
X226.25Y-59.3
X226.25Y-63.8
X229.25Y-59.3
X229.25Y-63.8
X232.25Y-59.3
X232.25Y-63.8
X235.25Y-59.3
X235.25Y-63.8
X238.25Y-59.3
X238.25Y-63.8
X241.35Y-59.3
X241.35Y-63.8
X244.85Y-59.3
X244.85Y-63.8
X248.35Y-59.3
X248.35Y-63.8
T5
X273.0Y-68.7
X276.5Y-68.7
X280.0Y-68.7
X283.5Y-68.7
X287.0Y-68.7
X290.5Y-68.7
X294.0Y-68.7
X297.5Y-68.7
X326.75Y-51.65
X330.25Y-51.65
X333.75Y-51.65
X337.25Y-51.65
X340.75Y-51.65
X344.25Y-51.65
X347.75Y-51.65
X349.25Y-149.96
X349.25Y-152.96
X349.25Y-155.96
X349.25Y-162.96
X351.25Y-51.65
X373.25Y-140.96
X373.25Y-148.96
X373.25Y-153.96
X373.25Y-156.96
X373.25Y-159.96
X373.25Y-162.96
T6
X287.15Y-51.8
X309.65Y-51.8
X350.675Y-69.725
X373.175Y-69.725
T7
X259.25Y-51.6
X259.25Y-57.4
X264.65Y-51.6
X264.65Y-57.4
X270.05Y-51.6
X270.05Y-57.4
T8
X362.8Y-53.475
X372.8Y-53.475
T9
X32.75Y-41.0
X49.75Y-190.0
X154.75Y-41.0
X220.75Y-190.0
X357.0Y-41.0
X360.75Y-190.0
T10
X298.4Y-51.8
X361.925Y-69.725
T11
X96.75Y-138.0
X112.25Y-65.25
X267.75Y-88.0
X322.75Y-72.0
T12
X168.7Y-53.6
X207.55Y-53.6
X253.4Y-53.6
T13
X54.75Y-80.0
X54.75Y-130.0
X104.75Y-80.0
X104.75Y-130.0
X209.75Y-80.0
X209.75Y-130.0
X259.75Y-80.0
X259.75Y-130.0
X314.75Y-80.0
X314.75Y-130.0
X364.75Y-80.0
X364.75Y-130.0
T14
X79.75Y-105.0
X234.75Y-105.0
X339.75Y-105.0
T0
M30
