G04 #@! TF.GenerationSoftware,KiCad,Pcbnew,(5.1.9-0-10_14)*
G04 #@! TF.CreationDate,2021-05-29T21:56:35-04:00*
G04 #@! TF.ProjectId,LiBCM,4c694243-4d2e-46b6-9963-61645f706362,A*
G04 #@! TF.SameCoordinates,Original*
G04 #@! TF.FileFunction,Soldermask,Bot*
G04 #@! TF.FilePolarity,Negative*
%FSLAX46Y46*%
G04 Gerber Fmt 4.6, Leading zero omitted, Abs format (unit mm)*
G04 Created by KiCad (PCBNEW (5.1.9-0-10_14)) date 2021-05-29 21:56:35*
%MOMM*%
%LPD*%
G01*
G04 APERTURE LIST*
%ADD10O,1.700000X1.700000*%
%ADD11R,1.700000X1.700000*%
%ADD12O,2.000000X2.500000*%
%ADD13C,2.750000*%
%ADD14C,4.000000*%
%ADD15R,4.000000X4.000000*%
%ADD16C,3.000000*%
%ADD17C,4.500000*%
%ADD18C,59.000000*%
%ADD19O,3.500000X2.500000*%
%ADD20C,3.500000*%
%ADD21C,2.700000*%
%ADD22C,1.850000*%
%ADD23C,1.900000*%
%ADD24C,12.000000*%
G04 APERTURE END LIST*
D10*
G04 #@! TO.C,J16*
X181790000Y-95390000D03*
X179250000Y-95390000D03*
X181790000Y-97930000D03*
X179250000Y-97930000D03*
X181790000Y-100470000D03*
X179250000Y-100470000D03*
X181790000Y-103010000D03*
X179250000Y-103010000D03*
X181790000Y-105550000D03*
X179250000Y-105550000D03*
X181790000Y-108090000D03*
X179250000Y-108090000D03*
X181790000Y-110630000D03*
X179250000Y-110630000D03*
X181790000Y-113170000D03*
X179250000Y-113170000D03*
X181790000Y-115710000D03*
X179250000Y-115710000D03*
X181790000Y-118250000D03*
D11*
X179250000Y-118250000D03*
G04 #@! TD*
D12*
G04 #@! TO.C,J9*
X297500000Y-68700000D03*
X294000000Y-68700000D03*
X290500000Y-68700000D03*
X287000000Y-68700000D03*
X283500000Y-68700000D03*
X280000000Y-68700000D03*
X276500000Y-68700000D03*
X273000000Y-68700000D03*
G04 #@! TD*
D10*
G04 #@! TO.C,J1*
X160600000Y-95480000D03*
X160600000Y-92940000D03*
X160600000Y-90400000D03*
X160600000Y-87860000D03*
X160600000Y-85320000D03*
X160600000Y-82780000D03*
X160600000Y-80240000D03*
D11*
X160600000Y-77700000D03*
G04 #@! TD*
D10*
G04 #@! TO.C,J2*
X160600000Y-118330000D03*
X160600000Y-115790000D03*
X160600000Y-113250000D03*
X160600000Y-110710000D03*
X160600000Y-108170000D03*
X160600000Y-105630000D03*
X160600000Y-103090000D03*
D11*
X160600000Y-100550000D03*
G04 #@! TD*
D10*
G04 #@! TO.C,J3*
X160600000Y-141180000D03*
X160600000Y-138640000D03*
X160600000Y-136100000D03*
X160600000Y-133560000D03*
X160600000Y-131020000D03*
X160600000Y-128480000D03*
X160600000Y-125940000D03*
D11*
X160600000Y-123400000D03*
G04 #@! TD*
D10*
G04 #@! TO.C,J5*
X112342000Y-73664000D03*
X112342000Y-76204000D03*
X112342000Y-78744000D03*
X112342000Y-81284000D03*
X112342000Y-83824000D03*
X112342000Y-86364000D03*
X112342000Y-88904000D03*
D11*
X112342000Y-91444000D03*
G04 #@! TD*
D10*
G04 #@! TO.C,J6*
X112350000Y-95450000D03*
X112350000Y-97990000D03*
X112350000Y-100530000D03*
X112350000Y-103070000D03*
X112350000Y-105610000D03*
X112350000Y-108150000D03*
X112350000Y-110690000D03*
D11*
X112350000Y-113230000D03*
G04 #@! TD*
D10*
G04 #@! TO.C,J7*
X112350000Y-118350000D03*
X112350000Y-120890000D03*
X112350000Y-123430000D03*
X112350000Y-125970000D03*
X112350000Y-128510000D03*
X112350000Y-131050000D03*
X112350000Y-133590000D03*
D11*
X112350000Y-136130000D03*
G04 #@! TD*
D13*
G04 #@! TO.C,J10*
X259250000Y-51600000D03*
X264650000Y-51600000D03*
G36*
G01*
X271425000Y-50474998D02*
X271425000Y-52725002D01*
G75*
G02*
X271175002Y-52975000I-249998J0D01*
G01*
X268924998Y-52975000D01*
G75*
G02*
X268675000Y-52725002I0J249998D01*
G01*
X268675000Y-50474998D01*
G75*
G02*
X268924998Y-50225000I249998J0D01*
G01*
X271175002Y-50225000D01*
G75*
G02*
X271425000Y-50474998I0J-249998D01*
G01*
G37*
G04 #@! TD*
G04 #@! TO.C,P2*
X259250000Y-57400000D03*
X264650000Y-57400000D03*
G36*
G01*
X271425000Y-56274998D02*
X271425000Y-58525002D01*
G75*
G02*
X271175002Y-58775000I-249998J0D01*
G01*
X268924998Y-58775000D01*
G75*
G02*
X268675000Y-58525002I0J249998D01*
G01*
X268675000Y-56274998D01*
G75*
G02*
X268924998Y-56025000I249998J0D01*
G01*
X271175002Y-56025000D01*
G75*
G02*
X271425000Y-56274998I0J-249998D01*
G01*
G37*
G04 #@! TD*
D14*
G04 #@! TO.C,C30*
X362800000Y-53475000D03*
D15*
X372800000Y-53475000D03*
G04 #@! TD*
D16*
G04 #@! TO.C,M1*
X96750000Y-138000000D03*
D17*
X104750000Y-130000000D03*
X54750000Y-130000000D03*
X54750000Y-80000000D03*
X104750000Y-80000000D03*
D18*
X79750000Y-105000000D03*
G04 #@! TD*
D16*
G04 #@! TO.C,M2*
X267750000Y-88000000D03*
D17*
X259750000Y-80000000D03*
X259750000Y-130000000D03*
X209750000Y-130000000D03*
X209750000Y-80000000D03*
D18*
X234750000Y-105000000D03*
G04 #@! TD*
D16*
G04 #@! TO.C,M3*
X322750000Y-72000000D03*
D17*
X314750000Y-80000000D03*
X364750000Y-80000000D03*
X364750000Y-130000000D03*
X314750000Y-130000000D03*
D18*
X339750000Y-105000000D03*
G04 #@! TD*
D19*
G04 #@! TO.C,U8*
X349250000Y-149960000D03*
X349250000Y-155960000D03*
D20*
X349250000Y-162960000D03*
X373250000Y-140960000D03*
D19*
X373250000Y-148960000D03*
X373250000Y-153960000D03*
X373250000Y-156960000D03*
X373250000Y-159960000D03*
X373250000Y-162960000D03*
X349250000Y-152960000D03*
G04 #@! TD*
D21*
G04 #@! TO.C,F1*
X298400000Y-51800000D03*
D16*
X309650000Y-51800000D03*
X287150000Y-51800000D03*
G04 #@! TD*
D21*
G04 #@! TO.C,F2*
X361925000Y-69725000D03*
D16*
X373175000Y-69725000D03*
X350675000Y-69725000D03*
G04 #@! TD*
D12*
G04 #@! TO.C,J11*
X351250000Y-51650000D03*
X347750000Y-51650000D03*
X344250000Y-51650000D03*
X340750000Y-51650000D03*
X337250000Y-51650000D03*
X333750000Y-51650000D03*
X330250000Y-51650000D03*
X326750000Y-51650000D03*
G04 #@! TD*
G04 #@! TO.C,J12*
G36*
G01*
X39425000Y-172824999D02*
X39425000Y-174175001D01*
G75*
G02*
X39175001Y-174425000I-249999J0D01*
G01*
X37824999Y-174425000D01*
G75*
G02*
X37575000Y-174175001I0J249999D01*
G01*
X37575000Y-172824999D01*
G75*
G02*
X37824999Y-172575000I249999J0D01*
G01*
X39175001Y-172575000D01*
G75*
G02*
X39425000Y-172824999I0J-249999D01*
G01*
G37*
D22*
X34300000Y-173500000D03*
G04 #@! TD*
D11*
G04 #@! TO.C,J4*
X147920000Y-143725000D03*
D10*
X147920000Y-146265000D03*
X150460000Y-143725000D03*
X150460000Y-146265000D03*
X153000000Y-143725000D03*
X153000000Y-146265000D03*
G04 #@! TD*
D20*
G04 #@! TO.C,P1*
X253400000Y-53600000D03*
X207550000Y-53600000D03*
X168700000Y-53600000D03*
D23*
X248350000Y-59300000D03*
X248350000Y-63800000D03*
X244850000Y-59300000D03*
X244850000Y-63800000D03*
X241350000Y-59300000D03*
X241350000Y-63800000D03*
X238250000Y-59300000D03*
X238250000Y-63800000D03*
X235250000Y-59300000D03*
X235250000Y-63800000D03*
X232250000Y-59300000D03*
X232250000Y-63800000D03*
X229250000Y-59300000D03*
X229250000Y-63800000D03*
X226250000Y-59300000D03*
X226250000Y-63800000D03*
X223250000Y-59300000D03*
X223250000Y-63800000D03*
X220250000Y-59300000D03*
X220250000Y-63800000D03*
X217250000Y-59300000D03*
X217250000Y-63800000D03*
X214150000Y-59300000D03*
X214150000Y-63800000D03*
X210650000Y-59300000D03*
X210650000Y-63800000D03*
X204450000Y-59300000D03*
X204450000Y-63800000D03*
X201350000Y-59300000D03*
X201350000Y-63800000D03*
X198350000Y-59300000D03*
X198350000Y-63800000D03*
X195350000Y-59300000D03*
X195350000Y-63800000D03*
X192350000Y-59300000D03*
X192350000Y-63800000D03*
X189350000Y-59300000D03*
X189350000Y-63800000D03*
X186350000Y-59300000D03*
X186350000Y-63800000D03*
X183350000Y-59300000D03*
X183350000Y-63800000D03*
X180350000Y-59300000D03*
X180350000Y-63800000D03*
X177250000Y-59300000D03*
X177250000Y-63800000D03*
X173750000Y-59300000D03*
X173750000Y-63800000D03*
G04 #@! TD*
D11*
G04 #@! TO.C,J8*
X101750000Y-138000000D03*
D10*
X101750000Y-140540000D03*
X101750000Y-143080000D03*
X101750000Y-145620000D03*
X101750000Y-148160000D03*
X101750000Y-150700000D03*
G04 #@! TD*
D11*
G04 #@! TO.C,J14*
X88750000Y-141750000D03*
D10*
X86210000Y-141750000D03*
X83670000Y-141750000D03*
X81130000Y-141750000D03*
G04 #@! TD*
D16*
G04 #@! TO.C,H9*
X112250000Y-65250000D03*
G04 #@! TD*
D24*
G04 #@! TO.C,H4*
X32750000Y-41000000D03*
G04 #@! TD*
G04 #@! TO.C,H1*
X220750000Y-190000000D03*
G04 #@! TD*
G04 #@! TO.C,H2*
X49750000Y-190000000D03*
G04 #@! TD*
G04 #@! TO.C,H5*
X154750000Y-41000000D03*
G04 #@! TD*
G04 #@! TO.C,H6*
X357000000Y-41000000D03*
G04 #@! TD*
G04 #@! TO.C,H7*
X360750000Y-190000000D03*
G04 #@! TD*
D11*
G04 #@! TO.C,J15*
X121250000Y-137250000D03*
D10*
X118710000Y-137250000D03*
G04 #@! TD*
D11*
G04 #@! TO.C,J13*
X38500000Y-80000000D03*
D10*
X35960000Y-80000000D03*
X38500000Y-82540000D03*
X35960000Y-82540000D03*
X38500000Y-85080000D03*
X35960000Y-85080000D03*
X38500000Y-87620000D03*
X35960000Y-87620000D03*
X38500000Y-90160000D03*
X35960000Y-90160000D03*
X38500000Y-92700000D03*
X35960000Y-92700000D03*
X38500000Y-95240000D03*
X35960000Y-95240000D03*
X38500000Y-97780000D03*
X35960000Y-97780000D03*
X38500000Y-100320000D03*
X35960000Y-100320000D03*
X38500000Y-102860000D03*
X35960000Y-102860000D03*
G04 #@! TD*
G04 #@! TO.C,J17*
X277540000Y-99760000D03*
X275000000Y-99760000D03*
X277540000Y-102300000D03*
X275000000Y-102300000D03*
X277540000Y-104840000D03*
X275000000Y-104840000D03*
X277540000Y-107380000D03*
X275000000Y-107380000D03*
X277540000Y-109920000D03*
X275000000Y-109920000D03*
X277540000Y-112460000D03*
X275000000Y-112460000D03*
X277540000Y-115000000D03*
D11*
X275000000Y-115000000D03*
G04 #@! TD*
G04 #@! TO.C,J18*
X227000000Y-138750000D03*
D10*
X227000000Y-141290000D03*
X229540000Y-138750000D03*
X229540000Y-141290000D03*
X232080000Y-138750000D03*
X232080000Y-141290000D03*
X234620000Y-138750000D03*
X234620000Y-141290000D03*
X237160000Y-138750000D03*
X237160000Y-141290000D03*
X239700000Y-138750000D03*
X239700000Y-141290000D03*
X242240000Y-138750000D03*
X242240000Y-141290000D03*
G04 #@! TD*
M02*
