M48
; DRILL file {KiCad (5.1.9-0-10_14)} date Saturday, April 10, 2021 at 12:10:09 AM
; FORMAT={-:-/ absolute / inch / decimal}
; #@! TF.CreationDate,2021-04-10T00:10:09-04:00
; #@! TF.GenerationSoftware,Kicad,Pcbnew,(5.1.9-0-10_14)
FMAT,2
INCH
T1C0.0157
T2C0.0335
T3C0.0394
T4C0.0433
T5C0.0472
T6C0.0512
T7C0.0689
T8C0.0787
T9C0.1772
T10C0.1063
T11C0.1181
T12C0.1378
T13C0.1772
T14C2.3228
%
G90
G05
T1
X1.1713Y-5.6496
X1.25Y-5.6663
X1.3091Y-2.2835
X1.3878Y-5.6102
X1.4154Y-2.1181
X1.4665Y-2.3327
X1.5116Y-2.5402
X1.5138Y-2.5728
X1.5148Y-2.501
X1.5492Y-3.2441
X1.6142Y-2.3327
X1.628Y-3.1969
X1.6594Y-2.3228
X1.6634Y-4.7835
X1.6752Y-4.6417
X1.6831Y-2.8189
X1.6969Y-5.0374
X1.7303Y-2.6614
X1.75Y-4.2677
X1.752Y-5.0256
X1.7785Y-3.5591
X1.8012Y-3.5984
X1.8012Y-2.1102
X1.8091Y-3.5354
X1.811Y-6.1614
X1.811Y-6.3287
X1.8248Y-2.1811
X1.8307Y-5.8366
X1.8327Y-6.002
X1.8563Y-2.1496
X1.8602Y-5.502
X1.8602Y-5.689
X1.8642Y-2.2126
X1.8691Y-5.3917
X1.8799Y-2.1181
X1.8917Y-2.5561
X1.9272Y-2.2598
X1.9272Y-2.2992
X1.9272Y-2.3386
X1.9272Y-2.378
X1.9272Y-2.4173
X1.9272Y-2.4567
X1.9272Y-2.4961
X1.9272Y-2.5354
X1.9272Y-2.5748
X1.9272Y-4.3937
X1.9429Y-2.1102
X1.9488Y-5.4331
X1.9508Y-1.9134
X1.9872Y-2.124
X2.0079Y-6.4272
X2.0374Y-1.624
X2.0925Y-1.622
X2.1083Y-1.9685
X2.1161Y-1.8031
X2.2244Y-6.4272
X2.3327Y-5.5512
X2.3327Y-5.876
X2.3327Y-6.0335
X2.3327Y-6.2008
X2.3425Y-5.7087
X2.3425Y-6.3583
X2.5965Y-1.5276
X2.6083Y-6.6831
X2.6181Y-6.5945
X2.6201Y-2.6457
X2.628Y-1.5512
X2.628Y-1.6457
X2.628Y-1.748
X2.628Y-1.8425
X2.628Y-1.937
X2.628Y-2.0394
X2.628Y-2.1339
X2.628Y-2.2362
X2.6476Y-6.4764
X2.6831Y-2.6457
X2.687Y-6.6634
X2.7067Y-2.2598
X2.7165Y-6.2795
X2.7362Y-6.4075
X2.7559Y-6.2795
X2.7776Y-2.622
X2.7933Y-2.3228
X2.7953Y-6.2795
X2.8051Y-2.372
X2.8346Y-6.2795
X2.874Y-6.2795
X2.874Y-6.4272
X2.874Y-6.5453
X2.9134Y-6.2795
X2.9528Y-6.2795
X2.9823Y-6.5354
X2.9921Y-6.2795
X3.0315Y-6.2795
X3.0512Y-6.5846
X3.0709Y-6.2795
X3.0807Y-6.6142
X3.1004Y-6.4272
X3.1102Y-6.2795
X3.2776Y-1.6043
X3.2776Y-1.8012
X3.2874Y-1.998
X3.2874Y-2.1949
X3.3661Y-6.5354
X3.3661Y-6.6535
X3.9764Y-6.5059
X3.9862Y-6.6732
X3.9862Y-6.8307
X3.9862Y-6.998
X3.9862Y-7.1555
X3.9961Y-6.3386
X4.2913Y-5.4921
X4.3563Y-1.7323
X4.5177Y-1.5906
X4.5177Y-1.7953
X4.5276Y-2.2146
X4.5276Y-2.4114
X4.5325Y-2.0915
X4.5965Y-6.6339
X4.5965Y-6.9587
X4.7146Y-5.6201
X4.7146Y-4.0551
X4.7244Y-4.1043
X4.7343Y-4.1437
X4.7638Y-4.1142
X4.7638Y-5.3248
X4.7736Y-2.4902
X4.8524Y-4.4882
X4.8622Y-4.7933
X4.8819Y-3.7402
X4.9311Y-4.3307
X4.9311Y-4.8819
X4.9409Y-4.4783
X4.9606Y-3.7402
X4.9606Y-4.2224
X5.0Y-3.7795
X5.0059Y-4.5276
X5.0394Y-3.7402
X5.061Y-4.5197
X5.1378Y-3.5335
X5.1476Y-4.2224
X5.1555Y-4.9291
X5.2106Y-5.0315
X5.2559Y-3.7402
X5.3445Y-2.6378
X5.3484Y-2.1378
X5.3937Y-3.5827
X5.4075Y-2.1654
X5.4232Y-2.0374
X5.4429Y-3.5335
X5.4626Y-2.3622
X5.4783Y-2.1181
X5.502Y-2.3307
X5.5413Y-4.6161
X5.5492Y-2.2913
X5.5866Y-1.9626
X5.5906Y-2.8051
X5.5965Y-2.3701
X5.6004Y-4.7047
X5.6102Y-4.498
X5.6102Y-4.7835
X5.628Y-2.0945
X5.6496Y-4.7638
X5.6516Y-3.6299
X5.6594Y-2.0472
X5.6855Y-4.2977
X5.689Y-4.7835
X5.7151Y-6.5517
X5.7579Y-4.6161
X5.7972Y-4.5965
X5.8209Y-5.2697
X5.8268Y-4.439
X5.8268Y-6.4764
X5.8661Y-4.5374
X5.9429Y-3.6299
X5.9488Y-5.2717
X5.9646Y-6.9193
X5.9941Y-6.4567
X6.0335Y-6.565
X6.0802Y-4.9975
X6.1122Y-6.6634
X6.2292Y-6.7595
X6.25Y-6.4272
X6.25Y-6.6043
X6.2598Y-6.4961
X6.2598Y-6.7323
X6.2795Y-7.0177
X6.3681Y-6.6142
X6.3681Y-6.6535
X6.3681Y-6.7224
X6.3681Y-6.8799
X6.4272Y-6.4075
X6.5059Y-6.4469
X6.5059Y-6.4862
X6.5059Y-6.5256
X6.5059Y-6.565
X6.5059Y-6.6043
X6.5059Y-6.6437
X6.5059Y-6.6831
X6.5059Y-6.7224
X6.5059Y-6.7618
X6.5059Y-6.8012
X6.5059Y-6.8406
X6.5354Y-2.9134
X6.5354Y-2.9724
X6.5846Y-4.2028
X6.6929Y-3.8976
X6.6929Y-4.3799
X6.8012Y-4.2028
X6.9685Y-3.0413
X7.0177Y-4.7047
X7.0276Y-2.6378
X7.0669Y-4.626
X7.1063Y-6.8504
X7.1063Y-7.0177
X7.1161Y-3.0413
X7.1437Y-2.6378
X7.1555Y-5.561
X7.1555Y-5.7283
X7.1555Y-5.8858
X7.1555Y-6.0433
X7.1555Y-6.2106
X7.1555Y-6.3681
X7.1555Y-6.5354
X7.1555Y-6.6929
X7.1654Y-5.2362
X7.1654Y-5.4035
X7.2638Y-3.0413
X7.2835Y-2.6378
X7.3031Y-7.0965
X7.4213Y-3.0315
X7.4606Y-2.6378
X7.4961Y-6.1575
X7.498Y-5.8346
X7.498Y-6.4803
X7.5Y-5.5118
X7.5Y-6.8031
X7.5787Y-4.9803
X7.7461Y-1.9488
X8.189Y-6.3386
X8.3465Y-6.3287
X8.5138Y-6.3287
X8.6713Y-6.3287
X8.7894Y-2.6969
X8.8386Y-6.3287
X8.8878Y-2.6969
X8.9961Y-6.3287
X9.1634Y-6.3287
X9.3209Y-6.3287
X9.4783Y-6.3287
X9.6358Y-6.3189
X9.8031Y-6.3287
X9.8327Y-2.0394
X9.9606Y-6.3287
X10.1181Y-2.6673
X10.3051Y-5.935
X10.3051Y-6.0039
X10.3445Y-7.0374
X10.4035Y-7.0079
X10.5281Y-5.4396
X10.5886Y-6.3799
X10.5906Y-6.1024
X10.5906Y-6.1417
X10.5906Y-6.1811
X10.5906Y-6.2205
X10.5906Y-6.2598
X10.5906Y-6.2992
X10.5906Y-6.3386
X10.5906Y-6.4173
X10.5906Y-6.4567
X10.5906Y-6.4961
X10.6268Y-5.3118
X10.6398Y-6.4665
X10.6437Y-1.8583
X10.6496Y-5.935
X10.7283Y-6.25
X10.7283Y-6.3386
X10.7283Y-6.5354
X10.7382Y-6.0925
X10.748Y-6.8898
X10.748Y-7.5886
X10.7874Y-5.315
X10.8465Y-6.2106
X10.8563Y-6.3386
X10.8563Y-6.5945
X10.876Y-6.1909
X10.876Y-7.5492
X10.8799Y-2.0709
X10.9154Y-6.5551
X10.9547Y-5.315
X10.9623Y-6.4393
X10.9665Y-4.6516
X10.9921Y-6.4291
X11.0138Y-6.5354
X11.0531Y-6.8209
X11.0827Y-7.5886
X11.1024Y-6.7126
X11.1122Y-5.3051
X11.122Y-6.3189
X11.1713Y-6.063
X11.2106Y-7.5492
X11.2185Y-4.748
X11.2402Y-2.628
X11.2402Y-6.6929
X11.2697Y-5.315
X11.437Y-5.3248
X11.4783Y-1.7323
X11.5157Y-5.1484
X11.5551Y-4.0846
X11.6043Y-4.2323
X11.6437Y-4.3602
X11.811Y-6.2992
X11.815Y-6.624
X11.8307Y-5.9941
X11.9114Y-6.135
X11.9114Y-6.4579
X12.0472Y-2.4803
X12.3622Y-2.2047
X12.3819Y-2.3425
X12.4291Y-2.5906
X12.5118Y-6.4055
X12.5138Y-6.7323
X12.5189Y-6.2492
X12.5197Y-5.9232
X12.5197Y-6.0846
X12.5197Y-6.5709
X12.5886Y-2.7657
X12.622Y-2.2283
X12.7362Y-2.628
X12.7854Y-2.5295
X12.8543Y-2.6378
X12.9035Y-2.5492
X12.9823Y-7.0276
X12.9823Y-7.0669
X12.9823Y-7.1063
X12.9823Y-7.1457
X12.9823Y-7.185
X12.9862Y-6.9094
X12.9862Y-6.9488
X12.9862Y-6.9882
X12.9866Y-6.8697
X12.9882Y-6.7894
X12.9882Y-6.8287
X13.0118Y-2.5591
X13.0315Y-7.2343
X13.0906Y-6.7323
X13.1057Y-7.101
X13.1299Y-6.8209
X13.1397Y-6.7663
X13.1417Y-6.8681
X13.2087Y-7.2736
X13.2362Y-7.0965
X13.2382Y-6.8898
X13.2382Y-7.0079
X13.2579Y-6.9193
X13.2579Y-7.2343
X13.3327Y-6.9646
X13.3366Y-7.3031
X13.4547Y-6.6634
X13.6417Y-6.7913
X13.6417Y-7.5886
X13.6909Y-7.4902
X13.7795Y-6.8799
X13.9567Y-6.6831
X14.0256Y-6.7323
X14.065Y-7.1654
T2
X1.3504Y-6.8307
X1.5157Y-6.8307
X1.565Y-3.3504
X1.565Y-3.437
X1.565Y-3.5236
X1.565Y-3.6102
X1.565Y-3.6969
X1.565Y-3.7835
X1.565Y-3.8701
X1.565Y-3.9567
X1.565Y-4.0433
X1.565Y-4.1299
X1.6831Y-3.3504
X1.6831Y-3.437
X1.6831Y-3.5236
X1.6831Y-3.6102
X1.6831Y-3.6969
X1.6831Y-3.7835
X1.6831Y-3.8701
X1.6831Y-3.9567
X1.6831Y-4.0433
X1.6831Y-4.1299
X2.7303Y-2.415
X2.7303Y-2.565
X2.8681Y-2.4862
X2.8681Y-2.6043
X2.9547Y-2.4862
X2.9547Y-2.6043
X3.0413Y-2.4862
X3.0413Y-2.6043
X3.128Y-2.4862
X3.128Y-2.6043
X3.2146Y-2.4862
X3.2146Y-2.6043
X3.3012Y-2.4862
X3.3012Y-2.6043
X3.3878Y-2.4862
X3.3878Y-2.6043
X3.4744Y-2.4862
X3.4744Y-2.6043
X3.561Y-2.4862
X3.561Y-2.6043
X3.6476Y-2.4862
X3.6476Y-2.6043
X3.7343Y-2.4862
X3.7343Y-2.6043
X3.8209Y-2.4862
X3.8209Y-2.6043
X3.9587Y-2.4154
X3.9587Y-2.565
X7.3697Y-4.811
X7.3701Y-3.5827
X7.4409Y-3.7205
X7.4409Y-3.8071
X7.4409Y-3.8937
X7.4409Y-3.9803
X7.4409Y-4.0669
X7.4409Y-4.1535
X7.4409Y-4.2402
X7.4409Y-4.3268
X7.4409Y-4.4134
X7.4409Y-4.5
X7.4409Y-4.5866
X7.4409Y-4.6732
X7.5197Y-3.5827
X7.5197Y-4.811
X7.5591Y-3.7205
X7.5591Y-3.8071
X7.5591Y-3.8937
X7.5591Y-3.9803
X7.5591Y-4.0669
X7.5591Y-4.1535
X7.5591Y-4.2402
X7.5591Y-4.3268
X7.5591Y-4.4134
X7.5591Y-4.5
X7.5591Y-4.5866
X7.5591Y-4.6732
X10.8268Y-3.7441
X10.8268Y-3.8307
X10.8268Y-3.9173
X10.8268Y-4.0039
X10.8268Y-4.0906
X10.8268Y-4.1772
X10.8268Y-4.2638
X10.8268Y-4.3504
X10.8268Y-4.437
X10.8268Y-4.5236
X10.9449Y-3.7441
X10.9449Y-3.8307
X10.9449Y-3.9173
X10.9449Y-4.0039
X10.9449Y-4.0906
X10.9449Y-4.1772
X10.9449Y-4.2638
X10.9449Y-4.3504
X10.9449Y-4.437
X10.9449Y-4.5236
T3
X4.4229Y-2.9002
X4.4229Y-3.0002
X4.4229Y-3.1002
X4.4229Y-3.2002
X4.4229Y-3.3002
X4.4229Y-3.4002
X4.4229Y-3.5002
X4.4229Y-3.6002
X4.4232Y-3.7579
X4.4232Y-3.8579
X4.4232Y-3.9579
X4.4232Y-4.0579
X4.4232Y-4.1579
X4.4232Y-4.2579
X4.4232Y-4.3579
X4.4232Y-4.4579
X4.4232Y-4.6594
X4.4232Y-4.7594
X4.4232Y-4.8594
X4.4232Y-4.9594
X4.4232Y-5.0594
X4.4232Y-5.1594
X4.4232Y-5.2594
X4.4232Y-5.3594
X4.8563Y-5.1516
X4.8592Y-5.3248
X4.872Y-5.2264
X5.7776Y-4.9882
X5.7894Y-5.0669
X5.8563Y-5.0197
X5.9236Y-5.6585
X5.9236Y-5.7585
X5.9272Y-4.7598
X6.0138Y-4.5197
X6.0177Y-4.7598
X6.0236Y-5.6585
X6.0236Y-5.7585
X6.1004Y-4.5197
X6.3228Y-3.0591
X6.3228Y-3.1591
X6.3228Y-3.2591
X6.3228Y-3.3591
X6.3228Y-3.4591
X6.3228Y-3.5591
X6.3228Y-3.6591
X6.3228Y-3.7591
X6.3228Y-3.9587
X6.3228Y-4.0587
X6.3228Y-4.1587
X6.3228Y-4.2587
X6.3228Y-4.3587
X6.3228Y-4.4587
X6.3228Y-4.5587
X6.3228Y-4.6587
X6.3228Y-4.8583
X6.3228Y-4.9583
X6.3228Y-5.0583
X6.3228Y-5.1583
X6.3228Y-5.2583
X6.3228Y-5.3583
X6.3228Y-5.4583
X6.3228Y-5.5583
X6.8917Y-3.1496
X6.8957Y-3.063
X8.4154Y-1.9587
X8.5039Y-1.9587
X10.6693Y-6.0039
X10.6988Y-5.935
X10.7185Y-6.4075
X10.8559Y-6.4387
X11.8996Y-3.7008
X11.9094Y-3.5925
X12.1654Y-3.0118
X12.2441Y-3.0118
X12.3004Y-2.7197
X12.3917Y-2.6772
X12.4606Y-2.815
X12.5628Y-2.815
T4
X6.8406Y-2.3346
X6.8406Y-2.5118
X6.9783Y-2.3346
X6.9783Y-2.5118
X7.1004Y-2.3346
X7.1004Y-2.5118
X7.2185Y-2.3346
X7.2185Y-2.5118
X7.3366Y-2.3346
X7.3366Y-2.5118
X7.4547Y-2.3346
X7.4547Y-2.5118
X7.5728Y-2.3346
X7.5728Y-2.5118
X7.6909Y-2.3346
X7.6909Y-2.5118
X7.8091Y-2.3346
X7.8091Y-2.5118
X7.9272Y-2.3346
X7.9272Y-2.5118
X8.0492Y-2.3346
X8.0492Y-2.5118
X8.2933Y-2.3346
X8.2933Y-2.5118
X8.4311Y-2.3346
X8.4311Y-2.5118
X8.5531Y-2.3346
X8.5531Y-2.5118
X8.6713Y-2.3346
X8.6713Y-2.5118
X8.7894Y-2.3346
X8.7894Y-2.5118
X8.9075Y-2.3346
X8.9075Y-2.5118
X9.0256Y-2.3346
X9.0256Y-2.5118
X9.1437Y-2.3346
X9.1437Y-2.5118
X9.2618Y-2.3346
X9.2618Y-2.5118
X9.3799Y-2.3346
X9.3799Y-2.5118
X9.502Y-2.3346
X9.502Y-2.5118
X9.6398Y-2.3346
X9.6398Y-2.5118
X9.7776Y-2.3346
X9.7776Y-2.5118
T5
X3.189Y-5.5709
X3.3268Y-5.5709
X3.4646Y-5.5709
X3.6024Y-5.5709
X3.7402Y-5.5709
X3.878Y-5.5709
X4.0157Y-5.5709
X4.1535Y-5.5709
X8.2146Y-5.5354
X8.3646Y-5.5354
X8.5146Y-5.5354
X8.6646Y-5.5354
X8.8146Y-5.5354
X8.9646Y-5.5354
X9.1146Y-5.5354
X9.2646Y-5.5354
X9.4146Y-5.5354
X9.5646Y-5.5354
X9.7146Y-5.5354
X9.8646Y-5.5354
X10.0146Y-5.5354
X10.748Y-2.7047
X10.8858Y-2.7047
X11.0236Y-2.7047
X11.1614Y-2.7047
X11.2992Y-2.7047
X11.437Y-2.7047
X11.5748Y-2.7047
X11.7126Y-2.7047
X12.8642Y-2.0335
X13.002Y-2.0335
X13.1398Y-2.0335
X13.2776Y-2.0335
X13.4154Y-2.0335
X13.5531Y-2.0335
X13.6909Y-2.0335
X13.8287Y-2.0335
X13.8287Y-5.9039
X13.8287Y-6.022
X13.8287Y-6.1402
X13.8287Y-6.4157
X14.7736Y-5.5496
X14.7736Y-5.8646
X14.7736Y-6.0614
X14.7736Y-6.1795
X14.7736Y-6.2976
X14.7736Y-6.4157
T6
X11.3051Y-2.0394
X12.1909Y-2.0394
X13.9242Y-2.7451
X14.81Y-2.7451
T7
X10.2067Y-2.0315
X10.2067Y-2.2598
X10.4193Y-2.0315
X10.4193Y-2.2598
X10.6319Y-2.0315
X10.6319Y-2.2598
T8
X14.3031Y-2.0955
X14.6969Y-2.0955
T9
X1.2894Y-1.6142
X1.9587Y-7.4803
X6.0925Y-1.6142
X8.6909Y-7.4803
X14.0846Y-1.6142
X14.1634Y-7.4803
T10
X11.748Y-2.0394
X14.3671Y-2.7451
T11
X3.8091Y-5.4331
X10.5413Y-3.4646
X12.7067Y-2.8346
T12
X6.6417Y-2.1102
X8.1713Y-2.1102
X9.9764Y-2.1102
T13
X2.1555Y-3.1496
X2.1555Y-5.1181
X4.124Y-3.1496
X4.124Y-5.1181
X8.2579Y-3.1496
X8.2579Y-5.1181
X10.2264Y-3.1496
X10.2264Y-5.1181
X12.3917Y-3.1496
X12.3917Y-5.1181
X14.3602Y-3.1496
X14.3602Y-5.1181
T14
X3.1398Y-4.1339
X9.2421Y-4.1339
X13.376Y-4.1339
T0
M30
