%TF.GenerationSoftware,KiCad,Pcbnew,(5.1.9-0-10_14)*%
%TF.CreationDate,2021-04-10T00:10:23-04:00*%
%TF.ProjectId,LiBCM,4c694243-4d2e-46b6-9963-61645f706362,A*%
%TF.SameCoordinates,Original*%
%TF.FileFunction,Soldermask,Bot*%
%TF.FilePolarity,Negative*%
%FSLAX46Y46*%
G04 Gerber Fmt 4.6, Leading zero omitted, Abs format (unit mm)*
G04 Created by KiCad (PCBNEW (5.1.9-0-10_14)) date 2021-04-10 00:10:23*
%MOMM*%
%LPD*%
G01*
G04 APERTURE LIST*
%ADD10C,9.000000*%
%ADD11O,1.700000X1.700000*%
%ADD12R,1.700000X1.700000*%
%ADD13C,2.750000*%
%ADD14C,4.000000*%
%ADD15R,4.000000X4.000000*%
%ADD16C,3.000000*%
%ADD17C,4.500000*%
%ADD18C,59.000000*%
%ADD19O,3.500000X2.500000*%
%ADD20C,3.500000*%
%ADD21O,2.000000X1.500000*%
%ADD22O,1.500000X2.000000*%
%ADD23C,2.700000*%
%ADD24O,2.000000X2.500000*%
%ADD25C,1.900000*%
%ADD26C,1.850000*%
%ADD27C,2.500000*%
G04 APERTURE END LIST*
D10*
%TO.C,H1*%
X220750000Y-190000000D03*
%TD*%
%TO.C,H2*%
X49750000Y-190000000D03*
%TD*%
%TO.C,H4*%
X32750000Y-41000000D03*
%TD*%
%TO.C,H5*%
X154750000Y-41000000D03*
%TD*%
%TO.C,H6*%
X357750000Y-41000000D03*
%TD*%
%TO.C,H7*%
X359750000Y-190000000D03*
%TD*%
D11*
%TO.C,J1*%
X160600000Y-95480000D03*
X160600000Y-92940000D03*
X160600000Y-90400000D03*
X160600000Y-87860000D03*
X160600000Y-85320000D03*
X160600000Y-82780000D03*
X160600000Y-80240000D03*
D12*
X160600000Y-77700000D03*
%TD*%
D11*
%TO.C,J2*%
X160600000Y-118330000D03*
X160600000Y-115790000D03*
X160600000Y-113250000D03*
X160600000Y-110710000D03*
X160600000Y-108170000D03*
X160600000Y-105630000D03*
X160600000Y-103090000D03*
D12*
X160600000Y-100550000D03*
%TD*%
D11*
%TO.C,J3*%
X160600000Y-141180000D03*
X160600000Y-138640000D03*
X160600000Y-136100000D03*
X160600000Y-133560000D03*
X160600000Y-131020000D03*
X160600000Y-128480000D03*
X160600000Y-125940000D03*
D12*
X160600000Y-123400000D03*
%TD*%
D11*
%TO.C,J4*%
X153000000Y-146265000D03*
X153000000Y-143725000D03*
X150460000Y-146265000D03*
D12*
X150460000Y-143725000D03*
%TD*%
D11*
%TO.C,J5*%
X112342000Y-73664000D03*
X112342000Y-76204000D03*
X112342000Y-78744000D03*
X112342000Y-81284000D03*
X112342000Y-83824000D03*
X112342000Y-86364000D03*
X112342000Y-88904000D03*
D12*
X112342000Y-91444000D03*
%TD*%
D11*
%TO.C,J6*%
X112350000Y-95450000D03*
X112350000Y-97990000D03*
X112350000Y-100530000D03*
X112350000Y-103070000D03*
X112350000Y-105610000D03*
X112350000Y-108150000D03*
X112350000Y-110690000D03*
D12*
X112350000Y-113230000D03*
%TD*%
D11*
%TO.C,J7*%
X112350000Y-118350000D03*
X112350000Y-120890000D03*
X112350000Y-123430000D03*
X112350000Y-125970000D03*
X112350000Y-128510000D03*
X112350000Y-131050000D03*
X112350000Y-133590000D03*
D12*
X112350000Y-136130000D03*
%TD*%
D13*
%TO.C,J10*%
X259250000Y-51600000D03*
X264650000Y-51600000D03*
G36*
G01*
X271425000Y-50474998D02*
X271425000Y-52725002D01*
G75*
G02*
X271175002Y-52975000I-249998J0D01*
G01*
X268924998Y-52975000D01*
G75*
G02*
X268675000Y-52725002I0J249998D01*
G01*
X268675000Y-50474998D01*
G75*
G02*
X268924998Y-50225000I249998J0D01*
G01*
X271175002Y-50225000D01*
G75*
G02*
X271425000Y-50474998I0J-249998D01*
G01*
G37*
%TD*%
%TO.C,P2*%
X259250000Y-57400000D03*
X264650000Y-57400000D03*
G36*
G01*
X271425000Y-56274998D02*
X271425000Y-58525002D01*
G75*
G02*
X271175002Y-58775000I-249998J0D01*
G01*
X268924998Y-58775000D01*
G75*
G02*
X268675000Y-58525002I0J249998D01*
G01*
X268675000Y-56274998D01*
G75*
G02*
X268924998Y-56025000I249998J0D01*
G01*
X271175002Y-56025000D01*
G75*
G02*
X271425000Y-56274998I0J-249998D01*
G01*
G37*
%TD*%
D14*
%TO.C,C30*%
X363300000Y-53225000D03*
D15*
X373300000Y-53225000D03*
%TD*%
D16*
%TO.C,M1*%
X96750000Y-138000000D03*
D17*
X104750000Y-130000000D03*
X54750000Y-130000000D03*
X54750000Y-80000000D03*
X104750000Y-80000000D03*
D18*
X79750000Y-105000000D03*
%TD*%
D16*
%TO.C,M2*%
X267750000Y-88000000D03*
D17*
X259750000Y-80000000D03*
X259750000Y-130000000D03*
X209750000Y-130000000D03*
X209750000Y-80000000D03*
D18*
X234750000Y-105000000D03*
%TD*%
D16*
%TO.C,M3*%
X322750000Y-72000000D03*
D17*
X314750000Y-80000000D03*
X364750000Y-80000000D03*
X364750000Y-130000000D03*
X314750000Y-130000000D03*
D18*
X339750000Y-105000000D03*
%TD*%
D19*
%TO.C,U8*%
X351250000Y-149960000D03*
X351250000Y-155960000D03*
D20*
X351250000Y-162960000D03*
X375250000Y-140960000D03*
D19*
X375250000Y-148960000D03*
X375250000Y-153960000D03*
X375250000Y-156960000D03*
X375250000Y-159960000D03*
X375250000Y-162960000D03*
X351250000Y-152960000D03*
%TD*%
D21*
%TO.C,P3*%
X39750000Y-85100000D03*
X42750000Y-85100000D03*
X39750000Y-87300000D03*
X42750000Y-87300000D03*
X39750000Y-89500000D03*
X42750000Y-89500000D03*
X39750000Y-91700000D03*
X42750000Y-91700000D03*
X39750000Y-93900000D03*
X42750000Y-93900000D03*
X39750000Y-96100000D03*
X42750000Y-96100000D03*
X39750000Y-98300000D03*
X42750000Y-98300000D03*
X39750000Y-100500000D03*
X42750000Y-100500000D03*
X39750000Y-102700000D03*
X42750000Y-102700000D03*
X39750000Y-104900000D03*
X42750000Y-104900000D03*
%TD*%
%TO.C,P6*%
X275000000Y-95100000D03*
X278000000Y-95100000D03*
X275000000Y-97300000D03*
X278000000Y-97300000D03*
X275000000Y-99500000D03*
X278000000Y-99500000D03*
X275000000Y-101700000D03*
X278000000Y-101700000D03*
X275000000Y-103900000D03*
X278000000Y-103900000D03*
X275000000Y-106100000D03*
X278000000Y-106100000D03*
X275000000Y-108300000D03*
X278000000Y-108300000D03*
X275000000Y-110500000D03*
X278000000Y-110500000D03*
X275000000Y-112700000D03*
X278000000Y-112700000D03*
X275000000Y-114900000D03*
X278000000Y-114900000D03*
%TD*%
D22*
%TO.C,P4*%
X100550000Y-65150000D03*
X100550000Y-61350000D03*
X97050000Y-63150000D03*
X97050000Y-66150000D03*
X94850000Y-63150000D03*
X94850000Y-66150000D03*
X92650000Y-63150000D03*
X92650000Y-66150000D03*
X90450000Y-63150000D03*
X90450000Y-66150000D03*
X88250000Y-63150000D03*
X88250000Y-66150000D03*
X86050000Y-63150000D03*
X86050000Y-66150000D03*
X83850000Y-63150000D03*
X83850000Y-66150000D03*
X81650000Y-63150000D03*
X81650000Y-66150000D03*
X79450000Y-63150000D03*
X79450000Y-66150000D03*
X77250000Y-63150000D03*
X77250000Y-66150000D03*
X75050000Y-63150000D03*
X75050000Y-66150000D03*
X72850000Y-63150000D03*
X72850000Y-66150000D03*
X69350000Y-61340000D03*
X69350000Y-65150000D03*
%TD*%
D21*
%TO.C,P5*%
X191000000Y-91000000D03*
X187200000Y-91000000D03*
X189000000Y-94500000D03*
X192000000Y-94500000D03*
X189000000Y-96700000D03*
X192000000Y-96700000D03*
X189000000Y-98900000D03*
X192000000Y-98900000D03*
X189000000Y-101100000D03*
X192000000Y-101100000D03*
X189000000Y-103300000D03*
X192000000Y-103300000D03*
X189000000Y-105500000D03*
X192000000Y-105500000D03*
X189000000Y-107700000D03*
X192000000Y-107700000D03*
X189000000Y-109900000D03*
X192000000Y-109900000D03*
X189000000Y-112100000D03*
X192000000Y-112100000D03*
X189000000Y-114300000D03*
X192000000Y-114300000D03*
X189000000Y-116500000D03*
X192000000Y-116500000D03*
X189000000Y-118700000D03*
X192000000Y-118700000D03*
X187190000Y-122200000D03*
X191000000Y-122200000D03*
%TD*%
D23*
%TO.C,F1*%
X298400000Y-51800000D03*
D16*
X309650000Y-51800000D03*
X287150000Y-51800000D03*
%TD*%
D23*
%TO.C,F2*%
X364925000Y-69725000D03*
D16*
X376175000Y-69725000D03*
X353675000Y-69725000D03*
%TD*%
D24*
%TO.C,J8*%
X81000000Y-141500000D03*
X84500000Y-141500000D03*
X88000000Y-141500000D03*
X91500000Y-141500000D03*
X95000000Y-141500000D03*
X98500000Y-141500000D03*
X102000000Y-141500000D03*
X105500000Y-141500000D03*
%TD*%
%TO.C,J9*%
X297500000Y-68700000D03*
X294000000Y-68700000D03*
X290500000Y-68700000D03*
X287000000Y-68700000D03*
X283500000Y-68700000D03*
X280000000Y-68700000D03*
X276500000Y-68700000D03*
X273000000Y-68700000D03*
%TD*%
%TO.C,J11*%
X351250000Y-51650000D03*
X347750000Y-51650000D03*
X344250000Y-51650000D03*
X340750000Y-51650000D03*
X337250000Y-51650000D03*
X333750000Y-51650000D03*
X330250000Y-51650000D03*
X326750000Y-51650000D03*
%TD*%
D20*
%TO.C,P1*%
X253400000Y-53600000D03*
X207550000Y-53600000D03*
X168700000Y-53600000D03*
D25*
X248350000Y-63800000D03*
X248350000Y-59300000D03*
X244850000Y-63800000D03*
X244850000Y-59300000D03*
X241350000Y-63800000D03*
X241350000Y-59300000D03*
X238250000Y-63800000D03*
X238250000Y-59300000D03*
X235250000Y-63800000D03*
X235250000Y-59300000D03*
X232250000Y-63800000D03*
X232250000Y-59300000D03*
X229250000Y-63800000D03*
X229250000Y-59300000D03*
X226250000Y-63800000D03*
X226250000Y-59300000D03*
X223250000Y-63800000D03*
X223250000Y-59300000D03*
X220250000Y-63800000D03*
X220250000Y-59300000D03*
X217250000Y-63800000D03*
X217250000Y-59300000D03*
X214150000Y-63800000D03*
X214150000Y-59300000D03*
X210650000Y-63800000D03*
X210650000Y-59300000D03*
X204450000Y-63800000D03*
X204450000Y-59300000D03*
X201350000Y-63800000D03*
X201350000Y-59300000D03*
X198350000Y-63800000D03*
X198350000Y-59300000D03*
X195350000Y-63800000D03*
X195350000Y-59300000D03*
X192350000Y-63800000D03*
X192350000Y-59300000D03*
X189350000Y-63800000D03*
X189350000Y-59300000D03*
X186350000Y-63800000D03*
X186350000Y-59300000D03*
X183350000Y-63800000D03*
X183350000Y-59300000D03*
X180350000Y-63800000D03*
X180350000Y-59300000D03*
X177250000Y-63800000D03*
X177250000Y-59300000D03*
X173750000Y-63800000D03*
X173750000Y-59300000D03*
%TD*%
%TO.C,J12*%
G36*
G01*
X39425000Y-172824999D02*
X39425000Y-174175001D01*
G75*
G02*
X39175001Y-174425000I-249999J0D01*
G01*
X37824999Y-174425000D01*
G75*
G02*
X37575000Y-174175001I0J249999D01*
G01*
X37575000Y-172824999D01*
G75*
G02*
X37824999Y-172575000I249999J0D01*
G01*
X39175001Y-172575000D01*
G75*
G02*
X39425000Y-172824999I0J-249999D01*
G01*
G37*
D26*
X34300000Y-173500000D03*
%TD*%
D27*
%TO.C,J13*%
X208650000Y-140600000D03*
X212460000Y-140600000D03*
X216270000Y-140600000D03*
X220080000Y-140600000D03*
X223890000Y-140600000D03*
X227700000Y-140600000D03*
X231510000Y-140600000D03*
X235320000Y-140600000D03*
X239130000Y-140600000D03*
X242940000Y-140600000D03*
X246750000Y-140600000D03*
X250560000Y-140600000D03*
X254370000Y-140600000D03*
%TD*%
M02*
